<svg xmlns="http://www.w3.org/2000/svg" width="70" height="60" viewBox="0 0 70 60"><defs><style>.cls-1{fill:#ff94e7;}</style></defs><title>1 liv</title><g id="UI_elementer" data-name="UI elementer"><polygon class="cls-1" points="59.19 17.56 59.19 9.44 53.88 9.44 53.88 6 43.11 6 43.11 9.44 37.65 9.44 37.65 17.56 32.34 17.56 32.34 9.44 27.03 9.44 27.03 6 16.26 6 16.26 9.44 10.8 9.44 10.8 17.56 5.33 17.56 5.33 23.02 5.33 28.33 5.33 33.79 10.8 33.79 10.8 39.26 16.11 39.26 16.11 44.72 21.57 44.72 21.57 50.18 26.88 50.18 26.88 55.65 32.34 55.65 37.65 55.65 43.11 55.65 43.11 50.18 48.58 50.18 48.58 44.72 53.88 44.72 53.88 39.26 59.19 39.26 59.19 33.79 64.5 33.79 64.5 28.33 64.5 23.02 64.5 17.56 59.19 17.56"/></g></svg>
