<svg xmlns="http://www.w3.org/2000/svg" width="290" height="270" viewBox="0 0 290 270"><defs><style>.cls-1{fill:#fae5d3;}.cls-2{fill:#ee8457;}.cls-3{fill:#7e1b06;}.cls-4{fill:#eaac86;}.cls-5{fill:#e29656;}.cls-6{fill:#d9d2ca;}.cls-7{fill:#ededed;}.cls-8{fill:#881806;}.cls-9{fill:#fff;}.cls-10{fill:#ff6766;}.cls-11{fill:#66b0e5;}.cls-12{fill:#cce5f6;}</style></defs><title>Baby</title><g id="Spilkarakterer"><circle class="cls-1" cx="111.83" cy="158.51" r="17.15"/><circle class="cls-1" cx="100.92" cy="157.29" r="12.69"/><circle class="cls-1" cx="87.83" cy="154.2" r="8.92"/><circle class="cls-1" cx="80.43" cy="149.47" r="8.92"/><ellipse class="cls-1" cx="80.92" cy="137.86" rx="3.43" ry="6.69" transform="translate(-14.15 9.35) rotate(-6.08)"/><ellipse class="cls-1" cx="69.61" cy="143.23" rx="2.54" ry="5.32" transform="translate(-87.71 118.53) rotate(-55.16)"/><ellipse class="cls-1" cx="73.79" cy="138.62" rx="2.96" ry="6.33" transform="translate(-63.83 62.98) rotate(-33.18)"/><ellipse class="cls-1" cx="68.68" cy="148.03" rx="1.88" ry="4.19" transform="translate(-93.64 164.83) rotate(-71.02)"/><ellipse class="cls-1" cx="70.18" cy="152.66" rx="3.66" ry="1.79" transform="translate(-25.16 14.31) rotate(-9.88)"/><path class="cls-1" d="M173.93,191.83H112.88c-1.88,0-22.63,11.45-22.63,10.58l19.2-62.9c0-.87,1.55-1.58,3.43-1.58h61.05c1.89,0,3.43.71,3.43,1.58l21.95,60.84C199.31,201.22,175.82,191.83,173.93,191.83Z"/><circle class="cls-1" cx="178.73" cy="153.02" r="17.15"/><circle class="cls-1" cx="190.39" cy="151.99" r="12.69"/><circle class="cls-1" cx="203.08" cy="147.54" r="8.92"/><circle class="cls-1" cx="209.94" cy="142.05" r="8.92"/><ellipse class="cls-1" cx="208.23" cy="130.56" rx="3.43" ry="6.69"/><ellipse class="cls-1" cx="220.04" cy="134.69" rx="5.32" ry="2.54" transform="translate(-34.45 177.07) rotate(-40.93)"/><circle class="cls-2" cx="144.09" cy="87.17" r="65.85"/><circle class="cls-1" cx="210.63" cy="86.14" r="12"/><circle class="cls-1" cx="78.59" cy="86.14" r="12"/><circle class="cls-2" cx="210.46" cy="85.97" r="5.66"/><circle class="cls-2" cx="78.42" cy="86.32" r="5.66"/><circle class="cls-1" cx="144.09" cy="86.14" r="65.85"/><ellipse class="cls-1" cx="215.4" cy="130.55" rx="6.33" ry="2.96" transform="translate(1.07 262.85) rotate(-62.9)"/><ellipse class="cls-1" cx="221.47" cy="139.38" rx="4.19" ry="1.88" transform="translate(-38.19 106.95) rotate(-25.06)"/><ellipse class="cls-1" cx="220.47" cy="144.13" rx="1.79" ry="3.66" transform="translate(62.05 354.57) rotate(-86.2)"/><ellipse class="cls-1" cx="144.95" cy="205.5" rx="55.05" ry="33.27"/><path class="cls-3" d="M126.6,77.57l-.65.78c-4.48-3.75-11.44-2.85-15.51,2l-.72-.6C114.16,74.47,121.73,73.48,126.6,77.57Z"/><path class="cls-3" d="M156,75.51l.66.78c4.48-3.75,11.43-2.85,15.51,2l.71-.6C168.47,72.41,160.89,71.43,156,75.51Z"/><path class="cls-3" d="M109.23,71.28l.32-.77a9.25,9.25,0,0,0,12-5.19l.74.31A10.07,10.07,0,0,1,109.23,71.28Z"/><path class="cls-3" d="M175.11,67.85l-.32-.77a9.26,9.26,0,0,1-12-5.19l-.74.31A10.09,10.09,0,0,0,175.11,67.85Z"/><path class="cls-4" d="M135.91,91.47c.2.29.41.57.62.85,1.62-3.28,3.83-4.76,6.16-4.53s4.75,1.92,6.75,2.37a2.69,2.69,0,0,1,.48-.24c-2.16-.53-4.81-2.89-7.33-3.18C140.07,86.28,137.67,87.9,135.91,91.47Z"/><path class="cls-5" d="M143.06,35.41a1.38,1.38,0,0,1-.81-.27,1.36,1.36,0,0,1-.29-1.91A53.63,53.63,0,0,1,152.59,22c5-3.68,7.65-3.26,9-2.26A1.37,1.37,0,1,1,160,22c-.69-.5-2.73,0-5.76,2.24a51.07,51.07,0,0,0-10.06,10.62A1.4,1.4,0,0,1,143.06,35.41Z"/><path class="cls-5" d="M142.83,35.31A1.37,1.37,0,0,1,141.46,34a25.78,25.78,0,0,1,3.21-13.81c2.34-3.94,5.62-6.18,9.22-6.29a1.37,1.37,0,1,1,.08,2.74c-2.63.08-5.1,1.84-6.94,4.95a23,23,0,0,0-2.83,12.32,1.37,1.37,0,0,1-1.33,1.42Z"/><path class="cls-5" d="M141.74,34.41a1.38,1.38,0,0,1-1.12-.57,25.72,25.72,0,0,1-5-13.27c-.24-4.58,1.25-8.26,4.18-10.35a1.37,1.37,0,0,1,1.59,2.24c-4.62,3.29-4,12.17,1.45,19.79a1.37,1.37,0,0,1-.33,1.91A1.35,1.35,0,0,1,141.74,34.41Z"/><path class="cls-6" d="M197.6,226.07H91.28a3.43,3.43,0,0,1-3.43-3.42V204.47A3.44,3.44,0,0,1,91.28,201s37.57,1.71,53.94,0,52.38,0,52.38,0a3.44,3.44,0,0,1,3.43,3.43v18.18A3.44,3.44,0,0,1,197.6,226.07Z"/><path class="cls-7" d="M197.6,227.45H91.28A3.44,3.44,0,0,1,87.85,224V205.84a3.44,3.44,0,0,1,3.43-3.43s37.57,1.71,53.94,0,52.38,0,52.38,0a3.44,3.44,0,0,1,3.43,3.43V224A3.45,3.45,0,0,1,197.6,227.45Z"/><path class="cls-7" d="M199.65,226.76c-8.91,5.83-30.18,21.61-53.5,21.61-27.88,0-45.27-16.81-55.22-20.58-8.14-3.09,28.89-11,55.22-11S207,222,199.65,226.76Z"/><ellipse class="cls-6" cx="103.5" cy="240.1" rx="23.9" ry="18.32" transform="translate(-106.19 83.92) rotate(-30)"/><ellipse class="cls-1" cx="90.78" cy="246.39" rx="14.95" ry="18.52" transform="translate(-167.99 201.82) rotate(-60)"/><ellipse class="cls-1" cx="104.26" cy="240.31" rx="21.91" ry="18.84" transform="translate(-106.19 84.32) rotate(-30)"/><path class="cls-2" d="M95.74,223.33c-2.79,12.57-5,37.38-13.8,37.38S70,239.56,70,226.31"/><path class="cls-1" d="M96.08,220.93c-3.09,13-5.51,38.76-15.26,38.76S67.61,237.75,67.61,224"/><ellipse class="cls-1" cx="93.33" cy="219.39" rx="4.46" ry="5.66"/><ellipse class="cls-1" cx="85.62" cy="219.5" rx="3.6" ry="4.4"/><ellipse class="cls-1" cx="79.62" cy="220.59" rx="3.09" ry="3.77"/><ellipse class="cls-1" cx="74.13" cy="222.38" rx="2.74" ry="3.35"/><ellipse class="cls-1" cx="68.98" cy="223.98" rx="2.4" ry="3.81"/><ellipse class="cls-6" cx="187.53" cy="240.96" rx="18.34" ry="24.2" transform="translate(-114.91 282.89) rotate(-60)"/><ellipse class="cls-1" cx="200" cy="247.08" rx="18.52" ry="14.95" transform="translate(-96.75 133.1) rotate(-30)"/><ellipse class="cls-1" cx="186.52" cy="240.99" rx="18.84" ry="21.91" transform="translate(-115.44 282.03) rotate(-60)"/><path class="cls-2" d="M194.51,223c2.88,12.69,5.15,37.72,14.26,37.72s12.34-21.35,12.34-34.72"/><path class="cls-1" d="M194.7,221.62c3.09,13,5.51,38.75,15.26,38.75s13.21-21.93,13.21-35.67"/><ellipse class="cls-1" cx="197.45" cy="220.07" rx="4.46" ry="5.66"/><ellipse class="cls-1" cx="205.16" cy="220.19" rx="3.6" ry="4.4"/><ellipse class="cls-1" cx="211.16" cy="221.27" rx="3.09" ry="3.77"/><ellipse class="cls-1" cx="216.65" cy="223.06" rx="2.74" ry="3.35"/><ellipse class="cls-1" cx="221.8" cy="224.66" rx="2.4" ry="3.81"/><path class="cls-8" d="M145.26,101.31c-12.28,0-33.19,14-22.14,25.83,6.19,6.6,8.73,2.87,15.44.93a2.25,2.25,0,0,1,.85-.24.94.94,0,0,1,.43-.12,14.15,14.15,0,0,1,4.65-.65,23.67,23.67,0,0,1,3.26.19h0l.14,0h.14l.15,0a.84.84,0,0,1,.37.08,4.17,4.17,0,0,1,.71.07,4.77,4.77,0,0,1,.49.15l.16,0,.17,0,.33.07a3.36,3.36,0,0,1,.77.2c8,1.93,11.75,6.6,16.35-.73C176.79,112.46,157.53,101.31,145.26,101.31Z"/><path class="cls-9" d="M150.38,101.64h-.06c-.34-.08-.65-.19-1-.29a6.74,6.74,0,0,0-1.33-.23,1,1,0,0,1-.31,0h0l-.22,0a1,1,0,0,1-.31,0,.9.9,0,0,1-.34-.06c-.65,0-1.29.07-2,.08q-.58,0-1.17,0a.87.87,0,0,1-.44.11h0a.76.76,0,0,1-.21,0h-.14a1,1,0,0,1-.32.06h-.12a.93.93,0,0,1-.42.1h-.17a.88.88,0,0,1-.33.06h-.07a1,1,0,0,1-.36.07H141a1.27,1.27,0,0,1-.28.06.83.83,0,0,1-.52.16h0a.81.81,0,0,1-.52.17h0V109c0,2.68,10.52,2.67,10.71,0C150.48,107.21,150.42,103.46,150.38,101.64Z"/><path class="cls-10" d="M145.61,117.3c-4,0-7.2,4.17-7.2,9.31a12.33,12.33,0,0,0,.09,1.5,2.1,2.1,0,0,1,.91-.28.94.94,0,0,1,.43-.12,14.15,14.15,0,0,1,4.65-.65,23.67,23.67,0,0,1,3.26.19h0l.14,0h.14l.15,0a.84.84,0,0,1,.37.08,4.17,4.17,0,0,1,.71.07,4.77,4.77,0,0,1,.49.15l.16,0,.17,0,.55.12.1,0a2.54,2.54,0,0,1,.74.14,7.7,7.7,0,0,0,1.19.36,12.55,12.55,0,0,0,.11-1.64C152.81,121.47,149.59,117.3,145.61,117.3Z"/><path class="cls-11" d="M101.22,85.15c1.2-1.76,5.42-6.47,5.42-6.47s-5.6.49-7.4.89c-1.29.29-4.5,1.5-6.22,2.16a8.16,8.16,0,0,0-5,3.85c-2.13,3.48-1.64,7.65,1.07,9.3s6.49,0,8.61-3.49a10.41,10.41,0,0,0,.58-1.09C99,88.86,100.39,86.35,101.22,85.15Z"/><path class="cls-12" d="M95.06,82.71h0a.42.42,0,0,0,.6.37l4-1.5a.77.77,0,0,0,.48-.78h0a.43.43,0,0,0-.61-.37l-4,1.5A.78.78,0,0,0,95.06,82.71Z"/><path class="cls-12" d="M93,83.63h0a.44.44,0,0,0,.64.31h0a.79.79,0,0,0,.43-.81h0a.43.43,0,0,0-.64-.31h0A.78.78,0,0,0,93,83.63Z"/><path class="cls-11" d="M185.38,85.83c-1.21-1.76-5.43-6.46-5.43-6.46s5.6.48,7.4.89c1.29.29,4.51,1.49,6.22,2.15a8.24,8.24,0,0,1,5,3.85c2.13,3.49,1.65,7.66-1.07,9.31s-6.49,0-8.61-3.49a10.55,10.55,0,0,1-.58-1.1C187.57,89.54,186.21,87,185.38,85.83Z"/><path class="cls-12" d="M191.54,83.4h0a.43.43,0,0,1-.61.37l-4-1.5a.81.81,0,0,1-.48-.78h0a.43.43,0,0,1,.61-.37l4,1.5A.79.79,0,0,1,191.54,83.4Z"/><path class="cls-12" d="M193.64,84.31h0a.42.42,0,0,1-.64.31h0a.79.79,0,0,1-.43-.8h0a.43.43,0,0,1,.65-.31h0A.77.77,0,0,1,193.64,84.31Z"/><path class="cls-11" d="M231,90.59c-1.89-1-7.82-3.18-7.82-3.18s5.18-2.19,7-2.67c1.28-.35,4.69-.78,6.51-1a8.22,8.22,0,0,1,6.25,1.06c3.5,2.09,5,6,3.39,8.73s-5.74,3-9.25.93a10.78,10.78,0,0,1-1-.7C234.62,92.85,232.24,91.27,231,90.59Z"/><path class="cls-12" d="M235.26,85.56h0a.43.43,0,0,1-.36.61l-4.22.53a.77.77,0,0,1-.78-.47h0a.43.43,0,0,1,.36-.61l4.22-.53A.8.8,0,0,1,235.26,85.56Z"/><path class="cls-12" d="M237.55,85.39h0a.43.43,0,0,1-.42.57h0a.77.77,0,0,1-.76-.51h0a.44.44,0,0,1,.43-.58h0A.79.79,0,0,1,237.55,85.39Z"/><path class="cls-11" d="M50.45,88.87c1.88-1,7.81-3.18,7.81-3.18s-5.18-2.18-7-2.67c-1.28-.34-4.68-.78-6.5-1a8.2,8.2,0,0,0-6.25,1c-3.51,2.09-5,6-3.39,8.74s5.74,3,9.24.92a10.7,10.7,0,0,0,1-.69C46.78,91.13,49.15,89.56,50.45,88.87Z"/><path class="cls-12" d="M46.13,83.85h0a.43.43,0,0,0,.37.61l4.21.52a.79.79,0,0,0,.79-.47h0a.43.43,0,0,0-.37-.61l-4.21-.52A.79.79,0,0,0,46.13,83.85Z"/><path class="cls-12" d="M43.84,83.67h0a.44.44,0,0,0,.43.58h0a.79.79,0,0,0,.75-.52h0a.43.43,0,0,0-.42-.57h0A.79.79,0,0,0,43.84,83.67Z"/><path class="cls-11" d="M227,106.78c.11-2.12-.38-8.43-.38-8.43s4.16,3.79,5.34,5.21c.85,1,2.66,3.93,3.63,5.49a8.24,8.24,0,0,1,1.65,6.12c-.43,4.06-3.35,7.07-6.51,6.73s-5.15-4-4.72-8a11.74,11.74,0,0,1,.21-1.21C226.44,111.06,226.87,108.25,227,106.78Z"/><path class="cls-12" d="M233.32,108.6h0a.43.43,0,0,1-.71-.08l-2.24-3.61a.79.79,0,0,1,.1-.9h0a.43.43,0,0,1,.71.07l2.24,3.61A.79.79,0,0,1,233.32,108.6Z"/><path class="cls-12" d="M234.44,110.6h0a.43.43,0,0,1-.7-.14h0a.79.79,0,0,1,.15-.9h0a.44.44,0,0,1,.7.14h0A.79.79,0,0,1,234.44,110.6Z"/><path class="cls-11" d="M67.12,106.1c-.12-2.13.37-8.43.37-8.43s-4.15,3.79-5.33,5.21c-.85,1-2.67,3.92-3.63,5.49a8.21,8.21,0,0,0-1.65,6.11c.43,4.06,3.35,7.08,6.51,6.74s5.15-4,4.71-8a9.41,9.41,0,0,0-.2-1.22C67.63,110.38,67.19,107.56,67.12,106.1Z"/><path class="cls-12" d="M60.75,107.91h0a.42.42,0,0,0,.7-.07l2.24-3.61a.77.77,0,0,0-.1-.91h0a.42.42,0,0,0-.7.08L60.65,107A.77.77,0,0,0,60.75,107.91Z"/><path class="cls-12" d="M59.63,109.92h0a.43.43,0,0,0,.7-.15h0a.77.77,0,0,0-.15-.89h0a.43.43,0,0,0-.7.14h0A.77.77,0,0,0,59.63,109.92Z"/></g></svg>
