<svg id="Layer_1" data-name="Layer 1" xmlns="http://www.w3.org/2000/svg" width="300" height="100" viewBox="0 0 300 100"><defs><style>.cls-1{fill:#fae5d3;}.cls-2{fill:#ee8457;}.cls-3{fill:#7e1b06;}.cls-4{fill:#eaac86;}.cls-5{fill:#e29656;}.cls-6{fill:#d9d2ca;}.cls-7{fill:#ededed;}.cls-8{fill:#881806;}.cls-9{fill:#fff;}.cls-10{fill:#ff6766;}.cls-11{fill:#66b0e5;}.cls-12{fill:#cce5f6;}.cls-13{fill:none;}</style></defs><title>Artboard 1</title><circle class="cls-1" cx="39.5" cy="56.97" r="5.42"/><circle class="cls-1" cx="36.05" cy="56.58" r="4.01"/><circle class="cls-1" cx="31.91" cy="55.6" r="2.82"/><circle class="cls-1" cx="29.57" cy="54.11" r="2.82"/><ellipse class="cls-1" cx="29.73" cy="50.44" rx="1.08" ry="2.12" transform="translate(-5.18 3.43) rotate(-6.08)"/><ellipse class="cls-1" cx="26.15" cy="52.13" rx="0.8" ry="1.68" transform="translate(-31.58 43.81) rotate(-55.16)"/><ellipse class="cls-1" cx="27.47" cy="50.67" rx="0.94" ry="2" transform="translate(-23.25 23.29) rotate(-33.18)"/><ellipse class="cls-1" cx="25.86" cy="53.65" rx="0.59" ry="1.32" transform="translate(-33.29 60.65) rotate(-71.02)"/><ellipse class="cls-1" cx="26.33" cy="55.11" rx="1.16" ry="0.57" transform="translate(-9.07 5.34) rotate(-9.88)"/><path class="cls-1" d="M59.15,67.5H39.84c-.6,0-7.16,3.63-7.16,3.35L38.75,51c0-.28.49-.5,1.09-.5H59.15c.59,0,1.08.22,1.08.5L67.17,70.2C67.17,70.48,59.74,67.5,59.15,67.5Z"/><circle class="cls-1" cx="60.67" cy="55.23" r="5.42"/><circle class="cls-1" cx="64.35" cy="54.91" r="4.01"/><circle class="cls-1" cx="68.37" cy="53.5" r="2.82"/><circle class="cls-1" cx="70.54" cy="51.76" r="2.82"/><ellipse class="cls-1" cx="69.99" cy="48.13" rx="1.08" ry="2.12"/><ellipse class="cls-1" cx="73.73" cy="49.43" rx="1.68" ry="0.8" transform="translate(-14.36 60.38) rotate(-40.93)"/><circle class="cls-2" cx="49.71" cy="34.4" r="20.83"/><circle class="cls-1" cx="70.75" cy="34.08" r="3.8"/><circle class="cls-1" cx="28.99" cy="34.08" r="3.8"/><circle class="cls-2" cx="70.7" cy="34.02" r="1.79"/><circle class="cls-2" cx="28.94" cy="34.13" r="1.79"/><circle class="cls-1" cx="49.71" cy="34.08" r="20.83"/><ellipse class="cls-1" cx="72.26" cy="48.12" rx="2" ry="0.94" transform="translate(-3.49 90.54) rotate(-62.9)"/><ellipse class="cls-1" cx="74.18" cy="50.91" rx="1.32" ry="0.59" transform="translate(-14.58 36.22) rotate(-25.06)"/><ellipse class="cls-1" cx="73.87" cy="52.42" rx="0.57" ry="1.16" transform="translate(16.67 122.65) rotate(-86.2)"/><ellipse class="cls-1" cx="49.98" cy="71.83" rx="17.41" ry="10.52"/><path class="cls-3" d="M44.18,31.37l-.21.24a3.52,3.52,0,0,0-4.91.64l-.22-.19A3.81,3.81,0,0,1,44.18,31.37Z"/><path class="cls-3" d="M53.48,30.71l.21.25a3.52,3.52,0,0,1,4.91.64l.22-.19A3.82,3.82,0,0,0,53.48,30.71Z"/><path class="cls-3" d="M38.68,29.38l.1-.25a2.92,2.92,0,0,0,3.8-1.64l.23.1A3.18,3.18,0,0,1,38.68,29.38Z"/><path class="cls-3" d="M59.52,28.29l-.1-.24a2.93,2.93,0,0,1-3.8-1.64l-.23.1A3.19,3.19,0,0,0,59.52,28.29Z"/><path class="cls-4" d="M47.12,35.76l.2.27c.51-1,1.21-1.51,1.94-1.43a12.25,12.25,0,0,1,2.14.75l.15-.08c-.68-.16-1.52-.91-2.32-1S47.68,34.63,47.12,35.76Z"/><path class="cls-5" d="M49.38,18a.43.43,0,0,1-.35-.69A17,17,0,0,1,52.4,13.8c1.57-1.17,2.41-1,2.85-.71a.43.43,0,0,1-.51.7c-.22-.16-.87,0-1.82.71a16.15,16.15,0,0,0-3.19,3.35A.41.41,0,0,1,49.38,18Z"/><path class="cls-5" d="M49.31,18a.43.43,0,0,1-.43-.42,8.22,8.22,0,0,1,1-4.37,3.61,3.61,0,0,1,2.92-2,.44.44,0,0,1,0,.87,2.77,2.77,0,0,0-2.19,1.57,7.3,7.3,0,0,0-.9,3.89.44.44,0,0,1-.42.45Z"/><path class="cls-5" d="M49,17.72a.45.45,0,0,1-.36-.19A8.24,8.24,0,0,1,47,13.34a3.61,3.61,0,0,1,1.33-3.27.43.43,0,0,1,.5.7c-1.46,1-1.26,3.85.46,6.26a.44.44,0,0,1-.1.61A.49.49,0,0,1,49,17.72Z"/><path class="cls-6" d="M66.63,78.34H33a1.09,1.09,0,0,1-1.08-1.09V71.5A1.09,1.09,0,0,1,33,70.42s11.89.54,17.06,0,16.57,0,16.57,0a1.09,1.09,0,0,1,1.09,1.08v5.75A1.09,1.09,0,0,1,66.63,78.34Z"/><path class="cls-7" d="M66.63,78.77H33a1.09,1.09,0,0,1-1.08-1.08V71.94A1.09,1.09,0,0,1,33,70.85s11.89.54,17.06,0,16.57,0,16.57,0a1.09,1.09,0,0,1,1.09,1.09v5.75A1.09,1.09,0,0,1,66.63,78.77Z"/><path class="cls-7" d="M67.28,78.55c-2.82,1.85-9.54,6.84-16.92,6.84-8.82,0-14.32-5.32-17.46-6.51-2.58-1,9.13-3.47,17.46-3.47S69.59,77.05,67.28,78.55Z"/><ellipse class="cls-6" cx="36.87" cy="82.77" rx="7.56" ry="5.79" transform="translate(-36.45 29.52) rotate(-30)"/><ellipse class="cls-1" cx="32.85" cy="84.76" rx="4.73" ry="5.86" transform="translate(-56.98 70.83) rotate(-60)"/><ellipse class="cls-1" cx="37.11" cy="82.84" rx="6.93" ry="5.96" transform="translate(-36.45 29.65) rotate(-30)"/><path class="cls-2" d="M34.41,77.47c-.88,4-1.57,11.82-4.36,11.82s-3.77-6.69-3.77-10.88"/><path class="cls-1" d="M34.52,76.71C33.55,80.83,32.78,89,29.7,89S25.52,82,25.52,77.69"/><ellipse class="cls-1" cx="33.65" cy="76.22" rx="1.41" ry="1.79"/><ellipse class="cls-1" cx="31.21" cy="76.26" rx="1.14" ry="1.39"/><ellipse class="cls-1" cx="29.32" cy="76.6" rx="0.98" ry="1.19"/><ellipse class="cls-1" cx="27.58" cy="77.17" rx="0.87" ry="1.06"/><ellipse class="cls-1" cx="25.95" cy="77.67" rx="0.76" ry="1.21"/><ellipse class="cls-6" cx="63.45" cy="83.04" rx="5.8" ry="7.65" transform="translate(-40.19 96.47) rotate(-60)"/><ellipse class="cls-1" cx="67.39" cy="84.98" rx="5.86" ry="4.73" transform="translate(-33.46 45.08) rotate(-30)"/><ellipse class="cls-1" cx="63.13" cy="83.05" rx="5.96" ry="6.93" transform="translate(-40.36 96.2) rotate(-60)"/><path class="cls-2" d="M65.66,77.36c.91,4,1.62,11.93,4.51,11.93s3.9-6.75,3.9-11"/><path class="cls-1" d="M65.72,76.93c1,4.12,1.74,12.25,4.82,12.25s4.18-6.93,4.18-11.28"/><ellipse class="cls-1" cx="66.58" cy="76.44" rx="1.41" ry="1.79"/><ellipse class="cls-1" cx="69.02" cy="76.47" rx="1.14" ry="1.39"/><ellipse class="cls-1" cx="70.92" cy="76.82" rx="0.98" ry="1.19"/><ellipse class="cls-1" cx="72.66" cy="77.38" rx="0.87" ry="1.06"/><ellipse class="cls-1" cx="74.29" cy="77.89" rx="0.76" ry="1.21"/><path class="cls-8" d="M50.08,38.87c-3.88,0-10.5,4.45-7,8.17,2,2.09,2.76.91,4.88.3a.77.77,0,0,1,.27-.08.25.25,0,0,1,.13,0,3.36,3.36,0,0,1,.5-.13,4,4,0,0,1,1-.08,7,7,0,0,1,1,.06H51l.11,0,.23,0,.15,0h.11l.1,0a1.68,1.68,0,0,1,.24.06c2.52.62,3.72,2.09,5.18-.23C60.05,42.4,54,38.87,50.08,38.87Z"/><path class="cls-9" d="M51.7,39h0a2.11,2.11,0,0,1-.3-.1,3.21,3.21,0,0,0-.43-.07h-.27a.16.16,0,0,1-.1,0c-.21,0-.41,0-.62,0h-.37a.33.33,0,0,1-.14,0h-.12l-.1,0h0a.28.28,0,0,1-.13,0h-.18a.24.24,0,0,1-.12,0h-.12a.28.28,0,0,1-.16.06h0a.25.25,0,0,1-.16,0h0v2.25c0,.85,3.33.84,3.39,0C51.73,40.74,51.71,39.55,51.7,39Z"/><path class="cls-10" d="M50.19,43.93c-1.26,0-2.28,1.32-2.28,3a3.59,3.59,0,0,0,0,.47.75.75,0,0,1,.29-.09.28.28,0,0,1,.13,0,3.36,3.36,0,0,1,.5-.13,4,4,0,0,1,1-.08,7,7,0,0,1,1,.06H51l.11,0,.23,0,.15,0h.11l.17,0h0a.71.71,0,0,1,.24,0,1.73,1.73,0,0,0,.37.11,4.21,4.21,0,0,0,0-.51C52.47,45.25,51.45,43.93,50.19,43.93Z"/><path class="cls-11" d="M36.15,33.76c.38-.55,1.71-2,1.71-2s-1.77.15-2.34.28a20.22,20.22,0,0,0-2,.68A2.65,2.65,0,0,0,32,33.9a2.12,2.12,0,0,0,.34,2.94c.86.53,2.06,0,2.73-1.1a2.91,2.91,0,0,0,.18-.35C35.45,34.94,35.89,34.14,36.15,33.76Z"/><path class="cls-12" d="M34.2,33h0a.13.13,0,0,0,.19.12l1.26-.48a.24.24,0,0,0,.15-.24h0a.14.14,0,0,0-.19-.12l-1.26.48A.24.24,0,0,0,34.2,33Z"/><path class="cls-12" d="M33.53,33.28h0a.14.14,0,0,0,.21.1h0a.25.25,0,0,0,.13-.26h0a.13.13,0,0,0-.2-.09h0A.23.23,0,0,0,33.53,33.28Z"/><path class="cls-11" d="M62.77,34c-.38-.56-1.72-2-1.72-2s1.77.15,2.34.28a20.33,20.33,0,0,1,2,.68A2.58,2.58,0,0,1,67,34.11a2.13,2.13,0,0,1-.34,3c-.86.52-2,0-2.72-1.11-.07-.11-.13-.23-.19-.34C63.46,35.15,63,34.36,62.77,34Z"/><path class="cls-12" d="M64.72,33.21h0a.15.15,0,0,1-.2.12l-1.25-.48a.24.24,0,0,1-.15-.25h0a.13.13,0,0,1,.19-.11l1.26.47A.26.26,0,0,1,64.72,33.21Z"/><path class="cls-12" d="M65.38,33.5h0a.14.14,0,0,1-.2.1h0a.26.26,0,0,1-.14-.26h0a.14.14,0,0,1,.21-.1h0A.26.26,0,0,1,65.38,33.5Z"/><rect class="cls-13" width="100" height="100"/><circle class="cls-1" cx="139.89" cy="56.97" r="5.42"/><circle class="cls-1" cx="136.44" cy="56.58" r="4.01"/><circle class="cls-1" cx="132.3" cy="55.6" r="2.82"/><circle class="cls-1" cx="129.96" cy="54.11" r="2.82"/><ellipse class="cls-1" cx="130.11" cy="50.44" rx="1.08" ry="2.12" transform="translate(-4.61 14.07) rotate(-6.08)"/><ellipse class="cls-1" cx="126.54" cy="52.13" rx="0.8" ry="1.68" transform="translate(11.46 126.2) rotate(-55.16)"/><ellipse class="cls-1" cx="127.86" cy="50.67" rx="0.94" ry="2" transform="translate(-6.89 78.23) rotate(-33.18)"/><ellipse class="cls-1" cx="126.24" cy="53.65" rx="0.59" ry="1.32" transform="translate(34.44 155.58) rotate(-71.02)"/><ellipse class="cls-1" cx="126.72" cy="55.11" rx="1.16" ry="0.57" transform="translate(-7.58 22.57) rotate(-9.88)"/><path class="cls-1" d="M159.53,67.5H140.22c-.59,0-7.16,3.63-7.16,3.35L139.14,51c0-.28.49-.5,1.08-.5h19.31c.6,0,1.09.22,1.09.5l6.94,19.24C167.56,70.48,160.13,67.5,159.53,67.5Z"/><circle class="cls-1" cx="161.05" cy="55.23" r="5.42"/><circle class="cls-1" cx="164.74" cy="54.91" r="4.01"/><circle class="cls-1" cx="168.75" cy="53.5" r="2.82"/><circle class="cls-1" cx="170.92" cy="51.76" r="2.82"/><ellipse class="cls-1" cx="170.38" cy="48.13" rx="1.08" ry="2.12"/><ellipse class="cls-1" cx="174.12" cy="49.43" rx="1.68" ry="0.8" transform="translate(10.18 126.15) rotate(-40.93)"/><circle class="cls-2" cx="150.1" cy="34.4" r="20.83"/><circle class="cls-1" cx="171.14" cy="34.08" r="3.8"/><circle class="cls-1" cx="129.38" cy="34.08" r="3.8"/><circle class="cls-2" cx="171.09" cy="34.02" r="1.79"/><circle class="cls-2" cx="129.32" cy="34.13" r="1.79"/><circle class="cls-1" cx="150.1" cy="34.08" r="20.83"/><ellipse class="cls-1" cx="172.65" cy="48.12" rx="2" ry="0.94" transform="translate(51.17 179.91) rotate(-62.9)"/><ellipse class="cls-1" cx="174.57" cy="50.91" rx="1.32" ry="0.59" transform="translate(-5.13 78.75) rotate(-25.06)"/><ellipse class="cls-1" cx="174.25" cy="52.42" rx="0.57" ry="1.16" transform="translate(110.4 222.81) rotate(-86.2)"/><ellipse class="cls-1" cx="150.37" cy="71.83" rx="17.41" ry="10.52"/><path class="cls-3" d="M144.56,31.37l-.2.24a3.52,3.52,0,0,0-4.91.64l-.23-.19A3.81,3.81,0,0,1,144.56,31.37Z"/><path class="cls-3" d="M153.87,30.71l.21.25a3.51,3.51,0,0,1,4.9.64l.23-.19A3.82,3.82,0,0,0,153.87,30.71Z"/><path class="cls-3" d="M139.07,29.38l.1-.25a2.93,2.93,0,0,0,3.8-1.64l.23.1A3.19,3.19,0,0,1,139.07,29.38Z"/><path class="cls-3" d="M159.91,28.29l-.11-.24A2.92,2.92,0,0,1,156,26.41l-.24.1A3.2,3.2,0,0,0,159.91,28.29Z"/><path class="cls-4" d="M147.51,35.76l.19.27c.52-1,1.22-1.51,2-1.43a12.85,12.85,0,0,1,2.14.75l.15-.08c-.69-.16-1.52-.91-2.32-1S148.06,34.63,147.51,35.76Z"/><path class="cls-5" d="M149.77,18a.5.5,0,0,1-.26-.08.44.44,0,0,1-.09-.61,17.2,17.2,0,0,1,3.36-3.54c1.57-1.17,2.42-1,2.86-.71a.43.43,0,0,1,.09.6.44.44,0,0,1-.61.1c-.21-.16-.86,0-1.82.71a16.4,16.4,0,0,0-3.18,3.35A.44.44,0,0,1,149.77,18Z"/><path class="cls-5" d="M149.7,18a.44.44,0,0,1-.44-.42,8.13,8.13,0,0,1,1-4.37,3.6,3.6,0,0,1,2.91-2,.44.44,0,0,1,.45.42.44.44,0,0,1-.42.45,2.79,2.79,0,0,0-2.2,1.57,7.21,7.21,0,0,0-.89,3.89.44.44,0,0,1-.42.45Z"/><path class="cls-5" d="M149.35,17.72a.43.43,0,0,1-.35-.19,8.06,8.06,0,0,1-1.58-4.19,3.63,3.63,0,0,1,1.32-3.27.43.43,0,1,1,.51.7c-1.47,1-1.26,3.85.45,6.26a.43.43,0,0,1-.35.69Z"/><path class="cls-6" d="M167,78.34H133.39a1.08,1.08,0,0,1-1.08-1.09V71.5a1.08,1.08,0,0,1,1.08-1.08s11.88.54,17.06,0,16.57,0,16.57,0a1.09,1.09,0,0,1,1.08,1.08v5.75A1.09,1.09,0,0,1,167,78.34Z"/><path class="cls-7" d="M167,78.77H133.39a1.08,1.08,0,0,1-1.08-1.08V71.94a1.08,1.08,0,0,1,1.08-1.09s11.88.54,17.06,0,16.57,0,16.57,0a1.09,1.09,0,0,1,1.08,1.09v5.75A1.09,1.09,0,0,1,167,78.77Z"/><path class="cls-7" d="M167.67,78.55c-2.82,1.85-9.55,6.84-16.92,6.84-8.82,0-14.32-5.32-17.47-6.51-2.58-1,9.14-3.47,17.47-3.47S170,77.05,167.67,78.55Z"/><ellipse class="cls-6" cx="137.26" cy="82.77" rx="7.56" ry="5.79" transform="translate(-23 79.72) rotate(-30)"/><ellipse class="cls-1" cx="133.23" cy="84.76" rx="4.73" ry="5.86" transform="translate(-6.79 157.77) rotate(-60)"/><ellipse class="cls-1" cx="137.5" cy="82.84" rx="6.93" ry="5.96" transform="translate(-23 79.85) rotate(-30)"/><path class="cls-2" d="M134.8,77.47c-.88,4-1.57,11.82-4.36,11.82s-3.78-6.69-3.78-10.88"/><path class="cls-1" d="M134.91,76.71c-1,4.12-1.74,12.26-4.83,12.26s-4.17-6.94-4.17-11.28"/><ellipse class="cls-1" cx="134.04" cy="76.22" rx="1.41" ry="1.79"/><ellipse class="cls-1" cx="131.6" cy="76.26" rx="1.14" ry="1.39"/><ellipse class="cls-1" cx="129.7" cy="76.6" rx="0.98" ry="1.19"/><ellipse class="cls-1" cx="127.97" cy="77.17" rx="0.87" ry="1.06"/><ellipse class="cls-1" cx="126.34" cy="77.67" rx="0.76" ry="1.21"/><ellipse class="cls-6" cx="163.83" cy="83.04" rx="5.8" ry="7.65" transform="translate(10 183.41) rotate(-60)"/><ellipse class="cls-1" cx="167.78" cy="84.98" rx="5.86" ry="4.73" transform="translate(-20.01 95.27) rotate(-30)"/><ellipse class="cls-1" cx="163.52" cy="83.05" rx="5.96" ry="6.93" transform="translate(9.83 183.14) rotate(-60)"/><path class="cls-2" d="M166,77.36c.91,4,1.63,11.93,4.51,11.93s3.9-6.75,3.9-11"/><path class="cls-1" d="M166.1,76.93c1,4.12,1.74,12.25,4.83,12.25s4.18-6.93,4.18-11.28"/><ellipse class="cls-1" cx="166.97" cy="76.44" rx="1.41" ry="1.79"/><ellipse class="cls-1" cx="169.41" cy="76.47" rx="1.14" ry="1.39"/><ellipse class="cls-1" cx="171.31" cy="76.82" rx="0.98" ry="1.19"/><ellipse class="cls-1" cx="173.04" cy="77.38" rx="0.87" ry="1.06"/><ellipse class="cls-1" cx="174.67" cy="77.89" rx="0.76" ry="1.21"/><path class="cls-8" d="M150.46,38.87c-3.88,0-10.49,4.45-7,8.17,2,2.09,2.76.91,4.89.3a.79.79,0,0,1,.26-.08.32.32,0,0,1,.14,0,3.36,3.36,0,0,1,.5-.13,3.94,3.94,0,0,1,1-.08,7.12,7.12,0,0,1,1,.06h.15l.12,0a1.66,1.66,0,0,1,.22,0l.16,0h.1l.11,0a2.1,2.1,0,0,1,.24.06c2.52.62,3.72,2.09,5.17-.23C160.44,42.4,154.35,38.87,150.46,38.87Z"/><path class="cls-9" d="M152.08,39h0l-.3-.1a3.07,3.07,0,0,0-.42-.07h-.27a.2.2,0,0,1-.11,0c-.2,0-.41,0-.62,0H150a.29.29,0,0,1-.14,0h-.11l-.1,0h-.05a.25.25,0,0,1-.13,0h-.18a.2.2,0,0,1-.11,0H149a.32.32,0,0,1-.17.06h0a.28.28,0,0,1-.16,0h0v2.25c0,.85,3.33.84,3.39,0C152.12,40.74,152.1,39.55,152.08,39Z"/><path class="cls-10" d="M150.57,43.93c-1.25,0-2.27,1.32-2.27,3a3.59,3.59,0,0,0,0,.47.66.66,0,0,1,.28-.09.32.32,0,0,1,.14,0,3.36,3.36,0,0,1,.5-.13,3.94,3.94,0,0,1,1-.08,7.12,7.12,0,0,1,1,.06h.15l.12,0a1.66,1.66,0,0,1,.22,0l.16,0h.1l.18,0h0a.66.66,0,0,1,.23,0,1.82,1.82,0,0,0,.38.11,4.24,4.24,0,0,0,0-.51C152.85,45.25,151.83,43.93,150.57,43.93Z"/><path class="cls-11" d="M136.53,33.76c.38-.55,1.72-2,1.72-2s-1.77.15-2.34.28a20.33,20.33,0,0,0-2,.68,2.63,2.63,0,0,0-1.59,1.22,2.12,2.12,0,0,0,.34,2.94c.86.53,2.05,0,2.72-1.1l.19-.35C135.84,34.94,136.27,34.14,136.53,33.76Z"/><path class="cls-12" d="M134.59,33h0a.13.13,0,0,0,.19.12l1.25-.48a.22.22,0,0,0,.15-.24h0a.14.14,0,0,0-.19-.12l-1.25.48A.22.22,0,0,0,134.59,33Z"/><path class="cls-12" d="M133.92,33.28h0a.14.14,0,0,0,.2.1h0a.26.26,0,0,0,.14-.26h0a.14.14,0,0,0-.21-.09h0A.23.23,0,0,0,133.92,33.28Z"/><path class="cls-11" d="M163.15,34c-.38-.56-1.71-2-1.71-2s1.77.15,2.34.28a20.22,20.22,0,0,1,2,.68,2.6,2.6,0,0,1,1.6,1.21,2.13,2.13,0,0,1-.34,3c-.86.52-2.06,0-2.73-1.11a2.79,2.79,0,0,1-.18-.34A17.9,17.9,0,0,0,163.15,34Z"/><path class="cls-12" d="M165.1,33.21h0a.14.14,0,0,1-.19.12l-1.26-.48a.26.26,0,0,1-.15-.25h0a.14.14,0,0,1,.2-.11L165,33A.25.25,0,0,1,165.1,33.21Z"/><path class="cls-12" d="M165.77,33.5h0a.14.14,0,0,1-.21.1h0a.26.26,0,0,1-.13-.26h0a.14.14,0,0,1,.2-.1h0A.25.25,0,0,1,165.77,33.5Z"/><path class="cls-11" d="M175.54,41c-.45-.5-2-1.79-2-1.79s1.78-.09,2.36,0c.41,0,1.47.28,2,.41a2.61,2.61,0,0,1,1.74,1,2.13,2.13,0,0,1,.06,3c-.78.63-2,.27-2.85-.73a3.71,3.71,0,0,1-.23-.32C176.39,42.09,175.86,41.37,175.54,41Z"/><path class="cls-12" d="M177.37,40h0a.13.13,0,0,1-.17.14l-1.31-.3a.23.23,0,0,1-.18-.22h0a.14.14,0,0,1,.17-.15l1.31.31A.23.23,0,0,1,177.37,40Z"/><path class="cls-12" d="M178.07,40.2h0c0,.1-.09.15-.19.12h0a.24.24,0,0,1-.16-.23h0a.13.13,0,0,1,.18-.13h0A.25.25,0,0,1,178.07,40.2Z"/><path class="cls-11" d="M124.5,41.54c.48-.49,2-1.72,2-1.72s-1.77-.16-2.35-.13c-.42,0-1.49.22-2.06.33a2.64,2.64,0,0,0-1.78.92,2.14,2.14,0,0,0-.18,3c.76.66,2,.35,2.88-.62l.24-.3C123.62,42.57,124.18,41.87,124.5,41.54Z"/><path class="cls-12" d="M122.72,40.44h0a.14.14,0,0,0,.17.15l1.32-.25a.26.26,0,0,0,.19-.22h0a.14.14,0,0,0-.17-.15l-1.32.25A.26.26,0,0,0,122.72,40.44Z"/><path class="cls-12" d="M122,40.6h0a.15.15,0,0,0,.19.14h0a.26.26,0,0,0,.17-.23h0a.13.13,0,0,0-.18-.13h0A.24.24,0,0,0,122,40.6Z"/><rect class="cls-13" x="100" width="100" height="100"/><circle class="cls-1" cx="240.87" cy="56.97" r="5.42"/><circle class="cls-1" cx="237.42" cy="56.58" r="4.01"/><circle class="cls-1" cx="233.28" cy="55.6" r="2.82"/><circle class="cls-1" cx="230.94" cy="54.11" r="2.82"/><ellipse class="cls-1" cx="231.09" cy="50.44" rx="1.08" ry="2.12" transform="translate(-4.04 24.77) rotate(-6.08)"/><ellipse class="cls-1" cx="227.52" cy="52.13" rx="0.8" ry="1.68" transform="translate(54.74 209.07) rotate(-55.16)"/><ellipse class="cls-1" cx="228.84" cy="50.67" rx="0.94" ry="2" transform="translate(9.57 133.49) rotate(-33.18)"/><ellipse class="cls-1" cx="227.22" cy="53.65" rx="0.59" ry="1.32" transform="translate(102.58 251.07) rotate(-71.02)"/><ellipse class="cls-1" cx="227.7" cy="55.11" rx="1.16" ry="0.57" transform="translate(-6.08 39.9) rotate(-9.88)"/><path class="cls-1" d="M260.51,67.5H241.2c-.59,0-7.16,3.63-7.16,3.35L240.12,51c0-.28.49-.5,1.08-.5h19.31c.6,0,1.09.22,1.09.5l6.94,19.24C268.54,70.48,261.11,67.5,260.51,67.5Z"/><circle class="cls-1" cx="262.03" cy="55.23" r="5.42"/><circle class="cls-1" cx="265.72" cy="54.91" r="4.01"/><circle class="cls-1" cx="269.73" cy="53.5" r="2.82"/><circle class="cls-1" cx="271.9" cy="51.76" r="2.82"/><ellipse class="cls-1" cx="271.36" cy="48.13" rx="1.08" ry="2.12"/><ellipse class="cls-1" cx="275.1" cy="49.43" rx="1.68" ry="0.8" transform="translate(34.86 192.3) rotate(-40.93)"/><circle class="cls-2" cx="251.07" cy="34.4" r="20.83"/><circle class="cls-1" cx="272.12" cy="34.08" r="3.8"/><circle class="cls-1" cx="230.36" cy="34.08" r="3.8"/><circle class="cls-2" cx="272.06" cy="34.02" r="1.79"/><circle class="cls-2" cx="230.3" cy="34.13" r="1.79"/><circle class="cls-1" cx="251.07" cy="34.08" r="20.83"/><ellipse class="cls-1" cx="273.63" cy="48.12" rx="2" ry="0.94" transform="translate(106.16 269.8) rotate(-62.9)"/><ellipse class="cls-1" cx="275.55" cy="50.91" rx="1.32" ry="0.59" transform="translate(4.38 121.53) rotate(-25.06)"/><ellipse class="cls-1" cx="275.23" cy="52.42" rx="0.57" ry="1.16" transform="translate(204.69 323.57) rotate(-86.2)"/><ellipse class="cls-1" cx="251.35" cy="71.83" rx="17.41" ry="10.52"/><path class="cls-3" d="M245.54,31.37l-.21.24a3.51,3.51,0,0,0-4.9.64l-.23-.19A3.81,3.81,0,0,1,245.54,31.37Z"/><path class="cls-3" d="M254.85,30.71l.21.25a3.51,3.51,0,0,1,4.9.64l.23-.19A3.82,3.82,0,0,0,254.85,30.71Z"/><path class="cls-3" d="M240.05,29.38l.1-.25a2.91,2.91,0,0,0,3.79-1.64l.24.1A3.19,3.19,0,0,1,240.05,29.38Z"/><path class="cls-3" d="M260.88,28.29l-.1-.24A2.92,2.92,0,0,1,257,26.41l-.24.1A3.19,3.19,0,0,0,260.88,28.29Z"/><path class="cls-4" d="M248.48,35.76l.2.27c.51-1,1.21-1.51,1.95-1.43a12.43,12.43,0,0,1,2.13.75l.16-.08c-.69-.16-1.52-.91-2.32-1S249,34.63,248.48,35.76Z"/><path class="cls-5" d="M250.75,18a.5.5,0,0,1-.26-.08.44.44,0,0,1-.09-.61,16.94,16.94,0,0,1,3.36-3.54c1.57-1.17,2.42-1,2.85-.71a.42.42,0,0,1,.1.6.44.44,0,0,1-.61.1c-.22-.16-.86,0-1.82.71a15.88,15.88,0,0,0-3.18,3.35A.44.44,0,0,1,250.75,18Z"/><path class="cls-5" d="M250.67,18a.44.44,0,0,1-.43-.42,8.13,8.13,0,0,1,1-4.37,3.6,3.6,0,0,1,2.91-2,.44.44,0,0,1,.45.42.44.44,0,0,1-.42.45,2.79,2.79,0,0,0-2.2,1.57,7.21,7.21,0,0,0-.89,3.89.44.44,0,0,1-.42.45Z"/><path class="cls-5" d="M250.33,17.72a.42.42,0,0,1-.35-.19,8.06,8.06,0,0,1-1.58-4.19,3.58,3.58,0,0,1,1.32-3.27.43.43,0,1,1,.51.7c-1.47,1-1.26,3.85.45,6.26a.43.43,0,0,1-.1.61A.46.46,0,0,1,250.33,17.72Z"/><path class="cls-6" d="M268,78.34H234.37a1.09,1.09,0,0,1-1.09-1.09V71.5a1.09,1.09,0,0,1,1.09-1.08s11.88.54,17.06,0,16.57,0,16.57,0a1.09,1.09,0,0,1,1.08,1.08v5.75A1.09,1.09,0,0,1,268,78.34Z"/><path class="cls-7" d="M268,78.77H234.37a1.09,1.09,0,0,1-1.09-1.08V71.94a1.09,1.09,0,0,1,1.09-1.09s11.88.54,17.06,0,16.57,0,16.57,0a1.09,1.09,0,0,1,1.08,1.09v5.75A1.09,1.09,0,0,1,268,78.77Z"/><path class="cls-7" d="M268.65,78.55c-2.82,1.85-9.55,6.84-16.92,6.84-8.82,0-14.32-5.32-17.47-6.51-2.58-1,9.14-3.47,17.47-3.47S271,77.05,268.65,78.55Z"/><ellipse class="cls-6" cx="238.23" cy="82.77" rx="7.56" ry="5.79" transform="translate(-9.47 130.21) rotate(-30)"/><ellipse class="cls-1" cx="234.21" cy="84.76" rx="4.73" ry="5.86" transform="translate(43.7 245.22) rotate(-60)"/><ellipse class="cls-1" cx="238.47" cy="82.84" rx="6.93" ry="5.96" transform="translate(-9.47 130.34) rotate(-30)"/><path class="cls-2" d="M235.78,77.47c-.88,4-1.57,11.82-4.36,11.82s-3.78-6.69-3.78-10.88"/><path class="cls-1" d="M235.89,76.71c-1,4.12-1.74,12.26-4.83,12.26s-4.18-6.94-4.18-11.28"/><ellipse class="cls-1" cx="235.02" cy="76.22" rx="1.41" ry="1.79"/><ellipse class="cls-1" cx="232.58" cy="76.26" rx="1.14" ry="1.39"/><ellipse class="cls-1" cx="230.68" cy="76.6" rx="0.98" ry="1.19"/><ellipse class="cls-1" cx="228.95" cy="77.17" rx="0.87" ry="1.06"/><ellipse class="cls-1" cx="227.32" cy="77.67" rx="0.76" ry="1.21"/><ellipse class="cls-6" cx="264.81" cy="83.04" rx="5.8" ry="7.65" transform="translate(60.49 270.86) rotate(-60)"/><ellipse class="cls-1" cx="268.76" cy="84.98" rx="5.86" ry="4.73" transform="translate(-6.48 145.76) rotate(-30)"/><ellipse class="cls-1" cx="264.49" cy="83.05" rx="5.96" ry="6.93" transform="translate(60.32 270.59) rotate(-60)"/><path class="cls-2" d="M267,77.36c.91,4,1.63,11.93,4.51,11.93s3.9-6.75,3.9-11"/><path class="cls-1" d="M267.08,76.93c1,4.12,1.74,12.25,4.83,12.25s4.17-6.93,4.17-11.28"/><ellipse class="cls-1" cx="267.95" cy="76.44" rx="1.41" ry="1.79"/><ellipse class="cls-1" cx="270.39" cy="76.47" rx="1.14" ry="1.39"/><ellipse class="cls-1" cx="272.29" cy="76.82" rx="0.98" ry="1.19"/><ellipse class="cls-1" cx="274.02" cy="77.38" rx="0.87" ry="1.06"/><ellipse class="cls-1" cx="275.65" cy="77.89" rx="0.76" ry="1.21"/><path class="cls-8" d="M251.44,38.87c-3.88,0-10.5,4.45-7,8.17,2,2.09,2.76.91,4.88.3a.92.92,0,0,1,.27-.08.32.32,0,0,1,.14,0,3.36,3.36,0,0,1,.5-.13,3.94,3.94,0,0,1,1-.08,7.12,7.12,0,0,1,1,.06h.15l.12,0a1.66,1.66,0,0,1,.22,0l.16,0h.1l.1,0a1.83,1.83,0,0,1,.25.06c2.52.62,3.72,2.09,5.17-.23C261.41,42.4,255.33,38.87,251.44,38.87Z"/><path class="cls-9" d="M253.06,39h0l-.3-.1a3.07,3.07,0,0,0-.42-.07h-.27a.2.2,0,0,1-.11,0c-.2,0-.41,0-.62,0H251a.29.29,0,0,1-.14,0h-.12l-.1,0h0a.25.25,0,0,1-.13,0h-.18a.2.2,0,0,1-.11,0H250a.26.26,0,0,1-.16.06h0a.29.29,0,0,1-.17,0h0v2.25c0,.85,3.33.84,3.39,0C253.1,40.74,253.08,39.55,253.06,39Z"/><path class="cls-10" d="M251.55,43.93c-1.25,0-2.27,1.32-2.27,3a3.59,3.59,0,0,0,0,.47.66.66,0,0,1,.28-.09.32.32,0,0,1,.14,0,3.36,3.36,0,0,1,.5-.13,3.94,3.94,0,0,1,1-.08,7.12,7.12,0,0,1,1,.06h.15l.12,0a1.66,1.66,0,0,1,.22,0l.16,0h.1l.18,0h0a.67.67,0,0,1,.24,0,1.82,1.82,0,0,0,.38.11,4.24,4.24,0,0,0,0-.51C253.83,45.25,252.81,43.93,251.55,43.93Z"/><path class="cls-11" d="M237.51,33.76c.38-.55,1.72-2,1.72-2s-1.77.15-2.34.28a20.33,20.33,0,0,0-2,.68,2.63,2.63,0,0,0-1.59,1.22,2.12,2.12,0,0,0,.34,2.94c.86.53,2.05,0,2.72-1.1l.19-.35C236.82,34.94,237.25,34.14,237.51,33.76Z"/><path class="cls-12" d="M235.56,33h0a.14.14,0,0,0,.2.12l1.25-.48a.23.23,0,0,0,.15-.24h0a.14.14,0,0,0-.19-.12l-1.26.48A.24.24,0,0,0,235.56,33Z"/><path class="cls-12" d="M234.9,33.28h0a.14.14,0,0,0,.2.1h0a.27.27,0,0,0,.14-.26h0A.14.14,0,0,0,235,33h0A.23.23,0,0,0,234.9,33.28Z"/><path class="cls-11" d="M264.13,34c-.38-.56-1.71-2-1.71-2s1.77.15,2.34.28a20.22,20.22,0,0,1,2,.68,2.6,2.6,0,0,1,1.6,1.21,2.14,2.14,0,0,1-.34,3c-.86.52-2.06,0-2.73-1.11a2.79,2.79,0,0,1-.18-.34C264.83,35.15,264.39,34.36,264.13,34Z"/><path class="cls-12" d="M266.08,33.21h0a.14.14,0,0,1-.19.12l-1.26-.48a.26.26,0,0,1-.15-.25h0a.13.13,0,0,1,.19-.11l1.26.47A.26.26,0,0,1,266.08,33.21Z"/><path class="cls-12" d="M266.75,33.5h0a.14.14,0,0,1-.21.1h0a.26.26,0,0,1-.13-.26h0a.14.14,0,0,1,.2-.1h0A.26.26,0,0,1,266.75,33.5Z"/><path class="cls-11" d="M278.54,35.48c-.59-.31-2.47-1-2.47-1s1.64-.69,2.21-.85c.4-.11,1.48-.24,2.05-.31a2.62,2.62,0,0,1,2,.33,2.12,2.12,0,0,1,1.07,2.76c-.51.87-1.81,1-2.92.3a3.78,3.78,0,0,1-.33-.22C279.71,36.2,279,35.7,278.54,35.48Z"/><path class="cls-12" d="M279.91,33.89h0a.14.14,0,0,1-.12.2l-1.33.16a.24.24,0,0,1-.25-.15h0a.14.14,0,0,1,.12-.19l1.33-.16A.24.24,0,0,1,279.91,33.89Z"/><path class="cls-12" d="M280.63,33.84h0a.14.14,0,0,1-.13.18h0a.25.25,0,0,1-.24-.16h0a.13.13,0,0,1,.13-.18h0A.23.23,0,0,1,280.63,33.84Z"/><path class="cls-11" d="M221.46,34.94c.59-.31,2.47-1,2.47-1s-1.64-.69-2.21-.84a19.09,19.09,0,0,0-2.05-.31,2.62,2.62,0,0,0-2,.33,2.12,2.12,0,0,0-1.07,2.76c.51.87,1.81,1,2.92.3l.33-.22C220.29,35.66,221,35.16,221.46,34.94Z"/><path class="cls-12" d="M220.09,33.35h0a.13.13,0,0,0,.12.19l1.33.17a.25.25,0,0,0,.25-.15h0a.14.14,0,0,0-.12-.19l-1.33-.17A.26.26,0,0,0,220.09,33.35Z"/><path class="cls-12" d="M219.37,33.3h0a.14.14,0,0,0,.13.18h0a.27.27,0,0,0,.24-.16h0a.14.14,0,0,0-.13-.19h0A.25.25,0,0,0,219.37,33.3Z"/><path class="cls-11" d="M277.28,40.61c0-.68-.12-2.67-.12-2.67s1.31,1.2,1.69,1.65.84,1.24,1.15,1.73a2.63,2.63,0,0,1,.52,1.94c-.14,1.28-1.06,2.24-2.06,2.13s-1.63-1.25-1.49-2.54c0-.13,0-.26.06-.38A18.72,18.72,0,0,0,277.28,40.61Z"/><path class="cls-12" d="M279.3,41.18h0a.15.15,0,0,1-.23,0L278.36,40a.24.24,0,0,1,0-.28h0a.15.15,0,0,1,.23,0l.71,1.14A.26.26,0,0,1,279.3,41.18Z"/><path class="cls-12" d="M279.65,41.81h0a.13.13,0,0,1-.22,0h0a.24.24,0,0,1,.05-.29h0a.14.14,0,0,1,.22.05h0A.26.26,0,0,1,279.65,41.81Z"/><path class="cls-11" d="M226.73,40.39c0-.67.12-2.67.12-2.67s-1.32,1.2-1.69,1.65-.84,1.24-1.15,1.74a2.61,2.61,0,0,0-.52,1.93c.14,1.28,1.06,2.24,2.06,2.13s1.63-1.25,1.49-2.53c0-.13,0-.26-.07-.39C226.89,41.74,226.75,40.85,226.73,40.39Z"/><path class="cls-12" d="M224.71,41h0a.14.14,0,0,0,.23,0l.7-1.14a.24.24,0,0,0,0-.29h0a.14.14,0,0,0-.22,0l-.71,1.15A.24.24,0,0,0,224.71,41Z"/><path class="cls-12" d="M224.36,41.6h0a.14.14,0,0,0,.22-.05h0a.23.23,0,0,0-.05-.28h0a.13.13,0,0,0-.22,0h0A.24.24,0,0,0,224.36,41.6Z"/><rect class="cls-13" x="200" width="100" height="100"/></svg>
