<svg id="Baggrund" xmlns="http://www.w3.org/2000/svg" width="1920" height="1080" viewBox="0 0 1920 1080"><defs><style>.cls-1{fill:#d4e6f1;}.cls-13,.cls-2,.cls-8{opacity:0.5;}.cls-3{fill:#825d50;}.cls-4{fill:#fdf8e2;}.cls-5{fill:#e7f699;}.cls-6{fill:#f7dc6f;}.cls-7{fill:#adb973;}.cls-8{fill:#7d825d;}.cls-9{fill:#6e5038;}.cls-10,.cls-13{fill:#ff9c00;}.cls-11{fill:#ffb83c;}.cls-12{fill:#2c3c48;}</style></defs><title>Baggrund</title><rect class="cls-1" x="39" y="107.84" width="1841" height="433"/><g class="cls-2"><path class="cls-3" d="M1070,486.54a252.35,252.35,0,0,1-19.78,43.79,206.78,206.78,0,0,1-35.54,46.28c-13.77,13.25-28.37,22.91-43.4,28.71l.14-32.39c23.42-9,45.49-30,62.15-59s26.27-64,26.41-96.05h23c-.09,20.55-2.8,33.85-8.69,54.88Q1072.35,479.7,1070,486.54Z"/></g><path class="cls-4" d="M1878.54,491l.46,0c-114.61-70.41-211.41-94-281.32-101.69-133.37-14.59-252.42,19.84-318.49,44.6-7.54,2.82-50.88,22.91-111.55,46.34-12.48,4.82-22.57,8.59-28.43,10.77H40V947.84H1882V491Z"/><path class="cls-5" d="M0,1079.84c640-33,1277,7,1920,0V942.39L0,843.28Z"/><circle class="cls-6" cx="1751.5" cy="236.34" r="89.5"/><path class="cls-7" d="M86.55,781s8.1,16.63,12.45,24.83,7,40,7,40l-21.77-.59L68,844.84s-3.1-24.18-1-32C69.4,803.88,86.55,781,86.55,781Z"/><path class="cls-7" d="M119.06,805.39s6,12.41,9.3,18.53,5.22,29.85,5.22,29.85l-16.25-.44L105.22,853s-2.31-18-.75-23.88C106.27,822.45,119.06,805.39,119.06,805.39Z"/><path class="cls-7" d="M146.06,805.39s6.05,12.41,9.3,18.53,5.22,29.85,5.22,29.85l-16.25-.44L132.22,853s-2.31-18-.75-23.88C133.27,822.45,146.06,805.39,146.06,805.39Z"/><path class="cls-7" d="M172.06,813.39s6.05,12.41,9.3,18.53,5.22,29.85,5.22,29.85l-16.25-.44L158.22,861s-2.31-18-.75-23.88C159.27,830.45,172.06,813.39,172.06,813.39Z"/><path class="cls-7" d="M202.06,805.39s6.05,12.41,9.3,18.53,5.22,29.85,5.22,29.85l-16.25-.44L188.22,853s-2.31-18-.75-23.88C189.27,822.45,202.06,805.39,202.06,805.39Z"/><path class="cls-7" d="M236.55,789s8.1,16.63,12.45,24.83,7,40,7,40l-21.77-.59L218,852.84s-3.1-24.18-1-32C219.4,811.88,236.55,789,236.55,789Z"/><path class="cls-7" d="M269.06,813.39s6.05,12.41,9.3,18.53,5.22,29.85,5.22,29.85l-16.25-.44L255.22,861s-2.31-18-.75-23.88C256.27,830.45,269.06,813.39,269.06,813.39Z"/><path class="cls-7" d="M296.06,813.39s6.05,12.41,9.3,18.53,5.22,29.85,5.22,29.85l-16.25-.44L282.22,861s-2.31-18-.75-23.88C283.27,830.45,296.06,813.39,296.06,813.39Z"/><path class="cls-7" d="M322.06,821.39s6.05,12.41,9.3,18.53,5.22,29.85,5.22,29.85l-16.25-.44L308.22,869s-2.31-18-.75-23.88C309.27,838.45,322.06,821.39,322.06,821.39Z"/><path class="cls-7" d="M352.06,813.39s6.05,12.41,9.3,18.53,5.22,29.85,5.22,29.85l-16.25-.44L338.22,861s-2.31-18-.75-23.88C339.27,830.45,352.06,813.39,352.06,813.39Z"/><path class="cls-7" d="M386.55,797s8.1,16.63,12.45,24.83,7,40,7,40l-21.77-.59L368,860.84s-3.1-24.18-1-32C369.4,819.88,386.55,797,386.55,797Z"/><path class="cls-7" d="M419.06,821.39s6.05,12.41,9.3,18.53,5.22,29.85,5.22,29.85l-16.25-.44L405.22,869s-2.31-18-.75-23.88C406.27,838.45,419.06,821.39,419.06,821.39Z"/><path class="cls-7" d="M446.06,821.39s6.05,12.41,9.3,18.53,5.22,29.85,5.22,29.85l-16.25-.44L432.22,869s-2.31-18-.75-23.88C433.27,838.45,446.06,821.39,446.06,821.39Z"/><path class="cls-7" d="M472.06,829.39s6.05,12.41,9.3,18.53,5.22,29.85,5.22,29.85l-16.25-.44L458.22,877s-2.31-18-.75-23.88C459.27,846.45,472.06,829.39,472.06,829.39Z"/><path class="cls-7" d="M502.06,821.39s6.05,12.41,9.3,18.53,5.22,29.85,5.22,29.85l-16.25-.44L488.22,869s-2.31-18-.75-23.88C489.27,838.45,502.06,821.39,502.06,821.39Z"/><path class="cls-5" d="M86.55,784s8.1,16.63,12.45,24.83,7,40,7,40l-21.77-.59L68,847.84s-3.1-24.18-1-32C69.4,806.88,86.55,784,86.55,784Z"/><path class="cls-5" d="M119.06,808.39s6,12.41,9.3,18.53,5.22,29.85,5.22,29.85l-16.25-.44L105.22,856s-2.31-18-.75-23.88C106.27,825.45,119.06,808.39,119.06,808.39Z"/><path class="cls-5" d="M146.06,808.39s6.05,12.41,9.3,18.53,5.22,29.85,5.22,29.85l-16.25-.44L132.22,856s-2.31-18-.75-23.88C133.27,825.45,146.06,808.39,146.06,808.39Z"/><path class="cls-5" d="M172.06,816.39s6.05,12.41,9.3,18.53,5.22,29.85,5.22,29.85l-16.25-.44L158.22,864s-2.31-18-.75-23.88C159.27,833.45,172.06,816.39,172.06,816.39Z"/><path class="cls-5" d="M202.06,808.39s6.05,12.41,9.3,18.53,5.22,29.85,5.22,29.85l-16.25-.44L188.22,856s-2.31-18-.75-23.88C189.27,825.45,202.06,808.39,202.06,808.39Z"/><path class="cls-5" d="M236.55,792s8.1,16.63,12.45,24.83,7,40,7,40l-21.77-.59L218,855.84s-3.1-24.18-1-32C219.4,814.88,236.55,792,236.55,792Z"/><path class="cls-5" d="M269.06,816.39s6.05,12.41,9.3,18.53,5.22,29.85,5.22,29.85l-16.25-.44L255.22,864s-2.31-18-.75-23.88C256.27,833.45,269.06,816.39,269.06,816.39Z"/><path class="cls-5" d="M296.06,816.39s6.05,12.41,9.3,18.53,5.22,29.85,5.22,29.85l-16.25-.44L282.22,864s-2.31-18-.75-23.88C283.27,833.45,296.06,816.39,296.06,816.39Z"/><path class="cls-5" d="M322.06,824.39s6.05,12.41,9.3,18.53,5.22,29.85,5.22,29.85l-16.25-.44L308.22,872s-2.31-18-.75-23.88C309.27,841.45,322.06,824.39,322.06,824.39Z"/><path class="cls-5" d="M352.06,816.39s6.05,12.41,9.3,18.53,5.22,29.85,5.22,29.85l-16.25-.44L338.22,864s-2.31-18-.75-23.88C339.27,833.45,352.06,816.39,352.06,816.39Z"/><path class="cls-5" d="M386.55,800s8.1,16.63,12.45,24.83,7,40,7,40l-21.77-.59L368,863.84s-3.1-24.18-1-32C369.4,822.88,386.55,800,386.55,800Z"/><path class="cls-5" d="M419.06,824.39s6.05,12.41,9.3,18.53,5.22,29.85,5.22,29.85l-16.25-.44L405.22,872s-2.31-18-.75-23.88C406.27,841.45,419.06,824.39,419.06,824.39Z"/><path class="cls-5" d="M446.06,824.39s6.05,12.41,9.3,18.53,5.22,29.85,5.22,29.85l-16.25-.44L432.22,872s-2.31-18-.75-23.88C433.27,841.45,446.06,824.39,446.06,824.39Z"/><path class="cls-5" d="M472.06,832.39s6.05,12.41,9.3,18.53,5.22,29.85,5.22,29.85l-16.25-.44L458.22,880s-2.31-18-.75-23.88C459.27,849.45,472.06,832.39,472.06,832.39Z"/><path class="cls-5" d="M502.06,824.39s6.05,12.41,9.3,18.53,5.22,29.85,5.22,29.85l-16.25-.44L488.22,872s-2.31-18-.75-23.88C489.27,841.45,502.06,824.39,502.06,824.39Z"/><path class="cls-7" d="M540.55,808s8.1,16.63,12.45,24.83,7,40,7,40l-21.77-.59L522,871.84s-3.1-24.18-1-32C523.4,830.88,540.55,808,540.55,808Z"/><path class="cls-7" d="M573.06,832.39s6.05,12.41,9.3,18.53,5.22,29.85,5.22,29.85l-16.25-.44L559.22,880s-2.31-18-.75-23.88C560.27,849.45,573.06,832.39,573.06,832.39Z"/><path class="cls-7" d="M600.06,832.39s6.05,12.41,9.3,18.53,5.22,29.85,5.22,29.85l-16.25-.44L586.22,880s-2.31-18-.75-23.88C587.27,849.45,600.06,832.39,600.06,832.39Z"/><path class="cls-7" d="M626.06,840.39s6.05,12.41,9.3,18.53,5.22,29.85,5.22,29.85l-16.25-.44L612.22,888s-2.31-18-.75-23.88C613.27,857.45,626.06,840.39,626.06,840.39Z"/><path class="cls-7" d="M656.06,832.39s6.05,12.41,9.3,18.53,5.22,29.85,5.22,29.85l-16.25-.44L642.22,880s-2.31-18-.75-23.88C643.27,849.45,656.06,832.39,656.06,832.39Z"/><path class="cls-7" d="M690.55,816s8.1,16.63,12.45,24.83,7,40,7,40l-21.77-.59L672,879.84s-3.1-24.18-1-32C673.4,838.88,690.55,816,690.55,816Z"/><path class="cls-7" d="M723.06,840.39s6.05,12.41,9.3,18.53,5.22,29.85,5.22,29.85l-16.25-.44L709.22,888s-2.31-18-.75-23.88C710.27,857.45,723.06,840.39,723.06,840.39Z"/><path class="cls-7" d="M750.06,840.39s6.05,12.41,9.3,18.53,5.22,29.85,5.22,29.85l-16.25-.44L736.22,888s-2.31-18-.75-23.88C737.27,857.45,750.06,840.39,750.06,840.39Z"/><path class="cls-7" d="M776.06,848.39s6.05,12.41,9.3,18.53,5.22,29.85,5.22,29.85l-16.25-.44L762.22,896s-2.31-18-.75-23.88C763.27,865.45,776.06,848.39,776.06,848.39Z"/><path class="cls-7" d="M806.06,840.39s6.05,12.41,9.3,18.53,5.22,29.85,5.22,29.85l-16.25-.44L792.22,888s-2.31-18-.75-23.88C793.27,857.45,806.06,840.39,806.06,840.39Z"/><path class="cls-7" d="M840.55,824s8.1,16.63,12.45,24.83,7,40,7,40l-21.77-.59L822,887.84s-3.1-24.18-1-32C823.4,846.88,840.55,824,840.55,824Z"/><path class="cls-7" d="M873.06,848.39s6.05,12.41,9.3,18.53,5.22,29.85,5.22,29.85l-16.25-.44L859.22,896s-2.31-18-.75-23.88C860.27,865.45,873.06,848.39,873.06,848.39Z"/><path class="cls-7" d="M900.06,848.39s6.05,12.41,9.3,18.53,5.22,29.85,5.22,29.85l-16.25-.44L886.22,896s-2.31-18-.75-23.88C887.27,865.45,900.06,848.39,900.06,848.39Z"/><path class="cls-7" d="M926.06,856.39s6.05,12.41,9.3,18.53,5.22,29.85,5.22,29.85l-16.25-.44L912.22,904s-2.31-18-.75-23.88C913.27,873.45,926.06,856.39,926.06,856.39Z"/><path class="cls-7" d="M956.06,848.39s6.05,12.41,9.3,18.53,5.22,29.85,5.22,29.85l-16.25-.44L942.22,896s-2.31-18-.75-23.88C943.27,865.45,956.06,848.39,956.06,848.39Z"/><path class="cls-5" d="M538.55,809s8.1,16.63,12.45,24.83,7,40,7,40l-21.77-.59L520,872.84s-3.1-24.18-1-32C521.4,831.88,538.55,809,538.55,809Z"/><path class="cls-5" d="M571.06,833.39s6.05,12.41,9.3,18.53,5.22,29.85,5.22,29.85l-16.25-.44L557.22,881s-2.31-18-.75-23.88C558.27,850.45,571.06,833.39,571.06,833.39Z"/><path class="cls-5" d="M598.06,833.39s6.05,12.41,9.3,18.53,5.22,29.85,5.22,29.85l-16.25-.44L584.22,881s-2.31-18-.75-23.88C585.27,850.45,598.06,833.39,598.06,833.39Z"/><path class="cls-5" d="M624.06,841.39s6.05,12.41,9.3,18.53,5.22,29.85,5.22,29.85l-16.25-.44L610.22,889s-2.31-18-.75-23.88C611.27,858.45,624.06,841.39,624.06,841.39Z"/><path class="cls-5" d="M654.06,833.39s6.05,12.41,9.3,18.53,5.22,29.85,5.22,29.85l-16.25-.44L640.22,881s-2.31-18-.75-23.88C641.27,850.45,654.06,833.39,654.06,833.39Z"/><path class="cls-5" d="M688.55,817s8.1,16.63,12.45,24.83,7,40,7,40l-21.77-.59L670,880.84s-3.1-24.18-1-32C671.4,839.88,688.55,817,688.55,817Z"/><path class="cls-5" d="M721.06,841.39s6.05,12.41,9.3,18.53,5.22,29.85,5.22,29.85l-16.25-.44L707.22,889s-2.31-18-.75-23.88C708.27,858.45,721.06,841.39,721.06,841.39Z"/><path class="cls-5" d="M748.06,841.39s6.05,12.41,9.3,18.53,5.22,29.85,5.22,29.85l-16.25-.44L734.22,889s-2.31-18-.75-23.88C735.27,858.45,748.06,841.39,748.06,841.39Z"/><path class="cls-5" d="M774.06,849.39s6.05,12.41,9.3,18.53,5.22,29.85,5.22,29.85l-16.25-.44L760.22,897s-2.31-18-.75-23.88C761.27,866.45,774.06,849.39,774.06,849.39Z"/><path class="cls-5" d="M804.06,841.39s6.05,12.41,9.3,18.53,5.22,29.85,5.22,29.85l-16.25-.44L790.22,889s-2.31-18-.75-23.88C791.27,858.45,804.06,841.39,804.06,841.39Z"/><path class="cls-5" d="M838.55,825s8.1,16.63,12.45,24.83,7,40,7,40l-21.77-.59L820,888.84s-3.1-24.18-1-32C821.4,847.88,838.55,825,838.55,825Z"/><path class="cls-5" d="M871.06,849.39s6.05,12.41,9.3,18.53,5.22,29.85,5.22,29.85l-16.25-.44L857.22,897s-2.31-18-.75-23.88C858.27,866.45,871.06,849.39,871.06,849.39Z"/><path class="cls-5" d="M898.06,849.39s6.05,12.41,9.3,18.53,5.22,29.85,5.22,29.85l-16.25-.44L884.22,897s-2.31-18-.75-23.88C885.27,866.45,898.06,849.39,898.06,849.39Z"/><path class="cls-5" d="M924.06,857.39s6.05,12.41,9.3,18.53,5.22,29.85,5.22,29.85l-16.25-.44L910.22,905s-2.31-18-.75-23.88C911.27,874.45,924.06,857.39,924.06,857.39Z"/><path class="cls-5" d="M954.06,849.39s6.05,12.41,9.3,18.53,5.22,29.85,5.22,29.85l-16.25-.44L940.22,897s-2.31-18-.75-23.88C941.27,866.45,954.06,849.39,954.06,849.39Z"/><path class="cls-7" d="M995.55,832s8.1,16.63,12.45,24.83,7,40,7,40l-21.77-.59L977,895.84s-3.1-24.18-1-32C978.4,854.88,995.55,832,995.55,832Z"/><path class="cls-7" d="M1028.06,856.39s6,12.41,9.3,18.53,5.22,29.85,5.22,29.85l-16.25-.44-12.11-.31s-2.31-18-.75-23.88C1015.27,873.45,1028.06,856.39,1028.06,856.39Z"/><path class="cls-7" d="M1055.06,856.39s6,12.41,9.3,18.53,5.22,29.85,5.22,29.85l-16.25-.44-12.11-.31s-2.31-18-.75-23.88C1042.27,873.45,1055.06,856.39,1055.06,856.39Z"/><path class="cls-7" d="M1081.06,864.39s6,12.41,9.3,18.53,5.22,29.85,5.22,29.85l-16.25-.44-12.11-.31s-2.31-18-.75-23.88C1068.27,881.45,1081.06,864.39,1081.06,864.39Z"/><path class="cls-7" d="M1111.06,856.39s6,12.41,9.3,18.53,5.22,29.85,5.22,29.85l-16.25-.44-12.11-.31s-2.31-18-.75-23.88C1098.27,873.45,1111.06,856.39,1111.06,856.39Z"/><path class="cls-7" d="M1145.55,840s8.1,16.63,12.45,24.83,7,40,7,40l-21.77-.59-16.23-.41s-3.1-24.18-1-32C1128.4,862.88,1145.55,840,1145.55,840Z"/><path class="cls-7" d="M1178.06,864.39s6,12.41,9.3,18.53,5.22,29.85,5.22,29.85l-16.25-.44-12.11-.31s-2.31-18-.75-23.88C1165.27,881.45,1178.06,864.39,1178.06,864.39Z"/><path class="cls-7" d="M1205.06,864.39s6,12.41,9.3,18.53,5.22,29.85,5.22,29.85l-16.25-.44-12.11-.31s-2.31-18-.75-23.88C1192.27,881.45,1205.06,864.39,1205.06,864.39Z"/><path class="cls-7" d="M1231.06,872.39s6,12.41,9.3,18.53,5.22,29.85,5.22,29.85l-16.25-.44-12.11-.31s-2.31-18-.75-23.88C1218.27,889.45,1231.06,872.39,1231.06,872.39Z"/><path class="cls-7" d="M1261.06,864.39s6,12.41,9.3,18.53,5.22,29.85,5.22,29.85l-16.25-.44-12.11-.31s-2.31-18-.75-23.88C1248.27,881.45,1261.06,864.39,1261.06,864.39Z"/><path class="cls-7" d="M1295.55,848s8.1,16.63,12.45,24.83,7,40,7,40l-21.77-.59-16.23-.41s-3.1-24.18-1-32C1278.4,870.88,1295.55,848,1295.55,848Z"/><path class="cls-7" d="M1328.06,872.39s6,12.41,9.3,18.53,5.22,29.85,5.22,29.85l-16.25-.44-12.11-.31s-2.31-18-.75-23.88C1315.27,889.45,1328.06,872.39,1328.06,872.39Z"/><path class="cls-7" d="M1355.06,872.39s6,12.41,9.3,18.53,5.22,29.85,5.22,29.85l-16.25-.44-12.11-.31s-2.31-18-.75-23.88C1342.27,889.45,1355.06,872.39,1355.06,872.39Z"/><path class="cls-7" d="M1381.06,880.39s6,12.41,9.3,18.53,5.22,29.85,5.22,29.85l-16.25-.44-12.11-.31s-2.31-18-.75-23.88C1368.27,897.45,1381.06,880.39,1381.06,880.39Z"/><path class="cls-7" d="M1411.06,872.39s6,12.41,9.3,18.53,5.22,29.85,5.22,29.85l-16.25-.44-12.11-.31s-2.31-18-.75-23.88C1398.27,889.45,1411.06,872.39,1411.06,872.39Z"/><path class="cls-5" d="M993.55,833s8.1,16.63,12.45,24.83,7,40,7,40l-21.77-.59L975,896.84s-3.1-24.18-1-32C976.4,855.88,993.55,833,993.55,833Z"/><path class="cls-5" d="M1026.06,857.39s6,12.41,9.3,18.53,5.22,29.85,5.22,29.85l-16.25-.44-12.11-.31s-2.31-18-.75-23.88C1013.27,874.45,1026.06,857.39,1026.06,857.39Z"/><path class="cls-5" d="M1053.06,857.39s6,12.41,9.3,18.53,5.22,29.85,5.22,29.85l-16.25-.44-12.11-.31s-2.31-18-.75-23.88C1040.27,874.45,1053.06,857.39,1053.06,857.39Z"/><path class="cls-5" d="M1079.06,865.39s6,12.41,9.3,18.53,5.22,29.85,5.22,29.85l-16.25-.44-12.11-.31s-2.31-18-.75-23.88C1066.27,882.45,1079.06,865.39,1079.06,865.39Z"/><path class="cls-5" d="M1109.06,857.39s6,12.41,9.3,18.53,5.22,29.85,5.22,29.85l-16.25-.44-12.11-.31s-2.31-18-.75-23.88C1096.27,874.45,1109.06,857.39,1109.06,857.39Z"/><path class="cls-5" d="M1143.55,841s8.1,16.63,12.45,24.83,7,40,7,40l-21.77-.59-16.23-.41s-3.1-24.18-1-32C1126.4,863.88,1143.55,841,1143.55,841Z"/><path class="cls-5" d="M1176.06,865.39s6,12.41,9.3,18.53,5.22,29.85,5.22,29.85l-16.25-.44-12.11-.31s-2.31-18-.75-23.88C1163.27,882.45,1176.06,865.39,1176.06,865.39Z"/><path class="cls-5" d="M1203.06,865.39s6,12.41,9.3,18.53,5.22,29.85,5.22,29.85l-16.25-.44-12.11-.31s-2.31-18-.75-23.88C1190.27,882.45,1203.06,865.39,1203.06,865.39Z"/><path class="cls-5" d="M1229.06,873.39s6,12.41,9.3,18.53,5.22,29.85,5.22,29.85l-16.25-.44-12.11-.31s-2.31-18-.75-23.88C1216.27,890.45,1229.06,873.39,1229.06,873.39Z"/><path class="cls-5" d="M1259.06,865.39s6,12.41,9.3,18.53,5.22,29.85,5.22,29.85l-16.25-.44-12.11-.31s-2.31-18-.75-23.88C1246.27,882.45,1259.06,865.39,1259.06,865.39Z"/><path class="cls-5" d="M1293.55,849s8.1,16.63,12.45,24.83,7,40,7,40l-21.77-.59-16.23-.41s-3.1-24.18-1-32C1276.4,871.88,1293.55,849,1293.55,849Z"/><path class="cls-5" d="M1326.06,873.39s6,12.41,9.3,18.53,5.22,29.85,5.22,29.85l-16.25-.44-12.11-.31s-2.31-18-.75-23.88C1313.27,890.45,1326.06,873.39,1326.06,873.39Z"/><path class="cls-5" d="M1353.06,873.39s6,12.41,9.3,18.53,5.22,29.85,5.22,29.85l-16.25-.44-12.11-.31s-2.31-18-.75-23.88C1340.27,890.45,1353.06,873.39,1353.06,873.39Z"/><path class="cls-5" d="M1379.06,881.39s6,12.41,9.3,18.53,5.22,29.85,5.22,29.85l-16.25-.44-12.11-.31s-2.31-18-.75-23.88C1366.27,898.45,1379.06,881.39,1379.06,881.39Z"/><path class="cls-5" d="M1409.06,873.39s6,12.41,9.3,18.53,5.22,29.85,5.22,29.85l-16.25-.44-12.11-.31s-2.31-18-.75-23.88C1396.27,890.45,1409.06,873.39,1409.06,873.39Z"/><path class="cls-7" d="M1453.55,864s8.1,16.63,12.45,24.83,7,40,7,40l-21.77-.59-16.23-.41s-3.1-24.18-1-32C1436.4,886.88,1453.55,864,1453.55,864Z"/><path class="cls-7" d="M1486.06,888.39s6,12.41,9.3,18.53,5.22,29.85,5.22,29.85l-16.25-.44-12.11-.31s-2.31-18-.75-23.88C1473.27,905.45,1486.06,888.39,1486.06,888.39Z"/><path class="cls-7" d="M1513.06,888.39s6,12.41,9.3,18.53,5.22,29.85,5.22,29.85l-16.25-.44-12.11-.31s-2.31-18-.75-23.88C1500.27,905.45,1513.06,888.39,1513.06,888.39Z"/><path class="cls-7" d="M1539.06,896.39s6,12.41,9.3,18.53,5.22,29.85,5.22,29.85l-16.25-.44-12.11-.31s-2.31-18-.75-23.88C1526.27,913.45,1539.06,896.39,1539.06,896.39Z"/><path class="cls-7" d="M1569.06,888.39s6,12.41,9.3,18.53,5.22,29.85,5.22,29.85l-16.25-.44-12.11-.31s-2.31-18-.75-23.88C1556.27,905.45,1569.06,888.39,1569.06,888.39Z"/><path class="cls-7" d="M1603.55,872s8.1,16.63,12.45,24.83,7,40,7,40l-21.77-.59-16.23-.41s-3.1-24.18-1-32C1586.4,894.88,1603.55,872,1603.55,872Z"/><path class="cls-7" d="M1636.06,896.39s6,12.41,9.3,18.53,5.22,29.85,5.22,29.85l-16.25-.44-12.11-.31s-2.31-18-.75-23.88C1623.27,913.45,1636.06,896.39,1636.06,896.39Z"/><path class="cls-7" d="M1663.06,896.39s6,12.41,9.3,18.53,5.22,29.85,5.22,29.85l-16.25-.44-12.11-.31s-2.31-18-.75-23.88C1650.27,913.45,1663.06,896.39,1663.06,896.39Z"/><path class="cls-7" d="M1689.06,904.39s6,12.41,9.3,18.53,5.22,29.85,5.22,29.85l-16.25-.44-12.11-.31s-2.31-18-.75-23.88C1676.27,921.45,1689.06,904.39,1689.06,904.39Z"/><path class="cls-7" d="M1719.06,896.39s6,12.41,9.3,18.53,5.22,29.85,5.22,29.85l-16.25-.44-12.11-.31s-2.31-18-.75-23.88C1706.27,913.45,1719.06,896.39,1719.06,896.39Z"/><path class="cls-7" d="M1753.55,880s8.1,16.63,12.45,24.83,7,40,7,40l-21.77-.59-16.23-.41s-3.1-24.18-1-32C1736.4,902.88,1753.55,880,1753.55,880Z"/><path class="cls-7" d="M1786.06,904.39s6,12.41,9.3,18.53,5.22,29.85,5.22,29.85l-16.25-.44-12.11-.31s-2.31-18-.75-23.88C1773.27,921.45,1786.06,904.39,1786.06,904.39Z"/><path class="cls-7" d="M1813.06,904.39s6,12.41,9.3,18.53,5.22,29.85,5.22,29.85l-16.25-.44-12.11-.31s-2.31-18-.75-23.88C1800.27,921.45,1813.06,904.39,1813.06,904.39Z"/><path class="cls-7" d="M1839.06,912.39s6,12.41,9.3,18.53,5.22,29.85,5.22,29.85l-16.25-.44-12.11-.31s-2.31-18-.75-23.88C1826.27,929.45,1839.06,912.39,1839.06,912.39Z"/><path class="cls-7" d="M1869.06,904.39s6,12.41,9.3,18.53,5.22,29.85,5.22,29.85l-16.25-.44-12.11-.31s-2.31-18-.75-23.88C1856.27,921.45,1869.06,904.39,1869.06,904.39Z"/><path class="cls-5" d="M1451.55,866s8.1,16.63,12.45,24.83,7,40,7,40l-21.77-.59-16.23-.41s-3.1-24.18-1-32C1434.4,888.88,1451.55,866,1451.55,866Z"/><path class="cls-5" d="M1484.06,890.39s6,12.41,9.3,18.53,5.22,29.85,5.22,29.85l-16.25-.44-12.11-.31s-2.31-18-.75-23.88C1471.27,907.45,1484.06,890.39,1484.06,890.39Z"/><path class="cls-5" d="M1511.06,890.39s6,12.41,9.3,18.53,5.22,29.85,5.22,29.85l-16.25-.44-12.11-.31s-2.31-18-.75-23.88C1498.27,907.45,1511.06,890.39,1511.06,890.39Z"/><path class="cls-5" d="M1537.06,898.39s6,12.41,9.3,18.53,5.22,29.85,5.22,29.85l-16.25-.44-12.11-.31s-2.31-18-.75-23.88C1524.27,915.45,1537.06,898.39,1537.06,898.39Z"/><path class="cls-5" d="M1567.06,890.39s6,12.41,9.3,18.53,5.22,29.85,5.22,29.85l-16.25-.44-12.11-.31s-2.31-18-.75-23.88C1554.27,907.45,1567.06,890.39,1567.06,890.39Z"/><path class="cls-5" d="M1601.55,874s8.1,16.63,12.45,24.83,7,40,7,40l-21.77-.59-16.23-.41s-3.1-24.18-1-32C1584.4,896.88,1601.55,874,1601.55,874Z"/><path class="cls-5" d="M1634.06,898.39s6,12.41,9.3,18.53,5.22,29.85,5.22,29.85l-16.25-.44-12.11-.31s-2.31-18-.75-23.88C1621.27,915.45,1634.06,898.39,1634.06,898.39Z"/><path class="cls-5" d="M1661.06,898.39s6,12.41,9.3,18.53,5.22,29.85,5.22,29.85l-16.25-.44-12.11-.31s-2.31-18-.75-23.88C1648.27,915.45,1661.06,898.39,1661.06,898.39Z"/><path class="cls-5" d="M1687.06,906.39s6,12.41,9.3,18.53,5.22,29.85,5.22,29.85l-16.25-.44-12.11-.31s-2.31-18-.75-23.88C1674.27,923.45,1687.06,906.39,1687.06,906.39Z"/><path class="cls-5" d="M1717.06,898.39s6,12.41,9.3,18.53,5.22,29.85,5.22,29.85l-16.25-.44-12.11-.31s-2.31-18-.75-23.88C1704.27,915.45,1717.06,898.39,1717.06,898.39Z"/><path class="cls-5" d="M1751.55,882s8.1,16.63,12.45,24.83,7,40,7,40l-21.77-.59-16.23-.41s-3.1-24.18-1-32C1734.4,904.88,1751.55,882,1751.55,882Z"/><path class="cls-5" d="M1784.06,906.39s6,12.41,9.3,18.53,5.22,29.85,5.22,29.85l-16.25-.44-12.11-.31s-2.31-18-.75-23.88C1771.27,923.45,1784.06,906.39,1784.06,906.39Z"/><path class="cls-5" d="M1811.06,906.39s6,12.41,9.3,18.53,5.22,29.85,5.22,29.85l-16.25-.44-12.11-.31s-2.31-18-.75-23.88C1798.27,923.45,1811.06,906.39,1811.06,906.39Z"/><path class="cls-5" d="M1837.06,914.39s6,12.41,9.3,18.53,5.22,29.85,5.22,29.85l-16.25-.44-12.11-.31s-2.31-18-.75-23.88C1824.27,931.45,1837.06,914.39,1837.06,914.39Z"/><path class="cls-5" d="M1867.06,906.39s6,12.41,9.3,18.53,5.22,29.85,5.22,29.85l-16.25-.44-12.11-.31s-2.31-18-.75-23.88C1854.27,923.45,1867.06,906.39,1867.06,906.39Z"/><path class="cls-8" d="M1159.06,371.3h-6.29a5.79,5.79,0,0,0,0-.72v-4.33a8,8,0,0,0,7.94-7.94v-7a8,8,0,0,0-7.94-7.93h-6.59a8,8,0,0,0-7.84-6.74H1027a8,8,0,0,0-7.84,6.74h-7.79a8,8,0,0,0-7.94,7.93v7a8,8,0,0,0,4.81,7.29v5a5.79,5.79,0,0,0,0,.72h0a8,8,0,0,0-7.94,7.94v7a8,8,0,0,0,7.94,7.94h.24v3.61a8,8,0,0,0,7.94,7.93h9.62v3.61a8,8,0,0,0,7.94,7.94h84.66a8,8,0,0,0,7.94-7.94v-3.61h21.65a8,8,0,0,0,7.94-7.93v-3.61h2.88a8,8,0,0,0,7.94-7.94v-7A8,8,0,0,0,1159.06,371.3Z"/><g class="cls-2"><rect class="cls-9" x="865.25" y="272.27" width="3.99" height="8.52" rx="2"/><rect class="cls-9" x="871.11" y="272.27" width="3.99" height="8.52" rx="2"/><polygon class="cls-10" points="800 490.63 788.82 490.63 786.96 422.99 801.6 422.99 800 490.63"/><polygon class="cls-10" points="886.55 490.63 875.37 490.63 873.5 422.99 888.15 422.99 886.55 490.63"/><path class="cls-11" d="M903.7,286.53l-29.82-8a11.44,11.44,0,0,0-3-.42c-7.8,0-14.11,8-14.11,17.85a21.26,21.26,0,0,0,2.21,9.58h-.08l-4.12,78.83H802.67a32.85,32.85,0,0,0-32.76,32.75v4.53c0,.44,0,.89,0,1.33h0l1.87,67.64H783l1-42.13a32.5,32.5,0,0,0,18.71,5.91h54.12l1,36.22H869l.91-38.14a32.88,32.88,0,0,0,21.73-30.83v-4.53a32.38,32.38,0,0,0-3.71-15.08l-4.25-95.83a9.07,9.07,0,0,0,1.57.13h18.91A9.88,9.88,0,0,0,914,296.5h0C914,291.08,910,285.85,903.7,286.53Z"/><ellipse class="cls-11" cx="857.39" cy="282.78" rx="4.39" ry="9.19" transform="translate(5.1 580.58) rotate(-37.51)"/><ellipse class="cls-10" cx="856.5" cy="281.48" rx="2.65" ry="5.53" transform="translate(5.71 579.77) rotate(-37.51)"/><rect class="cls-12" x="771.78" y="486.37" width="11.18" height="4.26"/><rect class="cls-12" x="788.82" y="486.37" width="11.18" height="4.26"/><rect class="cls-12" x="857.79" y="486.37" width="11.18" height="4.26"/><rect class="cls-12" x="875.37" y="486.37" width="11.18" height="4.26"/><circle class="cls-12" cx="877.23" cy="288.78" r="2.13"/><circle class="cls-9" cx="800.14" cy="417" r="8.92"/><circle class="cls-9" cx="849.67" cy="409.28" r="13.71"/><path class="cls-9" d="M831.69,384.51a13.72,13.72,0,0,1-27.43,0"/><path class="cls-9" d="M885.19,342a11.37,11.37,0,1,1-1.12-22.71"/><path class="cls-9" d="M856.78,345.81a7.88,7.88,0,1,1-.77,15.75"/><circle class="cls-9" cx="824.1" cy="435.64" r="6.26"/><circle class="cls-9" cx="875.5" cy="373.86" r="6.26"/><circle class="cls-9" cx="879.09" cy="424.85" r="7.99"/><path class="cls-11" d="M760.76,424.85h-3.9a27.73,27.73,0,0,1,27.7-27.69v3.89A23.82,23.82,0,0,0,760.76,424.85Z"/><circle class="cls-9" cx="758.59" cy="423.92" r="3.59"/><circle class="cls-9" cx="758.2" cy="426.72" r="2.66"/><path class="cls-13" d="M903.59,286.51A9.13,9.13,0,0,1,914,296.23c-.36,5.51-4.17,10-9.32,10"/></g></svg>
