<svg id="Layer_1" data-name="Layer 1" xmlns="http://www.w3.org/2000/svg" width="300" height="100" viewBox="0 0 300 100"><defs><style>.cls-1{fill:#fff;}.cls-2{fill:#97e6ff;}.cls-2,.cls-5{opacity:0.4;}.cls-3,.cls-4,.cls-5{fill:#c7effa;}.cls-3{opacity:0.3;}.cls-4{opacity:0.2;}.cls-6{fill:none;}</style></defs><title>diamant_sprite</title><polygon class="cls-1" points="49.84 89.59 9.27 40.55 90.42 40.55 49.84 89.59"/><polygon class="cls-1" points="90.76 40.39 9.55 40.39 32.66 18.68 67.65 18.68 90.76 40.39"/><polygon class="cls-2" points="49.84 89.43 9.27 40.39 90.42 40.39 49.84 89.43"/><polygon class="cls-2" points="49.84 89.43 32.35 40.39 67.34 40.39 49.84 89.43"/><polygon class="cls-3" points="90.45 40.39 9.24 40.39 32.35 18.68 67.34 18.68 90.45 40.39"/><rect class="cls-4" x="32.35" y="18.84" width="34.99" height="21.55"/><polygon class="cls-3" points="49.86 18.84 67.34 40.39 32.38 40.39 49.86 18.84"/><polygon class="cls-5" points="49.86 40.39 67.34 18.84 32.38 18.84 49.86 40.39"/><polygon class="cls-1" points="15.53 35.63 17.83 35.32 15.53 35.01 16.94 33.17 15.1 34.57 14.79 32.28 14.48 34.57 12.64 33.17 14.04 35.01 11.75 35.32 14.04 35.63 12.64 37.47 14.48 36.07 14.79 38.36 15.1 36.07 16.94 37.47 15.53 35.63"/><rect class="cls-6" width="100" height="100"/><polygon class="cls-1" points="149.84 89.59 109.27 40.55 190.42 40.55 149.84 89.59"/><polygon class="cls-1" points="190.76 40.39 109.55 40.39 132.66 18.68 167.65 18.68 190.76 40.39"/><polygon class="cls-2" points="149.84 89.43 109.27 40.39 190.42 40.39 149.84 89.43"/><polygon class="cls-2" points="149.84 89.43 132.35 40.39 167.34 40.39 149.84 89.43"/><polygon class="cls-3" points="190.45 40.39 109.24 40.39 132.35 18.68 167.34 18.68 190.45 40.39"/><rect class="cls-4" x="132.35" y="18.84" width="34.99" height="21.55"/><polygon class="cls-3" points="149.86 18.84 167.34 40.39 132.38 40.39 149.86 18.84"/><polygon class="cls-5" points="149.86 40.39 167.34 18.84 132.38 18.84 149.86 40.39"/><polygon class="cls-1" points="139.69 32.9 143.75 32.35 139.69 31.8 142.18 28.55 138.92 31.03 138.37 26.97 137.82 31.03 134.56 28.55 137.05 31.8 132.99 32.35 137.05 32.9 134.56 36.16 137.82 33.67 138.37 37.73 138.92 33.67 142.18 36.16 139.69 32.9"/><polygon class="cls-1" points="115.53 35.63 117.83 35.32 115.53 35.01 116.94 33.17 115.1 34.57 114.79 32.28 114.48 34.57 112.64 33.17 114.04 35.01 111.75 35.32 114.04 35.63 112.64 37.47 114.48 36.07 114.79 38.36 115.1 36.07 116.94 37.47 115.53 35.63"/><rect class="cls-6" x="100" width="100" height="100"/><polygon class="cls-1" points="249.84 89.59 209.27 40.55 290.42 40.55 249.84 89.59"/><polygon class="cls-1" points="290.76 40.39 209.55 40.39 232.66 18.68 267.65 18.68 290.76 40.39"/><polygon class="cls-2" points="249.84 89.43 209.27 40.39 290.42 40.39 249.84 89.43"/><polygon class="cls-2" points="249.84 89.43 232.35 40.39 267.34 40.39 249.84 89.43"/><polygon class="cls-3" points="290.45 40.39 209.24 40.39 232.35 18.68 267.34 18.68 290.45 40.39"/><rect class="cls-4" x="232.35" y="18.84" width="34.99" height="21.55"/><polygon class="cls-3" points="249.86 18.84 267.34 40.39 232.38 40.39 249.86 18.84"/><polygon class="cls-5" points="249.86 40.39 267.34 18.84 232.38 18.84 249.86 40.39"/><polygon class="cls-1" points="233.59 19.79 240 18.92 233.59 18.05 237.51 12.9 232.36 16.83 231.5 10.41 230.63 16.83 225.48 12.9 229.41 18.05 222.99 18.92 229.41 19.79 225.48 24.93 230.63 21.01 231.5 27.43 232.36 21.01 237.51 24.93 233.59 19.79"/><polygon class="cls-1" points="265.74 71.76 269.72 70.79 265.63 70.67 267.76 67.17 264.78 69.98 263.81 66 263.69 70.09 260.19 67.96 263 70.94 259.02 71.91 263.11 72.03 260.98 75.53 263.96 72.72 264.93 76.7 265.05 72.61 268.55 74.74 265.74 71.76"/><polygon class="cls-1" points="215.53 35.63 217.83 35.32 215.53 35.01 216.94 33.17 215.1 34.57 214.79 32.28 214.48 34.57 212.64 33.17 214.04 35.01 211.75 35.32 214.04 35.63 212.64 37.47 214.48 36.07 214.79 38.36 215.1 36.07 216.94 37.47 215.53 35.63"/><rect class="cls-6" x="200" width="100" height="100"/></svg>
