<svg xmlns="http://www.w3.org/2000/svg" width="290" height="270" viewBox="0 0 290 270"><defs><style>.cls-1{fill:#fff;}.cls-2{fill:#97e6ff;}.cls-2,.cls-5{opacity:0.4;}.cls-3,.cls-4,.cls-5{fill:#c7effa;}.cls-3{opacity:0.3;}.cls-4{opacity:0.2;}</style></defs><title>Diamant</title><g id="Spilkarakterer"><polygon class="cls-1" points="144.67 258 17.57 104.38 271.77 104.38 144.67 258"/><polygon class="cls-1" points="272.85 103.89 18.45 103.89 90.86 35.89 200.44 35.89 272.85 103.89"/><polygon class="cls-2" points="144.67 257.51 17.57 103.89 271.77 103.89 144.67 257.51"/><polygon class="cls-2" points="144.67 257.51 89.88 103.89 199.46 103.89 144.67 257.51"/><polygon class="cls-3" points="271.87 103.89 17.47 103.89 89.88 35.89 199.46 35.89 271.87 103.89"/><rect class="cls-4" x="89.88" y="36.38" width="109.59" height="67.51"/><polygon class="cls-3" points="144.72 36.38 199.46 103.89 89.98 103.89 144.72 36.38"/><polygon class="cls-5" points="144.72 103.89 199.46 36.38 89.98 36.38 144.72 103.89"/><polygon class="cls-1" points="93.75 39.36 113.85 36.65 93.75 33.93 106.05 17.8 89.92 30.1 87.2 10 84.49 30.1 68.36 17.8 80.66 33.93 60.56 36.65 80.66 39.36 68.36 55.49 84.49 43.19 87.2 63.29 89.92 43.19 106.05 55.49 93.75 39.36"/><polygon class="cls-1" points="112.87 80.43 125.59 78.72 112.87 77 120.65 66.8 110.45 74.58 108.73 61.86 107.01 74.58 96.81 66.8 104.59 77 91.87 78.72 104.59 80.43 96.81 90.64 107.01 82.86 108.73 95.58 110.45 82.86 120.65 90.64 112.87 80.43"/><polygon class="cls-1" points="37.2 88.98 44.38 88.01 37.2 87.04 41.59 81.28 35.83 85.67 34.86 78.49 33.89 85.67 28.12 81.28 32.52 87.04 25.34 88.01 32.52 88.98 28.12 94.75 33.89 90.35 34.86 97.53 35.83 90.35 41.59 94.75 37.2 88.98"/></g></svg>
