<svg xmlns="http://www.w3.org/2000/svg" width="1920" height="1080" viewBox="0 0 1920 1080"><defs><style>.cls-1{fill:#62463c;}.cls-2{fill:#b6bb99;}.cls-3{fill:#7d825d;}.cls-4{fill:#fff;}.cls-5{fill:#393344;}.cls-6{fill:#cfcfcf;}.cls-7{fill:#ece6c3;}</style></defs><title>Forgrund</title><g id="Baggrund"><path class="cls-1" d="M298.32,621.33a562.86,562.86,0,0,1-78.73,116.76c-40.29,46-86.42,83.6-137.11,111.66C30,878.81-25.12,896.33-81.26,901.81l4.85-98c87.49-8.55,171.61-54.33,236.87-128.9S264.3,505.9,269.09,409l88.48-8.65A544.61,544.61,0,0,1,316,582.92Q307.84,602.51,298.32,621.33Z"/><path class="cls-2" d="M622.67,247.35H600.22c.08-.85.13-1.71.13-2.58V229.32A28.42,28.42,0,0,0,628.68,201v-24.9a28.42,28.42,0,0,0-28.33-28.33H576.84a28.44,28.44,0,0,0-28-24H151.33a28.44,28.44,0,0,0-28,24H95.52a28.42,28.42,0,0,0-28.33,28.33V201a28.43,28.43,0,0,0,17.17,26v17.76c0,.87,0,1.73.12,2.58h-.12A28.42,28.42,0,0,0,56,275.68v24.9a28.42,28.42,0,0,0,28.33,28.33h.86v12.88a28.42,28.42,0,0,0,28.33,28.33h34.34V383a28.42,28.42,0,0,0,28.33,28.33H478.43A28.42,28.42,0,0,0,506.76,383V370.12H584a28.42,28.42,0,0,0,28.34-28.33V328.91h10.3A28.42,28.42,0,0,0,651,300.58v-24.9A28.42,28.42,0,0,0,622.67,247.35Z"/><path class="cls-3" d="M612.67,255.35H590.22c.08-.85.13-1.71.13-2.58V237.32A28.42,28.42,0,0,0,618.68,209v-24.9a28.42,28.42,0,0,0-28.33-28.33H566.84a28.44,28.44,0,0,0-28-24H141.33a28.44,28.44,0,0,0-28,24H85.52a28.42,28.42,0,0,0-28.33,28.33V209a28.43,28.43,0,0,0,17.17,26v17.76c0,.87,0,1.73.12,2.58h-.12A28.42,28.42,0,0,0,46,283.68v24.9a28.42,28.42,0,0,0,28.33,28.33h.86v12.88a28.42,28.42,0,0,0,28.33,28.33h34.34V391a28.42,28.42,0,0,0,28.33,28.33H468.43A28.42,28.42,0,0,0,496.76,391V378.12H574a28.42,28.42,0,0,0,28.34-28.33V336.91h10.3A28.42,28.42,0,0,0,641,308.58v-24.9A28.42,28.42,0,0,0,612.67,255.35Z"/></g><g id="Computer"><rect class="cls-4" x="36" y="29.84" width="1842" height="79"/><path class="cls-4" d="M1916,1080.84H-4V.84H1916ZM35.18,1042.27H1876.82V39.41H35.18Z"/><path class="cls-5" d="M1866.78,1082.16H49.22a53.18,53.18,0,0,1-53.22-53V52.84a53.18,53.18,0,0,1,53.22-53H1866.78a53.17,53.17,0,0,1,53.22,53v976.32A53.17,53.17,0,0,1,1866.78,1082.16Zm13-1029.32a13.21,13.21,0,0,0-13-13H49.22a13.2,13.2,0,0,0-13,13c0,118.16-3.46,215.55,0,503.92.23,19.4.07,33.83,0,39.46,0,0-.67,386.1,0,432.94A13.41,13.41,0,0,0,40,1038.3a13,13,0,0,0,9.18,3.86H1866.78a13.21,13.21,0,0,0,13-13"/><circle class="cls-6" cx="959" cy="19.84" r="11"/></g><g id="Spilkarakterer"><path class="cls-7" d="M1131.5,707.79s3.71,6.35,5.68,9.47,4,15.65,4,15.65l-8.65.42-6.45.32s-2-9.49-1.36-12.65C1125.39,717.37,1131.5,707.79,1131.5,707.79Z"/><path class="cls-7" d="M1145.12,716.48s2.77,4.74,4.24,7.07,3,11.68,3,11.68l-6.46.31-4.81.24s-1.46-7.08-1-9.44C1140.56,723.63,1145.12,716.48,1145.12,716.48Z"/><path class="cls-7" d="M1155.83,715.67s2.77,4.74,4.24,7.07,3,11.68,3,11.68l-6.46.31-4.81.24s-1.46-7.08-1-9.45C1151.27,722.82,1155.83,715.67,1155.83,715.67Z"/><path class="cls-7" d="M1166.37,718.06s2.78,4.74,4.25,7.07,3,11.68,3,11.68l-6.45.31-4.81.24s-1.46-7.08-1-9.44C1161.81,725.21,1166.37,718.06,1166.37,718.06Z"/><path class="cls-7" d="M1178,714s2.77,4.74,4.24,7.06,3,11.68,3,11.68l-6.46.32-4.81.24s-1.46-7.09-1-9.45C1173.47,721.14,1178,714,1178,714Z"/><path class="cls-7" d="M1191.21,706.46s3.71,6.35,5.68,9.47,4,15.65,4,15.65l-8.65.42-6.45.32s-2-9.49-1.36-12.66C1185.1,716,1191.21,706.46,1191.21,706.46Z"/><path class="cls-7" d="M1204.83,715.15s2.77,4.73,4.24,7.06,3,11.68,3,11.68l-6.45.32-4.82.24s-1.45-7.09-1-9.45C1200.27,722.3,1204.83,715.15,1204.83,715.15Z"/><path class="cls-7" d="M1215.54,714.34s2.77,4.73,4.24,7.06,3,11.68,3,11.68l-6.46.32-4.81.24s-1.46-7.09-1-9.45C1211,721.49,1215.54,714.34,1215.54,714.34Z"/><path class="cls-7" d="M1226.09,716.73s2.77,4.73,4.24,7.06,3,11.68,3,11.68l-6.46.32L1222,736s-1.46-7.09-1-9.45C1221.52,723.88,1226.09,716.73,1226.09,716.73Z"/><path class="cls-7" d="M1237.74,712.65s2.77,4.74,4.24,7.07,3,11.68,3,11.68l-6.46.31-4.81.25s-1.46-7.09-1-9.45C1233.18,719.8,1237.74,712.65,1237.74,712.65Z"/><path class="cls-7" d="M1250.92,705.13s3.71,6.35,5.68,9.46,4,15.65,4,15.65l-8.65.42-6.45.33s-2-9.49-1.35-12.66C1244.81,714.71,1250.92,705.13,1250.92,705.13Z"/><path class="cls-7" d="M1264.54,713.81s2.77,4.74,4.24,7.07,3,11.68,3,11.68l-6.45.31-4.81.25s-1.46-7.09-1-9.45C1260,721,1264.54,713.81,1264.54,713.81Z"/><path class="cls-7" d="M1275.25,713s2.77,4.74,4.24,7.07,3,11.68,3,11.68l-6.46.31-4.81.24s-1.46-7.08-1-9.44C1270.69,720.15,1275.25,713,1275.25,713Z"/><path class="cls-7" d="M1285.8,715.39s2.77,4.74,4.24,7.07,3,11.68,3,11.68l-6.46.31-4.81.25s-1.46-7.09-1-9.45C1281.24,722.54,1285.8,715.39,1285.8,715.39Z"/><path class="cls-7" d="M1297.45,711.32s2.77,4.74,4.24,7.07,3,11.68,3,11.68l-6.46.31-4.81.24s-1.46-7.08-1-9.44C1292.89,718.47,1297.45,711.32,1297.45,711.32Z"/><path class="cls-7" d="M605.5,704.79s3.71,6.35,5.68,9.47,4,15.65,4,15.65l-8.65.42-6.45.32s-1.95-9.49-1.36-12.65C599.39,714.37,605.5,704.79,605.5,704.79Z"/><path class="cls-7" d="M619.12,713.48s2.77,4.74,4.24,7.07,3,11.68,3,11.68l-6.46.31-4.81.24s-1.46-7.08-1-9.44C614.56,720.63,619.12,713.48,619.12,713.48Z"/><path class="cls-7" d="M629.83,712.67s2.77,4.74,4.24,7.07,3,11.68,3,11.68l-6.46.31-4.81.24s-1.46-7.08-1-9.45C625.27,719.82,629.83,712.67,629.83,712.67Z"/><path class="cls-7" d="M640.37,715.06s2.78,4.74,4.25,7.07,3,11.68,3,11.68l-6.45.31-4.81.24s-1.46-7.08-1-9.44C635.81,722.21,640.37,715.06,640.37,715.06Z"/><path class="cls-7" d="M652,711s2.77,4.74,4.24,7.06,3,11.68,3,11.68l-6.46.32-4.81.24s-1.46-7.09-1-9.45C647.47,718.14,652,711,652,711Z"/><path class="cls-7" d="M665.21,703.46s3.71,6.35,5.68,9.47,4,15.65,4,15.65l-8.65.42-6.45.32s-1.95-9.49-1.36-12.66C659.1,713,665.21,703.46,665.21,703.46Z"/><path class="cls-7" d="M678.83,712.15s2.77,4.73,4.24,7.06,3,11.68,3,11.68l-6.45.32-4.82.24s-1.45-7.09-1-9.45C674.27,719.3,678.83,712.15,678.83,712.15Z"/><path class="cls-7" d="M689.54,711.34s2.77,4.73,4.24,7.06,3,11.68,3,11.68l-6.46.32-4.81.24s-1.46-7.09-1-9.45C685,718.49,689.54,711.34,689.54,711.34Z"/><path class="cls-7" d="M700.09,713.73s2.77,4.73,4.24,7.06,3,11.68,3,11.68l-6.46.32L696,733s-1.46-7.09-1-9.45C695.52,720.88,700.09,713.73,700.09,713.73Z"/><path class="cls-7" d="M711.74,709.65s2.77,4.74,4.24,7.07,3,11.68,3,11.68l-6.46.31-4.81.25s-1.46-7.09-1-9.45C707.18,716.8,711.74,709.65,711.74,709.65Z"/><path class="cls-7" d="M724.92,702.13s3.71,6.35,5.68,9.46,4,15.65,4,15.65l-8.65.42-6.45.33s-2-9.49-1.35-12.66C718.81,711.71,724.92,702.13,724.92,702.13Z"/><path class="cls-7" d="M738.54,710.81s2.77,4.74,4.24,7.07,3,11.68,3,11.68l-6.45.31-4.81.25s-1.46-7.09-1-9.45C734,718,738.54,710.81,738.54,710.81Z"/><path class="cls-7" d="M749.25,710s2.77,4.74,4.24,7.07,3,11.68,3,11.68l-6.46.31-4.81.24s-1.46-7.08-1-9.44C744.69,717.15,749.25,710,749.25,710Z"/><path class="cls-7" d="M759.8,712.39s2.77,4.74,4.24,7.07,3,11.68,3,11.68l-6.46.31-4.81.25s-1.46-7.09-1-9.45C755.24,719.54,759.8,712.39,759.8,712.39Z"/><path class="cls-7" d="M771.45,708.32s2.77,4.74,4.24,7.07,3,11.68,3,11.68l-6.46.31-4.81.24s-1.46-7.08-1-9.44C766.89,715.47,771.45,708.32,771.45,708.32Z"/><path class="cls-7" d="M1297.5,514.79s3.71,6.35,5.68,9.47,4,15.65,4,15.65l-8.65.42-6.45.32s-2-9.49-1.36-12.65C1291.39,524.37,1297.5,514.79,1297.5,514.79Z"/><path class="cls-7" d="M1311.12,523.48s2.77,4.74,4.24,7.07,3,11.68,3,11.68l-6.46.31-4.81.24s-1.46-7.08-1-9.44C1306.56,530.63,1311.12,523.48,1311.12,523.48Z"/><path class="cls-7" d="M1321.83,522.67s2.77,4.74,4.24,7.07,3,11.68,3,11.68l-6.46.31-4.81.24s-1.46-7.08-1-9.45C1317.27,529.82,1321.83,522.67,1321.83,522.67Z"/><path class="cls-7" d="M1332.37,525.06s2.78,4.74,4.25,7.07,3,11.68,3,11.68l-6.45.31-4.81.24s-1.46-7.08-1-9.44C1327.81,532.21,1332.37,525.06,1332.37,525.06Z"/><path class="cls-7" d="M1344,521s2.77,4.74,4.24,7.06,3,11.68,3,11.68l-6.46.32-4.81.24s-1.46-7.09-1-9.45C1339.47,528.14,1344,521,1344,521Z"/><path class="cls-7" d="M1357.21,513.46s3.71,6.35,5.68,9.47,4,15.65,4,15.65l-8.65.42-6.45.32s-2-9.49-1.36-12.66C1351.1,523,1357.21,513.46,1357.21,513.46Z"/><path class="cls-7" d="M1370.83,522.15s2.77,4.73,4.24,7.06,3,11.68,3,11.68l-6.45.32-4.82.24s-1.45-7.09-1-9.45C1366.27,529.3,1370.83,522.15,1370.83,522.15Z"/><path class="cls-7" d="M1381.54,521.34s2.77,4.73,4.24,7.06,3,11.68,3,11.68l-6.46.32-4.81.24s-1.46-7.09-1-9.45C1377,528.49,1381.54,521.34,1381.54,521.34Z"/><path class="cls-7" d="M1392.09,523.73s2.77,4.73,4.24,7.06,3,11.68,3,11.68l-6.46.32L1388,543s-1.46-7.09-1-9.45C1387.52,530.88,1392.09,523.73,1392.09,523.73Z"/><path class="cls-7" d="M1403.74,519.65s2.77,4.74,4.24,7.07,3,11.68,3,11.68l-6.46.31-4.81.25s-1.46-7.09-1-9.45C1399.18,526.8,1403.74,519.65,1403.74,519.65Z"/><path class="cls-7" d="M1416.92,512.13s3.71,6.35,5.68,9.46,4,15.65,4,15.65l-8.65.42-6.45.33s-2-9.49-1.35-12.66C1410.81,521.71,1416.92,512.13,1416.92,512.13Z"/><path class="cls-7" d="M1430.54,520.81s2.77,4.74,4.24,7.07,3,11.68,3,11.68l-6.45.31-4.81.25s-1.46-7.09-1-9.45C1426,528,1430.54,520.81,1430.54,520.81Z"/><path class="cls-7" d="M1441.25,520s2.77,4.74,4.24,7.07,3,11.68,3,11.68l-6.46.31-4.81.24s-1.46-7.08-1-9.44C1436.69,527.15,1441.25,520,1441.25,520Z"/><path class="cls-7" d="M1451.8,522.39s2.77,4.74,4.24,7.07,3,11.68,3,11.68l-6.46.31-4.81.25s-1.46-7.09-1-9.45C1447.24,529.54,1451.8,522.39,1451.8,522.39Z"/><path class="cls-7" d="M1463.45,518.32s2.77,4.74,4.24,7.07,3,11.68,3,11.68l-6.46.31-4.81.24s-1.46-7.08-1-9.44C1458.89,525.47,1463.45,518.32,1463.45,518.32Z"/><path class="cls-7" d="M274.5,731.79s3.71,6.35,5.68,9.47,4,15.65,4,15.65l-8.65.42-6.45.32s-1.95-9.49-1.36-12.65C268.39,741.37,274.5,731.79,274.5,731.79Z"/><path class="cls-7" d="M288.12,740.48s2.77,4.74,4.24,7.07,3,11.68,3,11.68l-6.46.31-4.81.24s-1.46-7.08-1-9.44C283.56,747.63,288.12,740.48,288.12,740.48Z"/><path class="cls-7" d="M298.83,739.67s2.77,4.74,4.24,7.07,3,11.68,3,11.68l-6.46.31-4.81.24s-1.46-7.08-1-9.45C294.27,746.82,298.83,739.67,298.83,739.67Z"/><path class="cls-7" d="M309.37,742.06s2.78,4.74,4.25,7.07,3,11.68,3,11.68l-6.45.31-4.81.24s-1.46-7.08-1-9.44C304.81,749.21,309.37,742.06,309.37,742.06Z"/><path class="cls-7" d="M321,738s2.77,4.74,4.24,7.06,3,11.68,3,11.68l-6.46.32-4.81.24s-1.46-7.09-1-9.45C316.47,745.14,321,738,321,738Z"/><path class="cls-7" d="M334.21,730.46s3.71,6.35,5.68,9.47,4,15.65,4,15.65l-8.65.42-6.45.32s-1.95-9.49-1.36-12.66C328.1,740,334.21,730.46,334.21,730.46Z"/><path class="cls-7" d="M347.83,739.15s2.77,4.73,4.24,7.06,3,11.68,3,11.68l-6.45.32-4.82.24s-1.45-7.09-1-9.45C343.27,746.3,347.83,739.15,347.83,739.15Z"/><path class="cls-7" d="M358.54,738.34s2.77,4.73,4.24,7.06,3,11.68,3,11.68l-6.46.32-4.81.24s-1.46-7.09-1-9.45C354,745.49,358.54,738.34,358.54,738.34Z"/><path class="cls-7" d="M369.09,740.73s2.77,4.73,4.24,7.06,3,11.68,3,11.68l-6.46.32L365,760s-1.46-7.09-1-9.45C364.52,747.88,369.09,740.73,369.09,740.73Z"/><path class="cls-7" d="M380.74,736.65s2.77,4.74,4.24,7.07,3,11.68,3,11.68l-6.46.31-4.81.25s-1.46-7.09-1-9.45C376.18,743.8,380.74,736.65,380.74,736.65Z"/><path class="cls-7" d="M393.92,729.13s3.71,6.35,5.68,9.46,4,15.65,4,15.65l-8.65.42-6.45.33s-2-9.49-1.35-12.66C387.81,738.71,393.92,729.13,393.92,729.13Z"/><path class="cls-7" d="M407.54,737.81s2.77,4.74,4.24,7.07,3,11.68,3,11.68l-6.45.31-4.81.25s-1.46-7.09-1-9.45C403,745,407.54,737.81,407.54,737.81Z"/><path class="cls-7" d="M418.25,737s2.77,4.74,4.24,7.07,3,11.68,3,11.68l-6.46.31-4.81.24s-1.46-7.08-1-9.44C413.69,744.15,418.25,737,418.25,737Z"/><path class="cls-7" d="M428.8,739.39s2.77,4.74,4.24,7.07,3,11.68,3,11.68l-6.46.31-4.81.25s-1.46-7.09-1-9.45C424.24,746.54,428.8,739.39,428.8,739.39Z"/><path class="cls-7" d="M440.45,735.32s2.77,4.74,4.24,7.07,3,11.68,3,11.68l-6.46.31-4.81.24s-1.46-7.08-1-9.44C435.89,742.47,440.45,735.32,440.45,735.32Z"/><path class="cls-7" d="M55.5,619.79s3.71,6.35,5.68,9.47,4,15.65,4,15.65l-8.65.42-6.45.32s-2-9.49-1.36-12.65C49.39,629.37,55.5,619.79,55.5,619.79Z"/><path class="cls-7" d="M69.12,628.48s2.77,4.74,4.24,7.07,3,11.68,3,11.68l-6.46.31-4.81.24s-1.46-7.08-1-9.44C64.56,635.63,69.12,628.48,69.12,628.48Z"/><path class="cls-7" d="M79.83,627.67s2.77,4.74,4.24,7.07,3,11.68,3,11.68l-6.46.31-4.81.24s-1.46-7.08-1-9.45C75.27,634.82,79.83,627.67,79.83,627.67Z"/><path class="cls-7" d="M90.37,630.06s2.78,4.74,4.25,7.07,3,11.68,3,11.68l-6.45.31-4.81.24s-1.46-7.08-1-9.44C85.81,637.21,90.37,630.06,90.37,630.06Z"/><path class="cls-7" d="M102,626s2.77,4.74,4.24,7.06,3,11.68,3,11.68l-6.46.32-4.81.24s-1.46-7.09-1-9.45C97.47,633.14,102,626,102,626Z"/><path class="cls-7" d="M115.21,618.46s3.71,6.35,5.68,9.47,4,15.65,4,15.65l-8.65.42-6.45.32s-2-9.49-1.36-12.66C109.1,628,115.21,618.46,115.21,618.46Z"/><path class="cls-7" d="M128.83,627.15s2.77,4.73,4.24,7.06,3,11.68,3,11.68l-6.45.32-4.82.24s-1.45-7.09-1-9.45C124.27,634.3,128.83,627.15,128.83,627.15Z"/><path class="cls-7" d="M139.54,626.34s2.77,4.73,4.24,7.06,3,11.68,3,11.68l-6.46.32-4.81.24s-1.46-7.09-1-9.45C135,633.49,139.54,626.34,139.54,626.34Z"/><path class="cls-7" d="M150.09,628.73s2.77,4.73,4.24,7.06,3,11.68,3,11.68l-6.46.32L146,648s-1.46-7.09-1-9.45C145.52,635.88,150.09,628.73,150.09,628.73Z"/><path class="cls-7" d="M161.74,624.65s2.77,4.74,4.24,7.07,3,11.68,3,11.68l-6.46.31-4.81.25s-1.46-7.09-1-9.45C157.18,631.8,161.74,624.65,161.74,624.65Z"/><path class="cls-7" d="M174.92,617.13s3.71,6.35,5.68,9.46,4,15.65,4,15.65l-8.65.42-6.45.33s-1.95-9.49-1.35-12.66C168.81,626.71,174.92,617.13,174.92,617.13Z"/><path class="cls-7" d="M888.5,778.79s3.71,6.35,5.68,9.47,4,15.65,4,15.65l-8.65.42-6.45.32s-1.95-9.49-1.36-12.65C882.39,788.37,888.5,778.79,888.5,778.79Z"/><path class="cls-7" d="M902.12,787.48s2.77,4.74,4.24,7.07,3,11.68,3,11.68l-6.46.31-4.81.24s-1.46-7.08-1-9.44C897.56,794.63,902.12,787.48,902.12,787.48Z"/><path class="cls-7" d="M912.83,786.67s2.77,4.74,4.24,7.07,3,11.68,3,11.68l-6.46.31-4.81.24s-1.46-7.08-1-9.45C908.27,793.82,912.83,786.67,912.83,786.67Z"/><path class="cls-7" d="M923.37,789.06s2.78,4.74,4.25,7.07,3,11.68,3,11.68l-6.45.31-4.81.24s-1.46-7.08-1-9.44C918.81,796.21,923.37,789.06,923.37,789.06Z"/><path class="cls-7" d="M935,785s2.77,4.74,4.24,7.06,3,11.68,3,11.68l-6.46.32-4.81.24s-1.46-7.09-1-9.45C930.47,792.14,935,785,935,785Z"/><path class="cls-7" d="M948.21,777.46s3.71,6.35,5.68,9.47,4,15.65,4,15.65l-8.65.42-6.45.32s-1.95-9.49-1.36-12.66C942.1,787,948.21,777.46,948.21,777.46Z"/><path class="cls-7" d="M961.83,786.15s2.77,4.73,4.24,7.06,3,11.68,3,11.68l-6.45.32-4.82.24s-1.45-7.09-1-9.45C957.27,793.3,961.83,786.15,961.83,786.15Z"/><path class="cls-7" d="M972.54,785.34s2.77,4.73,4.24,7.06,3,11.68,3,11.68l-6.46.32-4.81.24s-1.46-7.09-1-9.45C968,792.49,972.54,785.34,972.54,785.34Z"/><path class="cls-7" d="M983.09,787.73s2.77,4.73,4.24,7.06,3,11.68,3,11.68l-6.46.32L979,807s-1.46-7.09-1-9.45C978.52,794.88,983.09,787.73,983.09,787.73Z"/><path class="cls-7" d="M994.74,783.65s2.77,4.74,4.24,7.07,3,11.68,3,11.68l-6.46.31-4.81.25s-1.46-7.09-1-9.45C990.18,790.8,994.74,783.65,994.74,783.65Z"/><path class="cls-7" d="M1007.92,776.13s3.71,6.35,5.68,9.46,4,15.65,4,15.65l-8.65.42-6.45.33s-2-9.49-1.35-12.66C1001.81,785.71,1007.92,776.13,1007.92,776.13Z"/><path class="cls-7" d="M1021.54,784.81s2.77,4.74,4.24,7.07,3,11.68,3,11.68l-6.45.31-4.81.25s-1.46-7.09-1-9.45C1017,792,1021.54,784.81,1021.54,784.81Z"/><path class="cls-7" d="M1032.25,784s2.77,4.74,4.24,7.07,3,11.68,3,11.68l-6.46.31-4.81.24s-1.46-7.08-1-9.44C1027.69,791.15,1032.25,784,1032.25,784Z"/><path class="cls-7" d="M1042.8,786.39s2.77,4.74,4.24,7.07,3,11.68,3,11.68l-6.46.31-4.81.25s-1.46-7.09-1-9.45C1038.24,793.54,1042.8,786.39,1042.8,786.39Z"/><path class="cls-7" d="M1054.45,782.32s2.77,4.74,4.24,7.07,3,11.68,3,11.68l-6.46.31-4.81.24s-1.46-7.08-1-9.44C1049.89,789.47,1054.45,782.32,1054.45,782.32Z"/><path class="cls-7" d="M1535.5,575.79s3.71,6.35,5.68,9.47,4,15.65,4,15.65l-8.65.42-6.45.32s-2-9.49-1.36-12.65C1529.39,585.37,1535.5,575.79,1535.5,575.79Z"/><path class="cls-7" d="M1549.12,584.48s2.77,4.74,4.24,7.07,3,11.68,3,11.68l-6.46.31-4.81.24s-1.46-7.08-1-9.44C1544.56,591.63,1549.12,584.48,1549.12,584.48Z"/><path class="cls-7" d="M1559.83,583.67s2.77,4.74,4.24,7.07,3,11.68,3,11.68l-6.46.31-4.81.24s-1.46-7.08-1-9.45C1555.27,590.82,1559.83,583.67,1559.83,583.67Z"/><path class="cls-7" d="M1570.37,586.06s2.78,4.74,4.25,7.07,3,11.68,3,11.68l-6.45.31-4.81.24s-1.46-7.08-1-9.44C1565.81,593.21,1570.37,586.06,1570.37,586.06Z"/><path class="cls-7" d="M1582,582s2.77,4.74,4.24,7.06,3,11.68,3,11.68l-6.46.32-4.81.24s-1.46-7.09-1-9.45C1577.47,589.14,1582,582,1582,582Z"/><path class="cls-7" d="M1595.21,574.46s3.71,6.35,5.68,9.47,4,15.65,4,15.65l-8.65.42-6.45.32s-2-9.49-1.36-12.66C1589.1,584,1595.21,574.46,1595.21,574.46Z"/><path class="cls-7" d="M1608.83,583.15s2.77,4.73,4.24,7.06,3,11.68,3,11.68l-6.45.32-4.82.24s-1.45-7.09-1-9.45C1604.27,590.3,1608.83,583.15,1608.83,583.15Z"/><path class="cls-7" d="M1619.54,582.34s2.77,4.73,4.24,7.06,3,11.68,3,11.68l-6.46.32-4.81.24s-1.46-7.09-1-9.45C1615,589.49,1619.54,582.34,1619.54,582.34Z"/><path class="cls-7" d="M1630.09,584.73s2.77,4.73,4.24,7.06,3,11.68,3,11.68l-6.46.32L1626,604s-1.46-7.09-1-9.45C1625.52,591.88,1630.09,584.73,1630.09,584.73Z"/><path class="cls-7" d="M1641.74,580.65s2.77,4.74,4.24,7.07,3,11.68,3,11.68l-6.46.31-4.81.25s-1.46-7.09-1-9.45C1637.18,587.8,1641.74,580.65,1641.74,580.65Z"/><path class="cls-7" d="M1654.92,573.13s3.71,6.35,5.68,9.46,4,15.65,4,15.65l-8.65.42-6.45.33s-2-9.49-1.35-12.66C1648.81,582.71,1654.92,573.13,1654.92,573.13Z"/><path class="cls-7" d="M1668.54,581.81s2.77,4.74,4.24,7.07,3,11.68,3,11.68l-6.45.31-4.81.25s-1.46-7.09-1-9.45C1664,589,1668.54,581.81,1668.54,581.81Z"/><path class="cls-7" d="M1679.25,581s2.77,4.74,4.24,7.07,3,11.68,3,11.68l-6.46.31-4.81.24s-1.46-7.08-1-9.44C1674.69,588.15,1679.25,581,1679.25,581Z"/><path class="cls-7" d="M1689.8,583.39s2.77,4.74,4.24,7.07,3,11.68,3,11.68l-6.46.31-4.81.25s-1.46-7.09-1-9.45C1685.24,590.54,1689.8,583.39,1689.8,583.39Z"/><path class="cls-7" d="M1701.45,579.32s2.77,4.74,4.24,7.07,3,11.68,3,11.68l-6.46.31-4.81.24s-1.46-7.08-1-9.44C1696.89,586.47,1701.45,579.32,1701.45,579.32Z"/><path class="cls-7" d="M1635.5,793.79s3.71,6.35,5.68,9.47,4,15.65,4,15.65l-8.65.42-6.45.32s-2-9.49-1.36-12.65C1629.39,803.37,1635.5,793.79,1635.5,793.79Z"/><path class="cls-7" d="M1649.12,802.48s2.77,4.74,4.24,7.07,3,11.68,3,11.68l-6.46.31-4.81.24s-1.46-7.08-1-9.44C1644.56,809.63,1649.12,802.48,1649.12,802.48Z"/><path class="cls-7" d="M1659.83,801.67s2.77,4.74,4.24,7.07,3,11.68,3,11.68l-6.46.31-4.81.24s-1.46-7.08-1-9.45C1655.27,808.82,1659.83,801.67,1659.83,801.67Z"/><path class="cls-7" d="M1670.37,804.06s2.78,4.74,4.25,7.07,3,11.68,3,11.68l-6.45.31-4.81.24s-1.46-7.08-1-9.44C1665.81,811.21,1670.37,804.06,1670.37,804.06Z"/><path class="cls-7" d="M1682,800s2.77,4.74,4.24,7.06,3,11.68,3,11.68l-6.46.32-4.81.24s-1.46-7.09-1-9.45C1677.47,807.14,1682,800,1682,800Z"/><path class="cls-7" d="M1695.21,792.46s3.71,6.35,5.68,9.47,4,15.65,4,15.65l-8.65.42-6.45.32s-2-9.49-1.36-12.66C1689.1,802,1695.21,792.46,1695.21,792.46Z"/><path class="cls-7" d="M1708.83,801.15s2.77,4.73,4.24,7.06,3,11.68,3,11.68l-6.45.32-4.82.24s-1.45-7.09-1-9.45C1704.27,808.3,1708.83,801.15,1708.83,801.15Z"/><path class="cls-7" d="M1719.54,800.34s2.77,4.73,4.24,7.06,3,11.68,3,11.68l-6.46.32-4.81.24s-1.46-7.09-1-9.45C1715,807.49,1719.54,800.34,1719.54,800.34Z"/><path class="cls-7" d="M1730.09,802.73s2.77,4.73,4.24,7.06,3,11.68,3,11.68l-6.46.32L1726,822s-1.46-7.09-1-9.45C1725.52,809.88,1730.09,802.73,1730.09,802.73Z"/><path class="cls-7" d="M1741.74,798.65s2.77,4.74,4.24,7.07,3,11.68,3,11.68l-6.46.31-4.81.25s-1.46-7.09-1-9.45C1737.18,805.8,1741.74,798.65,1741.74,798.65Z"/><path class="cls-7" d="M1754.92,791.13s3.71,6.35,5.68,9.46,4,15.65,4,15.65l-8.65.42-6.45.33s-2-9.49-1.35-12.66C1748.81,800.71,1754.92,791.13,1754.92,791.13Z"/><path class="cls-7" d="M1768.54,799.81s2.77,4.74,4.24,7.07,3,11.68,3,11.68l-6.45.31-4.81.25s-1.46-7.09-1-9.45C1764,807,1768.54,799.81,1768.54,799.81Z"/><path class="cls-7" d="M1779.25,799s2.77,4.74,4.24,7.07,3,11.68,3,11.68l-6.46.31-4.81.24s-1.46-7.08-1-9.44C1774.69,806.15,1779.25,799,1779.25,799Z"/><path class="cls-7" d="M1789.8,801.39s2.77,4.74,4.24,7.07,3,11.68,3,11.68l-6.46.31-4.81.25s-1.46-7.09-1-9.45C1785.24,808.54,1789.8,801.39,1789.8,801.39Z"/><path class="cls-7" d="M1801.45,797.32s2.77,4.74,4.24,7.07,3,11.68,3,11.68l-6.46.31-4.81.24s-1.46-7.08-1-9.44C1796.89,804.47,1801.45,797.32,1801.45,797.32Z"/><path class="cls-7" d="M664.5,571.79s3.71,6.35,5.68,9.47,4,15.65,4,15.65l-8.65.42-6.45.32s-1.95-9.49-1.36-12.65C658.39,581.37,664.5,571.79,664.5,571.79Z"/><path class="cls-7" d="M678.12,580.48s2.77,4.74,4.24,7.07,3,11.68,3,11.68l-6.46.31-4.81.24s-1.46-7.08-1-9.44C673.56,587.63,678.12,580.48,678.12,580.48Z"/><path class="cls-7" d="M688.83,579.67s2.77,4.74,4.24,7.07,3,11.68,3,11.68l-6.46.31-4.81.24s-1.46-7.08-1-9.45C684.27,586.82,688.83,579.67,688.83,579.67Z"/><path class="cls-7" d="M699.37,582.06s2.78,4.74,4.25,7.07,3,11.68,3,11.68l-6.45.31-4.81.24s-1.46-7.08-1-9.44C694.81,589.21,699.37,582.06,699.37,582.06Z"/><path class="cls-7" d="M711,578s2.77,4.74,4.24,7.06,3,11.68,3,11.68l-6.46.32-4.81.24s-1.46-7.09-1-9.45C706.47,585.14,711,578,711,578Z"/><path class="cls-7" d="M724.21,570.46s3.71,6.35,5.68,9.47,4,15.65,4,15.65l-8.65.42-6.45.32s-1.95-9.49-1.36-12.66C718.1,580,724.21,570.46,724.21,570.46Z"/><path class="cls-7" d="M737.83,579.15s2.77,4.73,4.24,7.06,3,11.68,3,11.68l-6.45.32-4.82.24s-1.45-7.09-1-9.45C733.27,586.3,737.83,579.15,737.83,579.15Z"/><path class="cls-7" d="M748.54,578.34s2.77,4.73,4.24,7.06,3,11.68,3,11.68l-6.46.32-4.81.24s-1.46-7.09-1-9.45C744,585.49,748.54,578.34,748.54,578.34Z"/><path class="cls-7" d="M759.09,580.73s2.77,4.73,4.24,7.06,3,11.68,3,11.68l-6.46.32L755,600s-1.46-7.09-1-9.45C754.52,587.88,759.09,580.73,759.09,580.73Z"/><path class="cls-7" d="M770.74,576.65s2.77,4.74,4.24,7.07,3,11.68,3,11.68l-6.46.31-4.81.25s-1.46-7.09-1-9.45C766.18,583.8,770.74,576.65,770.74,576.65Z"/><path class="cls-7" d="M783.92,569.13s3.71,6.35,5.68,9.46,4,15.65,4,15.65l-8.65.42-6.45.33s-2-9.49-1.35-12.66C777.81,578.71,783.92,569.13,783.92,569.13Z"/><path class="cls-7" d="M797.54,577.81s2.77,4.74,4.24,7.07,3,11.68,3,11.68l-6.45.31-4.81.25s-1.46-7.09-1-9.45C793,585,797.54,577.81,797.54,577.81Z"/><path class="cls-7" d="M808.25,577s2.77,4.74,4.24,7.07,3,11.68,3,11.68l-6.46.31-4.81.24s-1.46-7.08-1-9.44C803.69,584.15,808.25,577,808.25,577Z"/><path class="cls-7" d="M818.8,579.39s2.77,4.74,4.24,7.07,3,11.68,3,11.68l-6.46.31-4.81.25s-1.46-7.09-1-9.45C814.24,586.54,818.8,579.39,818.8,579.39Z"/><path class="cls-7" d="M830.45,575.32s2.77,4.74,4.24,7.07,3,11.68,3,11.68l-6.46.31-4.81.24s-1.46-7.08-1-9.44C825.89,582.47,830.45,575.32,830.45,575.32Z"/><path class="cls-7" d="M373.5,586.79s3.71,6.35,5.68,9.47,4,15.65,4,15.65l-8.65.42-6.45.32s-1.95-9.49-1.36-12.65C367.39,596.37,373.5,586.79,373.5,586.79Z"/><path class="cls-7" d="M387.12,595.48s2.77,4.74,4.24,7.07,3,11.68,3,11.68l-6.46.31-4.81.24s-1.46-7.08-1-9.44C382.56,602.63,387.12,595.48,387.12,595.48Z"/><path class="cls-7" d="M397.83,594.67s2.77,4.74,4.24,7.07,3,11.68,3,11.68l-6.46.31-4.81.24s-1.46-7.08-1-9.45C393.27,601.82,397.83,594.67,397.83,594.67Z"/><path class="cls-7" d="M408.37,597.06s2.78,4.74,4.25,7.07,3,11.68,3,11.68l-6.45.31-4.81.24s-1.46-7.08-1-9.44C403.81,604.21,408.37,597.06,408.37,597.06Z"/><path class="cls-7" d="M420,593s2.77,4.74,4.24,7.06,3,11.68,3,11.68l-6.46.32-4.81.24s-1.46-7.09-1-9.45C415.47,600.14,420,593,420,593Z"/><path class="cls-7" d="M433.21,585.46s3.71,6.35,5.68,9.47,4,15.65,4,15.65l-8.65.42-6.45.32s-1.95-9.49-1.36-12.66C427.1,595,433.21,585.46,433.21,585.46Z"/><path class="cls-7" d="M446.83,594.15s2.77,4.73,4.24,7.06,3,11.68,3,11.68l-6.45.32-4.82.24s-1.45-7.09-1-9.45C442.27,601.3,446.83,594.15,446.83,594.15Z"/><path class="cls-7" d="M457.54,593.34s2.77,4.73,4.24,7.06,3,11.68,3,11.68l-6.46.32-4.81.24s-1.46-7.09-1-9.45C453,600.49,457.54,593.34,457.54,593.34Z"/><path class="cls-7" d="M468.09,595.73s2.77,4.73,4.24,7.06,3,11.68,3,11.68l-6.46.32L464,615s-1.46-7.09-1-9.45C463.52,602.88,468.09,595.73,468.09,595.73Z"/><path class="cls-7" d="M479.74,591.65s2.77,4.74,4.24,7.07,3,11.68,3,11.68l-6.46.31-4.81.25s-1.46-7.09-1-9.45C475.18,598.8,479.74,591.65,479.74,591.65Z"/><path class="cls-7" d="M492.92,584.13s3.71,6.35,5.68,9.46,4,15.65,4,15.65l-8.65.42-6.45.33s-2-9.49-1.35-12.66C486.81,593.71,492.92,584.13,492.92,584.13Z"/><path class="cls-7" d="M506.54,592.81s2.77,4.74,4.24,7.07,3,11.68,3,11.68l-6.45.31-4.81.25s-1.46-7.09-1-9.45C502,600,506.54,592.81,506.54,592.81Z"/><path class="cls-7" d="M517.25,592s2.77,4.74,4.24,7.07,3,11.68,3,11.68l-6.46.31-4.81.24s-1.46-7.08-1-9.44C512.69,599.15,517.25,592,517.25,592Z"/><path class="cls-7" d="M527.8,594.39s2.77,4.74,4.24,7.07,3,11.68,3,11.68l-6.46.31-4.81.25s-1.46-7.09-1-9.45C523.24,601.54,527.8,594.39,527.8,594.39Z"/><path class="cls-7" d="M539.45,590.32s2.77,4.74,4.24,7.07,3,11.68,3,11.68l-6.46.31-4.81.24s-1.46-7.08-1-9.44C534.89,597.47,539.45,590.32,539.45,590.32Z"/></g></svg>
