<svg xmlns="http://www.w3.org/2000/svg" width="860" height="560" viewBox="0 0 860 560"><defs><style>.cls-1{fill:#b2569e;}.cls-2{fill:#ff94e7;}.cls-3{fill:#fff;}</style></defs><title>Game Over</title><g id="Game_Over" data-name="Game Over"><rect class="cls-1" x="5.72" y="14.89" width="854.18" height="541.11" rx="33"/><rect class="cls-2" x="-2" y="4" width="854.18" height="541.11" rx="33"/><path class="cls-3" d="M117.81,140.51a6.41,6.41,0,0,1-.26,1.92,6.14,6.14,0,0,1,.26,1.92,6.39,6.39,0,0,1-.26,1.91,6.23,6.23,0,0,1,.26,1.92,6.41,6.41,0,0,1-.26,1.92H115a6.17,6.17,0,0,1,.25,1.92,6.41,6.41,0,0,1-.25,1.91H102a6.39,6.39,0,0,1-.26-1.91,6.14,6.14,0,0,1,.26-1.92H99.41a6.41,6.41,0,0,1-.26-1.92,6.23,6.23,0,0,1,.26-1.92H96.82a6.39,6.39,0,0,1-.26-1.91,6.14,6.14,0,0,1,.26-1.92,6.41,6.41,0,0,1-.26-1.92,6.12,6.12,0,0,1,.26-1.91,6.51,6.51,0,0,1-.26-1.92,6.14,6.14,0,0,1,.26-1.92h2.59a6.41,6.41,0,0,1-.26-1.92,6.12,6.12,0,0,1,.26-1.91H102a6.41,6.41,0,0,1-.26-1.92,6.19,6.19,0,0,1,.26-1.92h13a6.21,6.21,0,0,1,.25,1.92,6.43,6.43,0,0,1-.25,1.92h2.59a6.12,6.12,0,0,1,.26,1.91,6.41,6.41,0,0,1-.26,1.92h-5.19a6.43,6.43,0,0,1-.25-1.92,6.14,6.14,0,0,1,.25-1.91h-7.77a6.12,6.12,0,0,1,.26,1.91,6.41,6.41,0,0,1-.26,1.92H102a6.14,6.14,0,0,1,.26,1.92,6.51,6.51,0,0,1-.26,1.92,6.12,6.12,0,0,1,.26,1.91,6.41,6.41,0,0,1-.26,1.92,6.14,6.14,0,0,1,.26,1.92,6.39,6.39,0,0,1-.26,1.91h2.59a6.23,6.23,0,0,1,.26,1.92,6.41,6.41,0,0,1-.26,1.92h7.77a6.43,6.43,0,0,1-.25-1.92,6.26,6.26,0,0,1,.25-1.92,6.41,6.41,0,0,1-.25-1.91,6.17,6.17,0,0,1,.25-1.92h-3.88a6.41,6.41,0,0,1-.26-1.92,6.12,6.12,0,0,1,.26-1.91h9.07A6.12,6.12,0,0,1,117.81,140.51Z"/><path class="cls-3" d="M143.71,152a6.41,6.41,0,0,1-.25,1.91h-5.19A6.39,6.39,0,0,1,138,152a6.14,6.14,0,0,1,.26-1.92h-2.59a6.41,6.41,0,0,1-.26-1.92,6.23,6.23,0,0,1,.26-1.92h-7.77a6.23,6.23,0,0,1,.26,1.92,6.41,6.41,0,0,1-.26,1.92h7.77a6.14,6.14,0,0,1,.26,1.92,6.39,6.39,0,0,1-.26,1.91H125.32a6.39,6.39,0,0,1-.26-1.91,6.14,6.14,0,0,1,.26-1.92h-2.59a6.11,6.11,0,0,1-.26-1.92,5.94,5.94,0,0,1,.26-1.92h2.59a6.39,6.39,0,0,1-.26-1.91,6.14,6.14,0,0,1,.26-1.92h10.36a6.41,6.41,0,0,1-.26-1.92,6.12,6.12,0,0,1,.26-1.91h-9.07a6.51,6.51,0,0,1-.26-1.92,6.14,6.14,0,0,1,.26-1.92h11.66a5.86,5.86,0,0,1,.26,1.92,6.19,6.19,0,0,1-.26,1.92h2.59a5.84,5.84,0,0,1,.26,1.91,6.11,6.11,0,0,1-.26,1.92,5.86,5.86,0,0,1,.26,1.92,6.09,6.09,0,0,1-.26,1.91,5.94,5.94,0,0,1,.26,1.92,6.11,6.11,0,0,1-.26,1.92h2.6A6.17,6.17,0,0,1,143.71,152Z"/><path class="cls-3" d="M151.87,138.6h1.95a6.12,6.12,0,0,1,.26,1.91,6.41,6.41,0,0,1-.26,1.92,6.14,6.14,0,0,1,.26,1.92,6.39,6.39,0,0,1-.26,1.91,6.23,6.23,0,0,1,.26,1.92,6.41,6.41,0,0,1-.26,1.92,6.14,6.14,0,0,1,.26,1.92,6.39,6.39,0,0,1-.26,1.91h-5.18a6.09,6.09,0,0,1-.26-1.91,5.86,5.86,0,0,1,.26-1.92,6.11,6.11,0,0,1-.26-1.92,5.94,5.94,0,0,1,.26-1.92,6.09,6.09,0,0,1-.26-1.91,5.86,5.86,0,0,1,.26-1.92,6.11,6.11,0,0,1-.26-1.92,5.84,5.84,0,0,1,.26-1.91,6.19,6.19,0,0,1-.26-1.92,5.86,5.86,0,0,1,.26-1.92h3.23a5.86,5.86,0,0,1,.26,1.92A6.19,6.19,0,0,1,151.87,138.6Zm7.13,0h1.94a6.12,6.12,0,0,1,.26,1.91,6.41,6.41,0,0,1-.26,1.92,6.14,6.14,0,0,1,.26,1.92,6.39,6.39,0,0,1-.26,1.91,6.23,6.23,0,0,1,.26,1.92,6.41,6.41,0,0,1-.26,1.92,6.14,6.14,0,0,1,.26,1.92,6.39,6.39,0,0,1-.26,1.91h-3.88a6.09,6.09,0,0,1-.26-1.91,5.86,5.86,0,0,1,.26-1.92,6.11,6.11,0,0,1-.26-1.92,5.94,5.94,0,0,1,.26-1.92,6.09,6.09,0,0,1-.26-1.91,5.86,5.86,0,0,1,.26-1.92,6.11,6.11,0,0,1-.26-1.92,5.84,5.84,0,0,1,.26-1.91h-3.24a6.19,6.19,0,0,1-.26-1.92,5.86,5.86,0,0,1,.26-1.92H159a6.14,6.14,0,0,1,.26,1.92A6.51,6.51,0,0,1,159,138.6Zm10.62,5.75a6.09,6.09,0,0,1-.26,1.91,5.94,5.94,0,0,1,.26,1.92,6.11,6.11,0,0,1-.26,1.92,5.86,5.86,0,0,1,.26,1.92,6.09,6.09,0,0,1-.26,1.91h-5.18a6.39,6.39,0,0,1-.26-1.91,6.14,6.14,0,0,1,.26-1.92,6.41,6.41,0,0,1-.26-1.92,6.23,6.23,0,0,1,.26-1.92,6.39,6.39,0,0,1-.26-1.91,6.14,6.14,0,0,1,.26-1.92,6.41,6.41,0,0,1-.26-1.92,6.12,6.12,0,0,1,.26-1.91h-3.24a6.51,6.51,0,0,1-.26-1.92,6.14,6.14,0,0,1,.26-1.92h5.83a6.14,6.14,0,0,1,.26,1.92,6.51,6.51,0,0,1-.26,1.92h2.59a5.84,5.84,0,0,1,.26,1.91,6.11,6.11,0,0,1-.26,1.92A5.86,5.86,0,0,1,169.62,144.35Z"/><path class="cls-3" d="M195.27,142.43a6.14,6.14,0,0,1,.26,1.92,6.39,6.39,0,0,1-.26,1.91h-13.6a6.23,6.23,0,0,1,.26,1.92,6.41,6.41,0,0,1-.26,1.92h11a6.14,6.14,0,0,1,.26,1.92,6.39,6.39,0,0,1-.26,1.91h-13a6.09,6.09,0,0,1-.26-1.91,5.86,5.86,0,0,1,.26-1.92h-3.24a6.41,6.41,0,0,1-.26-1.92,6.23,6.23,0,0,1,.26-1.92h-1.94a6.09,6.09,0,0,1-.26-1.91,5.86,5.86,0,0,1,.26-1.92h1.94a6.41,6.41,0,0,1-.26-1.92,6.12,6.12,0,0,1,.26-1.91h3.24a6.19,6.19,0,0,1-.26-1.92,5.86,5.86,0,0,1,.26-1.92h13a6.14,6.14,0,0,1,.26,1.92,6.51,6.51,0,0,1-.26,1.92h2.59a6.12,6.12,0,0,1,.26,1.91A6.41,6.41,0,0,1,195.27,142.43Zm-5.44-1.92a6.12,6.12,0,0,1,.26-1.91h-8.42a6.12,6.12,0,0,1,.26,1.91,6.41,6.41,0,0,1-.26,1.92h8.42A6.41,6.41,0,0,1,189.83,140.51Z"/><path class="cls-3" d="M247.09,146.26h-1.94a6.23,6.23,0,0,1,.26,1.92,6.41,6.41,0,0,1-.26,1.92h-3.24a6.14,6.14,0,0,1,.26,1.92,6.39,6.39,0,0,1-.26,1.91H231.54a6.39,6.39,0,0,1-.26-1.91,6.14,6.14,0,0,1,.26-1.92h-3.23a6.11,6.11,0,0,1-.26-1.92,5.94,5.94,0,0,1,.26-1.92h-1.95a6.39,6.39,0,0,1-.26-1.91,6.14,6.14,0,0,1,.26-1.92h1.95a6.11,6.11,0,0,1-.26-1.92,5.84,5.84,0,0,1,.26-1.91h3.23a6.51,6.51,0,0,1-.26-1.92,6.14,6.14,0,0,1,.26-1.92h10.37a6.14,6.14,0,0,1,.26,1.92,6.51,6.51,0,0,1-.26,1.92h3.24a6.12,6.12,0,0,1,.26,1.91,6.41,6.41,0,0,1-.26,1.92h1.94a6.14,6.14,0,0,1,.26,1.92A6.39,6.39,0,0,1,247.09,146.26Zm-5.18,0a6.09,6.09,0,0,1-.26-1.91,5.86,5.86,0,0,1,.26-1.92H240a6.43,6.43,0,0,1-.25-1.92,6.14,6.14,0,0,1,.25-1.91h-6.47a6.12,6.12,0,0,1,.26,1.91,6.41,6.41,0,0,1-.26,1.92h-2a5.86,5.86,0,0,1,.26,1.92,6.09,6.09,0,0,1-.26,1.91h2a6.23,6.23,0,0,1,.26,1.92,6.41,6.41,0,0,1-.26,1.92H240a6.43,6.43,0,0,1-.25-1.92,6.26,6.26,0,0,1,.25-1.92Z"/><path class="cls-3" d="M273,138.6h-1.94a6.14,6.14,0,0,1,.25,1.91,6.43,6.43,0,0,1-.25,1.92h-1.95a6.14,6.14,0,0,1,.26,1.92,6.39,6.39,0,0,1-.26,1.91h-1.29a6.23,6.23,0,0,1,.26,1.92,6.41,6.41,0,0,1-.26,1.92h-2.59a6.17,6.17,0,0,1,.25,1.92,6.41,6.41,0,0,1-.25,1.91H260a6.39,6.39,0,0,1-.26-1.91,6.14,6.14,0,0,1,.26-1.92h-2.59a6.41,6.41,0,0,1-.26-1.92,6.23,6.23,0,0,1,.26-1.92h-1.29a6.09,6.09,0,0,1-.26-1.91,5.86,5.86,0,0,1,.26-1.92h-2a6.43,6.43,0,0,1-.25-1.92,6.14,6.14,0,0,1,.25-1.91h-1.94a6.51,6.51,0,0,1-.26-1.92,6.14,6.14,0,0,1,.26-1.92h5.18a6.14,6.14,0,0,1,.26,1.92,6.51,6.51,0,0,1-.26,1.92h1.95a6.14,6.14,0,0,1,.25,1.91,6.43,6.43,0,0,1-.25,1.92h1.94a6.14,6.14,0,0,1,.26,1.92,6.39,6.39,0,0,1-.26,1.91h2.59a6.39,6.39,0,0,1-.26-1.91,6.14,6.14,0,0,1,.26-1.92h1.94a6.41,6.41,0,0,1-.26-1.92,6.12,6.12,0,0,1,.26-1.91h1.95a6.19,6.19,0,0,1-.26-1.92,5.86,5.86,0,0,1,.26-1.92H273a6.14,6.14,0,0,1,.26,1.92A6.51,6.51,0,0,1,273,138.6Z"/><path class="cls-3" d="M298.91,142.43a6.14,6.14,0,0,1,.26,1.92,6.39,6.39,0,0,1-.26,1.91h-13.6a6.26,6.26,0,0,1,.25,1.92,6.43,6.43,0,0,1-.25,1.92h11a6.14,6.14,0,0,1,.26,1.92,6.39,6.39,0,0,1-.26,1.91h-13a6.39,6.39,0,0,1-.26-1.91,6.14,6.14,0,0,1,.26-1.92h-3.24a6.41,6.41,0,0,1-.26-1.92,6.23,6.23,0,0,1,.26-1.92h-1.94a6.39,6.39,0,0,1-.26-1.91,6.14,6.14,0,0,1,.26-1.92h1.94a6.41,6.41,0,0,1-.26-1.92,6.12,6.12,0,0,1,.26-1.91h3.24a6.51,6.51,0,0,1-.26-1.92,6.14,6.14,0,0,1,.26-1.92h13a6.14,6.14,0,0,1,.26,1.92,6.51,6.51,0,0,1-.26,1.92h2.59a6.12,6.12,0,0,1,.26,1.91A6.41,6.41,0,0,1,298.91,142.43Zm-5.44-1.92a5.84,5.84,0,0,1,.26-1.91h-8.42a6.14,6.14,0,0,1,.25,1.91,6.43,6.43,0,0,1-.25,1.92h8.42A6.11,6.11,0,0,1,293.47,140.51Z"/><path class="cls-3" d="M325.07,140.51a6.43,6.43,0,0,1-.25,1.92h-5.19a6.41,6.41,0,0,1-.26-1.92,6.12,6.12,0,0,1,.26-1.91H315.1a6.12,6.12,0,0,1,.26,1.91,6.41,6.41,0,0,1-.26,1.92h-1.94a6.14,6.14,0,0,1,.26,1.92,6.39,6.39,0,0,1-.26,1.91,6.23,6.23,0,0,1,.26,1.92,6.41,6.41,0,0,1-.26,1.92H317a6.14,6.14,0,0,1,.26,1.92,6.39,6.39,0,0,1-.26,1.91h-13a6.39,6.39,0,0,1-.26-1.91,6.14,6.14,0,0,1,.26-1.92H308a6.43,6.43,0,0,1-.25-1.92,6.26,6.26,0,0,1,.25-1.92,6.41,6.41,0,0,1-.25-1.91,6.17,6.17,0,0,1,.25-1.92,6.43,6.43,0,0,1-.25-1.92,6.14,6.14,0,0,1,.25-1.91h-3.88a6.51,6.51,0,0,1-.26-1.92,6.14,6.14,0,0,1,.26-1.92h6.48a6.17,6.17,0,0,1,.25,1.92,6.53,6.53,0,0,1-.25,1.92h2.59a6.19,6.19,0,0,1-.26-1.92,5.86,5.86,0,0,1,.26-1.92h9.71a6.14,6.14,0,0,1,.26,1.92,6.51,6.51,0,0,1-.26,1.92h1.95A6.14,6.14,0,0,1,325.07,140.51Z"/><path class="cls-3" d="M343.21,132.84a6.41,6.41,0,0,1-.26,1.92,6.14,6.14,0,0,1,.26,1.92,6.51,6.51,0,0,1-.26,1.92,6.12,6.12,0,0,1,.26,1.91,6.41,6.41,0,0,1-.26,1.92,6.14,6.14,0,0,1,.26,1.92,6.39,6.39,0,0,1-.26,1.91h-5.18a6.39,6.39,0,0,1-.26-1.91,6.14,6.14,0,0,1,.26-1.92,6.41,6.41,0,0,1-.26-1.92,6.12,6.12,0,0,1,.26-1.91,6.51,6.51,0,0,1-.26-1.92,6.14,6.14,0,0,1,.26-1.92,6.41,6.41,0,0,1-.26-1.92,6.12,6.12,0,0,1,.26-1.91,6.41,6.41,0,0,1-.26-1.92,6.19,6.19,0,0,1,.26-1.92H343a6.19,6.19,0,0,1,.26,1.92,6.41,6.41,0,0,1-.26,1.92A6.12,6.12,0,0,1,343.21,132.84ZM343,150.1a6.14,6.14,0,0,1,.26,1.92,6.39,6.39,0,0,1-.26,1.91h-5.18a6.39,6.39,0,0,1-.26-1.91,6.14,6.14,0,0,1,.26-1.92Z"/><path class="cls-3" d="M402.8,140.51a6.41,6.41,0,0,1-.26,1.92,6.14,6.14,0,0,1,.26,1.92,6.39,6.39,0,0,1-.26,1.91H400a6.23,6.23,0,0,1,.26,1.92,6.41,6.41,0,0,1-.26,1.92h-2.59a6.14,6.14,0,0,1,.26,1.92,6.39,6.39,0,0,1-.26,1.91H381.81a6.41,6.41,0,0,1-.25-1.91,6.17,6.17,0,0,1,.25-1.92,6.43,6.43,0,0,1-.25-1.92,6.26,6.26,0,0,1,.25-1.92,6.41,6.41,0,0,1-.25-1.91,6.17,6.17,0,0,1,.25-1.92,6.43,6.43,0,0,1-.25-1.92,6.14,6.14,0,0,1,.25-1.91,6.53,6.53,0,0,1-.25-1.92,6.17,6.17,0,0,1,.25-1.92,6.43,6.43,0,0,1-.25-1.92,6.14,6.14,0,0,1,.25-1.91,6.43,6.43,0,0,1-.25-1.92,6.21,6.21,0,0,1,.25-1.92h15.55a6.19,6.19,0,0,1,.26,1.92,6.41,6.41,0,0,1-.26,1.92H400a6.12,6.12,0,0,1,.26,1.91,6.41,6.41,0,0,1-.26,1.92h2.59a6.14,6.14,0,0,1,.26,1.92,6.51,6.51,0,0,1-.26,1.92A6.12,6.12,0,0,1,402.8,140.51Zm-5.7,3.84a6.14,6.14,0,0,1,.26-1.92,6.41,6.41,0,0,1-.26-1.92,6.12,6.12,0,0,1,.26-1.91,6.51,6.51,0,0,1-.26-1.92,6.14,6.14,0,0,1,.26-1.92h-2.59a6.41,6.41,0,0,1-.26-1.92,6.12,6.12,0,0,1,.26-1.91H387a6.12,6.12,0,0,1,.26,1.91,6.41,6.41,0,0,1-.26,1.92,6.14,6.14,0,0,1,.26,1.92,6.51,6.51,0,0,1-.26,1.92,6.12,6.12,0,0,1,.26,1.91,6.41,6.41,0,0,1-.26,1.92,6.14,6.14,0,0,1,.26,1.92,6.39,6.39,0,0,1-.26,1.91,6.23,6.23,0,0,1,.26,1.92,6.41,6.41,0,0,1-.26,1.92h7.77a6.41,6.41,0,0,1-.26-1.92,6.23,6.23,0,0,1,.26-1.92h2.59A6.39,6.39,0,0,1,397.1,144.35Z"/><path class="cls-3" d="M414.85,150.1h6.48a6.17,6.17,0,0,1,.25,1.92,6.41,6.41,0,0,1-.25,1.91H411a6.39,6.39,0,0,1-.26-1.91,6.14,6.14,0,0,1,.26-1.92h-3.24a6.41,6.41,0,0,1-.26-1.92,6.23,6.23,0,0,1,.26-1.92,6.39,6.39,0,0,1-.26-1.91,6.14,6.14,0,0,1,.26-1.92,6.41,6.41,0,0,1-.26-1.92,6.12,6.12,0,0,1,.26-1.91,6.51,6.51,0,0,1-.26-1.92,6.14,6.14,0,0,1,.26-1.92h5.18a5.86,5.86,0,0,1,.26,1.92,6.19,6.19,0,0,1-.26,1.92,5.84,5.84,0,0,1,.26,1.91,6.11,6.11,0,0,1-.26,1.92,5.86,5.86,0,0,1,.26,1.92,6.09,6.09,0,0,1-.26,1.91h2a6.23,6.23,0,0,1,.26,1.92A6.41,6.41,0,0,1,414.85,150.1Zm13.86-9.59a6.41,6.41,0,0,1-.26,1.92,6.14,6.14,0,0,1,.26,1.92,6.39,6.39,0,0,1-.26,1.91,6.23,6.23,0,0,1,.26,1.92,6.41,6.41,0,0,1-.26,1.92,6.14,6.14,0,0,1,.26,1.92,6.39,6.39,0,0,1-.26,1.91h-5.18A6.39,6.39,0,0,1,423,152a6.14,6.14,0,0,1,.26-1.92h-1.94a6.11,6.11,0,0,1-.26-1.92,5.94,5.94,0,0,1,.26-1.92h1.94a6.39,6.39,0,0,1-.26-1.91,6.14,6.14,0,0,1,.26-1.92,6.41,6.41,0,0,1-.26-1.92,6.12,6.12,0,0,1,.26-1.91,6.51,6.51,0,0,1-.26-1.92,6.14,6.14,0,0,1,.26-1.92h5.18a6.14,6.14,0,0,1,.26,1.92,6.51,6.51,0,0,1-.26,1.92A6.12,6.12,0,0,1,428.71,140.51Z"/><path class="cls-3" d="M464.72,138.6h1.95a6.14,6.14,0,0,1,.25,1.91,6.43,6.43,0,0,1-.25,1.92h-1.95a6.14,6.14,0,0,1,.26,1.92,6.39,6.39,0,0,1-.26,1.91,6.23,6.23,0,0,1,.26,1.92,6.41,6.41,0,0,1-.26,1.92A6.14,6.14,0,0,1,465,152a6.39,6.39,0,0,1-.26,1.91h-5.18a6.39,6.39,0,0,1-.26-1.91,6.14,6.14,0,0,1,.26-1.92,6.41,6.41,0,0,1-.26-1.92,6.23,6.23,0,0,1,.26-1.92,6.39,6.39,0,0,1-.26-1.91,6.14,6.14,0,0,1,.26-1.92,6.41,6.41,0,0,1-.26-1.92,6.12,6.12,0,0,1,.26-1.91,6.51,6.51,0,0,1-.26-1.92,6.14,6.14,0,0,1,.26-1.92,6.41,6.41,0,0,1-.26-1.92,6.12,6.12,0,0,1,.26-1.91,6.41,6.41,0,0,1-.26-1.92,6.19,6.19,0,0,1,.26-1.92h5.18A6.19,6.19,0,0,1,465,129a6.41,6.41,0,0,1-.26,1.92,6.12,6.12,0,0,1,.26,1.91,6.41,6.41,0,0,1-.26,1.92,6.14,6.14,0,0,1,.26,1.92A6.51,6.51,0,0,1,464.72,138.6Zm15.81,5.75a6.39,6.39,0,0,1-.26,1.91,6.23,6.23,0,0,1,.26,1.92,6.41,6.41,0,0,1-.26,1.92,6.14,6.14,0,0,1,.26,1.92,6.39,6.39,0,0,1-.26,1.91h-5.18a6.09,6.09,0,0,1-.26-1.91,5.86,5.86,0,0,1,.26-1.92,6.11,6.11,0,0,1-.26-1.92,5.94,5.94,0,0,1,.26-1.92,6.09,6.09,0,0,1-.26-1.91,5.86,5.86,0,0,1,.26-1.92,6.11,6.11,0,0,1-.26-1.92,5.84,5.84,0,0,1,.26-1.91h-8.42a6.19,6.19,0,0,1-.26-1.92,5.86,5.86,0,0,1,.26-1.92H477a6.14,6.14,0,0,1,.26,1.92,6.51,6.51,0,0,1-.26,1.92h3.24a6.12,6.12,0,0,1,.26,1.91,6.41,6.41,0,0,1-.26,1.92A6.14,6.14,0,0,1,480.53,144.35Z"/><path class="cls-3" d="M506.44,152a6.39,6.39,0,0,1-.26,1.91H501a6.41,6.41,0,0,1-.25-1.91,6.17,6.17,0,0,1,.25-1.92H498.4a6.41,6.41,0,0,1-.26-1.92,6.23,6.23,0,0,1,.26-1.92h-7.77a6.23,6.23,0,0,1,.26,1.92,6.41,6.41,0,0,1-.26,1.92h7.77a5.86,5.86,0,0,1,.26,1.92,6.09,6.09,0,0,1-.26,1.91H488a6.39,6.39,0,0,1-.26-1.91,6.14,6.14,0,0,1,.26-1.92h-2.59a6.41,6.41,0,0,1-.26-1.92,6.23,6.23,0,0,1,.26-1.92H488a6.39,6.39,0,0,1-.26-1.91,6.14,6.14,0,0,1,.26-1.92H498.4a6.41,6.41,0,0,1-.26-1.92,6.12,6.12,0,0,1,.26-1.91h-9.06a6.19,6.19,0,0,1-.26-1.92,5.86,5.86,0,0,1,.26-1.92H501a5.86,5.86,0,0,1,.26,1.92,6.19,6.19,0,0,1-.26,1.92h2.6a6.14,6.14,0,0,1,.25,1.91,6.43,6.43,0,0,1-.25,1.92,6.17,6.17,0,0,1,.25,1.92,6.41,6.41,0,0,1-.25,1.91,6.26,6.26,0,0,1,.25,1.92,6.43,6.43,0,0,1-.25,1.92h2.59A6.14,6.14,0,0,1,506.44,152Z"/><path class="cls-3" d="M532.34,140.51a6.43,6.43,0,0,1-.25,1.92H526.9a6.41,6.41,0,0,1-.26-1.92,6.12,6.12,0,0,1,.26-1.91h-4.53a6.12,6.12,0,0,1,.26,1.91,6.41,6.41,0,0,1-.26,1.92h-1.94a6.17,6.17,0,0,1,.25,1.92,6.41,6.41,0,0,1-.25,1.91,6.26,6.26,0,0,1,.25,1.92,6.43,6.43,0,0,1-.25,1.92h3.88a6.14,6.14,0,0,1,.26,1.92,6.39,6.39,0,0,1-.26,1.91H511.36a6.09,6.09,0,0,1-.26-1.91,5.86,5.86,0,0,1,.26-1.92h3.88a6.41,6.41,0,0,1-.26-1.92,6.23,6.23,0,0,1,.26-1.92,6.39,6.39,0,0,1-.26-1.91,6.14,6.14,0,0,1,.26-1.92,6.41,6.41,0,0,1-.26-1.92,6.12,6.12,0,0,1,.26-1.91h-3.88a6.19,6.19,0,0,1-.26-1.92,5.86,5.86,0,0,1,.26-1.92h6.47a5.86,5.86,0,0,1,.26,1.92,6.19,6.19,0,0,1-.26,1.92h2.6a6.19,6.19,0,0,1-.26-1.92,5.86,5.86,0,0,1,.26-1.92h9.71a6.14,6.14,0,0,1,.26,1.92,6.51,6.51,0,0,1-.26,1.92h2A6.14,6.14,0,0,1,532.34,140.51Z"/><path class="cls-3" d="M568.62,148.18a6.41,6.41,0,0,1-.26,1.92h-2.59A6.14,6.14,0,0,1,566,152a6.39,6.39,0,0,1-.26,1.91h-2.59a6.09,6.09,0,0,1-.26-1.91,5.86,5.86,0,0,1,.26-1.92,6.11,6.11,0,0,1-.26-1.92,5.94,5.94,0,0,1,.26-1.92,6.09,6.09,0,0,1-.26-1.91,5.86,5.86,0,0,1,.26-1.92,6.11,6.11,0,0,1-.26-1.92,5.84,5.84,0,0,1,.26-1.91,6.19,6.19,0,0,1-.26-1.92,5.86,5.86,0,0,1,.26-1.92,6.11,6.11,0,0,1-.26-1.92,5.84,5.84,0,0,1,.26-1.91,6.11,6.11,0,0,1-.26-1.92,5.9,5.9,0,0,1,.26-1.92h5.18a6.19,6.19,0,0,1,.26,1.92,6.41,6.41,0,0,1-.26,1.92,6.12,6.12,0,0,1,.26,1.91,6.41,6.41,0,0,1-.26,1.92,6.14,6.14,0,0,1,.26,1.92,6.51,6.51,0,0,1-.26,1.92H571a6.12,6.12,0,0,1,.26,1.91,6.41,6.41,0,0,1-.26,1.92h-2.59a6.14,6.14,0,0,1,.26,1.92,6.39,6.39,0,0,1-.26,1.91A6.23,6.23,0,0,1,568.62,148.18Zm-.26,1.92h7.77a6.14,6.14,0,0,1,.26,1.92,6.39,6.39,0,0,1-.26,1.91h-7.77a6.09,6.09,0,0,1-.26-1.91A5.86,5.86,0,0,1,568.36,150.1Zm15.54-3.84h-2.59a6.23,6.23,0,0,1,.26,1.92,6.41,6.41,0,0,1-.26,1.92h-5.18a6.41,6.41,0,0,1-.26-1.92,6.23,6.23,0,0,1,.26-1.92h2.59a6.39,6.39,0,0,1-.26-1.91,6.14,6.14,0,0,1,.26-1.92h-2.59a6.41,6.41,0,0,1-.26-1.92,6.12,6.12,0,0,1,.26-1.91H571a6.19,6.19,0,0,1-.26-1.92,5.86,5.86,0,0,1,.26-1.92h7.77a6.14,6.14,0,0,1,.26,1.92,6.51,6.51,0,0,1-.26,1.92h2.59a6.12,6.12,0,0,1,.26,1.91,6.41,6.41,0,0,1-.26,1.92h2.59a6.14,6.14,0,0,1,.26,1.92A6.39,6.39,0,0,1,583.9,146.26Z"/><path class="cls-3" d="M610.07,140.51a6.41,6.41,0,0,1-.26,1.92h-5.18a6.41,6.41,0,0,1-.26-1.92,6.12,6.12,0,0,1,.26-1.91H600.1a6.14,6.14,0,0,1,.25,1.91,6.43,6.43,0,0,1-.25,1.92h-2a6.14,6.14,0,0,1,.26,1.92,6.39,6.39,0,0,1-.26,1.91,6.23,6.23,0,0,1,.26,1.92,6.41,6.41,0,0,1-.26,1.92H602a6.14,6.14,0,0,1,.26,1.92,6.39,6.39,0,0,1-.26,1.91h-13a6.39,6.39,0,0,1-.26-1.91,6.14,6.14,0,0,1,.26-1.92H593a6.41,6.41,0,0,1-.26-1.92,6.23,6.23,0,0,1,.26-1.92,6.39,6.39,0,0,1-.26-1.91,6.14,6.14,0,0,1,.26-1.92,6.41,6.41,0,0,1-.26-1.92,6.12,6.12,0,0,1,.26-1.91h-3.89a6.51,6.51,0,0,1-.26-1.92,6.14,6.14,0,0,1,.26-1.92h6.48a6.14,6.14,0,0,1,.26,1.92,6.51,6.51,0,0,1-.26,1.92h2.59a6.51,6.51,0,0,1-.26-1.92,6.14,6.14,0,0,1,.26-1.92h9.72a6.14,6.14,0,0,1,.26,1.92,6.51,6.51,0,0,1-.26,1.92h1.94A6.12,6.12,0,0,1,610.07,140.51Z"/><path class="cls-3" d="M622.12,150.1h6.47a5.86,5.86,0,0,1,.26,1.92,6.09,6.09,0,0,1-.26,1.91H618.23A6.39,6.39,0,0,1,618,152a6.14,6.14,0,0,1,.26-1.92H615a6.41,6.41,0,0,1-.26-1.92,6.23,6.23,0,0,1,.26-1.92,6.39,6.39,0,0,1-.26-1.91,6.14,6.14,0,0,1,.26-1.92,6.41,6.41,0,0,1-.26-1.92,6.12,6.12,0,0,1,.26-1.91,6.51,6.51,0,0,1-.26-1.92,6.14,6.14,0,0,1,.26-1.92h5.18a5.86,5.86,0,0,1,.26,1.92,6.19,6.19,0,0,1-.26,1.92,5.84,5.84,0,0,1,.26,1.91,6.11,6.11,0,0,1-.26,1.92,5.86,5.86,0,0,1,.26,1.92,6.09,6.09,0,0,1-.26,1.91h2a6.23,6.23,0,0,1,.26,1.92A6.41,6.41,0,0,1,622.12,150.1ZM636,140.51a6.41,6.41,0,0,1-.26,1.92,6.14,6.14,0,0,1,.26,1.92,6.39,6.39,0,0,1-.26,1.91,6.23,6.23,0,0,1,.26,1.92,6.41,6.41,0,0,1-.26,1.92A6.14,6.14,0,0,1,636,152a6.39,6.39,0,0,1-.26,1.91h-5.18a6.09,6.09,0,0,1-.26-1.91,5.86,5.86,0,0,1,.26-1.92h-1.95a6.43,6.43,0,0,1-.25-1.92,6.26,6.26,0,0,1,.25-1.92h1.95a6.09,6.09,0,0,1-.26-1.91,5.86,5.86,0,0,1,.26-1.92,6.11,6.11,0,0,1-.26-1.92,5.84,5.84,0,0,1,.26-1.91,6.19,6.19,0,0,1-.26-1.92,5.86,5.86,0,0,1,.26-1.92h5.18a6.14,6.14,0,0,1,.26,1.92,6.51,6.51,0,0,1-.26,1.92A6.12,6.12,0,0,1,636,140.51Z"/><path class="cls-3" d="M661.89,140.51a6.41,6.41,0,0,1-.26,1.92,6.14,6.14,0,0,1,.26,1.92,6.39,6.39,0,0,1-.26,1.91,6.23,6.23,0,0,1,.26,1.92,6.41,6.41,0,0,1-.26,1.92,6.14,6.14,0,0,1,.26,1.92,6.39,6.39,0,0,1-.26,1.91H659a6.14,6.14,0,0,1,.26,1.92,6.46,6.46,0,0,1-.26,1.92h-2.59a6.12,6.12,0,0,1,.26,1.91,6.41,6.41,0,0,1-.26,1.92H646.08a6.41,6.41,0,0,1-.26-1.92,6.12,6.12,0,0,1,.26-1.91h7.78a6.15,6.15,0,0,1-.26-1.92,5.86,5.86,0,0,1,.26-1.92h2.59a6.09,6.09,0,0,1-.26-1.91,5.86,5.86,0,0,1,.26-1.92h-2.59a6.11,6.11,0,0,1-.26-1.92,5.94,5.94,0,0,1,.26-1.92h2.59a6.09,6.09,0,0,1-.26-1.91,5.86,5.86,0,0,1,.26-1.92,6.11,6.11,0,0,1-.26-1.92,5.84,5.84,0,0,1,.26-1.91H648a6.12,6.12,0,0,1,.26,1.91,6.41,6.41,0,0,1-.26,1.92h-1.95a6.14,6.14,0,0,1,.26,1.92,6.39,6.39,0,0,1-.26,1.91H648a6.23,6.23,0,0,1,.26,1.92,6.41,6.41,0,0,1-.26,1.92h5.83a6.17,6.17,0,0,1,.25,1.92,6.41,6.41,0,0,1-.25,1.91h-7.78a6.39,6.39,0,0,1-.26-1.91,6.14,6.14,0,0,1,.26-1.92h-3.24a6.41,6.41,0,0,1-.26-1.92,6.23,6.23,0,0,1,.26-1.92H640.9a6.39,6.39,0,0,1-.26-1.91,6.14,6.14,0,0,1,.26-1.92h1.94a6.41,6.41,0,0,1-.26-1.92,6.12,6.12,0,0,1,.26-1.91h3.24a6.51,6.51,0,0,1-.26-1.92,6.14,6.14,0,0,1,.26-1.92h15.55a6.14,6.14,0,0,1,.26,1.92,6.51,6.51,0,0,1-.26,1.92A6.12,6.12,0,0,1,661.89,140.51Z"/><path class="cls-3" d="M685,150.1a6.14,6.14,0,0,1,.26,1.92,6.39,6.39,0,0,1-.26,1.91H674.58a6.39,6.39,0,0,1-.26-1.91,6.14,6.14,0,0,1,.26-1.92H672a6.41,6.41,0,0,1-.26-1.92,6.23,6.23,0,0,1,.26-1.92,6.39,6.39,0,0,1-.26-1.91,6.14,6.14,0,0,1,.26-1.92,6.41,6.41,0,0,1-.26-1.92,6.12,6.12,0,0,1,.26-1.91h-5.18a6.51,6.51,0,0,1-.26-1.92,6.14,6.14,0,0,1,.26-1.92H672a6.41,6.41,0,0,1-.26-1.92,6.12,6.12,0,0,1,.26-1.91,6.41,6.41,0,0,1-.26-1.92,6.19,6.19,0,0,1,.26-1.92h5.18a6.19,6.19,0,0,1,.26,1.92,6.41,6.41,0,0,1-.26,1.92,6.12,6.12,0,0,1,.26,1.91,6.41,6.41,0,0,1-.26,1.92H685a6.14,6.14,0,0,1,.26,1.92,6.51,6.51,0,0,1-.26,1.92h-7.78a6.12,6.12,0,0,1,.26,1.91,6.41,6.41,0,0,1-.26,1.92,6.14,6.14,0,0,1,.26,1.92,6.39,6.39,0,0,1-.26,1.91,6.23,6.23,0,0,1,.26,1.92,6.41,6.41,0,0,1-.26,1.92Z"/><path class="cls-3" d="M116.25,207.61h-2.59a6.14,6.14,0,0,1,.26,1.92,6.51,6.51,0,0,1-.26,1.92H99.41a6.51,6.51,0,0,1-.26-1.92,6.14,6.14,0,0,1,.26-1.92h11.66a6.39,6.39,0,0,1-.26-1.91,6.14,6.14,0,0,1,.26-1.92H100.71a6.11,6.11,0,0,1-.26-1.92,5.9,5.9,0,0,1,.26-1.92h-2.6a6.41,6.41,0,0,1-.25-1.91,6.17,6.17,0,0,1,.25-1.92h2.6a6.11,6.11,0,0,1-.26-1.92,5.84,5.84,0,0,1,.26-1.91H115a6.14,6.14,0,0,1,.25,1.91,6.43,6.43,0,0,1-.25,1.92H103.3a6.14,6.14,0,0,1,.26,1.92,6.39,6.39,0,0,1-.26,1.91h10.36a6.19,6.19,0,0,1,.26,1.92,6.41,6.41,0,0,1-.26,1.92h2.59a6.14,6.14,0,0,1,.26,1.92A6.39,6.39,0,0,1,116.25,207.61Z"/><path class="cls-3" d="M143.71,209.53a6.53,6.53,0,0,1-.25,1.92h-9.07a6.19,6.19,0,0,1-.26-1.92,5.86,5.86,0,0,1,.26-1.92H131.8a6.09,6.09,0,0,1-.26-1.91,5.86,5.86,0,0,1,.26-1.92h-3.89a6.14,6.14,0,0,1,.26,1.92,6.39,6.39,0,0,1-.26,1.91,6.14,6.14,0,0,1,.26,1.92,6.51,6.51,0,0,1-.26,1.92h-5.18a6.19,6.19,0,0,1-.26-1.92,5.86,5.86,0,0,1,.26-1.92,6.09,6.09,0,0,1-.26-1.91,5.86,5.86,0,0,1,.26-1.92,6.11,6.11,0,0,1-.26-1.92,5.9,5.9,0,0,1,.26-1.92,6.09,6.09,0,0,1-.26-1.91,5.86,5.86,0,0,1,.26-1.92,6.11,6.11,0,0,1-.26-1.92,5.84,5.84,0,0,1,.26-1.91,6.19,6.19,0,0,1-.26-1.92,5.86,5.86,0,0,1,.26-1.92,6.11,6.11,0,0,1-.26-1.92,5.84,5.84,0,0,1,.26-1.91h5.18a6.12,6.12,0,0,1,.26,1.91,6.41,6.41,0,0,1-.26,1.92,6.14,6.14,0,0,1,.26,1.92,6.51,6.51,0,0,1-.26,1.92,6.12,6.12,0,0,1,.26,1.91,6.41,6.41,0,0,1-.26,1.92,6.14,6.14,0,0,1,.26,1.92,6.39,6.39,0,0,1-.26,1.91h3.89a6.09,6.09,0,0,1-.26-1.91,5.86,5.86,0,0,1,.26-1.92h2.59a6.11,6.11,0,0,1-.26-1.92,5.84,5.84,0,0,1,.26-1.91h7.77a6.12,6.12,0,0,1,.26,1.91,6.41,6.41,0,0,1-.26,1.92H137a6.14,6.14,0,0,1,.26,1.92,6.39,6.39,0,0,1-.26,1.91h-2.59a6.19,6.19,0,0,1,.26,1.92,6.41,6.41,0,0,1-.26,1.92H137a6.14,6.14,0,0,1,.26,1.92,6.39,6.39,0,0,1-.26,1.91h6.48A6.17,6.17,0,0,1,143.71,209.53Z"/><path class="cls-3" d="M169.62,209.53a6.19,6.19,0,0,1-.26,1.92h-5.18a6.51,6.51,0,0,1-.26-1.92,6.14,6.14,0,0,1,.26-1.92h-2.59a6.39,6.39,0,0,1-.26-1.91,6.14,6.14,0,0,1,.26-1.92h-7.77a6.14,6.14,0,0,1,.26,1.92,6.39,6.39,0,0,1-.26,1.91h7.77a6.14,6.14,0,0,1,.26,1.92,6.51,6.51,0,0,1-.26,1.92H151.23a6.19,6.19,0,0,1-.26-1.92,5.86,5.86,0,0,1,.26-1.92h-2.59a6.09,6.09,0,0,1-.26-1.91,5.86,5.86,0,0,1,.26-1.92h2.59a6.11,6.11,0,0,1-.26-1.92,5.9,5.9,0,0,1,.26-1.92h10.36a6.39,6.39,0,0,1-.26-1.91,6.14,6.14,0,0,1,.26-1.92h-9.07a6.41,6.41,0,0,1-.26-1.92,6.12,6.12,0,0,1,.26-1.91h11.66a6.12,6.12,0,0,1,.26,1.91,6.41,6.41,0,0,1-.26,1.92h2.59A6.14,6.14,0,0,1,167,198a6.39,6.39,0,0,1-.26,1.91,6.19,6.19,0,0,1,.26,1.92,6.41,6.41,0,0,1-.26,1.92,6.14,6.14,0,0,1,.26,1.92,6.39,6.39,0,0,1-.26,1.91h2.59A5.86,5.86,0,0,1,169.62,209.53Z"/><path class="cls-3" d="M192.68,207.61a6.14,6.14,0,0,1,.26,1.92,6.51,6.51,0,0,1-.26,1.92H182.32a6.19,6.19,0,0,1-.26-1.92,5.86,5.86,0,0,1,.26-1.92h-2.59a6.09,6.09,0,0,1-.26-1.91,5.86,5.86,0,0,1,.26-1.92,6.11,6.11,0,0,1-.26-1.92,5.9,5.9,0,0,1,.26-1.92,6.09,6.09,0,0,1-.26-1.91,5.86,5.86,0,0,1,.26-1.92h-5.18a6.11,6.11,0,0,1-.26-1.92,5.84,5.84,0,0,1,.26-1.91h5.18a6.19,6.19,0,0,1-.26-1.92,5.86,5.86,0,0,1,.26-1.92,6.11,6.11,0,0,1-.26-1.92,5.84,5.84,0,0,1,.26-1.91h5.18a6.12,6.12,0,0,1,.26,1.91,6.41,6.41,0,0,1-.26,1.92,6.14,6.14,0,0,1,.26,1.92,6.51,6.51,0,0,1-.26,1.92h7.77a6.12,6.12,0,0,1,.26,1.91,6.41,6.41,0,0,1-.26,1.92h-7.77a6.14,6.14,0,0,1,.26,1.92,6.39,6.39,0,0,1-.26,1.91,6.19,6.19,0,0,1,.26,1.92,6.41,6.41,0,0,1-.26,1.92,6.14,6.14,0,0,1,.26,1.92,6.39,6.39,0,0,1-.26,1.91Z"/><path class="cls-3" d="M218.59,207.61a6.14,6.14,0,0,1,.26,1.92,6.51,6.51,0,0,1-.26,1.92H208.23a6.19,6.19,0,0,1-.26-1.92,5.86,5.86,0,0,1,.26-1.92h-2.59a6.09,6.09,0,0,1-.26-1.91,5.86,5.86,0,0,1,.26-1.92,6.11,6.11,0,0,1-.26-1.92,5.9,5.9,0,0,1,.26-1.92,6.09,6.09,0,0,1-.26-1.91,5.86,5.86,0,0,1,.26-1.92h-5.19a6.41,6.41,0,0,1-.26-1.92,6.12,6.12,0,0,1,.26-1.91h5.19a6.19,6.19,0,0,1-.26-1.92,5.86,5.86,0,0,1,.26-1.92,6.11,6.11,0,0,1-.26-1.92,5.84,5.84,0,0,1,.26-1.91h5.18a6.12,6.12,0,0,1,.26,1.91,6.41,6.41,0,0,1-.26,1.92,6.14,6.14,0,0,1,.26,1.92,6.51,6.51,0,0,1-.26,1.92h7.77a6.12,6.12,0,0,1,.26,1.91,6.41,6.41,0,0,1-.26,1.92h-7.77a6.14,6.14,0,0,1,.26,1.92,6.39,6.39,0,0,1-.26,1.91,6.19,6.19,0,0,1,.26,1.92,6.41,6.41,0,0,1-.26,1.92,6.14,6.14,0,0,1,.26,1.92,6.39,6.39,0,0,1-.26,1.91Z"/><path class="cls-3" d="M247.09,199.94a6.19,6.19,0,0,1,.26,1.92,6.41,6.41,0,0,1-.26,1.92h-13.6a6.14,6.14,0,0,1,.26,1.92,6.39,6.39,0,0,1-.26,1.91h11a6.14,6.14,0,0,1,.26,1.92,6.51,6.51,0,0,1-.26,1.92h-13a6.51,6.51,0,0,1-.26-1.92,6.14,6.14,0,0,1,.26-1.92h-3.23a6.09,6.09,0,0,1-.26-1.91,5.86,5.86,0,0,1,.26-1.92h-1.95a6.41,6.41,0,0,1-.26-1.92,6.19,6.19,0,0,1,.26-1.92h1.95a6.09,6.09,0,0,1-.26-1.91,5.86,5.86,0,0,1,.26-1.92h3.23a6.41,6.41,0,0,1-.26-1.92,6.12,6.12,0,0,1,.26-1.91h13a6.12,6.12,0,0,1,.26,1.91,6.41,6.41,0,0,1-.26,1.92h2.59a6.14,6.14,0,0,1,.26,1.92A6.39,6.39,0,0,1,247.09,199.94ZM241.65,198a5.86,5.86,0,0,1,.26-1.92h-8.42a6.14,6.14,0,0,1,.26,1.92,6.39,6.39,0,0,1-.26,1.91h8.42A6.09,6.09,0,0,1,241.65,198Z"/><path class="cls-3" d="M273,196.11h-1.94a6.17,6.17,0,0,1,.25,1.92,6.41,6.41,0,0,1-.25,1.91h-1.95a6.19,6.19,0,0,1,.26,1.92,6.41,6.41,0,0,1-.26,1.92h-1.29a6.14,6.14,0,0,1,.26,1.92,6.39,6.39,0,0,1-.26,1.91h-1.95a5.86,5.86,0,0,1,.26,1.92,6.19,6.19,0,0,1-.26,1.92h-1.29a6.12,6.12,0,0,1,.26,1.91,6.41,6.41,0,0,1-.26,1.92H262a6.14,6.14,0,0,1,.26,1.92,6.51,6.51,0,0,1-.26,1.92h-7.78a6.53,6.53,0,0,1-.25-1.92,6.17,6.17,0,0,1,.25-1.92h5.19a6.11,6.11,0,0,1-.26-1.92,5.84,5.84,0,0,1,.26-1.91,6.19,6.19,0,0,1-.26-1.92,5.86,5.86,0,0,1,.26-1.92h-2.59a6.09,6.09,0,0,1-.26-1.91,5.86,5.86,0,0,1,.26-1.92h-1.3a6.41,6.41,0,0,1-.26-1.92,6.19,6.19,0,0,1,.26-1.92h-1.94a6.09,6.09,0,0,1-.26-1.91,5.86,5.86,0,0,1,.26-1.92h-1.95a6.41,6.41,0,0,1-.26-1.92,6.12,6.12,0,0,1,.26-1.91h5.19a6.14,6.14,0,0,1,.25,1.91,6.43,6.43,0,0,1-.25,1.92h1.94A6.14,6.14,0,0,1,259,198a6.39,6.39,0,0,1-.26,1.91h1.94a6.19,6.19,0,0,1,.26,1.92,6.41,6.41,0,0,1-.26,1.92,6.14,6.14,0,0,1,.26,1.92,6.39,6.39,0,0,1-.26,1.91h1.94a6.41,6.41,0,0,1-.25-1.91,6.17,6.17,0,0,1,.25-1.92h1.3a6.41,6.41,0,0,1-.26-1.92,6.19,6.19,0,0,1,.26-1.92h1.94a6.39,6.39,0,0,1-.26-1.91,6.14,6.14,0,0,1,.26-1.92h1.95a6.11,6.11,0,0,1-.26-1.92,5.84,5.84,0,0,1,.26-1.91H273a6.12,6.12,0,0,1,.26,1.91A6.41,6.41,0,0,1,273,196.11Z"/><path class="cls-3" d="M290.49,196.11H284a6.14,6.14,0,0,1,.26,1.92,6.39,6.39,0,0,1-.26,1.91h-1.94a6.19,6.19,0,0,1,.26,1.92,6.41,6.41,0,0,1-.26,1.92H284a6.14,6.14,0,0,1,.26,1.92,6.39,6.39,0,0,1-.26,1.91h6.48a6.14,6.14,0,0,1,.26,1.92,6.51,6.51,0,0,1-.26,1.92h-7.13a6.51,6.51,0,0,1-.26-1.92,6.14,6.14,0,0,1,.26-1.92h-3.24a6.39,6.39,0,0,1-.26-1.91,6.14,6.14,0,0,1,.26-1.92h-1.94a6.41,6.41,0,0,1-.26-1.92,6.19,6.19,0,0,1,.26-1.92h1.94a6.39,6.39,0,0,1-.26-1.91,6.14,6.14,0,0,1,.26-1.92h3.24a6.41,6.41,0,0,1-.26-1.92,6.12,6.12,0,0,1,.26-1.91h7.13a6.12,6.12,0,0,1,.26,1.91A6.41,6.41,0,0,1,290.49,196.11Zm8.68-5.75a6.51,6.51,0,0,1-.26,1.92,6.12,6.12,0,0,1,.26,1.91,6.41,6.41,0,0,1-.26,1.92,6.14,6.14,0,0,1,.26,1.92,6.39,6.39,0,0,1-.26,1.91,6.19,6.19,0,0,1,.26,1.92,6.41,6.41,0,0,1-.26,1.92,6.14,6.14,0,0,1,.26,1.92,6.39,6.39,0,0,1-.26,1.91,6.14,6.14,0,0,1,.26,1.92,6.51,6.51,0,0,1-.26,1.92h-5.18a6.19,6.19,0,0,1-.26-1.92,5.86,5.86,0,0,1,.26-1.92h-2a6.39,6.39,0,0,1-.26-1.91,6.14,6.14,0,0,1,.26-1.92h2a6.11,6.11,0,0,1-.26-1.92,5.9,5.9,0,0,1,.26-1.92h-2a6.39,6.39,0,0,1-.26-1.91,6.14,6.14,0,0,1,.26-1.92h2a6.11,6.11,0,0,1-.26-1.92,5.84,5.84,0,0,1,.26-1.91,6.19,6.19,0,0,1-.26-1.92,5.86,5.86,0,0,1,.26-1.92,6.11,6.11,0,0,1-.26-1.92,5.84,5.84,0,0,1,.26-1.91h5.18a6.12,6.12,0,0,1,.26,1.91,6.41,6.41,0,0,1-.26,1.92A6.14,6.14,0,0,1,299.17,190.36Z"/><path class="cls-3" d="M324.82,199.94a6.21,6.21,0,0,1,.25,1.92,6.43,6.43,0,0,1-.25,1.92H311.21a5.86,5.86,0,0,1,.26,1.92,6.09,6.09,0,0,1-.26,1.91h11a5.86,5.86,0,0,1,.26,1.92,6.19,6.19,0,0,1-.26,1.92h-13a6.51,6.51,0,0,1-.26-1.92,6.14,6.14,0,0,1,.26-1.92H306a6.39,6.39,0,0,1-.26-1.91,6.14,6.14,0,0,1,.26-1.92h-1.94a6.41,6.41,0,0,1-.26-1.92,6.19,6.19,0,0,1,.26-1.92H306a6.39,6.39,0,0,1-.26-1.91,6.14,6.14,0,0,1,.26-1.92h3.24a6.41,6.41,0,0,1-.26-1.92,6.12,6.12,0,0,1,.26-1.91h13a5.84,5.84,0,0,1,.26,1.91,6.11,6.11,0,0,1-.26,1.92h2.6a6.17,6.17,0,0,1,.25,1.92A6.41,6.41,0,0,1,324.82,199.94ZM319.37,198a6.14,6.14,0,0,1,.26-1.92h-8.42a5.86,5.86,0,0,1,.26,1.92,6.09,6.09,0,0,1-.26,1.91h8.42A6.39,6.39,0,0,1,319.37,198Z"/><path class="cls-3" d="M351,198a6.09,6.09,0,0,1-.26,1.91h-5.18a6.39,6.39,0,0,1-.26-1.91,6.14,6.14,0,0,1,.26-1.92H341a6.14,6.14,0,0,1,.26,1.92,6.39,6.39,0,0,1-.26,1.91h-1.94a6.21,6.21,0,0,1,.25,1.92,6.43,6.43,0,0,1-.25,1.92,6.17,6.17,0,0,1,.25,1.92,6.41,6.41,0,0,1-.25,1.91H343a6.14,6.14,0,0,1,.26,1.92,6.51,6.51,0,0,1-.26,1.92H330a6.19,6.19,0,0,1-.26-1.92,5.86,5.86,0,0,1,.26-1.92h3.88a6.39,6.39,0,0,1-.26-1.91,6.14,6.14,0,0,1,.26-1.92,6.41,6.41,0,0,1-.26-1.92,6.19,6.19,0,0,1,.26-1.92,6.39,6.39,0,0,1-.26-1.91,6.14,6.14,0,0,1,.26-1.92H330a6.11,6.11,0,0,1-.26-1.92,5.84,5.84,0,0,1,.26-1.91h6.47a5.84,5.84,0,0,1,.26,1.91,6.11,6.11,0,0,1-.26,1.92h2.6a6.11,6.11,0,0,1-.26-1.92,5.84,5.84,0,0,1,.26-1.91h9.71a6.12,6.12,0,0,1,.26,1.91,6.41,6.41,0,0,1-.26,1.92h1.94A5.86,5.86,0,0,1,351,198Z"/><path class="cls-3" d="M360.44,196.11H363a6.14,6.14,0,0,1,.26,1.92,6.39,6.39,0,0,1-.26,1.91h-1.94a6.19,6.19,0,0,1,.26,1.92,6.41,6.41,0,0,1-.26,1.92,6.14,6.14,0,0,1,.26,1.92,6.39,6.39,0,0,1-.26,1.91,6.14,6.14,0,0,1,.26,1.92,6.51,6.51,0,0,1-.26,1.92h-5.18a6.19,6.19,0,0,1-.26-1.92,5.86,5.86,0,0,1,.26-1.92,6.09,6.09,0,0,1-.26-1.91,5.86,5.86,0,0,1,.26-1.92,6.11,6.11,0,0,1-.26-1.92,5.9,5.9,0,0,1,.26-1.92,6.09,6.09,0,0,1-.26-1.91,5.86,5.86,0,0,1,.26-1.92,6.11,6.11,0,0,1-.26-1.92,5.84,5.84,0,0,1,.26-1.91h4.53a6.12,6.12,0,0,1,.26,1.91A6.41,6.41,0,0,1,360.44,196.11Zm16.45,5.75a6.11,6.11,0,0,1-.26,1.92,5.86,5.86,0,0,1,.26,1.92,6.09,6.09,0,0,1-.26,1.91,5.86,5.86,0,0,1,.26,1.92,6.19,6.19,0,0,1-.26,1.92h-5.18a6.51,6.51,0,0,1-.26-1.92,6.14,6.14,0,0,1,.26-1.92,6.39,6.39,0,0,1-.26-1.91,6.14,6.14,0,0,1,.26-1.92,6.41,6.41,0,0,1-.26-1.92,6.19,6.19,0,0,1,.26-1.92,6.39,6.39,0,0,1-.26-1.91,6.14,6.14,0,0,1,.26-1.92H363a6.41,6.41,0,0,1-.26-1.92,6.12,6.12,0,0,1,.26-1.91h10.36a5.84,5.84,0,0,1,.26,1.91,6.11,6.11,0,0,1-.26,1.92h3.24a5.86,5.86,0,0,1,.26,1.92,6.09,6.09,0,0,1-.26,1.91A5.9,5.9,0,0,1,376.89,201.86Z"/><path class="cls-3" d="M402.54,199.94a6.19,6.19,0,0,1,.26,1.92,6.41,6.41,0,0,1-.26,1.92h-13.6a6.14,6.14,0,0,1,.26,1.92,6.39,6.39,0,0,1-.26,1.91h11a6.14,6.14,0,0,1,.26,1.92,6.51,6.51,0,0,1-.26,1.92H387a6.19,6.19,0,0,1-.26-1.92,5.86,5.86,0,0,1,.26-1.92h-3.24a6.09,6.09,0,0,1-.26-1.91,5.86,5.86,0,0,1,.26-1.92h-1.95a6.43,6.43,0,0,1-.25-1.92,6.21,6.21,0,0,1,.25-1.92h1.95a6.09,6.09,0,0,1-.26-1.91,5.86,5.86,0,0,1,.26-1.92H387a6.11,6.11,0,0,1-.26-1.92,5.84,5.84,0,0,1,.26-1.91H400a6.12,6.12,0,0,1,.26,1.91,6.41,6.41,0,0,1-.26,1.92h2.59a6.14,6.14,0,0,1,.26,1.92A6.39,6.39,0,0,1,402.54,199.94ZM397.1,198a6.14,6.14,0,0,1,.26-1.92h-8.42a6.14,6.14,0,0,1,.26,1.92,6.39,6.39,0,0,1-.26,1.91h8.42A6.39,6.39,0,0,1,397.1,198Z"/><path class="cls-3" d="M427.15,207.61h-2.59a5.86,5.86,0,0,1,.26,1.92,6.19,6.19,0,0,1-.26,1.92H410.31a6.53,6.53,0,0,1-.25-1.92,6.17,6.17,0,0,1,.25-1.92H422a6.39,6.39,0,0,1-.26-1.91,6.14,6.14,0,0,1,.26-1.92H411.61a6.41,6.41,0,0,1-.26-1.92,6.19,6.19,0,0,1,.26-1.92H409a6.39,6.39,0,0,1-.26-1.91,6.14,6.14,0,0,1,.26-1.92h2.59a6.41,6.41,0,0,1-.26-1.92,6.12,6.12,0,0,1,.26-1.91h14.25a6.12,6.12,0,0,1,.26,1.91,6.41,6.41,0,0,1-.26,1.92H414.2a6.14,6.14,0,0,1,.26,1.92,6.39,6.39,0,0,1-.26,1.91h10.36a5.9,5.9,0,0,1,.26,1.92,6.11,6.11,0,0,1-.26,1.92h2.59a5.86,5.86,0,0,1,.26,1.92A6.09,6.09,0,0,1,427.15,207.61Z"/><path class="cls-3" d="M480.27,203.78h-2.59a6.14,6.14,0,0,1,.26,1.92,6.39,6.39,0,0,1-.26,1.91h-2.59a6.17,6.17,0,0,1,.25,1.92,6.53,6.53,0,0,1-.25,1.92H464.72a6.12,6.12,0,0,1,.26,1.91,6.41,6.41,0,0,1-.26,1.92,6.14,6.14,0,0,1,.26,1.92,6.51,6.51,0,0,1-.26,1.92h-5.18a6.51,6.51,0,0,1-.26-1.92,6.14,6.14,0,0,1,.26-1.92,6.41,6.41,0,0,1-.26-1.92,6.12,6.12,0,0,1,.26-1.91,6.51,6.51,0,0,1-.26-1.92,6.14,6.14,0,0,1,.26-1.92,6.39,6.39,0,0,1-.26-1.91,6.14,6.14,0,0,1,.26-1.92,6.41,6.41,0,0,1-.26-1.92,6.19,6.19,0,0,1,.26-1.92,6.39,6.39,0,0,1-.26-1.91,6.14,6.14,0,0,1,.26-1.92,6.41,6.41,0,0,1-.26-1.92,6.12,6.12,0,0,1,.26-1.91h5.18a6.12,6.12,0,0,1,.26,1.91,6.41,6.41,0,0,1-.26,1.92h2.59a5.86,5.86,0,0,1,.26,1.92,6.09,6.09,0,0,1-.26,1.91h-2.59a6.19,6.19,0,0,1,.26,1.92,6.41,6.41,0,0,1-.26,1.92,6.14,6.14,0,0,1,.26,1.92,6.39,6.39,0,0,1-.26,1.91h7.77a6.41,6.41,0,0,1-.25-1.91,6.17,6.17,0,0,1,.25-1.92h2.6a6.11,6.11,0,0,1-.26-1.92,5.9,5.9,0,0,1,.26-1.92h-2.6a6.41,6.41,0,0,1-.25-1.91,6.17,6.17,0,0,1,.25-1.92h-5.18a6.41,6.41,0,0,1-.26-1.92,6.12,6.12,0,0,1,.26-1.91h7.78a6.14,6.14,0,0,1,.25,1.91,6.43,6.43,0,0,1-.25,1.92h2.59a6.14,6.14,0,0,1,.26,1.92,6.39,6.39,0,0,1-.26,1.91h2.59a6.19,6.19,0,0,1,.26,1.92A6.41,6.41,0,0,1,480.27,203.78Z"/><path class="cls-3" d="M506.18,199.94a6.19,6.19,0,0,1,.26,1.92,6.41,6.41,0,0,1-.26,1.92H492.57a5.86,5.86,0,0,1,.26,1.92,6.09,6.09,0,0,1-.26,1.91h11a6.17,6.17,0,0,1,.25,1.92,6.53,6.53,0,0,1-.25,1.92h-13a6.51,6.51,0,0,1-.26-1.92,6.14,6.14,0,0,1,.26-1.92h-3.24a6.39,6.39,0,0,1-.26-1.91,6.14,6.14,0,0,1,.26-1.92h-1.94a6.41,6.41,0,0,1-.26-1.92,6.19,6.19,0,0,1,.26-1.92h1.94a6.39,6.39,0,0,1-.26-1.91,6.14,6.14,0,0,1,.26-1.92h3.24a6.41,6.41,0,0,1-.26-1.92,6.12,6.12,0,0,1,.26-1.91h13a6.14,6.14,0,0,1,.25,1.91,6.43,6.43,0,0,1-.25,1.92h2.59a6.14,6.14,0,0,1,.26,1.92A6.39,6.39,0,0,1,506.18,199.94ZM500.74,198a6.17,6.17,0,0,1,.25-1.92h-8.42a5.86,5.86,0,0,1,.26,1.92,6.09,6.09,0,0,1-.26,1.91H501A6.41,6.41,0,0,1,500.74,198Z"/><path class="cls-3" d="M515.89,196.11h2.59a6.14,6.14,0,0,1,.26,1.92,6.39,6.39,0,0,1-.26,1.91h-1.94a6.19,6.19,0,0,1,.26,1.92,6.41,6.41,0,0,1-.26,1.92,6.14,6.14,0,0,1,.26,1.92,6.39,6.39,0,0,1-.26,1.91,6.14,6.14,0,0,1,.26,1.92,6.51,6.51,0,0,1-.26,1.92h-5.18a6.19,6.19,0,0,1-.26-1.92,5.86,5.86,0,0,1,.26-1.92,6.09,6.09,0,0,1-.26-1.91,5.86,5.86,0,0,1,.26-1.92,6.11,6.11,0,0,1-.26-1.92,5.9,5.9,0,0,1,.26-1.92,6.09,6.09,0,0,1-.26-1.91,5.86,5.86,0,0,1,.26-1.92,6.11,6.11,0,0,1-.26-1.92,5.84,5.84,0,0,1,.26-1.91h4.53a6.12,6.12,0,0,1,.26,1.91A6.41,6.41,0,0,1,515.89,196.11Zm16.45,5.75a6.43,6.43,0,0,1-.25,1.92,6.17,6.17,0,0,1,.25,1.92,6.41,6.41,0,0,1-.25,1.91,6.17,6.17,0,0,1,.25,1.92,6.53,6.53,0,0,1-.25,1.92H526.9a6.51,6.51,0,0,1-.26-1.92,6.14,6.14,0,0,1,.26-1.92,6.39,6.39,0,0,1-.26-1.91,6.14,6.14,0,0,1,.26-1.92,6.41,6.41,0,0,1-.26-1.92,6.19,6.19,0,0,1,.26-1.92,6.39,6.39,0,0,1-.26-1.91,6.14,6.14,0,0,1,.26-1.92h-8.42a6.41,6.41,0,0,1-.26-1.92,6.12,6.12,0,0,1,.26-1.91h10.37a6.12,6.12,0,0,1,.26,1.91,6.41,6.41,0,0,1-.26,1.92h3.24a6.17,6.17,0,0,1,.25,1.92,6.41,6.41,0,0,1-.25,1.91A6.21,6.21,0,0,1,532.34,201.86Z"/><path class="cls-3" d="M558.25,198a6.09,6.09,0,0,1-.26,1.91,5.9,5.9,0,0,1,.26,1.92,6.11,6.11,0,0,1-.26,1.92,5.86,5.86,0,0,1,.26,1.92,6.09,6.09,0,0,1-.26,1.91,5.86,5.86,0,0,1,.26,1.92,6.19,6.19,0,0,1-.26,1.92H555.4a6.12,6.12,0,0,1,.26,1.91,6.41,6.41,0,0,1-.26,1.92h-2.59a6.14,6.14,0,0,1,.26,1.92,6.51,6.51,0,0,1-.26,1.92H542.45a6.19,6.19,0,0,1-.26-1.92,5.86,5.86,0,0,1,.26-1.92h7.77a6.41,6.41,0,0,1-.26-1.92,6.12,6.12,0,0,1,.26-1.91h2.59a6.51,6.51,0,0,1-.26-1.92,6.14,6.14,0,0,1,.26-1.92h-2.59a6.39,6.39,0,0,1-.26-1.91,6.14,6.14,0,0,1,.26-1.92h2.59a6.41,6.41,0,0,1-.26-1.92,6.19,6.19,0,0,1,.26-1.92,6.39,6.39,0,0,1-.26-1.91,6.14,6.14,0,0,1,.26-1.92h-8.42a6.14,6.14,0,0,1,.26,1.92,6.39,6.39,0,0,1-.26,1.91h-1.94a6.19,6.19,0,0,1,.26,1.92,6.41,6.41,0,0,1-.26,1.92h1.94a6.14,6.14,0,0,1,.26,1.92,6.39,6.39,0,0,1-.26,1.91h5.83a6.14,6.14,0,0,1,.26,1.92,6.51,6.51,0,0,1-.26,1.92h-7.77a6.19,6.19,0,0,1-.26-1.92,5.86,5.86,0,0,1,.26-1.92h-3.24a6.39,6.39,0,0,1-.26-1.91,6.14,6.14,0,0,1,.26-1.92h-1.94a6.11,6.11,0,0,1-.26-1.92,5.9,5.9,0,0,1,.26-1.92h1.94A6.39,6.39,0,0,1,539,198a6.14,6.14,0,0,1,.26-1.92h3.24a6.11,6.11,0,0,1-.26-1.92,5.84,5.84,0,0,1,.26-1.91H558a5.84,5.84,0,0,1,.26,1.91,6.11,6.11,0,0,1-.26,1.92A5.86,5.86,0,0,1,558.25,198Z"/><path class="cls-3" d="M583.9,199.94a6.19,6.19,0,0,1,.26,1.92,6.41,6.41,0,0,1-.26,1.92H570.3a6.14,6.14,0,0,1,.26,1.92,6.39,6.39,0,0,1-.26,1.91h11a6.14,6.14,0,0,1,.26,1.92,6.51,6.51,0,0,1-.26,1.92H568.36a6.19,6.19,0,0,1-.26-1.92,5.86,5.86,0,0,1,.26-1.92h-3.24a6.09,6.09,0,0,1-.26-1.91,5.86,5.86,0,0,1,.26-1.92h-1.94a6.11,6.11,0,0,1-.26-1.92,5.9,5.9,0,0,1,.26-1.92h1.94a6.09,6.09,0,0,1-.26-1.91,5.86,5.86,0,0,1,.26-1.92h3.24a6.11,6.11,0,0,1-.26-1.92,5.84,5.84,0,0,1,.26-1.91h12.95a6.12,6.12,0,0,1,.26,1.91,6.41,6.41,0,0,1-.26,1.92h2.59a6.14,6.14,0,0,1,.26,1.92A6.39,6.39,0,0,1,583.9,199.94ZM578.46,198a6.14,6.14,0,0,1,.26-1.92H570.3a6.14,6.14,0,0,1,.26,1.92,6.39,6.39,0,0,1-.26,1.91h8.42A6.39,6.39,0,0,1,578.46,198Z"/><path class="cls-3" d="M635.72,203.78h-2.59a6.14,6.14,0,0,1,.26,1.92,6.39,6.39,0,0,1-.26,1.91h-2.59a6.14,6.14,0,0,1,.26,1.92,6.51,6.51,0,0,1-.26,1.92H620.17a5.84,5.84,0,0,1,.26,1.91,6.11,6.11,0,0,1-.26,1.92,5.86,5.86,0,0,1,.26,1.92,6.19,6.19,0,0,1-.26,1.92H615a6.51,6.51,0,0,1-.26-1.92,6.14,6.14,0,0,1,.26-1.92,6.41,6.41,0,0,1-.26-1.92,6.12,6.12,0,0,1,.26-1.91,6.51,6.51,0,0,1-.26-1.92,6.14,6.14,0,0,1,.26-1.92,6.39,6.39,0,0,1-.26-1.91,6.14,6.14,0,0,1,.26-1.92,6.41,6.41,0,0,1-.26-1.92,6.19,6.19,0,0,1,.26-1.92,6.39,6.39,0,0,1-.26-1.91,6.14,6.14,0,0,1,.26-1.92,6.41,6.41,0,0,1-.26-1.92,6.12,6.12,0,0,1,.26-1.91h5.18a5.84,5.84,0,0,1,.26,1.91,6.11,6.11,0,0,1-.26,1.92h2.59A5.86,5.86,0,0,1,623,198a6.09,6.09,0,0,1-.26,1.91h-2.59a5.9,5.9,0,0,1,.26,1.92,6.11,6.11,0,0,1-.26,1.92,5.86,5.86,0,0,1,.26,1.92,6.09,6.09,0,0,1-.26,1.91H628a6.09,6.09,0,0,1-.26-1.91,5.86,5.86,0,0,1,.26-1.92h2.59a6.11,6.11,0,0,1-.26-1.92,5.9,5.9,0,0,1,.26-1.92H628a6.09,6.09,0,0,1-.26-1.91,5.86,5.86,0,0,1,.26-1.92h-5.19a6.43,6.43,0,0,1-.25-1.92,6.14,6.14,0,0,1,.25-1.91h7.78a6.12,6.12,0,0,1,.26,1.91,6.41,6.41,0,0,1-.26,1.92h2.59a6.14,6.14,0,0,1,.26,1.92,6.39,6.39,0,0,1-.26,1.91h2.59a6.19,6.19,0,0,1,.26,1.92A6.41,6.41,0,0,1,635.72,203.78Z"/><path class="cls-3" d="M661.89,209.53a6.51,6.51,0,0,1-.26,1.92h-5.18a6.19,6.19,0,0,1-.26-1.92,5.86,5.86,0,0,1,.26-1.92h-2.59a6.09,6.09,0,0,1-.26-1.91,5.86,5.86,0,0,1,.26-1.92h-7.78a6.14,6.14,0,0,1,.26,1.92,6.39,6.39,0,0,1-.26,1.91h7.78a6.17,6.17,0,0,1,.25,1.92,6.53,6.53,0,0,1-.25,1.92H643.49a6.51,6.51,0,0,1-.26-1.92,6.14,6.14,0,0,1,.26-1.92H640.9a6.39,6.39,0,0,1-.26-1.91,6.14,6.14,0,0,1,.26-1.92h2.59a6.41,6.41,0,0,1-.26-1.92,6.19,6.19,0,0,1,.26-1.92h10.37a6.09,6.09,0,0,1-.26-1.91,5.86,5.86,0,0,1,.26-1.92h-9.07a6.11,6.11,0,0,1-.26-1.92,5.84,5.84,0,0,1,.26-1.91h11.66a6.12,6.12,0,0,1,.26,1.91,6.41,6.41,0,0,1-.26,1.92H659a6.14,6.14,0,0,1,.26,1.92,6.39,6.39,0,0,1-.26,1.91,6.19,6.19,0,0,1,.26,1.92,6.41,6.41,0,0,1-.26,1.92,6.14,6.14,0,0,1,.26,1.92,6.39,6.39,0,0,1-.26,1.91h2.59A6.14,6.14,0,0,1,661.89,209.53Zm-3.5-24.92h-1.94a6.12,6.12,0,0,1,.26,1.91,6.41,6.41,0,0,1-.26,1.92H646.08a6.41,6.41,0,0,1-.26-1.92,6.12,6.12,0,0,1,.26-1.91h-1.94a6.46,6.46,0,0,1-.26-1.92,6.14,6.14,0,0,1,.26-1.92h1.94a6.39,6.39,0,0,1-.26-1.91,6.14,6.14,0,0,1,.26-1.92h10.37a6.14,6.14,0,0,1,.26,1.92,6.39,6.39,0,0,1-.26,1.91h1.94a6.14,6.14,0,0,1,.26,1.92A6.46,6.46,0,0,1,658.39,184.61Zm-3.89,0a6.46,6.46,0,0,1-.26-1.92,6.14,6.14,0,0,1,.26-1.92H648a6.14,6.14,0,0,1,.26,1.92,6.46,6.46,0,0,1-.26,1.92Z"/><path class="cls-3" d="M117.55,261.29H115a6.17,6.17,0,0,1,.25,1.92,6.53,6.53,0,0,1-.25,1.92h-2.6a5.84,5.84,0,0,1,.26,1.91,6.11,6.11,0,0,1-.26,1.92H102a6.14,6.14,0,0,1,.26,1.92,6.39,6.39,0,0,1-.26,1.91,6.19,6.19,0,0,1,.26,1.92,6.46,6.46,0,0,1-.26,1.92H96.82a6.46,6.46,0,0,1-.26-1.92,6.19,6.19,0,0,1,.26-1.92,6.39,6.39,0,0,1-.26-1.91,6.14,6.14,0,0,1,.26-1.92,6.41,6.41,0,0,1-.26-1.92,6.12,6.12,0,0,1,.26-1.91,6.51,6.51,0,0,1-.26-1.92,6.14,6.14,0,0,1,.26-1.92,6.41,6.41,0,0,1-.26-1.92,6.12,6.12,0,0,1,.26-1.91,6.46,6.46,0,0,1-.26-1.92,6.14,6.14,0,0,1,.26-1.92,6.39,6.39,0,0,1-.26-1.91,6.14,6.14,0,0,1,.26-1.92H102a6.14,6.14,0,0,1,.26,1.92,6.39,6.39,0,0,1-.26,1.91h2.59a6.14,6.14,0,0,1,.26,1.92,6.46,6.46,0,0,1-.26,1.92H102a6.12,6.12,0,0,1,.26,1.91,6.41,6.41,0,0,1-.26,1.92,6.14,6.14,0,0,1,.26,1.92,6.51,6.51,0,0,1-.26,1.92h7.77a6.51,6.51,0,0,1-.26-1.92,6.14,6.14,0,0,1,.26-1.92h2.59a6.43,6.43,0,0,1-.25-1.92,6.14,6.14,0,0,1,.25-1.91h-2.59a6.46,6.46,0,0,1-.26-1.92,6.14,6.14,0,0,1,.26-1.92h-5.18a6.39,6.39,0,0,1-.26-1.91,6.14,6.14,0,0,1,.26-1.92h7.77a5.86,5.86,0,0,1,.26,1.92,6.09,6.09,0,0,1-.26,1.91H115a6.17,6.17,0,0,1,.25,1.92,6.48,6.48,0,0,1-.25,1.92h2.59a6.12,6.12,0,0,1,.26,1.91A6.41,6.41,0,0,1,117.55,261.29Z"/><path class="cls-3" d="M143.46,257.46a6.14,6.14,0,0,1,.25,1.91,6.43,6.43,0,0,1-.25,1.92H129.85a6.14,6.14,0,0,1,.26,1.92,6.51,6.51,0,0,1-.26,1.92h11a5.84,5.84,0,0,1,.26,1.91,6.11,6.11,0,0,1-.26,1.92h-13a6.41,6.41,0,0,1-.26-1.92,6.12,6.12,0,0,1,.26-1.91h-3.24a6.51,6.51,0,0,1-.26-1.92,6.14,6.14,0,0,1,.26-1.92h-1.94a6.11,6.11,0,0,1-.26-1.92,5.84,5.84,0,0,1,.26-1.91h1.94a6.46,6.46,0,0,1-.26-1.92,6.14,6.14,0,0,1,.26-1.92h3.24a6.39,6.39,0,0,1-.26-1.91,6.14,6.14,0,0,1,.26-1.92h13a5.86,5.86,0,0,1,.26,1.92,6.09,6.09,0,0,1-.26,1.91h2.6a6.17,6.17,0,0,1,.25,1.92A6.48,6.48,0,0,1,143.46,257.46ZM138,255.54a6.14,6.14,0,0,1,.26-1.92h-8.42a6.14,6.14,0,0,1,.26,1.92,6.46,6.46,0,0,1-.26,1.92h8.42A6.46,6.46,0,0,1,138,255.54Z"/><path class="cls-3" d="M169.62,255.54a6.15,6.15,0,0,1-.26,1.92h-5.18a6.46,6.46,0,0,1-.26-1.92,6.14,6.14,0,0,1,.26-1.92h-4.53a6.14,6.14,0,0,1,.26,1.92,6.46,6.46,0,0,1-.26,1.92h-2a5.84,5.84,0,0,1,.26,1.91,6.11,6.11,0,0,1-.26,1.92,5.86,5.86,0,0,1,.26,1.92,6.19,6.19,0,0,1-.26,1.92h3.89a6.12,6.12,0,0,1,.26,1.91,6.41,6.41,0,0,1-.26,1.92h-13a6.11,6.11,0,0,1-.26-1.92,5.84,5.84,0,0,1,.26-1.91h3.88a6.51,6.51,0,0,1-.26-1.92,6.14,6.14,0,0,1,.26-1.92,6.41,6.41,0,0,1-.26-1.92,6.12,6.12,0,0,1,.26-1.91,6.46,6.46,0,0,1-.26-1.92,6.14,6.14,0,0,1,.26-1.92h-3.88a6.09,6.09,0,0,1-.26-1.91,5.86,5.86,0,0,1,.26-1.92h6.47a5.86,5.86,0,0,1,.26,1.92,6.09,6.09,0,0,1-.26,1.91h2.59a6.41,6.41,0,0,1-.25-1.91,6.17,6.17,0,0,1,.25-1.92h9.72a6.14,6.14,0,0,1,.26,1.92,6.39,6.39,0,0,1-.26,1.91h1.94A5.86,5.86,0,0,1,169.62,255.54Z"/><path class="cls-3" d="M194,265.13h-2.59a6.14,6.14,0,0,1,.25,1.91,6.43,6.43,0,0,1-.25,1.92H177.14a6.11,6.11,0,0,1-.26-1.92,5.84,5.84,0,0,1,.26-1.91H188.8a6.19,6.19,0,0,1-.26-1.92,5.86,5.86,0,0,1,.26-1.92H178.43a6.41,6.41,0,0,1-.26-1.92,6.12,6.12,0,0,1,.26-1.91h-2.59a6.46,6.46,0,0,1-.26-1.92,6.14,6.14,0,0,1,.26-1.92h2.59a6.39,6.39,0,0,1-.26-1.91,6.14,6.14,0,0,1,.26-1.92h14.25a6.14,6.14,0,0,1,.26,1.92,6.39,6.39,0,0,1-.26,1.91H181a6.14,6.14,0,0,1,.26,1.92,6.46,6.46,0,0,1-.26,1.92h10.37a6.14,6.14,0,0,1,.25,1.91,6.43,6.43,0,0,1-.25,1.92H194a6.14,6.14,0,0,1,.26,1.92A6.51,6.51,0,0,1,194,265.13Z"/><path class="cls-3" d="M221.18,261.29h-1.94a6.14,6.14,0,0,1,.26,1.92,6.51,6.51,0,0,1-.26,1.92H216a6.12,6.12,0,0,1,.26,1.91A6.41,6.41,0,0,1,216,269H205.64a6.11,6.11,0,0,1-.26-1.92,5.84,5.84,0,0,1,.26-1.91H202.4a6.19,6.19,0,0,1-.26-1.92,5.86,5.86,0,0,1,.26-1.92h-2a6.41,6.41,0,0,1-.26-1.92,6.12,6.12,0,0,1,.26-1.91h2a6.15,6.15,0,0,1-.26-1.92,5.86,5.86,0,0,1,.26-1.92h3.24a6.09,6.09,0,0,1-.26-1.91,5.86,5.86,0,0,1,.26-1.92H216a6.14,6.14,0,0,1,.26,1.92,6.39,6.39,0,0,1-.26,1.91h3.24a6.14,6.14,0,0,1,.26,1.92,6.46,6.46,0,0,1-.26,1.92h1.94a6.12,6.12,0,0,1,.26,1.91A6.41,6.41,0,0,1,221.18,261.29Zm-5.18,0a6.41,6.41,0,0,1-.26-1.92,6.12,6.12,0,0,1,.26-1.91h-1.94a6.15,6.15,0,0,1-.26-1.92,5.86,5.86,0,0,1,.26-1.92h-6.48a6.14,6.14,0,0,1,.26,1.92,6.46,6.46,0,0,1-.26,1.92h-1.94a6.14,6.14,0,0,1,.25,1.91,6.43,6.43,0,0,1-.25,1.92h1.94a6.14,6.14,0,0,1,.26,1.92,6.51,6.51,0,0,1-.26,1.92h6.48a6.19,6.19,0,0,1-.26-1.92,5.86,5.86,0,0,1,.26-1.92Z"/><path class="cls-3" d="M230.9,253.62h2.59a6.14,6.14,0,0,1,.26,1.92,6.46,6.46,0,0,1-.26,1.92h-2a5.84,5.84,0,0,1,.26,1.91,6.11,6.11,0,0,1-.26,1.92,5.86,5.86,0,0,1,.26,1.92,6.19,6.19,0,0,1-.26,1.92,5.84,5.84,0,0,1,.26,1.91,6.11,6.11,0,0,1-.26,1.92h-5.18a6.41,6.41,0,0,1-.26-1.92,6.12,6.12,0,0,1,.26-1.91,6.51,6.51,0,0,1-.26-1.92,6.14,6.14,0,0,1,.26-1.92,6.41,6.41,0,0,1-.26-1.92,6.12,6.12,0,0,1,.26-1.91,6.46,6.46,0,0,1-.26-1.92,6.14,6.14,0,0,1,.26-1.92,6.39,6.39,0,0,1-.26-1.91,6.14,6.14,0,0,1,.26-1.92h4.54a6.14,6.14,0,0,1,.26,1.92A6.39,6.39,0,0,1,230.9,253.62Zm16.45,5.75a6.41,6.41,0,0,1-.26,1.92,6.14,6.14,0,0,1,.26,1.92,6.51,6.51,0,0,1-.26,1.92,6.12,6.12,0,0,1,.26,1.91,6.41,6.41,0,0,1-.26,1.92h-5.18a6.11,6.11,0,0,1-.26-1.92,5.84,5.84,0,0,1,.26-1.91,6.19,6.19,0,0,1-.26-1.92,5.86,5.86,0,0,1,.26-1.92,6.11,6.11,0,0,1-.26-1.92,5.84,5.84,0,0,1,.26-1.91,6.15,6.15,0,0,1-.26-1.92,5.86,5.86,0,0,1,.26-1.92h-8.42a6.09,6.09,0,0,1-.26-1.91,5.86,5.86,0,0,1,.26-1.92h10.36a6.14,6.14,0,0,1,.26,1.92,6.39,6.39,0,0,1-.26,1.91h3.24a6.14,6.14,0,0,1,.26,1.92,6.46,6.46,0,0,1-.26,1.92A6.12,6.12,0,0,1,247.35,259.37Z"/><path class="cls-3" d="M270.67,267a6.41,6.41,0,0,1-.26,1.92H254.86a6.41,6.41,0,0,1-.26-1.92,6.12,6.12,0,0,1,.26-1.91H260a6.51,6.51,0,0,1-.26-1.92,6.14,6.14,0,0,1,.26-1.92,6.41,6.41,0,0,1-.26-1.92,6.12,6.12,0,0,1,.26-1.91,6.46,6.46,0,0,1-.26-1.92,6.14,6.14,0,0,1,.26-1.92,6.39,6.39,0,0,1-.26-1.91,6.14,6.14,0,0,1,.26-1.92,6.41,6.41,0,0,1-.26-1.92A6.23,6.23,0,0,1,260,246h-3.88a6.09,6.09,0,0,1-.26-1.91,5.86,5.86,0,0,1,.26-1.92h9.07a6.17,6.17,0,0,1,.25,1.92,6.41,6.41,0,0,1-.25,1.91,6.26,6.26,0,0,1,.25,1.92,6.43,6.43,0,0,1-.25,1.92,6.17,6.17,0,0,1,.25,1.92,6.41,6.41,0,0,1-.25,1.91,6.17,6.17,0,0,1,.25,1.92,6.48,6.48,0,0,1-.25,1.92,6.14,6.14,0,0,1,.25,1.91,6.43,6.43,0,0,1-.25,1.92,6.17,6.17,0,0,1,.25,1.92,6.53,6.53,0,0,1-.25,1.92h5.18A6.12,6.12,0,0,1,270.67,267Z"/><path class="cls-3" d="M296.58,267a6.41,6.41,0,0,1-.26,1.92H280.77a6.41,6.41,0,0,1-.26-1.92,6.12,6.12,0,0,1,.26-1.91H286a6.51,6.51,0,0,1-.26-1.92,6.14,6.14,0,0,1,.26-1.92,6.41,6.41,0,0,1-.26-1.92,6.12,6.12,0,0,1,.26-1.91,6.46,6.46,0,0,1-.26-1.92,6.14,6.14,0,0,1,.26-1.92h-3.88a6.09,6.09,0,0,1-.26-1.91,5.86,5.86,0,0,1,.26-1.92h9.06a5.86,5.86,0,0,1,.26,1.92,6.09,6.09,0,0,1-.26,1.91,5.86,5.86,0,0,1,.26,1.92,6.15,6.15,0,0,1-.26,1.92,5.84,5.84,0,0,1,.26,1.91,6.11,6.11,0,0,1-.26,1.92,5.86,5.86,0,0,1,.26,1.92,6.19,6.19,0,0,1-.26,1.92h5.19A6.12,6.12,0,0,1,296.58,267ZM286,246a6.39,6.39,0,0,1-.26-1.91,6.14,6.14,0,0,1,.26-1.92h5.18a5.86,5.86,0,0,1,.26,1.92,6.09,6.09,0,0,1-.26,1.91Z"/><path class="cls-3" d="M325.07,255.54a6.48,6.48,0,0,1-.25,1.92,6.14,6.14,0,0,1,.25,1.91,6.43,6.43,0,0,1-.25,1.92,6.17,6.17,0,0,1,.25,1.92,6.53,6.53,0,0,1-.25,1.92,6.14,6.14,0,0,1,.25,1.91,6.43,6.43,0,0,1-.25,1.92h-2.6a5.86,5.86,0,0,1,.26,1.92,6.09,6.09,0,0,1-.26,1.91h-2.59a5.9,5.9,0,0,1,.26,1.92,6.15,6.15,0,0,1-.26,1.92H309.27a6.46,6.46,0,0,1-.26-1.92,6.19,6.19,0,0,1,.26-1.92H317a6.39,6.39,0,0,1-.26-1.91A6.14,6.14,0,0,1,317,269h2.59a6.41,6.41,0,0,1-.26-1.92,6.12,6.12,0,0,1,.26-1.91H317a6.51,6.51,0,0,1-.26-1.92,6.14,6.14,0,0,1,.26-1.92h2.59a6.41,6.41,0,0,1-.26-1.92,6.12,6.12,0,0,1,.26-1.91,6.46,6.46,0,0,1-.26-1.92,6.14,6.14,0,0,1,.26-1.92h-8.42a5.86,5.86,0,0,1,.26,1.92,6.15,6.15,0,0,1-.26,1.92h-1.94a6.12,6.12,0,0,1,.26,1.91,6.41,6.41,0,0,1-.26,1.92h1.94a5.86,5.86,0,0,1,.26,1.92,6.19,6.19,0,0,1-.26,1.92H317a6.12,6.12,0,0,1,.26,1.91A6.41,6.41,0,0,1,317,269h-7.77A6.41,6.41,0,0,1,309,267a6.12,6.12,0,0,1,.26-1.91H306a6.51,6.51,0,0,1-.26-1.92,6.14,6.14,0,0,1,.26-1.92h-1.94a6.41,6.41,0,0,1-.26-1.92,6.12,6.12,0,0,1,.26-1.91H306a6.46,6.46,0,0,1-.26-1.92,6.14,6.14,0,0,1,.26-1.92h3.24a6.39,6.39,0,0,1-.26-1.91,6.14,6.14,0,0,1,.26-1.92h15.55a6.17,6.17,0,0,1,.25,1.92,6.41,6.41,0,0,1-.25,1.91A6.17,6.17,0,0,1,325.07,255.54Z"/><path class="cls-3" d="M350.72,257.46a5.84,5.84,0,0,1,.26,1.91,6.11,6.11,0,0,1-.26,1.92h-13.6a6.14,6.14,0,0,1,.26,1.92,6.51,6.51,0,0,1-.26,1.92h11a5.84,5.84,0,0,1,.26,1.91,6.11,6.11,0,0,1-.26,1.92H335.18a6.41,6.41,0,0,1-.26-1.92,6.12,6.12,0,0,1,.26-1.91h-3.24a6.51,6.51,0,0,1-.26-1.92,6.14,6.14,0,0,1,.26-1.92H330a6.11,6.11,0,0,1-.26-1.92,5.84,5.84,0,0,1,.26-1.91h1.94a6.46,6.46,0,0,1-.26-1.92,6.14,6.14,0,0,1,.26-1.92h3.24a6.39,6.39,0,0,1-.26-1.91,6.14,6.14,0,0,1,.26-1.92h12.95a5.86,5.86,0,0,1,.26,1.92,6.09,6.09,0,0,1-.26,1.91h2.59a5.86,5.86,0,0,1,.26,1.92A6.15,6.15,0,0,1,350.72,257.46Zm-5.44-1.92a6.14,6.14,0,0,1,.26-1.92h-8.42a6.14,6.14,0,0,1,.26,1.92,6.46,6.46,0,0,1-.26,1.92h8.42A6.46,6.46,0,0,1,345.28,255.54Z"/><path class="cls-3" d="M400,249.79a6.14,6.14,0,0,1,.26,1.92,6.39,6.39,0,0,1-.26,1.91h-7.77a6.14,6.14,0,0,1,.26,1.92,6.46,6.46,0,0,1-.26,1.92,6.12,6.12,0,0,1,.26,1.91,6.41,6.41,0,0,1-.26,1.92,6.14,6.14,0,0,1,.26,1.92,6.51,6.51,0,0,1-.26,1.92h5.18a6.12,6.12,0,0,1,.26,1.91,6.41,6.41,0,0,1-.26,1.92H384.41a6.11,6.11,0,0,1-.26-1.92,5.84,5.84,0,0,1,.26-1.91H387a6.19,6.19,0,0,1-.26-1.92,5.86,5.86,0,0,1,.26-1.92,6.11,6.11,0,0,1-.26-1.92,5.84,5.84,0,0,1,.26-1.91,6.15,6.15,0,0,1-.26-1.92,5.86,5.86,0,0,1,.26-1.92h-2.59a6.09,6.09,0,0,1-.26-1.91,5.86,5.86,0,0,1,.26-1.92H387a6.11,6.11,0,0,1-.26-1.92A5.94,5.94,0,0,1,387,246h2.59a6.09,6.09,0,0,1-.26-1.91,5.86,5.86,0,0,1,.26-1.92H400a6.14,6.14,0,0,1,.26,1.92A6.39,6.39,0,0,1,400,246h-7.77a6.23,6.23,0,0,1,.26,1.92,6.41,6.41,0,0,1-.26,1.92Z"/><path class="cls-3" d="M428.45,261.29h-1.94a6.14,6.14,0,0,1,.26,1.92,6.51,6.51,0,0,1-.26,1.92h-3.24a6.12,6.12,0,0,1,.26,1.91,6.41,6.41,0,0,1-.26,1.92H412.9a6.43,6.43,0,0,1-.25-1.92,6.14,6.14,0,0,1,.25-1.91h-3.23a6.19,6.19,0,0,1-.26-1.92,5.86,5.86,0,0,1,.26-1.92h-1.95a6.41,6.41,0,0,1-.26-1.92,6.12,6.12,0,0,1,.26-1.91h1.95a6.15,6.15,0,0,1-.26-1.92,5.86,5.86,0,0,1,.26-1.92h3.23a6.41,6.41,0,0,1-.25-1.91,6.17,6.17,0,0,1,.25-1.92h10.37a6.14,6.14,0,0,1,.26,1.92,6.39,6.39,0,0,1-.26,1.91h3.24a6.14,6.14,0,0,1,.26,1.92,6.46,6.46,0,0,1-.26,1.92h1.94a6.12,6.12,0,0,1,.26,1.91A6.41,6.41,0,0,1,428.45,261.29Zm-5.18,0a6.41,6.41,0,0,1-.26-1.92,6.12,6.12,0,0,1,.26-1.91h-1.94a6.15,6.15,0,0,1-.26-1.92,5.86,5.86,0,0,1,.26-1.92h-6.48a6.14,6.14,0,0,1,.26,1.92,6.46,6.46,0,0,1-.26,1.92h-2a5.84,5.84,0,0,1,.26,1.91,6.11,6.11,0,0,1-.26,1.92h2a6.14,6.14,0,0,1,.26,1.92,6.51,6.51,0,0,1-.26,1.92h6.48a6.19,6.19,0,0,1-.26-1.92,5.86,5.86,0,0,1,.26-1.92Z"/><path class="cls-3" d="M454.62,255.54a6.46,6.46,0,0,1-.26,1.92h-5.18a6.15,6.15,0,0,1-.26-1.92,5.86,5.86,0,0,1,.26-1.92h-4.54a5.86,5.86,0,0,1,.26,1.92,6.15,6.15,0,0,1-.26,1.92H442.7a6.12,6.12,0,0,1,.26,1.91,6.41,6.41,0,0,1-.26,1.92,6.14,6.14,0,0,1,.26,1.92,6.51,6.51,0,0,1-.26,1.92h3.89a6.12,6.12,0,0,1,.26,1.91,6.41,6.41,0,0,1-.26,1.92h-13a6.41,6.41,0,0,1-.26-1.92,6.12,6.12,0,0,1,.26-1.91h3.89a6.19,6.19,0,0,1-.26-1.92,5.86,5.86,0,0,1,.26-1.92,6.11,6.11,0,0,1-.26-1.92,5.84,5.84,0,0,1,.26-1.91,6.15,6.15,0,0,1-.26-1.92,5.86,5.86,0,0,1,.26-1.92h-3.89a6.39,6.39,0,0,1-.26-1.91,6.14,6.14,0,0,1,.26-1.92h6.48a6.14,6.14,0,0,1,.26,1.92,6.39,6.39,0,0,1-.26,1.91h2.59a6.39,6.39,0,0,1-.26-1.91,6.14,6.14,0,0,1,.26-1.92h9.72a6.14,6.14,0,0,1,.26,1.92,6.39,6.39,0,0,1-.26,1.91h1.94A6.14,6.14,0,0,1,454.62,255.54Z"/><path class="cls-3" d="M464.07,253.62h2.6a6.17,6.17,0,0,1,.25,1.92,6.48,6.48,0,0,1-.25,1.92h-1.95a6.12,6.12,0,0,1,.26,1.91,6.41,6.41,0,0,1-.26,1.92,6.14,6.14,0,0,1,.26,1.92,6.51,6.51,0,0,1-.26,1.92A6.12,6.12,0,0,1,465,267a6.41,6.41,0,0,1-.26,1.92h-5.18a6.41,6.41,0,0,1-.26-1.92,6.12,6.12,0,0,1,.26-1.91,6.51,6.51,0,0,1-.26-1.92,6.14,6.14,0,0,1,.26-1.92,6.41,6.41,0,0,1-.26-1.92,6.12,6.12,0,0,1,.26-1.91,6.46,6.46,0,0,1-.26-1.92,6.14,6.14,0,0,1,.26-1.92,6.39,6.39,0,0,1-.26-1.91,6.14,6.14,0,0,1,.26-1.92h4.53a5.86,5.86,0,0,1,.26,1.92A6.09,6.09,0,0,1,464.07,253.62Zm16.46,5.75a6.41,6.41,0,0,1-.26,1.92,6.14,6.14,0,0,1,.26,1.92,6.51,6.51,0,0,1-.26,1.92,6.12,6.12,0,0,1,.26,1.91,6.41,6.41,0,0,1-.26,1.92h-5.18a6.11,6.11,0,0,1-.26-1.92,5.84,5.84,0,0,1,.26-1.91,6.19,6.19,0,0,1-.26-1.92,5.86,5.86,0,0,1,.26-1.92,6.11,6.11,0,0,1-.26-1.92,5.84,5.84,0,0,1,.26-1.91,6.15,6.15,0,0,1-.26-1.92,5.86,5.86,0,0,1,.26-1.92h-8.42a6.09,6.09,0,0,1-.26-1.91,5.86,5.86,0,0,1,.26-1.92H477a6.14,6.14,0,0,1,.26,1.92,6.39,6.39,0,0,1-.26,1.91h3.24a6.14,6.14,0,0,1,.26,1.92,6.46,6.46,0,0,1-.26,1.92A6.12,6.12,0,0,1,480.53,259.37Z"/><path class="cls-3" d="M506.18,261.29h-1.95a5.86,5.86,0,0,1,.26,1.92,6.19,6.19,0,0,1-.26,1.92H501a5.84,5.84,0,0,1,.26,1.91A6.11,6.11,0,0,1,501,269h-9.06a6.14,6.14,0,0,1,.26,1.92,6.39,6.39,0,0,1-.26,1.91h-5.19a6.41,6.41,0,0,1-.25-1.91,6.17,6.17,0,0,1,.25-1.92h2.6a6.11,6.11,0,0,1-.26-1.92,5.84,5.84,0,0,1,.26-1.91h-1.95a6.51,6.51,0,0,1-.26-1.92,6.14,6.14,0,0,1,.26-1.92h-1.94a6.41,6.41,0,0,1-.26-1.92,6.12,6.12,0,0,1,.26-1.91h1.94a6.46,6.46,0,0,1-.26-1.92,6.14,6.14,0,0,1,.26-1.92h3.24a6.39,6.39,0,0,1-.26-1.91,6.14,6.14,0,0,1,.26-1.92h9.07a6.41,6.41,0,0,1-.26-1.92,6.23,6.23,0,0,1,.26-1.92h5.18a6.23,6.23,0,0,1,.26,1.92,6.41,6.41,0,0,1-.26,1.92h-2.59a6.14,6.14,0,0,1,.26,1.92,6.39,6.39,0,0,1-.26,1.91h1.94a5.86,5.86,0,0,1,.26,1.92,6.15,6.15,0,0,1-.26,1.92h1.95a6.12,6.12,0,0,1,.26,1.91A6.41,6.41,0,0,1,506.18,261.29Zm-5.19,0a6.43,6.43,0,0,1-.25-1.92,6.14,6.14,0,0,1,.25-1.91h-3.23a6.15,6.15,0,0,1-.26-1.92,5.86,5.86,0,0,1,.26-1.92h-5.19a5.86,5.86,0,0,1,.26,1.92,6.15,6.15,0,0,1-.26,1.92h-1.94a6.12,6.12,0,0,1,.26,1.91,6.41,6.41,0,0,1-.26,1.92h3.24a6.14,6.14,0,0,1,.26,1.92,6.51,6.51,0,0,1-.26,1.92h5.18a6.51,6.51,0,0,1-.26-1.92,6.14,6.14,0,0,1,.26-1.92Zm-3.23,0h-3.89a6.41,6.41,0,0,1-.26-1.92,6.12,6.12,0,0,1,.26-1.91h3.89a6.12,6.12,0,0,1,.26,1.91A6.41,6.41,0,0,1,497.76,261.29Z"/><path class="cls-3" d="M527.16,251.71a6.09,6.09,0,0,1-.26,1.91,5.86,5.86,0,0,1,.26,1.92,6.15,6.15,0,0,1-.26,1.92,5.84,5.84,0,0,1,.26,1.91,6.11,6.11,0,0,1-.26,1.92,5.86,5.86,0,0,1,.26,1.92,6.19,6.19,0,0,1-.26,1.92,5.84,5.84,0,0,1,.26,1.91,6.11,6.11,0,0,1-.26,1.92h-2.59a6.14,6.14,0,0,1,.26,1.92,6.39,6.39,0,0,1-.26,1.91h-2.59a6.19,6.19,0,0,1,.26,1.92,6.46,6.46,0,0,1-.26,1.92H514a6.46,6.46,0,0,1-.26-1.92,6.19,6.19,0,0,1,.26-1.92h5.18a6.39,6.39,0,0,1-.26-1.91,6.14,6.14,0,0,1,.26-1.92h2.59a6.41,6.41,0,0,1-.26-1.92,6.12,6.12,0,0,1,.26-1.91,6.51,6.51,0,0,1-.26-1.92,6.14,6.14,0,0,1,.26-1.92,6.41,6.41,0,0,1-.26-1.92,6.12,6.12,0,0,1,.26-1.91,6.46,6.46,0,0,1-.26-1.92,6.14,6.14,0,0,1,.26-1.92h-5.18a6.39,6.39,0,0,1-.26-1.91,6.14,6.14,0,0,1,.26-1.92H526.9A5.86,5.86,0,0,1,527.16,251.71ZM521.72,246a6.39,6.39,0,0,1-.26-1.91,6.14,6.14,0,0,1,.26-1.92h5.18a5.86,5.86,0,0,1,.26,1.92,6.09,6.09,0,0,1-.26,1.91Z"/><path class="cls-3" d="M558,257.46a5.84,5.84,0,0,1,.26,1.91,6.11,6.11,0,0,1-.26,1.92h-13.6a6.14,6.14,0,0,1,.26,1.92,6.51,6.51,0,0,1-.26,1.92h11a6.12,6.12,0,0,1,.26,1.91,6.41,6.41,0,0,1-.26,1.92H542.45a6.11,6.11,0,0,1-.26-1.92,5.84,5.84,0,0,1,.26-1.91h-3.24a6.51,6.51,0,0,1-.26-1.92,6.14,6.14,0,0,1,.26-1.92h-1.94a6.11,6.11,0,0,1-.26-1.92,5.84,5.84,0,0,1,.26-1.91h1.94a6.46,6.46,0,0,1-.26-1.92,6.14,6.14,0,0,1,.26-1.92h3.24a6.09,6.09,0,0,1-.26-1.91,5.86,5.86,0,0,1,.26-1.92H555.4a6.14,6.14,0,0,1,.26,1.92,6.39,6.39,0,0,1-.26,1.91H558a5.86,5.86,0,0,1,.26,1.92A6.15,6.15,0,0,1,558,257.46Zm-5.44-1.92a6.14,6.14,0,0,1,.26-1.92h-8.42a6.14,6.14,0,0,1,.26,1.92,6.46,6.46,0,0,1-.26,1.92h8.42A6.46,6.46,0,0,1,552.55,255.54Z"/><path class="cls-3" d="M581.57,267a6.41,6.41,0,0,1-.26,1.92H565.77a6.11,6.11,0,0,1-.26-1.92,5.84,5.84,0,0,1,.26-1.91H571a6.19,6.19,0,0,1-.26-1.92,5.86,5.86,0,0,1,.26-1.92,6.11,6.11,0,0,1-.26-1.92,5.84,5.84,0,0,1,.26-1.91,6.15,6.15,0,0,1-.26-1.92,5.86,5.86,0,0,1,.26-1.92,6.09,6.09,0,0,1-.26-1.91,5.86,5.86,0,0,1,.26-1.92,6.11,6.11,0,0,1-.26-1.92A5.94,5.94,0,0,1,571,246h-3.89a6.39,6.39,0,0,1-.26-1.91,6.14,6.14,0,0,1,.26-1.92h9.07a6.14,6.14,0,0,1,.26,1.92,6.39,6.39,0,0,1-.26,1.91,6.23,6.23,0,0,1,.26,1.92,6.41,6.41,0,0,1-.26,1.92,6.14,6.14,0,0,1,.26,1.92,6.39,6.39,0,0,1-.26,1.91,6.14,6.14,0,0,1,.26,1.92,6.46,6.46,0,0,1-.26,1.92,6.12,6.12,0,0,1,.26,1.91,6.41,6.41,0,0,1-.26,1.92,6.14,6.14,0,0,1,.26,1.92,6.51,6.51,0,0,1-.26,1.92h5.18A6.12,6.12,0,0,1,581.57,267Z"/><path class="cls-3" d="M608.52,265.13h-2.59a6.14,6.14,0,0,1,.25,1.91,6.43,6.43,0,0,1-.25,1.92H591.68a6.11,6.11,0,0,1-.26-1.92,5.84,5.84,0,0,1,.26-1.91h11.65a6.51,6.51,0,0,1-.26-1.92,6.14,6.14,0,0,1,.26-1.92H593a6.41,6.41,0,0,1-.26-1.92,6.12,6.12,0,0,1,.26-1.91h-2.59a6.46,6.46,0,0,1-.26-1.92,6.14,6.14,0,0,1,.26-1.92H593a6.39,6.39,0,0,1-.26-1.91,6.14,6.14,0,0,1,.26-1.92h14.25a6.14,6.14,0,0,1,.26,1.92,6.39,6.39,0,0,1-.26,1.91H595.56a6.14,6.14,0,0,1,.26,1.92,6.46,6.46,0,0,1-.26,1.92h10.37a6.14,6.14,0,0,1,.25,1.91,6.43,6.43,0,0,1-.25,1.92h2.59a6.14,6.14,0,0,1,.26,1.92A6.51,6.51,0,0,1,608.52,265.13Z"/><path class="cls-3" d="M635.72,257.46a6.12,6.12,0,0,1,.26,1.91,6.41,6.41,0,0,1-.26,1.92h-13.6a6.14,6.14,0,0,1,.26,1.92,6.51,6.51,0,0,1-.26,1.92h11a6.12,6.12,0,0,1,.26,1.91,6.41,6.41,0,0,1-.26,1.92h-13a6.41,6.41,0,0,1-.26-1.92,6.12,6.12,0,0,1,.26-1.91h-3.23a6.19,6.19,0,0,1-.26-1.92,5.86,5.86,0,0,1,.26-1.92h-2a6.41,6.41,0,0,1-.26-1.92,6.12,6.12,0,0,1,.26-1.91h2a6.15,6.15,0,0,1-.26-1.92,5.86,5.86,0,0,1,.26-1.92h3.23a6.39,6.39,0,0,1-.26-1.91,6.14,6.14,0,0,1,.26-1.92h13a6.14,6.14,0,0,1,.26,1.92,6.39,6.39,0,0,1-.26,1.91h2.59a6.14,6.14,0,0,1,.26,1.92A6.46,6.46,0,0,1,635.72,257.46Zm-5.44-1.92a5.86,5.86,0,0,1,.26-1.92h-8.42a6.14,6.14,0,0,1,.26,1.92,6.46,6.46,0,0,1-.26,1.92h8.42A6.15,6.15,0,0,1,630.28,255.54Z"/><path class="cls-3" d="M661.89,255.54a6.46,6.46,0,0,1-.26,1.92h-5.18a6.15,6.15,0,0,1-.26-1.92,5.86,5.86,0,0,1,.26-1.92h-4.54a6.14,6.14,0,0,1,.26,1.92,6.46,6.46,0,0,1-.26,1.92H650a6.12,6.12,0,0,1,.26,1.91,6.41,6.41,0,0,1-.26,1.92,6.14,6.14,0,0,1,.26,1.92,6.51,6.51,0,0,1-.26,1.92h3.89a6.14,6.14,0,0,1,.25,1.91,6.43,6.43,0,0,1-.25,1.92h-13a6.41,6.41,0,0,1-.26-1.92,6.12,6.12,0,0,1,.26-1.91h3.89a6.19,6.19,0,0,1-.26-1.92,5.86,5.86,0,0,1,.26-1.92,6.11,6.11,0,0,1-.26-1.92,5.84,5.84,0,0,1,.26-1.91,6.15,6.15,0,0,1-.26-1.92,5.86,5.86,0,0,1,.26-1.92H640.9a6.39,6.39,0,0,1-.26-1.91,6.14,6.14,0,0,1,.26-1.92h6.48a6.14,6.14,0,0,1,.26,1.92,6.39,6.39,0,0,1-.26,1.91H650a6.39,6.39,0,0,1-.26-1.91,6.14,6.14,0,0,1,.26-1.92h9.72a6.17,6.17,0,0,1,.25,1.92,6.41,6.41,0,0,1-.25,1.91h1.94A6.14,6.14,0,0,1,661.89,255.54Z"/><path class="cls-3" d="M680.41,265.13a6.12,6.12,0,0,1,.26,1.91,6.41,6.41,0,0,1-.26,1.92h-6.48a6.43,6.43,0,0,1-.25-1.92,6.14,6.14,0,0,1,.25-1.91,6.53,6.53,0,0,1-.25-1.92,6.17,6.17,0,0,1,.25-1.92h6.48a6.14,6.14,0,0,1,.26,1.92A6.51,6.51,0,0,1,680.41,265.13Z"/><path class="cls-3" d="M113.66,322.64a6.14,6.14,0,0,1,.26,1.92,6.39,6.39,0,0,1-.26,1.91h-13a6.09,6.09,0,0,1-.26-1.91,5.86,5.86,0,0,1,.26-1.92h3.88a6.41,6.41,0,0,1-.26-1.92,6.19,6.19,0,0,1,.26-1.92,6.39,6.39,0,0,1-.26-1.91,6.14,6.14,0,0,1,.26-1.92,6.41,6.41,0,0,1-.26-1.92,6.12,6.12,0,0,1,.26-1.91,6.51,6.51,0,0,1-.26-1.92,6.14,6.14,0,0,1,.26-1.92,6.41,6.41,0,0,1-.26-1.92,6.12,6.12,0,0,1,.26-1.91h-3.88a6.11,6.11,0,0,1-.26-1.92,5.86,5.86,0,0,1,.26-1.92h13a6.14,6.14,0,0,1,.26,1.92,6.41,6.41,0,0,1-.26,1.92h-3.89a5.84,5.84,0,0,1,.26,1.91,6.11,6.11,0,0,1-.26,1.92,5.86,5.86,0,0,1,.26,1.92,6.19,6.19,0,0,1-.26,1.92,5.84,5.84,0,0,1,.26,1.91,6.11,6.11,0,0,1-.26,1.92,5.86,5.86,0,0,1,.26,1.92,6.09,6.09,0,0,1-.26,1.91,5.9,5.9,0,0,1,.26,1.92,6.11,6.11,0,0,1-.26,1.92Z"/><path class="cls-3" d="M127.26,311.14h2.59a6.12,6.12,0,0,1,.26,1.91,6.41,6.41,0,0,1-.26,1.92h-1.94a6.14,6.14,0,0,1,.26,1.92,6.39,6.39,0,0,1-.26,1.91,6.19,6.19,0,0,1,.26,1.92,6.41,6.41,0,0,1-.26,1.92,6.14,6.14,0,0,1,.26,1.92,6.39,6.39,0,0,1-.26,1.91h-5.18a6.09,6.09,0,0,1-.26-1.91,5.86,5.86,0,0,1,.26-1.92,6.11,6.11,0,0,1-.26-1.92,5.9,5.9,0,0,1,.26-1.92,6.09,6.09,0,0,1-.26-1.91,5.86,5.86,0,0,1,.26-1.92,6.11,6.11,0,0,1-.26-1.92,5.84,5.84,0,0,1,.26-1.91,6.19,6.19,0,0,1-.26-1.92,5.86,5.86,0,0,1,.26-1.92h4.53a6.14,6.14,0,0,1,.26,1.92A6.51,6.51,0,0,1,127.26,311.14Zm16.45,5.75a6.41,6.41,0,0,1-.25,1.91,6.21,6.21,0,0,1,.25,1.92,6.43,6.43,0,0,1-.25,1.92,6.17,6.17,0,0,1,.25,1.92,6.41,6.41,0,0,1-.25,1.91h-5.19a6.39,6.39,0,0,1-.26-1.91,6.14,6.14,0,0,1,.26-1.92,6.41,6.41,0,0,1-.26-1.92,6.19,6.19,0,0,1,.26-1.92,6.39,6.39,0,0,1-.26-1.91,6.14,6.14,0,0,1,.26-1.92,6.41,6.41,0,0,1-.26-1.92,6.12,6.12,0,0,1,.26-1.91h-8.42a6.51,6.51,0,0,1-.26-1.92,6.14,6.14,0,0,1,.26-1.92h10.37a6.14,6.14,0,0,1,.26,1.92,6.51,6.51,0,0,1-.26,1.92h3.24a6.14,6.14,0,0,1,.25,1.91,6.43,6.43,0,0,1-.25,1.92A6.17,6.17,0,0,1,143.71,316.89Z"/><path class="cls-3" d="M166.77,322.64a6.14,6.14,0,0,1,.26,1.92,6.39,6.39,0,0,1-.26,1.91H156.41a6.39,6.39,0,0,1-.26-1.91,6.14,6.14,0,0,1,.26-1.92h-2.59a6.11,6.11,0,0,1-.26-1.92,5.9,5.9,0,0,1,.26-1.92,6.09,6.09,0,0,1-.26-1.91,5.86,5.86,0,0,1,.26-1.92,6.11,6.11,0,0,1-.26-1.92,5.84,5.84,0,0,1,.26-1.91h-5.18a6.19,6.19,0,0,1-.26-1.92,5.86,5.86,0,0,1,.26-1.92h5.18a6.11,6.11,0,0,1-.26-1.92,5.84,5.84,0,0,1,.26-1.91,6.11,6.11,0,0,1-.26-1.92,5.86,5.86,0,0,1,.26-1.92H159a6.14,6.14,0,0,1,.26,1.92,6.41,6.41,0,0,1-.26,1.92,6.12,6.12,0,0,1,.26,1.91,6.41,6.41,0,0,1-.26,1.92h7.77a6.14,6.14,0,0,1,.26,1.92,6.51,6.51,0,0,1-.26,1.92H159a6.12,6.12,0,0,1,.26,1.91A6.41,6.41,0,0,1,159,315a6.14,6.14,0,0,1,.26,1.92,6.39,6.39,0,0,1-.26,1.91,6.19,6.19,0,0,1,.26,1.92,6.41,6.41,0,0,1-.26,1.92Z"/><path class="cls-3" d="M195.27,315a6.14,6.14,0,0,1,.26,1.92,6.39,6.39,0,0,1-.26,1.91h-13.6a6.19,6.19,0,0,1,.26,1.92,6.41,6.41,0,0,1-.26,1.92h11a6.14,6.14,0,0,1,.26,1.92,6.39,6.39,0,0,1-.26,1.91h-13a6.09,6.09,0,0,1-.26-1.91,5.86,5.86,0,0,1,.26-1.92h-3.24a6.41,6.41,0,0,1-.26-1.92,6.19,6.19,0,0,1,.26-1.92h-1.94a6.09,6.09,0,0,1-.26-1.91,5.86,5.86,0,0,1,.26-1.92h1.94a6.41,6.41,0,0,1-.26-1.92,6.12,6.12,0,0,1,.26-1.91h3.24a6.19,6.19,0,0,1-.26-1.92,5.86,5.86,0,0,1,.26-1.92h13a6.14,6.14,0,0,1,.26,1.92,6.51,6.51,0,0,1-.26,1.92h2.59a6.12,6.12,0,0,1,.26,1.91A6.41,6.41,0,0,1,195.27,315Zm-5.44-1.92a6.12,6.12,0,0,1,.26-1.91h-8.42a6.12,6.12,0,0,1,.26,1.91,6.41,6.41,0,0,1-.26,1.92h8.42A6.41,6.41,0,0,1,189.83,313.05Z"/><path class="cls-3" d="M221.44,313.05a6.41,6.41,0,0,1-.26,1.92H216a6.41,6.41,0,0,1-.26-1.92,6.12,6.12,0,0,1,.26-1.91h-4.53a6.14,6.14,0,0,1,.25,1.91,6.43,6.43,0,0,1-.25,1.92h-1.95a6.14,6.14,0,0,1,.26,1.92,6.39,6.39,0,0,1-.26,1.91,6.19,6.19,0,0,1,.26,1.92,6.41,6.41,0,0,1-.26,1.92h3.89a6.14,6.14,0,0,1,.26,1.92,6.39,6.39,0,0,1-.26,1.91h-13a6.39,6.39,0,0,1-.26-1.91,6.14,6.14,0,0,1,.26-1.92h3.89a6.41,6.41,0,0,1-.26-1.92,6.19,6.19,0,0,1,.26-1.92,6.39,6.39,0,0,1-.26-1.91,6.14,6.14,0,0,1,.26-1.92,6.41,6.41,0,0,1-.26-1.92,6.12,6.12,0,0,1,.26-1.91h-3.89a6.51,6.51,0,0,1-.26-1.92,6.14,6.14,0,0,1,.26-1.92h6.48a6.14,6.14,0,0,1,.26,1.92,6.51,6.51,0,0,1-.26,1.92h2.59a6.51,6.51,0,0,1-.26-1.92,6.14,6.14,0,0,1,.26-1.92h9.72a6.14,6.14,0,0,1,.26,1.92,6.51,6.51,0,0,1-.26,1.92h1.94A6.12,6.12,0,0,1,221.44,313.05Z"/><path class="cls-3" d="M247.09,318.8H244.5a6.19,6.19,0,0,1,.26,1.92,6.41,6.41,0,0,1-.26,1.92h-2.59a6.14,6.14,0,0,1,.26,1.92,6.39,6.39,0,0,1-.26,1.91H231.54a5.86,5.86,0,0,1,.26,1.92,6.19,6.19,0,0,1-.26,1.92,5.84,5.84,0,0,1,.26,1.91,6.11,6.11,0,0,1-.26,1.92h-5.18a6.41,6.41,0,0,1-.26-1.92,6.12,6.12,0,0,1,.26-1.91,6.51,6.51,0,0,1-.26-1.92,6.14,6.14,0,0,1,.26-1.92,6.39,6.39,0,0,1-.26-1.91,6.14,6.14,0,0,1,.26-1.92,6.41,6.41,0,0,1-.26-1.92,6.19,6.19,0,0,1,.26-1.92,6.39,6.39,0,0,1-.26-1.91,6.14,6.14,0,0,1,.26-1.92,6.41,6.41,0,0,1-.26-1.92,6.12,6.12,0,0,1,.26-1.91,6.51,6.51,0,0,1-.26-1.92,6.14,6.14,0,0,1,.26-1.92h5.18a5.86,5.86,0,0,1,.26,1.92,6.19,6.19,0,0,1-.26,1.92h2.6a6.14,6.14,0,0,1,.25,1.91,6.43,6.43,0,0,1-.25,1.92h-2.6a5.86,5.86,0,0,1,.26,1.92,6.09,6.09,0,0,1-.26,1.91,5.9,5.9,0,0,1,.26,1.92,6.11,6.11,0,0,1-.26,1.92h7.78a6.11,6.11,0,0,1-.26-1.92,5.9,5.9,0,0,1,.26-1.92h2.59a6.09,6.09,0,0,1-.26-1.91,5.86,5.86,0,0,1,.26-1.92h-2.59a6.11,6.11,0,0,1-.26-1.92,5.84,5.84,0,0,1,.26-1.91h-5.18a6.19,6.19,0,0,1-.26-1.92,5.86,5.86,0,0,1,.26-1.92h7.77a6.14,6.14,0,0,1,.26,1.92,6.51,6.51,0,0,1-.26,1.92h2.59a6.12,6.12,0,0,1,.26,1.91,6.41,6.41,0,0,1-.26,1.92h2.59a6.14,6.14,0,0,1,.26,1.92A6.39,6.39,0,0,1,247.09,318.8Z"/><path class="cls-3" d="M273,318.8h-1.94a6.21,6.21,0,0,1,.25,1.92,6.43,6.43,0,0,1-.25,1.92h-3.24a6.14,6.14,0,0,1,.26,1.92,6.39,6.39,0,0,1-.26,1.91H257.45a6.39,6.39,0,0,1-.26-1.91,6.14,6.14,0,0,1,.26-1.92h-3.24a6.43,6.43,0,0,1-.25-1.92,6.21,6.21,0,0,1,.25-1.92h-1.94a6.39,6.39,0,0,1-.26-1.91,6.14,6.14,0,0,1,.26-1.92h1.94a6.43,6.43,0,0,1-.25-1.92,6.14,6.14,0,0,1,.25-1.91h3.24a6.51,6.51,0,0,1-.26-1.92,6.14,6.14,0,0,1,.26-1.92h10.37a6.14,6.14,0,0,1,.26,1.92,6.51,6.51,0,0,1-.26,1.92h3.24a6.14,6.14,0,0,1,.25,1.91,6.43,6.43,0,0,1-.25,1.92H273a6.14,6.14,0,0,1,.26,1.92A6.39,6.39,0,0,1,273,318.8Zm-5.18,0a6.09,6.09,0,0,1-.26-1.91,5.86,5.86,0,0,1,.26-1.92h-1.95a6.41,6.41,0,0,1-.26-1.92,6.12,6.12,0,0,1,.26-1.91H259.4a6.14,6.14,0,0,1,.25,1.91,6.43,6.43,0,0,1-.25,1.92h-1.95a6.14,6.14,0,0,1,.26,1.92,6.39,6.39,0,0,1-.26,1.91h1.95a6.21,6.21,0,0,1,.25,1.92,6.43,6.43,0,0,1-.25,1.92h6.47a6.41,6.41,0,0,1-.26-1.92,6.19,6.19,0,0,1,.26-1.92Z"/><path class="cls-3" d="M296.58,324.56a6.39,6.39,0,0,1-.26,1.91H280.77a6.39,6.39,0,0,1-.26-1.91,6.14,6.14,0,0,1,.26-1.92H286a6.41,6.41,0,0,1-.26-1.92,6.19,6.19,0,0,1,.26-1.92,6.39,6.39,0,0,1-.26-1.91A6.14,6.14,0,0,1,286,315a6.41,6.41,0,0,1-.26-1.92,6.12,6.12,0,0,1,.26-1.91,6.51,6.51,0,0,1-.26-1.92,6.14,6.14,0,0,1,.26-1.92,6.41,6.41,0,0,1-.26-1.92,6.12,6.12,0,0,1,.26-1.91h-3.88a6.11,6.11,0,0,1-.26-1.92,5.86,5.86,0,0,1,.26-1.92h9.06a5.86,5.86,0,0,1,.26,1.92,6.11,6.11,0,0,1-.26,1.92,5.84,5.84,0,0,1,.26,1.91,6.11,6.11,0,0,1-.26,1.92,5.86,5.86,0,0,1,.26,1.92,6.19,6.19,0,0,1-.26,1.92,5.84,5.84,0,0,1,.26,1.91,6.11,6.11,0,0,1-.26,1.92,5.86,5.86,0,0,1,.26,1.92,6.09,6.09,0,0,1-.26,1.91,5.9,5.9,0,0,1,.26,1.92,6.11,6.11,0,0,1-.26,1.92h5.19A6.14,6.14,0,0,1,296.58,324.56Z"/><path class="cls-3" d="M350.72,315a5.86,5.86,0,0,1,.26,1.92,6.09,6.09,0,0,1-.26,1.91h-13.6a6.19,6.19,0,0,1,.26,1.92,6.41,6.41,0,0,1-.26,1.92h11a5.86,5.86,0,0,1,.26,1.92,6.09,6.09,0,0,1-.26,1.91H335.18a6.39,6.39,0,0,1-.26-1.91,6.14,6.14,0,0,1,.26-1.92h-3.24a6.41,6.41,0,0,1-.26-1.92,6.19,6.19,0,0,1,.26-1.92H330a6.09,6.09,0,0,1-.26-1.91A5.86,5.86,0,0,1,330,315h1.94a6.41,6.41,0,0,1-.26-1.92,6.12,6.12,0,0,1,.26-1.91h3.24a6.51,6.51,0,0,1-.26-1.92,6.14,6.14,0,0,1,.26-1.92h12.95a5.86,5.86,0,0,1,.26,1.92,6.19,6.19,0,0,1-.26,1.92h2.59a5.84,5.84,0,0,1,.26,1.91A6.11,6.11,0,0,1,350.72,315Zm-5.44-1.92a6.12,6.12,0,0,1,.26-1.91h-8.42a6.12,6.12,0,0,1,.26,1.91,6.41,6.41,0,0,1-.26,1.92h8.42A6.41,6.41,0,0,1,345.28,313.05Z"/><path class="cls-3" d="M376.89,313.05a6.11,6.11,0,0,1-.26,1.92h-5.18a6.41,6.41,0,0,1-.26-1.92,6.12,6.12,0,0,1,.26-1.91h-4.53a6.12,6.12,0,0,1,.26,1.91,6.41,6.41,0,0,1-.26,1.92H365a5.86,5.86,0,0,1,.26,1.92,6.09,6.09,0,0,1-.26,1.91,5.9,5.9,0,0,1,.26,1.92,6.11,6.11,0,0,1-.26,1.92h3.89a6.14,6.14,0,0,1,.26,1.92,6.39,6.39,0,0,1-.26,1.91H355.91a6.09,6.09,0,0,1-.26-1.91,5.86,5.86,0,0,1,.26-1.92h3.88a6.41,6.41,0,0,1-.26-1.92,6.19,6.19,0,0,1,.26-1.92,6.39,6.39,0,0,1-.26-1.91,6.14,6.14,0,0,1,.26-1.92,6.41,6.41,0,0,1-.26-1.92,6.12,6.12,0,0,1,.26-1.91h-3.88a6.19,6.19,0,0,1-.26-1.92,5.86,5.86,0,0,1,.26-1.92h6.47a5.86,5.86,0,0,1,.26,1.92,6.19,6.19,0,0,1-.26,1.92H365a6.53,6.53,0,0,1-.25-1.92,6.17,6.17,0,0,1,.25-1.92h9.72a6.14,6.14,0,0,1,.26,1.92,6.51,6.51,0,0,1-.26,1.92h1.94A5.84,5.84,0,0,1,376.89,313.05Z"/><path class="cls-3" d="M426.12,324.56a6.39,6.39,0,0,1-.26,1.91H410.31a6.41,6.41,0,0,1-.25-1.91,6.17,6.17,0,0,1,.25-1.92h5.19a6.11,6.11,0,0,1-.26-1.92,5.9,5.9,0,0,1,.26-1.92,6.09,6.09,0,0,1-.26-1.91,5.86,5.86,0,0,1,.26-1.92,6.11,6.11,0,0,1-.26-1.92,5.84,5.84,0,0,1,.26-1.91,6.19,6.19,0,0,1-.26-1.92,5.86,5.86,0,0,1,.26-1.92,6.11,6.11,0,0,1-.26-1.92,5.84,5.84,0,0,1,.26-1.91h-3.89a6.41,6.41,0,0,1-.26-1.92,6.14,6.14,0,0,1,.26-1.92h9.07a6.14,6.14,0,0,1,.26,1.92,6.41,6.41,0,0,1-.26,1.92,6.12,6.12,0,0,1,.26,1.91,6.41,6.41,0,0,1-.26,1.92,6.14,6.14,0,0,1,.26,1.92,6.51,6.51,0,0,1-.26,1.92,6.12,6.12,0,0,1,.26,1.91,6.41,6.41,0,0,1-.26,1.92,6.14,6.14,0,0,1,.26,1.92,6.39,6.39,0,0,1-.26,1.91,6.19,6.19,0,0,1,.26,1.92,6.41,6.41,0,0,1-.26,1.92h5.18A6.14,6.14,0,0,1,426.12,324.56Z"/><path class="cls-3" d="M452,324.56a6.39,6.39,0,0,1-.26,1.91H436.22a6.39,6.39,0,0,1-.26-1.91,6.14,6.14,0,0,1,.26-1.92h5.19a6.11,6.11,0,0,1-.26-1.92,5.9,5.9,0,0,1,.26-1.92,6.09,6.09,0,0,1-.26-1.91,5.86,5.86,0,0,1,.26-1.92,6.11,6.11,0,0,1-.26-1.92,5.84,5.84,0,0,1,.26-1.91h-3.89a6.19,6.19,0,0,1-.26-1.92,5.86,5.86,0,0,1,.26-1.92h9.07a6.14,6.14,0,0,1,.26,1.92,6.51,6.51,0,0,1-.26,1.92,6.12,6.12,0,0,1,.26,1.91,6.41,6.41,0,0,1-.26,1.92,6.14,6.14,0,0,1,.26,1.92,6.39,6.39,0,0,1-.26,1.91,6.19,6.19,0,0,1,.26,1.92,6.41,6.41,0,0,1-.26,1.92h5.18A6.14,6.14,0,0,1,452,324.56Zm-10.62-21.09a6.11,6.11,0,0,1-.26-1.92,5.86,5.86,0,0,1,.26-1.92h5.18a6.14,6.14,0,0,1,.26,1.92,6.41,6.41,0,0,1-.26,1.92Z"/><path class="cls-3" d="M480.53,313.05a6.41,6.41,0,0,1-.26,1.92,6.14,6.14,0,0,1,.26,1.92,6.39,6.39,0,0,1-.26,1.91,6.19,6.19,0,0,1,.26,1.92,6.41,6.41,0,0,1-.26,1.92,6.14,6.14,0,0,1,.26,1.92,6.39,6.39,0,0,1-.26,1.91h-2.59a6.14,6.14,0,0,1,.26,1.92,6.51,6.51,0,0,1-.26,1.92h-2.59a6.14,6.14,0,0,1,.25,1.91,6.43,6.43,0,0,1-.25,1.92H464.72a6.41,6.41,0,0,1-.26-1.92,6.12,6.12,0,0,1,.26-1.91h7.77a6.53,6.53,0,0,1-.25-1.92,6.17,6.17,0,0,1,.25-1.92h2.6a6.09,6.09,0,0,1-.26-1.91,5.86,5.86,0,0,1,.26-1.92h-2.6a6.43,6.43,0,0,1-.25-1.92,6.21,6.21,0,0,1,.25-1.92h2.6a6.09,6.09,0,0,1-.26-1.91,5.86,5.86,0,0,1,.26-1.92,6.11,6.11,0,0,1-.26-1.92,5.84,5.84,0,0,1,.26-1.91h-8.42a6.14,6.14,0,0,1,.25,1.91,6.43,6.43,0,0,1-.25,1.92h-1.95a6.14,6.14,0,0,1,.26,1.92,6.39,6.39,0,0,1-.26,1.91h1.95a6.21,6.21,0,0,1,.25,1.92,6.43,6.43,0,0,1-.25,1.92h5.82a5.86,5.86,0,0,1,.26,1.92,6.09,6.09,0,0,1-.26,1.91h-7.77a6.39,6.39,0,0,1-.26-1.91,6.14,6.14,0,0,1,.26-1.92h-3.24a6.41,6.41,0,0,1-.26-1.92,6.19,6.19,0,0,1,.26-1.92h-1.94a6.39,6.39,0,0,1-.26-1.91,6.14,6.14,0,0,1,.26-1.92h1.94a6.41,6.41,0,0,1-.26-1.92,6.12,6.12,0,0,1,.26-1.91h3.24a6.51,6.51,0,0,1-.26-1.92,6.14,6.14,0,0,1,.26-1.92h15.55a6.14,6.14,0,0,1,.26,1.92,6.51,6.51,0,0,1-.26,1.92A6.12,6.12,0,0,1,480.53,313.05Z"/><path class="cls-3" d="M506.18,315a6.14,6.14,0,0,1,.26,1.92,6.39,6.39,0,0,1-.26,1.91H492.57a5.9,5.9,0,0,1,.26,1.92,6.11,6.11,0,0,1-.26,1.92h11a6.17,6.17,0,0,1,.25,1.92,6.41,6.41,0,0,1-.25,1.91h-13a6.39,6.39,0,0,1-.26-1.91,6.14,6.14,0,0,1,.26-1.92h-3.24a6.41,6.41,0,0,1-.26-1.92,6.19,6.19,0,0,1,.26-1.92h-1.94a6.39,6.39,0,0,1-.26-1.91,6.14,6.14,0,0,1,.26-1.92h1.94a6.41,6.41,0,0,1-.26-1.92,6.12,6.12,0,0,1,.26-1.91h3.24a6.51,6.51,0,0,1-.26-1.92,6.14,6.14,0,0,1,.26-1.92h13a6.17,6.17,0,0,1,.25,1.92,6.53,6.53,0,0,1-.25,1.92h2.59a6.12,6.12,0,0,1,.26,1.91A6.41,6.41,0,0,1,506.18,315Zm-5.44-1.92a6.14,6.14,0,0,1,.25-1.91h-8.42a5.84,5.84,0,0,1,.26,1.91,6.11,6.11,0,0,1-.26,1.92H501A6.43,6.43,0,0,1,500.74,313.05Z"/><path class="cls-3" d="M555.66,324.56a6.39,6.39,0,0,1-.26,1.91H539.86a6.09,6.09,0,0,1-.26-1.91,5.86,5.86,0,0,1,.26-1.92H545a6.41,6.41,0,0,1-.26-1.92,6.19,6.19,0,0,1,.26-1.92,6.39,6.39,0,0,1-.26-1.91A6.14,6.14,0,0,1,545,315a6.41,6.41,0,0,1-.26-1.92,6.12,6.12,0,0,1,.26-1.91h-3.89a6.51,6.51,0,0,1-.26-1.92,6.14,6.14,0,0,1,.26-1.92h9.07a6.14,6.14,0,0,1,.26,1.92,6.51,6.51,0,0,1-.26,1.92,6.12,6.12,0,0,1,.26,1.91,6.41,6.41,0,0,1-.26,1.92,6.14,6.14,0,0,1,.26,1.92,6.39,6.39,0,0,1-.26,1.91,6.19,6.19,0,0,1,.26,1.92,6.41,6.41,0,0,1-.26,1.92h5.18A6.14,6.14,0,0,1,555.66,324.56ZM545,303.47a6.41,6.41,0,0,1-.26-1.92,6.14,6.14,0,0,1,.26-1.92h5.18a6.14,6.14,0,0,1,.26,1.92,6.41,6.41,0,0,1-.26,1.92Z"/><path class="cls-3" d="M594.27,311.14h1.94a6.12,6.12,0,0,1,.26,1.91,6.41,6.41,0,0,1-.26,1.92h-1.94a6.14,6.14,0,0,1,.26,1.92,6.39,6.39,0,0,1-.26,1.91,6.19,6.19,0,0,1,.26,1.92,6.41,6.41,0,0,1-.26,1.92,6.14,6.14,0,0,1,.26,1.92,6.39,6.39,0,0,1-.26,1.91h-5.19a6.39,6.39,0,0,1-.26-1.91,6.14,6.14,0,0,1,.26-1.92,6.41,6.41,0,0,1-.26-1.92,6.19,6.19,0,0,1,.26-1.92,6.39,6.39,0,0,1-.26-1.91,6.14,6.14,0,0,1,.26-1.92,6.41,6.41,0,0,1-.26-1.92,6.12,6.12,0,0,1,.26-1.91,6.51,6.51,0,0,1-.26-1.92,6.14,6.14,0,0,1,.26-1.92,6.41,6.41,0,0,1-.26-1.92,6.12,6.12,0,0,1,.26-1.91,6.41,6.41,0,0,1-.26-1.92,6.14,6.14,0,0,1,.26-1.92h5.19a6.14,6.14,0,0,1,.26,1.92,6.41,6.41,0,0,1-.26,1.92,6.12,6.12,0,0,1,.26,1.91,6.41,6.41,0,0,1-.26,1.92,6.14,6.14,0,0,1,.26,1.92A6.51,6.51,0,0,1,594.27,311.14Zm15.8,5.75a6.39,6.39,0,0,1-.26,1.91,6.19,6.19,0,0,1,.26,1.92,6.41,6.41,0,0,1-.26,1.92,6.14,6.14,0,0,1,.26,1.92,6.39,6.39,0,0,1-.26,1.91h-5.18a6.39,6.39,0,0,1-.26-1.91,6.14,6.14,0,0,1,.26-1.92,6.41,6.41,0,0,1-.26-1.92,6.19,6.19,0,0,1,.26-1.92,6.39,6.39,0,0,1-.26-1.91,6.14,6.14,0,0,1,.26-1.92,6.41,6.41,0,0,1-.26-1.92,6.12,6.12,0,0,1,.26-1.91h-8.42a6.51,6.51,0,0,1-.26-1.92,6.14,6.14,0,0,1,.26-1.92h10.36a6.14,6.14,0,0,1,.26,1.92,6.51,6.51,0,0,1-.26,1.92h3.24a6.12,6.12,0,0,1,.26,1.91,6.41,6.41,0,0,1-.26,1.92A6.14,6.14,0,0,1,610.07,316.89Z"/><path class="cls-3" d="M635.72,318.8h-6.48a6.19,6.19,0,0,1,.26,1.92,6.41,6.41,0,0,1-.26,1.92h6.48a6.14,6.14,0,0,1,.26,1.92,6.39,6.39,0,0,1-.26,1.91H628a6.09,6.09,0,0,1-.26-1.91,5.86,5.86,0,0,1,.26-1.92h-2.59a6.17,6.17,0,0,1,.25,1.92,6.41,6.41,0,0,1-.25,1.91h-7.78a6.39,6.39,0,0,1-.26-1.91,6.14,6.14,0,0,1,.26-1.92H615a6.41,6.41,0,0,1-.26-1.92,6.19,6.19,0,0,1,.26-1.92h2.59a6.39,6.39,0,0,1-.26-1.91,6.14,6.14,0,0,1,.26-1.92h6.48a6.41,6.41,0,0,1-.26-1.92,6.12,6.12,0,0,1,.26-1.91h-5.18a6.19,6.19,0,0,1-.26-1.92,5.86,5.86,0,0,1,.26-1.92h6.48a6.17,6.17,0,0,1,.25,1.92,6.53,6.53,0,0,1-.25,1.92H628a6.19,6.19,0,0,1-.26-1.92,5.86,5.86,0,0,1,.26-1.92h6.47a5.86,5.86,0,0,1,.26,1.92,6.19,6.19,0,0,1-.26,1.92h1.3a6.12,6.12,0,0,1,.26,1.91,6.41,6.41,0,0,1-.26,1.92,6.14,6.14,0,0,1,.26,1.92A6.39,6.39,0,0,1,635.72,318.8Zm-11.66,3.84a6.41,6.41,0,0,1-.26-1.92,6.19,6.19,0,0,1,.26-1.92h-3.89a5.9,5.9,0,0,1,.26,1.92,6.11,6.11,0,0,1-.26,1.92Zm9.07-7.67a6.11,6.11,0,0,1-.26-1.92,5.84,5.84,0,0,1,.26-1.91h-3.89a6.12,6.12,0,0,1,.26,1.91,6.41,6.41,0,0,1-.26,1.92Z"/><path class="cls-3" d="M659.3,324.56a6.39,6.39,0,0,1-.26,1.91H643.49a6.39,6.39,0,0,1-.26-1.91,6.14,6.14,0,0,1,.26-1.92h5.18a6.41,6.41,0,0,1-.26-1.92,6.19,6.19,0,0,1,.26-1.92,6.39,6.39,0,0,1-.26-1.91,6.14,6.14,0,0,1,.26-1.92,6.41,6.41,0,0,1-.26-1.92,6.12,6.12,0,0,1,.26-1.91,6.51,6.51,0,0,1-.26-1.92,6.14,6.14,0,0,1,.26-1.92,6.41,6.41,0,0,1-.26-1.92,6.12,6.12,0,0,1,.26-1.91h-3.88a6.11,6.11,0,0,1-.26-1.92,5.86,5.86,0,0,1,.26-1.92h9.07a6.17,6.17,0,0,1,.25,1.92,6.43,6.43,0,0,1-.25,1.92,6.14,6.14,0,0,1,.25,1.91,6.43,6.43,0,0,1-.25,1.92,6.17,6.17,0,0,1,.25,1.92,6.53,6.53,0,0,1-.25,1.92,6.14,6.14,0,0,1,.25,1.91,6.43,6.43,0,0,1-.25,1.92,6.17,6.17,0,0,1,.25,1.92,6.41,6.41,0,0,1-.25,1.91,6.21,6.21,0,0,1,.25,1.92,6.43,6.43,0,0,1-.25,1.92H659A6.14,6.14,0,0,1,659.3,324.56Z"/><path class="cls-3" d="M687.54,315a6.14,6.14,0,0,1,.26,1.92,6.39,6.39,0,0,1-.26,1.91H673.93a5.9,5.9,0,0,1,.26,1.92,6.11,6.11,0,0,1-.26,1.92h11a6.14,6.14,0,0,1,.26,1.92,6.39,6.39,0,0,1-.26,1.91H672a6.39,6.39,0,0,1-.26-1.91,6.14,6.14,0,0,1,.26-1.92h-3.24a6.41,6.41,0,0,1-.26-1.92,6.19,6.19,0,0,1,.26-1.92h-1.94a6.39,6.39,0,0,1-.26-1.91,6.14,6.14,0,0,1,.26-1.92h1.94a6.41,6.41,0,0,1-.26-1.92,6.12,6.12,0,0,1,.26-1.91H672a6.51,6.51,0,0,1-.26-1.92,6.14,6.14,0,0,1,.26-1.92h13a6.14,6.14,0,0,1,.26,1.92,6.51,6.51,0,0,1-.26,1.92h2.59a6.12,6.12,0,0,1,.26,1.91A6.41,6.41,0,0,1,687.54,315Zm-5.44-1.92a5.84,5.84,0,0,1,.26-1.91h-8.43a5.84,5.84,0,0,1,.26,1.91,6.11,6.11,0,0,1-.26,1.92h8.43A6.11,6.11,0,0,1,682.1,313.05Z"/><path class="cls-3" d="M697.25,311.14h2.59a5.84,5.84,0,0,1,.26,1.91,6.11,6.11,0,0,1-.26,1.92H697.9a6.14,6.14,0,0,1,.26,1.92,6.39,6.39,0,0,1-.26,1.91,6.19,6.19,0,0,1,.26,1.92,6.41,6.41,0,0,1-.26,1.92,6.14,6.14,0,0,1,.26,1.92,6.39,6.39,0,0,1-.26,1.91h-5.18a6.39,6.39,0,0,1-.26-1.91,6.14,6.14,0,0,1,.26-1.92,6.41,6.41,0,0,1-.26-1.92,6.19,6.19,0,0,1,.26-1.92,6.39,6.39,0,0,1-.26-1.91,6.14,6.14,0,0,1,.26-1.92,6.41,6.41,0,0,1-.26-1.92,6.12,6.12,0,0,1,.26-1.91,6.51,6.51,0,0,1-.26-1.92,6.14,6.14,0,0,1,.26-1.92h4.53a6.14,6.14,0,0,1,.26,1.92A6.51,6.51,0,0,1,697.25,311.14Zm16.46,5.75a6.39,6.39,0,0,1-.26,1.91,6.19,6.19,0,0,1,.26,1.92,6.41,6.41,0,0,1-.26,1.92,6.14,6.14,0,0,1,.26,1.92,6.39,6.39,0,0,1-.26,1.91h-5.19a6.39,6.39,0,0,1-.26-1.91,6.14,6.14,0,0,1,.26-1.92,6.41,6.41,0,0,1-.26-1.92,6.19,6.19,0,0,1,.26-1.92,6.39,6.39,0,0,1-.26-1.91,6.14,6.14,0,0,1,.26-1.92,6.41,6.41,0,0,1-.26-1.92,6.12,6.12,0,0,1,.26-1.91h-8.42a6.51,6.51,0,0,1-.26-1.92,6.14,6.14,0,0,1,.26-1.92h10.37a6.14,6.14,0,0,1,.26,1.92,6.51,6.51,0,0,1-.26,1.92h3.24a6.12,6.12,0,0,1,.26,1.91,6.41,6.41,0,0,1-.26,1.92A6.14,6.14,0,0,1,713.71,316.89Z"/><path class="cls-3" d="M739.35,315a5.86,5.86,0,0,1,.26,1.92,6.09,6.09,0,0,1-.26,1.91h-13.6a6.19,6.19,0,0,1,.26,1.92,6.41,6.41,0,0,1-.26,1.92h11a5.86,5.86,0,0,1,.26,1.92,6.09,6.09,0,0,1-.26,1.91h-13a6.39,6.39,0,0,1-.26-1.91,6.14,6.14,0,0,1,.26-1.92h-3.24a6.41,6.41,0,0,1-.26-1.92,6.19,6.19,0,0,1,.26-1.92h-1.94a6.09,6.09,0,0,1-.26-1.91,5.86,5.86,0,0,1,.26-1.92h1.94a6.41,6.41,0,0,1-.26-1.92,6.12,6.12,0,0,1,.26-1.91h3.24a6.51,6.51,0,0,1-.26-1.92,6.14,6.14,0,0,1,.26-1.92h13a5.86,5.86,0,0,1,.26,1.92,6.19,6.19,0,0,1-.26,1.92h2.59a5.84,5.84,0,0,1,.26,1.91A6.11,6.11,0,0,1,739.35,315Zm-5.44-1.92a6.12,6.12,0,0,1,.26-1.91h-8.42a6.12,6.12,0,0,1,.26,1.91,6.41,6.41,0,0,1-.26,1.92h8.42A6.41,6.41,0,0,1,733.91,313.05Z"/><path class="cls-3" d="M117.55,376.32H115a6.17,6.17,0,0,1,.25,1.92,6.41,6.41,0,0,1-.25,1.91h-2.6a5.86,5.86,0,0,1,.26,1.92,6.19,6.19,0,0,1-.26,1.92H102a6.12,6.12,0,0,1,.26,1.91,6.41,6.41,0,0,1-.26,1.92,6.14,6.14,0,0,1,.26,1.92,6.39,6.39,0,0,1-.26,1.91H96.82a6.39,6.39,0,0,1-.26-1.91,6.14,6.14,0,0,1,.26-1.92,6.41,6.41,0,0,1-.26-1.92,6.12,6.12,0,0,1,.26-1.91,6.51,6.51,0,0,1-.26-1.92,6.14,6.14,0,0,1,.26-1.92,6.39,6.39,0,0,1-.26-1.91,6.14,6.14,0,0,1,.26-1.92,6.46,6.46,0,0,1-.26-1.92,6.19,6.19,0,0,1,.26-1.92,6.39,6.39,0,0,1-.26-1.91,6.14,6.14,0,0,1,.26-1.92,6.41,6.41,0,0,1-.26-1.92,6.12,6.12,0,0,1,.26-1.91H102a6.12,6.12,0,0,1,.26,1.91,6.41,6.41,0,0,1-.26,1.92h2.59a6.14,6.14,0,0,1,.26,1.92,6.39,6.39,0,0,1-.26,1.91H102a6.19,6.19,0,0,1,.26,1.92,6.46,6.46,0,0,1-.26,1.92,6.14,6.14,0,0,1,.26,1.92,6.39,6.39,0,0,1-.26,1.91h7.77a6.39,6.39,0,0,1-.26-1.91,6.14,6.14,0,0,1,.26-1.92h2.59a6.48,6.48,0,0,1-.25-1.92,6.21,6.21,0,0,1,.25-1.92h-2.59a6.39,6.39,0,0,1-.26-1.91,6.14,6.14,0,0,1,.26-1.92h-5.18a6.41,6.41,0,0,1-.26-1.92,6.12,6.12,0,0,1,.26-1.91h7.77a5.84,5.84,0,0,1,.26,1.91,6.11,6.11,0,0,1-.26,1.92H115a6.17,6.17,0,0,1,.25,1.92,6.41,6.41,0,0,1-.25,1.91h2.59a6.19,6.19,0,0,1,.26,1.92A6.46,6.46,0,0,1,117.55,376.32Z"/><path class="cls-3" d="M143.71,382.07a6.53,6.53,0,0,1-.25,1.92h-5.19a6.51,6.51,0,0,1-.26-1.92,6.14,6.14,0,0,1,.26-1.92h-2.59a6.39,6.39,0,0,1-.26-1.91,6.14,6.14,0,0,1,.26-1.92h-7.77a6.14,6.14,0,0,1,.26,1.92,6.39,6.39,0,0,1-.26,1.91h7.77a6.14,6.14,0,0,1,.26,1.92,6.51,6.51,0,0,1-.26,1.92H125.32a6.51,6.51,0,0,1-.26-1.92,6.14,6.14,0,0,1,.26-1.92h-2.59a6.09,6.09,0,0,1-.26-1.91,5.86,5.86,0,0,1,.26-1.92h2.59a6.46,6.46,0,0,1-.26-1.92,6.19,6.19,0,0,1,.26-1.92h10.36a6.39,6.39,0,0,1-.26-1.91,6.14,6.14,0,0,1,.26-1.92h-9.07a6.41,6.41,0,0,1-.26-1.92,6.12,6.12,0,0,1,.26-1.91h11.66a5.84,5.84,0,0,1,.26,1.91,6.11,6.11,0,0,1-.26,1.92h2.59a5.86,5.86,0,0,1,.26,1.92,6.09,6.09,0,0,1-.26,1.91,5.9,5.9,0,0,1,.26,1.92,6.15,6.15,0,0,1-.26,1.92,5.86,5.86,0,0,1,.26,1.92,6.09,6.09,0,0,1-.26,1.91h2.6A6.17,6.17,0,0,1,143.71,382.07Zm-3.49-24.92h-1.95a5.84,5.84,0,0,1,.26,1.91,6.11,6.11,0,0,1-.26,1.92H127.91a6.41,6.41,0,0,1-.26-1.92,6.12,6.12,0,0,1,.26-1.91H126a6.19,6.19,0,0,1-.26-1.92,5.86,5.86,0,0,1,.26-1.92h1.94a6.41,6.41,0,0,1-.26-1.92,6.12,6.12,0,0,1,.26-1.91h10.36a5.84,5.84,0,0,1,.26,1.91,6.11,6.11,0,0,1-.26,1.92h1.95a6.14,6.14,0,0,1,.26,1.92A6.51,6.51,0,0,1,140.22,357.15Zm-3.89,0a6.51,6.51,0,0,1-.26-1.92,6.14,6.14,0,0,1,.26-1.92h-6.48a6.14,6.14,0,0,1,.26,1.92,6.51,6.51,0,0,1-.26,1.92Z"/><path class="cls-3" d="M186.85,368.65h-6.48a5.86,5.86,0,0,1,.26,1.92,6.09,6.09,0,0,1-.26,1.91h-1.94a6.19,6.19,0,0,1,.26,1.92,6.46,6.46,0,0,1-.26,1.92h1.94a5.86,5.86,0,0,1,.26,1.92,6.09,6.09,0,0,1-.26,1.91h6.48a6.14,6.14,0,0,1,.26,1.92,6.51,6.51,0,0,1-.26,1.92h-7.12a6.19,6.19,0,0,1-.26-1.92,5.86,5.86,0,0,1,.26-1.92h-3.24a6.39,6.39,0,0,1-.26-1.91,6.14,6.14,0,0,1,.26-1.92h-1.94a6.15,6.15,0,0,1-.26-1.92,5.9,5.9,0,0,1,.26-1.92h1.94a6.39,6.39,0,0,1-.26-1.91,6.14,6.14,0,0,1,.26-1.92h3.24a6.11,6.11,0,0,1-.26-1.92,5.84,5.84,0,0,1,.26-1.91h7.12a6.12,6.12,0,0,1,.26,1.91A6.41,6.41,0,0,1,186.85,368.65Zm8.68-5.75a6.51,6.51,0,0,1-.26,1.92,6.12,6.12,0,0,1,.26,1.91,6.41,6.41,0,0,1-.26,1.92,6.14,6.14,0,0,1,.26,1.92,6.39,6.39,0,0,1-.26,1.91,6.19,6.19,0,0,1,.26,1.92,6.46,6.46,0,0,1-.26,1.92,6.14,6.14,0,0,1,.26,1.92,6.39,6.39,0,0,1-.26,1.91,6.14,6.14,0,0,1,.26,1.92,6.51,6.51,0,0,1-.26,1.92h-5.18a6.51,6.51,0,0,1-.26-1.92,6.14,6.14,0,0,1,.26-1.92h-1.94a6.09,6.09,0,0,1-.26-1.91,5.86,5.86,0,0,1,.26-1.92h1.94a6.46,6.46,0,0,1-.26-1.92,6.19,6.19,0,0,1,.26-1.92h-1.94a6.09,6.09,0,0,1-.26-1.91,5.86,5.86,0,0,1,.26-1.92h1.94a6.41,6.41,0,0,1-.26-1.92,6.12,6.12,0,0,1,.26-1.91,6.51,6.51,0,0,1-.26-1.92,6.14,6.14,0,0,1,.26-1.92,6.41,6.41,0,0,1-.26-1.92,6.12,6.12,0,0,1,.26-1.91h5.18a6.12,6.12,0,0,1,.26,1.91,6.41,6.41,0,0,1-.26,1.92A6.14,6.14,0,0,1,195.53,362.9Z"/><path class="cls-3" d="M218.85,382.07a6.51,6.51,0,0,1-.26,1.92H203a6.53,6.53,0,0,1-.25-1.92,6.17,6.17,0,0,1,.25-1.92h5.19a6.09,6.09,0,0,1-.26-1.91,5.86,5.86,0,0,1,.26-1.92,6.15,6.15,0,0,1-.26-1.92,5.9,5.9,0,0,1,.26-1.92,6.09,6.09,0,0,1-.26-1.91,5.86,5.86,0,0,1,.26-1.92h-3.89a6.41,6.41,0,0,1-.26-1.92,6.12,6.12,0,0,1,.26-1.91h9.07a6.12,6.12,0,0,1,.26,1.91,6.41,6.41,0,0,1-.26,1.92,6.14,6.14,0,0,1,.26,1.92,6.39,6.39,0,0,1-.26,1.91,6.19,6.19,0,0,1,.26,1.92,6.46,6.46,0,0,1-.26,1.92,6.14,6.14,0,0,1,.26,1.92,6.39,6.39,0,0,1-.26,1.91h5.18A6.14,6.14,0,0,1,218.85,382.07ZM208.23,361a6.11,6.11,0,0,1-.26-1.92,5.84,5.84,0,0,1,.26-1.91h5.18a6.12,6.12,0,0,1,.26,1.91,6.41,6.41,0,0,1-.26,1.92Z"/><path class="cls-3" d="M247.35,370.57a6.39,6.39,0,0,1-.26,1.91,6.19,6.19,0,0,1,.26,1.92,6.46,6.46,0,0,1-.26,1.92,6.14,6.14,0,0,1,.26,1.92,6.39,6.39,0,0,1-.26,1.91,6.14,6.14,0,0,1,.26,1.92,6.51,6.51,0,0,1-.26,1.92H244.5a6.12,6.12,0,0,1,.26,1.91,6.41,6.41,0,0,1-.26,1.92h-2.59a6.14,6.14,0,0,1,.26,1.92,6.39,6.39,0,0,1-.26,1.91H231.54a6.39,6.39,0,0,1-.26-1.91,6.14,6.14,0,0,1,.26-1.92h7.78a6.11,6.11,0,0,1-.26-1.92,5.84,5.84,0,0,1,.26-1.91h2.59a6.19,6.19,0,0,1-.26-1.92,5.86,5.86,0,0,1,.26-1.92h-2.59a6.09,6.09,0,0,1-.26-1.91,5.86,5.86,0,0,1,.26-1.92h2.59a6.15,6.15,0,0,1-.26-1.92,5.9,5.9,0,0,1,.26-1.92,6.09,6.09,0,0,1-.26-1.91,5.86,5.86,0,0,1,.26-1.92h-8.42a6.14,6.14,0,0,1,.26,1.92,6.39,6.39,0,0,1-.26,1.91h-2a5.9,5.9,0,0,1,.26,1.92,6.15,6.15,0,0,1-.26,1.92h2a6.14,6.14,0,0,1,.26,1.92,6.39,6.39,0,0,1-.26,1.91h5.83a6.14,6.14,0,0,1,.26,1.92,6.51,6.51,0,0,1-.26,1.92h-7.78a6.51,6.51,0,0,1-.26-1.92,6.14,6.14,0,0,1,.26-1.92h-3.23a6.09,6.09,0,0,1-.26-1.91,5.86,5.86,0,0,1,.26-1.92h-1.95a6.46,6.46,0,0,1-.26-1.92,6.19,6.19,0,0,1,.26-1.92h1.95a6.09,6.09,0,0,1-.26-1.91,5.86,5.86,0,0,1,.26-1.92h3.23a6.41,6.41,0,0,1-.26-1.92,6.12,6.12,0,0,1,.26-1.91h15.55a6.12,6.12,0,0,1,.26,1.91,6.41,6.41,0,0,1-.26,1.92A6.14,6.14,0,0,1,247.35,370.57Z"/><path class="cls-3" d="M265.48,362.9a6.53,6.53,0,0,1-.25,1.92,6.14,6.14,0,0,1,.25,1.91,6.43,6.43,0,0,1-.25,1.92,6.17,6.17,0,0,1,.25,1.92,6.41,6.41,0,0,1-.25,1.91,6.21,6.21,0,0,1,.25,1.92,6.48,6.48,0,0,1-.25,1.92H260a6.46,6.46,0,0,1-.26-1.92,6.19,6.19,0,0,1,.26-1.92,6.39,6.39,0,0,1-.26-1.91,6.14,6.14,0,0,1,.26-1.92,6.41,6.41,0,0,1-.26-1.92,6.12,6.12,0,0,1,.26-1.91,6.51,6.51,0,0,1-.26-1.92A6.14,6.14,0,0,1,260,361a6.41,6.41,0,0,1-.26-1.92,6.12,6.12,0,0,1,.26-1.91h5.19a6.14,6.14,0,0,1,.25,1.91,6.43,6.43,0,0,1-.25,1.92A6.17,6.17,0,0,1,265.48,362.9Zm-.25,17.25a6.17,6.17,0,0,1,.25,1.92,6.53,6.53,0,0,1-.25,1.92H260a6.51,6.51,0,0,1-.26-1.92,6.14,6.14,0,0,1,.26-1.92Z"/></g></svg>
