<svg id="Layer_1" data-name="Layer 1" xmlns="http://www.w3.org/2000/svg" width="300" height="100" viewBox="0 0 300 100"><defs><style>.cls-1{fill:#412f28;}.cls-2{fill:#62463c;}.cls-3{fill:#825d50;}.cls-4{fill:#9b7d73;}.cls-5{fill:#210200;}.cls-6{fill:#1b0200;}.cls-7{fill:#c2a09d;}.cls-8{fill:none;}</style></defs><title>nybaby_sprite copy</title><path class="cls-1" d="M88.56,63.72c-.49,1.09-4.79,1.12-4.79-.07,0-7.92-1.18-17.24-7.56-17.34L76,44.87C85,45,92.81,54.09,88.56,63.72Z"/><path class="cls-1" d="M24.59,23.26c0,1.19,1.33,2.15,3,2.15s3-1.06,3-2.25-1.33-2.05-3-2.05S24.59,22.07,24.59,23.26Z"/><path class="cls-1" d="M36.2,41.1,26.13,23.66a1.4,1.4,0,0,1,.51-1.9l.2-.24c.67-.38,2.26,0,3.28.61l10,16.72a1.41,1.41,0,0,1-.51,1.91l-1.48.85A1.39,1.39,0,0,1,36.2,41.1Z"/><rect class="cls-2" x="66.59" y="58.8" width="6.56" height="23.76"/><path class="cls-2" d="M23.65,27.76h0A1.4,1.4,0,0,1,22,26.69l-1.19-5.48c-.16-.76.24-2.66,1-2.82l-.1,0c.75-.16,1.69,1.45,1.86,2.2l1.18,5.49A1.4,1.4,0,0,1,23.65,27.76Z"/><rect class="cls-2" x="35.65" y="58.8" width="6.56" height="23.76"/><path class="cls-3" d="M70.94,60.65,40.75,66.18c-4.48,0-10.42-6.44-10.42-11.68l.18-4.3c0-5.24,2-8.6,6.47-8.6h34c4.48,0,8.14,4.28,8.14,9.52h0C79.08,56.36,75.42,60.65,70.94,60.65Z"/><polygon class="cls-3" points="44.29 51.42 30.93 57.17 19.02 29.52 29.1 25.21 44.29 51.42"/><circle class="cls-3" cx="23.05" cy="29.82" r="7.48"/><path class="cls-3" d="M13.16,40h0c2.42.81,4.9-1.08,8-2.88l3.82-5.5a5.14,5.14,0,0,0-1.41-7.1h0a5.14,5.14,0,0,0-7.11,1.41l-4.66,7C10.18,35.21,11.48,37.7,13.16,40Z"/><circle class="cls-3" cx="14.24" cy="36.17" r="3.99"/><rect class="cls-3" x="38.93" y="58.8" width="6.56" height="23.76"/><path class="cls-4" d="M25.62,26.45h0c-.72.21-1.8-1.56-2.22-2.42l-1-3.77c.16-1,0-2.61.76-2.83l-.1,0c.72-.21,1.26,1.29,1.48,2l2.06,5.27A1.39,1.39,0,0,1,25.62,26.45Z"/><rect class="cls-1" x="38.93" y="79.7" width="6.56" height="2.87"/><rect class="cls-5" x="35.65" y="79.7" width="3.28" height="2.87"/><rect class="cls-3" x="69.86" y="57.17" width="6.56" height="25.4"/><rect class="cls-1" x="69.86" y="79.7" width="6.56" height="2.87"/><rect class="cls-5" x="66.59" y="79.7" width="3.28" height="2.87"/><circle class="cls-6" cx="20.8" cy="28.79" r="0.92"/><path class="cls-7" d="M15.28,27.58c.61.41.4,1.81-.48,3.13s-2.08,2.06-2.69,1.66"/><rect class="cls-8" width="100" height="100"/><path class="cls-1" d="M188.56,63.72c-.49,1.09-4.79,1.12-4.79-.07,0-7.92-1.18-17.24-7.56-17.34l-.2-1.44C185,45,192.81,54.09,188.56,63.72Z"/><path class="cls-1" d="M124.59,23.26c0,1.19,1.33,2.15,3,2.15s3-1.06,3-2.25-1.33-2.05-3-2.05S124.59,22.07,124.59,23.26Z"/><path class="cls-1" d="M136.2,41.1,126.13,23.66a1.4,1.4,0,0,1,.51-1.9l.2-.24c.67-.38,2.26,0,3.28.61l10,16.72a1.41,1.41,0,0,1-.51,1.91l-1.48.85A1.39,1.39,0,0,1,136.2,41.1Z"/><rect class="cls-2" x="166.59" y="58.8" width="6.56" height="23.76"/><path class="cls-2" d="M123.65,27.76h0A1.4,1.4,0,0,1,122,26.69l-1.19-5.48c-.16-.76.24-2.66,1-2.82l-.1,0c.75-.16,1.69,1.45,1.86,2.2l1.18,5.49A1.4,1.4,0,0,1,123.65,27.76Z"/><polygon class="cls-3" points="144.29 51.42 130.94 57.17 119.02 29.52 129.1 25.21 144.29 51.42"/><circle class="cls-3" cx="123.05" cy="29.82" r="7.48"/><path class="cls-3" d="M113.16,40h0c2.42.81,4.9-1.08,8-2.88l3.82-5.5a5.14,5.14,0,0,0-1.41-7.1h0a5.14,5.14,0,0,0-7.11,1.41l-4.66,7C110.18,35.21,111.48,37.7,113.16,40Z"/><circle class="cls-3" cx="114.24" cy="36.17" r="3.99"/><path class="cls-4" d="M125.62,26.45h0c-.72.21-1.8-1.56-2.22-2.42l-1.05-3.77c.16-1,0-2.61.76-2.83l-.1,0c.72-.21,1.26,1.29,1.48,2l2.06,5.27A1.39,1.39,0,0,1,125.62,26.45Z"/><polygon class="cls-2" points="156.34 74.95 153.13 78.07 133.71 60.94 139.96 58.96 156.34 74.95"/><rect class="cls-5" x="151.72" y="74.59" width="4.47" height="2.24" transform="translate(-9.25 128.61) rotate(-44.14)"/><rect class="cls-3" x="169.86" y="57.17" width="6.56" height="25.4"/><rect class="cls-1" x="169.86" y="79.7" width="6.56" height="2.87"/><rect class="cls-5" x="166.59" y="79.7" width="3.28" height="2.87"/><circle class="cls-6" cx="120.8" cy="28.79" r="0.92"/><path class="cls-7" d="M115.28,27.58c.61.41.4,1.81-.48,3.13s-2.08,2.06-2.69,1.66"/><rect class="cls-8" x="100" width="100" height="100"/><path class="cls-3" d="M170.94,60.65l-30.19,5.53c-4.48,0-10.42-6.44-10.42-11.68l.18-4.3c0-5.24,2-8.6,6.47-8.6h34c4.48,0,8.14,4.28,8.14,9.52h0C179.08,56.36,175.42,60.65,170.94,60.65Z"/><rect class="cls-3" x="138.93" y="58.8" width="6.56" height="23.76"/><rect class="cls-1" x="138.93" y="79.7" width="6.56" height="2.87"/><path class="cls-1" d="M288.56,63.72c-.49,1.09-4.79,1.12-4.79-.07,0-7.92-1.18-17.24-7.56-17.34l-.2-1.44C285,45,292.81,54.09,288.56,63.72Z"/><path class="cls-1" d="M224.59,23.26c0,1.19,1.33,2.15,3,2.15s3-1.06,3-2.25-1.33-2.05-3-2.05S224.59,22.07,224.59,23.26Z"/><path class="cls-1" d="M236.2,41.1,226.13,23.66a1.4,1.4,0,0,1,.51-1.9l.2-.24c.67-.38,2.26,0,3.28.61l10,16.72a1.41,1.41,0,0,1-.51,1.91l-1.48.85A1.39,1.39,0,0,1,236.2,41.1Z"/><rect class="cls-2" x="266.59" y="58.8" width="6.56" height="23.76"/><path class="cls-2" d="M223.65,27.76h0A1.4,1.4,0,0,1,222,26.69l-1.19-5.48c-.16-.76.24-2.66,1-2.82l-.1,0c.75-.16,1.69,1.45,1.86,2.2l1.18,5.49A1.4,1.4,0,0,1,223.65,27.76Z"/><polygon class="cls-3" points="244.29 51.42 230.94 57.17 219.02 29.52 229.1 25.21 244.29 51.42"/><circle class="cls-3" cx="223.05" cy="29.82" r="7.48"/><path class="cls-3" d="M213.16,40h0c2.42.81,4.9-1.08,8-2.88l3.82-5.5a5.14,5.14,0,0,0-1.41-7.1h0a5.14,5.14,0,0,0-7.11,1.41l-4.66,7C210.18,35.21,211.48,37.7,213.16,40Z"/><circle class="cls-3" cx="214.24" cy="36.17" r="3.99"/><path class="cls-4" d="M225.62,26.45h0c-.72.21-1.8-1.56-2.22-2.42l-1.05-3.77c.16-1,0-2.61.76-2.83l-.1,0c.72-.21,1.26,1.29,1.48,2l2.06,5.27A1.39,1.39,0,0,1,225.62,26.45Z"/><polygon class="cls-2" points="253 79 249 81 235.65 58.8 242.21 58.8 253 79"/><rect class="cls-5" x="248.26" y="77.88" width="4.47" height="2.24" transform="translate(-8.88 120.37) rotate(-26.57)"/><rect class="cls-3" x="269.86" y="57.17" width="6.56" height="25.4"/><rect class="cls-1" x="269.86" y="79.7" width="6.56" height="2.87"/><rect class="cls-5" x="266.59" y="79.7" width="3.28" height="2.87"/><circle class="cls-6" cx="220.8" cy="28.79" r="0.92"/><path class="cls-7" d="M215.28,27.58c.61.41.4,1.81-.48,3.13s-2.08,2.06-2.69,1.66"/><rect class="cls-8" x="200" width="100" height="100"/><path class="cls-3" d="M270.94,60.65l-30.19,5.53c-4.48,0-10.42-6.44-10.42-11.68l.18-4.3c0-5.24,2-8.6,6.47-8.6h34c4.48,0,8.14,4.28,8.14,9.52h0C279.08,56.36,275.42,60.65,270.94,60.65Z"/><rect class="cls-3" x="238.93" y="58.8" width="6.56" height="23.76"/><rect class="cls-1" x="238.93" y="79.7" width="6.56" height="2.87"/></svg>
