<svg xmlns="http://www.w3.org/2000/svg" width="290" height="270" viewBox="0 0 290 270"><defs><style>.cls-1{fill:#412f28;}.cls-2{fill:#62463c;}.cls-3{fill:#825d50;}.cls-4{fill:#9b7d73;}.cls-5{fill:#210200;}.cls-6{fill:#1b0200;}.cls-7{fill:#c2a09d;}</style></defs><title>Hest</title><g id="Spilkarakterer"><path class="cls-1" d="M276.44,179.75c-1.64,3.72-16.25,3.81-16.24-.25.07-26.88-4-58.55-25.67-58.89l-.7-4.87C264.44,116.22,290.88,147.05,276.44,179.75Z"/><path class="cls-1" d="M59.2,42.34c0,4,4.52,7.31,10.09,7.31S79.38,46,79.38,42s-4.52-7-10.09-7S59.2,38.31,59.2,42.34Z"/><path class="cls-1" d="M98.63,102.94,64.43,43.71a4.74,4.74,0,0,1,1.73-6.46l.7-.82c2.25-1.3,7.65,0,11.13,2.09L111.85,95.3a4.74,4.74,0,0,1-1.73,6.46l-5,2.91A4.74,4.74,0,0,1,98.63,102.94Z"/><rect class="cls-2" x="201.83" y="163.05" width="22.26" height="80.71"/><path class="cls-2" d="M56,57.64h0A4.78,4.78,0,0,1,50.34,54l-4-18.62c-.55-2.56.79-9,3.35-9.57l-.35.08c2.56-.56,5.76,4.91,6.31,7.48l4,18.62A4.78,4.78,0,0,1,56,57.64Z"/><rect class="cls-2" x="96.77" y="163.05" width="22.26" height="80.71"/><path class="cls-3" d="M216.62,169.32,114.08,188.1c-15.21,0-35.4-21.86-35.4-39.66l.63-14.61c0-17.79,6.76-29.22,22-29.22H216.62c15.21,0,27.65,14.56,27.65,32.35h0C244.27,154.76,231.83,169.32,216.62,169.32Z"/><polygon class="cls-3" points="126.12 137.98 80.75 157.52 40.29 63.59 74.51 48.95 126.12 137.98"/><circle class="cls-3" cx="53.98" cy="64.61" r="25.39"/><path class="cls-3" d="M20.38,99.1h0c8.21,2.73,16.64-3.67,27-9.79l13-18.67a17.43,17.43,0,0,0-4.78-24.12h0A17.45,17.45,0,0,0,31.43,51.3L15.6,75C10.28,82.92,14.67,91.39,20.38,99.1Z"/><circle class="cls-3" cx="24.07" cy="86.18" r="13.57"/><rect class="cls-3" x="107.9" y="163.05" width="22.26" height="80.71"/><path class="cls-4" d="M62.71,53.16h0c-2.46.73-6.11-5.29-7.54-8.22l-3.56-12.8c.51-3.36.1-8.86,2.56-9.59l-.34.1c2.46-.73,4.29,4.37,5,6.83l7,17.88A4.68,4.68,0,0,1,62.71,53.16Z"/><rect class="cls-1" x="107.9" y="234.02" width="22.26" height="9.74"/><rect class="cls-5" x="96.77" y="234.02" width="11.13" height="9.74"/><rect class="cls-3" x="212.96" y="157.49" width="22.26" height="86.27"/><rect class="cls-1" x="212.96" y="234.02" width="22.26" height="9.74"/><rect class="cls-5" x="201.83" y="234.02" width="11.13" height="9.74"/><circle class="cls-6" cx="46.33" cy="61.13" r="3.13"/><path class="cls-7" d="M27.59,57c2.07,1.37,1.34,6.12-1.64,10.61s-7.06,7-9.13,5.63"/></g></svg>
