<svg xmlns="http://www.w3.org/2000/svg" width="860" height="560" viewBox="0 0 860 560"><defs><style>.cls-1{fill:#b2569e;}.cls-2{fill:#ff94e7;}.cls-3{fill:#fff;}</style></defs><title>Level Complete</title><g id="Level_Complete" data-name="Level Complete"><rect class="cls-1" x="6.72" y="11.53" width="854.49" height="547.97" rx="33"/><rect class="cls-2" x="-1" y="0.5" width="854.49" height="547.97" rx="33"/><path class="cls-3" d="M101.94,157.37a8.25,8.25,0,0,1-.29,2.3H81.57a8.25,8.25,0,0,1-.29-2.3,7.91,7.91,0,0,1,.29-2.3,8.18,8.18,0,0,1-.29-2.29,7.91,7.91,0,0,1,.29-2.3,8.18,8.18,0,0,1-.29-2.29,7.86,7.86,0,0,1,.29-2.3,8.25,8.25,0,0,1-.29-2.3,7.83,7.83,0,0,1,.29-2.29,8.25,8.25,0,0,1-.29-2.3,7.79,7.79,0,0,1,.29-2.29,8.25,8.25,0,0,1-.29-2.3,7.91,7.91,0,0,1,.29-2.3,8.18,8.18,0,0,1-.29-2.29,7.86,7.86,0,0,1,.29-2.3h5.74a7.89,7.89,0,0,1,.28,2.3,8.2,8.2,0,0,1-.28,2.29,7.94,7.94,0,0,1,.28,2.3,8.27,8.27,0,0,1-.28,2.3,7.82,7.82,0,0,1,.28,2.29,8.27,8.27,0,0,1-.28,2.3,7.86,7.86,0,0,1,.28,2.29,8.27,8.27,0,0,1-.28,2.3,7.89,7.89,0,0,1,.28,2.3,8.2,8.2,0,0,1-.28,2.29,7.94,7.94,0,0,1,.28,2.3,8.2,8.2,0,0,1-.28,2.29h14.34A7.91,7.91,0,0,1,101.94,157.37Z"/><path class="cls-3" d="M130.33,145.89a7.86,7.86,0,0,1,.29,2.3,8.18,8.18,0,0,1-.29,2.29H115.27a7.91,7.91,0,0,1,.29,2.3,8.18,8.18,0,0,1-.29,2.29h12.19a7.91,7.91,0,0,1,.29,2.3,8.25,8.25,0,0,1-.29,2.3H113.12a8.25,8.25,0,0,1-.29-2.3,7.91,7.91,0,0,1,.29-2.3h-3.58a7.82,7.82,0,0,1-.29-2.29,7.58,7.58,0,0,1,.29-2.3h-2.16a8.2,8.2,0,0,1-.28-2.29,7.89,7.89,0,0,1,.28-2.3h2.16a7.89,7.89,0,0,1-.29-2.3,7.51,7.51,0,0,1,.29-2.29h3.58a8.25,8.25,0,0,1-.29-2.3,7.79,7.79,0,0,1,.29-2.29h14.34a7.79,7.79,0,0,1,.29,2.29,8.25,8.25,0,0,1-.29,2.3h2.87a7.83,7.83,0,0,1,.29,2.29A8.25,8.25,0,0,1,130.33,145.89Zm-6-2.3a7.51,7.51,0,0,1,.29-2.29h-9.33a7.83,7.83,0,0,1,.29,2.29,8.25,8.25,0,0,1-.29,2.3h9.33A7.89,7.89,0,0,1,124.31,143.59Z"/><path class="cls-3" d="M159,141.3h-2.15a7.86,7.86,0,0,1,.28,2.29,8.27,8.27,0,0,1-.28,2.3h-2.16a7.86,7.86,0,0,1,.29,2.3,8.18,8.18,0,0,1-.29,2.29h-1.43a7.91,7.91,0,0,1,.29,2.3,8.18,8.18,0,0,1-.29,2.29h-2.87a7.91,7.91,0,0,1,.29,2.3,8.25,8.25,0,0,1-.29,2.3h-5.74a8.27,8.27,0,0,1-.28-2.3,7.94,7.94,0,0,1,.28-2.3h-2.86a7.82,7.82,0,0,1-.29-2.29,7.58,7.58,0,0,1,.29-2.3h-1.44a8.18,8.18,0,0,1-.29-2.29,7.86,7.86,0,0,1,.29-2.3h-2.15a8.25,8.25,0,0,1-.29-2.3,7.83,7.83,0,0,1,.29-2.29h-2.15a8.25,8.25,0,0,1-.29-2.3,7.79,7.79,0,0,1,.29-2.29h5.74a7.82,7.82,0,0,1,.28,2.29,8.27,8.27,0,0,1-.28,2.3H144a7.86,7.86,0,0,1,.28,2.29,8.27,8.27,0,0,1-.28,2.3h2.15a7.86,7.86,0,0,1,.29,2.3,8.18,8.18,0,0,1-.29,2.29H149a8.18,8.18,0,0,1-.29-2.29,7.86,7.86,0,0,1,.29-2.3h2.15a8.25,8.25,0,0,1-.29-2.3,7.83,7.83,0,0,1,.29-2.29h2.15A8.25,8.25,0,0,1,153,139a7.79,7.79,0,0,1,.29-2.29H159a7.82,7.82,0,0,1,.28,2.29A8.27,8.27,0,0,1,159,141.3Z"/><path class="cls-3" d="M187.7,145.89a7.86,7.86,0,0,1,.29,2.3,8.18,8.18,0,0,1-.29,2.29H172.64a7.91,7.91,0,0,1,.29,2.3,8.18,8.18,0,0,1-.29,2.29h12.19a7.91,7.91,0,0,1,.29,2.3,8.25,8.25,0,0,1-.29,2.3H170.49a8.25,8.25,0,0,1-.29-2.3,7.91,7.91,0,0,1,.29-2.3H166.9a8.2,8.2,0,0,1-.28-2.29,7.94,7.94,0,0,1,.28-2.3h-2.15a8.2,8.2,0,0,1-.28-2.29,7.89,7.89,0,0,1,.28-2.3h2.15a8.27,8.27,0,0,1-.28-2.3,7.86,7.86,0,0,1,.28-2.29h3.59a8.25,8.25,0,0,1-.29-2.3,7.79,7.79,0,0,1,.29-2.29h14.34a7.79,7.79,0,0,1,.29,2.29,8.25,8.25,0,0,1-.29,2.3h2.87a7.83,7.83,0,0,1,.29,2.29A8.25,8.25,0,0,1,187.7,145.89Zm-6-2.3a7.86,7.86,0,0,1,.28-2.29h-9.32a7.83,7.83,0,0,1,.29,2.29,8.25,8.25,0,0,1-.29,2.3H182A8.27,8.27,0,0,1,181.68,143.59Z"/><path class="cls-3" d="M213.8,157.37a8.27,8.27,0,0,1-.28,2.3H196.31a7.89,7.89,0,0,1-.29-2.3,7.58,7.58,0,0,1,.29-2.3H202a8.2,8.2,0,0,1-.28-2.29,7.94,7.94,0,0,1,.28-2.3,8.2,8.2,0,0,1-.28-2.29,7.89,7.89,0,0,1,.28-2.3,8.27,8.27,0,0,1-.28-2.3,7.86,7.86,0,0,1,.28-2.29,8.27,8.27,0,0,1-.28-2.3,7.82,7.82,0,0,1,.28-2.29,8.27,8.27,0,0,1-.28-2.3,7.94,7.94,0,0,1,.28-2.3h-4.3a8.18,8.18,0,0,1-.29-2.29,7.86,7.86,0,0,1,.29-2.3h10a7.86,7.86,0,0,1,.29,2.3,8.18,8.18,0,0,1-.29,2.29,7.91,7.91,0,0,1,.29,2.3,8.25,8.25,0,0,1-.29,2.3,7.79,7.79,0,0,1,.29,2.29,8.25,8.25,0,0,1-.29,2.3,7.83,7.83,0,0,1,.29,2.29,8.25,8.25,0,0,1-.29,2.3,7.86,7.86,0,0,1,.29,2.3,8.18,8.18,0,0,1-.29,2.29,7.91,7.91,0,0,1,.29,2.3,8.18,8.18,0,0,1-.29,2.29h5.74A7.94,7.94,0,0,1,213.8,157.37Z"/><path class="cls-3" d="M273.75,150.48a7.91,7.91,0,0,1,.29,2.3,8.18,8.18,0,0,1-.29,2.29h-2.87a7.58,7.58,0,0,1,.29,2.3,7.89,7.89,0,0,1-.29,2.3H256.54a8.27,8.27,0,0,1-.28-2.3,7.94,7.94,0,0,1,.28-2.3h-2.87a8.2,8.2,0,0,1-.28-2.29,7.94,7.94,0,0,1,.28-2.3h-2.86a7.82,7.82,0,0,1-.29-2.29,7.53,7.53,0,0,1,.29-2.3,7.89,7.89,0,0,1-.29-2.3,7.51,7.51,0,0,1,.29-2.29,7.89,7.89,0,0,1-.29-2.3,7.46,7.46,0,0,1,.29-2.29h2.86a8.27,8.27,0,0,1-.28-2.3,7.94,7.94,0,0,1,.28-2.3h2.87a8.2,8.2,0,0,1-.28-2.29,7.89,7.89,0,0,1,.28-2.3h14.34a7.53,7.53,0,0,1,.29,2.3,7.82,7.82,0,0,1-.29,2.29h2.87a7.91,7.91,0,0,1,.29,2.3,8.25,8.25,0,0,1-.29,2.3H268a7.89,7.89,0,0,1-.29-2.3,7.58,7.58,0,0,1,.29-2.3h-8.61a7.91,7.91,0,0,1,.29,2.3,8.25,8.25,0,0,1-.29,2.3h-2.87a7.79,7.79,0,0,1,.29,2.29,8.25,8.25,0,0,1-.29,2.3,7.83,7.83,0,0,1,.29,2.29,8.25,8.25,0,0,1-.29,2.3,7.86,7.86,0,0,1,.29,2.3,8.18,8.18,0,0,1-.29,2.29h2.87a7.91,7.91,0,0,1,.29,2.3,8.18,8.18,0,0,1-.29,2.29H268a7.82,7.82,0,0,1-.29-2.29,7.58,7.58,0,0,1,.29-2.3Z"/><path class="cls-3" d="M302.44,150.48h-2.15a7.94,7.94,0,0,1,.28,2.3,8.2,8.2,0,0,1-.28,2.29H296.7a7.91,7.91,0,0,1,.29,2.3,8.25,8.25,0,0,1-.29,2.3H285.23a7.89,7.89,0,0,1-.29-2.3,7.58,7.58,0,0,1,.29-2.3h-3.59a8.18,8.18,0,0,1-.29-2.29,7.91,7.91,0,0,1,.29-2.3h-2.15a8.18,8.18,0,0,1-.29-2.29,7.86,7.86,0,0,1,.29-2.3h2.15a8.25,8.25,0,0,1-.29-2.3,7.83,7.83,0,0,1,.29-2.29h3.59a7.89,7.89,0,0,1-.29-2.3,7.46,7.46,0,0,1,.29-2.29H296.7A7.79,7.79,0,0,1,297,139a8.25,8.25,0,0,1-.29,2.3h3.59a7.86,7.86,0,0,1,.28,2.29,8.27,8.27,0,0,1-.28,2.3h2.15a7.89,7.89,0,0,1,.28,2.3A8.2,8.2,0,0,1,302.44,150.48Zm-5.74,0a8.18,8.18,0,0,1-.29-2.29,7.86,7.86,0,0,1,.29-2.3h-2.15a8.25,8.25,0,0,1-.29-2.3,7.83,7.83,0,0,1,.29-2.29h-7.17a7.86,7.86,0,0,1,.28,2.29,8.27,8.27,0,0,1-.28,2.3h-2.15a7.89,7.89,0,0,1,.28,2.3,8.2,8.2,0,0,1-.28,2.29h2.15a7.94,7.94,0,0,1,.28,2.3,8.2,8.2,0,0,1-.28,2.29h7.17a8.18,8.18,0,0,1-.29-2.29,7.91,7.91,0,0,1,.29-2.3Z"/><path class="cls-3" d="M311.76,141.3h2.15a7.83,7.83,0,0,1,.29,2.29,8.25,8.25,0,0,1-.29,2.3,7.86,7.86,0,0,1,.29,2.3,8.18,8.18,0,0,1-.29,2.29,7.91,7.91,0,0,1,.29,2.3,8.18,8.18,0,0,1-.29,2.29,7.91,7.91,0,0,1,.29,2.3,8.25,8.25,0,0,1-.29,2.3h-5.74a8.27,8.27,0,0,1-.28-2.3,7.94,7.94,0,0,1,.28-2.3,8.2,8.2,0,0,1-.28-2.29,7.94,7.94,0,0,1,.28-2.3,8.2,8.2,0,0,1-.28-2.29,7.89,7.89,0,0,1,.28-2.3,8.27,8.27,0,0,1-.28-2.3,7.86,7.86,0,0,1,.28-2.29,8.27,8.27,0,0,1-.28-2.3,7.82,7.82,0,0,1,.28-2.29h3.59a7.79,7.79,0,0,1,.29,2.29A8.25,8.25,0,0,1,311.76,141.3Zm7.89,0h2.15a7.83,7.83,0,0,1,.29,2.29,8.25,8.25,0,0,1-.29,2.3,7.86,7.86,0,0,1,.29,2.3,8.18,8.18,0,0,1-.29,2.29,7.91,7.91,0,0,1,.29,2.3,8.18,8.18,0,0,1-.29,2.29,7.91,7.91,0,0,1,.29,2.3,8.25,8.25,0,0,1-.29,2.3h-4.3a8.25,8.25,0,0,1-.29-2.3,7.91,7.91,0,0,1,.29-2.3,8.18,8.18,0,0,1-.29-2.29,7.91,7.91,0,0,1,.29-2.3,8.18,8.18,0,0,1-.29-2.29,7.86,7.86,0,0,1,.29-2.3,8.25,8.25,0,0,1-.29-2.3,7.83,7.83,0,0,1,.29-2.29h-3.59a8.25,8.25,0,0,1-.29-2.3,7.79,7.79,0,0,1,.29-2.29h5.74a7.79,7.79,0,0,1,.29,2.29A8.25,8.25,0,0,1,319.65,141.3Zm11.76,6.89a8.18,8.18,0,0,1-.29,2.29,7.91,7.91,0,0,1,.29,2.3,8.18,8.18,0,0,1-.29,2.29,7.91,7.91,0,0,1,.29,2.3,8.25,8.25,0,0,1-.29,2.3h-5.74a8.27,8.27,0,0,1-.28-2.3,7.94,7.94,0,0,1,.28-2.3,8.2,8.2,0,0,1-.28-2.29,7.94,7.94,0,0,1,.28-2.3,8.2,8.2,0,0,1-.28-2.29,7.89,7.89,0,0,1,.28-2.3,8.27,8.27,0,0,1-.28-2.3,7.86,7.86,0,0,1,.28-2.29H321.8a8.25,8.25,0,0,1-.29-2.3,7.79,7.79,0,0,1,.29-2.29h6.45a7.79,7.79,0,0,1,.29,2.29,8.25,8.25,0,0,1-.29,2.3h2.87a7.83,7.83,0,0,1,.29,2.29,8.25,8.25,0,0,1-.29,2.3A7.86,7.86,0,0,1,331.41,148.19Z"/><path class="cls-3" d="M359.81,150.48h-2.87a7.94,7.94,0,0,1,.28,2.3,8.2,8.2,0,0,1-.28,2.29h-2.87a7.91,7.91,0,0,1,.29,2.3,8.25,8.25,0,0,1-.29,2.3H342.6a7.82,7.82,0,0,1,.28,2.29,8.27,8.27,0,0,1-.28,2.3,7.89,7.89,0,0,1,.28,2.3,8.2,8.2,0,0,1-.28,2.29h-5.74a8.18,8.18,0,0,1-.29-2.29,7.86,7.86,0,0,1,.29-2.3,8.25,8.25,0,0,1-.29-2.3,7.79,7.79,0,0,1,.29-2.29,8.25,8.25,0,0,1-.29-2.3,7.91,7.91,0,0,1,.29-2.3,8.18,8.18,0,0,1-.29-2.29,7.91,7.91,0,0,1,.29-2.3,8.18,8.18,0,0,1-.29-2.29,7.86,7.86,0,0,1,.29-2.3,8.25,8.25,0,0,1-.29-2.3,7.83,7.83,0,0,1,.29-2.29,8.25,8.25,0,0,1-.29-2.3,7.79,7.79,0,0,1,.29-2.29h5.74a7.82,7.82,0,0,1,.28,2.29,8.27,8.27,0,0,1-.28,2.3h2.86a7.83,7.83,0,0,1,.29,2.29,8.25,8.25,0,0,1-.29,2.3H342.6a7.89,7.89,0,0,1,.28,2.3,8.2,8.2,0,0,1-.28,2.29,7.94,7.94,0,0,1,.28,2.3,8.2,8.2,0,0,1-.28,2.29h8.6a8.18,8.18,0,0,1-.29-2.29,7.91,7.91,0,0,1,.29-2.3h2.87a8.18,8.18,0,0,1-.29-2.29,7.86,7.86,0,0,1,.29-2.3H351.2a8.25,8.25,0,0,1-.29-2.3,7.83,7.83,0,0,1,.29-2.29h-5.74a8.27,8.27,0,0,1-.28-2.3,7.82,7.82,0,0,1,.28-2.29h8.61a7.79,7.79,0,0,1,.29,2.29,8.25,8.25,0,0,1-.29,2.3h2.87a7.86,7.86,0,0,1,.28,2.29,8.27,8.27,0,0,1-.28,2.3h2.87a7.89,7.89,0,0,1,.28,2.3A8.2,8.2,0,0,1,359.81,150.48Z"/><path class="cls-3" d="M385.91,157.37a8.25,8.25,0,0,1-.29,2.3H368.41a8.25,8.25,0,0,1-.29-2.3,7.91,7.91,0,0,1,.29-2.3h5.74a8.18,8.18,0,0,1-.29-2.29,7.91,7.91,0,0,1,.29-2.3,8.18,8.18,0,0,1-.29-2.29,7.86,7.86,0,0,1,.29-2.3,8.25,8.25,0,0,1-.29-2.3,7.83,7.83,0,0,1,.29-2.29,8.25,8.25,0,0,1-.29-2.3,7.79,7.79,0,0,1,.29-2.29,8.25,8.25,0,0,1-.29-2.3,7.91,7.91,0,0,1,.29-2.3h-4.3a7.82,7.82,0,0,1-.29-2.29,7.53,7.53,0,0,1,.29-2.3h10a7.53,7.53,0,0,1,.29,2.3,7.82,7.82,0,0,1-.29,2.29,7.58,7.58,0,0,1,.29,2.3,7.89,7.89,0,0,1-.29,2.3,7.46,7.46,0,0,1,.29,2.29,7.89,7.89,0,0,1-.29,2.3,7.51,7.51,0,0,1,.29,2.29,7.89,7.89,0,0,1-.29,2.3,7.53,7.53,0,0,1,.29,2.3,7.82,7.82,0,0,1-.29,2.29,7.58,7.58,0,0,1,.29,2.3,7.82,7.82,0,0,1-.29,2.29h5.74A7.91,7.91,0,0,1,385.91,157.37Z"/><path class="cls-3" d="M417.17,145.89a7.86,7.86,0,0,1,.29,2.3,8.18,8.18,0,0,1-.29,2.29H402.11a7.58,7.58,0,0,1,.29,2.3,7.82,7.82,0,0,1-.29,2.29h12.2a7.94,7.94,0,0,1,.28,2.3,8.27,8.27,0,0,1-.28,2.3H400a8.27,8.27,0,0,1-.28-2.3,7.94,7.94,0,0,1,.28-2.3h-3.58a8.18,8.18,0,0,1-.29-2.29,7.91,7.91,0,0,1,.29-2.3h-2.15a7.82,7.82,0,0,1-.29-2.29,7.53,7.53,0,0,1,.29-2.3h2.15a8.25,8.25,0,0,1-.29-2.3,7.83,7.83,0,0,1,.29-2.29H400a8.27,8.27,0,0,1-.28-2.3,7.82,7.82,0,0,1,.28-2.29h14.35a7.82,7.82,0,0,1,.28,2.29,8.27,8.27,0,0,1-.28,2.3h2.86a7.83,7.83,0,0,1,.29,2.29A8.25,8.25,0,0,1,417.17,145.89Zm-6-2.3a7.83,7.83,0,0,1,.29-2.29h-9.33a7.51,7.51,0,0,1,.29,2.29,7.89,7.89,0,0,1-.29,2.3h9.33A8.25,8.25,0,0,1,411.15,143.59Z"/><path class="cls-3" d="M443,155.07a7.91,7.91,0,0,1,.29,2.3,8.25,8.25,0,0,1-.29,2.3H431.52a7.89,7.89,0,0,1-.29-2.3,7.58,7.58,0,0,1,.29-2.3h-2.87a8.18,8.18,0,0,1-.29-2.29,7.91,7.91,0,0,1,.29-2.3,8.18,8.18,0,0,1-.29-2.29,7.86,7.86,0,0,1,.29-2.3,8.25,8.25,0,0,1-.29-2.3,7.83,7.83,0,0,1,.29-2.29h-5.74a8.25,8.25,0,0,1-.29-2.3,7.79,7.79,0,0,1,.29-2.29h5.74a8.25,8.25,0,0,1-.29-2.3,7.91,7.91,0,0,1,.29-2.3,8.18,8.18,0,0,1-.29-2.29,7.86,7.86,0,0,1,.29-2.3h5.73a7.86,7.86,0,0,1,.29,2.3,8.18,8.18,0,0,1-.29,2.29,7.91,7.91,0,0,1,.29,2.3,8.25,8.25,0,0,1-.29,2.3H443a7.79,7.79,0,0,1,.29,2.29,8.25,8.25,0,0,1-.29,2.3h-8.61a7.83,7.83,0,0,1,.29,2.29,8.25,8.25,0,0,1-.29,2.3,7.86,7.86,0,0,1,.29,2.3,8.18,8.18,0,0,1-.29,2.29,7.91,7.91,0,0,1,.29,2.3,8.18,8.18,0,0,1-.29,2.29Z"/><path class="cls-3" d="M474.54,145.89a7.86,7.86,0,0,1,.29,2.3,8.18,8.18,0,0,1-.29,2.29H459.48a7.91,7.91,0,0,1,.29,2.3,8.18,8.18,0,0,1-.29,2.29h12.19a7.91,7.91,0,0,1,.29,2.3,8.25,8.25,0,0,1-.29,2.3H457.33a8.25,8.25,0,0,1-.29-2.3,7.91,7.91,0,0,1,.29-2.3h-3.58a7.82,7.82,0,0,1-.29-2.29,7.58,7.58,0,0,1,.29-2.3h-2.16a8.2,8.2,0,0,1-.28-2.29,7.89,7.89,0,0,1,.28-2.3h2.16a7.89,7.89,0,0,1-.29-2.3,7.51,7.51,0,0,1,.29-2.29h3.58A8.25,8.25,0,0,1,457,139a7.79,7.79,0,0,1,.29-2.29h14.34A7.79,7.79,0,0,1,472,139a8.25,8.25,0,0,1-.29,2.3h2.87a7.83,7.83,0,0,1,.29,2.29A8.25,8.25,0,0,1,474.54,145.89Zm-6-2.3a7.86,7.86,0,0,1,.28-2.29h-9.32a7.83,7.83,0,0,1,.29,2.29,8.25,8.25,0,0,1-.29,2.3h9.32A8.27,8.27,0,0,1,468.52,143.59Z"/><path class="cls-3" d="M494.91,134.41a8.25,8.25,0,0,1-.29,2.3,7.79,7.79,0,0,1,.29,2.29,8.25,8.25,0,0,1-.29,2.3,7.83,7.83,0,0,1,.29,2.29,8.25,8.25,0,0,1-.29,2.3,7.86,7.86,0,0,1,.29,2.3,8.18,8.18,0,0,1-.29,2.29h-5.74a8.2,8.2,0,0,1-.28-2.29,7.89,7.89,0,0,1,.28-2.3,8.27,8.27,0,0,1-.28-2.3,7.86,7.86,0,0,1,.28-2.29,8.27,8.27,0,0,1-.28-2.3,7.82,7.82,0,0,1,.28-2.29,8.27,8.27,0,0,1-.28-2.3,7.94,7.94,0,0,1,.28-2.3,8.2,8.2,0,0,1-.28-2.29,7.89,7.89,0,0,1,.28-2.3h5.74a7.86,7.86,0,0,1,.29,2.3,8.18,8.18,0,0,1-.29,2.29A7.91,7.91,0,0,1,494.91,134.41Zm-.29,20.66a7.91,7.91,0,0,1,.29,2.3,8.25,8.25,0,0,1-.29,2.3h-5.74a8.27,8.27,0,0,1-.28-2.3,7.94,7.94,0,0,1,.28-2.3Z"/><path class="cls-3" d="M560.88,143.59a8.27,8.27,0,0,1-.28,2.3,7.89,7.89,0,0,1,.28,2.3,8.2,8.2,0,0,1-.28,2.29h-2.87a7.94,7.94,0,0,1,.28,2.3,8.2,8.2,0,0,1-.28,2.29h-2.87a7.91,7.91,0,0,1,.29,2.3,8.25,8.25,0,0,1-.29,2.3H537.65a8.25,8.25,0,0,1-.29-2.3,7.91,7.91,0,0,1,.29-2.3,8.18,8.18,0,0,1-.29-2.29,7.91,7.91,0,0,1,.29-2.3,8.18,8.18,0,0,1-.29-2.29,7.86,7.86,0,0,1,.29-2.3,8.25,8.25,0,0,1-.29-2.3,7.83,7.83,0,0,1,.29-2.29,8.25,8.25,0,0,1-.29-2.3,7.79,7.79,0,0,1,.29-2.29,8.25,8.25,0,0,1-.29-2.3,7.91,7.91,0,0,1,.29-2.3,8.18,8.18,0,0,1-.29-2.29,7.86,7.86,0,0,1,.29-2.3h17.21a7.86,7.86,0,0,1,.29,2.3,8.18,8.18,0,0,1-.29,2.29h2.87a7.94,7.94,0,0,1,.28,2.3,8.27,8.27,0,0,1-.28,2.3h2.87a7.82,7.82,0,0,1,.28,2.29,8.27,8.27,0,0,1-.28,2.3A7.86,7.86,0,0,1,560.88,143.59Zm-6.31,4.6a7.86,7.86,0,0,1,.29-2.3,8.25,8.25,0,0,1-.29-2.3,7.83,7.83,0,0,1,.29-2.29,8.25,8.25,0,0,1-.29-2.3,7.79,7.79,0,0,1,.29-2.29H552a8.25,8.25,0,0,1-.29-2.3,7.91,7.91,0,0,1,.29-2.3h-8.61a7.58,7.58,0,0,1,.29,2.3,7.89,7.89,0,0,1-.29,2.3,7.46,7.46,0,0,1,.29,2.29,7.89,7.89,0,0,1-.29,2.3,7.51,7.51,0,0,1,.29,2.29,7.89,7.89,0,0,1-.29,2.3,7.53,7.53,0,0,1,.29,2.3,7.82,7.82,0,0,1-.29,2.29,7.58,7.58,0,0,1,.29,2.3,7.82,7.82,0,0,1-.29,2.29H552a8.18,8.18,0,0,1-.29-2.29,7.91,7.91,0,0,1,.29-2.3h2.87A8.18,8.18,0,0,1,554.57,148.19Z"/><path class="cls-3" d="M574.22,155.07h7.17a7.91,7.91,0,0,1,.29,2.3,8.25,8.25,0,0,1-.29,2.3H569.92a8.25,8.25,0,0,1-.29-2.3,7.91,7.91,0,0,1,.29-2.3h-3.59a8.18,8.18,0,0,1-.29-2.29,7.91,7.91,0,0,1,.29-2.3,8.18,8.18,0,0,1-.29-2.29,7.86,7.86,0,0,1,.29-2.3,8.25,8.25,0,0,1-.29-2.3,7.83,7.83,0,0,1,.29-2.29A8.25,8.25,0,0,1,566,139a7.79,7.79,0,0,1,.29-2.29h5.74a7.79,7.79,0,0,1,.29,2.29,8.25,8.25,0,0,1-.29,2.3,7.83,7.83,0,0,1,.29,2.29,8.25,8.25,0,0,1-.29,2.3,7.86,7.86,0,0,1,.29,2.3,8.18,8.18,0,0,1-.29,2.29h2.15a7.91,7.91,0,0,1,.29,2.3A8.18,8.18,0,0,1,574.22,155.07Zm15.35-11.48a8.25,8.25,0,0,1-.29,2.3,7.86,7.86,0,0,1,.29,2.3,8.18,8.18,0,0,1-.29,2.29,7.91,7.91,0,0,1,.29,2.3,8.18,8.18,0,0,1-.29,2.29,7.91,7.91,0,0,1,.29,2.3,8.25,8.25,0,0,1-.29,2.3h-5.74a8.25,8.25,0,0,1-.29-2.3,7.91,7.91,0,0,1,.29-2.3h-2.15a8.18,8.18,0,0,1-.29-2.29,7.91,7.91,0,0,1,.29-2.3h2.15a8.18,8.18,0,0,1-.29-2.29,7.86,7.86,0,0,1,.29-2.3,8.25,8.25,0,0,1-.29-2.3,7.83,7.83,0,0,1,.29-2.29,8.25,8.25,0,0,1-.29-2.3,7.79,7.79,0,0,1,.29-2.29h5.74a7.79,7.79,0,0,1,.29,2.29,8.25,8.25,0,0,1-.29,2.3A7.83,7.83,0,0,1,589.57,143.59Z"/><path class="cls-3" d="M629.44,141.3h2.15a7.83,7.83,0,0,1,.29,2.29,8.25,8.25,0,0,1-.29,2.3h-2.15a7.89,7.89,0,0,1,.28,2.3,8.2,8.2,0,0,1-.28,2.29,7.94,7.94,0,0,1,.28,2.3,8.2,8.2,0,0,1-.28,2.29,7.94,7.94,0,0,1,.28,2.3,8.27,8.27,0,0,1-.28,2.3H623.7a8.25,8.25,0,0,1-.29-2.3,7.91,7.91,0,0,1,.29-2.3,8.18,8.18,0,0,1-.29-2.29,7.91,7.91,0,0,1,.29-2.3,8.18,8.18,0,0,1-.29-2.29,7.86,7.86,0,0,1,.29-2.3,8.25,8.25,0,0,1-.29-2.3,7.83,7.83,0,0,1,.29-2.29,8.25,8.25,0,0,1-.29-2.3,7.79,7.79,0,0,1,.29-2.29,8.25,8.25,0,0,1-.29-2.3,7.91,7.91,0,0,1,.29-2.3,8.18,8.18,0,0,1-.29-2.29,7.86,7.86,0,0,1,.29-2.3h5.74a7.89,7.89,0,0,1,.28,2.3,8.2,8.2,0,0,1-.28,2.29,7.94,7.94,0,0,1,.28,2.3,8.27,8.27,0,0,1-.28,2.3,7.82,7.82,0,0,1,.28,2.29A8.27,8.27,0,0,1,629.44,141.3Zm17.49,6.89a8.2,8.2,0,0,1-.28,2.29,7.94,7.94,0,0,1,.28,2.3,8.2,8.2,0,0,1-.28,2.29,7.94,7.94,0,0,1,.28,2.3,8.27,8.27,0,0,1-.28,2.3h-5.74a8.25,8.25,0,0,1-.29-2.3,7.91,7.91,0,0,1,.29-2.3,8.18,8.18,0,0,1-.29-2.29,7.91,7.91,0,0,1,.29-2.3,8.18,8.18,0,0,1-.29-2.29,7.86,7.86,0,0,1,.29-2.3,8.25,8.25,0,0,1-.29-2.3,7.83,7.83,0,0,1,.29-2.29h-9.32a8.25,8.25,0,0,1-.29-2.3,7.79,7.79,0,0,1,.29-2.29h11.47a7.79,7.79,0,0,1,.29,2.29,8.25,8.25,0,0,1-.29,2.3h3.59a7.86,7.86,0,0,1,.28,2.29,8.27,8.27,0,0,1-.28,2.3A7.89,7.89,0,0,1,646.93,148.19Z"/><path class="cls-3" d="M675.62,157.37a8.25,8.25,0,0,1-.29,2.3h-5.74a8.27,8.27,0,0,1-.28-2.3,7.94,7.94,0,0,1,.28-2.3h-2.86a8.18,8.18,0,0,1-.29-2.29,7.91,7.91,0,0,1,.29-2.3h-8.61a7.91,7.91,0,0,1,.29,2.3,8.18,8.18,0,0,1-.29,2.29h8.61a7.94,7.94,0,0,1,.28,2.3,8.27,8.27,0,0,1-.28,2.3H655.25a8.27,8.27,0,0,1-.28-2.3,7.94,7.94,0,0,1,.28-2.3h-2.87a8.2,8.2,0,0,1-.28-2.29,7.94,7.94,0,0,1,.28-2.3h2.87a8.2,8.2,0,0,1-.28-2.29,7.89,7.89,0,0,1,.28-2.3h11.48a8.25,8.25,0,0,1-.29-2.3,7.83,7.83,0,0,1,.29-2.29h-10a8.25,8.25,0,0,1-.29-2.3,7.79,7.79,0,0,1,.29-2.29h12.9a7.46,7.46,0,0,1,.29,2.29,7.89,7.89,0,0,1-.29,2.3h2.87a7.83,7.83,0,0,1,.29,2.29,8.25,8.25,0,0,1-.29,2.3,7.86,7.86,0,0,1,.29,2.3,8.18,8.18,0,0,1-.29,2.29,7.91,7.91,0,0,1,.29,2.3,8.18,8.18,0,0,1-.29,2.29h2.87A7.91,7.91,0,0,1,675.62,157.37Z"/><path class="cls-3" d="M704.3,143.59a8.27,8.27,0,0,1-.28,2.3h-5.74a8.25,8.25,0,0,1-.29-2.3,7.83,7.83,0,0,1,.29-2.29h-5a7.83,7.83,0,0,1,.29,2.29,8.25,8.25,0,0,1-.29,2.3h-2.15a7.89,7.89,0,0,1,.28,2.3,8.2,8.2,0,0,1-.28,2.29,7.94,7.94,0,0,1,.28,2.3,8.2,8.2,0,0,1-.28,2.29h4.3a7.91,7.91,0,0,1,.29,2.3,8.25,8.25,0,0,1-.29,2.3H681.07a8.25,8.25,0,0,1-.29-2.3,7.91,7.91,0,0,1,.29-2.3h4.3a8.18,8.18,0,0,1-.29-2.29,7.91,7.91,0,0,1,.29-2.3,8.18,8.18,0,0,1-.29-2.29,7.86,7.86,0,0,1,.29-2.3,8.25,8.25,0,0,1-.29-2.3,7.83,7.83,0,0,1,.29-2.29h-4.3a8.25,8.25,0,0,1-.29-2.3,7.79,7.79,0,0,1,.29-2.29h7.17a7.79,7.79,0,0,1,.29,2.29,8.25,8.25,0,0,1-.29,2.3h2.87a8.25,8.25,0,0,1-.29-2.3,7.79,7.79,0,0,1,.29-2.29h10.75a7.79,7.79,0,0,1,.29,2.29,8.25,8.25,0,0,1-.29,2.3H704A7.86,7.86,0,0,1,704.3,143.59Z"/><path class="cls-3" d="M101.94,212.48a8.18,8.18,0,0,1-.29,2.29,7.91,7.91,0,0,1,.29,2.3,8.3,8.3,0,0,1-.29,2.3,7.79,7.79,0,0,1,.29,2.29,8.25,8.25,0,0,1-.29,2.3,7.79,7.79,0,0,1,.29,2.29,8.25,8.25,0,0,1-.29,2.3H98.78a7.86,7.86,0,0,1,.29,2.3,8.18,8.18,0,0,1-.29,2.29H95.91a7.86,7.86,0,0,1,.29,2.3,8.18,8.18,0,0,1-.29,2.29H84.44a8.18,8.18,0,0,1-.29-2.29,7.86,7.86,0,0,1,.29-2.3H93a8.2,8.2,0,0,1-.28-2.29,7.89,7.89,0,0,1,.28-2.3h2.87a8.25,8.25,0,0,1-.29-2.3,7.79,7.79,0,0,1,.29-2.29H93a8.27,8.27,0,0,1-.28-2.3,7.82,7.82,0,0,1,.28-2.29h2.87a8.3,8.3,0,0,1-.29-2.3,7.91,7.91,0,0,1,.29-2.3,8.18,8.18,0,0,1-.29-2.29,7.86,7.86,0,0,1,.29-2.3H86.59a7.86,7.86,0,0,1,.29,2.3,8.18,8.18,0,0,1-.29,2.29H84.44a7.94,7.94,0,0,1,.28,2.3,8.32,8.32,0,0,1-.28,2.3h2.15a7.79,7.79,0,0,1,.29,2.29,8.25,8.25,0,0,1-.29,2.3H93a7.79,7.79,0,0,1,.29,2.29,8.25,8.25,0,0,1-.29,2.3h-8.6a8.25,8.25,0,0,1-.29-2.3,7.79,7.79,0,0,1,.29-2.29H80.85a8.25,8.25,0,0,1-.29-2.3,7.79,7.79,0,0,1,.29-2.29H78.7a8.3,8.3,0,0,1-.29-2.3,7.91,7.91,0,0,1,.29-2.3h2.15a8.18,8.18,0,0,1-.29-2.29,7.86,7.86,0,0,1,.29-2.3h3.59a8.2,8.2,0,0,1-.29-2.3,7.83,7.83,0,0,1,.29-2.29h17.21a7.83,7.83,0,0,1,.29,2.29,8.2,8.2,0,0,1-.29,2.3A7.86,7.86,0,0,1,101.94,212.48Z"/><path class="cls-3" d="M127.75,226.25a8.25,8.25,0,0,1-.29,2.3H110.25a8.27,8.27,0,0,1-.28-2.3,7.82,7.82,0,0,1,.28-2.29H116a8.25,8.25,0,0,1-.29-2.3,7.79,7.79,0,0,1,.29-2.29,8.3,8.3,0,0,1-.29-2.3,7.91,7.91,0,0,1,.29-2.3,8.18,8.18,0,0,1-.29-2.29,7.86,7.86,0,0,1,.29-2.3h-4.3a8.2,8.2,0,0,1-.29-2.3,7.83,7.83,0,0,1,.29-2.29h10a7.86,7.86,0,0,1,.28,2.29,8.22,8.22,0,0,1-.28,2.3,7.89,7.89,0,0,1,.28,2.3,8.2,8.2,0,0,1-.28,2.29,7.94,7.94,0,0,1,.28,2.3,8.32,8.32,0,0,1-.28,2.3,7.82,7.82,0,0,1,.28,2.29,8.27,8.27,0,0,1-.28,2.3h5.73A7.79,7.79,0,0,1,127.75,226.25ZM116,201a8.25,8.25,0,0,1-.29-2.3,7.91,7.91,0,0,1,.29-2.3h5.74a7.94,7.94,0,0,1,.28,2.3,8.27,8.27,0,0,1-.28,2.3Z"/><path class="cls-3" d="M159,210.18h-2.15a7.89,7.89,0,0,1,.28,2.3,8.2,8.2,0,0,1-.28,2.29h-2.16a7.91,7.91,0,0,1,.29,2.3,8.3,8.3,0,0,1-.29,2.3h-1.43a7.79,7.79,0,0,1,.29,2.29,8.25,8.25,0,0,1-.29,2.3h-2.87a7.79,7.79,0,0,1,.29,2.29,8.25,8.25,0,0,1-.29,2.3h-5.74a8.27,8.27,0,0,1-.28-2.3,7.82,7.82,0,0,1,.28-2.29h-2.86a7.89,7.89,0,0,1-.29-2.3,7.46,7.46,0,0,1,.29-2.29h-1.44a8.3,8.3,0,0,1-.29-2.3,7.91,7.91,0,0,1,.29-2.3h-2.15a8.18,8.18,0,0,1-.29-2.29,7.86,7.86,0,0,1,.29-2.3h-2.15a8.2,8.2,0,0,1-.29-2.3,7.83,7.83,0,0,1,.29-2.29h5.74a7.86,7.86,0,0,1,.28,2.29,8.22,8.22,0,0,1-.28,2.3H144a7.89,7.89,0,0,1,.28,2.3,8.2,8.2,0,0,1-.28,2.29h2.15a7.91,7.91,0,0,1,.29,2.3,8.3,8.3,0,0,1-.29,2.3H149a8.3,8.3,0,0,1-.29-2.3,7.91,7.91,0,0,1,.29-2.3h2.15a8.18,8.18,0,0,1-.29-2.29,7.86,7.86,0,0,1,.29-2.3h2.15a8.2,8.2,0,0,1-.29-2.3,7.83,7.83,0,0,1,.29-2.29H159a7.86,7.86,0,0,1,.28,2.29A8.22,8.22,0,0,1,159,210.18Z"/><path class="cls-3" d="M187.7,214.77a7.91,7.91,0,0,1,.29,2.3,8.3,8.3,0,0,1-.29,2.3H172.64a7.79,7.79,0,0,1,.29,2.29,8.25,8.25,0,0,1-.29,2.3h12.19a7.79,7.79,0,0,1,.29,2.29,8.25,8.25,0,0,1-.29,2.3H170.49a8.25,8.25,0,0,1-.29-2.3,7.79,7.79,0,0,1,.29-2.29H166.9a8.27,8.27,0,0,1-.28-2.3,7.82,7.82,0,0,1,.28-2.29h-2.15a8.32,8.32,0,0,1-.28-2.3,7.94,7.94,0,0,1,.28-2.3h2.15a8.2,8.2,0,0,1-.28-2.29,7.89,7.89,0,0,1,.28-2.3h3.59a8.2,8.2,0,0,1-.29-2.3,7.83,7.83,0,0,1,.29-2.29h14.34a7.83,7.83,0,0,1,.29,2.29,8.2,8.2,0,0,1-.29,2.3h2.87a7.86,7.86,0,0,1,.29,2.3A8.18,8.18,0,0,1,187.7,214.77Zm-6-2.29a7.89,7.89,0,0,1,.28-2.3h-9.32a7.86,7.86,0,0,1,.29,2.3,8.18,8.18,0,0,1-.29,2.29H182A8.2,8.2,0,0,1,181.68,212.48Z"/><path class="cls-3" d="M213.52,224a7.82,7.82,0,0,1,.28,2.29,8.27,8.27,0,0,1-.28,2.3H202a8.27,8.27,0,0,1-.28-2.3A7.82,7.82,0,0,1,202,224h-2.87a8.27,8.27,0,0,1-.28-2.3,7.82,7.82,0,0,1,.28-2.29,8.32,8.32,0,0,1-.28-2.3,7.94,7.94,0,0,1,.28-2.3,8.2,8.2,0,0,1-.28-2.29,7.89,7.89,0,0,1,.28-2.3h-5.73a8.2,8.2,0,0,1-.29-2.3,7.83,7.83,0,0,1,.29-2.29h5.73a8.27,8.27,0,0,1-.28-2.3,7.82,7.82,0,0,1,.28-2.29,8.27,8.27,0,0,1-.28-2.3,7.94,7.94,0,0,1,.28-2.3h5.74a7.91,7.91,0,0,1,.29,2.3,8.25,8.25,0,0,1-.29,2.3,7.79,7.79,0,0,1,.29,2.29,8.25,8.25,0,0,1-.29,2.3h8.61a7.86,7.86,0,0,1,.28,2.29,8.22,8.22,0,0,1-.28,2.3h-8.61a7.86,7.86,0,0,1,.29,2.3,8.18,8.18,0,0,1-.29,2.29,7.91,7.91,0,0,1,.29,2.3,8.3,8.3,0,0,1-.29,2.3,7.79,7.79,0,0,1,.29,2.29,8.25,8.25,0,0,1-.29,2.3Z"/><path class="cls-3" d="M273.75,219.37h-2.87a7.46,7.46,0,0,1,.29,2.29,7.89,7.89,0,0,1-.29,2.3H268a7.82,7.82,0,0,1,.28,2.29,8.27,8.27,0,0,1-.28,2.3H256.54a7.86,7.86,0,0,1,.29,2.3,8.18,8.18,0,0,1-.29,2.29,7.86,7.86,0,0,1,.29,2.3,8.18,8.18,0,0,1-.29,2.29h-5.73a7.82,7.82,0,0,1-.29-2.29,7.53,7.53,0,0,1,.29-2.3,7.82,7.82,0,0,1-.29-2.29,7.53,7.53,0,0,1,.29-2.3,7.89,7.89,0,0,1-.29-2.3,7.46,7.46,0,0,1,.29-2.29,7.89,7.89,0,0,1-.29-2.3,7.46,7.46,0,0,1,.29-2.29,7.94,7.94,0,0,1-.29-2.3,7.58,7.58,0,0,1,.29-2.3,7.82,7.82,0,0,1-.29-2.29,7.53,7.53,0,0,1,.29-2.3,7.85,7.85,0,0,1-.29-2.3,7.51,7.51,0,0,1,.29-2.29h5.73a7.83,7.83,0,0,1,.29,2.29,8.2,8.2,0,0,1-.29,2.3h2.87a7.86,7.86,0,0,1,.29,2.3,8.18,8.18,0,0,1-.29,2.29h-2.87a7.91,7.91,0,0,1,.29,2.3,8.3,8.3,0,0,1-.29,2.3,7.79,7.79,0,0,1,.29,2.29,8.25,8.25,0,0,1-.29,2.3h8.61a8.25,8.25,0,0,1-.29-2.3,7.79,7.79,0,0,1,.29-2.29H268a7.94,7.94,0,0,1-.29-2.3,7.58,7.58,0,0,1,.29-2.3h-2.87a8.18,8.18,0,0,1-.29-2.29,7.86,7.86,0,0,1,.29-2.3h-5.74a8.2,8.2,0,0,1-.29-2.3,7.83,7.83,0,0,1,.29-2.29H268a7.86,7.86,0,0,1,.28,2.29,8.22,8.22,0,0,1-.28,2.3h2.86a7.53,7.53,0,0,1,.29,2.3,7.82,7.82,0,0,1-.29,2.29h2.87a7.91,7.91,0,0,1,.29,2.3A8.3,8.3,0,0,1,273.75,219.37Z"/><path class="cls-3" d="M302.44,214.77a7.94,7.94,0,0,1,.28,2.3,8.32,8.32,0,0,1-.28,2.3H287.38a7.82,7.82,0,0,1,.28,2.29,8.27,8.27,0,0,1-.28,2.3h12.19a7.79,7.79,0,0,1,.29,2.29,8.25,8.25,0,0,1-.29,2.3H285.23a7.89,7.89,0,0,1-.29-2.3,7.46,7.46,0,0,1,.29-2.29h-3.59a8.25,8.25,0,0,1-.29-2.3,7.79,7.79,0,0,1,.29-2.29h-2.15a8.3,8.3,0,0,1-.29-2.3,7.91,7.91,0,0,1,.29-2.3h2.15a8.18,8.18,0,0,1-.29-2.29,7.86,7.86,0,0,1,.29-2.3h3.59a7.85,7.85,0,0,1-.29-2.3,7.51,7.51,0,0,1,.29-2.29h14.34a7.83,7.83,0,0,1,.29,2.29,8.2,8.2,0,0,1-.29,2.3h2.87a7.89,7.89,0,0,1,.28,2.3A8.2,8.2,0,0,1,302.44,214.77Zm-6-2.29a7.86,7.86,0,0,1,.29-2.3h-9.32a7.89,7.89,0,0,1,.28,2.3,8.2,8.2,0,0,1-.28,2.29h9.32A8.18,8.18,0,0,1,296.41,212.48Z"/><path class="cls-3" d="M313.19,210.18h2.87a7.86,7.86,0,0,1,.29,2.3,8.18,8.18,0,0,1-.29,2.29h-2.15a7.91,7.91,0,0,1,.29,2.3,8.3,8.3,0,0,1-.29,2.3,7.79,7.79,0,0,1,.29,2.29,8.25,8.25,0,0,1-.29,2.3,7.79,7.79,0,0,1,.29,2.29,8.25,8.25,0,0,1-.29,2.3h-5.74a8.27,8.27,0,0,1-.28-2.3,7.82,7.82,0,0,1,.28-2.29,8.27,8.27,0,0,1-.28-2.3,7.82,7.82,0,0,1,.28-2.29,8.32,8.32,0,0,1-.28-2.3,7.94,7.94,0,0,1,.28-2.3,8.2,8.2,0,0,1-.28-2.29,7.89,7.89,0,0,1,.28-2.3,8.22,8.22,0,0,1-.28-2.3,7.86,7.86,0,0,1,.28-2.29h5a7.83,7.83,0,0,1,.29,2.29A8.2,8.2,0,0,1,313.19,210.18Zm18.22,6.89a8.3,8.3,0,0,1-.29,2.3,7.79,7.79,0,0,1,.29,2.29,8.25,8.25,0,0,1-.29,2.3,7.79,7.79,0,0,1,.29,2.29,8.25,8.25,0,0,1-.29,2.3h-5.74a8.27,8.27,0,0,1-.28-2.3,7.82,7.82,0,0,1,.28-2.29,8.27,8.27,0,0,1-.28-2.3,7.82,7.82,0,0,1,.28-2.29,8.32,8.32,0,0,1-.28-2.3,7.94,7.94,0,0,1,.28-2.3,8.2,8.2,0,0,1-.28-2.29,7.89,7.89,0,0,1,.28-2.3h-9.32a8.22,8.22,0,0,1-.28-2.3,7.86,7.86,0,0,1,.28-2.29h11.48a7.86,7.86,0,0,1,.28,2.29,8.22,8.22,0,0,1-.28,2.3h3.58a7.86,7.86,0,0,1,.29,2.3,8.18,8.18,0,0,1-.29,2.29A7.91,7.91,0,0,1,331.41,217.07Z"/><path class="cls-3" d="M360.09,212.48a8.2,8.2,0,0,1-.28,2.29,7.94,7.94,0,0,1,.28,2.3,8.32,8.32,0,0,1-.28,2.3,7.82,7.82,0,0,1,.28,2.29,8.27,8.27,0,0,1-.28,2.3,7.82,7.82,0,0,1,.28,2.29,8.27,8.27,0,0,1-.28,2.3h-2.87a7.89,7.89,0,0,1,.28,2.3,8.2,8.2,0,0,1-.28,2.29h-2.87a7.86,7.86,0,0,1,.29,2.3,8.18,8.18,0,0,1-.29,2.29H342.6a7.82,7.82,0,0,1-.29-2.29,7.53,7.53,0,0,1,.29-2.3h8.6a8.18,8.18,0,0,1-.29-2.29,7.86,7.86,0,0,1,.29-2.3h2.87a8.25,8.25,0,0,1-.29-2.3,7.79,7.79,0,0,1,.29-2.29H351.2a8.25,8.25,0,0,1-.29-2.3,7.79,7.79,0,0,1,.29-2.29h2.87a8.3,8.3,0,0,1-.29-2.3,7.91,7.91,0,0,1,.29-2.3,8.18,8.18,0,0,1-.29-2.29,7.86,7.86,0,0,1,.29-2.3h-9.32a7.89,7.89,0,0,1,.28,2.3,8.2,8.2,0,0,1-.28,2.29H342.6a7.94,7.94,0,0,1,.28,2.3,8.32,8.32,0,0,1-.28,2.3h2.15a7.82,7.82,0,0,1,.28,2.29,8.27,8.27,0,0,1-.28,2.3h6.45a7.79,7.79,0,0,1,.29,2.29,8.25,8.25,0,0,1-.29,2.3h-8.6a7.89,7.89,0,0,1-.29-2.3,7.46,7.46,0,0,1,.29-2.29H339a8.25,8.25,0,0,1-.29-2.3,7.79,7.79,0,0,1,.29-2.29h-2.15a8.3,8.3,0,0,1-.29-2.3,7.91,7.91,0,0,1,.29-2.3H339a8.18,8.18,0,0,1-.29-2.29,7.86,7.86,0,0,1,.29-2.3h3.59a7.85,7.85,0,0,1-.29-2.3,7.51,7.51,0,0,1,.29-2.29h17.21a7.86,7.86,0,0,1,.28,2.29,8.22,8.22,0,0,1-.28,2.3A7.89,7.89,0,0,1,360.09,212.48Z"/><path class="cls-3" d="M388.49,214.77a7.91,7.91,0,0,1,.29,2.3,8.3,8.3,0,0,1-.29,2.3H373.43a7.79,7.79,0,0,1,.29,2.29,8.25,8.25,0,0,1-.29,2.3h12.19a7.79,7.79,0,0,1,.29,2.29,8.25,8.25,0,0,1-.29,2.3H371.28a8.25,8.25,0,0,1-.29-2.3,7.79,7.79,0,0,1,.29-2.29h-3.59a8.27,8.27,0,0,1-.28-2.3,7.82,7.82,0,0,1,.28-2.29h-2.15a8.32,8.32,0,0,1-.28-2.3,7.94,7.94,0,0,1,.28-2.3h2.15a8.2,8.2,0,0,1-.28-2.29,7.89,7.89,0,0,1,.28-2.3h3.59a8.2,8.2,0,0,1-.29-2.3,7.83,7.83,0,0,1,.29-2.29h14.34a7.83,7.83,0,0,1,.29,2.29,8.2,8.2,0,0,1-.29,2.3h2.87a7.86,7.86,0,0,1,.29,2.3A8.18,8.18,0,0,1,388.49,214.77Zm-6-2.29a7.89,7.89,0,0,1,.28-2.3h-9.32a7.86,7.86,0,0,1,.29,2.3,8.18,8.18,0,0,1-.29,2.29h9.32A8.2,8.2,0,0,1,382.47,212.48Z"/><path class="cls-3" d="M399.25,210.18h2.86a7.53,7.53,0,0,1,.29,2.3,7.82,7.82,0,0,1-.29,2.29H400a7.91,7.91,0,0,1,.29,2.3,8.3,8.3,0,0,1-.29,2.3,7.79,7.79,0,0,1,.29,2.29A8.25,8.25,0,0,1,400,224a7.79,7.79,0,0,1,.29,2.29,8.25,8.25,0,0,1-.29,2.3h-5.73a7.89,7.89,0,0,1-.29-2.3,7.46,7.46,0,0,1,.29-2.29,7.89,7.89,0,0,1-.29-2.3,7.46,7.46,0,0,1,.29-2.29,7.94,7.94,0,0,1-.29-2.3,7.58,7.58,0,0,1,.29-2.3,7.82,7.82,0,0,1-.29-2.29,7.53,7.53,0,0,1,.29-2.3,7.85,7.85,0,0,1-.29-2.3,7.51,7.51,0,0,1,.29-2.29h5a7.86,7.86,0,0,1,.28,2.29A8.22,8.22,0,0,1,399.25,210.18Zm18.21,6.89a8.3,8.3,0,0,1-.29,2.3,7.79,7.79,0,0,1,.29,2.29,8.25,8.25,0,0,1-.29,2.3,7.79,7.79,0,0,1,.29,2.29,8.25,8.25,0,0,1-.29,2.3h-5.73a8.25,8.25,0,0,1-.29-2.3,7.79,7.79,0,0,1,.29-2.29,8.25,8.25,0,0,1-.29-2.3,7.79,7.79,0,0,1,.29-2.29,8.3,8.3,0,0,1-.29-2.3,7.91,7.91,0,0,1,.29-2.3,8.18,8.18,0,0,1-.29-2.29,7.86,7.86,0,0,1,.29-2.3h-9.33a8.22,8.22,0,0,1-.28-2.3,7.86,7.86,0,0,1,.28-2.29h11.48a7.83,7.83,0,0,1,.29,2.29,8.2,8.2,0,0,1-.29,2.3h3.58a7.86,7.86,0,0,1,.29,2.3,8.18,8.18,0,0,1-.29,2.29A7.91,7.91,0,0,1,417.46,217.07Z"/><path class="cls-3" d="M445.86,214.77a7.94,7.94,0,0,1,.28,2.3,8.32,8.32,0,0,1-.28,2.3H430.8a7.79,7.79,0,0,1,.29,2.29,8.25,8.25,0,0,1-.29,2.3H443a7.79,7.79,0,0,1,.29,2.29,8.25,8.25,0,0,1-.29,2.3H428.65a8.25,8.25,0,0,1-.29-2.3,7.79,7.79,0,0,1,.29-2.29h-3.59a8.25,8.25,0,0,1-.29-2.3,7.79,7.79,0,0,1,.29-2.29h-2.15a8.3,8.3,0,0,1-.29-2.3,7.91,7.91,0,0,1,.29-2.3h2.15a8.18,8.18,0,0,1-.29-2.29,7.86,7.86,0,0,1,.29-2.3h3.59a8.2,8.2,0,0,1-.29-2.3,7.83,7.83,0,0,1,.29-2.29H443a7.83,7.83,0,0,1,.29,2.29,8.2,8.2,0,0,1-.29,2.3h2.87a7.89,7.89,0,0,1,.28,2.3A8.2,8.2,0,0,1,445.86,214.77Zm-6-2.29a7.86,7.86,0,0,1,.29-2.3H430.8a7.86,7.86,0,0,1,.29,2.3,8.18,8.18,0,0,1-.29,2.29h9.32A8.18,8.18,0,0,1,439.83,212.48Z"/><path class="cls-3" d="M500.36,224a7.82,7.82,0,0,1,.28,2.29,8.27,8.27,0,0,1-.28,2.3H488.88a8.27,8.27,0,0,1-.28-2.3,7.82,7.82,0,0,1,.28-2.29H486a7.89,7.89,0,0,1-.29-2.3,7.46,7.46,0,0,1,.29-2.29,7.94,7.94,0,0,1-.29-2.3,7.58,7.58,0,0,1,.29-2.3,7.82,7.82,0,0,1-.29-2.29,7.53,7.53,0,0,1,.29-2.3h-5.74a8.2,8.2,0,0,1-.29-2.3,7.83,7.83,0,0,1,.29-2.29H486a7.89,7.89,0,0,1-.29-2.3A7.46,7.46,0,0,1,486,201a7.89,7.89,0,0,1-.29-2.3,7.58,7.58,0,0,1,.29-2.3h5.73a7.91,7.91,0,0,1,.29,2.3,8.25,8.25,0,0,1-.29,2.3,7.79,7.79,0,0,1,.29,2.29,8.25,8.25,0,0,1-.29,2.3h8.61a7.86,7.86,0,0,1,.28,2.29,8.22,8.22,0,0,1-.28,2.3h-8.61a7.86,7.86,0,0,1,.29,2.3,8.18,8.18,0,0,1-.29,2.29,7.91,7.91,0,0,1,.29,2.3,8.3,8.3,0,0,1-.29,2.3,7.79,7.79,0,0,1,.29,2.29,8.25,8.25,0,0,1-.29,2.3Z"/><path class="cls-3" d="M529.33,226.25a8.25,8.25,0,0,1-.29,2.3H511.83a8.25,8.25,0,0,1-.29-2.3,7.79,7.79,0,0,1,.29-2.29h5.74a8.25,8.25,0,0,1-.29-2.3,7.79,7.79,0,0,1,.29-2.29,8.3,8.3,0,0,1-.29-2.3,7.91,7.91,0,0,1,.29-2.3,8.18,8.18,0,0,1-.29-2.29,7.86,7.86,0,0,1,.29-2.3h-4.3a7.85,7.85,0,0,1-.29-2.3,7.51,7.51,0,0,1,.29-2.29h10a7.86,7.86,0,0,1,.28,2.29,8.22,8.22,0,0,1-.28,2.3,7.89,7.89,0,0,1,.28,2.3,8.2,8.2,0,0,1-.28,2.29,7.94,7.94,0,0,1,.28,2.3,8.32,8.32,0,0,1-.28,2.3,7.82,7.82,0,0,1,.28,2.29,8.27,8.27,0,0,1-.28,2.3H529A7.79,7.79,0,0,1,529.33,226.25ZM517.57,201a8.25,8.25,0,0,1-.29-2.3,7.91,7.91,0,0,1,.29-2.3h5.74a7.94,7.94,0,0,1,.28,2.3,8.27,8.27,0,0,1-.28,2.3Z"/><path class="cls-3" d="M558,226.25a8.27,8.27,0,0,1-.28,2.3H540.52a7.89,7.89,0,0,1-.29-2.3,7.46,7.46,0,0,1,.29-2.29h5.73a8.27,8.27,0,0,1-.28-2.3,7.82,7.82,0,0,1,.28-2.29,8.32,8.32,0,0,1-.28-2.3,7.94,7.94,0,0,1,.28-2.3,8.2,8.2,0,0,1-.28-2.29,7.89,7.89,0,0,1,.28-2.3,8.22,8.22,0,0,1-.28-2.3,7.86,7.86,0,0,1,.28-2.29,8.27,8.27,0,0,1-.28-2.3,7.82,7.82,0,0,1,.28-2.29H542a8.25,8.25,0,0,1-.29-2.3,7.91,7.91,0,0,1,.29-2.3h10a7.91,7.91,0,0,1,.29,2.3A8.25,8.25,0,0,1,552,201a7.79,7.79,0,0,1,.29,2.29,8.25,8.25,0,0,1-.29,2.3,7.83,7.83,0,0,1,.29,2.29,8.2,8.2,0,0,1-.29,2.3,7.86,7.86,0,0,1,.29,2.3,8.18,8.18,0,0,1-.29,2.29,7.91,7.91,0,0,1,.29,2.3,8.3,8.3,0,0,1-.29,2.3,7.79,7.79,0,0,1,.29,2.29A8.25,8.25,0,0,1,552,224h5.74A7.82,7.82,0,0,1,558,226.25Z"/><path class="cls-3" d="M602.9,224h7.18a7.82,7.82,0,0,1,.28,2.29,8.27,8.27,0,0,1-.28,2.3H598.6a8.25,8.25,0,0,1-.29-2.3,7.79,7.79,0,0,1,.29-2.29H595a7.89,7.89,0,0,1-.29-2.3,7.46,7.46,0,0,1,.29-2.29,7.94,7.94,0,0,1-.29-2.3,7.58,7.58,0,0,1,.29-2.3,7.82,7.82,0,0,1-.29-2.29,7.53,7.53,0,0,1,.29-2.3,7.85,7.85,0,0,1-.29-2.3,7.51,7.51,0,0,1,.29-2.29h5.73a7.83,7.83,0,0,1,.29,2.29,8.2,8.2,0,0,1-.29,2.3,7.86,7.86,0,0,1,.29,2.3,8.18,8.18,0,0,1-.29,2.29,7.91,7.91,0,0,1,.29,2.3,8.3,8.3,0,0,1-.29,2.3h2.15a7.79,7.79,0,0,1,.29,2.29A8.25,8.25,0,0,1,602.9,224Zm15.35-11.48a8.18,8.18,0,0,1-.29,2.29,7.91,7.91,0,0,1,.29,2.3,8.3,8.3,0,0,1-.29,2.3,7.79,7.79,0,0,1,.29,2.29A8.25,8.25,0,0,1,618,224a7.79,7.79,0,0,1,.29,2.29,8.25,8.25,0,0,1-.29,2.3h-5.73a8.25,8.25,0,0,1-.29-2.3,7.79,7.79,0,0,1,.29-2.29h-2.15a7.89,7.89,0,0,1-.29-2.3,7.46,7.46,0,0,1,.29-2.29h2.15a8.3,8.3,0,0,1-.29-2.3,7.91,7.91,0,0,1,.29-2.3,8.18,8.18,0,0,1-.29-2.29,7.86,7.86,0,0,1,.29-2.3,8.2,8.2,0,0,1-.29-2.3,7.83,7.83,0,0,1,.29-2.29H618a7.83,7.83,0,0,1,.29,2.29,8.2,8.2,0,0,1-.29,2.3A7.86,7.86,0,0,1,618.25,212.48Z"/><path class="cls-3" d="M637.32,210.18h-7.17a7.86,7.86,0,0,1,.29,2.3,8.18,8.18,0,0,1-.29,2.29H628a7.91,7.91,0,0,1,.29,2.3,8.3,8.3,0,0,1-.29,2.3h2.15a7.79,7.79,0,0,1,.29,2.29,8.25,8.25,0,0,1-.29,2.3h7.17a7.46,7.46,0,0,1,.29,2.29,7.89,7.89,0,0,1-.29,2.3h-7.88a8.25,8.25,0,0,1-.29-2.3,7.79,7.79,0,0,1,.29-2.29h-3.59a8.25,8.25,0,0,1-.29-2.3,7.79,7.79,0,0,1,.29-2.29H623.7a8.3,8.3,0,0,1-.29-2.3,7.91,7.91,0,0,1,.29-2.3h2.15a8.18,8.18,0,0,1-.29-2.29,7.86,7.86,0,0,1,.29-2.3h3.59a8.2,8.2,0,0,1-.29-2.3,7.83,7.83,0,0,1,.29-2.29h7.88a7.51,7.51,0,0,1,.29,2.29A7.85,7.85,0,0,1,637.32,210.18Zm9.61-6.89a8.27,8.27,0,0,1-.28,2.3,7.86,7.86,0,0,1,.28,2.29,8.22,8.22,0,0,1-.28,2.3,7.89,7.89,0,0,1,.28,2.3,8.2,8.2,0,0,1-.28,2.29,7.94,7.94,0,0,1,.28,2.3,8.32,8.32,0,0,1-.28,2.3,7.82,7.82,0,0,1,.28,2.29,8.27,8.27,0,0,1-.28,2.3,7.82,7.82,0,0,1,.28,2.29,8.27,8.27,0,0,1-.28,2.3h-5.74a8.25,8.25,0,0,1-.29-2.3,7.79,7.79,0,0,1,.29-2.29h-2.15a8.25,8.25,0,0,1-.29-2.3,7.79,7.79,0,0,1,.29-2.29h2.15a8.3,8.3,0,0,1-.29-2.3,7.91,7.91,0,0,1,.29-2.3h-2.15a8.18,8.18,0,0,1-.29-2.29,7.86,7.86,0,0,1,.29-2.3h2.15a8.2,8.2,0,0,1-.29-2.3,7.83,7.83,0,0,1,.29-2.29,8.25,8.25,0,0,1-.29-2.3,7.79,7.79,0,0,1,.29-2.29,8.25,8.25,0,0,1-.29-2.3,7.91,7.91,0,0,1,.29-2.3h5.74a7.94,7.94,0,0,1,.28,2.3,8.27,8.27,0,0,1-.28,2.3A7.82,7.82,0,0,1,646.93,203.29Z"/><path class="cls-3" d="M673.9,224H671a7.79,7.79,0,0,1,.29,2.29,8.25,8.25,0,0,1-.29,2.3H655.25a8.27,8.27,0,0,1-.28-2.3,7.82,7.82,0,0,1,.28-2.29h12.91a8.25,8.25,0,0,1-.29-2.3,7.79,7.79,0,0,1,.29-2.29H656.69a8.3,8.3,0,0,1-.29-2.3,7.91,7.91,0,0,1,.29-2.3h-2.87a8.18,8.18,0,0,1-.29-2.29,7.86,7.86,0,0,1,.29-2.3h2.87a8.2,8.2,0,0,1-.29-2.3,7.83,7.83,0,0,1,.29-2.29h15.77a7.83,7.83,0,0,1,.29,2.29,8.2,8.2,0,0,1-.29,2.3h-12.9a7.89,7.89,0,0,1,.28,2.3,8.2,8.2,0,0,1-.28,2.29H671a7.91,7.91,0,0,1,.29,2.3,8.3,8.3,0,0,1-.29,2.3h2.87a7.82,7.82,0,0,1,.28,2.29A8.27,8.27,0,0,1,673.9,224Z"/><path class="cls-3" d="M704.3,226.25a8.27,8.27,0,0,1-.28,2.3h-5.74a8.25,8.25,0,0,1-.29-2.3,7.79,7.79,0,0,1,.29-2.29h-2.87a8.25,8.25,0,0,1-.29-2.3,7.79,7.79,0,0,1,.29-2.29H686.8a7.46,7.46,0,0,1,.29,2.29,7.89,7.89,0,0,1-.29,2.3h8.61a7.79,7.79,0,0,1,.29,2.29,8.25,8.25,0,0,1-.29,2.3H683.94a7.89,7.89,0,0,1-.29-2.3,7.46,7.46,0,0,1,.29-2.29h-2.87a8.25,8.25,0,0,1-.29-2.3,7.79,7.79,0,0,1,.29-2.29h2.87a7.94,7.94,0,0,1-.29-2.3,7.58,7.58,0,0,1,.29-2.3h11.47a8.18,8.18,0,0,1-.29-2.29,7.86,7.86,0,0,1,.29-2.3h-10a8.2,8.2,0,0,1-.29-2.3,7.83,7.83,0,0,1,.29-2.29h12.91a7.83,7.83,0,0,1,.29,2.29,8.2,8.2,0,0,1-.29,2.3h2.87a7.89,7.89,0,0,1,.28,2.3,8.2,8.2,0,0,1-.28,2.29,7.94,7.94,0,0,1,.28,2.3,8.32,8.32,0,0,1-.28,2.3,7.82,7.82,0,0,1,.28,2.29,8.27,8.27,0,0,1-.28,2.3H704A7.82,7.82,0,0,1,704.3,226.25Z"/><path class="cls-3" d="M729.83,224a7.79,7.79,0,0,1,.29,2.29,8.25,8.25,0,0,1-.29,2.3H718.36a8.25,8.25,0,0,1-.29-2.3,7.79,7.79,0,0,1,.29-2.29h-2.87a8.25,8.25,0,0,1-.29-2.3,7.79,7.79,0,0,1,.29-2.29,8.3,8.3,0,0,1-.29-2.3,7.91,7.91,0,0,1,.29-2.3,8.18,8.18,0,0,1-.29-2.29,7.86,7.86,0,0,1,.29-2.3h-5.74a8.22,8.22,0,0,1-.28-2.3,7.86,7.86,0,0,1,.28-2.29h5.74a8.25,8.25,0,0,1-.29-2.3,7.79,7.79,0,0,1,.29-2.29,8.25,8.25,0,0,1-.29-2.3,7.91,7.91,0,0,1,.29-2.3h5.74a7.94,7.94,0,0,1,.28,2.3,8.27,8.27,0,0,1-.28,2.3,7.82,7.82,0,0,1,.28,2.29,8.27,8.27,0,0,1-.28,2.3h8.6a7.83,7.83,0,0,1,.29,2.29,8.2,8.2,0,0,1-.29,2.3h-8.6a7.89,7.89,0,0,1,.28,2.3,8.2,8.2,0,0,1-.28,2.29,7.94,7.94,0,0,1,.28,2.3,8.32,8.32,0,0,1-.28,2.3,7.82,7.82,0,0,1,.28,2.29,8.27,8.27,0,0,1-.28,2.3Z"/><path class="cls-3" d="M758.52,224a7.82,7.82,0,0,1,.28,2.29,8.27,8.27,0,0,1-.28,2.3H747a8.25,8.25,0,0,1-.29-2.3A7.79,7.79,0,0,1,747,224h-2.87a8.27,8.27,0,0,1-.28-2.3,7.82,7.82,0,0,1,.28-2.29,8.32,8.32,0,0,1-.28-2.3,7.94,7.94,0,0,1,.28-2.3,8.2,8.2,0,0,1-.28-2.29,7.89,7.89,0,0,1,.28-2.3h-5.73a8.2,8.2,0,0,1-.29-2.3,7.83,7.83,0,0,1,.29-2.29h5.73a8.27,8.27,0,0,1-.28-2.3,7.82,7.82,0,0,1,.28-2.29,8.27,8.27,0,0,1-.28-2.3,7.94,7.94,0,0,1,.28-2.3h5.74a7.91,7.91,0,0,1,.29,2.3,8.25,8.25,0,0,1-.29,2.3,7.79,7.79,0,0,1,.29,2.29,8.25,8.25,0,0,1-.29,2.3h8.61a7.86,7.86,0,0,1,.28,2.29,8.22,8.22,0,0,1-.28,2.3h-8.61a7.86,7.86,0,0,1,.29,2.3,8.18,8.18,0,0,1-.29,2.29,7.91,7.91,0,0,1,.29,2.3,8.3,8.3,0,0,1-.29,2.3,7.79,7.79,0,0,1,.29,2.29,8.25,8.25,0,0,1-.29,2.3Z"/><path class="cls-3" d="M790.07,214.77a7.94,7.94,0,0,1,.28,2.3,8.32,8.32,0,0,1-.28,2.3H775a7.79,7.79,0,0,1,.29,2.29A8.25,8.25,0,0,1,775,224H787.2a7.79,7.79,0,0,1,.29,2.29,8.25,8.25,0,0,1-.29,2.3H772.86a8.25,8.25,0,0,1-.29-2.3,7.79,7.79,0,0,1,.29-2.29h-3.59a8.27,8.27,0,0,1-.28-2.3,7.82,7.82,0,0,1,.28-2.29h-2.15a8.3,8.3,0,0,1-.29-2.3,7.91,7.91,0,0,1,.29-2.3h2.15a8.2,8.2,0,0,1-.28-2.29,7.89,7.89,0,0,1,.28-2.3h3.59a8.2,8.2,0,0,1-.29-2.3,7.83,7.83,0,0,1,.29-2.29H787.2a7.83,7.83,0,0,1,.29,2.29,8.2,8.2,0,0,1-.29,2.3h2.87a7.89,7.89,0,0,1,.28,2.3A8.2,8.2,0,0,1,790.07,214.77Zm-6-2.29a7.86,7.86,0,0,1,.29-2.3H775a7.86,7.86,0,0,1,.29,2.3,8.18,8.18,0,0,1-.29,2.29h9.32A8.18,8.18,0,0,1,784,212.48Z"/><path class="cls-3" d="M84.72,290.54a8.22,8.22,0,0,1-.28,2.3H81.57a7.86,7.86,0,0,1,.29,2.3,8.18,8.18,0,0,1-.29,2.29H78.7a8.18,8.18,0,0,1-.29-2.29,7.86,7.86,0,0,1,.29-2.3,8.2,8.2,0,0,1-.29-2.3,7.83,7.83,0,0,1,.29-2.29,8.25,8.25,0,0,1-.29-2.3,7.79,7.79,0,0,1,.29-2.29,8.25,8.25,0,0,1-.29-2.3,7.91,7.91,0,0,1,.29-2.3,8.18,8.18,0,0,1-.29-2.29,7.86,7.86,0,0,1,.29-2.3,8.18,8.18,0,0,1-.29-2.29,7.86,7.86,0,0,1,.29-2.3,8.25,8.25,0,0,1-.29-2.3,7.83,7.83,0,0,1,.29-2.29h5.74a7.86,7.86,0,0,1,.28,2.29,8.27,8.27,0,0,1-.28,2.3,7.89,7.89,0,0,1,.28,2.3,8.2,8.2,0,0,1-.28,2.29,7.89,7.89,0,0,1,.28,2.3,8.2,8.2,0,0,1-.28,2.29h2.87a7.94,7.94,0,0,1,.28,2.3,8.27,8.27,0,0,1-.28,2.3H84.44a7.82,7.82,0,0,1,.28,2.29,8.27,8.27,0,0,1-.28,2.3A7.86,7.86,0,0,1,84.72,290.54Zm-.28,2.3H93a7.86,7.86,0,0,1,.29,2.3,8.18,8.18,0,0,1-.29,2.29h-8.6a8.18,8.18,0,0,1-.29-2.29A7.86,7.86,0,0,1,84.44,292.84Zm17.21-4.59H98.78a7.83,7.83,0,0,1,.29,2.29,8.2,8.2,0,0,1-.29,2.3H93a8.22,8.22,0,0,1-.28-2.3,7.86,7.86,0,0,1,.28-2.29h2.87a8.25,8.25,0,0,1-.29-2.3,7.79,7.79,0,0,1,.29-2.29H93a8.27,8.27,0,0,1-.28-2.3,7.94,7.94,0,0,1,.28-2.3H87.31a7.82,7.82,0,0,1-.29-2.29,7.53,7.53,0,0,1,.29-2.3h8.6a7.86,7.86,0,0,1,.29,2.3,8.18,8.18,0,0,1-.29,2.29h2.87a7.91,7.91,0,0,1,.29,2.3,8.25,8.25,0,0,1-.29,2.3h2.87a7.79,7.79,0,0,1,.29,2.29A8.25,8.25,0,0,1,101.65,288.25Z"/><path class="cls-3" d="M130.33,288.25h-2.15a7.83,7.83,0,0,1,.29,2.29,8.2,8.2,0,0,1-.29,2.3H124.6a7.89,7.89,0,0,1,.28,2.3,8.2,8.2,0,0,1-.28,2.29h-10a7.89,7.89,0,0,1,.28,2.3,8.32,8.32,0,0,1-.28,2.3h-5.74a8.3,8.3,0,0,1-.29-2.3,7.86,7.86,0,0,1,.29-2.3h2.87a8.18,8.18,0,0,1-.29-2.29,7.86,7.86,0,0,1,.29-2.3h-2.15a7.85,7.85,0,0,1-.29-2.3,7.51,7.51,0,0,1,.29-2.29h-2.16a8.27,8.27,0,0,1-.28-2.3,7.82,7.82,0,0,1,.28-2.29h2.16a7.89,7.89,0,0,1-.29-2.3,7.58,7.58,0,0,1,.29-2.3h3.58a8.18,8.18,0,0,1-.29-2.29,7.86,7.86,0,0,1,.29-2.3h10a8.18,8.18,0,0,1-.29-2.29,7.86,7.86,0,0,1,.29-2.3h5.74a7.86,7.86,0,0,1,.29,2.3,8.18,8.18,0,0,1-.29,2.29H126a7.86,7.86,0,0,1,.29,2.3,8.18,8.18,0,0,1-.29,2.29h2.15a7.91,7.91,0,0,1,.29,2.3,8.25,8.25,0,0,1-.29,2.3h2.15a7.79,7.79,0,0,1,.29,2.29A8.25,8.25,0,0,1,130.33,288.25Zm-5.73,0a7.89,7.89,0,0,1-.29-2.3,7.46,7.46,0,0,1,.29-2.29H121a8.25,8.25,0,0,1-.29-2.3,7.91,7.91,0,0,1,.29-2.3h-5.74a7.91,7.91,0,0,1,.29,2.3,8.25,8.25,0,0,1-.29,2.3h-2.15a7.79,7.79,0,0,1,.29,2.29,8.25,8.25,0,0,1-.29,2.3h3.59a7.86,7.86,0,0,1,.28,2.29,8.22,8.22,0,0,1-.28,2.3h5.73a8.22,8.22,0,0,1-.28-2.3,7.86,7.86,0,0,1,.28-2.29Zm-3.59,0h-4.3a8.25,8.25,0,0,1-.29-2.3,7.79,7.79,0,0,1,.29-2.29H121a7.79,7.79,0,0,1,.29,2.29A8.25,8.25,0,0,1,121,288.25Z"/><path class="cls-3" d="M159.3,281.36a8.27,8.27,0,0,1-.28,2.3h-5.74a8.25,8.25,0,0,1-.29-2.3,7.91,7.91,0,0,1,.29-2.3h-5a7.91,7.91,0,0,1,.29,2.3,8.25,8.25,0,0,1-.29,2.3h-2.15a7.79,7.79,0,0,1,.29,2.29,8.25,8.25,0,0,1-.29,2.3,7.83,7.83,0,0,1,.29,2.29,8.2,8.2,0,0,1-.29,2.3h4.3a7.86,7.86,0,0,1,.29,2.3,8.18,8.18,0,0,1-.29,2.29H136.07a8.18,8.18,0,0,1-.29-2.29,7.86,7.86,0,0,1,.29-2.3h4.3a8.2,8.2,0,0,1-.29-2.3,7.83,7.83,0,0,1,.29-2.29,8.25,8.25,0,0,1-.29-2.3,7.79,7.79,0,0,1,.29-2.29,8.25,8.25,0,0,1-.29-2.3,7.91,7.91,0,0,1,.29-2.3h-4.3a8.18,8.18,0,0,1-.29-2.29,7.86,7.86,0,0,1,.29-2.3h7.17a7.86,7.86,0,0,1,.29,2.3,8.18,8.18,0,0,1-.29,2.29h2.87a8.18,8.18,0,0,1-.29-2.29,7.86,7.86,0,0,1,.29-2.3h10.76a7.89,7.89,0,0,1,.28,2.3,8.2,8.2,0,0,1-.28,2.29H159A7.94,7.94,0,0,1,159.3,281.36Z"/><path class="cls-3" d="M169.77,279.06h2.87a7.91,7.91,0,0,1,.29,2.3,8.25,8.25,0,0,1-.29,2.3h-2.15a7.79,7.79,0,0,1,.29,2.29,8.25,8.25,0,0,1-.29,2.3,7.83,7.83,0,0,1,.29,2.29,8.2,8.2,0,0,1-.29,2.3,7.86,7.86,0,0,1,.29,2.3,8.18,8.18,0,0,1-.29,2.29h-5.74a8.2,8.2,0,0,1-.28-2.29,7.89,7.89,0,0,1,.28-2.3,8.22,8.22,0,0,1-.28-2.3,7.86,7.86,0,0,1,.28-2.29,8.27,8.27,0,0,1-.28-2.3,7.82,7.82,0,0,1,.28-2.29,8.27,8.27,0,0,1-.28-2.3,7.94,7.94,0,0,1,.28-2.3,8.2,8.2,0,0,1-.28-2.29,7.89,7.89,0,0,1,.28-2.3h5a7.86,7.86,0,0,1,.29,2.3A8.18,8.18,0,0,1,169.77,279.06ZM188,286a8.25,8.25,0,0,1-.29,2.3,7.83,7.83,0,0,1,.29,2.29,8.2,8.2,0,0,1-.29,2.3,7.86,7.86,0,0,1,.29,2.3,8.18,8.18,0,0,1-.29,2.29H182a8.2,8.2,0,0,1-.28-2.29,7.89,7.89,0,0,1,.28-2.3,8.22,8.22,0,0,1-.28-2.3,7.86,7.86,0,0,1,.28-2.29,8.27,8.27,0,0,1-.28-2.3,7.82,7.82,0,0,1,.28-2.29,8.27,8.27,0,0,1-.28-2.3,7.94,7.94,0,0,1,.28-2.3h-9.32a8.18,8.18,0,0,1-.29-2.29,7.86,7.86,0,0,1,.29-2.3h11.48a7.89,7.89,0,0,1,.28,2.3,8.2,8.2,0,0,1-.28,2.29h3.58a7.91,7.91,0,0,1,.29,2.3,8.25,8.25,0,0,1-.29,2.3A7.79,7.79,0,0,1,188,286Z"/><path class="cls-3" d="M245.07,288.25h-2.15a7.86,7.86,0,0,1,.28,2.29,8.22,8.22,0,0,1-.28,2.3h-3.59a7.86,7.86,0,0,1,.29,2.3,8.18,8.18,0,0,1-.29,2.29H227.86a8.18,8.18,0,0,1-.29-2.29,7.86,7.86,0,0,1,.29-2.3h-3.59a8.22,8.22,0,0,1-.28-2.3,7.86,7.86,0,0,1,.28-2.29h-2.15a8.25,8.25,0,0,1-.29-2.3,7.79,7.79,0,0,1,.29-2.29h2.15a8.27,8.27,0,0,1-.28-2.3,7.94,7.94,0,0,1,.28-2.3h3.59a8.18,8.18,0,0,1-.29-2.29,7.86,7.86,0,0,1,.29-2.3h11.47a7.86,7.86,0,0,1,.29,2.3,8.18,8.18,0,0,1-.29,2.29h3.59a7.94,7.94,0,0,1,.28,2.3,8.27,8.27,0,0,1-.28,2.3h2.15a7.79,7.79,0,0,1,.29,2.29A8.25,8.25,0,0,1,245.07,288.25Zm-5.74,0a8.27,8.27,0,0,1-.28-2.3,7.82,7.82,0,0,1,.28-2.29h-2.15a8.25,8.25,0,0,1-.29-2.3,7.91,7.91,0,0,1,.29-2.3H230a7.91,7.91,0,0,1,.29,2.3,8.25,8.25,0,0,1-.29,2.3h-2.15a7.79,7.79,0,0,1,.29,2.29,8.25,8.25,0,0,1-.29,2.3H230a7.83,7.83,0,0,1,.29,2.29,8.2,8.2,0,0,1-.29,2.3h7.17a8.2,8.2,0,0,1-.29-2.3,7.83,7.83,0,0,1,.29-2.29Z"/><path class="cls-3" d="M274,281.36a8.25,8.25,0,0,1-.29,2.3A7.79,7.79,0,0,1,274,286a8.25,8.25,0,0,1-.29,2.3,7.83,7.83,0,0,1,.29,2.29,8.2,8.2,0,0,1-.29,2.3,7.86,7.86,0,0,1,.29,2.3,8.18,8.18,0,0,1-.29,2.29h-2.87a7.53,7.53,0,0,1,.29,2.3,7.94,7.94,0,0,1-.29,2.3H268a7.82,7.82,0,0,1,.28,2.29,8.27,8.27,0,0,1-.28,2.3H256.54a8.27,8.27,0,0,1-.28-2.3,7.82,7.82,0,0,1,.28-2.29h8.61a8.3,8.3,0,0,1-.29-2.3,7.86,7.86,0,0,1,.29-2.3H268a7.82,7.82,0,0,1-.29-2.29,7.53,7.53,0,0,1,.29-2.3h-2.87a8.2,8.2,0,0,1-.29-2.3,7.83,7.83,0,0,1,.29-2.29H268a7.89,7.89,0,0,1-.29-2.3,7.46,7.46,0,0,1,.29-2.29,7.89,7.89,0,0,1-.29-2.3,7.58,7.58,0,0,1,.29-2.3h-9.33a7.91,7.91,0,0,1,.29,2.3,8.25,8.25,0,0,1-.29,2.3h-2.15a7.79,7.79,0,0,1,.29,2.29,8.25,8.25,0,0,1-.29,2.3h2.15a7.83,7.83,0,0,1,.29,2.29,8.2,8.2,0,0,1-.29,2.3h6.46a7.89,7.89,0,0,1,.28,2.3,8.2,8.2,0,0,1-.28,2.29h-8.61a8.2,8.2,0,0,1-.28-2.29,7.89,7.89,0,0,1,.28-2.3H253a8.2,8.2,0,0,1-.29-2.3,7.83,7.83,0,0,1,.29-2.29h-2.15a7.89,7.89,0,0,1-.29-2.3,7.46,7.46,0,0,1,.29-2.29H253a8.25,8.25,0,0,1-.29-2.3,7.91,7.91,0,0,1,.29-2.3h3.58a8.2,8.2,0,0,1-.28-2.29,7.89,7.89,0,0,1,.28-2.3h17.21a7.86,7.86,0,0,1,.29,2.3,8.18,8.18,0,0,1-.29,2.29A7.91,7.91,0,0,1,274,281.36Z"/><path class="cls-3" d="M313.91,279.06h2.15a7.91,7.91,0,0,1,.29,2.3,8.25,8.25,0,0,1-.29,2.3h-2.15a7.79,7.79,0,0,1,.29,2.29,8.25,8.25,0,0,1-.29,2.3,7.83,7.83,0,0,1,.29,2.29,8.2,8.2,0,0,1-.29,2.3,7.86,7.86,0,0,1,.29,2.3,8.18,8.18,0,0,1-.29,2.29h-5.74a8.2,8.2,0,0,1-.28-2.29,7.89,7.89,0,0,1,.28-2.3,8.22,8.22,0,0,1-.28-2.3,7.86,7.86,0,0,1,.28-2.29,8.27,8.27,0,0,1-.28-2.3,7.82,7.82,0,0,1,.28-2.29,8.27,8.27,0,0,1-.28-2.3,7.94,7.94,0,0,1,.28-2.3,8.2,8.2,0,0,1-.28-2.29,7.89,7.89,0,0,1,.28-2.3,8.2,8.2,0,0,1-.28-2.29,7.89,7.89,0,0,1,.28-2.3,8.27,8.27,0,0,1-.28-2.3,7.86,7.86,0,0,1,.28-2.29h5.74a7.83,7.83,0,0,1,.29,2.29,8.25,8.25,0,0,1-.29,2.3,7.86,7.86,0,0,1,.29,2.3,8.18,8.18,0,0,1-.29,2.29,7.86,7.86,0,0,1,.29,2.3A8.18,8.18,0,0,1,313.91,279.06Zm17.5,6.89a8.25,8.25,0,0,1-.29,2.3,7.83,7.83,0,0,1,.29,2.29,8.2,8.2,0,0,1-.29,2.3,7.86,7.86,0,0,1,.29,2.3,8.18,8.18,0,0,1-.29,2.29h-5.74a8.2,8.2,0,0,1-.28-2.29,7.89,7.89,0,0,1,.28-2.3,8.22,8.22,0,0,1-.28-2.3,7.86,7.86,0,0,1,.28-2.29,8.27,8.27,0,0,1-.28-2.3,7.82,7.82,0,0,1,.28-2.29,8.27,8.27,0,0,1-.28-2.3,7.94,7.94,0,0,1,.28-2.3h-9.32a8.2,8.2,0,0,1-.28-2.29,7.89,7.89,0,0,1,.28-2.3h11.48a7.89,7.89,0,0,1,.28,2.3,8.2,8.2,0,0,1-.28,2.29h3.58a7.91,7.91,0,0,1,.29,2.3,8.25,8.25,0,0,1-.29,2.3A7.79,7.79,0,0,1,331.41,286Z"/><path class="cls-3" d="M360.09,295.14a8.2,8.2,0,0,1-.28,2.29h-5.74a8.18,8.18,0,0,1-.29-2.29,7.86,7.86,0,0,1,.29-2.3H351.2a8.2,8.2,0,0,1-.29-2.3,7.83,7.83,0,0,1,.29-2.29h-8.6a7.86,7.86,0,0,1,.28,2.29,8.22,8.22,0,0,1-.28,2.3h8.6a7.86,7.86,0,0,1,.29,2.3,8.18,8.18,0,0,1-.29,2.29H339.73a8.18,8.18,0,0,1-.29-2.29,7.86,7.86,0,0,1,.29-2.3h-2.87a8.2,8.2,0,0,1-.29-2.3,7.83,7.83,0,0,1,.29-2.29h2.87a8.25,8.25,0,0,1-.29-2.3,7.79,7.79,0,0,1,.29-2.29H351.2a8.25,8.25,0,0,1-.29-2.3,7.91,7.91,0,0,1,.29-2.3h-10a8.18,8.18,0,0,1-.29-2.29,7.86,7.86,0,0,1,.29-2.3h12.91a7.86,7.86,0,0,1,.29,2.3,8.18,8.18,0,0,1-.29,2.29h2.87a7.94,7.94,0,0,1,.28,2.3,8.27,8.27,0,0,1-.28,2.3,7.82,7.82,0,0,1,.28,2.29,8.27,8.27,0,0,1-.28,2.3,7.86,7.86,0,0,1,.28,2.29,8.22,8.22,0,0,1-.28,2.3h2.87A7.89,7.89,0,0,1,360.09,295.14Z"/><path class="cls-3" d="M388.78,281.36a8.25,8.25,0,0,1-.29,2.3h-5.74a8.27,8.27,0,0,1-.28-2.3,7.94,7.94,0,0,1,.28-2.3h-5a7.91,7.91,0,0,1,.29,2.3,8.25,8.25,0,0,1-.29,2.3h-2.15a7.79,7.79,0,0,1,.29,2.29,8.25,8.25,0,0,1-.29,2.3,7.83,7.83,0,0,1,.29,2.29,8.2,8.2,0,0,1-.29,2.3h4.3a7.53,7.53,0,0,1,.29,2.3,7.82,7.82,0,0,1-.29,2.29H365.54a8.2,8.2,0,0,1-.28-2.29,7.89,7.89,0,0,1,.28-2.3h4.31a7.85,7.85,0,0,1-.29-2.3,7.51,7.51,0,0,1,.29-2.29,7.89,7.89,0,0,1-.29-2.3,7.46,7.46,0,0,1,.29-2.29,7.89,7.89,0,0,1-.29-2.3,7.58,7.58,0,0,1,.29-2.3h-4.31a8.2,8.2,0,0,1-.28-2.29,7.89,7.89,0,0,1,.28-2.3h7.17a7.86,7.86,0,0,1,.29,2.3,8.18,8.18,0,0,1-.29,2.29h2.87a8.18,8.18,0,0,1-.29-2.29,7.86,7.86,0,0,1,.29-2.3h10.76a7.86,7.86,0,0,1,.29,2.3,8.18,8.18,0,0,1-.29,2.29h2.15A7.91,7.91,0,0,1,388.78,281.36Z"/><path class="cls-3" d="M445.86,288.25H443a7.83,7.83,0,0,1,.29,2.29,8.2,8.2,0,0,1-.29,2.3h-2.87a7.86,7.86,0,0,1,.29,2.3,8.18,8.18,0,0,1-.29,2.29H428.65a7.89,7.89,0,0,1,.28,2.3,8.32,8.32,0,0,1-.28,2.3,7.82,7.82,0,0,1,.28,2.29,8.27,8.27,0,0,1-.28,2.3h-5.74a8.25,8.25,0,0,1-.29-2.3,7.79,7.79,0,0,1,.29-2.29,8.3,8.3,0,0,1-.29-2.3,7.86,7.86,0,0,1,.29-2.3,8.18,8.18,0,0,1-.29-2.29,7.86,7.86,0,0,1,.29-2.3,8.2,8.2,0,0,1-.29-2.3,7.83,7.83,0,0,1,.29-2.29,8.25,8.25,0,0,1-.29-2.3,7.79,7.79,0,0,1,.29-2.29,8.25,8.25,0,0,1-.29-2.3,7.91,7.91,0,0,1,.29-2.3,8.18,8.18,0,0,1-.29-2.29,7.86,7.86,0,0,1,.29-2.3h5.74a7.89,7.89,0,0,1,.28,2.3,8.2,8.2,0,0,1-.28,2.29h2.87a7.94,7.94,0,0,1,.28,2.3,8.27,8.27,0,0,1-.28,2.3h-2.87a7.82,7.82,0,0,1,.28,2.29,8.27,8.27,0,0,1-.28,2.3,7.86,7.86,0,0,1,.28,2.29,8.22,8.22,0,0,1-.28,2.3h8.6a8.22,8.22,0,0,1-.28-2.3,7.86,7.86,0,0,1,.28-2.29h2.87a8.25,8.25,0,0,1-.29-2.3,7.79,7.79,0,0,1,.29-2.29h-2.87a8.27,8.27,0,0,1-.28-2.3,7.94,7.94,0,0,1,.28-2.3h-5.73a7.82,7.82,0,0,1-.29-2.29,7.53,7.53,0,0,1,.29-2.3h8.6a7.86,7.86,0,0,1,.29,2.3,8.18,8.18,0,0,1-.29,2.29H443a7.91,7.91,0,0,1,.29,2.3,8.25,8.25,0,0,1-.29,2.3h2.87a7.82,7.82,0,0,1,.28,2.29A8.27,8.27,0,0,1,445.86,288.25Z"/><path class="cls-3" d="M474.83,295.14a8.18,8.18,0,0,1-.29,2.29H468.8a8.2,8.2,0,0,1-.28-2.29,7.89,7.89,0,0,1,.28-2.3h-2.86a8.2,8.2,0,0,1-.29-2.3,7.83,7.83,0,0,1,.29-2.29h-8.61a7.83,7.83,0,0,1,.29,2.29,8.2,8.2,0,0,1-.29,2.3h8.61a7.89,7.89,0,0,1,.28,2.3,8.2,8.2,0,0,1-.28,2.29H454.46a8.2,8.2,0,0,1-.28-2.29,7.89,7.89,0,0,1,.28-2.3h-2.87a8.22,8.22,0,0,1-.28-2.3,7.86,7.86,0,0,1,.28-2.29h2.87a8.27,8.27,0,0,1-.28-2.3,7.82,7.82,0,0,1,.28-2.29h11.48a8.25,8.25,0,0,1-.29-2.3,7.91,7.91,0,0,1,.29-2.3h-10a8.18,8.18,0,0,1-.29-2.29,7.86,7.86,0,0,1,.29-2.3h12.9a7.53,7.53,0,0,1,.29,2.3,7.82,7.82,0,0,1-.29,2.29h2.87a7.91,7.91,0,0,1,.29,2.3,8.25,8.25,0,0,1-.29,2.3A7.79,7.79,0,0,1,472,286a8.25,8.25,0,0,1-.29,2.3,7.83,7.83,0,0,1,.29,2.29,8.2,8.2,0,0,1-.29,2.3h2.87A7.86,7.86,0,0,1,474.83,295.14Z"/><path class="cls-3" d="M501.79,292.84h-2.87a7.53,7.53,0,0,1,.29,2.3,7.82,7.82,0,0,1-.29,2.29H483.15a8.18,8.18,0,0,1-.29-2.29,7.86,7.86,0,0,1,.29-2.3h12.91a7.85,7.85,0,0,1-.29-2.3,7.51,7.51,0,0,1,.29-2.29H484.58a8.25,8.25,0,0,1-.29-2.3,7.79,7.79,0,0,1,.29-2.29h-2.87a8.27,8.27,0,0,1-.28-2.3,7.94,7.94,0,0,1,.28-2.3h2.87a8.18,8.18,0,0,1-.29-2.29,7.86,7.86,0,0,1,.29-2.3h15.78a7.89,7.89,0,0,1,.28,2.3,8.2,8.2,0,0,1-.28,2.29H487.45a7.91,7.91,0,0,1,.29,2.3,8.25,8.25,0,0,1-.29,2.3h11.47a7.46,7.46,0,0,1,.29,2.29,7.89,7.89,0,0,1-.29,2.3h2.87a7.83,7.83,0,0,1,.29,2.29A8.2,8.2,0,0,1,501.79,292.84Z"/><path class="cls-3" d="M530.48,292.84h-2.87a7.86,7.86,0,0,1,.29,2.3,8.18,8.18,0,0,1-.29,2.29H511.83a8.18,8.18,0,0,1-.29-2.29,7.86,7.86,0,0,1,.29-2.3h12.91a8.2,8.2,0,0,1-.29-2.3,7.83,7.83,0,0,1,.29-2.29H513.27A7.89,7.89,0,0,1,513,286a7.46,7.46,0,0,1,.29-2.29H510.4a8.25,8.25,0,0,1-.29-2.3,7.91,7.91,0,0,1,.29-2.3h2.87a7.82,7.82,0,0,1-.29-2.29,7.53,7.53,0,0,1,.29-2.3H529a7.86,7.86,0,0,1,.29,2.3,8.18,8.18,0,0,1-.29,2.29H516.13a7.58,7.58,0,0,1,.29,2.3,7.89,7.89,0,0,1-.29,2.3h11.48a7.79,7.79,0,0,1,.29,2.29,8.25,8.25,0,0,1-.29,2.3h2.87a7.86,7.86,0,0,1,.28,2.29A8.22,8.22,0,0,1,530.48,292.84Z"/><path class="cls-3" d="M560.6,283.66a7.82,7.82,0,0,1,.28,2.29,8.27,8.27,0,0,1-.28,2.3H545.54a7.86,7.86,0,0,1,.28,2.29,8.22,8.22,0,0,1-.28,2.3h12.19a7.89,7.89,0,0,1,.28,2.3,8.2,8.2,0,0,1-.28,2.29H543.38a8.2,8.2,0,0,1-.28-2.29,7.89,7.89,0,0,1,.28-2.3H539.8a8.2,8.2,0,0,1-.29-2.3,7.83,7.83,0,0,1,.29-2.29h-2.15a8.25,8.25,0,0,1-.29-2.3,7.79,7.79,0,0,1,.29-2.29h2.15a8.25,8.25,0,0,1-.29-2.3,7.91,7.91,0,0,1,.29-2.3h3.58a8.2,8.2,0,0,1-.28-2.29,7.89,7.89,0,0,1,.28-2.3h14.35a7.89,7.89,0,0,1,.28,2.3,8.2,8.2,0,0,1-.28,2.29h2.87a7.94,7.94,0,0,1,.28,2.3A8.27,8.27,0,0,1,560.6,283.66Zm-6-2.3a7.91,7.91,0,0,1,.29-2.3h-9.32a7.94,7.94,0,0,1,.28,2.3,8.27,8.27,0,0,1-.28,2.3h9.32A8.25,8.25,0,0,1,554.57,281.36Z"/><path class="cls-3" d="M586.41,292.84a7.86,7.86,0,0,1,.29,2.3,8.18,8.18,0,0,1-.29,2.29H574.94a8.18,8.18,0,0,1-.29-2.29,7.86,7.86,0,0,1,.29-2.3h-2.87a8.2,8.2,0,0,1-.29-2.3,7.83,7.83,0,0,1,.29-2.29,8.25,8.25,0,0,1-.29-2.3,7.79,7.79,0,0,1,.29-2.29,8.25,8.25,0,0,1-.29-2.3,7.91,7.91,0,0,1,.29-2.3h-5.74a8.18,8.18,0,0,1-.29-2.29,7.86,7.86,0,0,1,.29-2.3h5.74a8.18,8.18,0,0,1-.29-2.29,7.86,7.86,0,0,1,.29-2.3,8.25,8.25,0,0,1-.29-2.3,7.83,7.83,0,0,1,.29-2.29h5.74a7.86,7.86,0,0,1,.28,2.29,8.27,8.27,0,0,1-.28,2.3,7.89,7.89,0,0,1,.28,2.3,8.2,8.2,0,0,1-.28,2.29h8.6a7.86,7.86,0,0,1,.29,2.3,8.18,8.18,0,0,1-.29,2.29h-8.6a7.94,7.94,0,0,1,.28,2.3,8.27,8.27,0,0,1-.28,2.3,7.82,7.82,0,0,1,.28,2.29,8.27,8.27,0,0,1-.28,2.3,7.86,7.86,0,0,1,.28,2.29,8.22,8.22,0,0,1-.28,2.3Z"/><path class="cls-3" d="M637.32,279.06h-7.17a7.91,7.91,0,0,1,.29,2.3,8.25,8.25,0,0,1-.29,2.3H628a7.79,7.79,0,0,1,.29,2.29,8.25,8.25,0,0,1-.29,2.3h2.15a7.83,7.83,0,0,1,.29,2.29,8.2,8.2,0,0,1-.29,2.3h7.17a7.53,7.53,0,0,1,.29,2.3,7.82,7.82,0,0,1-.29,2.29h-7.88a8.18,8.18,0,0,1-.29-2.29,7.86,7.86,0,0,1,.29-2.3h-3.59a8.2,8.2,0,0,1-.29-2.3,7.83,7.83,0,0,1,.29-2.29H623.7a8.25,8.25,0,0,1-.29-2.3,7.79,7.79,0,0,1,.29-2.29h2.15a8.25,8.25,0,0,1-.29-2.3,7.91,7.91,0,0,1,.29-2.3h3.59a8.18,8.18,0,0,1-.29-2.29,7.86,7.86,0,0,1,.29-2.3h7.88a7.53,7.53,0,0,1,.29,2.3A7.82,7.82,0,0,1,637.32,279.06Zm9.61-6.88a8.2,8.2,0,0,1-.28,2.29,7.89,7.89,0,0,1,.28,2.3,8.2,8.2,0,0,1-.28,2.29,7.94,7.94,0,0,1,.28,2.3,8.27,8.27,0,0,1-.28,2.3,7.82,7.82,0,0,1,.28,2.29,8.27,8.27,0,0,1-.28,2.3,7.86,7.86,0,0,1,.28,2.29,8.22,8.22,0,0,1-.28,2.3,7.89,7.89,0,0,1,.28,2.3,8.2,8.2,0,0,1-.28,2.29h-5.74a8.18,8.18,0,0,1-.29-2.29,7.86,7.86,0,0,1,.29-2.3h-2.15a8.2,8.2,0,0,1-.29-2.3,7.83,7.83,0,0,1,.29-2.29h2.15a8.25,8.25,0,0,1-.29-2.3,7.79,7.79,0,0,1,.29-2.29h-2.15a8.25,8.25,0,0,1-.29-2.3,7.91,7.91,0,0,1,.29-2.3h2.15a8.18,8.18,0,0,1-.29-2.29,7.86,7.86,0,0,1,.29-2.3,8.18,8.18,0,0,1-.29-2.29,7.86,7.86,0,0,1,.29-2.3,8.25,8.25,0,0,1-.29-2.3,7.83,7.83,0,0,1,.29-2.29h5.74a7.86,7.86,0,0,1,.28,2.29,8.27,8.27,0,0,1-.28,2.3A7.89,7.89,0,0,1,646.93,272.18Z"/><path class="cls-3" d="M672.75,295.14a8.18,8.18,0,0,1-.29,2.29H655.25a8.2,8.2,0,0,1-.28-2.29,7.89,7.89,0,0,1,.28-2.3H661a8.2,8.2,0,0,1-.29-2.3,7.83,7.83,0,0,1,.29-2.29,8.25,8.25,0,0,1-.29-2.3,7.79,7.79,0,0,1,.29-2.29,8.25,8.25,0,0,1-.29-2.3,7.91,7.91,0,0,1,.29-2.3h-4.3a8.18,8.18,0,0,1-.29-2.29,7.86,7.86,0,0,1,.29-2.3h10a7.89,7.89,0,0,1,.28,2.3,8.2,8.2,0,0,1-.28,2.29,7.94,7.94,0,0,1,.28,2.3,8.27,8.27,0,0,1-.28,2.3A7.82,7.82,0,0,1,667,286a8.27,8.27,0,0,1-.28,2.3,7.86,7.86,0,0,1,.28,2.29,8.22,8.22,0,0,1-.28,2.3h5.73A7.86,7.86,0,0,1,672.75,295.14ZM661,269.88a8.25,8.25,0,0,1-.29-2.3,7.83,7.83,0,0,1,.29-2.29h5.74a7.86,7.86,0,0,1,.28,2.29,8.27,8.27,0,0,1-.28,2.3Z"/><path class="cls-3" d="M701.15,292.84a7.89,7.89,0,0,1,.28,2.3,8.2,8.2,0,0,1-.28,2.29H689.67a8.2,8.2,0,0,1-.28-2.29,7.89,7.89,0,0,1,.28-2.3H686.8a8.22,8.22,0,0,1-.28-2.3,7.86,7.86,0,0,1,.28-2.29,8.27,8.27,0,0,1-.28-2.3,7.82,7.82,0,0,1,.28-2.29,8.27,8.27,0,0,1-.28-2.3,7.94,7.94,0,0,1,.28-2.3h-5.73a8.18,8.18,0,0,1-.29-2.29,7.86,7.86,0,0,1,.29-2.3h5.73a8.2,8.2,0,0,1-.28-2.29,7.89,7.89,0,0,1,.28-2.3,8.27,8.27,0,0,1-.28-2.3,7.86,7.86,0,0,1,.28-2.29h5.74a7.83,7.83,0,0,1,.29,2.29,8.25,8.25,0,0,1-.29,2.3,7.86,7.86,0,0,1,.29,2.3,8.18,8.18,0,0,1-.29,2.29h8.61a7.89,7.89,0,0,1,.28,2.3,8.2,8.2,0,0,1-.28,2.29h-8.61a7.91,7.91,0,0,1,.29,2.3,8.25,8.25,0,0,1-.29,2.3,7.79,7.79,0,0,1,.29,2.29,8.25,8.25,0,0,1-.29,2.3,7.83,7.83,0,0,1,.29,2.29,8.2,8.2,0,0,1-.29,2.3Z"/><path class="cls-3" d="M101.94,364a8.25,8.25,0,0,1-.29,2.3H95.91a8.25,8.25,0,0,1-.29-2.3,7.91,7.91,0,0,1,.29-2.3H93a8.2,8.2,0,0,1-.28-2.29,7.89,7.89,0,0,1,.28-2.3h-8.6a7.89,7.89,0,0,1,.28,2.3,8.2,8.2,0,0,1-.28,2.29H93a7.91,7.91,0,0,1,.29,2.3,8.25,8.25,0,0,1-.29,2.3H81.57a8.25,8.25,0,0,1-.29-2.3,7.91,7.91,0,0,1,.29-2.3H78.7a8.18,8.18,0,0,1-.29-2.29,7.86,7.86,0,0,1,.29-2.3h2.87a8.2,8.2,0,0,1-.29-2.3,7.83,7.83,0,0,1,.29-2.29H93a8.27,8.27,0,0,1-.28-2.3A7.82,7.82,0,0,1,93,348H83a8.27,8.27,0,0,1-.28-2.3,7.94,7.94,0,0,1,.28-2.3H95.91a7.91,7.91,0,0,1,.29,2.3,8.25,8.25,0,0,1-.29,2.3h2.87a7.79,7.79,0,0,1,.29,2.29,8.25,8.25,0,0,1-.29,2.3,7.83,7.83,0,0,1,.29,2.29,8.2,8.2,0,0,1-.29,2.3,7.86,7.86,0,0,1,.29,2.3,8.18,8.18,0,0,1-.29,2.29h2.87A7.91,7.91,0,0,1,101.94,364Z"/><path class="cls-3" d="M130.62,350.24a8.25,8.25,0,0,1-.29,2.3H124.6a7.89,7.89,0,0,1-.29-2.3,7.46,7.46,0,0,1,.29-2.29h-5a7.82,7.82,0,0,1,.28,2.29,8.27,8.27,0,0,1-.28,2.3h-2.16a7.83,7.83,0,0,1,.29,2.29,8.2,8.2,0,0,1-.29,2.3,7.86,7.86,0,0,1,.29,2.3,8.18,8.18,0,0,1-.29,2.29h4.31A7.94,7.94,0,0,1,122,364a8.27,8.27,0,0,1-.28,2.3H107.38a8.27,8.27,0,0,1-.28-2.3,7.94,7.94,0,0,1,.28-2.3h4.31a8.18,8.18,0,0,1-.29-2.29,7.86,7.86,0,0,1,.29-2.3,8.2,8.2,0,0,1-.29-2.3,7.83,7.83,0,0,1,.29-2.29,8.25,8.25,0,0,1-.29-2.3,7.79,7.79,0,0,1,.29-2.29h-4.31a8.27,8.27,0,0,1-.28-2.3,7.94,7.94,0,0,1,.28-2.3h7.18a7.94,7.94,0,0,1,.28,2.3,8.27,8.27,0,0,1-.28,2.3h2.86a8.27,8.27,0,0,1-.28-2.3,7.94,7.94,0,0,1,.28-2.3h10.76a7.91,7.91,0,0,1,.29,2.3,8.25,8.25,0,0,1-.29,2.3h2.15A7.79,7.79,0,0,1,130.62,350.24Z"/><path class="cls-3" d="M142.09,359.43a8.2,8.2,0,0,1-.28,2.29h-2.87a7.94,7.94,0,0,1,.28,2.3,8.27,8.27,0,0,1-.28,2.3h-2.87a8.25,8.25,0,0,1-.29-2.3,7.91,7.91,0,0,1,.29-2.3,8.18,8.18,0,0,1-.29-2.29,7.86,7.86,0,0,1,.29-2.3,8.2,8.2,0,0,1-.29-2.3,7.83,7.83,0,0,1,.29-2.29,8.25,8.25,0,0,1-.29-2.3,7.79,7.79,0,0,1,.29-2.29,8.25,8.25,0,0,1-.29-2.3,7.91,7.91,0,0,1,.29-2.3,8.18,8.18,0,0,1-.29-2.29,7.86,7.86,0,0,1,.29-2.3,8.18,8.18,0,0,1-.29-2.29,7.86,7.86,0,0,1,.29-2.3h5.74a7.89,7.89,0,0,1,.28,2.3,8.2,8.2,0,0,1-.28,2.29,7.89,7.89,0,0,1,.28,2.3,8.2,8.2,0,0,1-.28,2.29,7.94,7.94,0,0,1,.28,2.3,8.27,8.27,0,0,1-.28,2.3h2.86a7.79,7.79,0,0,1,.29,2.29,8.25,8.25,0,0,1-.29,2.3h-2.86a7.86,7.86,0,0,1,.28,2.29,8.22,8.22,0,0,1-.28,2.3A7.89,7.89,0,0,1,142.09,359.43Zm-.28,2.29h8.6a7.91,7.91,0,0,1,.29,2.3,8.25,8.25,0,0,1-.29,2.3h-8.6a7.89,7.89,0,0,1-.29-2.3A7.58,7.58,0,0,1,141.81,361.72ZM159,357.13h-2.87a7.89,7.89,0,0,1,.28,2.3,8.2,8.2,0,0,1-.28,2.29h-5.74a8.18,8.18,0,0,1-.29-2.29,7.86,7.86,0,0,1,.29-2.3h2.87a8.2,8.2,0,0,1-.29-2.3,7.83,7.83,0,0,1,.29-2.29h-2.87a8.25,8.25,0,0,1-.29-2.3,7.79,7.79,0,0,1,.29-2.29h-5.74a8.27,8.27,0,0,1-.28-2.3,7.94,7.94,0,0,1,.28-2.3h8.61a7.91,7.91,0,0,1,.29,2.3,8.25,8.25,0,0,1-.29,2.3h2.87a7.82,7.82,0,0,1,.28,2.29,8.27,8.27,0,0,1-.28,2.3H159a7.86,7.86,0,0,1,.28,2.29A8.22,8.22,0,0,1,159,357.13Z"/><path class="cls-3" d="M187.7,352.54a7.83,7.83,0,0,1,.29,2.29,8.2,8.2,0,0,1-.29,2.3H172.64a7.86,7.86,0,0,1,.29,2.3,8.18,8.18,0,0,1-.29,2.29h12.19a7.91,7.91,0,0,1,.29,2.3,8.25,8.25,0,0,1-.29,2.3H170.49a8.25,8.25,0,0,1-.29-2.3,7.91,7.91,0,0,1,.29-2.3H166.9a8.2,8.2,0,0,1-.28-2.29,7.89,7.89,0,0,1,.28-2.3h-2.15a8.22,8.22,0,0,1-.28-2.3,7.86,7.86,0,0,1,.28-2.29h2.15a8.27,8.27,0,0,1-.28-2.3,7.82,7.82,0,0,1,.28-2.29h3.59a8.25,8.25,0,0,1-.29-2.3,7.91,7.91,0,0,1,.29-2.3h14.34a7.91,7.91,0,0,1,.29,2.3,8.25,8.25,0,0,1-.29,2.3h2.87a7.79,7.79,0,0,1,.29,2.29A8.25,8.25,0,0,1,187.7,352.54Zm-6-2.3A7.82,7.82,0,0,1,182,348h-9.32a7.79,7.79,0,0,1,.29,2.29,8.25,8.25,0,0,1-.29,2.3H182A8.27,8.27,0,0,1,181.68,350.24Z"/><path class="cls-3" d="M210.94,345.65a8.25,8.25,0,0,1-.29,2.3,7.79,7.79,0,0,1,.29,2.29,8.25,8.25,0,0,1-.29,2.3,7.83,7.83,0,0,1,.29,2.29,8.2,8.2,0,0,1-.29,2.3,7.86,7.86,0,0,1,.29,2.3,8.18,8.18,0,0,1-.29,2.29,7.91,7.91,0,0,1,.29,2.3,8.25,8.25,0,0,1-.29,2.3h-2.87a7.79,7.79,0,0,1,.29,2.29,8.25,8.25,0,0,1-.29,2.3h-2.87a7.83,7.83,0,0,1,.29,2.29,8.25,8.25,0,0,1-.29,2.3h-8.6a7.89,7.89,0,0,1-.29-2.3,7.51,7.51,0,0,1,.29-2.29H202a8.27,8.27,0,0,1-.28-2.3,7.82,7.82,0,0,1,.28-2.29h2.87a8.25,8.25,0,0,1-.29-2.3,7.91,7.91,0,0,1,.29-2.3,8.18,8.18,0,0,1-.29-2.29,7.86,7.86,0,0,1,.29-2.3,8.2,8.2,0,0,1-.29-2.3,7.83,7.83,0,0,1,.29-2.29,8.25,8.25,0,0,1-.29-2.3,7.79,7.79,0,0,1,.29-2.29h-5.74a8.27,8.27,0,0,1-.28-2.3,7.94,7.94,0,0,1,.28-2.3h11.48A7.91,7.91,0,0,1,210.94,345.65Zm-6-6.89a8.18,8.18,0,0,1-.29-2.29,7.86,7.86,0,0,1,.29-2.3h5.74a7.86,7.86,0,0,1,.29,2.3,8.18,8.18,0,0,1-.29,2.29Z"/><path class="cls-3" d="M235.75,348h-7.17a7.82,7.82,0,0,1,.28,2.29,8.27,8.27,0,0,1-.28,2.3h-2.16a7.83,7.83,0,0,1,.29,2.29,8.2,8.2,0,0,1-.29,2.3h2.16a7.89,7.89,0,0,1,.28,2.3,8.2,8.2,0,0,1-.28,2.29h7.17A7.94,7.94,0,0,1,236,364a8.27,8.27,0,0,1-.28,2.3h-7.89a8.25,8.25,0,0,1-.29-2.3,7.91,7.91,0,0,1,.29-2.3h-3.59a8.2,8.2,0,0,1-.28-2.29,7.89,7.89,0,0,1,.28-2.3h-2.15a8.2,8.2,0,0,1-.29-2.3,7.83,7.83,0,0,1,.29-2.29h2.15a8.27,8.27,0,0,1-.28-2.3,7.82,7.82,0,0,1,.28-2.29h3.59a8.25,8.25,0,0,1-.29-2.3,7.91,7.91,0,0,1,.29-2.3h7.89a7.94,7.94,0,0,1,.28,2.3A8.27,8.27,0,0,1,235.75,348Zm9.61-6.89a8.18,8.18,0,0,1-.29,2.29,7.91,7.91,0,0,1,.29,2.3,8.25,8.25,0,0,1-.29,2.3,7.79,7.79,0,0,1,.29,2.29,8.25,8.25,0,0,1-.29,2.3,7.83,7.83,0,0,1,.29,2.29,8.2,8.2,0,0,1-.29,2.3,7.86,7.86,0,0,1,.29,2.3,8.18,8.18,0,0,1-.29,2.29,7.91,7.91,0,0,1,.29,2.3,8.25,8.25,0,0,1-.29,2.3h-5.74a8.27,8.27,0,0,1-.28-2.3,7.94,7.94,0,0,1,.28-2.3h-2.15a8.18,8.18,0,0,1-.29-2.29,7.86,7.86,0,0,1,.29-2.3h2.15a8.22,8.22,0,0,1-.28-2.3,7.86,7.86,0,0,1,.28-2.29h-2.15a8.25,8.25,0,0,1-.29-2.3,7.79,7.79,0,0,1,.29-2.29h2.15a8.27,8.27,0,0,1-.28-2.3,7.94,7.94,0,0,1,.28-2.3,8.2,8.2,0,0,1-.28-2.29,7.89,7.89,0,0,1,.28-2.3,8.2,8.2,0,0,1-.28-2.29,7.89,7.89,0,0,1,.28-2.3h5.74a7.86,7.86,0,0,1,.29,2.3,8.18,8.18,0,0,1-.29,2.29A7.86,7.86,0,0,1,245.36,341.06Z"/><path class="cls-3" d="M273.75,352.54a7.83,7.83,0,0,1,.29,2.29,8.2,8.2,0,0,1-.29,2.3H258.69a7.86,7.86,0,0,1,.29,2.3,8.18,8.18,0,0,1-.29,2.29h12.19a7.58,7.58,0,0,1,.29,2.3,7.89,7.89,0,0,1-.29,2.3H256.54a8.27,8.27,0,0,1-.28-2.3,7.94,7.94,0,0,1,.28-2.3H253a8.18,8.18,0,0,1-.29-2.29,7.86,7.86,0,0,1,.29-2.3h-2.15a7.85,7.85,0,0,1-.29-2.3,7.51,7.51,0,0,1,.29-2.29H253a8.25,8.25,0,0,1-.29-2.3A7.79,7.79,0,0,1,253,348h3.58a8.27,8.27,0,0,1-.28-2.3,7.94,7.94,0,0,1,.28-2.3h14.34a7.58,7.58,0,0,1,.29,2.3,7.89,7.89,0,0,1-.29,2.3h2.87a7.79,7.79,0,0,1,.29,2.29A8.25,8.25,0,0,1,273.75,352.54Zm-6-2.3A7.46,7.46,0,0,1,268,348h-9.33a7.79,7.79,0,0,1,.29,2.29,8.25,8.25,0,0,1-.29,2.3H268A7.89,7.89,0,0,1,267.73,350.24Z"/><path class="cls-3" d="M328.25,343.35a7.91,7.91,0,0,1,.29,2.3,8.25,8.25,0,0,1-.29,2.3h-8.6a7.79,7.79,0,0,1,.29,2.29,8.25,8.25,0,0,1-.29,2.3,7.83,7.83,0,0,1,.29,2.29,8.2,8.2,0,0,1-.29,2.3,7.86,7.86,0,0,1,.29,2.3,8.18,8.18,0,0,1-.29,2.29h5.73a7.58,7.58,0,0,1,.29,2.3,7.89,7.89,0,0,1-.29,2.3H311a8.27,8.27,0,0,1-.28-2.3,7.94,7.94,0,0,1,.28-2.3h2.87a8.18,8.18,0,0,1-.29-2.29,7.86,7.86,0,0,1,.29-2.3,8.2,8.2,0,0,1-.29-2.3,7.83,7.83,0,0,1,.29-2.29,8.25,8.25,0,0,1-.29-2.3,7.79,7.79,0,0,1,.29-2.29H311a8.27,8.27,0,0,1-.28-2.3,7.94,7.94,0,0,1,.28-2.3h2.87a8.18,8.18,0,0,1-.29-2.29,7.86,7.86,0,0,1,.29-2.3h2.87a8.18,8.18,0,0,1-.29-2.29,7.86,7.86,0,0,1,.29-2.3h11.47a7.86,7.86,0,0,1,.29,2.3,8.18,8.18,0,0,1-.29,2.29h-8.6a7.86,7.86,0,0,1,.29,2.3,8.18,8.18,0,0,1-.29,2.29Z"/><path class="cls-3" d="M359.81,357.13h-2.16a7.53,7.53,0,0,1,.29,2.3,7.82,7.82,0,0,1-.29,2.29h-3.58a7.91,7.91,0,0,1,.29,2.3,8.25,8.25,0,0,1-.29,2.3H342.6a7.89,7.89,0,0,1-.29-2.3,7.58,7.58,0,0,1,.29-2.3H339a8.18,8.18,0,0,1-.29-2.29,7.86,7.86,0,0,1,.29-2.3h-2.15a8.2,8.2,0,0,1-.29-2.3,7.83,7.83,0,0,1,.29-2.29H339a8.25,8.25,0,0,1-.29-2.3A7.79,7.79,0,0,1,339,348h3.59a7.89,7.89,0,0,1-.29-2.3,7.58,7.58,0,0,1,.29-2.3h11.47a7.91,7.91,0,0,1,.29,2.3,8.25,8.25,0,0,1-.29,2.3h3.58a7.46,7.46,0,0,1,.29,2.29,7.89,7.89,0,0,1-.29,2.3h2.16a7.86,7.86,0,0,1,.28,2.29A8.22,8.22,0,0,1,359.81,357.13Zm-5.74,0a8.2,8.2,0,0,1-.29-2.3,7.83,7.83,0,0,1,.29-2.29h-2.15a8.25,8.25,0,0,1-.29-2.3,7.79,7.79,0,0,1,.29-2.29h-7.17a7.82,7.82,0,0,1,.28,2.29,8.27,8.27,0,0,1-.28,2.3H342.6a7.86,7.86,0,0,1,.28,2.29,8.22,8.22,0,0,1-.28,2.3h2.15a7.89,7.89,0,0,1,.28,2.3,8.2,8.2,0,0,1-.28,2.29h7.17a8.18,8.18,0,0,1-.29-2.29,7.86,7.86,0,0,1,.29-2.3Z"/><path class="cls-3" d="M388.78,350.24a8.25,8.25,0,0,1-.29,2.3h-5.74a8.27,8.27,0,0,1-.28-2.3,7.82,7.82,0,0,1,.28-2.29h-5a7.79,7.79,0,0,1,.29,2.29,8.25,8.25,0,0,1-.29,2.3h-2.15a7.83,7.83,0,0,1,.29,2.29,8.2,8.2,0,0,1-.29,2.3,7.86,7.86,0,0,1,.29,2.3,8.18,8.18,0,0,1-.29,2.29h4.3a7.58,7.58,0,0,1,.29,2.3,7.89,7.89,0,0,1-.29,2.3H365.54a8.27,8.27,0,0,1-.28-2.3,7.94,7.94,0,0,1,.28-2.3h4.31a7.82,7.82,0,0,1-.29-2.29,7.53,7.53,0,0,1,.29-2.3,7.85,7.85,0,0,1-.29-2.3,7.51,7.51,0,0,1,.29-2.29,7.89,7.89,0,0,1-.29-2.3,7.46,7.46,0,0,1,.29-2.29h-4.31a8.27,8.27,0,0,1-.28-2.3,7.94,7.94,0,0,1,.28-2.3h7.17a7.91,7.91,0,0,1,.29,2.3,8.25,8.25,0,0,1-.29,2.3h2.87a8.25,8.25,0,0,1-.29-2.3,7.91,7.91,0,0,1,.29-2.3h10.76a7.91,7.91,0,0,1,.29,2.3,8.25,8.25,0,0,1-.29,2.3h2.15A7.79,7.79,0,0,1,388.78,350.24Z"/><path class="cls-3" d="M399.25,348h2.86a7.46,7.46,0,0,1,.29,2.29,7.89,7.89,0,0,1-.29,2.3H400a7.83,7.83,0,0,1,.29,2.29,8.2,8.2,0,0,1-.29,2.3,7.86,7.86,0,0,1,.29,2.3,8.18,8.18,0,0,1-.29,2.29,7.91,7.91,0,0,1,.29,2.3,8.25,8.25,0,0,1-.29,2.3h-5.73a7.89,7.89,0,0,1-.29-2.3,7.58,7.58,0,0,1,.29-2.3,7.82,7.82,0,0,1-.29-2.29,7.53,7.53,0,0,1,.29-2.3,7.85,7.85,0,0,1-.29-2.3,7.51,7.51,0,0,1,.29-2.29,7.89,7.89,0,0,1-.29-2.3,7.46,7.46,0,0,1,.29-2.29,7.89,7.89,0,0,1-.29-2.3,7.58,7.58,0,0,1,.29-2.3h5a7.94,7.94,0,0,1,.28,2.3A8.27,8.27,0,0,1,399.25,348Zm18.21,6.88a8.2,8.2,0,0,1-.29,2.3,7.86,7.86,0,0,1,.29,2.3,8.18,8.18,0,0,1-.29,2.29,7.91,7.91,0,0,1,.29,2.3,8.25,8.25,0,0,1-.29,2.3h-5.73a8.25,8.25,0,0,1-.29-2.3,7.91,7.91,0,0,1,.29-2.3,8.18,8.18,0,0,1-.29-2.29,7.86,7.86,0,0,1,.29-2.3,8.2,8.2,0,0,1-.29-2.3,7.83,7.83,0,0,1,.29-2.29,8.25,8.25,0,0,1-.29-2.3,7.79,7.79,0,0,1,.29-2.29h-9.33a8.27,8.27,0,0,1-.28-2.3,7.94,7.94,0,0,1,.28-2.3h11.48a7.91,7.91,0,0,1,.29,2.3,8.25,8.25,0,0,1-.29,2.3h3.58a7.79,7.79,0,0,1,.29,2.29,8.25,8.25,0,0,1-.29,2.3A7.83,7.83,0,0,1,417.46,354.83Z"/><path class="cls-3" d="M430.8,361.72H438a7.91,7.91,0,0,1,.29,2.3,8.25,8.25,0,0,1-.29,2.3H426.5a7.89,7.89,0,0,1-.29-2.3,7.58,7.58,0,0,1,.29-2.3h-3.59a8.18,8.18,0,0,1-.29-2.29,7.86,7.86,0,0,1,.29-2.3,8.2,8.2,0,0,1-.29-2.3,7.83,7.83,0,0,1,.29-2.29,8.25,8.25,0,0,1-.29-2.3,7.79,7.79,0,0,1,.29-2.29,8.25,8.25,0,0,1-.29-2.3,7.91,7.91,0,0,1,.29-2.3h5.74a7.94,7.94,0,0,1,.28,2.3,8.27,8.27,0,0,1-.28,2.3,7.82,7.82,0,0,1,.28,2.29,8.27,8.27,0,0,1-.28,2.3,7.86,7.86,0,0,1,.28,2.29,8.22,8.22,0,0,1-.28,2.3h2.15a7.86,7.86,0,0,1,.29,2.3A8.18,8.18,0,0,1,430.8,361.72Zm15.34-11.48a8.27,8.27,0,0,1-.28,2.3,7.86,7.86,0,0,1,.28,2.29,8.22,8.22,0,0,1-.28,2.3,7.89,7.89,0,0,1,.28,2.3,8.2,8.2,0,0,1-.28,2.29,7.94,7.94,0,0,1,.28,2.3,8.27,8.27,0,0,1-.28,2.3h-5.74a8.25,8.25,0,0,1-.29-2.3,7.91,7.91,0,0,1,.29-2.3H438a8.18,8.18,0,0,1-.29-2.29,7.86,7.86,0,0,1,.29-2.3h2.15a8.2,8.2,0,0,1-.29-2.3,7.83,7.83,0,0,1,.29-2.29,8.25,8.25,0,0,1-.29-2.3,7.79,7.79,0,0,1,.29-2.29,8.25,8.25,0,0,1-.29-2.3,7.91,7.91,0,0,1,.29-2.3h5.74a7.94,7.94,0,0,1,.28,2.3,8.27,8.27,0,0,1-.28,2.3A7.82,7.82,0,0,1,446.14,350.24Z"/><path class="cls-3" d="M471.67,343.35a7.91,7.91,0,0,1,.29,2.3,8.25,8.25,0,0,1-.29,2.3h-8.6a7.79,7.79,0,0,1,.29,2.29,8.25,8.25,0,0,1-.29,2.3,7.83,7.83,0,0,1,.29,2.29,8.2,8.2,0,0,1-.29,2.3,7.86,7.86,0,0,1,.29,2.3,8.18,8.18,0,0,1-.29,2.29h5.73a7.58,7.58,0,0,1,.29,2.3,7.89,7.89,0,0,1-.29,2.3H454.46a8.27,8.27,0,0,1-.28-2.3,7.94,7.94,0,0,1,.28-2.3h2.87a8.18,8.18,0,0,1-.29-2.29,7.86,7.86,0,0,1,.29-2.3,8.2,8.2,0,0,1-.29-2.3,7.83,7.83,0,0,1,.29-2.29,8.25,8.25,0,0,1-.29-2.3,7.79,7.79,0,0,1,.29-2.29h-2.87a8.27,8.27,0,0,1-.28-2.3,7.94,7.94,0,0,1,.28-2.3h2.87a8.18,8.18,0,0,1-.29-2.29,7.86,7.86,0,0,1,.29-2.3h2.87a8.18,8.18,0,0,1-.29-2.29,7.86,7.86,0,0,1,.29-2.3h11.47a7.86,7.86,0,0,1,.29,2.3,8.18,8.18,0,0,1-.29,2.29h-8.6a7.86,7.86,0,0,1,.29,2.3,8.18,8.18,0,0,1-.29,2.29Z"/><path class="cls-3" d="M500.36,361.72a7.94,7.94,0,0,1,.28,2.3,8.27,8.27,0,0,1-.28,2.3H488.88a8.27,8.27,0,0,1-.28-2.3,7.94,7.94,0,0,1,.28-2.3H486a7.82,7.82,0,0,1-.29-2.29,7.53,7.53,0,0,1,.29-2.3,7.85,7.85,0,0,1-.29-2.3,7.51,7.51,0,0,1,.29-2.29,7.89,7.89,0,0,1-.29-2.3A7.46,7.46,0,0,1,486,348h-5.74a8.25,8.25,0,0,1-.29-2.3,7.91,7.91,0,0,1,.29-2.3H486a7.82,7.82,0,0,1-.29-2.29,7.53,7.53,0,0,1,.29-2.3,7.82,7.82,0,0,1-.29-2.29,7.53,7.53,0,0,1,.29-2.3h5.73a7.86,7.86,0,0,1,.29,2.3,8.18,8.18,0,0,1-.29,2.29,7.86,7.86,0,0,1,.29,2.3,8.18,8.18,0,0,1-.29,2.29h8.61a7.94,7.94,0,0,1,.28,2.3,8.27,8.27,0,0,1-.28,2.3h-8.61a7.79,7.79,0,0,1,.29,2.29,8.25,8.25,0,0,1-.29,2.3,7.83,7.83,0,0,1,.29,2.29,8.2,8.2,0,0,1-.29,2.3,7.86,7.86,0,0,1,.29,2.3,8.18,8.18,0,0,1-.29,2.29Z"/><path class="cls-3" d="M529.33,364a8.25,8.25,0,0,1-.29,2.3H511.83a8.25,8.25,0,0,1-.29-2.3,7.91,7.91,0,0,1,.29-2.3h5.74a8.18,8.18,0,0,1-.29-2.29,7.86,7.86,0,0,1,.29-2.3,8.2,8.2,0,0,1-.29-2.3,7.83,7.83,0,0,1,.29-2.29,8.25,8.25,0,0,1-.29-2.3,7.79,7.79,0,0,1,.29-2.29h-4.3a7.89,7.89,0,0,1-.29-2.3,7.58,7.58,0,0,1,.29-2.3h10a7.94,7.94,0,0,1,.28,2.3,8.27,8.27,0,0,1-.28,2.3,7.82,7.82,0,0,1,.28,2.29,8.27,8.27,0,0,1-.28,2.3,7.86,7.86,0,0,1,.28,2.29,8.22,8.22,0,0,1-.28,2.3,7.89,7.89,0,0,1,.28,2.3,8.2,8.2,0,0,1-.28,2.29H529A7.91,7.91,0,0,1,529.33,364Zm-11.76-25.26a8.18,8.18,0,0,1-.29-2.29,7.86,7.86,0,0,1,.29-2.3h5.74a7.89,7.89,0,0,1,.28,2.3,8.2,8.2,0,0,1-.28,2.29Z"/><path class="cls-3" d="M560.88,350.24a8.27,8.27,0,0,1-.28,2.3,7.86,7.86,0,0,1,.28,2.29,8.22,8.22,0,0,1-.28,2.3,7.89,7.89,0,0,1,.28,2.3,8.2,8.2,0,0,1-.28,2.29,7.94,7.94,0,0,1,.28,2.3,8.27,8.27,0,0,1-.28,2.3h-2.87a7.82,7.82,0,0,1,.28,2.29,8.27,8.27,0,0,1-.28,2.3h-2.87a7.83,7.83,0,0,1,.29,2.29,8.25,8.25,0,0,1-.29,2.3H543.38a8.27,8.27,0,0,1-.28-2.3,7.86,7.86,0,0,1,.28-2.29H552a8.25,8.25,0,0,1-.29-2.3,7.79,7.79,0,0,1,.29-2.29h2.87a8.25,8.25,0,0,1-.29-2.3,7.91,7.91,0,0,1,.29-2.3H552a8.18,8.18,0,0,1-.29-2.29,7.86,7.86,0,0,1,.29-2.3h2.87a8.2,8.2,0,0,1-.29-2.3,7.83,7.83,0,0,1,.29-2.29,8.25,8.25,0,0,1-.29-2.3,7.79,7.79,0,0,1,.29-2.29h-9.32a7.82,7.82,0,0,1,.28,2.29,8.27,8.27,0,0,1-.28,2.3h-2.16a7.51,7.51,0,0,1,.29,2.29,7.85,7.85,0,0,1-.29,2.3h2.16a7.89,7.89,0,0,1,.28,2.3,8.2,8.2,0,0,1-.28,2.29H552a7.91,7.91,0,0,1,.29,2.3,8.25,8.25,0,0,1-.29,2.3h-8.61a8.27,8.27,0,0,1-.28-2.3,7.94,7.94,0,0,1,.28-2.3H539.8a8.18,8.18,0,0,1-.29-2.29,7.86,7.86,0,0,1,.29-2.3h-2.15a8.2,8.2,0,0,1-.29-2.3,7.83,7.83,0,0,1,.29-2.29h2.15a8.25,8.25,0,0,1-.29-2.3,7.79,7.79,0,0,1,.29-2.29h3.58a8.27,8.27,0,0,1-.28-2.3,7.94,7.94,0,0,1,.28-2.3H560.6a7.94,7.94,0,0,1,.28,2.3,8.27,8.27,0,0,1-.28,2.3A7.82,7.82,0,0,1,560.88,350.24Z"/><path class="cls-3" d="M586.41,361.72a7.91,7.91,0,0,1,.29,2.3,8.25,8.25,0,0,1-.29,2.3H574.94a8.25,8.25,0,0,1-.29-2.3,7.91,7.91,0,0,1,.29-2.3h-2.87a8.18,8.18,0,0,1-.29-2.29,7.86,7.86,0,0,1,.29-2.3,8.2,8.2,0,0,1-.29-2.3,7.83,7.83,0,0,1,.29-2.29,8.25,8.25,0,0,1-.29-2.3,7.79,7.79,0,0,1,.29-2.29h-5.74a8.25,8.25,0,0,1-.29-2.3,7.91,7.91,0,0,1,.29-2.3h5.74a8.18,8.18,0,0,1-.29-2.29,7.86,7.86,0,0,1,.29-2.3,8.18,8.18,0,0,1-.29-2.29,7.86,7.86,0,0,1,.29-2.3h5.74a7.89,7.89,0,0,1,.28,2.3,8.2,8.2,0,0,1-.28,2.29,7.89,7.89,0,0,1,.28,2.3,8.2,8.2,0,0,1-.28,2.29h8.6a7.91,7.91,0,0,1,.29,2.3,8.25,8.25,0,0,1-.29,2.3h-8.6a7.82,7.82,0,0,1,.28,2.29,8.27,8.27,0,0,1-.28,2.3,7.86,7.86,0,0,1,.28,2.29,8.22,8.22,0,0,1-.28,2.3,7.89,7.89,0,0,1,.28,2.3,8.2,8.2,0,0,1-.28,2.29Z"/><path class="cls-3" d="M610.08,361.72a7.94,7.94,0,0,1,.28,2.3,8.27,8.27,0,0,1-.28,2.3H602.9a8.27,8.27,0,0,1-.28-2.3,7.94,7.94,0,0,1,.28-2.3,8.2,8.2,0,0,1-.28-2.29,7.89,7.89,0,0,1,.28-2.3h7.18a7.89,7.89,0,0,1,.28,2.3A8.2,8.2,0,0,1,610.08,361.72Z"/></g></svg>
