<svg xmlns="http://www.w3.org/2000/svg" width="120" height="110" viewBox="0 0 120 110"><defs><style>.cls-1{fill:#b2569e;}.cls-2{fill:#ff94e7;}.cls-3{fill:#fff;}</style></defs><title>Luk-knap</title><g id="Level_Complete" data-name="Level Complete"><rect class="cls-1" x="10.94" y="6.8" width="100.51" height="98.51" rx="19.18"/><rect class="cls-2" x="7.56" y="4.06" width="100.33" height="97.29" rx="17.09"/><path class="cls-3" d="M86.05,72.3a8.81,8.81,0,0,1,.66,3.64,9.21,9.21,0,0,1-.66,3.64H72.87a9.21,9.21,0,0,1-.66-3.64,8.81,8.81,0,0,1,.66-3.64H67.93a9.29,9.29,0,0,1-.66-3.65A8.81,8.81,0,0,1,67.93,65h-3.3A9.26,9.26,0,0,1,64,61.36a8.84,8.84,0,0,1,.66-3.64H54.75a9,9,0,0,1,.65,3.64A9.44,9.44,0,0,1,54.75,65h-3.3a8.81,8.81,0,0,1,.66,3.64,9.29,9.29,0,0,1-.66,3.65H46.51a9,9,0,0,1,.66,3.64,9.39,9.39,0,0,1-.66,3.64H33.32a9.21,9.21,0,0,1-.65-3.64,8.82,8.82,0,0,1,.65-3.64h5a9.29,9.29,0,0,1-.66-3.65A8.81,8.81,0,0,1,38.27,65h6.59a9.26,9.26,0,0,1-.66-3.65,8.84,8.84,0,0,1,.66-3.64H49.8a9.24,9.24,0,0,1-.66-3.64,8.86,8.86,0,0,1,.66-3.65H44.86a9.21,9.21,0,0,1-.66-3.64,8.89,8.89,0,0,1,.66-3.65H38.27a9.21,9.21,0,0,1-.66-3.64,8.81,8.81,0,0,1,.66-3.64h-5a9.3,9.3,0,0,1-.65-3.65,8.82,8.82,0,0,1,.65-3.64H46.51a9,9,0,0,1,.66,3.64,9.48,9.48,0,0,1-.66,3.65h4.94a8.81,8.81,0,0,1,.66,3.64,9.21,9.21,0,0,1-.66,3.64h3.3a9.07,9.07,0,0,1,.65,3.65,9.39,9.39,0,0,1-.65,3.64h9.88A9.21,9.21,0,0,1,64,46.79a8.89,8.89,0,0,1,.66-3.65h3.3a9.21,9.21,0,0,1-.66-3.64,8.81,8.81,0,0,1,.66-3.64h4.94a9.29,9.29,0,0,1-.66-3.65,8.81,8.81,0,0,1,.66-3.64H86.05a8.81,8.81,0,0,1,.66,3.64,9.29,9.29,0,0,1-.66,3.65H81.11a8.81,8.81,0,0,1,.66,3.64,9.21,9.21,0,0,1-.66,3.64H74.52a8.89,8.89,0,0,1,.66,3.65,9.21,9.21,0,0,1-.66,3.64H69.58a9,9,0,0,1,.65,3.65,9.43,9.43,0,0,1-.65,3.64h4.94a8.84,8.84,0,0,1,.66,3.64A9.26,9.26,0,0,1,74.52,65h6.59a8.81,8.81,0,0,1,.66,3.64,9.29,9.29,0,0,1-.66,3.65Z"/><path class="cls-1" d="M16.76,37.76a2,2,0,0,1-2-2A25.3,25.3,0,0,1,40,10.49a2,2,0,1,1,0,4A21.31,21.31,0,0,0,18.75,35.76,2,2,0,0,1,16.76,37.76Z"/></g></svg>
