<svg id="Layer_1" data-name="Layer 1" xmlns="http://www.w3.org/2000/svg" width="300" height="100" viewBox="0 0 300 100"><defs><style>.cls-1{fill:none;}.cls-2{fill:#fae5d3;}.cls-3{fill:#66b0e5;}.cls-4{fill:#cce5f6;}.cls-5{fill:#ee8457;}.cls-6{fill:#7e1b06;}.cls-7{fill:#eaac86;}.cls-8{fill:#e29656;}.cls-9{fill:#d9d2ca;}.cls-10{fill:#ededed;}.cls-11{fill:#881806;}.cls-12{fill:#fff;}.cls-13{fill:#ff6766;}</style></defs><title>nybaby_sprite</title><rect class="cls-1" x="200" width="100" height="100"/><ellipse class="cls-2" cx="227.22" cy="53.65" rx="0.59" ry="1.32" transform="translate(102.58 251.07) rotate(-71.02)"/><ellipse class="cls-2" cx="275.1" cy="49.43" rx="1.68" ry="0.8" transform="translate(34.86 192.3) rotate(-40.93)"/><ellipse class="cls-2" cx="273.63" cy="48.12" rx="2" ry="0.94" transform="translate(106.16 269.8) rotate(-62.9)"/><ellipse class="cls-2" cx="275.55" cy="50.91" rx="1.32" ry="0.59" transform="translate(4.38 121.53) rotate(-25.06)"/><ellipse class="cls-2" cx="275.23" cy="52.42" rx="0.57" ry="1.16" transform="translate(204.69 323.57) rotate(-86.2)"/><ellipse class="cls-2" cx="227.32" cy="77.67" rx="0.76" ry="1.21"/><ellipse class="cls-2" cx="272.29" cy="76.82" rx="0.98" ry="1.19"/><ellipse class="cls-2" cx="274.02" cy="77.38" rx="0.87" ry="1.06"/><ellipse class="cls-2" cx="275.65" cy="77.89" rx="0.76" ry="1.21"/><path class="cls-3" d="M278.54,35.48c-.59-.31-2.47-1-2.47-1s1.64-.69,2.21-.85c.4-.11,1.48-.24,2.05-.31a2.62,2.62,0,0,1,2,.33,2.12,2.12,0,0,1,1.07,2.76c-.51.87-1.81,1-2.92.3a3.78,3.78,0,0,1-.33-.22C279.71,36.2,279,35.7,278.54,35.48Z"/><path class="cls-4" d="M279.91,33.89h0a.14.14,0,0,1-.12.2l-1.33.16a.24.24,0,0,1-.25-.15h0a.14.14,0,0,1,.12-.19l1.33-.16A.24.24,0,0,1,279.91,33.89Z"/><path class="cls-4" d="M280.63,33.84h0a.14.14,0,0,1-.13.18h0a.25.25,0,0,1-.24-.16h0a.13.13,0,0,1,.13-.18h0A.23.23,0,0,1,280.63,33.84Z"/><path class="cls-3" d="M221.46,34.94c.59-.31,2.47-1,2.47-1s-1.64-.69-2.21-.84a19.09,19.09,0,0,0-2.05-.31,2.62,2.62,0,0,0-2,.33,2.12,2.12,0,0,0-1.07,2.76c.51.87,1.81,1,2.92.3l.33-.22C220.29,35.66,221,35.16,221.46,34.94Z"/><path class="cls-4" d="M220.09,33.35h0a.13.13,0,0,0,.12.19l1.33.17a.25.25,0,0,0,.25-.15h0a.14.14,0,0,0-.12-.19l-1.33-.17A.26.26,0,0,0,220.09,33.35Z"/><path class="cls-4" d="M219.37,33.3h0a.14.14,0,0,0,.13.18h0a.27.27,0,0,0,.24-.16h0a.14.14,0,0,0-.13-.19h0A.25.25,0,0,0,219.37,33.3Z"/><path class="cls-3" d="M277.28,40.61c0-.68-.12-2.67-.12-2.67s1.31,1.2,1.69,1.65.84,1.24,1.15,1.73a2.63,2.63,0,0,1,.52,1.94c-.14,1.28-1.06,2.24-2.06,2.13s-1.63-1.25-1.49-2.54c0-.13,0-.26.06-.38A18.72,18.72,0,0,0,277.28,40.61Z"/><path class="cls-4" d="M279.3,41.18h0a.15.15,0,0,1-.23,0L278.36,40a.24.24,0,0,1,0-.28h0a.15.15,0,0,1,.23,0l.71,1.14A.26.26,0,0,1,279.3,41.18Z"/><path class="cls-4" d="M279.65,41.81h0a.13.13,0,0,1-.22,0h0a.24.24,0,0,1,.05-.29h0a.14.14,0,0,1,.22.05h0A.26.26,0,0,1,279.65,41.81Z"/><path class="cls-3" d="M226.73,40.39c0-.67.12-2.67.12-2.67s-1.32,1.2-1.69,1.65-.84,1.24-1.15,1.74a2.61,2.61,0,0,0-.52,1.93c.14,1.28,1.06,2.24,2.06,2.13s1.63-1.25,1.49-2.53c0-.13,0-.26-.07-.39C226.89,41.74,226.75,40.85,226.73,40.39Z"/><path class="cls-4" d="M224.71,41h0a.14.14,0,0,0,.23,0l.7-1.14a.24.24,0,0,0,0-.29h0a.14.14,0,0,0-.22,0l-.71,1.15A.24.24,0,0,0,224.71,41Z"/><path class="cls-4" d="M224.36,41.6h0a.14.14,0,0,0,.22-.05h0a.23.23,0,0,0-.05-.28h0a.13.13,0,0,0-.22,0h0A.24.24,0,0,0,224.36,41.6Z"/><circle class="cls-2" cx="240.87" cy="56.97" r="5.42"/><circle class="cls-2" cx="237.42" cy="56.58" r="4.01"/><circle class="cls-2" cx="233.28" cy="55.6" r="2.82"/><circle class="cls-2" cx="230.94" cy="54.11" r="2.82"/><ellipse class="cls-2" cx="231.09" cy="50.44" rx="1.08" ry="2.12" transform="translate(-4.04 24.77) rotate(-6.08)"/><ellipse class="cls-2" cx="227.52" cy="52.13" rx="0.8" ry="1.68" transform="translate(54.74 209.07) rotate(-55.16)"/><ellipse class="cls-2" cx="228.84" cy="50.67" rx="0.94" ry="2" transform="translate(9.57 133.49) rotate(-33.18)"/><ellipse class="cls-2" cx="227.7" cy="55.11" rx="1.16" ry="0.57" transform="translate(-6.08 39.9) rotate(-9.88)"/><path class="cls-2" d="M260.51,67.5H241.2c-.59,0-7.16,3.63-7.16,3.35L240.12,51c0-.28.49-.5,1.08-.5h19.31c.6,0,1.09.22,1.09.5l6.94,19.24C268.54,70.48,261.11,67.5,260.51,67.5Z"/><circle class="cls-2" cx="262.03" cy="55.23" r="5.42"/><circle class="cls-2" cx="265.72" cy="54.91" r="4.01"/><circle class="cls-2" cx="269.73" cy="53.5" r="2.82"/><circle class="cls-2" cx="271.9" cy="51.76" r="2.82"/><ellipse class="cls-2" cx="271.36" cy="48.13" rx="1.08" ry="2.12"/><circle class="cls-5" cx="251.07" cy="34.4" r="20.83"/><circle class="cls-2" cx="272.12" cy="34.08" r="3.8"/><circle class="cls-2" cx="230.36" cy="34.08" r="3.8"/><circle class="cls-5" cx="272.06" cy="34.02" r="1.79"/><circle class="cls-5" cx="230.3" cy="34.13" r="1.79"/><circle class="cls-2" cx="251.07" cy="34.08" r="20.83"/><ellipse class="cls-2" cx="251.35" cy="71.83" rx="17.41" ry="10.52"/><path class="cls-6" d="M245.54,31.37l-.21.24a3.51,3.51,0,0,0-4.9.64l-.23-.19A3.81,3.81,0,0,1,245.54,31.37Z"/><path class="cls-6" d="M254.85,30.71l.21.25a3.51,3.51,0,0,1,4.9.64l.23-.19A3.82,3.82,0,0,0,254.85,30.71Z"/><path class="cls-6" d="M240.05,29.38l.1-.25a2.91,2.91,0,0,0,3.79-1.64l.24.1A3.19,3.19,0,0,1,240.05,29.38Z"/><path class="cls-6" d="M260.88,28.29l-.1-.24A2.92,2.92,0,0,1,257,26.41l-.24.1A3.19,3.19,0,0,0,260.88,28.29Z"/><path class="cls-7" d="M248.48,35.76l.2.27c.51-1,1.21-1.51,1.95-1.43a12.43,12.43,0,0,1,2.13.75l.16-.08c-.69-.16-1.52-.91-2.32-1S249,34.63,248.48,35.76Z"/><path class="cls-8" d="M250.75,18a.5.5,0,0,1-.26-.08.44.44,0,0,1-.09-.61,16.94,16.94,0,0,1,3.36-3.54c1.57-1.17,2.42-1,2.85-.71a.42.42,0,0,1,.1.6.44.44,0,0,1-.61.1c-.22-.16-.86,0-1.82.71a15.88,15.88,0,0,0-3.18,3.35A.44.44,0,0,1,250.75,18Z"/><path class="cls-8" d="M250.67,18a.44.44,0,0,1-.43-.42,8.13,8.13,0,0,1,1-4.37,3.6,3.6,0,0,1,2.91-2,.44.44,0,0,1,.45.42.44.44,0,0,1-.42.45,2.79,2.79,0,0,0-2.2,1.57,7.21,7.21,0,0,0-.89,3.89.44.44,0,0,1-.42.45Z"/><path class="cls-8" d="M250.33,17.72a.42.42,0,0,1-.35-.19,8.06,8.06,0,0,1-1.58-4.19,3.58,3.58,0,0,1,1.32-3.27.43.43,0,1,1,.51.7c-1.47,1-1.26,3.85.45,6.26a.43.43,0,0,1-.1.61A.46.46,0,0,1,250.33,17.72Z"/><path class="cls-9" d="M268,78.34H234.37a1.09,1.09,0,0,1-1.09-1.09V71.5a1.09,1.09,0,0,1,1.09-1.08s11.88.54,17.06,0,16.57,0,16.57,0a1.09,1.09,0,0,1,1.08,1.08v5.75A1.09,1.09,0,0,1,268,78.34Z"/><path class="cls-10" d="M268,78.77H234.37a1.09,1.09,0,0,1-1.09-1.08V71.94a1.09,1.09,0,0,1,1.09-1.09s11.88.54,17.06,0,16.57,0,16.57,0a1.09,1.09,0,0,1,1.08,1.09v5.75A1.09,1.09,0,0,1,268,78.77Z"/><path class="cls-10" d="M268.65,78.55c-2.82,1.85-9.55,6.84-16.92,6.84-8.82,0-14.32-5.32-17.47-6.51-2.58-1,9.14-3.47,17.47-3.47S271,77.05,268.65,78.55Z"/><ellipse class="cls-9" cx="238.23" cy="82.77" rx="7.56" ry="5.79" transform="translate(-9.47 130.21) rotate(-30)"/><ellipse class="cls-2" cx="234.21" cy="84.76" rx="4.73" ry="5.86" transform="translate(43.7 245.22) rotate(-60)"/><ellipse class="cls-2" cx="238.47" cy="82.84" rx="6.93" ry="5.96" transform="translate(-9.47 130.34) rotate(-30)"/><path class="cls-5" d="M235.78,77.47c-.88,4-1.57,11.82-4.36,11.82s-3.78-6.69-3.78-10.88"/><path class="cls-2" d="M235.89,76.71c-1,4.12-1.74,12.26-4.83,12.26s-4.18-6.94-4.18-11.28"/><ellipse class="cls-2" cx="235.02" cy="76.22" rx="1.41" ry="1.79"/><ellipse class="cls-2" cx="232.58" cy="76.26" rx="1.14" ry="1.39"/><ellipse class="cls-2" cx="230.68" cy="76.6" rx="0.98" ry="1.19"/><ellipse class="cls-2" cx="228.95" cy="77.17" rx="0.87" ry="1.06"/><ellipse class="cls-9" cx="264.81" cy="83.04" rx="5.8" ry="7.65" transform="translate(60.49 270.86) rotate(-60)"/><ellipse class="cls-2" cx="268.76" cy="84.98" rx="5.86" ry="4.73" transform="translate(-6.48 145.76) rotate(-30)"/><ellipse class="cls-2" cx="264.49" cy="83.05" rx="5.96" ry="6.93" transform="translate(60.32 270.59) rotate(-60)"/><path class="cls-5" d="M267,77.36c.91,4,1.63,11.93,4.51,11.93s3.9-6.75,3.9-11"/><path class="cls-2" d="M267.08,76.93c1,4.12,1.74,12.25,4.83,12.25s4.17-6.93,4.17-11.28"/><ellipse class="cls-2" cx="267.95" cy="76.44" rx="1.41" ry="1.79"/><ellipse class="cls-2" cx="270.39" cy="76.47" rx="1.14" ry="1.39"/><path class="cls-11" d="M251.44,38.87c-3.88,0-10.5,4.45-7,8.17,2,2.09,2.76.91,4.88.3a.92.92,0,0,1,.27-.08.32.32,0,0,1,.14,0,3.36,3.36,0,0,1,.5-.13,3.94,3.94,0,0,1,1-.08,7.12,7.12,0,0,1,1,.06h.15l.12,0a1.66,1.66,0,0,1,.22,0l.16,0h.1l.1,0a1.83,1.83,0,0,1,.25.06c2.52.62,3.72,2.09,5.17-.23C261.41,42.4,255.33,38.87,251.44,38.87Z"/><path class="cls-12" d="M253.06,39h0l-.3-.1a3.07,3.07,0,0,0-.42-.07h-.27a.2.2,0,0,1-.11,0c-.2,0-.41,0-.62,0H251a.29.29,0,0,1-.14,0h-.12l-.1,0h0a.25.25,0,0,1-.13,0h-.18a.2.2,0,0,1-.11,0H250a.26.26,0,0,1-.16.06h0a.29.29,0,0,1-.17,0h0v2.25c0,.85,3.33.84,3.39,0C253.1,40.74,253.08,39.55,253.06,39Z"/><path class="cls-13" d="M251.55,43.93c-1.25,0-2.27,1.32-2.27,3a3.59,3.59,0,0,0,0,.47.66.66,0,0,1,.28-.09.32.32,0,0,1,.14,0,3.36,3.36,0,0,1,.5-.13,3.94,3.94,0,0,1,1-.08,7.12,7.12,0,0,1,1,.06h.15l.12,0a1.66,1.66,0,0,1,.22,0l.16,0h.1l.18,0h0a.67.67,0,0,1,.24,0,1.82,1.82,0,0,0,.38.11,4.24,4.24,0,0,0,0-.51C253.83,45.25,252.81,43.93,251.55,43.93Z"/><path class="cls-3" d="M237.51,33.76c.38-.55,1.72-2,1.72-2s-1.77.15-2.34.28a20.33,20.33,0,0,0-2,.68,2.63,2.63,0,0,0-1.59,1.22,2.12,2.12,0,0,0,.34,2.94c.86.53,2.05,0,2.72-1.1l.19-.35C236.82,34.94,237.25,34.14,237.51,33.76Z"/><path class="cls-4" d="M235.56,33h0a.14.14,0,0,0,.2.12l1.25-.48a.23.23,0,0,0,.15-.24h0a.14.14,0,0,0-.19-.12l-1.26.48A.24.24,0,0,0,235.56,33Z"/><path class="cls-4" d="M234.9,33.28h0a.14.14,0,0,0,.2.1h0a.27.27,0,0,0,.14-.26h0A.14.14,0,0,0,235,33h0A.23.23,0,0,0,234.9,33.28Z"/><path class="cls-3" d="M264.13,34c-.38-.56-1.71-2-1.71-2s1.77.15,2.34.28a20.22,20.22,0,0,1,2,.68,2.6,2.6,0,0,1,1.6,1.21,2.14,2.14,0,0,1-.34,3c-.86.52-2.06,0-2.73-1.11a2.79,2.79,0,0,1-.18-.34C264.83,35.15,264.39,34.36,264.13,34Z"/><path class="cls-4" d="M266.08,33.21h0a.14.14,0,0,1-.19.12l-1.26-.48a.26.26,0,0,1-.15-.25h0a.13.13,0,0,1,.19-.11l1.26.47A.26.26,0,0,1,266.08,33.21Z"/><path class="cls-4" d="M266.75,33.5h0a.14.14,0,0,1-.21.1h0a.26.26,0,0,1-.13-.26h0a.14.14,0,0,1,.2-.1h0A.26.26,0,0,1,266.75,33.5Z"/><rect class="cls-1" x="100" width="100" height="100"/><ellipse class="cls-2" cx="127.22" cy="53.65" rx="0.59" ry="1.32" transform="translate(35.11 156.51) rotate(-71.02)"/><ellipse class="cls-2" cx="175.1" cy="49.43" rx="1.68" ry="0.8" transform="translate(10.42 126.79) rotate(-40.93)"/><ellipse class="cls-2" cx="173.63" cy="48.12" rx="2" ry="0.94" transform="translate(51.7 180.78) rotate(-62.9)"/><ellipse class="cls-2" cx="175.55" cy="50.91" rx="1.32" ry="0.59" transform="translate(-5.04 79.16) rotate(-25.06)"/><ellipse class="cls-2" cx="175.23" cy="52.42" rx="0.57" ry="1.16" transform="translate(111.31 223.79) rotate(-86.2)"/><ellipse class="cls-2" cx="127.32" cy="77.67" rx="0.76" ry="1.21"/><ellipse class="cls-2" cx="172.29" cy="76.82" rx="0.98" ry="1.19"/><ellipse class="cls-2" cx="174.02" cy="77.38" rx="0.87" ry="1.06"/><ellipse class="cls-2" cx="175.65" cy="77.89" rx="0.76" ry="1.21"/><path class="cls-3" d="M176.52,40.06c-.47-.48-2-1.73-2-1.73s1.77-.14,2.36-.11c.41,0,1.48.23,2.05.35a2.62,2.62,0,0,1,1.77.94,2.13,2.13,0,0,1,.15,3c-.76.66-2,.34-2.87-.64a3.24,3.24,0,0,1-.24-.31C177.4,41.11,176.84,40.4,176.52,40.06Z"/><path class="cls-4" d="M178.31,39h0a.13.13,0,0,1-.17.15l-1.31-.26a.24.24,0,0,1-.19-.22h0a.14.14,0,0,1,.17-.15l1.32.27A.23.23,0,0,1,178.31,39Z"/><path class="cls-4" d="M179,39.16h0a.13.13,0,0,1-.18.13h0a.26.26,0,0,1-.18-.23h0a.13.13,0,0,1,.18-.13h0A.26.26,0,0,1,179,39.16Z"/><path class="cls-3" d="M124.48,40.57c.49-.47,2.1-1.66,2.1-1.66s-1.77-.2-2.35-.19c-.42,0-1.49.18-2.07.27a2.59,2.59,0,0,0-1.8.87,2.13,2.13,0,0,0-.26,3c.74.68,2,.41,2.89-.54l.25-.3C123.57,41.58,124.15,40.89,124.48,40.57Z"/><path class="cls-4" d="M122.73,39.43h0a.14.14,0,0,0,.17.15l1.32-.21a.27.27,0,0,0,.2-.22h0a.14.14,0,0,0-.17-.15l-1.32.21A.26.26,0,0,0,122.73,39.43Z"/><path class="cls-4" d="M122,39.57h0a.14.14,0,0,0,.18.14h0a.23.23,0,0,0,.18-.22h0a.14.14,0,0,0-.18-.14h0A.25.25,0,0,0,122,39.57Z"/><circle class="cls-2" cx="140.87" cy="56.97" r="5.42"/><circle class="cls-2" cx="137.42" cy="56.58" r="4.01"/><circle class="cls-2" cx="133.28" cy="55.6" r="2.82"/><circle class="cls-2" cx="130.94" cy="54.11" r="2.82"/><ellipse class="cls-2" cx="131.09" cy="50.44" rx="1.08" ry="2.12" transform="translate(-4.61 14.17) rotate(-6.08)"/><ellipse class="cls-2" cx="127.52" cy="52.13" rx="0.8" ry="1.68" transform="translate(11.88 127) rotate(-55.16)"/><ellipse class="cls-2" cx="128.84" cy="50.67" rx="0.94" ry="2" transform="translate(-6.73 78.77) rotate(-33.18)"/><ellipse class="cls-2" cx="127.7" cy="55.11" rx="1.16" ry="0.57" transform="translate(-7.56 22.74) rotate(-9.88)"/><path class="cls-2" d="M160.51,67.5H141.2c-.59,0-7.16,3.63-7.16,3.35L140.12,51c0-.28.49-.5,1.08-.5h19.31c.6,0,1.09.22,1.09.5l6.94,19.24C168.54,70.48,161.11,67.5,160.51,67.5Z"/><circle class="cls-2" cx="162.03" cy="55.23" r="5.42"/><circle class="cls-2" cx="165.72" cy="54.91" r="4.01"/><circle class="cls-2" cx="169.73" cy="53.5" r="2.82"/><circle class="cls-2" cx="171.9" cy="51.76" r="2.82"/><ellipse class="cls-2" cx="171.36" cy="48.13" rx="1.08" ry="2.12"/><circle class="cls-5" cx="151.07" cy="34.4" r="20.83"/><circle class="cls-2" cx="172.12" cy="34.08" r="3.8"/><circle class="cls-2" cx="130.36" cy="34.08" r="3.8"/><circle class="cls-5" cx="172.06" cy="34.02" r="1.79"/><circle class="cls-5" cx="130.3" cy="34.13" r="1.79"/><circle class="cls-2" cx="151.07" cy="34.08" r="20.83"/><ellipse class="cls-2" cx="151.35" cy="71.83" rx="17.41" ry="10.52"/><path class="cls-6" d="M145.54,31.37l-.21.24a3.51,3.51,0,0,0-4.9.64l-.23-.19A3.81,3.81,0,0,1,145.54,31.37Z"/><path class="cls-6" d="M154.85,30.71l.21.25a3.51,3.51,0,0,1,4.9.64l.23-.19A3.82,3.82,0,0,0,154.85,30.71Z"/><path class="cls-6" d="M140.05,29.38l.1-.25a2.91,2.91,0,0,0,3.79-1.64l.24.1A3.19,3.19,0,0,1,140.05,29.38Z"/><path class="cls-6" d="M160.88,28.29l-.1-.24A2.92,2.92,0,0,1,157,26.41l-.24.1A3.19,3.19,0,0,0,160.88,28.29Z"/><path class="cls-7" d="M148.48,35.76l.2.27c.51-1,1.21-1.51,1.95-1.43a12.43,12.43,0,0,1,2.13.75l.16-.08c-.69-.16-1.52-.91-2.32-1S149,34.63,148.48,35.76Z"/><path class="cls-8" d="M150.75,18a.5.5,0,0,1-.26-.08.44.44,0,0,1-.09-.61,16.94,16.94,0,0,1,3.36-3.54c1.57-1.17,2.42-1,2.85-.71a.42.42,0,0,1,.1.6.44.44,0,0,1-.61.1c-.22-.16-.86,0-1.82.71a15.88,15.88,0,0,0-3.18,3.35A.44.44,0,0,1,150.75,18Z"/><path class="cls-8" d="M150.67,18a.44.44,0,0,1-.43-.42,8.13,8.13,0,0,1,1-4.37,3.6,3.6,0,0,1,2.91-2,.44.44,0,0,1,.45.42.44.44,0,0,1-.42.45,2.79,2.79,0,0,0-2.2,1.57,7.21,7.21,0,0,0-.89,3.89.44.44,0,0,1-.42.45Z"/><path class="cls-8" d="M150.33,17.72a.42.42,0,0,1-.35-.19,8.06,8.06,0,0,1-1.58-4.19,3.58,3.58,0,0,1,1.32-3.27.43.43,0,1,1,.51.7c-1.47,1-1.26,3.85.45,6.26a.43.43,0,0,1-.1.61A.46.46,0,0,1,150.33,17.72Z"/><path class="cls-9" d="M168,78.34H134.37a1.09,1.09,0,0,1-1.09-1.09V71.5a1.09,1.09,0,0,1,1.09-1.08s11.88.54,17.06,0,16.57,0,16.57,0a1.09,1.09,0,0,1,1.08,1.08v5.75A1.09,1.09,0,0,1,168,78.34Z"/><path class="cls-10" d="M168,78.77H134.37a1.09,1.09,0,0,1-1.09-1.08V71.94a1.09,1.09,0,0,1,1.09-1.09s11.88.54,17.06,0,16.57,0,16.57,0a1.09,1.09,0,0,1,1.08,1.09v5.75A1.09,1.09,0,0,1,168,78.77Z"/><path class="cls-10" d="M168.65,78.55c-2.82,1.85-9.55,6.84-16.92,6.84-8.82,0-14.32-5.32-17.47-6.51-2.58-1,9.14-3.47,17.47-3.47S171,77.05,168.65,78.55Z"/><ellipse class="cls-9" cx="138.23" cy="82.77" rx="7.56" ry="5.79" transform="translate(-22.87 80.21) rotate(-30)"/><ellipse class="cls-2" cx="134.21" cy="84.76" rx="4.73" ry="5.86" transform="translate(-6.3 158.61) rotate(-60)"/><ellipse class="cls-2" cx="138.47" cy="82.84" rx="6.93" ry="5.96" transform="translate(-22.87 80.34) rotate(-30)"/><path class="cls-5" d="M135.78,77.47c-.88,4-1.57,11.82-4.36,11.82s-3.78-6.69-3.78-10.88"/><path class="cls-2" d="M135.89,76.71c-1,4.12-1.74,12.26-4.83,12.26s-4.18-6.94-4.18-11.28"/><ellipse class="cls-2" cx="135.02" cy="76.22" rx="1.41" ry="1.79"/><ellipse class="cls-2" cx="132.58" cy="76.26" rx="1.14" ry="1.39"/><ellipse class="cls-2" cx="130.68" cy="76.6" rx="0.98" ry="1.19"/><ellipse class="cls-2" cx="128.95" cy="77.17" rx="0.87" ry="1.06"/><ellipse class="cls-9" cx="164.81" cy="83.04" rx="5.8" ry="7.65" transform="translate(10.49 184.25) rotate(-60)"/><ellipse class="cls-2" cx="168.76" cy="84.98" rx="5.86" ry="4.73" transform="translate(-19.88 95.76) rotate(-30)"/><ellipse class="cls-2" cx="164.49" cy="83.05" rx="5.96" ry="6.93" transform="translate(10.32 183.98) rotate(-60)"/><path class="cls-5" d="M167,77.36c.91,4,1.63,11.93,4.51,11.93s3.9-6.75,3.9-11"/><path class="cls-2" d="M167.08,76.93c1,4.12,1.74,12.25,4.83,12.25s4.17-6.93,4.17-11.28"/><ellipse class="cls-2" cx="167.95" cy="76.44" rx="1.41" ry="1.79"/><ellipse class="cls-2" cx="170.39" cy="76.47" rx="1.14" ry="1.39"/><path class="cls-11" d="M151.44,38.87c-3.88,0-10.5,4.45-7,8.17,2,2.09,2.76.91,4.88.3a.92.92,0,0,1,.27-.08.32.32,0,0,1,.14,0,3.36,3.36,0,0,1,.5-.13,3.94,3.94,0,0,1,1-.08,7.12,7.12,0,0,1,1,.06h.15l.12,0a1.66,1.66,0,0,1,.22,0l.16,0h.1l.1,0a1.83,1.83,0,0,1,.25.06c2.52.62,3.72,2.09,5.17-.23C161.41,42.4,155.33,38.87,151.44,38.87Z"/><path class="cls-12" d="M153.06,39h0l-.3-.1a3.07,3.07,0,0,0-.42-.07h-.27a.2.2,0,0,1-.11,0c-.2,0-.41,0-.62,0H151a.29.29,0,0,1-.14,0h-.12l-.1,0h0a.25.25,0,0,1-.13,0h-.18a.2.2,0,0,1-.11,0H150a.26.26,0,0,1-.16.06h0a.29.29,0,0,1-.17,0h0v2.25c0,.85,3.33.84,3.39,0C153.1,40.74,153.08,39.55,153.06,39Z"/><path class="cls-13" d="M151.55,43.93c-1.25,0-2.27,1.32-2.27,3a3.59,3.59,0,0,0,0,.47.66.66,0,0,1,.28-.09.32.32,0,0,1,.14,0,3.36,3.36,0,0,1,.5-.13,3.94,3.94,0,0,1,1-.08,7.12,7.12,0,0,1,1,.06h.15l.12,0a1.66,1.66,0,0,1,.22,0l.16,0h.1l.18,0h0a.67.67,0,0,1,.24,0,1.82,1.82,0,0,0,.38.11,4.24,4.24,0,0,0,0-.51C153.83,45.25,152.81,43.93,151.55,43.93Z"/><path class="cls-3" d="M137.51,33.76c.38-.55,1.72-2,1.72-2s-1.77.15-2.34.28a20.33,20.33,0,0,0-2,.68,2.63,2.63,0,0,0-1.59,1.22,2.12,2.12,0,0,0,.34,2.94c.86.53,2.05,0,2.72-1.1l.19-.35C136.82,34.94,137.25,34.14,137.51,33.76Z"/><path class="cls-4" d="M135.56,33h0a.14.14,0,0,0,.2.12l1.25-.48a.23.23,0,0,0,.15-.24h0a.14.14,0,0,0-.19-.12l-1.26.48A.24.24,0,0,0,135.56,33Z"/><path class="cls-4" d="M134.9,33.28h0a.14.14,0,0,0,.2.1h0a.27.27,0,0,0,.14-.26h0A.14.14,0,0,0,135,33h0A.23.23,0,0,0,134.9,33.28Z"/><path class="cls-3" d="M164.13,34c-.38-.56-1.71-2-1.71-2s1.77.15,2.34.28a20.22,20.22,0,0,1,2,.68,2.6,2.6,0,0,1,1.6,1.21,2.14,2.14,0,0,1-.34,3c-.86.52-2.06,0-2.73-1.11a2.79,2.79,0,0,1-.18-.34C164.83,35.15,164.39,34.36,164.13,34Z"/><path class="cls-4" d="M166.08,33.21h0a.14.14,0,0,1-.19.12l-1.26-.48a.26.26,0,0,1-.15-.25h0a.13.13,0,0,1,.19-.11l1.26.47A.26.26,0,0,1,166.08,33.21Z"/><path class="cls-4" d="M166.75,33.5h0a.14.14,0,0,1-.21.1h0a.26.26,0,0,1-.13-.26h0a.14.14,0,0,1,.2-.1h0A.26.26,0,0,1,166.75,33.5Z"/><rect class="cls-1" width="100" height="100"/><ellipse class="cls-2" cx="27.22" cy="53.65" rx="0.59" ry="1.32" transform="translate(-32.37 61.94) rotate(-71.02)"/><ellipse class="cls-2" cx="75.1" cy="49.43" rx="1.68" ry="0.8" transform="translate(-14.03 61.28) rotate(-40.93)"/><ellipse class="cls-2" cx="73.63" cy="48.12" rx="2" ry="0.94" transform="translate(-2.75 91.75) rotate(-62.9)"/><ellipse class="cls-2" cx="75.55" cy="50.91" rx="1.32" ry="0.59" transform="translate(-14.46 36.8) rotate(-25.06)"/><ellipse class="cls-2" cx="75.23" cy="52.42" rx="0.57" ry="1.16" transform="translate(17.94 124.01) rotate(-86.2)"/><ellipse class="cls-2" cx="27.32" cy="77.67" rx="0.76" ry="1.21"/><ellipse class="cls-2" cx="72.29" cy="76.82" rx="0.98" ry="1.19"/><ellipse class="cls-2" cx="74.02" cy="77.38" rx="0.87" ry="1.06"/><ellipse class="cls-2" cx="75.65" cy="77.89" rx="0.76" ry="1.21"/><circle class="cls-2" cx="40.87" cy="56.97" r="5.42"/><circle class="cls-2" cx="37.42" cy="56.58" r="4.01"/><circle class="cls-2" cx="33.28" cy="55.6" r="2.82"/><circle class="cls-2" cx="30.94" cy="54.11" r="2.82"/><ellipse class="cls-2" cx="31.09" cy="50.44" rx="1.08" ry="2.12" transform="translate(-5.17 3.58) rotate(-6.08)"/><ellipse class="cls-2" cx="27.52" cy="52.13" rx="0.8" ry="1.68" transform="translate(-30.99 44.93) rotate(-55.16)"/><ellipse class="cls-2" cx="28.84" cy="50.67" rx="0.94" ry="2" transform="translate(-23.03 24.04) rotate(-33.18)"/><ellipse class="cls-2" cx="27.7" cy="55.11" rx="1.16" ry="0.57" transform="translate(-9.05 5.57) rotate(-9.88)"/><path class="cls-2" d="M60.51,67.5H41.2c-.59,0-7.16,3.63-7.16,3.35L40.12,51c0-.28.49-.5,1.08-.5H60.51c.6,0,1.09.22,1.09.5L68.54,70.2C68.54,70.48,61.11,67.5,60.51,67.5Z"/><circle class="cls-2" cx="62.03" cy="55.23" r="5.42"/><circle class="cls-2" cx="65.72" cy="54.91" r="4.01"/><circle class="cls-2" cx="69.73" cy="53.5" r="2.82"/><circle class="cls-2" cx="71.9" cy="51.76" r="2.82"/><ellipse class="cls-2" cx="71.36" cy="48.13" rx="1.08" ry="2.12"/><circle class="cls-5" cx="51.07" cy="34.4" r="20.83"/><circle class="cls-2" cx="72.12" cy="34.08" r="3.8"/><circle class="cls-2" cx="30.36" cy="34.08" r="3.8"/><circle class="cls-5" cx="72.06" cy="34.02" r="1.79"/><circle class="cls-5" cx="30.3" cy="34.13" r="1.79"/><circle class="cls-2" cx="51.07" cy="34.08" r="20.83"/><ellipse class="cls-2" cx="51.35" cy="71.83" rx="17.41" ry="10.52"/><path class="cls-6" d="M45.54,31.37l-.21.24a3.51,3.51,0,0,0-4.9.64l-.23-.19A3.81,3.81,0,0,1,45.54,31.37Z"/><path class="cls-6" d="M54.85,30.71l.21.25a3.51,3.51,0,0,1,4.9.64l.23-.19A3.82,3.82,0,0,0,54.85,30.71Z"/><path class="cls-6" d="M40.05,29.38l.1-.25a2.91,2.91,0,0,0,3.79-1.64l.24.1A3.19,3.19,0,0,1,40.05,29.38Z"/><path class="cls-6" d="M60.88,28.29l-.1-.24A2.92,2.92,0,0,1,57,26.41l-.24.1A3.19,3.19,0,0,0,60.88,28.29Z"/><path class="cls-7" d="M48.48,35.76l.2.27c.51-1,1.21-1.51,2-1.43a12.43,12.43,0,0,1,2.13.75l.16-.08c-.69-.16-1.52-.91-2.32-1S49,34.63,48.48,35.76Z"/><path class="cls-8" d="M50.75,18a.5.5,0,0,1-.26-.08.44.44,0,0,1-.09-.61,16.94,16.94,0,0,1,3.36-3.54c1.57-1.17,2.42-1,2.85-.71a.42.42,0,0,1,.1.6.44.44,0,0,1-.61.1c-.22-.16-.86,0-1.82.71a15.88,15.88,0,0,0-3.18,3.35A.44.44,0,0,1,50.75,18Z"/><path class="cls-8" d="M50.67,18a.44.44,0,0,1-.43-.42,8.13,8.13,0,0,1,1-4.37,3.6,3.6,0,0,1,2.91-2,.44.44,0,0,1,.45.42.44.44,0,0,1-.42.45A2.79,2.79,0,0,0,52,13.66a7.21,7.21,0,0,0-.89,3.89.44.44,0,0,1-.42.45Z"/><path class="cls-8" d="M50.33,17.72a.42.42,0,0,1-.35-.19,8.06,8.06,0,0,1-1.58-4.19,3.58,3.58,0,0,1,1.32-3.27.43.43,0,1,1,.51.7c-1.47,1-1.26,3.85.45,6.26a.43.43,0,0,1-.1.61A.46.46,0,0,1,50.33,17.72Z"/><path class="cls-9" d="M68,78.34H34.37a1.09,1.09,0,0,1-1.09-1.09V71.5a1.09,1.09,0,0,1,1.09-1.08s11.88.54,17.06,0,16.57,0,16.57,0a1.09,1.09,0,0,1,1.08,1.08v5.75A1.09,1.09,0,0,1,68,78.34Z"/><path class="cls-10" d="M68,78.77H34.37a1.09,1.09,0,0,1-1.09-1.08V71.94a1.09,1.09,0,0,1,1.09-1.09s11.88.54,17.06,0,16.57,0,16.57,0a1.09,1.09,0,0,1,1.08,1.09v5.75A1.09,1.09,0,0,1,68,78.77Z"/><path class="cls-10" d="M68.65,78.55c-2.82,1.85-9.55,6.84-16.92,6.84-8.82,0-14.32-5.32-17.47-6.51-2.58-1,9.14-3.47,17.47-3.47S71,77.05,68.65,78.55Z"/><ellipse class="cls-9" cx="38.23" cy="82.77" rx="7.56" ry="5.79" transform="translate(-36.26 30.21) rotate(-30)"/><ellipse class="cls-2" cx="34.21" cy="84.76" rx="4.73" ry="5.86" transform="translate(-56.3 72.01) rotate(-60)"/><ellipse class="cls-2" cx="38.47" cy="82.84" rx="6.93" ry="5.96" transform="translate(-36.26 30.34) rotate(-30)"/><path class="cls-5" d="M35.78,77.47c-.88,4-1.57,11.82-4.36,11.82s-3.78-6.69-3.78-10.88"/><path class="cls-2" d="M35.89,76.71C34.91,80.83,34.15,89,31.06,89S26.88,82,26.88,77.69"/><ellipse class="cls-2" cx="35.02" cy="76.22" rx="1.41" ry="1.79"/><ellipse class="cls-2" cx="32.58" cy="76.26" rx="1.14" ry="1.39"/><ellipse class="cls-2" cx="30.68" cy="76.6" rx="0.98" ry="1.19"/><ellipse class="cls-2" cx="28.95" cy="77.17" rx="0.87" ry="1.06"/><ellipse class="cls-9" cx="64.81" cy="83.04" rx="5.8" ry="7.65" transform="translate(-39.51 97.65) rotate(-60)"/><ellipse class="cls-2" cx="68.76" cy="84.98" rx="5.86" ry="4.73" transform="translate(-33.28 45.76) rotate(-30)"/><ellipse class="cls-2" cx="64.49" cy="83.05" rx="5.96" ry="6.93" transform="translate(-39.68 97.38) rotate(-60)"/><path class="cls-5" d="M67,77.36c.91,4,1.63,11.93,4.51,11.93s3.9-6.75,3.9-11"/><path class="cls-2" d="M67.08,76.93c1,4.12,1.74,12.25,4.83,12.25s4.17-6.93,4.17-11.28"/><ellipse class="cls-2" cx="67.95" cy="76.44" rx="1.41" ry="1.79"/><ellipse class="cls-2" cx="70.39" cy="76.47" rx="1.14" ry="1.39"/><path class="cls-11" d="M51.44,38.87c-3.88,0-10.5,4.45-7,8.17,2,2.09,2.76.91,4.88.3a.92.92,0,0,1,.27-.08.32.32,0,0,1,.14,0,3.36,3.36,0,0,1,.5-.13,3.94,3.94,0,0,1,1-.08,7.12,7.12,0,0,1,1,.06h.15l.12,0a1.66,1.66,0,0,1,.22,0l.16,0H53l.1,0a1.83,1.83,0,0,1,.25.06c2.52.62,3.72,2.09,5.17-.23C61.41,42.4,55.33,38.87,51.44,38.87Z"/><path class="cls-12" d="M53.06,39h0l-.3-.1a3.07,3.07,0,0,0-.42-.07h-.27a.2.2,0,0,1-.11,0c-.2,0-.41,0-.62,0H51a.29.29,0,0,1-.14,0h-.12l-.1,0h0a.25.25,0,0,1-.13,0h-.18a.2.2,0,0,1-.11,0H50a.26.26,0,0,1-.16.06h0a.29.29,0,0,1-.17,0h0v2.25c0,.85,3.33.84,3.39,0C53.1,40.74,53.08,39.55,53.06,39Z"/><path class="cls-13" d="M51.55,43.93c-1.25,0-2.27,1.32-2.27,3a3.59,3.59,0,0,0,0,.47.66.66,0,0,1,.28-.09.32.32,0,0,1,.14,0,3.36,3.36,0,0,1,.5-.13,3.94,3.94,0,0,1,1-.08,7.12,7.12,0,0,1,1,.06h.15l.12,0a1.66,1.66,0,0,1,.22,0l.16,0H53l.18,0h0a.67.67,0,0,1,.24,0,1.82,1.82,0,0,0,.38.11,4.24,4.24,0,0,0,0-.51C53.83,45.25,52.81,43.93,51.55,43.93Z"/><path class="cls-3" d="M37.51,33.76c.38-.55,1.72-2,1.72-2s-1.77.15-2.34.28a20.33,20.33,0,0,0-2,.68,2.63,2.63,0,0,0-1.59,1.22,2.12,2.12,0,0,0,.34,2.94c.86.53,2,0,2.72-1.1l.19-.35C36.82,34.94,37.25,34.14,37.51,33.76Z"/><path class="cls-4" d="M35.56,33h0a.14.14,0,0,0,.2.12L37,32.63a.23.23,0,0,0,.15-.24h0a.14.14,0,0,0-.19-.12l-1.26.48A.24.24,0,0,0,35.56,33Z"/><path class="cls-4" d="M34.9,33.28h0a.14.14,0,0,0,.2.1h0a.27.27,0,0,0,.14-.26h0A.14.14,0,0,0,35,33h0A.23.23,0,0,0,34.9,33.28Z"/><path class="cls-3" d="M64.13,34c-.38-.56-1.71-2-1.71-2s1.77.15,2.34.28a20.22,20.22,0,0,1,2,.68,2.6,2.6,0,0,1,1.6,1.21,2.14,2.14,0,0,1-.34,3c-.86.52-2.06,0-2.73-1.11a2.79,2.79,0,0,1-.18-.34C64.83,35.15,64.39,34.36,64.13,34Z"/><path class="cls-4" d="M66.08,33.21h0a.14.14,0,0,1-.19.12l-1.26-.48a.26.26,0,0,1-.15-.25h0a.13.13,0,0,1,.19-.11l1.26.47A.26.26,0,0,1,66.08,33.21Z"/><path class="cls-4" d="M66.75,33.5h0a.14.14,0,0,1-.21.1h0a.26.26,0,0,1-.13-.26h0a.14.14,0,0,1,.2-.1h0A.26.26,0,0,1,66.75,33.5Z"/></svg>
