<svg xmlns="http://www.w3.org/2000/svg" width="860" height="560" viewBox="0 0 860 560"><defs><style>.cls-1{fill:#b2569e;}.cls-2{fill:#ff94e7;}.cls-3{fill:#fff;}</style></defs><title>Game Over</title><g id="Game_Over" data-name="Game Over"><rect class="cls-1" x="5.72" y="14.89" width="854.18" height="541.11" rx="33"/><rect class="cls-2" x="-2" y="4" width="854.18" height="541.11" rx="33"/><path class="cls-3" d="M164.36,95.41a10.33,10.33,0,0,1-.24,2.38,10,10,0,0,1,.24,2.38,10.45,10.45,0,0,1-.24,2.38,9.92,9.92,0,0,1,.24,2.38,10.3,10.3,0,0,1-.24,2.37h-2.38a10,10,0,0,1,.24,2.38,10.33,10.33,0,0,1-.24,2.38H149.85a10.33,10.33,0,0,1-.24-2.38,10,10,0,0,1,.24-2.38h-2.38a10.3,10.3,0,0,1-.24-2.37,9.92,9.92,0,0,1,.24-2.38h-2.38a10.45,10.45,0,0,1-.24-2.38,10,10,0,0,1,.24-2.38,10.33,10.33,0,0,1-.24-2.38,10,10,0,0,1,.24-2.38,10.3,10.3,0,0,1-.24-2.37,9.86,9.86,0,0,1,.24-2.38h2.38a10.45,10.45,0,0,1-.24-2.38,9.92,9.92,0,0,1,.24-2.38h2.38a10.39,10.39,0,0,1-.24-2.38,10,10,0,0,1,.24-2.38h11.89a10,10,0,0,1,.24,2.38,10.39,10.39,0,0,1-.24,2.38h2.38a9.92,9.92,0,0,1,.24,2.38,10.45,10.45,0,0,1-.24,2.38h-4.76a11.1,11.1,0,0,1-.23-2.38,10.52,10.52,0,0,1,.23-2.38h-7.13a9.92,9.92,0,0,1,.24,2.38,10.45,10.45,0,0,1-.24,2.38h-2.38a9.86,9.86,0,0,1,.24,2.38,10.3,10.3,0,0,1-.24,2.37,10,10,0,0,1,.24,2.38,10.33,10.33,0,0,1-.24,2.38,10,10,0,0,1,.24,2.38,10.45,10.45,0,0,1-.24,2.38h2.38a9.92,9.92,0,0,1,.24,2.38,10.3,10.3,0,0,1-.24,2.37h7.13a10.94,10.94,0,0,1-.23-2.37,10.52,10.52,0,0,1,.23-2.38,11.1,11.1,0,0,1-.23-2.38,10.58,10.58,0,0,1,.23-2.38H155.8a10.33,10.33,0,0,1-.24-2.38A10,10,0,0,1,155.8,93h8.32A10,10,0,0,1,164.36,95.41Z"/><path class="cls-3" d="M188.14,109.68a11,11,0,0,1-.23,2.38h-4.76a10.33,10.33,0,0,1-.24-2.38,10,10,0,0,1,.24-2.38h-2.38a10.3,10.3,0,0,1-.24-2.37,9.92,9.92,0,0,1,.24-2.38h-7.13a10.52,10.52,0,0,1,.23,2.38,10.94,10.94,0,0,1-.23,2.37h7.13a10,10,0,0,1,.24,2.38,10.33,10.33,0,0,1-.24,2.38h-9.51a10.33,10.33,0,0,1-.24-2.38,10,10,0,0,1,.24-2.38h-2.38a10.3,10.3,0,0,1-.24-2.37,9.92,9.92,0,0,1,.24-2.38h2.38a10.45,10.45,0,0,1-.24-2.38,10,10,0,0,1,.24-2.38h9.51a10.33,10.33,0,0,1-.24-2.38,10,10,0,0,1,.24-2.38h-8.32a10.3,10.3,0,0,1-.24-2.37,9.86,9.86,0,0,1,.24-2.38h10.7a9.86,9.86,0,0,1,.24,2.38,10.3,10.3,0,0,1-.24,2.37h2.38a10,10,0,0,1,.24,2.38,10.33,10.33,0,0,1-.24,2.38,10,10,0,0,1,.24,2.38,10.45,10.45,0,0,1-.24,2.38,9.92,9.92,0,0,1,.24,2.38,10.3,10.3,0,0,1-.24,2.37h2.38A10.58,10.58,0,0,1,188.14,109.68Z"/><path class="cls-3" d="M195.64,93h1.78a10,10,0,0,1,.24,2.38,10.33,10.33,0,0,1-.24,2.38,10,10,0,0,1,.24,2.38,10.45,10.45,0,0,1-.24,2.38,9.92,9.92,0,0,1,.24,2.38,10.3,10.3,0,0,1-.24,2.37,10,10,0,0,1,.24,2.38,10.33,10.33,0,0,1-.24,2.38h-4.76a10.33,10.33,0,0,1-.24-2.38,10,10,0,0,1,.24-2.38,10.3,10.3,0,0,1-.24-2.37,9.92,9.92,0,0,1,.24-2.38,10.45,10.45,0,0,1-.24-2.38,10,10,0,0,1,.24-2.38,10.33,10.33,0,0,1-.24-2.38,10,10,0,0,1,.24-2.38,10.3,10.3,0,0,1-.24-2.37,9.86,9.86,0,0,1,.24-2.38h3a10.46,10.46,0,0,1,.23,2.38A10.94,10.94,0,0,1,195.64,93Zm6.54,0H204a10,10,0,0,1,.24,2.38,10.33,10.33,0,0,1-.24,2.38,10,10,0,0,1,.24,2.38,10.45,10.45,0,0,1-.24,2.38,9.92,9.92,0,0,1,.24,2.38,10.3,10.3,0,0,1-.24,2.37,10,10,0,0,1,.24,2.38,10.33,10.33,0,0,1-.24,2.38h-3.57a10.38,10.38,0,0,1-.23-2.38,10,10,0,0,1,.23-2.38,10.34,10.34,0,0,1-.23-2.37,10,10,0,0,1,.23-2.38,10.49,10.49,0,0,1-.23-2.38,10,10,0,0,1,.23-2.38,10.38,10.38,0,0,1-.23-2.38,10,10,0,0,1,.23-2.38h-3a10.3,10.3,0,0,1-.24-2.37,9.86,9.86,0,0,1,.24-2.38h4.76a10.46,10.46,0,0,1,.23,2.38A10.94,10.94,0,0,1,202.18,93Zm9.75,7.14a10.45,10.45,0,0,1-.24,2.38,9.92,9.92,0,0,1,.24,2.38,10.3,10.3,0,0,1-.24,2.37,10,10,0,0,1,.24,2.38,10.33,10.33,0,0,1-.24,2.38h-4.76a11,11,0,0,1-.23-2.38,10.58,10.58,0,0,1,.23-2.38,10.94,10.94,0,0,1-.23-2.37,10.52,10.52,0,0,1,.23-2.38,11.1,11.1,0,0,1-.23-2.38,10.58,10.58,0,0,1,.23-2.38,11,11,0,0,1-.23-2.38,10.58,10.58,0,0,1,.23-2.38h-3a10.3,10.3,0,0,1-.24-2.37,9.86,9.86,0,0,1,.24-2.38h5.35a9.86,9.86,0,0,1,.24,2.38,10.3,10.3,0,0,1-.24,2.37h2.38a10,10,0,0,1,.24,2.38,10.33,10.33,0,0,1-.24,2.38A10,10,0,0,1,211.93,100.17Z"/><path class="cls-3" d="M235.48,97.79a10.58,10.58,0,0,1,.23,2.38,11.1,11.1,0,0,1-.23,2.38H223a9.92,9.92,0,0,1,.24,2.38,10.3,10.3,0,0,1-.24,2.37H233.1a10,10,0,0,1,.24,2.38,10.33,10.33,0,0,1-.24,2.38H221.21a10.33,10.33,0,0,1-.24-2.38,10,10,0,0,1,.24-2.38h-3a10.3,10.3,0,0,1-.24-2.37,9.92,9.92,0,0,1,.24-2.38h-1.78a10.45,10.45,0,0,1-.24-2.38,10,10,0,0,1,.24-2.38h1.78a10.33,10.33,0,0,1-.24-2.38,10,10,0,0,1,.24-2.38h3a10.3,10.3,0,0,1-.24-2.37,9.86,9.86,0,0,1,.24-2.38H233.1a9.86,9.86,0,0,1,.24,2.38A10.3,10.3,0,0,1,233.1,93h2.38a10.58,10.58,0,0,1,.23,2.38A11,11,0,0,1,235.48,97.79Zm-5-2.38a10,10,0,0,1,.24-2.38H223a10,10,0,0,1,.24,2.38,10.33,10.33,0,0,1-.24,2.38h7.73A10.33,10.33,0,0,1,230.48,95.41Z"/><path class="cls-3" d="M283.05,102.55h-1.79a9.92,9.92,0,0,1,.24,2.38,10.3,10.3,0,0,1-.24,2.37h-3a10,10,0,0,1,.24,2.38,10.33,10.33,0,0,1-.24,2.38h-9.51a10.33,10.33,0,0,1-.24-2.38,10,10,0,0,1,.24-2.38h-3a10.3,10.3,0,0,1-.24-2.37,9.92,9.92,0,0,1,.24-2.38H264a10.45,10.45,0,0,1-.24-2.38,10,10,0,0,1,.24-2.38h1.78a10.33,10.33,0,0,1-.24-2.38A10,10,0,0,1,265.8,93h3a10.3,10.3,0,0,1-.24-2.37,9.86,9.86,0,0,1,.24-2.38h9.51a9.86,9.86,0,0,1,.24,2.38,10.3,10.3,0,0,1-.24,2.37h3a10,10,0,0,1,.24,2.38,10.33,10.33,0,0,1-.24,2.38h1.79a10.58,10.58,0,0,1,.23,2.38A11.1,11.1,0,0,1,283.05,102.55Zm-4.76,0a10.45,10.45,0,0,1-.24-2.38,10,10,0,0,1,.24-2.38H276.5a11,11,0,0,1-.23-2.38A10.58,10.58,0,0,1,276.5,93h-5.94a10,10,0,0,1,.24,2.38,10.33,10.33,0,0,1-.24,2.38h-1.78a10.58,10.58,0,0,1,.23,2.38,11.1,11.1,0,0,1-.23,2.38h1.78a9.92,9.92,0,0,1,.24,2.38,10.3,10.3,0,0,1-.24,2.37h5.94a10.94,10.94,0,0,1-.23-2.37,10.52,10.52,0,0,1,.23-2.38Z"/><path class="cls-3" d="M306.83,93h-1.78a10.58,10.58,0,0,1,.23,2.38,11,11,0,0,1-.23,2.38h-1.79a10,10,0,0,1,.24,2.38,10.45,10.45,0,0,1-.24,2.38h-1.19a9.92,9.92,0,0,1,.24,2.38,10.3,10.3,0,0,1-.24,2.37H299.7a10.58,10.58,0,0,1,.23,2.38,11,11,0,0,1-.23,2.38h-4.76a10.33,10.33,0,0,1-.24-2.38,10,10,0,0,1,.24-2.38h-2.38a10.3,10.3,0,0,1-.24-2.37,9.92,9.92,0,0,1,.24-2.38h-1.19a10.45,10.45,0,0,1-.24-2.38,10,10,0,0,1,.24-2.38h-1.78a10.33,10.33,0,0,1-.24-2.38,10,10,0,0,1,.24-2.38H287.8a10.3,10.3,0,0,1-.24-2.37,9.86,9.86,0,0,1,.24-2.38h4.76a9.86,9.86,0,0,1,.24,2.38,10.3,10.3,0,0,1-.24,2.37h1.78a10,10,0,0,1,.24,2.38,10.33,10.33,0,0,1-.24,2.38h1.79a10.58,10.58,0,0,1,.23,2.38,11.1,11.1,0,0,1-.23,2.38h2.38a10.45,10.45,0,0,1-.24-2.38,10,10,0,0,1,.24-2.38h1.78a10.33,10.33,0,0,1-.24-2.38,10,10,0,0,1,.24-2.38h1.78a10.94,10.94,0,0,1-.23-2.37,10.46,10.46,0,0,1,.23-2.38h4.76a9.86,9.86,0,0,1,.24,2.38A10.3,10.3,0,0,1,306.83,93Z"/><path class="cls-3" d="M330.61,97.79a10,10,0,0,1,.24,2.38,10.45,10.45,0,0,1-.24,2.38H318.13a9.92,9.92,0,0,1,.24,2.38,10.3,10.3,0,0,1-.24,2.37h10.11a10,10,0,0,1,.23,2.38,10.38,10.38,0,0,1-.23,2.38h-11.9a11,11,0,0,1-.23-2.38,10.58,10.58,0,0,1,.23-2.38h-3a10.3,10.3,0,0,1-.24-2.37,9.92,9.92,0,0,1,.24-2.38h-1.78a10.45,10.45,0,0,1-.24-2.38,10,10,0,0,1,.24-2.38h1.78a10.33,10.33,0,0,1-.24-2.38,10,10,0,0,1,.24-2.38h3a10.94,10.94,0,0,1-.23-2.37,10.46,10.46,0,0,1,.23-2.38h11.9a9.92,9.92,0,0,1,.23,2.38,10.34,10.34,0,0,1-.23,2.37h2.37a10,10,0,0,1,.24,2.38A10.33,10.33,0,0,1,330.61,97.79Zm-5-2.38a10,10,0,0,1,.24-2.38h-7.73a10,10,0,0,1,.24,2.38,10.33,10.33,0,0,1-.24,2.38h7.73A10.33,10.33,0,0,1,325.62,95.41Z"/><path class="cls-3" d="M354.64,95.41a10.33,10.33,0,0,1-.24,2.38h-4.76a11,11,0,0,1-.23-2.38,10.58,10.58,0,0,1,.23-2.38h-4.16a10,10,0,0,1,.24,2.38,10.33,10.33,0,0,1-.24,2.38H343.7a10.58,10.58,0,0,1,.23,2.38,11.1,11.1,0,0,1-.23,2.38,10.52,10.52,0,0,1,.23,2.38,10.94,10.94,0,0,1-.23,2.37h3.57a10.58,10.58,0,0,1,.23,2.38,11,11,0,0,1-.23,2.38h-11.9a10.33,10.33,0,0,1-.24-2.38,10,10,0,0,1,.24-2.38h3.57a10.3,10.3,0,0,1-.24-2.37,9.92,9.92,0,0,1,.24-2.38,10.45,10.45,0,0,1-.24-2.38,10,10,0,0,1,.24-2.38,10.33,10.33,0,0,1-.24-2.38,10,10,0,0,1,.24-2.38h-3.57a10.3,10.3,0,0,1-.24-2.37,9.86,9.86,0,0,1,.24-2.38h5.95a9.86,9.86,0,0,1,.24,2.38,10.3,10.3,0,0,1-.24,2.37h2.38a10.3,10.3,0,0,1-.24-2.37,9.86,9.86,0,0,1,.24-2.38h8.92a10.46,10.46,0,0,1,.23,2.38,10.94,10.94,0,0,1-.23,2.37h1.78A10,10,0,0,1,354.64,95.41Z"/><path class="cls-3" d="M371.29,85.9a10.45,10.45,0,0,1-.24,2.38,9.86,9.86,0,0,1,.24,2.38,10.3,10.3,0,0,1-.24,2.37,10,10,0,0,1,.24,2.38,10.33,10.33,0,0,1-.24,2.38,10,10,0,0,1,.24,2.38,10.45,10.45,0,0,1-.24,2.38h-4.76a10.45,10.45,0,0,1-.24-2.38,10,10,0,0,1,.24-2.38,10.33,10.33,0,0,1-.24-2.38,10,10,0,0,1,.24-2.38,10.3,10.3,0,0,1-.24-2.37,9.86,9.86,0,0,1,.24-2.38,10.45,10.45,0,0,1-.24-2.38,9.92,9.92,0,0,1,.24-2.38,10.39,10.39,0,0,1-.24-2.38,10,10,0,0,1,.24-2.38h4.76a10,10,0,0,1,.24,2.38,10.39,10.39,0,0,1-.24,2.38A9.92,9.92,0,0,1,371.29,85.9Zm-.24,21.4a10,10,0,0,1,.24,2.38,10.33,10.33,0,0,1-.24,2.38h-4.76a10.33,10.33,0,0,1-.24-2.38,10,10,0,0,1,.24-2.38Z"/><path class="cls-3" d="M426,95.41a10.33,10.33,0,0,1-.24,2.38,10,10,0,0,1,.24,2.38,10.45,10.45,0,0,1-.24,2.38h-2.37a10.52,10.52,0,0,1,.23,2.38,10.94,10.94,0,0,1-.23,2.37H421a10,10,0,0,1,.24,2.38,10.33,10.33,0,0,1-.24,2.38H406.73a10.33,10.33,0,0,1-.24-2.38,10,10,0,0,1,.24-2.38,10.3,10.3,0,0,1-.24-2.37,9.92,9.92,0,0,1,.24-2.38,10.45,10.45,0,0,1-.24-2.38,10,10,0,0,1,.24-2.38,10.33,10.33,0,0,1-.24-2.38,10,10,0,0,1,.24-2.38,10.3,10.3,0,0,1-.24-2.37,9.86,9.86,0,0,1,.24-2.38,10.45,10.45,0,0,1-.24-2.38,9.92,9.92,0,0,1,.24-2.38,10.39,10.39,0,0,1-.24-2.38,10,10,0,0,1,.24-2.38H421a10,10,0,0,1,.24,2.38,10.39,10.39,0,0,1-.24,2.38h2.38a10.52,10.52,0,0,1,.23,2.38,11.1,11.1,0,0,1-.23,2.38h2.37a9.86,9.86,0,0,1,.24,2.38,10.3,10.3,0,0,1-.24,2.37A10,10,0,0,1,426,95.41Zm-5.23,4.76a10,10,0,0,1,.24-2.38,10.33,10.33,0,0,1-.24-2.38A10,10,0,0,1,421,93a10.3,10.3,0,0,1-.24-2.37,9.86,9.86,0,0,1,.24-2.38h-2.38a10.45,10.45,0,0,1-.24-2.38,9.92,9.92,0,0,1,.24-2.38h-7.14a9.92,9.92,0,0,1,.24,2.38,10.45,10.45,0,0,1-.24,2.38,9.86,9.86,0,0,1,.24,2.38,10.3,10.3,0,0,1-.24,2.37,10,10,0,0,1,.24,2.38,10.33,10.33,0,0,1-.24,2.38,10,10,0,0,1,.24,2.38,10.45,10.45,0,0,1-.24,2.38,9.92,9.92,0,0,1,.24,2.38,10.3,10.3,0,0,1-.24,2.37h7.14a10.3,10.3,0,0,1-.24-2.37,9.92,9.92,0,0,1,.24-2.38H421A10.45,10.45,0,0,1,420.76,100.17Z"/><path class="cls-3" d="M437.05,107.3H443a10,10,0,0,1,.24,2.38,10.33,10.33,0,0,1-.24,2.38h-9.52a10.38,10.38,0,0,1-.23-2.38,10,10,0,0,1,.23-2.38h-3a10.3,10.3,0,0,1-.24-2.37,9.92,9.92,0,0,1,.24-2.38,10.45,10.45,0,0,1-.24-2.38,10,10,0,0,1,.24-2.38,10.33,10.33,0,0,1-.24-2.38,10,10,0,0,1,.24-2.38,10.3,10.3,0,0,1-.24-2.37,9.86,9.86,0,0,1,.24-2.38h4.76a9.86,9.86,0,0,1,.24,2.38,10.3,10.3,0,0,1-.24,2.37,10,10,0,0,1,.24,2.38,10.33,10.33,0,0,1-.24,2.38,10,10,0,0,1,.24,2.38,10.45,10.45,0,0,1-.24,2.38h1.78a9.92,9.92,0,0,1,.24,2.38A10.3,10.3,0,0,1,437.05,107.3Zm12.73-11.89a10.33,10.33,0,0,1-.24,2.38,10,10,0,0,1,.24,2.38,10.45,10.45,0,0,1-.24,2.38,9.92,9.92,0,0,1,.24,2.38,10.3,10.3,0,0,1-.24,2.37,10,10,0,0,1,.24,2.38,10.33,10.33,0,0,1-.24,2.38h-4.76a10.38,10.38,0,0,1-.23-2.38,10,10,0,0,1,.23-2.38H443a10.3,10.3,0,0,1-.24-2.37,9.92,9.92,0,0,1,.24-2.38h1.78a10.49,10.49,0,0,1-.23-2.38,10,10,0,0,1,.23-2.38,10.38,10.38,0,0,1-.23-2.38,10,10,0,0,1,.23-2.38,10.34,10.34,0,0,1-.23-2.37,9.92,9.92,0,0,1,.23-2.38h4.76a9.86,9.86,0,0,1,.24,2.38,10.3,10.3,0,0,1-.24,2.37A10,10,0,0,1,449.78,95.41Z"/><path class="cls-3" d="M482.84,93h1.78a10,10,0,0,1,.24,2.38,10.33,10.33,0,0,1-.24,2.38h-1.78a10,10,0,0,1,.24,2.38,10.45,10.45,0,0,1-.24,2.38,9.92,9.92,0,0,1,.24,2.38,10.3,10.3,0,0,1-.24,2.37,10,10,0,0,1,.24,2.38,10.33,10.33,0,0,1-.24,2.38h-4.76a10.33,10.33,0,0,1-.24-2.38,10,10,0,0,1,.24-2.38,10.3,10.3,0,0,1-.24-2.37,9.92,9.92,0,0,1,.24-2.38,10.45,10.45,0,0,1-.24-2.38,10,10,0,0,1,.24-2.38,10.33,10.33,0,0,1-.24-2.38,10,10,0,0,1,.24-2.38,10.3,10.3,0,0,1-.24-2.37,9.86,9.86,0,0,1,.24-2.38,10.45,10.45,0,0,1-.24-2.38,9.92,9.92,0,0,1,.24-2.38,10.39,10.39,0,0,1-.24-2.38,10,10,0,0,1,.24-2.38h4.76a10,10,0,0,1,.24,2.38,10.39,10.39,0,0,1-.24,2.38,9.92,9.92,0,0,1,.24,2.38,10.45,10.45,0,0,1-.24,2.38,9.86,9.86,0,0,1,.24,2.38A10.3,10.3,0,0,1,482.84,93Zm14.51,7.14a10.45,10.45,0,0,1-.24,2.38,9.92,9.92,0,0,1,.24,2.38,10.3,10.3,0,0,1-.24,2.37,10,10,0,0,1,.24,2.38,10.33,10.33,0,0,1-.24,2.38h-4.76a10.33,10.33,0,0,1-.24-2.38,10,10,0,0,1,.24-2.38,10.3,10.3,0,0,1-.24-2.37,9.92,9.92,0,0,1,.24-2.38,10.45,10.45,0,0,1-.24-2.38,10,10,0,0,1,.24-2.38,10.33,10.33,0,0,1-.24-2.38,10,10,0,0,1,.24-2.38h-7.73a10.34,10.34,0,0,1-.23-2.37,9.92,9.92,0,0,1,.23-2.38h9.52a10.46,10.46,0,0,1,.23,2.38,10.94,10.94,0,0,1-.23,2.37h3a10,10,0,0,1,.24,2.38,10.33,10.33,0,0,1-.24,2.38A10,10,0,0,1,497.35,100.17Z"/><path class="cls-3" d="M521.13,109.68a10.33,10.33,0,0,1-.24,2.38h-4.75a10.33,10.33,0,0,1-.24-2.38,10,10,0,0,1,.24-2.38h-2.38a10.3,10.3,0,0,1-.24-2.37,9.92,9.92,0,0,1,.24-2.38h-7.14a9.92,9.92,0,0,1,.24,2.38,10.3,10.3,0,0,1-.24,2.37h7.14a10,10,0,0,1,.24,2.38,10.33,10.33,0,0,1-.24,2.38h-9.51a10.33,10.33,0,0,1-.24-2.38,10,10,0,0,1,.24-2.38h-2.38a10.3,10.3,0,0,1-.24-2.37,9.92,9.92,0,0,1,.24-2.38h2.38a10.45,10.45,0,0,1-.24-2.38,10,10,0,0,1,.24-2.38h9.51a10.33,10.33,0,0,1-.24-2.38,10,10,0,0,1,.24-2.38h-8.33a10.94,10.94,0,0,1-.23-2.37,10.46,10.46,0,0,1,.23-2.38h10.71a9.86,9.86,0,0,1,.24,2.38,10.3,10.3,0,0,1-.24,2.37h2.38a10.58,10.58,0,0,1,.23,2.38,11,11,0,0,1-.23,2.38,10.58,10.58,0,0,1,.23,2.38,11.1,11.1,0,0,1-.23,2.38,10.52,10.52,0,0,1,.23,2.38,10.94,10.94,0,0,1-.23,2.37h2.37A10,10,0,0,1,521.13,109.68Z"/><path class="cls-3" d="M544.92,95.41a10.33,10.33,0,0,1-.24,2.38h-4.76a10.33,10.33,0,0,1-.24-2.38,10,10,0,0,1,.24-2.38h-4.16a10,10,0,0,1,.24,2.38,10.33,10.33,0,0,1-.24,2.38H534a10.58,10.58,0,0,1,.23,2.38,11.1,11.1,0,0,1-.23,2.38,10.52,10.52,0,0,1,.23,2.38,10.94,10.94,0,0,1-.23,2.37h3.56a10,10,0,0,1,.24,2.38,10.33,10.33,0,0,1-.24,2.38H525.65a10.33,10.33,0,0,1-.24-2.38,10,10,0,0,1,.24-2.38h3.57a10.3,10.3,0,0,1-.24-2.37,9.92,9.92,0,0,1,.24-2.38,10.45,10.45,0,0,1-.24-2.38,10,10,0,0,1,.24-2.38,10.33,10.33,0,0,1-.24-2.38,10,10,0,0,1,.24-2.38h-3.57a10.3,10.3,0,0,1-.24-2.37,9.86,9.86,0,0,1,.24-2.38h6a10.46,10.46,0,0,1,.23,2.38A10.94,10.94,0,0,1,531.6,93H534a10.3,10.3,0,0,1-.24-2.37,9.86,9.86,0,0,1,.24-2.38h8.92a10.46,10.46,0,0,1,.23,2.38A10.94,10.94,0,0,1,542.9,93h1.78A10,10,0,0,1,544.92,95.41Z"/><path class="cls-3" d="M578.22,104.93a10.3,10.3,0,0,1-.24,2.37H575.6a10,10,0,0,1,.24,2.38,10.33,10.33,0,0,1-.24,2.38h-2.38a10.33,10.33,0,0,1-.24-2.38,10,10,0,0,1,.24-2.38,10.3,10.3,0,0,1-.24-2.37,9.92,9.92,0,0,1,.24-2.38,10.45,10.45,0,0,1-.24-2.38,10,10,0,0,1,.24-2.38,10.33,10.33,0,0,1-.24-2.38,10,10,0,0,1,.24-2.38,10.3,10.3,0,0,1-.24-2.37,9.86,9.86,0,0,1,.24-2.38A10.45,10.45,0,0,1,573,85.9a9.92,9.92,0,0,1,.24-2.38,10.39,10.39,0,0,1-.24-2.38,10,10,0,0,1,.24-2.38H578a10,10,0,0,1,.24,2.38,10.39,10.39,0,0,1-.24,2.38,9.92,9.92,0,0,1,.24,2.38,10.45,10.45,0,0,1-.24,2.38,9.86,9.86,0,0,1,.24,2.38A10.3,10.3,0,0,1,578,93h2.38a10,10,0,0,1,.24,2.38,10.33,10.33,0,0,1-.24,2.38H578a10,10,0,0,1,.24,2.38,10.45,10.45,0,0,1-.24,2.38A9.92,9.92,0,0,1,578.22,104.93ZM578,107.3h7.14a10.58,10.58,0,0,1,.23,2.38,11,11,0,0,1-.23,2.38H578a10.33,10.33,0,0,1-.24-2.38A10,10,0,0,1,578,107.3Zm14.27-4.75h-2.38a9.92,9.92,0,0,1,.24,2.38,10.3,10.3,0,0,1-.24,2.37h-4.75a10.3,10.3,0,0,1-.24-2.37,9.92,9.92,0,0,1,.24-2.38h2.37a11.1,11.1,0,0,1-.23-2.38,10.58,10.58,0,0,1,.23-2.38h-2.37a10.33,10.33,0,0,1-.24-2.38,10,10,0,0,1,.24-2.38h-4.76a10.3,10.3,0,0,1-.24-2.37,9.86,9.86,0,0,1,.24-2.38h7.13a9.86,9.86,0,0,1,.24,2.38,10.3,10.3,0,0,1-.24,2.37h2.38a10,10,0,0,1,.24,2.38,10.33,10.33,0,0,1-.24,2.38h2.38a10,10,0,0,1,.24,2.38A10.45,10.45,0,0,1,592.25,102.55Z"/><path class="cls-3" d="M616.27,95.41a11,11,0,0,1-.23,2.38h-4.76a10.33,10.33,0,0,1-.24-2.38,10,10,0,0,1,.24-2.38h-4.16a10,10,0,0,1,.24,2.38,10.33,10.33,0,0,1-.24,2.38h-1.79a10,10,0,0,1,.24,2.38,10.45,10.45,0,0,1-.24,2.38,9.92,9.92,0,0,1,.24,2.38,10.3,10.3,0,0,1-.24,2.37h3.57a10,10,0,0,1,.24,2.38,10.33,10.33,0,0,1-.24,2.38H597a10.33,10.33,0,0,1-.24-2.38,10,10,0,0,1,.24-2.38h3.57a10.3,10.3,0,0,1-.24-2.37,9.92,9.92,0,0,1,.24-2.38,10.45,10.45,0,0,1-.24-2.38,10,10,0,0,1,.24-2.38,10.33,10.33,0,0,1-.24-2.38,10,10,0,0,1,.24-2.38H597a10.3,10.3,0,0,1-.24-2.37,9.86,9.86,0,0,1,.24-2.38H603a9.86,9.86,0,0,1,.24,2.38A10.3,10.3,0,0,1,603,93h2.38a10.3,10.3,0,0,1-.24-2.37,9.86,9.86,0,0,1,.24-2.38h8.92a9.86,9.86,0,0,1,.24,2.38,10.3,10.3,0,0,1-.24,2.37H616A10.58,10.58,0,0,1,616.27,95.41Z"/><path class="cls-3" d="M627.33,107.3h5.95a10,10,0,0,1,.24,2.38,10.33,10.33,0,0,1-.24,2.38h-9.51a10.33,10.33,0,0,1-.24-2.38,10,10,0,0,1,.24-2.38h-3a10.3,10.3,0,0,1-.24-2.37,9.92,9.92,0,0,1,.24-2.38,10.45,10.45,0,0,1-.24-2.38,10,10,0,0,1,.24-2.38,10.33,10.33,0,0,1-.24-2.38,10,10,0,0,1,.24-2.38,10.3,10.3,0,0,1-.24-2.37,9.86,9.86,0,0,1,.24-2.38h4.76a9.86,9.86,0,0,1,.24,2.38,10.3,10.3,0,0,1-.24,2.37,10,10,0,0,1,.24,2.38,10.33,10.33,0,0,1-.24,2.38,10,10,0,0,1,.24,2.38,10.45,10.45,0,0,1-.24,2.38h1.78a9.92,9.92,0,0,1,.24,2.38A10.3,10.3,0,0,1,627.33,107.3Zm12.73-11.89a10.33,10.33,0,0,1-.24,2.38,10,10,0,0,1,.24,2.38,10.45,10.45,0,0,1-.24,2.38,9.92,9.92,0,0,1,.24,2.38,10.3,10.3,0,0,1-.24,2.37,10,10,0,0,1,.24,2.38,10.33,10.33,0,0,1-.24,2.38h-4.76a11,11,0,0,1-.23-2.38,10.58,10.58,0,0,1,.23-2.38h-1.78a10.3,10.3,0,0,1-.24-2.37,9.92,9.92,0,0,1,.24-2.38h1.78a11.1,11.1,0,0,1-.23-2.38,10.58,10.58,0,0,1,.23-2.38,11,11,0,0,1-.23-2.38,10.58,10.58,0,0,1,.23-2.38,10.94,10.94,0,0,1-.23-2.37,10.46,10.46,0,0,1,.23-2.38h4.76a9.86,9.86,0,0,1,.24,2.38,10.3,10.3,0,0,1-.24,2.37A10,10,0,0,1,640.06,95.41Z"/><path class="cls-3" d="M663.84,95.41a11,11,0,0,1-.23,2.38,10.58,10.58,0,0,1,.23,2.38,11.1,11.1,0,0,1-.23,2.38,10.52,10.52,0,0,1,.23,2.38,10.94,10.94,0,0,1-.23,2.37,10.58,10.58,0,0,1,.23,2.38,11,11,0,0,1-.23,2.38h-2.38a10,10,0,0,1,.24,2.38,10.45,10.45,0,0,1-.24,2.38h-2.38a9.92,9.92,0,0,1,.24,2.38,10.45,10.45,0,0,1-.24,2.38h-9.51a10.45,10.45,0,0,1-.24-2.38,9.92,9.92,0,0,1,.24-2.38h7.13a10.45,10.45,0,0,1-.24-2.38,10,10,0,0,1,.24-2.38h2.38a10.33,10.33,0,0,1-.24-2.38,10,10,0,0,1,.24-2.38h-2.38a10.3,10.3,0,0,1-.24-2.37,9.92,9.92,0,0,1,.24-2.38h2.38a10.45,10.45,0,0,1-.24-2.38,10,10,0,0,1,.24-2.38,10.33,10.33,0,0,1-.24-2.38,10,10,0,0,1,.24-2.38h-7.73a10,10,0,0,1,.24,2.38,10.33,10.33,0,0,1-.24,2.38h-1.78a10.58,10.58,0,0,1,.23,2.38,11.1,11.1,0,0,1-.23,2.38h1.78a9.92,9.92,0,0,1,.24,2.38,10.3,10.3,0,0,1-.24,2.37h5.35a10,10,0,0,1,.24,2.38,10.33,10.33,0,0,1-.24,2.38h-7.13a10.33,10.33,0,0,1-.24-2.38,10,10,0,0,1,.24-2.38h-3a10.3,10.3,0,0,1-.24-2.37,9.92,9.92,0,0,1,.24-2.38h-1.78a10.45,10.45,0,0,1-.24-2.38,10,10,0,0,1,.24-2.38h1.78a10.33,10.33,0,0,1-.24-2.38,10,10,0,0,1,.24-2.38h3a10.3,10.3,0,0,1-.24-2.37,9.86,9.86,0,0,1,.24-2.38h14.27a10.46,10.46,0,0,1,.23,2.38,10.94,10.94,0,0,1-.23,2.37A10.58,10.58,0,0,1,663.84,95.41Z"/><path class="cls-3" d="M685,107.3a10,10,0,0,1,.24,2.38,10.33,10.33,0,0,1-.24,2.38H675.5a10.33,10.33,0,0,1-.24-2.38,10,10,0,0,1,.24-2.38h-2.38a10.3,10.3,0,0,1-.24-2.37,9.92,9.92,0,0,1,.24-2.38,10.45,10.45,0,0,1-.24-2.38,10,10,0,0,1,.24-2.38,10.33,10.33,0,0,1-.24-2.38,10,10,0,0,1,.24-2.38h-4.76a10.3,10.3,0,0,1-.24-2.37,9.86,9.86,0,0,1,.24-2.38h4.76a10.45,10.45,0,0,1-.24-2.38,9.92,9.92,0,0,1,.24-2.38,10.39,10.39,0,0,1-.24-2.38,10,10,0,0,1,.24-2.38h4.76a10.58,10.58,0,0,1,.23,2.38,11,11,0,0,1-.23,2.38,10.52,10.52,0,0,1,.23,2.38,11.1,11.1,0,0,1-.23,2.38H685a9.86,9.86,0,0,1,.24,2.38A10.3,10.3,0,0,1,685,93h-7.13a10.58,10.58,0,0,1,.23,2.38,11,11,0,0,1-.23,2.38,10.58,10.58,0,0,1,.23,2.38,11.1,11.1,0,0,1-.23,2.38,10.52,10.52,0,0,1,.23,2.38,10.94,10.94,0,0,1-.23,2.37Z"/><path class="cls-3" d="M162.93,178.66h-2.38a10,10,0,0,1,.24,2.38,10.39,10.39,0,0,1-.24,2.38H147.47a10.39,10.39,0,0,1-.24-2.38,10,10,0,0,1,.24-2.38h10.7a11,11,0,0,1-.23-2.38,10.58,10.58,0,0,1,.23-2.38h-9.51a10.3,10.3,0,0,1-.24-2.37,9.92,9.92,0,0,1,.24-2.38h-2.38a10.45,10.45,0,0,1-.24-2.38,10,10,0,0,1,.24-2.38h2.38a10.39,10.39,0,0,1-.24-2.38,10,10,0,0,1,.24-2.38h13.08A10,10,0,0,1,162,162a10.39,10.39,0,0,1-.24,2.38H151a10,10,0,0,1,.24,2.38,10.45,10.45,0,0,1-.24,2.38h9.51a9.92,9.92,0,0,1,.24,2.38,10.3,10.3,0,0,1-.24,2.37h2.38a10,10,0,0,1,.24,2.38A10.39,10.39,0,0,1,162.93,178.66Z"/><path class="cls-3" d="M188.14,181a11,11,0,0,1-.23,2.38h-8.33a10.39,10.39,0,0,1-.24-2.38,10,10,0,0,1,.24-2.38H177.2a10.39,10.39,0,0,1-.24-2.38,10,10,0,0,1,.24-2.38h-3.56a10.58,10.58,0,0,1,.23,2.38,11,11,0,0,1-.23,2.38,10.58,10.58,0,0,1,.23,2.38,11,11,0,0,1-.23,2.38h-4.76a10.39,10.39,0,0,1-.24-2.38,10,10,0,0,1,.24-2.38,10.39,10.39,0,0,1-.24-2.38,10,10,0,0,1,.24-2.38,10.3,10.3,0,0,1-.24-2.37,9.92,9.92,0,0,1,.24-2.38,10.45,10.45,0,0,1-.24-2.38,10,10,0,0,1,.24-2.38,10.39,10.39,0,0,1-.24-2.38,10,10,0,0,1,.24-2.38,10.3,10.3,0,0,1-.24-2.37,9.86,9.86,0,0,1,.24-2.38,10.45,10.45,0,0,1-.24-2.38,9.92,9.92,0,0,1,.24-2.38h4.76a10.52,10.52,0,0,1,.23,2.38,11.1,11.1,0,0,1-.23,2.38,10.46,10.46,0,0,1,.23,2.38,10.94,10.94,0,0,1-.23,2.37,10.58,10.58,0,0,1,.23,2.38,11,11,0,0,1-.23,2.38,10.58,10.58,0,0,1,.23,2.38,11.1,11.1,0,0,1-.23,2.38h3.56a10.45,10.45,0,0,1-.24-2.38,10,10,0,0,1,.24-2.38h2.38a10.39,10.39,0,0,1-.24-2.38,10,10,0,0,1,.24-2.38h7.14A10,10,0,0,1,187,162a10.43,10.43,0,0,1-.23,2.38H182a10,10,0,0,1,.24,2.38,10.45,10.45,0,0,1-.24,2.38h-2.38a9.92,9.92,0,0,1,.24,2.38,10.3,10.3,0,0,1-.24,2.37H182a10,10,0,0,1,.24,2.38,10.39,10.39,0,0,1-.24,2.38h5.95A10.58,10.58,0,0,1,188.14,181Z"/><path class="cls-3" d="M211.93,181a10.39,10.39,0,0,1-.24,2.38h-4.76a11,11,0,0,1-.23-2.38,10.58,10.58,0,0,1,.23-2.38h-2.37a10.39,10.39,0,0,1-.24-2.38,10,10,0,0,1,.24-2.38h-7.14a10,10,0,0,1,.24,2.38,10.39,10.39,0,0,1-.24,2.38h7.14a10.58,10.58,0,0,1,.23,2.38,11,11,0,0,1-.23,2.38H195a10.39,10.39,0,0,1-.24-2.38,10,10,0,0,1,.24-2.38h-2.38a10.39,10.39,0,0,1-.24-2.38,10,10,0,0,1,.24-2.38H195a10.3,10.3,0,0,1-.24-2.37,9.92,9.92,0,0,1,.24-2.38h9.52a10.45,10.45,0,0,1-.24-2.38,10,10,0,0,1,.24-2.38h-8.33A10.39,10.39,0,0,1,196,162a10,10,0,0,1,.24-2.38h10.7a10,10,0,0,1,.24,2.38,10.39,10.39,0,0,1-.24,2.38h2.38a10,10,0,0,1,.24,2.38,10.45,10.45,0,0,1-.24,2.38,9.92,9.92,0,0,1,.24,2.38,10.3,10.3,0,0,1-.24,2.37,10,10,0,0,1,.24,2.38,10.39,10.39,0,0,1-.24,2.38h2.38A10,10,0,0,1,211.93,181Z"/><path class="cls-3" d="M233.1,178.66a10,10,0,0,1,.24,2.38,10.39,10.39,0,0,1-.24,2.38h-9.52a10.43,10.43,0,0,1-.23-2.38,10,10,0,0,1,.23-2.38h-2.37a10.39,10.39,0,0,1-.24-2.38,10,10,0,0,1,.24-2.38,10.3,10.3,0,0,1-.24-2.37,9.92,9.92,0,0,1,.24-2.38,10.45,10.45,0,0,1-.24-2.38,10,10,0,0,1,.24-2.38h-4.76a10.39,10.39,0,0,1-.24-2.38,10,10,0,0,1,.24-2.38h4.76a10.3,10.3,0,0,1-.24-2.37,9.86,9.86,0,0,1,.24-2.38,10.45,10.45,0,0,1-.24-2.38,9.92,9.92,0,0,1,.24-2.38H226a9.92,9.92,0,0,1,.24,2.38,10.45,10.45,0,0,1-.24,2.38,9.86,9.86,0,0,1,.24,2.38,10.3,10.3,0,0,1-.24,2.37h7.14a10,10,0,0,1,.24,2.38,10.39,10.39,0,0,1-.24,2.38H226a10,10,0,0,1,.24,2.38,10.45,10.45,0,0,1-.24,2.38,9.92,9.92,0,0,1,.24,2.38,10.3,10.3,0,0,1-.24,2.37,10,10,0,0,1,.24,2.38,10.39,10.39,0,0,1-.24,2.38Z"/><path class="cls-3" d="M256.88,178.66a10,10,0,0,1,.24,2.38,10.39,10.39,0,0,1-.24,2.38h-9.51a10.39,10.39,0,0,1-.24-2.38,10,10,0,0,1,.24-2.38H245a10.39,10.39,0,0,1-.24-2.38,10,10,0,0,1,.24-2.38,10.3,10.3,0,0,1-.24-2.37,9.92,9.92,0,0,1,.24-2.38,10.45,10.45,0,0,1-.24-2.38,10,10,0,0,1,.24-2.38h-4.76A10.39,10.39,0,0,1,240,162a10,10,0,0,1,.24-2.38H245a10.3,10.3,0,0,1-.24-2.37,9.86,9.86,0,0,1,.24-2.38,10.45,10.45,0,0,1-.24-2.38,9.92,9.92,0,0,1,.24-2.38h4.76a10.52,10.52,0,0,1,.23,2.38,11.1,11.1,0,0,1-.23,2.38,10.46,10.46,0,0,1,.23,2.38,10.94,10.94,0,0,1-.23,2.37h7.13a10,10,0,0,1,.24,2.38,10.39,10.39,0,0,1-.24,2.38h-7.13a10.58,10.58,0,0,1,.23,2.38,11.1,11.1,0,0,1-.23,2.38,10.52,10.52,0,0,1,.23,2.38,10.94,10.94,0,0,1-.23,2.37,10.58,10.58,0,0,1,.23,2.38,11,11,0,0,1-.23,2.38Z"/><path class="cls-3" d="M283.05,169.15a10.52,10.52,0,0,1,.23,2.38,10.94,10.94,0,0,1-.23,2.37H270.56a10,10,0,0,1,.24,2.38,10.39,10.39,0,0,1-.24,2.38h10.11a10,10,0,0,1,.24,2.38,10.39,10.39,0,0,1-.24,2.38H268.78a10.39,10.39,0,0,1-.24-2.38,10,10,0,0,1,.24-2.38h-3a10.39,10.39,0,0,1-.24-2.38,10,10,0,0,1,.24-2.38H264a10.3,10.3,0,0,1-.24-2.37,9.92,9.92,0,0,1,.24-2.38h1.78a10.45,10.45,0,0,1-.24-2.38,10,10,0,0,1,.24-2.38h3a10.39,10.39,0,0,1-.24-2.38,10,10,0,0,1,.24-2.38h11.89a10,10,0,0,1,.24,2.38,10.39,10.39,0,0,1-.24,2.38h2.38a10.58,10.58,0,0,1,.23,2.38A11.1,11.1,0,0,1,283.05,169.15Zm-5-2.38a10,10,0,0,1,.24-2.38h-7.73a10,10,0,0,1,.24,2.38,10.45,10.45,0,0,1-.24,2.38h7.73A10.45,10.45,0,0,1,278.05,166.77Z"/><path class="cls-3" d="M306.83,164.39h-1.78a10.58,10.58,0,0,1,.23,2.38,11.1,11.1,0,0,1-.23,2.38h-1.79a9.92,9.92,0,0,1,.24,2.38,10.3,10.3,0,0,1-.24,2.37h-1.19a10,10,0,0,1,.24,2.38,10.39,10.39,0,0,1-.24,2.38h-1.78a10,10,0,0,1,.24,2.38,10.39,10.39,0,0,1-.24,2.38H299.1a9.92,9.92,0,0,1,.24,2.38,10.45,10.45,0,0,1-.24,2.38h-2.38a9.86,9.86,0,0,1,.24,2.38,10.3,10.3,0,0,1-.24,2.37h-7.13a10.3,10.3,0,0,1-.24-2.37,9.86,9.86,0,0,1,.24-2.38h4.75a10.49,10.49,0,0,1-.23-2.38,10,10,0,0,1,.23-2.38,10.43,10.43,0,0,1-.23-2.38,10,10,0,0,1,.23-2.38H292a10.43,10.43,0,0,1-.23-2.38,10,10,0,0,1,.23-2.38h-1.19a10.94,10.94,0,0,1-.23-2.37,10.52,10.52,0,0,1,.23-2.38H289a10.45,10.45,0,0,1-.24-2.38,10,10,0,0,1,.24-2.38h-1.78A10.39,10.39,0,0,1,287,162a10,10,0,0,1,.24-2.38H292a10,10,0,0,1,.24,2.38,10.39,10.39,0,0,1-.24,2.38h1.79a10,10,0,0,1,.24,2.38,10.45,10.45,0,0,1-.24,2.38h1.78a9.92,9.92,0,0,1,.24,2.38,10.3,10.3,0,0,1-.24,2.37,10,10,0,0,1,.24,2.38,10.39,10.39,0,0,1-.24,2.38h1.79a10.39,10.39,0,0,1-.24-2.38,10,10,0,0,1,.24-2.38h1.19a10.3,10.3,0,0,1-.24-2.37,9.92,9.92,0,0,1,.24-2.38h1.78a10.45,10.45,0,0,1-.24-2.38,10,10,0,0,1,.24-2.38h1.78a11,11,0,0,1-.23-2.38,10.58,10.58,0,0,1,.23-2.38h4.76a10,10,0,0,1,.24,2.38A10.39,10.39,0,0,1,306.83,164.39Z"/><path class="cls-3" d="M322.89,164.39h-5.95a10,10,0,0,1,.24,2.38,10.45,10.45,0,0,1-.24,2.38h-1.78a10.52,10.52,0,0,1,.23,2.38,10.94,10.94,0,0,1-.23,2.37h1.78a10,10,0,0,1,.24,2.38,10.39,10.39,0,0,1-.24,2.38h5.95a10.58,10.58,0,0,1,.23,2.38,11,11,0,0,1-.23,2.38h-6.55a11,11,0,0,1-.23-2.38,10.58,10.58,0,0,1,.23-2.38h-3a10.39,10.39,0,0,1-.24-2.38,10,10,0,0,1,.24-2.38h-1.78a10.3,10.3,0,0,1-.24-2.37,9.92,9.92,0,0,1,.24-2.38h1.78a10.45,10.45,0,0,1-.24-2.38,10,10,0,0,1,.24-2.38h3a11,11,0,0,1-.23-2.38,10.58,10.58,0,0,1,.23-2.38h6.55a10.58,10.58,0,0,1,.23,2.38A11,11,0,0,1,322.89,164.39Zm8-7.13a10.3,10.3,0,0,1-.24,2.37,10,10,0,0,1,.24,2.38,10.39,10.39,0,0,1-.24,2.38,10,10,0,0,1,.24,2.38,10.45,10.45,0,0,1-.24,2.38,9.92,9.92,0,0,1,.24,2.38,10.3,10.3,0,0,1-.24,2.37,10,10,0,0,1,.24,2.38,10.39,10.39,0,0,1-.24,2.38,10,10,0,0,1,.24,2.38,10.39,10.39,0,0,1-.24,2.38h-4.75a10.39,10.39,0,0,1-.24-2.38,10,10,0,0,1,.24-2.38h-1.79a11,11,0,0,1-.23-2.38,10.58,10.58,0,0,1,.23-2.38h1.79a10.3,10.3,0,0,1-.24-2.37,9.92,9.92,0,0,1,.24-2.38h-1.79a11.1,11.1,0,0,1-.23-2.38,10.58,10.58,0,0,1,.23-2.38h1.79a10.39,10.39,0,0,1-.24-2.38,10,10,0,0,1,.24-2.38,10.3,10.3,0,0,1-.24-2.37,9.86,9.86,0,0,1,.24-2.38,10.45,10.45,0,0,1-.24-2.38,9.92,9.92,0,0,1,.24-2.38h4.75a9.92,9.92,0,0,1,.24,2.38,10.45,10.45,0,0,1-.24,2.38A9.86,9.86,0,0,1,330.85,157.26Z"/><path class="cls-3" d="M354.4,169.15a9.92,9.92,0,0,1,.24,2.38,10.3,10.3,0,0,1-.24,2.37H341.91a10,10,0,0,1,.24,2.38,10.39,10.39,0,0,1-.24,2.38H352a10,10,0,0,1,.24,2.38,10.39,10.39,0,0,1-.24,2.38H340.13a10.39,10.39,0,0,1-.24-2.38,10,10,0,0,1,.24-2.38h-3a10.39,10.39,0,0,1-.24-2.38,10,10,0,0,1,.24-2.38h-1.79a10.3,10.3,0,0,1-.24-2.37,9.92,9.92,0,0,1,.24-2.38h1.79a10.45,10.45,0,0,1-.24-2.38,10,10,0,0,1,.24-2.38h3a10.39,10.39,0,0,1-.24-2.38,10,10,0,0,1,.24-2.38H352a10,10,0,0,1,.24,2.38,10.39,10.39,0,0,1-.24,2.38h2.38a10,10,0,0,1,.24,2.38A10.45,10.45,0,0,1,354.4,169.15Zm-5-2.38a10.58,10.58,0,0,1,.23-2.38h-7.73a10,10,0,0,1,.24,2.38,10.45,10.45,0,0,1-.24,2.38h7.73A11.1,11.1,0,0,1,349.41,166.77Z"/><path class="cls-3" d="M378.42,166.77a10.45,10.45,0,0,1-.24,2.38h-4.75a10.45,10.45,0,0,1-.24-2.38,10,10,0,0,1,.24-2.38h-4.16a10.58,10.58,0,0,1,.23,2.38,11.1,11.1,0,0,1-.23,2.38h-1.79a9.92,9.92,0,0,1,.24,2.38,10.3,10.3,0,0,1-.24,2.37,10,10,0,0,1,.24,2.38,10.39,10.39,0,0,1-.24,2.38h3.57a10,10,0,0,1,.24,2.38,10.39,10.39,0,0,1-.24,2.38H359.16a10.39,10.39,0,0,1-.24-2.38,10,10,0,0,1,.24-2.38h3.57a10.39,10.39,0,0,1-.24-2.38,10,10,0,0,1,.24-2.38,10.3,10.3,0,0,1-.24-2.37,9.92,9.92,0,0,1,.24-2.38,10.45,10.45,0,0,1-.24-2.38,10,10,0,0,1,.24-2.38h-3.57a10.39,10.39,0,0,1-.24-2.38,10,10,0,0,1,.24-2.38h5.94a10,10,0,0,1,.24,2.38,10.39,10.39,0,0,1-.24,2.38h2.38a10.39,10.39,0,0,1-.24-2.38,10,10,0,0,1,.24-2.38h8.92a10,10,0,0,1,.24,2.38,10.39,10.39,0,0,1-.24,2.38h1.78A10,10,0,0,1,378.42,166.77Z"/><path class="cls-3" d="M387.1,164.39h2.38a10,10,0,0,1,.24,2.38,10.45,10.45,0,0,1-.24,2.38H387.7a9.92,9.92,0,0,1,.24,2.38,10.3,10.3,0,0,1-.24,2.37,10,10,0,0,1,.24,2.38,10.39,10.39,0,0,1-.24,2.38,10,10,0,0,1,.24,2.38,10.39,10.39,0,0,1-.24,2.38h-4.76a10.39,10.39,0,0,1-.24-2.38,10,10,0,0,1,.24-2.38,10.39,10.39,0,0,1-.24-2.38,10,10,0,0,1,.24-2.38,10.3,10.3,0,0,1-.24-2.37,9.92,9.92,0,0,1,.24-2.38,10.45,10.45,0,0,1-.24-2.38,10,10,0,0,1,.24-2.38,10.39,10.39,0,0,1-.24-2.38,10,10,0,0,1,.24-2.38h4.16a10,10,0,0,1,.24,2.38A10.39,10.39,0,0,1,387.1,164.39Zm15.11,7.14a10.3,10.3,0,0,1-.24,2.37,10,10,0,0,1,.24,2.38,10.39,10.39,0,0,1-.24,2.38,10,10,0,0,1,.24,2.38,10.39,10.39,0,0,1-.24,2.38h-4.76A11,11,0,0,1,397,181a10.58,10.58,0,0,1,.23-2.38,11,11,0,0,1-.23-2.38,10.58,10.58,0,0,1,.23-2.38,10.94,10.94,0,0,1-.23-2.37,10.52,10.52,0,0,1,.23-2.38,11.1,11.1,0,0,1-.23-2.38,10.58,10.58,0,0,1,.23-2.38h-7.73a10.43,10.43,0,0,1-.23-2.38,10,10,0,0,1,.23-2.38H399a10.58,10.58,0,0,1,.23,2.38,11,11,0,0,1-.23,2.38h3a10,10,0,0,1,.24,2.38,10.45,10.45,0,0,1-.24,2.38A9.92,9.92,0,0,1,402.21,171.53Z"/><path class="cls-3" d="M425.75,169.15a9.92,9.92,0,0,1,.24,2.38,10.3,10.3,0,0,1-.24,2.37H413.27a10,10,0,0,1,.24,2.38,10.39,10.39,0,0,1-.24,2.38h10.11a10.58,10.58,0,0,1,.23,2.38,11,11,0,0,1-.23,2.38h-11.9a11,11,0,0,1-.23-2.38,10.58,10.58,0,0,1,.23-2.38h-3a10.39,10.39,0,0,1-.24-2.38,10,10,0,0,1,.24-2.38h-1.78a10.3,10.3,0,0,1-.24-2.37,9.92,9.92,0,0,1,.24-2.38h1.78a10.45,10.45,0,0,1-.24-2.38,10,10,0,0,1,.24-2.38h3a11,11,0,0,1-.23-2.38,10.58,10.58,0,0,1,.23-2.38h11.9a10.58,10.58,0,0,1,.23,2.38,11,11,0,0,1-.23,2.38h2.37a10,10,0,0,1,.24,2.38A10.45,10.45,0,0,1,425.75,169.15Zm-5-2.38a10,10,0,0,1,.24-2.38h-7.73a10,10,0,0,1,.24,2.38,10.45,10.45,0,0,1-.24,2.38H421A10.45,10.45,0,0,1,420.76,166.77Z"/><path class="cls-3" d="M448.35,178.66H446a10,10,0,0,1,.24,2.38,10.39,10.39,0,0,1-.24,2.38H432.89a10.39,10.39,0,0,1-.24-2.38,10,10,0,0,1,.24-2.38h10.7a11,11,0,0,1-.23-2.38,10.58,10.58,0,0,1,.23-2.38h-9.51a10.3,10.3,0,0,1-.24-2.37,9.92,9.92,0,0,1,.24-2.38H431.7a10.45,10.45,0,0,1-.24-2.38,10,10,0,0,1,.24-2.38h2.38a10.39,10.39,0,0,1-.24-2.38,10,10,0,0,1,.24-2.38h13.08a10,10,0,0,1,.24,2.38,10.39,10.39,0,0,1-.24,2.38h-10.7a10,10,0,0,1,.24,2.38,10.45,10.45,0,0,1-.24,2.38H446a9.92,9.92,0,0,1,.24,2.38,10.3,10.3,0,0,1-.24,2.37h2.38a10,10,0,0,1,.24,2.38A10.39,10.39,0,0,1,448.35,178.66Z"/><path class="cls-3" d="M497.11,173.9h-2.38a10,10,0,0,1,.24,2.38,10.39,10.39,0,0,1-.24,2.38h-2.38a10,10,0,0,1,.24,2.38,10.39,10.39,0,0,1-.24,2.38h-9.51a9.92,9.92,0,0,1,.24,2.38,10.45,10.45,0,0,1-.24,2.38,9.86,9.86,0,0,1,.24,2.38,10.3,10.3,0,0,1-.24,2.37h-4.76a10.3,10.3,0,0,1-.24-2.37,9.86,9.86,0,0,1,.24-2.38,10.45,10.45,0,0,1-.24-2.38,9.92,9.92,0,0,1,.24-2.38,10.39,10.39,0,0,1-.24-2.38,10,10,0,0,1,.24-2.38,10.39,10.39,0,0,1-.24-2.38,10,10,0,0,1,.24-2.38,10.3,10.3,0,0,1-.24-2.37,9.92,9.92,0,0,1,.24-2.38,10.45,10.45,0,0,1-.24-2.38,10,10,0,0,1,.24-2.38,10.39,10.39,0,0,1-.24-2.38,10,10,0,0,1,.24-2.38h4.76a10,10,0,0,1,.24,2.38,10.39,10.39,0,0,1-.24,2.38h2.38a10.58,10.58,0,0,1,.23,2.38,11.1,11.1,0,0,1-.23,2.38h-2.38a9.92,9.92,0,0,1,.24,2.38,10.3,10.3,0,0,1-.24,2.37,10,10,0,0,1,.24,2.38,10.39,10.39,0,0,1-.24,2.38H490a11,11,0,0,1-.23-2.38,10.58,10.58,0,0,1,.23-2.38h2.38a10.3,10.3,0,0,1-.24-2.37,9.92,9.92,0,0,1,.24-2.38H490a11.1,11.1,0,0,1-.23-2.38,10.58,10.58,0,0,1,.23-2.38h-4.75A10.39,10.39,0,0,1,485,162a10,10,0,0,1,.24-2.38h7.13a10,10,0,0,1,.24,2.38,10.39,10.39,0,0,1-.24,2.38h2.38a10,10,0,0,1,.24,2.38,10.45,10.45,0,0,1-.24,2.38h2.38a9.92,9.92,0,0,1,.24,2.38A10.3,10.3,0,0,1,497.11,173.9Z"/><path class="cls-3" d="M520.89,169.15a9.92,9.92,0,0,1,.24,2.38,10.3,10.3,0,0,1-.24,2.37H508.41a10,10,0,0,1,.24,2.38,10.39,10.39,0,0,1-.24,2.38h10.11a10.58,10.58,0,0,1,.23,2.38,11,11,0,0,1-.23,2.38h-11.9a10.43,10.43,0,0,1-.23-2.38,10,10,0,0,1,.23-2.38h-3a10.39,10.39,0,0,1-.24-2.38,10,10,0,0,1,.24-2.38h-1.78a10.3,10.3,0,0,1-.24-2.37,9.92,9.92,0,0,1,.24-2.38h1.78a10.45,10.45,0,0,1-.24-2.38,10,10,0,0,1,.24-2.38h3a10.43,10.43,0,0,1-.23-2.38,10,10,0,0,1,.23-2.38h11.9a10.58,10.58,0,0,1,.23,2.38,11,11,0,0,1-.23,2.38h2.37a10,10,0,0,1,.24,2.38A10.45,10.45,0,0,1,520.89,169.15Zm-5-2.38a10,10,0,0,1,.24-2.38h-7.73a10,10,0,0,1,.24,2.38,10.45,10.45,0,0,1-.24,2.38h7.73A10.45,10.45,0,0,1,515.9,166.77Z"/><path class="cls-3" d="M529.81,164.39h2.38a10,10,0,0,1,.24,2.38,10.45,10.45,0,0,1-.24,2.38h-1.78a9.92,9.92,0,0,1,.24,2.38,10.3,10.3,0,0,1-.24,2.37,10,10,0,0,1,.24,2.38,10.39,10.39,0,0,1-.24,2.38,10,10,0,0,1,.24,2.38,10.39,10.39,0,0,1-.24,2.38h-4.76a10.39,10.39,0,0,1-.24-2.38,10,10,0,0,1,.24-2.38,10.39,10.39,0,0,1-.24-2.38,10,10,0,0,1,.24-2.38,10.3,10.3,0,0,1-.24-2.37,9.92,9.92,0,0,1,.24-2.38,10.45,10.45,0,0,1-.24-2.38,10,10,0,0,1,.24-2.38,10.39,10.39,0,0,1-.24-2.38,10,10,0,0,1,.24-2.38h4.16a10,10,0,0,1,.24,2.38A10.39,10.39,0,0,1,529.81,164.39Zm15.11,7.14a10.3,10.3,0,0,1-.24,2.37,10,10,0,0,1,.24,2.38,10.39,10.39,0,0,1-.24,2.38,10,10,0,0,1,.24,2.38,10.39,10.39,0,0,1-.24,2.38h-4.76a10.39,10.39,0,0,1-.24-2.38,10,10,0,0,1,.24-2.38,10.39,10.39,0,0,1-.24-2.38,10,10,0,0,1,.24-2.38,10.3,10.3,0,0,1-.24-2.37,9.92,9.92,0,0,1,.24-2.38,10.45,10.45,0,0,1-.24-2.38,10,10,0,0,1,.24-2.38h-7.73A10.43,10.43,0,0,1,532,162a10,10,0,0,1,.23-2.38h9.52a10.58,10.58,0,0,1,.23,2.38,11,11,0,0,1-.23,2.38h3a10,10,0,0,1,.24,2.38,10.45,10.45,0,0,1-.24,2.38A9.92,9.92,0,0,1,544.92,171.53Z"/><path class="cls-3" d="M568.7,166.77a11.1,11.1,0,0,1-.23,2.38,10.52,10.52,0,0,1,.23,2.38,10.94,10.94,0,0,1-.23,2.37,10.58,10.58,0,0,1,.23,2.38,11,11,0,0,1-.23,2.38,10.58,10.58,0,0,1,.23,2.38,11,11,0,0,1-.23,2.38h-2.38a9.92,9.92,0,0,1,.24,2.38,10.45,10.45,0,0,1-.24,2.38h-2.38a9.86,9.86,0,0,1,.24,2.38,10.3,10.3,0,0,1-.24,2.37H554.2a10.3,10.3,0,0,1-.24-2.37,9.86,9.86,0,0,1,.24-2.38h7.13a10.45,10.45,0,0,1-.24-2.38,9.92,9.92,0,0,1,.24-2.38h2.38a10.39,10.39,0,0,1-.24-2.38,10,10,0,0,1,.24-2.38h-2.38a10.39,10.39,0,0,1-.24-2.38,10,10,0,0,1,.24-2.38h2.38a10.3,10.3,0,0,1-.24-2.37,9.92,9.92,0,0,1,.24-2.38,10.45,10.45,0,0,1-.24-2.38,10,10,0,0,1,.24-2.38H556a10,10,0,0,1,.24,2.38,10.45,10.45,0,0,1-.24,2.38H554.2a10.52,10.52,0,0,1,.23,2.38,10.94,10.94,0,0,1-.23,2.37H556a10,10,0,0,1,.24,2.38,10.39,10.39,0,0,1-.24,2.38h5.35a10,10,0,0,1,.24,2.38,10.39,10.39,0,0,1-.24,2.38H554.2A10.39,10.39,0,0,1,554,181a10,10,0,0,1,.24-2.38h-3a10.39,10.39,0,0,1-.24-2.38,10,10,0,0,1,.24-2.38h-1.78a10.3,10.3,0,0,1-.24-2.37,9.92,9.92,0,0,1,.24-2.38h1.78a10.45,10.45,0,0,1-.24-2.38,10,10,0,0,1,.24-2.38h3A10.39,10.39,0,0,1,554,162a10,10,0,0,1,.24-2.38h14.27a10.58,10.58,0,0,1,.23,2.38,11,11,0,0,1-.23,2.38A10.58,10.58,0,0,1,568.7,166.77Z"/><path class="cls-3" d="M592.25,169.15a9.92,9.92,0,0,1,.24,2.38,10.3,10.3,0,0,1-.24,2.37H579.76a10,10,0,0,1,.24,2.38,10.39,10.39,0,0,1-.24,2.38h10.11a10,10,0,0,1,.24,2.38,10.39,10.39,0,0,1-.24,2.38H578a10.39,10.39,0,0,1-.24-2.38,10,10,0,0,1,.24-2.38h-3a10.39,10.39,0,0,1-.24-2.38,10,10,0,0,1,.24-2.38h-1.79a10.3,10.3,0,0,1-.24-2.37,9.92,9.92,0,0,1,.24-2.38H575a10.45,10.45,0,0,1-.24-2.38,10,10,0,0,1,.24-2.38h3a10.39,10.39,0,0,1-.24-2.38,10,10,0,0,1,.24-2.38h11.89a10,10,0,0,1,.24,2.38,10.39,10.39,0,0,1-.24,2.38h2.38a10,10,0,0,1,.24,2.38A10.45,10.45,0,0,1,592.25,169.15Zm-5-2.38a10.58,10.58,0,0,1,.23-2.38h-7.73a10,10,0,0,1,.24,2.38,10.45,10.45,0,0,1-.24,2.38h7.73A11.1,11.1,0,0,1,587.26,166.77Z"/><path class="cls-3" d="M639.82,173.9h-2.38a10,10,0,0,1,.24,2.38,10.39,10.39,0,0,1-.24,2.38h-2.38a10,10,0,0,1,.24,2.38,10.39,10.39,0,0,1-.24,2.38h-9.51a9.92,9.92,0,0,1,.24,2.38,10.45,10.45,0,0,1-.24,2.38,9.86,9.86,0,0,1,.24,2.38,10.3,10.3,0,0,1-.24,2.37h-4.76a10.3,10.3,0,0,1-.24-2.37,9.86,9.86,0,0,1,.24-2.38,10.45,10.45,0,0,1-.24-2.38,9.92,9.92,0,0,1,.24-2.38,10.39,10.39,0,0,1-.24-2.38,10,10,0,0,1,.24-2.38,10.39,10.39,0,0,1-.24-2.38,10,10,0,0,1,.24-2.38,10.3,10.3,0,0,1-.24-2.37,9.92,9.92,0,0,1,.24-2.38,10.45,10.45,0,0,1-.24-2.38,10,10,0,0,1,.24-2.38,10.39,10.39,0,0,1-.24-2.38,10,10,0,0,1,.24-2.38h4.76a10,10,0,0,1,.24,2.38,10.39,10.39,0,0,1-.24,2.38h2.38a10,10,0,0,1,.24,2.38,10.45,10.45,0,0,1-.24,2.38h-2.38a9.92,9.92,0,0,1,.24,2.38,10.3,10.3,0,0,1-.24,2.37,10,10,0,0,1,.24,2.38,10.39,10.39,0,0,1-.24,2.38h7.14a10.39,10.39,0,0,1-.24-2.38,10,10,0,0,1,.24-2.38h2.37a10.94,10.94,0,0,1-.23-2.37,10.52,10.52,0,0,1,.23-2.38h-2.37a10.45,10.45,0,0,1-.24-2.38,10,10,0,0,1,.24-2.38h-4.76a10.39,10.39,0,0,1-.24-2.38,10,10,0,0,1,.24-2.38h7.13a10,10,0,0,1,.24,2.38,10.39,10.39,0,0,1-.24,2.38h2.38a10,10,0,0,1,.24,2.38,10.45,10.45,0,0,1-.24,2.38h2.38a9.92,9.92,0,0,1,.24,2.38A10.3,10.3,0,0,1,639.82,173.9Z"/><path class="cls-3" d="M663.84,181a11,11,0,0,1-.23,2.38h-4.76a10.39,10.39,0,0,1-.24-2.38,10,10,0,0,1,.24-2.38h-2.38a10.39,10.39,0,0,1-.24-2.38,10,10,0,0,1,.24-2.38h-7.13a10.58,10.58,0,0,1,.23,2.38,11,11,0,0,1-.23,2.38h7.13a10,10,0,0,1,.24,2.38,10.39,10.39,0,0,1-.24,2.38H647a10.39,10.39,0,0,1-.24-2.38,10,10,0,0,1,.24-2.38h-2.38a10.39,10.39,0,0,1-.24-2.38,10,10,0,0,1,.24-2.38H647a10.3,10.3,0,0,1-.24-2.37,9.92,9.92,0,0,1,.24-2.38h9.51a10.45,10.45,0,0,1-.24-2.38,10,10,0,0,1,.24-2.38h-8.32a10.39,10.39,0,0,1-.24-2.38,10,10,0,0,1,.24-2.38h10.7a10,10,0,0,1,.24,2.38,10.39,10.39,0,0,1-.24,2.38h2.38a10,10,0,0,1,.24,2.38,10.45,10.45,0,0,1-.24,2.38,9.92,9.92,0,0,1,.24,2.38,10.3,10.3,0,0,1-.24,2.37,10,10,0,0,1,.24,2.38,10.39,10.39,0,0,1-.24,2.38h2.38A10.58,10.58,0,0,1,663.84,181Zm-3.21-30.92h-1.78a9.92,9.92,0,0,1,.24,2.38,10.45,10.45,0,0,1-.24,2.38h-9.51a10.45,10.45,0,0,1-.24-2.38,9.92,9.92,0,0,1,.24-2.38h-1.79a10.39,10.39,0,0,1-.24-2.38,10,10,0,0,1,.24-2.38h1.79a10.33,10.33,0,0,1-.24-2.38,10,10,0,0,1,.24-2.38h9.51a10,10,0,0,1,.24,2.38,10.33,10.33,0,0,1-.24,2.38h1.78a10,10,0,0,1,.24,2.38A10.39,10.39,0,0,1,660.63,150.12Zm-3.57,0a11,11,0,0,1-.23-2.38,10.58,10.58,0,0,1,.23-2.38h-5.94a10,10,0,0,1,.24,2.38,10.39,10.39,0,0,1-.24,2.38Z"/><path class="cls-3" d="M164.12,245.26h-2.38a9.92,9.92,0,0,1,.24,2.38,10.45,10.45,0,0,1-.24,2.38h-2.38a9.86,9.86,0,0,1,.24,2.38,10.3,10.3,0,0,1-.24,2.37h-9.51a10,10,0,0,1,.24,2.38,10.39,10.39,0,0,1-.24,2.38,9.92,9.92,0,0,1,.24,2.38,10.45,10.45,0,0,1-.24,2.38h-4.76a10.45,10.45,0,0,1-.24-2.38,9.92,9.92,0,0,1,.24-2.38,10.39,10.39,0,0,1-.24-2.38,10,10,0,0,1,.24-2.38,10.3,10.3,0,0,1-.24-2.37,9.86,9.86,0,0,1,.24-2.38,10.45,10.45,0,0,1-.24-2.38,9.92,9.92,0,0,1,.24-2.38,10.39,10.39,0,0,1-.24-2.38,10,10,0,0,1,.24-2.38,10.3,10.3,0,0,1-.24-2.37,9.86,9.86,0,0,1,.24-2.38,10.45,10.45,0,0,1-.24-2.38,9.86,9.86,0,0,1,.24-2.38h4.76a9.86,9.86,0,0,1,.24,2.38,10.45,10.45,0,0,1-.24,2.38h2.38a9.86,9.86,0,0,1,.24,2.38,10.3,10.3,0,0,1-.24,2.37h-2.38a10,10,0,0,1,.24,2.38,10.39,10.39,0,0,1-.24,2.38,9.92,9.92,0,0,1,.24,2.38,10.45,10.45,0,0,1-.24,2.38H157a10.45,10.45,0,0,1-.24-2.38,9.92,9.92,0,0,1,.24-2.38h2.37a11,11,0,0,1-.23-2.38,10.58,10.58,0,0,1,.23-2.38H157a10.3,10.3,0,0,1-.24-2.37,9.86,9.86,0,0,1,.24-2.38h-4.76a10.45,10.45,0,0,1-.24-2.38,9.86,9.86,0,0,1,.24-2.38h7.13a9.86,9.86,0,0,1,.24,2.38,10.45,10.45,0,0,1-.24,2.38h2.38a9.86,9.86,0,0,1,.24,2.38,10.3,10.3,0,0,1-.24,2.37h2.38a10,10,0,0,1,.24,2.38A10.39,10.39,0,0,1,164.12,245.26Z"/><path class="cls-3" d="M187.91,240.5a10.58,10.58,0,0,1,.23,2.38,11,11,0,0,1-.23,2.38H175.42a9.92,9.92,0,0,1,.24,2.38,10.45,10.45,0,0,1-.24,2.38h10.11a9.86,9.86,0,0,1,.24,2.38,10.3,10.3,0,0,1-.24,2.37H173.64a10.3,10.3,0,0,1-.24-2.37,9.86,9.86,0,0,1,.24-2.38h-3a10.45,10.45,0,0,1-.24-2.38,9.92,9.92,0,0,1,.24-2.38h-1.78a10.39,10.39,0,0,1-.24-2.38,10,10,0,0,1,.24-2.38h1.78a10.3,10.3,0,0,1-.24-2.37,9.86,9.86,0,0,1,.24-2.38h3a10.45,10.45,0,0,1-.24-2.38,9.86,9.86,0,0,1,.24-2.38h11.89a9.86,9.86,0,0,1,.24,2.38,10.45,10.45,0,0,1-.24,2.38h2.38a10.46,10.46,0,0,1,.23,2.38A10.94,10.94,0,0,1,187.91,240.5Zm-5-2.37a9.86,9.86,0,0,1,.24-2.38h-7.73a9.86,9.86,0,0,1,.24,2.38,10.3,10.3,0,0,1-.24,2.37h7.73A10.3,10.3,0,0,1,182.91,238.13Z"/><path class="cls-3" d="M211.93,238.13a10.3,10.3,0,0,1-.24,2.37h-4.76a10.94,10.94,0,0,1-.23-2.37,10.46,10.46,0,0,1,.23-2.38h-4.16a9.86,9.86,0,0,1,.24,2.38,10.3,10.3,0,0,1-.24,2.37H201a10,10,0,0,1,.24,2.38,10.39,10.39,0,0,1-.24,2.38,9.92,9.92,0,0,1,.24,2.38A10.45,10.45,0,0,1,201,250h3.57a10.46,10.46,0,0,1,.23,2.38,10.94,10.94,0,0,1-.23,2.37h-11.9a10.3,10.3,0,0,1-.24-2.37,9.86,9.86,0,0,1,.24-2.38h3.57a10.45,10.45,0,0,1-.24-2.38,9.92,9.92,0,0,1,.24-2.38,10.39,10.39,0,0,1-.24-2.38,10,10,0,0,1,.24-2.38,10.3,10.3,0,0,1-.24-2.37,9.86,9.86,0,0,1,.24-2.38h-3.57a10.45,10.45,0,0,1-.24-2.38,9.86,9.86,0,0,1,.24-2.38h6a9.86,9.86,0,0,1,.24,2.38,10.45,10.45,0,0,1-.24,2.38H201a10.45,10.45,0,0,1-.24-2.38A9.86,9.86,0,0,1,201,231h8.92a10.46,10.46,0,0,1,.23,2.38,11.1,11.1,0,0,1-.23,2.38h1.78A9.86,9.86,0,0,1,211.93,238.13Z"/><path class="cls-3" d="M234.29,250h-2.38a9.86,9.86,0,0,1,.24,2.38,10.3,10.3,0,0,1-.24,2.37H218.83a10.3,10.3,0,0,1-.24-2.37,9.86,9.86,0,0,1,.24-2.38h10.7a10.45,10.45,0,0,1-.24-2.38,9.92,9.92,0,0,1,.24-2.38H220a10.39,10.39,0,0,1-.24-2.38,10,10,0,0,1,.24-2.38h-2.38a10.3,10.3,0,0,1-.24-2.37,9.86,9.86,0,0,1,.24-2.38H220a10.45,10.45,0,0,1-.24-2.38A9.86,9.86,0,0,1,220,231H233.1a9.86,9.86,0,0,1,.24,2.38,10.45,10.45,0,0,1-.24,2.38H222.39a9.86,9.86,0,0,1,.24,2.38,10.3,10.3,0,0,1-.24,2.37h9.52a10,10,0,0,1,.24,2.38,10.39,10.39,0,0,1-.24,2.38h2.38a10,10,0,0,1,.23,2.38A10.49,10.49,0,0,1,234.29,250Z"/><path class="cls-3" d="M259.26,245.26h-1.78a10.52,10.52,0,0,1,.23,2.38,11.1,11.1,0,0,1-.23,2.38h-3a9.86,9.86,0,0,1,.24,2.38,10.3,10.3,0,0,1-.24,2.37H245a10.3,10.3,0,0,1-.24-2.37A9.86,9.86,0,0,1,245,250h-3a10.45,10.45,0,0,1-.24-2.38,9.92,9.92,0,0,1,.24-2.38h-1.79a10.39,10.39,0,0,1-.24-2.38,10,10,0,0,1,.24-2.38H242a10.3,10.3,0,0,1-.24-2.37,9.86,9.86,0,0,1,.24-2.38h3a10.45,10.45,0,0,1-.24-2.38A9.86,9.86,0,0,1,245,231h9.51a9.86,9.86,0,0,1,.24,2.38,10.45,10.45,0,0,1-.24,2.38h3a10.46,10.46,0,0,1,.23,2.38,10.94,10.94,0,0,1-.23,2.37h1.78a10,10,0,0,1,.24,2.38A10.39,10.39,0,0,1,259.26,245.26Zm-4.76,0a11,11,0,0,1-.23-2.38,10.58,10.58,0,0,1,.23-2.38h-1.78a10.3,10.3,0,0,1-.24-2.37,9.86,9.86,0,0,1,.24-2.38h-5.95a9.86,9.86,0,0,1,.24,2.38,10.3,10.3,0,0,1-.24,2.37H245a10,10,0,0,1,.24,2.38,10.39,10.39,0,0,1-.24,2.38h1.78a9.92,9.92,0,0,1,.24,2.38,10.45,10.45,0,0,1-.24,2.38h5.95a10.45,10.45,0,0,1-.24-2.38,9.92,9.92,0,0,1,.24-2.38Z"/><path class="cls-3" d="M268.18,235.75h2.38a9.86,9.86,0,0,1,.24,2.38,10.3,10.3,0,0,1-.24,2.37h-1.78a10.58,10.58,0,0,1,.23,2.38,11,11,0,0,1-.23,2.38,10.52,10.52,0,0,1,.23,2.38,11.1,11.1,0,0,1-.23,2.38,10.46,10.46,0,0,1,.23,2.38,10.94,10.94,0,0,1-.23,2.37H264a10.3,10.3,0,0,1-.24-2.37A9.86,9.86,0,0,1,264,250a10.45,10.45,0,0,1-.24-2.38,9.92,9.92,0,0,1,.24-2.38,10.39,10.39,0,0,1-.24-2.38,10,10,0,0,1,.24-2.38,10.3,10.3,0,0,1-.24-2.37,9.86,9.86,0,0,1,.24-2.38,10.45,10.45,0,0,1-.24-2.38A9.86,9.86,0,0,1,264,231h4.16a9.86,9.86,0,0,1,.24,2.38A10.45,10.45,0,0,1,268.18,235.75Zm15.1,7.13a11,11,0,0,1-.23,2.38,10.52,10.52,0,0,1,.23,2.38,11.1,11.1,0,0,1-.23,2.38,10.46,10.46,0,0,1,.23,2.38,10.94,10.94,0,0,1-.23,2.37h-4.76a10.3,10.3,0,0,1-.24-2.37,9.86,9.86,0,0,1,.24-2.38,10.45,10.45,0,0,1-.24-2.38,9.92,9.92,0,0,1,.24-2.38,10.39,10.39,0,0,1-.24-2.38,10,10,0,0,1,.24-2.38,10.3,10.3,0,0,1-.24-2.37,9.86,9.86,0,0,1,.24-2.38h-7.73a10.45,10.45,0,0,1-.24-2.38,9.86,9.86,0,0,1,.24-2.38h9.51a9.86,9.86,0,0,1,.24,2.38,10.45,10.45,0,0,1-.24,2.38h3a10.46,10.46,0,0,1,.23,2.38,10.94,10.94,0,0,1-.23,2.37A10.58,10.58,0,0,1,283.28,242.88Z"/><path class="cls-3" d="M304.69,252.4a10.3,10.3,0,0,1-.24,2.37H290.18a10.3,10.3,0,0,1-.24-2.37,9.86,9.86,0,0,1,.24-2.38h4.76a10.45,10.45,0,0,1-.24-2.38,9.92,9.92,0,0,1,.24-2.38,10.39,10.39,0,0,1-.24-2.38,10,10,0,0,1,.24-2.38,10.3,10.3,0,0,1-.24-2.37,9.86,9.86,0,0,1,.24-2.38,10.45,10.45,0,0,1-.24-2.38,9.86,9.86,0,0,1,.24-2.38,10.39,10.39,0,0,1-.24-2.38,10,10,0,0,1,.24-2.38h-3.57a10.39,10.39,0,0,1-.24-2.38,10,10,0,0,1,.24-2.38h8.33a10.58,10.58,0,0,1,.23,2.38,11,11,0,0,1-.23,2.38,10.58,10.58,0,0,1,.23,2.38,11,11,0,0,1-.23,2.38,10.46,10.46,0,0,1,.23,2.38,11.1,11.1,0,0,1-.23,2.38,10.46,10.46,0,0,1,.23,2.38,10.94,10.94,0,0,1-.23,2.37,10.58,10.58,0,0,1,.23,2.38,11,11,0,0,1-.23,2.38,10.52,10.52,0,0,1,.23,2.38,11.1,11.1,0,0,1-.23,2.38h4.75A9.86,9.86,0,0,1,304.69,252.4Z"/><path class="cls-3" d="M328.47,252.4a10.34,10.34,0,0,1-.23,2.37H314a10.3,10.3,0,0,1-.24-2.37A9.86,9.86,0,0,1,314,250h4.75a10.45,10.45,0,0,1-.24-2.38,9.92,9.92,0,0,1,.24-2.38,10.39,10.39,0,0,1-.24-2.38,10,10,0,0,1,.24-2.38,10.3,10.3,0,0,1-.24-2.37,9.86,9.86,0,0,1,.24-2.38h-3.56a10.45,10.45,0,0,1-.24-2.38,9.86,9.86,0,0,1,.24-2.38h8.32a9.86,9.86,0,0,1,.24,2.38,10.45,10.45,0,0,1-.24,2.38,9.86,9.86,0,0,1,.24,2.38,10.3,10.3,0,0,1-.24,2.37,10,10,0,0,1,.24,2.38,10.39,10.39,0,0,1-.24,2.38,9.92,9.92,0,0,1,.24,2.38,10.45,10.45,0,0,1-.24,2.38h4.76A9.92,9.92,0,0,1,328.47,252.4Zm-9.75-26.17a10.39,10.39,0,0,1-.24-2.38,10,10,0,0,1,.24-2.38h4.76a10,10,0,0,1,.24,2.38,10.39,10.39,0,0,1-.24,2.38Z"/><path class="cls-3" d="M354.64,238.13a10.3,10.3,0,0,1-.24,2.37,10,10,0,0,1,.24,2.38,10.39,10.39,0,0,1-.24,2.38,9.92,9.92,0,0,1,.24,2.38,10.45,10.45,0,0,1-.24,2.38,9.86,9.86,0,0,1,.24,2.38,10.3,10.3,0,0,1-.24,2.37H352a10,10,0,0,1,.24,2.38,10.39,10.39,0,0,1-.24,2.38h-2.38a9.92,9.92,0,0,1,.24,2.38,10.45,10.45,0,0,1-.24,2.38h-9.51a10.45,10.45,0,0,1-.24-2.38,9.92,9.92,0,0,1,.24-2.38h7.14a10.39,10.39,0,0,1-.24-2.38,10,10,0,0,1,.24-2.38h2.37a10.94,10.94,0,0,1-.23-2.37,10.46,10.46,0,0,1,.23-2.38h-2.37a10.45,10.45,0,0,1-.24-2.38,9.92,9.92,0,0,1,.24-2.38h2.37a11,11,0,0,1-.23-2.38,10.58,10.58,0,0,1,.23-2.38,10.94,10.94,0,0,1-.23-2.37,10.46,10.46,0,0,1,.23-2.38h-7.73a9.86,9.86,0,0,1,.24,2.38,10.3,10.3,0,0,1-.24,2.37h-1.78a10,10,0,0,1,.24,2.38,10.39,10.39,0,0,1-.24,2.38h1.78a9.92,9.92,0,0,1,.24,2.38,10.45,10.45,0,0,1-.24,2.38h5.36a10.46,10.46,0,0,1,.23,2.38,10.94,10.94,0,0,1-.23,2.37h-7.14a10.3,10.3,0,0,1-.24-2.37,9.86,9.86,0,0,1,.24-2.38h-3a10.45,10.45,0,0,1-.24-2.38,9.92,9.92,0,0,1,.24-2.38h-1.79a10.39,10.39,0,0,1-.24-2.38,10,10,0,0,1,.24-2.38h1.79a10.3,10.3,0,0,1-.24-2.37,9.86,9.86,0,0,1,.24-2.38h3a10.45,10.45,0,0,1-.24-2.38,9.86,9.86,0,0,1,.24-2.38H354.4a9.86,9.86,0,0,1,.24,2.38,10.45,10.45,0,0,1-.24,2.38A9.86,9.86,0,0,1,354.64,238.13Z"/><path class="cls-3" d="M378.18,240.5a10,10,0,0,1,.24,2.38,10.39,10.39,0,0,1-.24,2.38H365.7a9.92,9.92,0,0,1,.24,2.38,10.45,10.45,0,0,1-.24,2.38h10.11a9.92,9.92,0,0,1,.23,2.38,10.34,10.34,0,0,1-.23,2.37h-11.9a10.94,10.94,0,0,1-.23-2.37,10.46,10.46,0,0,1,.23-2.38h-3a10.45,10.45,0,0,1-.24-2.38,9.92,9.92,0,0,1,.24-2.38h-1.78a10.39,10.39,0,0,1-.24-2.38,10,10,0,0,1,.24-2.38h1.78a10.3,10.3,0,0,1-.24-2.37,9.86,9.86,0,0,1,.24-2.38h3a11.1,11.1,0,0,1-.23-2.38,10.46,10.46,0,0,1,.23-2.38h11.9a9.92,9.92,0,0,1,.23,2.38,10.49,10.49,0,0,1-.23,2.38h2.37a9.86,9.86,0,0,1,.24,2.38A10.3,10.3,0,0,1,378.18,240.5Zm-5-2.37a9.86,9.86,0,0,1,.24-2.38H365.7a9.86,9.86,0,0,1,.24,2.38,10.3,10.3,0,0,1-.24,2.37h7.73A10.3,10.3,0,0,1,373.19,238.13Z"/><path class="cls-3" d="M423.38,231a10.46,10.46,0,0,1,.23,2.38,11.1,11.1,0,0,1-.23,2.38h-7.14a9.86,9.86,0,0,1,.24,2.38,10.3,10.3,0,0,1-.24,2.37,10,10,0,0,1,.24,2.38,10.39,10.39,0,0,1-.24,2.38,9.92,9.92,0,0,1,.24,2.38,10.45,10.45,0,0,1-.24,2.38H421a9.86,9.86,0,0,1,.24,2.38,10.3,10.3,0,0,1-.24,2.37H409.11a10.3,10.3,0,0,1-.24-2.37,9.86,9.86,0,0,1,.24-2.38h2.37a11.1,11.1,0,0,1-.23-2.38,10.52,10.52,0,0,1,.23-2.38,11,11,0,0,1-.23-2.38,10.58,10.58,0,0,1,.23-2.38,10.94,10.94,0,0,1-.23-2.37,10.46,10.46,0,0,1,.23-2.38h-2.37a10.45,10.45,0,0,1-.24-2.38,9.86,9.86,0,0,1,.24-2.38h2.37a11,11,0,0,1-.23-2.38,10.58,10.58,0,0,1,.23-2.38h2.38a10.39,10.39,0,0,1-.24-2.38,10,10,0,0,1,.24-2.38h9.52a10.58,10.58,0,0,1,.23,2.38,11,11,0,0,1-.23,2.38h-7.14a10,10,0,0,1,.24,2.38,10.39,10.39,0,0,1-.24,2.38Z"/><path class="cls-3" d="M449.54,245.26h-1.78a10.52,10.52,0,0,1,.23,2.38,11.1,11.1,0,0,1-.23,2.38h-3a9.86,9.86,0,0,1,.24,2.38,10.3,10.3,0,0,1-.24,2.37h-9.51a10.3,10.3,0,0,1-.24-2.37,9.86,9.86,0,0,1,.24-2.38h-3a11.1,11.1,0,0,1-.23-2.38,10.52,10.52,0,0,1,.23-2.38h-1.78a10.39,10.39,0,0,1-.24-2.38,10,10,0,0,1,.24-2.38h1.78a10.94,10.94,0,0,1-.23-2.37,10.46,10.46,0,0,1,.23-2.38h3a10.45,10.45,0,0,1-.24-2.38,9.86,9.86,0,0,1,.24-2.38h9.51a9.86,9.86,0,0,1,.24,2.38,10.45,10.45,0,0,1-.24,2.38h3a10.46,10.46,0,0,1,.23,2.38,10.94,10.94,0,0,1-.23,2.37h1.78a10,10,0,0,1,.24,2.38A10.39,10.39,0,0,1,449.54,245.26Zm-4.76,0a10.43,10.43,0,0,1-.23-2.38,10,10,0,0,1,.23-2.38H443a10.3,10.3,0,0,1-.24-2.37,9.86,9.86,0,0,1,.24-2.38h-5.95a9.86,9.86,0,0,1,.24,2.38,10.3,10.3,0,0,1-.24,2.37h-1.78a10,10,0,0,1,.24,2.38,10.39,10.39,0,0,1-.24,2.38h1.78a9.92,9.92,0,0,1,.24,2.38,10.45,10.45,0,0,1-.24,2.38H443a10.45,10.45,0,0,1-.24-2.38,9.92,9.92,0,0,1,.24-2.38Z"/><path class="cls-3" d="M473.56,238.13a10.3,10.3,0,0,1-.24,2.37h-4.75a10.3,10.3,0,0,1-.24-2.37,9.86,9.86,0,0,1,.24-2.38h-4.16a10.46,10.46,0,0,1,.23,2.38,10.94,10.94,0,0,1-.23,2.37h-1.79a10,10,0,0,1,.24,2.38,10.39,10.39,0,0,1-.24,2.38,9.92,9.92,0,0,1,.24,2.38,10.45,10.45,0,0,1-.24,2.38h3.57a9.86,9.86,0,0,1,.24,2.38,10.3,10.3,0,0,1-.24,2.37H454.3a10.3,10.3,0,0,1-.24-2.37,9.86,9.86,0,0,1,.24-2.38h3.56a11.1,11.1,0,0,1-.23-2.38,10.52,10.52,0,0,1,.23-2.38,11,11,0,0,1-.23-2.38,10.58,10.58,0,0,1,.23-2.38,10.94,10.94,0,0,1-.23-2.37,10.46,10.46,0,0,1,.23-2.38H454.3a10.45,10.45,0,0,1-.24-2.38,9.86,9.86,0,0,1,.24-2.38h5.94a9.86,9.86,0,0,1,.24,2.38,10.45,10.45,0,0,1-.24,2.38h2.38a10.45,10.45,0,0,1-.24-2.38,9.86,9.86,0,0,1,.24-2.38h8.92a9.86,9.86,0,0,1,.24,2.38,10.45,10.45,0,0,1-.24,2.38h1.78A9.86,9.86,0,0,1,473.56,238.13Z"/><path class="cls-3" d="M482.24,235.75h2.38a9.86,9.86,0,0,1,.24,2.38,10.3,10.3,0,0,1-.24,2.37h-1.78a10,10,0,0,1,.24,2.38,10.39,10.39,0,0,1-.24,2.38,9.92,9.92,0,0,1,.24,2.38,10.45,10.45,0,0,1-.24,2.38,9.86,9.86,0,0,1,.24,2.38,10.3,10.3,0,0,1-.24,2.37h-4.76a10.3,10.3,0,0,1-.24-2.37,9.86,9.86,0,0,1,.24-2.38,10.45,10.45,0,0,1-.24-2.38,9.92,9.92,0,0,1,.24-2.38,10.39,10.39,0,0,1-.24-2.38,10,10,0,0,1,.24-2.38,10.3,10.3,0,0,1-.24-2.37,9.86,9.86,0,0,1,.24-2.38,10.45,10.45,0,0,1-.24-2.38,9.86,9.86,0,0,1,.24-2.38h4.16a9.86,9.86,0,0,1,.24,2.38A10.45,10.45,0,0,1,482.24,235.75Zm15.11,7.13a10.39,10.39,0,0,1-.24,2.38,9.92,9.92,0,0,1,.24,2.38,10.45,10.45,0,0,1-.24,2.38,9.86,9.86,0,0,1,.24,2.38,10.3,10.3,0,0,1-.24,2.37h-4.76a10.3,10.3,0,0,1-.24-2.37,9.86,9.86,0,0,1,.24-2.38,10.45,10.45,0,0,1-.24-2.38,9.92,9.92,0,0,1,.24-2.38,10.39,10.39,0,0,1-.24-2.38,10,10,0,0,1,.24-2.38,10.3,10.3,0,0,1-.24-2.37,9.86,9.86,0,0,1,.24-2.38h-7.73a10.49,10.49,0,0,1-.23-2.38,9.92,9.92,0,0,1,.23-2.38h9.52a10.46,10.46,0,0,1,.23,2.38,11.1,11.1,0,0,1-.23,2.38h3a9.86,9.86,0,0,1,.24,2.38,10.3,10.3,0,0,1-.24,2.37A10,10,0,0,1,497.35,242.88Z"/><path class="cls-3" d="M520.89,245.26h-1.78a9.92,9.92,0,0,1,.24,2.38,10.45,10.45,0,0,1-.24,2.38h-3a9.86,9.86,0,0,1,.24,2.38,10.3,10.3,0,0,1-.24,2.37h-8.33a10,10,0,0,1,.24,2.38,10.39,10.39,0,0,1-.24,2.38h-4.75a10.39,10.39,0,0,1-.24-2.38,10,10,0,0,1,.24-2.38h2.37a10.94,10.94,0,0,1-.23-2.37,10.46,10.46,0,0,1,.23-2.38h-1.78a10.45,10.45,0,0,1-.24-2.38,9.92,9.92,0,0,1,.24-2.38h-1.78a10.39,10.39,0,0,1-.24-2.38,10,10,0,0,1,.24-2.38h1.78a10.3,10.3,0,0,1-.24-2.37,9.86,9.86,0,0,1,.24-2.38h3a10.49,10.49,0,0,1-.23-2.38,9.92,9.92,0,0,1,.23-2.38H515a10.39,10.39,0,0,1-.24-2.38,10,10,0,0,1,.24-2.38h4.75a10,10,0,0,1,.24,2.38,10.39,10.39,0,0,1-.24,2.38h-2.37a10.46,10.46,0,0,1,.23,2.38,11.1,11.1,0,0,1-.23,2.38h1.78a9.86,9.86,0,0,1,.24,2.38,10.3,10.3,0,0,1-.24,2.37h1.78a10,10,0,0,1,.24,2.38A10.39,10.39,0,0,1,520.89,245.26Zm-4.75,0a10.39,10.39,0,0,1-.24-2.38,10,10,0,0,1,.24-2.38h-3a10.34,10.34,0,0,1-.23-2.37,9.92,9.92,0,0,1,.23-2.38h-4.75a9.86,9.86,0,0,1,.24,2.38,10.3,10.3,0,0,1-.24,2.37h-1.79a10,10,0,0,1,.24,2.38,10.39,10.39,0,0,1-.24,2.38h3a10,10,0,0,1,.23,2.38,10.49,10.49,0,0,1-.23,2.38h4.75a10.45,10.45,0,0,1-.24-2.38,9.92,9.92,0,0,1,.24-2.38Zm-3,0H509.6a10.39,10.39,0,0,1-.24-2.38,10,10,0,0,1,.24-2.38h3.56a10,10,0,0,1,.24,2.38A10.39,10.39,0,0,1,513.16,245.26Z"/><path class="cls-3" d="M540.16,233.37a10.45,10.45,0,0,1-.24,2.38,9.86,9.86,0,0,1,.24,2.38,10.3,10.3,0,0,1-.24,2.37,10,10,0,0,1,.24,2.38,10.39,10.39,0,0,1-.24,2.38,9.92,9.92,0,0,1,.24,2.38,10.45,10.45,0,0,1-.24,2.38,9.86,9.86,0,0,1,.24,2.38,10.3,10.3,0,0,1-.24,2.37h-2.38a10,10,0,0,1,.24,2.38,10.39,10.39,0,0,1-.24,2.38h-2.37a10.52,10.52,0,0,1,.23,2.38,11.1,11.1,0,0,1-.23,2.38H528a10.45,10.45,0,0,1-.24-2.38,9.92,9.92,0,0,1,.24-2.38h4.76a10.39,10.39,0,0,1-.24-2.38,10,10,0,0,1,.24-2.38h2.38a10.3,10.3,0,0,1-.24-2.37,9.86,9.86,0,0,1,.24-2.38,10.45,10.45,0,0,1-.24-2.38,9.92,9.92,0,0,1,.24-2.38,10.39,10.39,0,0,1-.24-2.38,10,10,0,0,1,.24-2.38,10.3,10.3,0,0,1-.24-2.37,9.86,9.86,0,0,1,.24-2.38h-4.76a10.45,10.45,0,0,1-.24-2.38,9.86,9.86,0,0,1,.24-2.38h9.51A9.86,9.86,0,0,1,540.16,233.37Zm-5-7.14a10.39,10.39,0,0,1-.24-2.38,10,10,0,0,1,.24-2.38h4.75a10,10,0,0,1,.24,2.38,10.39,10.39,0,0,1-.24,2.38Z"/><path class="cls-3" d="M568.47,240.5a10.58,10.58,0,0,1,.23,2.38,11,11,0,0,1-.23,2.38H556a9.92,9.92,0,0,1,.24,2.38A10.45,10.45,0,0,1,556,250h10.11a9.86,9.86,0,0,1,.24,2.38,10.3,10.3,0,0,1-.24,2.37H554.2a10.3,10.3,0,0,1-.24-2.37,9.86,9.86,0,0,1,.24-2.38h-3a10.45,10.45,0,0,1-.24-2.38,9.92,9.92,0,0,1,.24-2.38h-1.78a10.39,10.39,0,0,1-.24-2.38,10,10,0,0,1,.24-2.38h1.78a10.3,10.3,0,0,1-.24-2.37,9.86,9.86,0,0,1,.24-2.38h3a10.45,10.45,0,0,1-.24-2.38,9.86,9.86,0,0,1,.24-2.38h11.89a9.86,9.86,0,0,1,.24,2.38,10.45,10.45,0,0,1-.24,2.38h2.38a10.46,10.46,0,0,1,.23,2.38A10.94,10.94,0,0,1,568.47,240.5Zm-5-2.37a9.86,9.86,0,0,1,.24-2.38H556a9.86,9.86,0,0,1,.24,2.38,10.3,10.3,0,0,1-.24,2.37h7.73A10.3,10.3,0,0,1,563.47,238.13Z"/><path class="cls-3" d="M590.11,252.4a10.3,10.3,0,0,1-.24,2.37H575.6a10.3,10.3,0,0,1-.24-2.37,9.86,9.86,0,0,1,.24-2.38h4.76a10.45,10.45,0,0,1-.24-2.38,9.92,9.92,0,0,1,.24-2.38,10.39,10.39,0,0,1-.24-2.38,10,10,0,0,1,.24-2.38,10.3,10.3,0,0,1-.24-2.37,9.86,9.86,0,0,1,.24-2.38,10.45,10.45,0,0,1-.24-2.38,9.86,9.86,0,0,1,.24-2.38,10.39,10.39,0,0,1-.24-2.38,10,10,0,0,1,.24-2.38h-3.57a10.39,10.39,0,0,1-.24-2.38,10,10,0,0,1,.24-2.38h8.33a10.58,10.58,0,0,1,.23,2.38,11,11,0,0,1-.23,2.38,10.58,10.58,0,0,1,.23,2.38,11,11,0,0,1-.23,2.38,10.46,10.46,0,0,1,.23,2.38,11.1,11.1,0,0,1-.23,2.38,10.46,10.46,0,0,1,.23,2.38,10.94,10.94,0,0,1-.23,2.37,10.58,10.58,0,0,1,.23,2.38,11,11,0,0,1-.23,2.38,10.52,10.52,0,0,1,.23,2.38,11.1,11.1,0,0,1-.23,2.38h4.75A9.86,9.86,0,0,1,590.11,252.4Z"/><path class="cls-3" d="M614.85,250h-2.38a9.86,9.86,0,0,1,.24,2.38,10.3,10.3,0,0,1-.24,2.37H599.39a10.3,10.3,0,0,1-.24-2.37,9.86,9.86,0,0,1,.24-2.38h10.7a10.45,10.45,0,0,1-.24-2.38,9.92,9.92,0,0,1,.24-2.38h-9.51a10.39,10.39,0,0,1-.24-2.38,10,10,0,0,1,.24-2.38H598.2a10.3,10.3,0,0,1-.24-2.37,9.86,9.86,0,0,1,.24-2.38h2.38a10.45,10.45,0,0,1-.24-2.38,9.86,9.86,0,0,1,.24-2.38h13.08a9.86,9.86,0,0,1,.24,2.38,10.45,10.45,0,0,1-.24,2.38H603a9.86,9.86,0,0,1,.24,2.38,10.3,10.3,0,0,1-.24,2.37h9.52a10,10,0,0,1,.24,2.38,10.39,10.39,0,0,1-.24,2.38h2.38a10,10,0,0,1,.23,2.38A10.49,10.49,0,0,1,614.85,250Z"/><path class="cls-3" d="M639.82,240.5a10,10,0,0,1,.24,2.38,10.39,10.39,0,0,1-.24,2.38H627.33a9.92,9.92,0,0,1,.24,2.38,10.45,10.45,0,0,1-.24,2.38h10.11a9.86,9.86,0,0,1,.24,2.38,10.3,10.3,0,0,1-.24,2.37H625.55a10.3,10.3,0,0,1-.24-2.37,9.86,9.86,0,0,1,.24-2.38h-3a10.45,10.45,0,0,1-.24-2.38,9.92,9.92,0,0,1,.24-2.38h-1.79a10.39,10.39,0,0,1-.24-2.38,10,10,0,0,1,.24-2.38h1.79a10.3,10.3,0,0,1-.24-2.37,9.86,9.86,0,0,1,.24-2.38h3a10.45,10.45,0,0,1-.24-2.38,9.86,9.86,0,0,1,.24-2.38h11.89a9.86,9.86,0,0,1,.24,2.38,10.45,10.45,0,0,1-.24,2.38h2.38a9.86,9.86,0,0,1,.24,2.38A10.3,10.3,0,0,1,639.82,240.5Zm-5-2.37a10.46,10.46,0,0,1,.23-2.38h-7.73a9.86,9.86,0,0,1,.24,2.38,10.3,10.3,0,0,1-.24,2.37h7.73A10.94,10.94,0,0,1,634.83,238.13Z"/><path class="cls-3" d="M663.84,238.13a10.94,10.94,0,0,1-.23,2.37h-4.76a10.3,10.3,0,0,1-.24-2.37,9.86,9.86,0,0,1,.24-2.38h-4.16a9.92,9.92,0,0,1,.23,2.38,10.34,10.34,0,0,1-.23,2.37H652.9a10,10,0,0,1,.24,2.38,10.39,10.39,0,0,1-.24,2.38,9.92,9.92,0,0,1,.24,2.38,10.45,10.45,0,0,1-.24,2.38h3.57a9.86,9.86,0,0,1,.24,2.38,10.3,10.3,0,0,1-.24,2.37H644.58a10.3,10.3,0,0,1-.24-2.37,9.86,9.86,0,0,1,.24-2.38h3.57a10.45,10.45,0,0,1-.24-2.38,9.92,9.92,0,0,1,.24-2.38,10.39,10.39,0,0,1-.24-2.38,10,10,0,0,1,.24-2.38,10.3,10.3,0,0,1-.24-2.37,9.86,9.86,0,0,1,.24-2.38h-3.57a10.45,10.45,0,0,1-.24-2.38,9.86,9.86,0,0,1,.24-2.38h5.94a9.86,9.86,0,0,1,.24,2.38,10.45,10.45,0,0,1-.24,2.38h2.38a10.45,10.45,0,0,1-.24-2.38,9.86,9.86,0,0,1,.24-2.38h8.92a9.86,9.86,0,0,1,.24,2.38,10.45,10.45,0,0,1-.24,2.38h1.79A10.46,10.46,0,0,1,663.84,238.13Z"/><path class="cls-3" d="M680.85,250a9.86,9.86,0,0,1,.24,2.38,10.3,10.3,0,0,1-.24,2.37h-6a10.34,10.34,0,0,1-.23-2.37,9.92,9.92,0,0,1,.23-2.38,10.49,10.49,0,0,1-.23-2.38,10,10,0,0,1,.23-2.38h6a9.92,9.92,0,0,1,.24,2.38A10.45,10.45,0,0,1,680.85,250Z"/><path class="cls-3" d="M164.36,309.48a10.39,10.39,0,0,1-.24,2.38,9.92,9.92,0,0,1,.24,2.38,10.45,10.45,0,0,1-.24,2.38h-2.38A9.83,9.83,0,0,1,162,319a10.33,10.33,0,0,1-.24,2.38h-2.38a10,10,0,0,1,.24,2.38,10.39,10.39,0,0,1-.24,2.38H145.09a10.39,10.39,0,0,1-.24-2.38,10,10,0,0,1,.24-2.38,10.33,10.33,0,0,1-.24-2.38,9.83,9.83,0,0,1,.24-2.37,10.45,10.45,0,0,1-.24-2.38,9.92,9.92,0,0,1,.24-2.38,10.39,10.39,0,0,1-.24-2.38,10,10,0,0,1,.24-2.38,10.33,10.33,0,0,1-.24-2.38,9.83,9.83,0,0,1,.24-2.37,10.45,10.45,0,0,1-.24-2.38,9.92,9.92,0,0,1,.24-2.38,10.39,10.39,0,0,1-.24-2.38,10,10,0,0,1,.24-2.38h14.27a10,10,0,0,1,.24,2.38,10.39,10.39,0,0,1-.24,2.38h2.38A9.92,9.92,0,0,1,162,300a10.45,10.45,0,0,1-.24,2.38h2.38a9.83,9.83,0,0,1,.24,2.37,10.33,10.33,0,0,1-.24,2.38A10,10,0,0,1,164.36,309.48Zm-5.23,4.76a10.52,10.52,0,0,1,.23-2.38,11,11,0,0,1-.23-2.38,10.58,10.58,0,0,1,.23-2.38,11,11,0,0,1-.23-2.38,10.43,10.43,0,0,1,.23-2.37H157a10.45,10.45,0,0,1-.24-2.38,9.92,9.92,0,0,1,.24-2.38h-7.14a9.92,9.92,0,0,1,.24,2.38,10.45,10.45,0,0,1-.24,2.38,9.83,9.83,0,0,1,.24,2.37,10.33,10.33,0,0,1-.24,2.38,10,10,0,0,1,.24,2.38,10.39,10.39,0,0,1-.24,2.38,9.92,9.92,0,0,1,.24,2.38,10.45,10.45,0,0,1-.24,2.38,9.83,9.83,0,0,1,.24,2.37,10.33,10.33,0,0,1-.24,2.38H157a10.33,10.33,0,0,1-.24-2.38,9.83,9.83,0,0,1,.24-2.37h2.37A11.1,11.1,0,0,1,159.13,314.24Z"/><path class="cls-3" d="M175.42,321.37h6a10.58,10.58,0,0,1,.23,2.38,11,11,0,0,1-.23,2.38h-9.52a10.39,10.39,0,0,1-.24-2.38,10,10,0,0,1,.24-2.38h-3a10.33,10.33,0,0,1-.24-2.38,9.83,9.83,0,0,1,.24-2.37,10.45,10.45,0,0,1-.24-2.38,9.92,9.92,0,0,1,.24-2.38,10.39,10.39,0,0,1-.24-2.38,10,10,0,0,1,.24-2.38,10.33,10.33,0,0,1-.24-2.38,9.83,9.83,0,0,1,.24-2.37h4.76a10.43,10.43,0,0,1,.23,2.37,11,11,0,0,1-.23,2.38,10.58,10.58,0,0,1,.23,2.38,11,11,0,0,1-.23,2.38,10.52,10.52,0,0,1,.23,2.38,11.1,11.1,0,0,1-.23,2.38h1.78a9.83,9.83,0,0,1,.24,2.37A10.33,10.33,0,0,1,175.42,321.37Zm12.72-11.89a11,11,0,0,1-.23,2.38,10.52,10.52,0,0,1,.23,2.38,11.1,11.1,0,0,1-.23,2.38,10.43,10.43,0,0,1,.23,2.37,11,11,0,0,1-.23,2.38,10.58,10.58,0,0,1,.23,2.38,11,11,0,0,1-.23,2.38h-4.76a10.39,10.39,0,0,1-.24-2.38,10,10,0,0,1,.24-2.38h-1.78a10.33,10.33,0,0,1-.24-2.38,9.83,9.83,0,0,1,.24-2.37h1.78a10.45,10.45,0,0,1-.24-2.38,9.92,9.92,0,0,1,.24-2.38,10.39,10.39,0,0,1-.24-2.38,10,10,0,0,1,.24-2.38,10.33,10.33,0,0,1-.24-2.38,9.83,9.83,0,0,1,.24-2.37h4.76a10.43,10.43,0,0,1,.23,2.37,11,11,0,0,1-.23,2.38A10.58,10.58,0,0,1,188.14,309.48Z"/><path class="cls-3" d="M235.48,311.86a10.52,10.52,0,0,1,.23,2.38,11.1,11.1,0,0,1-.23,2.38H223a9.83,9.83,0,0,1,.24,2.37,10.33,10.33,0,0,1-.24,2.38H233.1a10,10,0,0,1,.24,2.38,10.39,10.39,0,0,1-.24,2.38H221.21a10.39,10.39,0,0,1-.24-2.38,10,10,0,0,1,.24-2.38h-3A10.33,10.33,0,0,1,218,319a9.83,9.83,0,0,1,.24-2.37h-1.78a10.45,10.45,0,0,1-.24-2.38,9.92,9.92,0,0,1,.24-2.38h1.78a10.39,10.39,0,0,1-.24-2.38,10,10,0,0,1,.24-2.38h3a10.33,10.33,0,0,1-.24-2.38,9.83,9.83,0,0,1,.24-2.37H233.1a9.83,9.83,0,0,1,.24,2.37,10.33,10.33,0,0,1-.24,2.38h2.38a10.58,10.58,0,0,1,.23,2.38A11,11,0,0,1,235.48,311.86Zm-5-2.38a10,10,0,0,1,.24-2.38H223a10,10,0,0,1,.24,2.38,10.39,10.39,0,0,1-.24,2.38h7.73A10.39,10.39,0,0,1,230.48,309.48Z"/><path class="cls-3" d="M259.5,309.48a10.39,10.39,0,0,1-.24,2.38H254.5a11,11,0,0,1-.23-2.38,10.58,10.58,0,0,1,.23-2.38h-4.16a10,10,0,0,1,.24,2.38,10.39,10.39,0,0,1-.24,2.38h-1.78a10,10,0,0,1,.23,2.38,10.49,10.49,0,0,1-.23,2.38,9.88,9.88,0,0,1,.23,2.37,10.38,10.38,0,0,1-.23,2.38h3.57a10.58,10.58,0,0,1,.23,2.38,11,11,0,0,1-.23,2.38h-11.9a10.39,10.39,0,0,1-.24-2.38,10,10,0,0,1,.24-2.38h3.57a10.33,10.33,0,0,1-.24-2.38,9.83,9.83,0,0,1,.24-2.37,10.45,10.45,0,0,1-.24-2.38,9.92,9.92,0,0,1,.24-2.38,10.39,10.39,0,0,1-.24-2.38,10,10,0,0,1,.24-2.38h-3.57a10.33,10.33,0,0,1-.24-2.38,9.83,9.83,0,0,1,.24-2.37h6a9.83,9.83,0,0,1,.24,2.37,10.33,10.33,0,0,1-.24,2.38h2.38a10.33,10.33,0,0,1-.24-2.38,9.83,9.83,0,0,1,.24-2.37h8.92a10.43,10.43,0,0,1,.23,2.37,11,11,0,0,1-.23,2.38h1.78A10,10,0,0,1,259.5,309.48Z"/><path class="cls-3" d="M299.1,307.1h-6a10,10,0,0,1,.24,2.38,10.39,10.39,0,0,1-.24,2.38h-1.78a9.92,9.92,0,0,1,.24,2.38,10.45,10.45,0,0,1-.24,2.38h1.78a9.83,9.83,0,0,1,.24,2.37,10.33,10.33,0,0,1-.24,2.38h6a10,10,0,0,1,.24,2.38,10.39,10.39,0,0,1-.24,2.38h-6.54a10.39,10.39,0,0,1-.24-2.38,10,10,0,0,1,.24-2.38h-3a10.33,10.33,0,0,1-.24-2.38,9.83,9.83,0,0,1,.24-2.37H287.8a10.45,10.45,0,0,1-.24-2.38,9.92,9.92,0,0,1,.24-2.38h1.79a10.39,10.39,0,0,1-.24-2.38,10,10,0,0,1,.24-2.38h3a10.33,10.33,0,0,1-.24-2.38,9.83,9.83,0,0,1,.24-2.37h6.54a9.83,9.83,0,0,1,.24,2.37A10.33,10.33,0,0,1,299.1,307.1Zm8-7.13a10.45,10.45,0,0,1-.24,2.38,9.83,9.83,0,0,1,.24,2.37,10.33,10.33,0,0,1-.24,2.38,10,10,0,0,1,.24,2.38,10.39,10.39,0,0,1-.24,2.38,9.92,9.92,0,0,1,.24,2.38,10.45,10.45,0,0,1-.24,2.38,9.83,9.83,0,0,1,.24,2.37,10.33,10.33,0,0,1-.24,2.38,10,10,0,0,1,.24,2.38,10.39,10.39,0,0,1-.24,2.38h-4.76a11,11,0,0,1-.23-2.38,10.58,10.58,0,0,1,.23-2.38h-1.78a10.33,10.33,0,0,1-.24-2.38,9.83,9.83,0,0,1,.24-2.37h1.78a11.1,11.1,0,0,1-.23-2.38,10.52,10.52,0,0,1,.23-2.38h-1.78a10.39,10.39,0,0,1-.24-2.38,10,10,0,0,1,.24-2.38h1.78a11,11,0,0,1-.23-2.38,10.43,10.43,0,0,1,.23-2.37,11.1,11.1,0,0,1-.23-2.38,10.52,10.52,0,0,1,.23-2.38,11,11,0,0,1-.23-2.38,10.58,10.58,0,0,1,.23-2.38h4.76a10,10,0,0,1,.24,2.38,10.39,10.39,0,0,1-.24,2.38A9.92,9.92,0,0,1,307.07,300Z"/><path class="cls-3" d="M328.47,323.75a10.43,10.43,0,0,1-.23,2.38H314a10.39,10.39,0,0,1-.24-2.38,10,10,0,0,1,.24-2.38h4.75a10.33,10.33,0,0,1-.24-2.38,9.83,9.83,0,0,1,.24-2.37,10.45,10.45,0,0,1-.24-2.38,9.92,9.92,0,0,1,.24-2.38,10.39,10.39,0,0,1-.24-2.38,10,10,0,0,1,.24-2.38h-3.56a10.33,10.33,0,0,1-.24-2.38,9.83,9.83,0,0,1,.24-2.37h8.32a9.83,9.83,0,0,1,.24,2.37,10.33,10.33,0,0,1-.24,2.38,10,10,0,0,1,.24,2.38,10.39,10.39,0,0,1-.24,2.38,9.92,9.92,0,0,1,.24,2.38,10.45,10.45,0,0,1-.24,2.38,9.83,9.83,0,0,1,.24,2.37,10.33,10.33,0,0,1-.24,2.38h4.76A10,10,0,0,1,328.47,323.75Zm-9.75-26.16a10.39,10.39,0,0,1-.24-2.38,10,10,0,0,1,.24-2.38h4.76a10,10,0,0,1,.24,2.38,10.39,10.39,0,0,1-.24,2.38Z"/><path class="cls-3" d="M354.64,309.48a10.39,10.39,0,0,1-.24,2.38h-4.76a11,11,0,0,1-.23-2.38,10.58,10.58,0,0,1,.23-2.38h-4.16a10,10,0,0,1,.24,2.38,10.39,10.39,0,0,1-.24,2.38H343.7a10.52,10.52,0,0,1,.23,2.38,11.1,11.1,0,0,1-.23,2.38,10.43,10.43,0,0,1,.23,2.37,11,11,0,0,1-.23,2.38h3.57a10.58,10.58,0,0,1,.23,2.38,11,11,0,0,1-.23,2.38h-11.9a10.39,10.39,0,0,1-.24-2.38,10,10,0,0,1,.24-2.38h3.57a10.33,10.33,0,0,1-.24-2.38,9.83,9.83,0,0,1,.24-2.37,10.45,10.45,0,0,1-.24-2.38,9.92,9.92,0,0,1,.24-2.38,10.39,10.39,0,0,1-.24-2.38,10,10,0,0,1,.24-2.38h-3.57a10.33,10.33,0,0,1-.24-2.38,9.83,9.83,0,0,1,.24-2.37h5.95a9.83,9.83,0,0,1,.24,2.37,10.33,10.33,0,0,1-.24,2.38h2.38a10.33,10.33,0,0,1-.24-2.38,9.83,9.83,0,0,1,.24-2.37h8.92a10.43,10.43,0,0,1,.23,2.37,11,11,0,0,1-.23,2.38h1.78A10,10,0,0,1,354.64,309.48Z"/><path class="cls-3" d="M378.18,311.86a9.92,9.92,0,0,1,.24,2.38,10.45,10.45,0,0,1-.24,2.38H365.7a9.83,9.83,0,0,1,.24,2.37,10.33,10.33,0,0,1-.24,2.38h10.11a10,10,0,0,1,.23,2.38,10.43,10.43,0,0,1-.23,2.38h-11.9a11,11,0,0,1-.23-2.38,10.58,10.58,0,0,1,.23-2.38h-3a10.33,10.33,0,0,1-.24-2.38,9.83,9.83,0,0,1,.24-2.37h-1.78a10.45,10.45,0,0,1-.24-2.38,9.92,9.92,0,0,1,.24-2.38h1.78a10.39,10.39,0,0,1-.24-2.38,10,10,0,0,1,.24-2.38h3a11,11,0,0,1-.23-2.38,10.43,10.43,0,0,1,.23-2.37h11.9a9.88,9.88,0,0,1,.23,2.37,10.38,10.38,0,0,1-.23,2.38h2.37a10,10,0,0,1,.24,2.38A10.39,10.39,0,0,1,378.18,311.86Zm-5-2.38a10,10,0,0,1,.24-2.38H365.7a10,10,0,0,1,.24,2.38,10.39,10.39,0,0,1-.24,2.38h7.73A10.39,10.39,0,0,1,373.19,309.48Z"/><path class="cls-3" d="M402.21,323.75a10.39,10.39,0,0,1-.24,2.38h-8.32a10.39,10.39,0,0,1-.24-2.38,10,10,0,0,1,.24-2.38h-2.38A10.33,10.33,0,0,1,391,319a9.83,9.83,0,0,1,.24-2.37H387.7a9.83,9.83,0,0,1,.24,2.37,10.33,10.33,0,0,1-.24,2.38,10,10,0,0,1,.24,2.38,10.39,10.39,0,0,1-.24,2.38h-4.76a10.39,10.39,0,0,1-.24-2.38,10,10,0,0,1,.24-2.38,10.33,10.33,0,0,1-.24-2.38,9.83,9.83,0,0,1,.24-2.37,10.45,10.45,0,0,1-.24-2.38,9.92,9.92,0,0,1,.24-2.38,10.39,10.39,0,0,1-.24-2.38,10,10,0,0,1,.24-2.38,10.33,10.33,0,0,1-.24-2.38,9.83,9.83,0,0,1,.24-2.37,10.45,10.45,0,0,1-.24-2.38,9.92,9.92,0,0,1,.24-2.38,10.39,10.39,0,0,1-.24-2.38,10,10,0,0,1,.24-2.38h4.76a10,10,0,0,1,.24,2.38,10.39,10.39,0,0,1-.24,2.38,9.92,9.92,0,0,1,.24,2.38,10.45,10.45,0,0,1-.24,2.38,9.83,9.83,0,0,1,.24,2.37,10.33,10.33,0,0,1-.24,2.38,10,10,0,0,1,.24,2.38,10.39,10.39,0,0,1-.24,2.38h3.57a10.39,10.39,0,0,1-.24-2.38,10,10,0,0,1,.24-2.38h2.38a10.33,10.33,0,0,1-.24-2.38,9.83,9.83,0,0,1,.24-2.37h7.13a9.83,9.83,0,0,1,.24,2.37,10.33,10.33,0,0,1-.24,2.38H396a10,10,0,0,1,.24,2.38,10.39,10.39,0,0,1-.24,2.38h-2.37a10.52,10.52,0,0,1,.23,2.38,11.1,11.1,0,0,1-.23,2.38H396a9.83,9.83,0,0,1,.24,2.37,10.33,10.33,0,0,1-.24,2.38h6A10,10,0,0,1,402.21,323.75Z"/><path class="cls-3" d="M423.38,321.37a10.58,10.58,0,0,1,.23,2.38,11,11,0,0,1-.23,2.38h-9.52a10.39,10.39,0,0,1-.24-2.38,10,10,0,0,1,.24-2.38h-2.38a11,11,0,0,1-.23-2.38,10.43,10.43,0,0,1,.23-2.37,11.1,11.1,0,0,1-.23-2.38,10.52,10.52,0,0,1,.23-2.38,11,11,0,0,1-.23-2.38,10.58,10.58,0,0,1,.23-2.38h-4.75a10.33,10.33,0,0,1-.24-2.38,9.83,9.83,0,0,1,.24-2.37h4.75a11.1,11.1,0,0,1-.23-2.38,10.52,10.52,0,0,1,.23-2.38,11,11,0,0,1-.23-2.38,10.58,10.58,0,0,1,.23-2.38h4.76a10,10,0,0,1,.24,2.38,10.39,10.39,0,0,1-.24,2.38,9.92,9.92,0,0,1,.24,2.38,10.45,10.45,0,0,1-.24,2.38h7.14a10.43,10.43,0,0,1,.23,2.37,11,11,0,0,1-.23,2.38h-7.14a10,10,0,0,1,.24,2.38,10.39,10.39,0,0,1-.24,2.38,9.92,9.92,0,0,1,.24,2.38,10.45,10.45,0,0,1-.24,2.38,9.83,9.83,0,0,1,.24,2.37,10.33,10.33,0,0,1-.24,2.38Z"/><path class="cls-3" d="M449.54,311.86a9.92,9.92,0,0,1,.24,2.38,10.45,10.45,0,0,1-.24,2.38H437.05a9.83,9.83,0,0,1,.24,2.37,10.33,10.33,0,0,1-.24,2.38h10.11a10,10,0,0,1,.24,2.38,10.39,10.39,0,0,1-.24,2.38H435.27a10.39,10.39,0,0,1-.24-2.38,10,10,0,0,1,.24-2.38h-3a11,11,0,0,1-.23-2.38,10.43,10.43,0,0,1,.23-2.37h-1.78a10.45,10.45,0,0,1-.24-2.38,9.92,9.92,0,0,1,.24-2.38h1.78a11,11,0,0,1-.23-2.38,10.58,10.58,0,0,1,.23-2.38h3a10.33,10.33,0,0,1-.24-2.38,9.83,9.83,0,0,1,.24-2.37h11.89a9.83,9.83,0,0,1,.24,2.37,10.33,10.33,0,0,1-.24,2.38h2.38a10,10,0,0,1,.24,2.38A10.39,10.39,0,0,1,449.54,311.86Zm-5-2.38a10,10,0,0,1,.23-2.38h-7.73a10,10,0,0,1,.24,2.38,10.39,10.39,0,0,1-.24,2.38h7.73A10.43,10.43,0,0,1,444.55,309.48Z"/><path class="cls-3" d="M497.11,316.62h-2.38A9.83,9.83,0,0,1,495,319a10.33,10.33,0,0,1-.24,2.38h-2.38a10,10,0,0,1,.24,2.38,10.39,10.39,0,0,1-.24,2.38h-9.51a10,10,0,0,1,.24,2.38,10.45,10.45,0,0,1-.24,2.38,9.86,9.86,0,0,1,.24,2.38,10.45,10.45,0,0,1-.24,2.38h-4.76a10.45,10.45,0,0,1-.24-2.38,9.86,9.86,0,0,1,.24-2.38,10.45,10.45,0,0,1-.24-2.38,10,10,0,0,1,.24-2.38,10.39,10.39,0,0,1-.24-2.38,10,10,0,0,1,.24-2.38,10.33,10.33,0,0,1-.24-2.38,9.83,9.83,0,0,1,.24-2.37,10.45,10.45,0,0,1-.24-2.38,9.92,9.92,0,0,1,.24-2.38,10.39,10.39,0,0,1-.24-2.38,10,10,0,0,1,.24-2.38,10.33,10.33,0,0,1-.24-2.38,9.83,9.83,0,0,1,.24-2.37h4.76a9.83,9.83,0,0,1,.24,2.37,10.33,10.33,0,0,1-.24,2.38h2.38a10.58,10.58,0,0,1,.23,2.38,11,11,0,0,1-.23,2.38h-2.38a9.92,9.92,0,0,1,.24,2.38,10.45,10.45,0,0,1-.24,2.38,9.83,9.83,0,0,1,.24,2.37,10.33,10.33,0,0,1-.24,2.38H490a11,11,0,0,1-.23-2.38,10.43,10.43,0,0,1,.23-2.37h2.38a10.45,10.45,0,0,1-.24-2.38,9.92,9.92,0,0,1,.24-2.38H490a11,11,0,0,1-.23-2.38,10.58,10.58,0,0,1,.23-2.38h-4.75a10.33,10.33,0,0,1-.24-2.38,9.83,9.83,0,0,1,.24-2.37h7.13a9.83,9.83,0,0,1,.24,2.37,10.33,10.33,0,0,1-.24,2.38h2.38a10,10,0,0,1,.24,2.38,10.39,10.39,0,0,1-.24,2.38h2.38a9.92,9.92,0,0,1,.24,2.38A10.45,10.45,0,0,1,497.11,316.62Z"/><path class="cls-3" d="M521.13,323.75a10.39,10.39,0,0,1-.24,2.38h-4.75a10.39,10.39,0,0,1-.24-2.38,10,10,0,0,1,.24-2.38h-2.38a10.33,10.33,0,0,1-.24-2.38,9.83,9.83,0,0,1,.24-2.37h-7.14a9.83,9.83,0,0,1,.24,2.37,10.33,10.33,0,0,1-.24,2.38h7.14a10,10,0,0,1,.24,2.38,10.39,10.39,0,0,1-.24,2.38h-9.51a10.39,10.39,0,0,1-.24-2.38,10,10,0,0,1,.24-2.38h-2.38a10.33,10.33,0,0,1-.24-2.38,9.83,9.83,0,0,1,.24-2.37h2.38a10.45,10.45,0,0,1-.24-2.38,9.92,9.92,0,0,1,.24-2.38h9.51a10.39,10.39,0,0,1-.24-2.38,10,10,0,0,1,.24-2.38h-8.33a11,11,0,0,1-.23-2.38,10.43,10.43,0,0,1,.23-2.37h10.71a9.83,9.83,0,0,1,.24,2.37,10.33,10.33,0,0,1-.24,2.38h2.38a10.58,10.58,0,0,1,.23,2.38,11,11,0,0,1-.23,2.38,10.52,10.52,0,0,1,.23,2.38,11.1,11.1,0,0,1-.23,2.38,10.43,10.43,0,0,1,.23,2.37,11,11,0,0,1-.23,2.38h2.37A10,10,0,0,1,521.13,323.75Zm-3.21-30.92h-1.78a10,10,0,0,1,.24,2.38,10.39,10.39,0,0,1-.24,2.38h-9.52a10.43,10.43,0,0,1-.23-2.38,10,10,0,0,1,.23-2.38h-1.78a10.39,10.39,0,0,1-.24-2.38,10,10,0,0,1,.24-2.38h1.78a10.38,10.38,0,0,1-.23-2.38,9.88,9.88,0,0,1,.23-2.37h9.52a9.83,9.83,0,0,1,.24,2.37,10.33,10.33,0,0,1-.24,2.38h1.78a10,10,0,0,1,.24,2.38A10.39,10.39,0,0,1,517.92,292.83Zm-3.57,0a10.39,10.39,0,0,1-.24-2.38,10,10,0,0,1,.24-2.38h-5.94a10,10,0,0,1,.24,2.38,10.39,10.39,0,0,1-.24,2.38Z"/><path class="cls-3" d="M568.47,307.1h-1.79a10,10,0,0,1,.24,2.38,10.39,10.39,0,0,1-.24,2.38H564.9a9.92,9.92,0,0,1,.24,2.38,10.45,10.45,0,0,1-.24,2.38h-1.19A9.83,9.83,0,0,1,564,319a10.33,10.33,0,0,1-.24,2.38h-2.38a10,10,0,0,1,.24,2.38,10.39,10.39,0,0,1-.24,2.38h-4.76a11,11,0,0,1-.23-2.38,10.58,10.58,0,0,1,.23-2.38H554.2A10.33,10.33,0,0,1,554,319a9.83,9.83,0,0,1,.24-2.37H553a10.45,10.45,0,0,1-.24-2.38,9.92,9.92,0,0,1,.24-2.38h-1.79a10.39,10.39,0,0,1-.24-2.38,10,10,0,0,1,.24-2.38h-1.78a10.33,10.33,0,0,1-.24-2.38,9.83,9.83,0,0,1,.24-2.37h4.76a10.43,10.43,0,0,1,.23,2.37,11,11,0,0,1-.23,2.38H556a10,10,0,0,1,.24,2.38,10.39,10.39,0,0,1-.24,2.38h1.78a9.92,9.92,0,0,1,.24,2.38,10.45,10.45,0,0,1-.24,2.38h2.38a10.45,10.45,0,0,1-.24-2.38,9.92,9.92,0,0,1,.24-2.38h1.79a10.39,10.39,0,0,1-.24-2.38,10,10,0,0,1,.24-2.38h1.78a10.33,10.33,0,0,1-.24-2.38,9.83,9.83,0,0,1,.24-2.37h4.76a10.43,10.43,0,0,1,.23,2.37A11,11,0,0,1,568.47,307.1Z"/><path class="cls-3" d="M592.25,311.86a9.92,9.92,0,0,1,.24,2.38,10.45,10.45,0,0,1-.24,2.38H579.76A9.83,9.83,0,0,1,580,319a10.33,10.33,0,0,1-.24,2.38h10.11a10,10,0,0,1,.24,2.38,10.39,10.39,0,0,1-.24,2.38H578a10.39,10.39,0,0,1-.24-2.38,10,10,0,0,1,.24-2.38h-3a10.33,10.33,0,0,1-.24-2.38,9.83,9.83,0,0,1,.24-2.37h-1.79a10.45,10.45,0,0,1-.24-2.38,9.92,9.92,0,0,1,.24-2.38H575a10.39,10.39,0,0,1-.24-2.38,10,10,0,0,1,.24-2.38h3a10.33,10.33,0,0,1-.24-2.38,9.83,9.83,0,0,1,.24-2.37h11.89a9.83,9.83,0,0,1,.24,2.37,10.33,10.33,0,0,1-.24,2.38h2.38a10,10,0,0,1,.24,2.38A10.39,10.39,0,0,1,592.25,311.86Zm-5-2.38a10.58,10.58,0,0,1,.23-2.38h-7.73a10,10,0,0,1,.24,2.38,10.39,10.39,0,0,1-.24,2.38h7.73A11,11,0,0,1,587.26,309.48Z"/><path class="cls-3" d="M611.52,304.72a10.33,10.33,0,0,1-.24,2.38,10,10,0,0,1,.24,2.38,10.39,10.39,0,0,1-.24,2.38,9.92,9.92,0,0,1,.24,2.38,10.45,10.45,0,0,1-.24,2.38,9.83,9.83,0,0,1,.24,2.37,10.33,10.33,0,0,1-.24,2.38,10,10,0,0,1,.24,2.38,10.39,10.39,0,0,1-.24,2.38H608.9a10,10,0,0,1,.24,2.38,10.45,10.45,0,0,1-.24,2.38h-2.38a9.86,9.86,0,0,1,.24,2.38,10.45,10.45,0,0,1-.24,2.38h-7.13a10.45,10.45,0,0,1-.24-2.38,9.86,9.86,0,0,1,.24-2.38h4.75a10.49,10.49,0,0,1-.23-2.38,10,10,0,0,1,.23-2.38h2.38a10.39,10.39,0,0,1-.24-2.38,10,10,0,0,1,.24-2.38,10.33,10.33,0,0,1-.24-2.38,9.83,9.83,0,0,1,.24-2.37,10.45,10.45,0,0,1-.24-2.38,9.92,9.92,0,0,1,.24-2.38,10.39,10.39,0,0,1-.24-2.38,10,10,0,0,1,.24-2.38h-4.75a10.33,10.33,0,0,1-.24-2.38,9.83,9.83,0,0,1,.24-2.37h9.51A9.83,9.83,0,0,1,611.52,304.72Zm-5-7.13a10.39,10.39,0,0,1-.24-2.38,10,10,0,0,1,.24-2.38h4.76a10,10,0,0,1,.24,2.38,10.39,10.39,0,0,1-.24,2.38Z"/><path class="cls-3" d="M661.47,323.75a10.39,10.39,0,0,1-.24,2.38H647a10.39,10.39,0,0,1-.24-2.38,10,10,0,0,1,.24-2.38h4.75a10.38,10.38,0,0,1-.23-2.38,9.88,9.88,0,0,1,.23-2.37,10.49,10.49,0,0,1-.23-2.38,10,10,0,0,1,.23-2.38,10.43,10.43,0,0,1-.23-2.38,10,10,0,0,1,.23-2.38h-3.56a10.33,10.33,0,0,1-.24-2.38,9.83,9.83,0,0,1,.24-2.37h8.32a9.83,9.83,0,0,1,.24,2.37,10.33,10.33,0,0,1-.24,2.38,10,10,0,0,1,.24,2.38,10.39,10.39,0,0,1-.24,2.38,9.92,9.92,0,0,1,.24,2.38,10.45,10.45,0,0,1-.24,2.38,9.83,9.83,0,0,1,.24,2.37,10.33,10.33,0,0,1-.24,2.38h4.76A10,10,0,0,1,661.47,323.75Zm-9.76-26.16a10.43,10.43,0,0,1-.23-2.38,10,10,0,0,1,.23-2.38h4.76a10,10,0,0,1,.24,2.38,10.39,10.39,0,0,1-.24,2.38Z"/><path class="cls-3" d="M161.74,373.7a9.92,9.92,0,0,1,.24,2.38,10.45,10.45,0,0,1-.24,2.38h-7.13a9.92,9.92,0,0,1,.23,2.38,10.34,10.34,0,0,1-.23,2.37,10,10,0,0,1,.23,2.38,10.38,10.38,0,0,1-.23,2.38,10,10,0,0,1,.23,2.38,10.49,10.49,0,0,1-.23,2.38h4.75a9.92,9.92,0,0,1,.24,2.38,10.45,10.45,0,0,1-.24,2.38H147.47a10.45,10.45,0,0,1-.24-2.38,9.92,9.92,0,0,1,.24-2.38h2.38a10.45,10.45,0,0,1-.24-2.38,9.92,9.92,0,0,1,.24-2.38,10.33,10.33,0,0,1-.24-2.38,10,10,0,0,1,.24-2.38,10.3,10.3,0,0,1-.24-2.37,9.86,9.86,0,0,1,.24-2.38h-2.38a10.45,10.45,0,0,1-.24-2.38,9.92,9.92,0,0,1,.24-2.38h2.38a10.39,10.39,0,0,1-.24-2.38,10,10,0,0,1,.24-2.38h2.38a10.33,10.33,0,0,1-.24-2.38,9.83,9.83,0,0,1,.24-2.37h9.51a9.83,9.83,0,0,1,.24,2.37,10.33,10.33,0,0,1-.24,2.38h-7.13a10,10,0,0,1,.23,2.38,10.43,10.43,0,0,1-.23,2.38Z"/><path class="cls-3" d="M187.91,388H182a9.92,9.92,0,0,1,.24,2.38,10.45,10.45,0,0,1-.24,2.38h5.95a10.52,10.52,0,0,1,.23,2.38,11.1,11.1,0,0,1-.23,2.38h-7.14a10.45,10.45,0,0,1-.24-2.38,9.92,9.92,0,0,1,.24-2.38h-2.38a9.92,9.92,0,0,1,.24,2.38,10.45,10.45,0,0,1-.24,2.38h-7.13a10.45,10.45,0,0,1-.24-2.38,9.92,9.92,0,0,1,.24-2.38h-2.38a10.45,10.45,0,0,1-.24-2.38,9.92,9.92,0,0,1,.24-2.38h2.38a10.33,10.33,0,0,1-.24-2.38,10,10,0,0,1,.24-2.38h5.94a10.3,10.3,0,0,1-.24-2.37,9.86,9.86,0,0,1,.24-2.38h-4.75a10.45,10.45,0,0,1-.24-2.38,9.92,9.92,0,0,1,.24-2.38h5.94a9.92,9.92,0,0,1,.24,2.38,10.45,10.45,0,0,1-.24,2.38h2.38a10.45,10.45,0,0,1-.24-2.38,9.92,9.92,0,0,1,.24-2.38h5.95a10,10,0,0,1,.23,2.38,10.49,10.49,0,0,1-.23,2.38h1.19a10.46,10.46,0,0,1,.23,2.38,10.94,10.94,0,0,1-.23,2.37,10.58,10.58,0,0,1,.23,2.38A11,11,0,0,1,187.91,388Zm-10.71,4.76a10.45,10.45,0,0,1-.24-2.38,9.92,9.92,0,0,1,.24-2.38h-3.56a10.52,10.52,0,0,1,.23,2.38,11.1,11.1,0,0,1-.23,2.38Zm8.33-9.52a10.3,10.3,0,0,1-.24-2.37,9.86,9.86,0,0,1,.24-2.38H182a9.86,9.86,0,0,1,.24,2.38,10.3,10.3,0,0,1-.24,2.37Z"/><path class="cls-3" d="M196.82,378.46h2.38a9.86,9.86,0,0,1,.24,2.38,10.3,10.3,0,0,1-.24,2.37h-1.78a10,10,0,0,1,.24,2.38,10.33,10.33,0,0,1-.24,2.38,9.92,9.92,0,0,1,.24,2.38,10.45,10.45,0,0,1-.24,2.38,9.92,9.92,0,0,1,.24,2.38,10.45,10.45,0,0,1-.24,2.38h-4.76a10.45,10.45,0,0,1-.24-2.38,9.92,9.92,0,0,1,.24-2.38,10.45,10.45,0,0,1-.24-2.38,9.92,9.92,0,0,1,.24-2.38,10.33,10.33,0,0,1-.24-2.38,10,10,0,0,1,.24-2.38,10.3,10.3,0,0,1-.24-2.37,9.86,9.86,0,0,1,.24-2.38,10.45,10.45,0,0,1-.24-2.38,9.92,9.92,0,0,1,.24-2.38h4.16a9.92,9.92,0,0,1,.24,2.38A10.45,10.45,0,0,1,196.82,378.46Zm15.11,7.13a10.33,10.33,0,0,1-.24,2.38,9.92,9.92,0,0,1,.24,2.38,10.45,10.45,0,0,1-.24,2.38,9.92,9.92,0,0,1,.24,2.38,10.45,10.45,0,0,1-.24,2.38h-4.76a11.1,11.1,0,0,1-.23-2.38,10.52,10.52,0,0,1,.23-2.38,11.1,11.1,0,0,1-.23-2.38,10.52,10.52,0,0,1,.23-2.38,11,11,0,0,1-.23-2.38,10.58,10.58,0,0,1,.23-2.38,10.94,10.94,0,0,1-.23-2.37,10.46,10.46,0,0,1,.23-2.38H199.2a10.49,10.49,0,0,1-.23-2.38,10,10,0,0,1,.23-2.38h9.52a10,10,0,0,1,.23,2.38,10.49,10.49,0,0,1-.23,2.38h3a9.86,9.86,0,0,1,.24,2.38,10.3,10.3,0,0,1-.24,2.37A10,10,0,0,1,211.93,385.59Z"/><path class="cls-3" d="M235.71,380.84a10.94,10.94,0,0,1-.23,2.37,10.58,10.58,0,0,1,.23,2.38,11,11,0,0,1-.23,2.38,10.52,10.52,0,0,1,.23,2.38,11.1,11.1,0,0,1-.23,2.38,10.52,10.52,0,0,1,.23,2.38,11.1,11.1,0,0,1-.23,2.38H233.1a9.83,9.83,0,0,1,.24,2.37,10.33,10.33,0,0,1-.24,2.38h-2.38a9.92,9.92,0,0,1,.24,2.38,10.45,10.45,0,0,1-.24,2.38h-9.51a10.45,10.45,0,0,1-.24-2.38,9.92,9.92,0,0,1,.24-2.38h7.13a10.33,10.33,0,0,1-.24-2.38,9.83,9.83,0,0,1,.24-2.37h2.38a10.45,10.45,0,0,1-.24-2.38,9.92,9.92,0,0,1,.24-2.38h-2.38a10.45,10.45,0,0,1-.24-2.38,9.92,9.92,0,0,1,.24-2.38h2.38a10.33,10.33,0,0,1-.24-2.38,10,10,0,0,1,.24-2.38,10.3,10.3,0,0,1-.24-2.37,9.86,9.86,0,0,1,.24-2.38H223a9.86,9.86,0,0,1,.24,2.38,10.3,10.3,0,0,1-.24,2.37h-1.78a10.58,10.58,0,0,1,.23,2.38,11,11,0,0,1-.23,2.38H223a9.92,9.92,0,0,1,.24,2.38,10.45,10.45,0,0,1-.24,2.38h5.35a9.92,9.92,0,0,1,.24,2.38,10.45,10.45,0,0,1-.24,2.38h-7.13a10.45,10.45,0,0,1-.24-2.38,9.92,9.92,0,0,1,.24-2.38h-3a10.45,10.45,0,0,1-.24-2.38,9.92,9.92,0,0,1,.24-2.38h-1.78a10.33,10.33,0,0,1-.24-2.38,10,10,0,0,1,.24-2.38h1.78a10.3,10.3,0,0,1-.24-2.37,9.86,9.86,0,0,1,.24-2.38h3a10.45,10.45,0,0,1-.24-2.38,9.92,9.92,0,0,1,.24-2.38h14.27a10.52,10.52,0,0,1,.23,2.38,11.1,11.1,0,0,1-.23,2.38A10.46,10.46,0,0,1,235.71,380.84Z"/><path class="cls-3" d="M258.07,392.73h-2.38a9.92,9.92,0,0,1,.24,2.38,10.45,10.45,0,0,1-.24,2.38H242.61a10.45,10.45,0,0,1-.24-2.38,9.92,9.92,0,0,1,.24-2.38h10.7a11.1,11.1,0,0,1-.23-2.38,10.52,10.52,0,0,1,.23-2.38H243.8a10.33,10.33,0,0,1-.24-2.38,10,10,0,0,1,.24-2.38h-2.38a10.3,10.3,0,0,1-.24-2.37,9.86,9.86,0,0,1,.24-2.38h2.38a10.45,10.45,0,0,1-.24-2.38,9.92,9.92,0,0,1,.24-2.38h13.08a9.92,9.92,0,0,1,.24,2.38,10.45,10.45,0,0,1-.24,2.38h-10.7a9.86,9.86,0,0,1,.24,2.38,10.3,10.3,0,0,1-.24,2.37h9.51a10,10,0,0,1,.24,2.38,10.33,10.33,0,0,1-.24,2.38h2.38a9.92,9.92,0,0,1,.24,2.38A10.45,10.45,0,0,1,258.07,392.73Z"/><path class="cls-3" d="M283.05,383.21a10.58,10.58,0,0,1,.23,2.38,11,11,0,0,1-.23,2.38H270.56a9.92,9.92,0,0,1,.24,2.38,10.45,10.45,0,0,1-.24,2.38h10.11a9.92,9.92,0,0,1,.24,2.38,10.45,10.45,0,0,1-.24,2.38H268.78a10.45,10.45,0,0,1-.24-2.38,9.92,9.92,0,0,1,.24-2.38h-3a10.45,10.45,0,0,1-.24-2.38,9.92,9.92,0,0,1,.24-2.38H264a10.33,10.33,0,0,1-.24-2.38,10,10,0,0,1,.24-2.38h1.78a10.3,10.3,0,0,1-.24-2.37,9.86,9.86,0,0,1,.24-2.38h3a10.45,10.45,0,0,1-.24-2.38,9.92,9.92,0,0,1,.24-2.38h11.89a9.92,9.92,0,0,1,.24,2.38,10.45,10.45,0,0,1-.24,2.38h2.38a10.46,10.46,0,0,1,.23,2.38A10.94,10.94,0,0,1,283.05,383.21Zm-5-2.37a9.86,9.86,0,0,1,.24-2.38h-7.73a9.86,9.86,0,0,1,.24,2.38,10.3,10.3,0,0,1-.24,2.37h7.73A10.3,10.3,0,0,1,278.05,380.84Z"/><path class="cls-3" d="M304.69,395.11a10.45,10.45,0,0,1-.24,2.38H290.18a10.45,10.45,0,0,1-.24-2.38,9.92,9.92,0,0,1,.24-2.38h4.76a10.45,10.45,0,0,1-.24-2.38,9.92,9.92,0,0,1,.24-2.38,10.33,10.33,0,0,1-.24-2.38,10,10,0,0,1,.24-2.38,10.3,10.3,0,0,1-.24-2.37,9.86,9.86,0,0,1,.24-2.38,10.45,10.45,0,0,1-.24-2.38,9.92,9.92,0,0,1,.24-2.38,10.39,10.39,0,0,1-.24-2.38,10,10,0,0,1,.24-2.38h-3.57a10.33,10.33,0,0,1-.24-2.38,9.83,9.83,0,0,1,.24-2.37h8.33a10.43,10.43,0,0,1,.23,2.37,11,11,0,0,1-.23,2.38,10.58,10.58,0,0,1,.23,2.38,11,11,0,0,1-.23,2.38,10.52,10.52,0,0,1,.23,2.38,11.1,11.1,0,0,1-.23,2.38,10.46,10.46,0,0,1,.23,2.38,10.94,10.94,0,0,1-.23,2.37,10.58,10.58,0,0,1,.23,2.38,11,11,0,0,1-.23,2.38,10.52,10.52,0,0,1,.23,2.38,11.1,11.1,0,0,1-.23,2.38h4.75A9.92,9.92,0,0,1,304.69,395.11Z"/><path class="cls-3" d="M323.72,371.32a10.39,10.39,0,0,1-.24,2.38,9.92,9.92,0,0,1,.24,2.38,10.45,10.45,0,0,1-.24,2.38,9.86,9.86,0,0,1,.24,2.38,10.3,10.3,0,0,1-.24,2.37,10,10,0,0,1,.24,2.38,10.33,10.33,0,0,1-.24,2.38h-4.76a10.33,10.33,0,0,1-.24-2.38,10,10,0,0,1,.24-2.38,10.3,10.3,0,0,1-.24-2.37,9.86,9.86,0,0,1,.24-2.38,10.45,10.45,0,0,1-.24-2.38,9.92,9.92,0,0,1,.24-2.38,10.39,10.39,0,0,1-.24-2.38,10,10,0,0,1,.24-2.38,10.33,10.33,0,0,1-.24-2.38,9.83,9.83,0,0,1,.24-2.37h4.76a9.83,9.83,0,0,1,.24,2.37,10.33,10.33,0,0,1-.24,2.38A10,10,0,0,1,323.72,371.32Zm-.24,21.41a9.92,9.92,0,0,1,.24,2.38,10.45,10.45,0,0,1-.24,2.38h-4.76a10.45,10.45,0,0,1-.24-2.38,9.92,9.92,0,0,1,.24-2.38Z"/></g></svg>
