<svg xmlns="http://www.w3.org/2000/svg" width="1920" height="1080" viewBox="0 0 1920 1080"><defs><style>.cls-1{fill:#d4e6f1;}.cls-2,.cls-8{opacity:0.4;}.cls-3{fill:#825d50;}.cls-4{fill:#e0dfc3;}.cls-5{fill:#f1fac2;}.cls-6{fill:#f7dc6f;}.cls-7{fill:#adb973;}.cls-17,.cls-8{fill:#7d825d;}.cls-14,.cls-9{opacity:0.5;}.cls-10{fill:#6e5038;}.cls-11,.cls-14{fill:#ff9c00;}.cls-12{fill:#ffb83c;}.cls-13{fill:#2c3c48;}.cls-15{fill:#62463c;}.cls-16{fill:#b6bb99;}.cls-18{fill:#fff;}.cls-19{fill:#393344;}.cls-20{fill:#cfcfcf;}.cls-21{fill:#c9ceac;}</style></defs><title>Baggrund</title><g id="Baggrund"><rect class="cls-1" x="39" y="107.84" width="1841" height="433"/><g class="cls-2"><path class="cls-3" d="M1070,486.54a252.35,252.35,0,0,1-19.78,43.79,206.78,206.78,0,0,1-35.54,46.28c-13.77,13.25-28.37,22.91-43.4,28.71l.14-32.39c23.42-9,45.49-30,62.15-59s26.27-64,26.41-96.05h23c-.09,20.55-2.8,33.85-8.69,54.88Q1072.35,479.7,1070,486.54Z"/></g><path class="cls-4" d="M1878.54,491l.46,0c-114.61-70.41-211.41-94-281.32-101.69-133.37-14.59-252.42,19.84-318.49,44.6-7.54,2.82-50.88,22.91-111.55,46.34-12.48,4.82-22.57,8.59-28.43,10.77H40V947.84H1882V491Z"/><path class="cls-5" d="M0,1079.84c640-33,1277,7,1920,0V942.39L0,843.28Z"/><circle class="cls-6" cx="1751.5" cy="236.34" r="89.5"/><path class="cls-7" d="M86.55,781s8.1,16.63,12.45,24.83,7,40,7,40l-21.77-.59L68,844.84s-3.1-24.18-1-32C69.4,803.88,86.55,781,86.55,781Z"/><path class="cls-7" d="M119.06,805.39s6,12.41,9.3,18.53,5.22,29.85,5.22,29.85l-16.25-.44L105.22,853s-2.31-18-.75-23.88C106.27,822.45,119.06,805.39,119.06,805.39Z"/><path class="cls-7" d="M146.06,805.39s6.05,12.41,9.3,18.53,5.22,29.85,5.22,29.85l-16.25-.44L132.22,853s-2.31-18-.75-23.88C133.27,822.45,146.06,805.39,146.06,805.39Z"/><path class="cls-7" d="M172.06,813.39s6.05,12.41,9.3,18.53,5.22,29.85,5.22,29.85l-16.25-.44L158.22,861s-2.31-18-.75-23.88C159.27,830.45,172.06,813.39,172.06,813.39Z"/><path class="cls-7" d="M202.06,805.39s6.05,12.41,9.3,18.53,5.22,29.85,5.22,29.85l-16.25-.44L188.22,853s-2.31-18-.75-23.88C189.27,822.45,202.06,805.39,202.06,805.39Z"/><path class="cls-7" d="M236.55,789s8.1,16.63,12.45,24.83,7,40,7,40l-21.77-.59L218,852.84s-3.1-24.18-1-32C219.4,811.88,236.55,789,236.55,789Z"/><path class="cls-7" d="M269.06,813.39s6.05,12.41,9.3,18.53,5.22,29.85,5.22,29.85l-16.25-.44L255.22,861s-2.31-18-.75-23.88C256.27,830.45,269.06,813.39,269.06,813.39Z"/><path class="cls-7" d="M296.06,813.39s6.05,12.41,9.3,18.53,5.22,29.85,5.22,29.85l-16.25-.44L282.22,861s-2.31-18-.75-23.88C283.27,830.45,296.06,813.39,296.06,813.39Z"/><path class="cls-7" d="M322.06,821.39s6.05,12.41,9.3,18.53,5.22,29.85,5.22,29.85l-16.25-.44L308.22,869s-2.31-18-.75-23.88C309.27,838.45,322.06,821.39,322.06,821.39Z"/><path class="cls-7" d="M352.06,813.39s6.05,12.41,9.3,18.53,5.22,29.85,5.22,29.85l-16.25-.44L338.22,861s-2.31-18-.75-23.88C339.27,830.45,352.06,813.39,352.06,813.39Z"/><path class="cls-7" d="M386.55,797s8.1,16.63,12.45,24.83,7,40,7,40l-21.77-.59L368,860.84s-3.1-24.18-1-32C369.4,819.88,386.55,797,386.55,797Z"/><path class="cls-7" d="M419.06,821.39s6.05,12.41,9.3,18.53,5.22,29.85,5.22,29.85l-16.25-.44L405.22,869s-2.31-18-.75-23.88C406.27,838.45,419.06,821.39,419.06,821.39Z"/><path class="cls-7" d="M446.06,821.39s6.05,12.41,9.3,18.53,5.22,29.85,5.22,29.85l-16.25-.44L432.22,869s-2.31-18-.75-23.88C433.27,838.45,446.06,821.39,446.06,821.39Z"/><path class="cls-7" d="M472.06,829.39s6.05,12.41,9.3,18.53,5.22,29.85,5.22,29.85l-16.25-.44L458.22,877s-2.31-18-.75-23.88C459.27,846.45,472.06,829.39,472.06,829.39Z"/><path class="cls-7" d="M502.06,821.39s6.05,12.41,9.3,18.53,5.22,29.85,5.22,29.85l-16.25-.44L488.22,869s-2.31-18-.75-23.88C489.27,838.45,502.06,821.39,502.06,821.39Z"/><path class="cls-5" d="M86.55,784s8.1,16.63,12.45,24.83,7,40,7,40l-21.77-.59L68,847.84s-3.1-24.18-1-32C69.4,806.88,86.55,784,86.55,784Z"/><path class="cls-5" d="M119.06,808.39s6,12.41,9.3,18.53,5.22,29.85,5.22,29.85l-16.25-.44L105.22,856s-2.31-18-.75-23.88C106.27,825.45,119.06,808.39,119.06,808.39Z"/><path class="cls-5" d="M146.06,808.39s6.05,12.41,9.3,18.53,5.22,29.85,5.22,29.85l-16.25-.44L132.22,856s-2.31-18-.75-23.88C133.27,825.45,146.06,808.39,146.06,808.39Z"/><path class="cls-5" d="M172.06,816.39s6.05,12.41,9.3,18.53,5.22,29.85,5.22,29.85l-16.25-.44L158.22,864s-2.31-18-.75-23.88C159.27,833.45,172.06,816.39,172.06,816.39Z"/><path class="cls-5" d="M202.06,808.39s6.05,12.41,9.3,18.53,5.22,29.85,5.22,29.85l-16.25-.44L188.22,856s-2.31-18-.75-23.88C189.27,825.45,202.06,808.39,202.06,808.39Z"/><path class="cls-5" d="M236.55,792s8.1,16.63,12.45,24.83,7,40,7,40l-21.77-.59L218,855.84s-3.1-24.18-1-32C219.4,814.88,236.55,792,236.55,792Z"/><path class="cls-5" d="M269.06,816.39s6.05,12.41,9.3,18.53,5.22,29.85,5.22,29.85l-16.25-.44L255.22,864s-2.31-18-.75-23.88C256.27,833.45,269.06,816.39,269.06,816.39Z"/><path class="cls-5" d="M296.06,816.39s6.05,12.41,9.3,18.53,5.22,29.85,5.22,29.85l-16.25-.44L282.22,864s-2.31-18-.75-23.88C283.27,833.45,296.06,816.39,296.06,816.39Z"/><path class="cls-5" d="M322.06,824.39s6.05,12.41,9.3,18.53,5.22,29.85,5.22,29.85l-16.25-.44L308.22,872s-2.31-18-.75-23.88C309.27,841.45,322.06,824.39,322.06,824.39Z"/><path class="cls-5" d="M352.06,816.39s6.05,12.41,9.3,18.53,5.22,29.85,5.22,29.85l-16.25-.44L338.22,864s-2.31-18-.75-23.88C339.27,833.45,352.06,816.39,352.06,816.39Z"/><path class="cls-5" d="M386.55,800s8.1,16.63,12.45,24.83,7,40,7,40l-21.77-.59L368,863.84s-3.1-24.18-1-32C369.4,822.88,386.55,800,386.55,800Z"/><path class="cls-5" d="M419.06,824.39s6.05,12.41,9.3,18.53,5.22,29.85,5.22,29.85l-16.25-.44L405.22,872s-2.31-18-.75-23.88C406.27,841.45,419.06,824.39,419.06,824.39Z"/><path class="cls-5" d="M446.06,824.39s6.05,12.41,9.3,18.53,5.22,29.85,5.22,29.85l-16.25-.44L432.22,872s-2.31-18-.75-23.88C433.27,841.45,446.06,824.39,446.06,824.39Z"/><path class="cls-5" d="M472.06,832.39s6.05,12.41,9.3,18.53,5.22,29.85,5.22,29.85l-16.25-.44L458.22,880s-2.31-18-.75-23.88C459.27,849.45,472.06,832.39,472.06,832.39Z"/><path class="cls-5" d="M502.06,824.39s6.05,12.41,9.3,18.53,5.22,29.85,5.22,29.85l-16.25-.44L488.22,872s-2.31-18-.75-23.88C489.27,841.45,502.06,824.39,502.06,824.39Z"/><path class="cls-7" d="M540.55,808s8.1,16.63,12.45,24.83,7,40,7,40l-21.77-.59L522,871.84s-3.1-24.18-1-32C523.4,830.88,540.55,808,540.55,808Z"/><path class="cls-7" d="M573.06,832.39s6.05,12.41,9.3,18.53,5.22,29.85,5.22,29.85l-16.25-.44L559.22,880s-2.31-18-.75-23.88C560.27,849.45,573.06,832.39,573.06,832.39Z"/><path class="cls-7" d="M600.06,832.39s6.05,12.41,9.3,18.53,5.22,29.85,5.22,29.85l-16.25-.44L586.22,880s-2.31-18-.75-23.88C587.27,849.45,600.06,832.39,600.06,832.39Z"/><path class="cls-7" d="M626.06,840.39s6.05,12.41,9.3,18.53,5.22,29.85,5.22,29.85l-16.25-.44L612.22,888s-2.31-18-.75-23.88C613.27,857.45,626.06,840.39,626.06,840.39Z"/><path class="cls-7" d="M656.06,832.39s6.05,12.41,9.3,18.53,5.22,29.85,5.22,29.85l-16.25-.44L642.22,880s-2.31-18-.75-23.88C643.27,849.45,656.06,832.39,656.06,832.39Z"/><path class="cls-7" d="M690.55,816s8.1,16.63,12.45,24.83,7,40,7,40l-21.77-.59L672,879.84s-3.1-24.18-1-32C673.4,838.88,690.55,816,690.55,816Z"/><path class="cls-7" d="M723.06,840.39s6.05,12.41,9.3,18.53,5.22,29.85,5.22,29.85l-16.25-.44L709.22,888s-2.31-18-.75-23.88C710.27,857.45,723.06,840.39,723.06,840.39Z"/><path class="cls-7" d="M750.06,840.39s6.05,12.41,9.3,18.53,5.22,29.85,5.22,29.85l-16.25-.44L736.22,888s-2.31-18-.75-23.88C737.27,857.45,750.06,840.39,750.06,840.39Z"/><path class="cls-7" d="M776.06,848.39s6.05,12.41,9.3,18.53,5.22,29.85,5.22,29.85l-16.25-.44L762.22,896s-2.31-18-.75-23.88C763.27,865.45,776.06,848.39,776.06,848.39Z"/><path class="cls-7" d="M806.06,840.39s6.05,12.41,9.3,18.53,5.22,29.85,5.22,29.85l-16.25-.44L792.22,888s-2.31-18-.75-23.88C793.27,857.45,806.06,840.39,806.06,840.39Z"/><path class="cls-7" d="M840.55,824s8.1,16.63,12.45,24.83,7,40,7,40l-21.77-.59L822,887.84s-3.1-24.18-1-32C823.4,846.88,840.55,824,840.55,824Z"/><path class="cls-7" d="M873.06,848.39s6.05,12.41,9.3,18.53,5.22,29.85,5.22,29.85l-16.25-.44L859.22,896s-2.31-18-.75-23.88C860.27,865.45,873.06,848.39,873.06,848.39Z"/><path class="cls-7" d="M900.06,848.39s6.05,12.41,9.3,18.53,5.22,29.85,5.22,29.85l-16.25-.44L886.22,896s-2.31-18-.75-23.88C887.27,865.45,900.06,848.39,900.06,848.39Z"/><path class="cls-7" d="M926.06,856.39s6.05,12.41,9.3,18.53,5.22,29.85,5.22,29.85l-16.25-.44L912.22,904s-2.31-18-.75-23.88C913.27,873.45,926.06,856.39,926.06,856.39Z"/><path class="cls-7" d="M956.06,848.39s6.05,12.41,9.3,18.53,5.22,29.85,5.22,29.85l-16.25-.44L942.22,896s-2.31-18-.75-23.88C943.27,865.45,956.06,848.39,956.06,848.39Z"/><path class="cls-5" d="M538.55,809s8.1,16.63,12.45,24.83,7,40,7,40l-21.77-.59L520,872.84s-3.1-24.18-1-32C521.4,831.88,538.55,809,538.55,809Z"/><path class="cls-5" d="M571.06,833.39s6.05,12.41,9.3,18.53,5.22,29.85,5.22,29.85l-16.25-.44L557.22,881s-2.31-18-.75-23.88C558.27,850.45,571.06,833.39,571.06,833.39Z"/><path class="cls-5" d="M598.06,833.39s6.05,12.41,9.3,18.53,5.22,29.85,5.22,29.85l-16.25-.44L584.22,881s-2.31-18-.75-23.88C585.27,850.45,598.06,833.39,598.06,833.39Z"/><path class="cls-5" d="M624.06,841.39s6.05,12.41,9.3,18.53,5.22,29.85,5.22,29.85l-16.25-.44L610.22,889s-2.31-18-.75-23.88C611.27,858.45,624.06,841.39,624.06,841.39Z"/><path class="cls-5" d="M654.06,833.39s6.05,12.41,9.3,18.53,5.22,29.85,5.22,29.85l-16.25-.44L640.22,881s-2.31-18-.75-23.88C641.27,850.45,654.06,833.39,654.06,833.39Z"/><path class="cls-5" d="M688.55,817s8.1,16.63,12.45,24.83,7,40,7,40l-21.77-.59L670,880.84s-3.1-24.18-1-32C671.4,839.88,688.55,817,688.55,817Z"/><path class="cls-5" d="M721.06,841.39s6.05,12.41,9.3,18.53,5.22,29.85,5.22,29.85l-16.25-.44L707.22,889s-2.31-18-.75-23.88C708.27,858.45,721.06,841.39,721.06,841.39Z"/><path class="cls-5" d="M748.06,841.39s6.05,12.41,9.3,18.53,5.22,29.85,5.22,29.85l-16.25-.44L734.22,889s-2.31-18-.75-23.88C735.27,858.45,748.06,841.39,748.06,841.39Z"/><path class="cls-5" d="M774.06,849.39s6.05,12.41,9.3,18.53,5.22,29.85,5.22,29.85l-16.25-.44L760.22,897s-2.31-18-.75-23.88C761.27,866.45,774.06,849.39,774.06,849.39Z"/><path class="cls-5" d="M804.06,841.39s6.05,12.41,9.3,18.53,5.22,29.85,5.22,29.85l-16.25-.44L790.22,889s-2.31-18-.75-23.88C791.27,858.45,804.06,841.39,804.06,841.39Z"/><path class="cls-5" d="M838.55,825s8.1,16.63,12.45,24.83,7,40,7,40l-21.77-.59L820,888.84s-3.1-24.18-1-32C821.4,847.88,838.55,825,838.55,825Z"/><path class="cls-5" d="M871.06,849.39s6.05,12.41,9.3,18.53,5.22,29.85,5.22,29.85l-16.25-.44L857.22,897s-2.31-18-.75-23.88C858.27,866.45,871.06,849.39,871.06,849.39Z"/><path class="cls-5" d="M898.06,849.39s6.05,12.41,9.3,18.53,5.22,29.85,5.22,29.85l-16.25-.44L884.22,897s-2.31-18-.75-23.88C885.27,866.45,898.06,849.39,898.06,849.39Z"/><path class="cls-5" d="M924.06,857.39s6.05,12.41,9.3,18.53,5.22,29.85,5.22,29.85l-16.25-.44L910.22,905s-2.31-18-.75-23.88C911.27,874.45,924.06,857.39,924.06,857.39Z"/><path class="cls-5" d="M954.06,849.39s6.05,12.41,9.3,18.53,5.22,29.85,5.22,29.85l-16.25-.44L940.22,897s-2.31-18-.75-23.88C941.27,866.45,954.06,849.39,954.06,849.39Z"/><path class="cls-7" d="M995.55,832s8.1,16.63,12.45,24.83,7,40,7,40l-21.77-.59L977,895.84s-3.1-24.18-1-32C978.4,854.88,995.55,832,995.55,832Z"/><path class="cls-7" d="M1028.06,856.39s6,12.41,9.3,18.53,5.22,29.85,5.22,29.85l-16.25-.44-12.11-.31s-2.31-18-.75-23.88C1015.27,873.45,1028.06,856.39,1028.06,856.39Z"/><path class="cls-7" d="M1055.06,856.39s6,12.41,9.3,18.53,5.22,29.85,5.22,29.85l-16.25-.44-12.11-.31s-2.31-18-.75-23.88C1042.27,873.45,1055.06,856.39,1055.06,856.39Z"/><path class="cls-7" d="M1081.06,864.39s6,12.41,9.3,18.53,5.22,29.85,5.22,29.85l-16.25-.44-12.11-.31s-2.31-18-.75-23.88C1068.27,881.45,1081.06,864.39,1081.06,864.39Z"/><path class="cls-7" d="M1111.06,856.39s6,12.41,9.3,18.53,5.22,29.85,5.22,29.85l-16.25-.44-12.11-.31s-2.31-18-.75-23.88C1098.27,873.45,1111.06,856.39,1111.06,856.39Z"/><path class="cls-7" d="M1145.55,840s8.1,16.63,12.45,24.83,7,40,7,40l-21.77-.59-16.23-.41s-3.1-24.18-1-32C1128.4,862.88,1145.55,840,1145.55,840Z"/><path class="cls-7" d="M1178.06,864.39s6,12.41,9.3,18.53,5.22,29.85,5.22,29.85l-16.25-.44-12.11-.31s-2.31-18-.75-23.88C1165.27,881.45,1178.06,864.39,1178.06,864.39Z"/><path class="cls-7" d="M1205.06,864.39s6,12.41,9.3,18.53,5.22,29.85,5.22,29.85l-16.25-.44-12.11-.31s-2.31-18-.75-23.88C1192.27,881.45,1205.06,864.39,1205.06,864.39Z"/><path class="cls-7" d="M1231.06,872.39s6,12.41,9.3,18.53,5.22,29.85,5.22,29.85l-16.25-.44-12.11-.31s-2.31-18-.75-23.88C1218.27,889.45,1231.06,872.39,1231.06,872.39Z"/><path class="cls-7" d="M1261.06,864.39s6,12.41,9.3,18.53,5.22,29.85,5.22,29.85l-16.25-.44-12.11-.31s-2.31-18-.75-23.88C1248.27,881.45,1261.06,864.39,1261.06,864.39Z"/><path class="cls-7" d="M1295.55,848s8.1,16.63,12.45,24.83,7,40,7,40l-21.77-.59-16.23-.41s-3.1-24.18-1-32C1278.4,870.88,1295.55,848,1295.55,848Z"/><path class="cls-7" d="M1328.06,872.39s6,12.41,9.3,18.53,5.22,29.85,5.22,29.85l-16.25-.44-12.11-.31s-2.31-18-.75-23.88C1315.27,889.45,1328.06,872.39,1328.06,872.39Z"/><path class="cls-7" d="M1355.06,872.39s6,12.41,9.3,18.53,5.22,29.85,5.22,29.85l-16.25-.44-12.11-.31s-2.31-18-.75-23.88C1342.27,889.45,1355.06,872.39,1355.06,872.39Z"/><path class="cls-7" d="M1381.06,880.39s6,12.41,9.3,18.53,5.22,29.85,5.22,29.85l-16.25-.44-12.11-.31s-2.31-18-.75-23.88C1368.27,897.45,1381.06,880.39,1381.06,880.39Z"/><path class="cls-7" d="M1411.06,872.39s6,12.41,9.3,18.53,5.22,29.85,5.22,29.85l-16.25-.44-12.11-.31s-2.31-18-.75-23.88C1398.27,889.45,1411.06,872.39,1411.06,872.39Z"/><path class="cls-5" d="M993.55,833s8.1,16.63,12.45,24.83,7,40,7,40l-21.77-.59L975,896.84s-3.1-24.18-1-32C976.4,855.88,993.55,833,993.55,833Z"/><path class="cls-5" d="M1026.06,857.39s6,12.41,9.3,18.53,5.22,29.85,5.22,29.85l-16.25-.44-12.11-.31s-2.31-18-.75-23.88C1013.27,874.45,1026.06,857.39,1026.06,857.39Z"/><path class="cls-5" d="M1053.06,857.39s6,12.41,9.3,18.53,5.22,29.85,5.22,29.85l-16.25-.44-12.11-.31s-2.31-18-.75-23.88C1040.27,874.45,1053.06,857.39,1053.06,857.39Z"/><path class="cls-5" d="M1079.06,865.39s6,12.41,9.3,18.53,5.22,29.85,5.22,29.85l-16.25-.44-12.11-.31s-2.31-18-.75-23.88C1066.27,882.45,1079.06,865.39,1079.06,865.39Z"/><path class="cls-5" d="M1109.06,857.39s6,12.41,9.3,18.53,5.22,29.85,5.22,29.85l-16.25-.44-12.11-.31s-2.31-18-.75-23.88C1096.27,874.45,1109.06,857.39,1109.06,857.39Z"/><path class="cls-5" d="M1143.55,841s8.1,16.63,12.45,24.83,7,40,7,40l-21.77-.59-16.23-.41s-3.1-24.18-1-32C1126.4,863.88,1143.55,841,1143.55,841Z"/><path class="cls-5" d="M1176.06,865.39s6,12.41,9.3,18.53,5.22,29.85,5.22,29.85l-16.25-.44-12.11-.31s-2.31-18-.75-23.88C1163.27,882.45,1176.06,865.39,1176.06,865.39Z"/><path class="cls-5" d="M1203.06,865.39s6,12.41,9.3,18.53,5.22,29.85,5.22,29.85l-16.25-.44-12.11-.31s-2.31-18-.75-23.88C1190.27,882.45,1203.06,865.39,1203.06,865.39Z"/><path class="cls-5" d="M1229.06,873.39s6,12.41,9.3,18.53,5.22,29.85,5.22,29.85l-16.25-.44-12.11-.31s-2.31-18-.75-23.88C1216.27,890.45,1229.06,873.39,1229.06,873.39Z"/><path class="cls-5" d="M1259.06,865.39s6,12.41,9.3,18.53,5.22,29.85,5.22,29.85l-16.25-.44-12.11-.31s-2.31-18-.75-23.88C1246.27,882.45,1259.06,865.39,1259.06,865.39Z"/><path class="cls-5" d="M1293.55,849s8.1,16.63,12.45,24.83,7,40,7,40l-21.77-.59-16.23-.41s-3.1-24.18-1-32C1276.4,871.88,1293.55,849,1293.55,849Z"/><path class="cls-5" d="M1326.06,873.39s6,12.41,9.3,18.53,5.22,29.85,5.22,29.85l-16.25-.44-12.11-.31s-2.31-18-.75-23.88C1313.27,890.45,1326.06,873.39,1326.06,873.39Z"/><path class="cls-5" d="M1353.06,873.39s6,12.41,9.3,18.53,5.22,29.85,5.22,29.85l-16.25-.44-12.11-.31s-2.31-18-.75-23.88C1340.27,890.45,1353.06,873.39,1353.06,873.39Z"/><path class="cls-5" d="M1379.06,881.39s6,12.41,9.3,18.53,5.22,29.85,5.22,29.85l-16.25-.44-12.11-.31s-2.31-18-.75-23.88C1366.27,898.45,1379.06,881.39,1379.06,881.39Z"/><path class="cls-5" d="M1409.06,873.39s6,12.41,9.3,18.53,5.22,29.85,5.22,29.85l-16.25-.44-12.11-.31s-2.31-18-.75-23.88C1396.27,890.45,1409.06,873.39,1409.06,873.39Z"/><path class="cls-7" d="M1453.55,864s8.1,16.63,12.45,24.83,7,40,7,40l-21.77-.59-16.23-.41s-3.1-24.18-1-32C1436.4,886.88,1453.55,864,1453.55,864Z"/><path class="cls-7" d="M1486.06,888.39s6,12.41,9.3,18.53,5.22,29.85,5.22,29.85l-16.25-.44-12.11-.31s-2.31-18-.75-23.88C1473.27,905.45,1486.06,888.39,1486.06,888.39Z"/><path class="cls-7" d="M1513.06,888.39s6,12.41,9.3,18.53,5.22,29.85,5.22,29.85l-16.25-.44-12.11-.31s-2.31-18-.75-23.88C1500.27,905.45,1513.06,888.39,1513.06,888.39Z"/><path class="cls-7" d="M1539.06,896.39s6,12.41,9.3,18.53,5.22,29.85,5.22,29.85l-16.25-.44-12.11-.31s-2.31-18-.75-23.88C1526.27,913.45,1539.06,896.39,1539.06,896.39Z"/><path class="cls-7" d="M1569.06,888.39s6,12.41,9.3,18.53,5.22,29.85,5.22,29.85l-16.25-.44-12.11-.31s-2.31-18-.75-23.88C1556.27,905.45,1569.06,888.39,1569.06,888.39Z"/><path class="cls-7" d="M1603.55,872s8.1,16.63,12.45,24.83,7,40,7,40l-21.77-.59-16.23-.41s-3.1-24.18-1-32C1586.4,894.88,1603.55,872,1603.55,872Z"/><path class="cls-7" d="M1636.06,896.39s6,12.41,9.3,18.53,5.22,29.85,5.22,29.85l-16.25-.44-12.11-.31s-2.31-18-.75-23.88C1623.27,913.45,1636.06,896.39,1636.06,896.39Z"/><path class="cls-7" d="M1663.06,896.39s6,12.41,9.3,18.53,5.22,29.85,5.22,29.85l-16.25-.44-12.11-.31s-2.31-18-.75-23.88C1650.27,913.45,1663.06,896.39,1663.06,896.39Z"/><path class="cls-7" d="M1689.06,904.39s6,12.41,9.3,18.53,5.22,29.85,5.22,29.85l-16.25-.44-12.11-.31s-2.31-18-.75-23.88C1676.27,921.45,1689.06,904.39,1689.06,904.39Z"/><path class="cls-7" d="M1719.06,896.39s6,12.41,9.3,18.53,5.22,29.85,5.22,29.85l-16.25-.44-12.11-.31s-2.31-18-.75-23.88C1706.27,913.45,1719.06,896.39,1719.06,896.39Z"/><path class="cls-7" d="M1753.55,880s8.1,16.63,12.45,24.83,7,40,7,40l-21.77-.59-16.23-.41s-3.1-24.18-1-32C1736.4,902.88,1753.55,880,1753.55,880Z"/><path class="cls-7" d="M1786.06,904.39s6,12.41,9.3,18.53,5.22,29.85,5.22,29.85l-16.25-.44-12.11-.31s-2.31-18-.75-23.88C1773.27,921.45,1786.06,904.39,1786.06,904.39Z"/><path class="cls-7" d="M1813.06,904.39s6,12.41,9.3,18.53,5.22,29.85,5.22,29.85l-16.25-.44-12.11-.31s-2.31-18-.75-23.88C1800.27,921.45,1813.06,904.39,1813.06,904.39Z"/><path class="cls-7" d="M1839.06,912.39s6,12.41,9.3,18.53,5.22,29.85,5.22,29.85l-16.25-.44-12.11-.31s-2.31-18-.75-23.88C1826.27,929.45,1839.06,912.39,1839.06,912.39Z"/><path class="cls-7" d="M1869.06,904.39s6,12.41,9.3,18.53,5.22,29.85,5.22,29.85l-16.25-.44-12.11-.31s-2.31-18-.75-23.88C1856.27,921.45,1869.06,904.39,1869.06,904.39Z"/><path class="cls-5" d="M1451.55,866s8.1,16.63,12.45,24.83,7,40,7,40l-21.77-.59-16.23-.41s-3.1-24.18-1-32C1434.4,888.88,1451.55,866,1451.55,866Z"/><path class="cls-5" d="M1484.06,890.39s6,12.41,9.3,18.53,5.22,29.85,5.22,29.85l-16.25-.44-12.11-.31s-2.31-18-.75-23.88C1471.27,907.45,1484.06,890.39,1484.06,890.39Z"/><path class="cls-5" d="M1511.06,890.39s6,12.41,9.3,18.53,5.22,29.85,5.22,29.85l-16.25-.44-12.11-.31s-2.31-18-.75-23.88C1498.27,907.45,1511.06,890.39,1511.06,890.39Z"/><path class="cls-5" d="M1537.06,898.39s6,12.41,9.3,18.53,5.22,29.85,5.22,29.85l-16.25-.44-12.11-.31s-2.31-18-.75-23.88C1524.27,915.45,1537.06,898.39,1537.06,898.39Z"/><path class="cls-5" d="M1567.06,890.39s6,12.41,9.3,18.53,5.22,29.85,5.22,29.85l-16.25-.44-12.11-.31s-2.31-18-.75-23.88C1554.27,907.45,1567.06,890.39,1567.06,890.39Z"/><path class="cls-5" d="M1601.55,874s8.1,16.63,12.45,24.83,7,40,7,40l-21.77-.59-16.23-.41s-3.1-24.18-1-32C1584.4,896.88,1601.55,874,1601.55,874Z"/><path class="cls-5" d="M1634.06,898.39s6,12.41,9.3,18.53,5.22,29.85,5.22,29.85l-16.25-.44-12.11-.31s-2.31-18-.75-23.88C1621.27,915.45,1634.06,898.39,1634.06,898.39Z"/><path class="cls-5" d="M1661.06,898.39s6,12.41,9.3,18.53,5.22,29.85,5.22,29.85l-16.25-.44-12.11-.31s-2.31-18-.75-23.88C1648.27,915.45,1661.06,898.39,1661.06,898.39Z"/><path class="cls-5" d="M1687.06,906.39s6,12.41,9.3,18.53,5.22,29.85,5.22,29.85l-16.25-.44-12.11-.31s-2.31-18-.75-23.88C1674.27,923.45,1687.06,906.39,1687.06,906.39Z"/><path class="cls-5" d="M1717.06,898.39s6,12.41,9.3,18.53,5.22,29.85,5.22,29.85l-16.25-.44-12.11-.31s-2.31-18-.75-23.88C1704.27,915.45,1717.06,898.39,1717.06,898.39Z"/><path class="cls-5" d="M1751.55,882s8.1,16.63,12.45,24.83,7,40,7,40l-21.77-.59-16.23-.41s-3.1-24.18-1-32C1734.4,904.88,1751.55,882,1751.55,882Z"/><path class="cls-5" d="M1784.06,906.39s6,12.41,9.3,18.53,5.22,29.85,5.22,29.85l-16.25-.44-12.11-.31s-2.31-18-.75-23.88C1771.27,923.45,1784.06,906.39,1784.06,906.39Z"/><path class="cls-5" d="M1811.06,906.39s6,12.41,9.3,18.53,5.22,29.85,5.22,29.85l-16.25-.44-12.11-.31s-2.31-18-.75-23.88C1798.27,923.45,1811.06,906.39,1811.06,906.39Z"/><path class="cls-5" d="M1837.06,914.39s6,12.41,9.3,18.53,5.22,29.85,5.22,29.85l-16.25-.44-12.11-.31s-2.31-18-.75-23.88C1824.27,931.45,1837.06,914.39,1837.06,914.39Z"/><path class="cls-5" d="M1867.06,906.39s6,12.41,9.3,18.53,5.22,29.85,5.22,29.85l-16.25-.44-12.11-.31s-2.31-18-.75-23.88C1854.27,923.45,1867.06,906.39,1867.06,906.39Z"/><path class="cls-8" d="M1159.06,371.3h-6.29a5.79,5.79,0,0,0,0-.72v-4.33a8,8,0,0,0,7.94-7.94v-7a8,8,0,0,0-7.94-7.93h-6.59a8,8,0,0,0-7.84-6.74H1027a8,8,0,0,0-7.84,6.74h-7.79a8,8,0,0,0-7.94,7.93v7a8,8,0,0,0,4.81,7.29v5a5.79,5.79,0,0,0,0,.72h0a8,8,0,0,0-7.94,7.94v7a8,8,0,0,0,7.94,7.94h.24v3.61a8,8,0,0,0,7.94,7.93h9.62v3.61a8,8,0,0,0,7.94,7.94h84.66a8,8,0,0,0,7.94-7.94v-3.61h21.65a8,8,0,0,0,7.94-7.93v-3.61h2.88a8,8,0,0,0,7.94-7.94v-7A8,8,0,0,0,1159.06,371.3Z"/><g class="cls-9"><g class="cls-9"><rect class="cls-10" x="865.25" y="272.27" width="3.99" height="8.52" rx="2"/><rect class="cls-10" x="871.11" y="272.27" width="3.99" height="8.52" rx="2"/><polygon class="cls-11" points="800 490.63 788.82 490.63 786.96 422.99 801.6 422.99 800 490.63"/><polygon class="cls-11" points="886.55 490.63 875.37 490.63 873.5 422.99 888.15 422.99 886.55 490.63"/><path class="cls-12" d="M903.7,286.53l-29.82-8a11.44,11.44,0,0,0-3-.42c-7.8,0-14.11,8-14.11,17.85a21.26,21.26,0,0,0,2.21,9.58h-.08l-4.12,78.83H802.67a32.85,32.85,0,0,0-32.76,32.75v4.53c0,.44,0,.89,0,1.33h0l1.87,67.64H783l1-42.13a32.5,32.5,0,0,0,18.71,5.91h54.12l1,36.22H869l.91-38.14a32.88,32.88,0,0,0,21.73-30.83v-4.53a32.38,32.38,0,0,0-3.71-15.08l-4.25-95.83a9.07,9.07,0,0,0,1.57.13h18.91A9.88,9.88,0,0,0,914,296.5h0C914,291.08,910,285.85,903.7,286.53Z"/><ellipse class="cls-12" cx="857.39" cy="282.78" rx="4.39" ry="9.19" transform="translate(5.1 580.58) rotate(-37.51)"/><ellipse class="cls-11" cx="856.5" cy="281.48" rx="2.65" ry="5.53" transform="translate(5.71 579.77) rotate(-37.51)"/><rect class="cls-13" x="771.78" y="486.37" width="11.18" height="4.26"/><rect class="cls-13" x="788.82" y="486.37" width="11.18" height="4.26"/><rect class="cls-13" x="857.79" y="486.37" width="11.18" height="4.26"/><rect class="cls-13" x="875.37" y="486.37" width="11.18" height="4.26"/><circle class="cls-13" cx="877.23" cy="288.78" r="2.13"/><circle class="cls-10" cx="800.14" cy="417" r="8.92"/><circle class="cls-10" cx="849.67" cy="409.28" r="13.71"/><path class="cls-10" d="M831.69,384.51a13.72,13.72,0,0,1-27.43,0"/><path class="cls-10" d="M885.19,342a11.37,11.37,0,1,1-1.12-22.71"/><path class="cls-10" d="M856.78,345.81a7.88,7.88,0,1,1-.77,15.75"/><circle class="cls-10" cx="824.1" cy="435.64" r="6.26"/><circle class="cls-10" cx="875.5" cy="373.86" r="6.26"/><circle class="cls-10" cx="879.09" cy="424.85" r="7.99"/><path class="cls-12" d="M760.76,424.85h-3.9a27.73,27.73,0,0,1,27.7-27.69v3.89A23.82,23.82,0,0,0,760.76,424.85Z"/><circle class="cls-10" cx="758.59" cy="423.92" r="3.59"/><circle class="cls-10" cx="758.2" cy="426.72" r="2.66"/><path class="cls-14" d="M903.59,286.51A9.13,9.13,0,0,1,914,296.23c-.36,5.51-4.17,10-9.32,10"/></g></g></g><g id="Spilkarakterer"><path class="cls-15" d="M300.32,621.33a562.86,562.86,0,0,1-78.73,116.76c-40.29,46-86.42,83.6-137.11,111.66C32,878.81-23.12,896.33-79.26,901.81l4.85-98c87.49-8.55,171.61-54.33,236.87-128.9S266.3,505.9,271.09,409l88.48-8.65A544.61,544.61,0,0,1,318,582.92Q309.84,602.51,300.32,621.33Z"/><path class="cls-16" d="M624.67,247.35H602.22c.08-.85.13-1.71.13-2.58V229.32A28.42,28.42,0,0,0,630.68,201v-24.9a28.42,28.42,0,0,0-28.33-28.33H578.84a28.44,28.44,0,0,0-28-24H153.33a28.44,28.44,0,0,0-28,24H97.52a28.42,28.42,0,0,0-28.33,28.33V201a28.43,28.43,0,0,0,17.17,26v17.76c0,.87,0,1.73.12,2.58h-.12A28.42,28.42,0,0,0,58,275.68v24.9a28.42,28.42,0,0,0,28.33,28.33h.86v12.88a28.42,28.42,0,0,0,28.33,28.33h34.34V383a28.42,28.42,0,0,0,28.33,28.33H480.43A28.42,28.42,0,0,0,508.76,383V370.12H586a28.42,28.42,0,0,0,28.34-28.33V328.91h10.3A28.42,28.42,0,0,0,653,300.58v-24.9A28.42,28.42,0,0,0,624.67,247.35Z"/><path class="cls-17" d="M614.67,255.35H592.22c.08-.85.13-1.71.13-2.58V237.32A28.42,28.42,0,0,0,620.68,209v-24.9a28.42,28.42,0,0,0-28.33-28.33H568.84a28.44,28.44,0,0,0-28-24H143.33a28.44,28.44,0,0,0-28,24H87.52a28.42,28.42,0,0,0-28.33,28.33V209a28.43,28.43,0,0,0,17.17,26v17.76c0,.87,0,1.73.12,2.58h-.12A28.42,28.42,0,0,0,48,283.68v24.9a28.42,28.42,0,0,0,28.33,28.33h.86v12.88a28.42,28.42,0,0,0,28.33,28.33h34.34V391a28.42,28.42,0,0,0,28.33,28.33H470.43A28.42,28.42,0,0,0,498.76,391V378.12H576a28.42,28.42,0,0,0,28.34-28.33V336.91h10.3A28.42,28.42,0,0,0,643,308.58v-24.9A28.42,28.42,0,0,0,614.67,255.35Z"/><rect class="cls-18" x="38" y="29.84" width="1842" height="79"/><path class="cls-18" d="M1918,1080.84H-2V.84H1918ZM37.18,1042.27H1878.82V39.41H37.18Z"/><path class="cls-19" d="M1868.78,1082.16H51.22a53.18,53.18,0,0,1-53.22-53V52.84a53.18,53.18,0,0,1,53.22-53H1868.78a53.17,53.17,0,0,1,53.22,53v976.32A53.17,53.17,0,0,1,1868.78,1082.16Zm13-1029.32a13.21,13.21,0,0,0-13-13H51.22a13.2,13.2,0,0,0-13,13c0,118.16-3.46,215.55,0,503.92.23,19.4.07,33.83,0,39.46,0,0-.67,386.1,0,432.94A13.41,13.41,0,0,0,42,1038.3a13,13,0,0,0,9.18,3.86H1868.78a13.21,13.21,0,0,0,13-13"/><circle class="cls-20" cx="961" cy="19.84" r="11"/><path class="cls-21" d="M1133.5,707.79s3.71,6.35,5.68,9.47,4,15.65,4,15.65l-8.65.42-6.45.32s-2-9.49-1.36-12.65C1127.39,717.37,1133.5,707.79,1133.5,707.79Z"/><path class="cls-21" d="M1147.12,716.48s2.77,4.74,4.24,7.07,3,11.68,3,11.68l-6.46.31-4.81.24s-1.46-7.08-1-9.44C1142.56,723.63,1147.12,716.48,1147.12,716.48Z"/><path class="cls-21" d="M1157.83,715.67s2.77,4.74,4.24,7.07,3,11.68,3,11.68l-6.46.31-4.81.24s-1.46-7.08-1-9.45C1153.27,722.82,1157.83,715.67,1157.83,715.67Z"/><path class="cls-21" d="M1168.37,718.06s2.78,4.74,4.25,7.07,3,11.68,3,11.68l-6.45.31-4.81.24s-1.46-7.08-1-9.44C1163.81,725.21,1168.37,718.06,1168.37,718.06Z"/><path class="cls-21" d="M1180,714s2.77,4.74,4.24,7.06,3,11.68,3,11.68l-6.46.32-4.81.24s-1.46-7.09-1-9.45C1175.47,721.14,1180,714,1180,714Z"/><path class="cls-21" d="M1193.21,706.46s3.71,6.35,5.68,9.47,4,15.65,4,15.65l-8.65.42-6.45.32s-2-9.49-1.36-12.66C1187.1,716,1193.21,706.46,1193.21,706.46Z"/><path class="cls-21" d="M1206.83,715.15s2.77,4.73,4.24,7.06,3,11.68,3,11.68l-6.45.32-4.82.24s-1.45-7.09-1-9.45C1202.27,722.3,1206.83,715.15,1206.83,715.15Z"/><path class="cls-21" d="M1217.54,714.34s2.77,4.73,4.24,7.06,3,11.68,3,11.68l-6.46.32-4.81.24s-1.46-7.09-1-9.45C1213,721.49,1217.54,714.34,1217.54,714.34Z"/><path class="cls-21" d="M1228.09,716.73s2.77,4.73,4.24,7.06,3,11.68,3,11.68l-6.46.32L1224,736s-1.46-7.09-1-9.45C1223.52,723.88,1228.09,716.73,1228.09,716.73Z"/><path class="cls-21" d="M1239.74,712.65s2.77,4.74,4.24,7.07,3,11.68,3,11.68l-6.46.31-4.81.25s-1.46-7.09-1-9.45C1235.18,719.8,1239.74,712.65,1239.74,712.65Z"/><path class="cls-21" d="M1252.92,705.13s3.71,6.35,5.68,9.46,4,15.65,4,15.65l-8.65.42-6.45.33s-2-9.49-1.35-12.66C1246.81,714.71,1252.92,705.13,1252.92,705.13Z"/><path class="cls-21" d="M1266.54,713.81s2.77,4.74,4.24,7.07,3,11.68,3,11.68l-6.45.31-4.81.25s-1.46-7.09-1-9.45C1262,721,1266.54,713.81,1266.54,713.81Z"/><path class="cls-21" d="M1277.25,713s2.77,4.74,4.24,7.07,3,11.68,3,11.68l-6.46.31-4.81.24s-1.46-7.08-1-9.44C1272.69,720.15,1277.25,713,1277.25,713Z"/><path class="cls-21" d="M1287.8,715.39s2.77,4.74,4.24,7.07,3,11.68,3,11.68l-6.46.31-4.81.25s-1.46-7.09-1-9.45C1283.24,722.54,1287.8,715.39,1287.8,715.39Z"/><path class="cls-21" d="M1299.45,711.32s2.77,4.74,4.24,7.07,3,11.68,3,11.68l-6.46.31-4.81.24s-1.46-7.08-1-9.44C1294.89,718.47,1299.45,711.32,1299.45,711.32Z"/><path class="cls-21" d="M607.5,704.79s3.71,6.35,5.68,9.47,4,15.65,4,15.65l-8.65.42-6.45.32s-1.95-9.49-1.36-12.65C601.39,714.37,607.5,704.79,607.5,704.79Z"/><path class="cls-21" d="M621.12,713.48s2.77,4.74,4.24,7.07,3,11.68,3,11.68l-6.46.31-4.81.24s-1.46-7.08-1-9.44C616.56,720.63,621.12,713.48,621.12,713.48Z"/><path class="cls-21" d="M631.83,712.67s2.77,4.74,4.24,7.07,3,11.68,3,11.68l-6.46.31-4.81.24s-1.46-7.08-1-9.45C627.27,719.82,631.83,712.67,631.83,712.67Z"/><path class="cls-21" d="M642.37,715.06s2.78,4.74,4.25,7.07,3,11.68,3,11.68l-6.45.31-4.81.24s-1.46-7.08-1-9.44C637.81,722.21,642.37,715.06,642.37,715.06Z"/><path class="cls-21" d="M654,711s2.77,4.74,4.24,7.06,3,11.68,3,11.68l-6.46.32-4.81.24s-1.46-7.09-1-9.45C649.47,718.14,654,711,654,711Z"/><path class="cls-21" d="M667.21,703.46s3.71,6.35,5.68,9.47,4,15.65,4,15.65l-8.65.42-6.45.32s-1.95-9.49-1.36-12.66C661.1,713,667.21,703.46,667.21,703.46Z"/><path class="cls-21" d="M680.83,712.15s2.77,4.73,4.24,7.06,3,11.68,3,11.68l-6.45.32-4.82.24s-1.45-7.09-1-9.45C676.27,719.3,680.83,712.15,680.83,712.15Z"/><path class="cls-21" d="M691.54,711.34s2.77,4.73,4.24,7.06,3,11.68,3,11.68l-6.46.32-4.81.24s-1.46-7.09-1-9.45C687,718.49,691.54,711.34,691.54,711.34Z"/><path class="cls-21" d="M702.09,713.73s2.77,4.73,4.24,7.06,3,11.68,3,11.68l-6.46.32L698,733s-1.46-7.09-1-9.45C697.52,720.88,702.09,713.73,702.09,713.73Z"/><path class="cls-21" d="M713.74,709.65s2.77,4.74,4.24,7.07,3,11.68,3,11.68l-6.46.31-4.81.25s-1.46-7.09-1-9.45C709.18,716.8,713.74,709.65,713.74,709.65Z"/><path class="cls-21" d="M726.92,702.13s3.71,6.35,5.68,9.46,4,15.65,4,15.65l-8.65.42-6.45.33s-2-9.49-1.35-12.66C720.81,711.71,726.92,702.13,726.92,702.13Z"/><path class="cls-21" d="M740.54,710.81s2.77,4.74,4.24,7.07,3,11.68,3,11.68l-6.45.31-4.81.25s-1.46-7.09-1-9.45C736,718,740.54,710.81,740.54,710.81Z"/><path class="cls-21" d="M751.25,710s2.77,4.74,4.24,7.07,3,11.68,3,11.68l-6.46.31-4.81.24s-1.46-7.08-1-9.44C746.69,717.15,751.25,710,751.25,710Z"/><path class="cls-21" d="M761.8,712.39s2.77,4.74,4.24,7.07,3,11.68,3,11.68l-6.46.31-4.81.25s-1.46-7.09-1-9.45C757.24,719.54,761.8,712.39,761.8,712.39Z"/><path class="cls-21" d="M773.45,708.32s2.77,4.74,4.24,7.07,3,11.68,3,11.68l-6.46.31-4.81.24s-1.46-7.08-1-9.44C768.89,715.47,773.45,708.32,773.45,708.32Z"/><path class="cls-21" d="M1299.5,514.79s3.71,6.35,5.68,9.47,4,15.65,4,15.65l-8.65.42-6.45.32s-2-9.49-1.36-12.65C1293.39,524.37,1299.5,514.79,1299.5,514.79Z"/><path class="cls-21" d="M1313.12,523.48s2.77,4.74,4.24,7.07,3,11.68,3,11.68l-6.46.31-4.81.24s-1.46-7.08-1-9.44C1308.56,530.63,1313.12,523.48,1313.12,523.48Z"/><path class="cls-21" d="M1323.83,522.67s2.77,4.74,4.24,7.07,3,11.68,3,11.68l-6.46.31-4.81.24s-1.46-7.08-1-9.45C1319.27,529.82,1323.83,522.67,1323.83,522.67Z"/><path class="cls-21" d="M1334.37,525.06s2.78,4.74,4.25,7.07,3,11.68,3,11.68l-6.45.31-4.81.24s-1.46-7.08-1-9.44C1329.81,532.21,1334.37,525.06,1334.37,525.06Z"/><path class="cls-21" d="M1346,521s2.77,4.74,4.24,7.06,3,11.68,3,11.68l-6.46.32-4.81.24s-1.46-7.09-1-9.45C1341.47,528.14,1346,521,1346,521Z"/><path class="cls-21" d="M1359.21,513.46s3.71,6.35,5.68,9.47,4,15.65,4,15.65l-8.65.42-6.45.32s-2-9.49-1.36-12.66C1353.1,523,1359.21,513.46,1359.21,513.46Z"/><path class="cls-21" d="M1372.83,522.15s2.77,4.73,4.24,7.06,3,11.68,3,11.68l-6.45.32-4.82.24s-1.45-7.09-1-9.45C1368.27,529.3,1372.83,522.15,1372.83,522.15Z"/><path class="cls-21" d="M1383.54,521.34s2.77,4.73,4.24,7.06,3,11.68,3,11.68l-6.46.32-4.81.24s-1.46-7.09-1-9.45C1379,528.49,1383.54,521.34,1383.54,521.34Z"/><path class="cls-21" d="M1394.09,523.73s2.77,4.73,4.24,7.06,3,11.68,3,11.68l-6.46.32L1390,543s-1.46-7.09-1-9.45C1389.52,530.88,1394.09,523.73,1394.09,523.73Z"/><path class="cls-21" d="M1405.74,519.65s2.77,4.74,4.24,7.07,3,11.68,3,11.68l-6.46.31-4.81.25s-1.46-7.09-1-9.45C1401.18,526.8,1405.74,519.65,1405.74,519.65Z"/><path class="cls-21" d="M1418.92,512.13s3.71,6.35,5.68,9.46,4,15.65,4,15.65l-8.65.42-6.45.33s-2-9.49-1.35-12.66C1412.81,521.71,1418.92,512.13,1418.92,512.13Z"/><path class="cls-21" d="M1432.54,520.81s2.77,4.74,4.24,7.07,3,11.68,3,11.68l-6.45.31-4.81.25s-1.46-7.09-1-9.45C1428,528,1432.54,520.81,1432.54,520.81Z"/><path class="cls-21" d="M1443.25,520s2.77,4.74,4.24,7.07,3,11.68,3,11.68l-6.46.31-4.81.24s-1.46-7.08-1-9.44C1438.69,527.15,1443.25,520,1443.25,520Z"/><path class="cls-21" d="M1453.8,522.39s2.77,4.74,4.24,7.07,3,11.68,3,11.68l-6.46.31-4.81.25s-1.46-7.09-1-9.45C1449.24,529.54,1453.8,522.39,1453.8,522.39Z"/><path class="cls-21" d="M1465.45,518.32s2.77,4.74,4.24,7.07,3,11.68,3,11.68l-6.46.31-4.81.24s-1.46-7.08-1-9.44C1460.89,525.47,1465.45,518.32,1465.45,518.32Z"/><path class="cls-21" d="M276.5,731.79s3.71,6.35,5.68,9.47,4,15.65,4,15.65l-8.65.42-6.45.32s-1.95-9.49-1.36-12.65C270.39,741.37,276.5,731.79,276.5,731.79Z"/><path class="cls-21" d="M290.12,740.48s2.77,4.74,4.24,7.07,3,11.68,3,11.68l-6.46.31-4.81.24s-1.46-7.08-1-9.44C285.56,747.63,290.12,740.48,290.12,740.48Z"/><path class="cls-21" d="M300.83,739.67s2.77,4.74,4.24,7.07,3,11.68,3,11.68l-6.46.31-4.81.24s-1.46-7.08-1-9.45C296.27,746.82,300.83,739.67,300.83,739.67Z"/><path class="cls-21" d="M311.37,742.06s2.78,4.74,4.25,7.07,3,11.68,3,11.68l-6.45.31-4.81.24s-1.46-7.08-1-9.44C306.81,749.21,311.37,742.06,311.37,742.06Z"/><path class="cls-21" d="M323,738s2.77,4.74,4.24,7.06,3,11.68,3,11.68l-6.46.32-4.81.24s-1.46-7.09-1-9.45C318.47,745.14,323,738,323,738Z"/><path class="cls-21" d="M336.21,730.46s3.71,6.35,5.68,9.47,4,15.65,4,15.65l-8.65.42-6.45.32s-1.95-9.49-1.36-12.66C330.1,740,336.21,730.46,336.21,730.46Z"/><path class="cls-21" d="M349.83,739.15s2.77,4.73,4.24,7.06,3,11.68,3,11.68l-6.45.32-4.82.24s-1.45-7.09-1-9.45C345.27,746.3,349.83,739.15,349.83,739.15Z"/><path class="cls-21" d="M360.54,738.34s2.77,4.73,4.24,7.06,3,11.68,3,11.68l-6.46.32-4.81.24s-1.46-7.09-1-9.45C356,745.49,360.54,738.34,360.54,738.34Z"/><path class="cls-21" d="M371.09,740.73s2.77,4.73,4.24,7.06,3,11.68,3,11.68l-6.46.32L367,760s-1.46-7.09-1-9.45C366.52,747.88,371.09,740.73,371.09,740.73Z"/><path class="cls-21" d="M382.74,736.65s2.77,4.74,4.24,7.07,3,11.68,3,11.68l-6.46.31-4.81.25s-1.46-7.09-1-9.45C378.18,743.8,382.74,736.65,382.74,736.65Z"/><path class="cls-21" d="M395.92,729.13s3.71,6.35,5.68,9.46,4,15.65,4,15.65l-8.65.42-6.45.33s-2-9.49-1.35-12.66C389.81,738.71,395.92,729.13,395.92,729.13Z"/><path class="cls-21" d="M409.54,737.81s2.77,4.74,4.24,7.07,3,11.68,3,11.68l-6.45.31-4.81.25s-1.46-7.09-1-9.45C405,745,409.54,737.81,409.54,737.81Z"/><path class="cls-21" d="M420.25,737s2.77,4.74,4.24,7.07,3,11.68,3,11.68l-6.46.31-4.81.24s-1.46-7.08-1-9.44C415.69,744.15,420.25,737,420.25,737Z"/><path class="cls-21" d="M430.8,739.39s2.77,4.74,4.24,7.07,3,11.68,3,11.68l-6.46.31-4.81.25s-1.46-7.09-1-9.45C426.24,746.54,430.8,739.39,430.8,739.39Z"/><path class="cls-21" d="M442.45,735.32s2.77,4.74,4.24,7.07,3,11.68,3,11.68l-6.46.31-4.81.24s-1.46-7.08-1-9.44C437.89,742.47,442.45,735.32,442.45,735.32Z"/><path class="cls-21" d="M57.5,619.79s3.71,6.35,5.68,9.47,4,15.65,4,15.65l-8.65.42-6.45.32s-2-9.49-1.36-12.65C51.39,629.37,57.5,619.79,57.5,619.79Z"/><path class="cls-21" d="M71.12,628.48s2.77,4.74,4.24,7.07,3,11.68,3,11.68l-6.46.31-4.81.24s-1.46-7.08-1-9.44C66.56,635.63,71.12,628.48,71.12,628.48Z"/><path class="cls-21" d="M81.83,627.67s2.77,4.74,4.24,7.07,3,11.68,3,11.68l-6.46.31-4.81.24s-1.46-7.08-1-9.45C77.27,634.82,81.83,627.67,81.83,627.67Z"/><path class="cls-21" d="M92.37,630.06s2.78,4.74,4.25,7.07,3,11.68,3,11.68l-6.45.31-4.81.24s-1.46-7.08-1-9.44C87.81,637.21,92.37,630.06,92.37,630.06Z"/><path class="cls-21" d="M104,626s2.77,4.74,4.24,7.06,3,11.68,3,11.68l-6.46.32-4.81.24s-1.46-7.09-1-9.45C99.47,633.14,104,626,104,626Z"/><path class="cls-21" d="M117.21,618.46s3.71,6.35,5.68,9.47,4,15.65,4,15.65l-8.65.42-6.45.32s-2-9.49-1.36-12.66C111.1,628,117.21,618.46,117.21,618.46Z"/><path class="cls-21" d="M130.83,627.15s2.77,4.73,4.24,7.06,3,11.68,3,11.68l-6.45.32-4.82.24s-1.45-7.09-1-9.45C126.27,634.3,130.83,627.15,130.83,627.15Z"/><path class="cls-21" d="M141.54,626.34s2.77,4.73,4.24,7.06,3,11.68,3,11.68l-6.46.32-4.81.24s-1.46-7.09-1-9.45C137,633.49,141.54,626.34,141.54,626.34Z"/><path class="cls-21" d="M152.09,628.73s2.77,4.73,4.24,7.06,3,11.68,3,11.68l-6.46.32L148,648s-1.46-7.09-1-9.45C147.52,635.88,152.09,628.73,152.09,628.73Z"/><path class="cls-21" d="M163.74,624.65s2.77,4.74,4.24,7.07,3,11.68,3,11.68l-6.46.31-4.81.25s-1.46-7.09-1-9.45C159.18,631.8,163.74,624.65,163.74,624.65Z"/><path class="cls-21" d="M176.92,617.13s3.71,6.35,5.68,9.46,4,15.65,4,15.65l-8.65.42-6.45.33s-1.95-9.49-1.35-12.66C170.81,626.71,176.92,617.13,176.92,617.13Z"/><path class="cls-21" d="M890.5,778.79s3.71,6.35,5.68,9.47,4,15.65,4,15.65l-8.65.42-6.45.32s-1.95-9.49-1.36-12.65C884.39,788.37,890.5,778.79,890.5,778.79Z"/><path class="cls-21" d="M904.12,787.48s2.77,4.74,4.24,7.07,3,11.68,3,11.68l-6.46.31-4.81.24s-1.46-7.08-1-9.44C899.56,794.63,904.12,787.48,904.12,787.48Z"/><path class="cls-21" d="M914.83,786.67s2.77,4.74,4.24,7.07,3,11.68,3,11.68l-6.46.31-4.81.24s-1.46-7.08-1-9.45C910.27,793.82,914.83,786.67,914.83,786.67Z"/><path class="cls-21" d="M925.37,789.06s2.78,4.74,4.25,7.07,3,11.68,3,11.68l-6.45.31-4.81.24s-1.46-7.08-1-9.44C920.81,796.21,925.37,789.06,925.37,789.06Z"/><path class="cls-21" d="M937,785s2.77,4.74,4.24,7.06,3,11.68,3,11.68l-6.46.32-4.81.24s-1.46-7.09-1-9.45C932.47,792.14,937,785,937,785Z"/><path class="cls-21" d="M950.21,777.46s3.71,6.35,5.68,9.47,4,15.65,4,15.65l-8.65.42-6.45.32s-1.95-9.49-1.36-12.66C944.1,787,950.21,777.46,950.21,777.46Z"/><path class="cls-21" d="M963.83,786.15s2.77,4.73,4.24,7.06,3,11.68,3,11.68l-6.45.32-4.82.24s-1.45-7.09-1-9.45C959.27,793.3,963.83,786.15,963.83,786.15Z"/><path class="cls-21" d="M974.54,785.34s2.77,4.73,4.24,7.06,3,11.68,3,11.68l-6.46.32-4.81.24s-1.46-7.09-1-9.45C970,792.49,974.54,785.34,974.54,785.34Z"/><path class="cls-21" d="M985.09,787.73s2.77,4.73,4.24,7.06,3,11.68,3,11.68l-6.46.32L981,807s-1.46-7.09-1-9.45C980.52,794.88,985.09,787.73,985.09,787.73Z"/><path class="cls-21" d="M996.74,783.65s2.77,4.74,4.24,7.07,3,11.68,3,11.68l-6.46.31-4.81.25s-1.46-7.09-1-9.45C992.18,790.8,996.74,783.65,996.74,783.65Z"/><path class="cls-21" d="M1009.92,776.13s3.71,6.35,5.68,9.46,4,15.65,4,15.65l-8.65.42-6.45.33s-2-9.49-1.35-12.66C1003.81,785.71,1009.92,776.13,1009.92,776.13Z"/><path class="cls-21" d="M1023.54,784.81s2.77,4.74,4.24,7.07,3,11.68,3,11.68l-6.45.31-4.81.25s-1.46-7.09-1-9.45C1019,792,1023.54,784.81,1023.54,784.81Z"/><path class="cls-21" d="M1034.25,784s2.77,4.74,4.24,7.07,3,11.68,3,11.68l-6.46.31-4.81.24s-1.46-7.08-1-9.44C1029.69,791.15,1034.25,784,1034.25,784Z"/><path class="cls-21" d="M1044.8,786.39s2.77,4.74,4.24,7.07,3,11.68,3,11.68l-6.46.31-4.81.25s-1.46-7.09-1-9.45C1040.24,793.54,1044.8,786.39,1044.8,786.39Z"/><path class="cls-21" d="M1056.45,782.32s2.77,4.74,4.24,7.07,3,11.68,3,11.68l-6.46.31-4.81.24s-1.46-7.08-1-9.44C1051.89,789.47,1056.45,782.32,1056.45,782.32Z"/><path class="cls-21" d="M1537.5,575.79s3.71,6.35,5.68,9.47,4,15.65,4,15.65l-8.65.42-6.45.32s-2-9.49-1.36-12.65C1531.39,585.37,1537.5,575.79,1537.5,575.79Z"/><path class="cls-21" d="M1551.12,584.48s2.77,4.74,4.24,7.07,3,11.68,3,11.68l-6.46.31-4.81.24s-1.46-7.08-1-9.44C1546.56,591.63,1551.12,584.48,1551.12,584.48Z"/><path class="cls-21" d="M1561.83,583.67s2.77,4.74,4.24,7.07,3,11.68,3,11.68l-6.46.31-4.81.24s-1.46-7.08-1-9.45C1557.27,590.82,1561.83,583.67,1561.83,583.67Z"/><path class="cls-21" d="M1572.37,586.06s2.78,4.74,4.25,7.07,3,11.68,3,11.68l-6.45.31-4.81.24s-1.46-7.08-1-9.44C1567.81,593.21,1572.37,586.06,1572.37,586.06Z"/><path class="cls-21" d="M1584,582s2.77,4.74,4.24,7.06,3,11.68,3,11.68l-6.46.32-4.81.24s-1.46-7.09-1-9.45C1579.47,589.14,1584,582,1584,582Z"/><path class="cls-21" d="M1597.21,574.46s3.71,6.35,5.68,9.47,4,15.65,4,15.65l-8.65.42-6.45.32s-2-9.49-1.36-12.66C1591.1,584,1597.21,574.46,1597.21,574.46Z"/><path class="cls-21" d="M1610.83,583.15s2.77,4.73,4.24,7.06,3,11.68,3,11.68l-6.45.32-4.82.24s-1.45-7.09-1-9.45C1606.27,590.3,1610.83,583.15,1610.83,583.15Z"/><path class="cls-21" d="M1621.54,582.34s2.77,4.73,4.24,7.06,3,11.68,3,11.68l-6.46.32-4.81.24s-1.46-7.09-1-9.45C1617,589.49,1621.54,582.34,1621.54,582.34Z"/><path class="cls-21" d="M1632.09,584.73s2.77,4.73,4.24,7.06,3,11.68,3,11.68l-6.46.32L1628,604s-1.46-7.09-1-9.45C1627.52,591.88,1632.09,584.73,1632.09,584.73Z"/><path class="cls-21" d="M1643.74,580.65s2.77,4.74,4.24,7.07,3,11.68,3,11.68l-6.46.31-4.81.25s-1.46-7.09-1-9.45C1639.18,587.8,1643.74,580.65,1643.74,580.65Z"/><path class="cls-21" d="M1656.92,573.13s3.71,6.35,5.68,9.46,4,15.65,4,15.65l-8.65.42-6.45.33s-2-9.49-1.35-12.66C1650.81,582.71,1656.92,573.13,1656.92,573.13Z"/><path class="cls-21" d="M1670.54,581.81s2.77,4.74,4.24,7.07,3,11.68,3,11.68l-6.45.31-4.81.25s-1.46-7.09-1-9.45C1666,589,1670.54,581.81,1670.54,581.81Z"/><path class="cls-21" d="M1681.25,581s2.77,4.74,4.24,7.07,3,11.68,3,11.68l-6.46.31-4.81.24s-1.46-7.08-1-9.44C1676.69,588.15,1681.25,581,1681.25,581Z"/><path class="cls-21" d="M1691.8,583.39s2.77,4.74,4.24,7.07,3,11.68,3,11.68l-6.46.31-4.81.25s-1.46-7.09-1-9.45C1687.24,590.54,1691.8,583.39,1691.8,583.39Z"/><path class="cls-21" d="M1703.45,579.32s2.77,4.74,4.24,7.07,3,11.68,3,11.68l-6.46.31-4.81.24s-1.46-7.08-1-9.44C1698.89,586.47,1703.45,579.32,1703.45,579.32Z"/><path class="cls-21" d="M1637.5,793.79s3.71,6.35,5.68,9.47,4,15.65,4,15.65l-8.65.42-6.45.32s-2-9.49-1.36-12.65C1631.39,803.37,1637.5,793.79,1637.5,793.79Z"/><path class="cls-21" d="M1651.12,802.48s2.77,4.74,4.24,7.07,3,11.68,3,11.68l-6.46.31-4.81.24s-1.46-7.08-1-9.44C1646.56,809.63,1651.12,802.48,1651.12,802.48Z"/><path class="cls-21" d="M1661.83,801.67s2.77,4.74,4.24,7.07,3,11.68,3,11.68l-6.46.31-4.81.24s-1.46-7.08-1-9.45C1657.27,808.82,1661.83,801.67,1661.83,801.67Z"/><path class="cls-21" d="M1672.37,804.06s2.78,4.74,4.25,7.07,3,11.68,3,11.68l-6.45.31-4.81.24s-1.46-7.08-1-9.44C1667.81,811.21,1672.37,804.06,1672.37,804.06Z"/><path class="cls-21" d="M1684,800s2.77,4.74,4.24,7.06,3,11.68,3,11.68l-6.46.32-4.81.24s-1.46-7.09-1-9.45C1679.47,807.14,1684,800,1684,800Z"/><path class="cls-21" d="M1697.21,792.46s3.71,6.35,5.68,9.47,4,15.65,4,15.65l-8.65.42-6.45.32s-2-9.49-1.36-12.66C1691.1,802,1697.21,792.46,1697.21,792.46Z"/><path class="cls-21" d="M1710.83,801.15s2.77,4.73,4.24,7.06,3,11.68,3,11.68l-6.45.32-4.82.24s-1.45-7.09-1-9.45C1706.27,808.3,1710.83,801.15,1710.83,801.15Z"/><path class="cls-21" d="M1721.54,800.34s2.77,4.73,4.24,7.06,3,11.68,3,11.68l-6.46.32-4.81.24s-1.46-7.09-1-9.45C1717,807.49,1721.54,800.34,1721.54,800.34Z"/><path class="cls-21" d="M1732.09,802.73s2.77,4.73,4.24,7.06,3,11.68,3,11.68l-6.46.32L1728,822s-1.46-7.09-1-9.45C1727.52,809.88,1732.09,802.73,1732.09,802.73Z"/><path class="cls-21" d="M1743.74,798.65s2.77,4.74,4.24,7.07,3,11.68,3,11.68l-6.46.31-4.81.25s-1.46-7.09-1-9.45C1739.18,805.8,1743.74,798.65,1743.74,798.65Z"/><path class="cls-21" d="M1756.92,791.13s3.71,6.35,5.68,9.46,4,15.65,4,15.65l-8.65.42-6.45.33s-2-9.49-1.35-12.66C1750.81,800.71,1756.92,791.13,1756.92,791.13Z"/><path class="cls-21" d="M1770.54,799.81s2.77,4.74,4.24,7.07,3,11.68,3,11.68l-6.45.31-4.81.25s-1.46-7.09-1-9.45C1766,807,1770.54,799.81,1770.54,799.81Z"/><path class="cls-21" d="M1781.25,799s2.77,4.74,4.24,7.07,3,11.68,3,11.68l-6.46.31-4.81.24s-1.46-7.08-1-9.44C1776.69,806.15,1781.25,799,1781.25,799Z"/><path class="cls-21" d="M1791.8,801.39s2.77,4.74,4.24,7.07,3,11.68,3,11.68l-6.46.31-4.81.25s-1.46-7.09-1-9.45C1787.24,808.54,1791.8,801.39,1791.8,801.39Z"/><path class="cls-21" d="M1803.45,797.32s2.77,4.74,4.24,7.07,3,11.68,3,11.68l-6.46.31-4.81.24s-1.46-7.08-1-9.44C1798.89,804.47,1803.45,797.32,1803.45,797.32Z"/><path class="cls-21" d="M666.5,571.79s3.71,6.35,5.68,9.47,4,15.65,4,15.65l-8.65.42-6.45.32s-1.95-9.49-1.36-12.65C660.39,581.37,666.5,571.79,666.5,571.79Z"/><path class="cls-21" d="M680.12,580.48s2.77,4.74,4.24,7.07,3,11.68,3,11.68l-6.46.31-4.81.24s-1.46-7.08-1-9.44C675.56,587.63,680.12,580.48,680.12,580.48Z"/><path class="cls-21" d="M690.83,579.67s2.77,4.74,4.24,7.07,3,11.68,3,11.68l-6.46.31-4.81.24s-1.46-7.08-1-9.45C686.27,586.82,690.83,579.67,690.83,579.67Z"/><path class="cls-21" d="M701.37,582.06s2.78,4.74,4.25,7.07,3,11.68,3,11.68l-6.45.31-4.81.24s-1.46-7.08-1-9.44C696.81,589.21,701.37,582.06,701.37,582.06Z"/><path class="cls-21" d="M713,578s2.77,4.74,4.24,7.06,3,11.68,3,11.68l-6.46.32-4.81.24s-1.46-7.09-1-9.45C708.47,585.14,713,578,713,578Z"/><path class="cls-21" d="M726.21,570.46s3.71,6.35,5.68,9.47,4,15.65,4,15.65l-8.65.42-6.45.32s-1.95-9.49-1.36-12.66C720.1,580,726.21,570.46,726.21,570.46Z"/><path class="cls-21" d="M739.83,579.15s2.77,4.73,4.24,7.06,3,11.68,3,11.68l-6.45.32-4.82.24s-1.45-7.09-1-9.45C735.27,586.3,739.83,579.15,739.83,579.15Z"/><path class="cls-21" d="M750.54,578.34s2.77,4.73,4.24,7.06,3,11.68,3,11.68l-6.46.32-4.81.24s-1.46-7.09-1-9.45C746,585.49,750.54,578.34,750.54,578.34Z"/><path class="cls-21" d="M761.09,580.73s2.77,4.73,4.24,7.06,3,11.68,3,11.68l-6.46.32L757,600s-1.46-7.09-1-9.45C756.52,587.88,761.09,580.73,761.09,580.73Z"/><path class="cls-21" d="M772.74,576.65s2.77,4.74,4.24,7.07,3,11.68,3,11.68l-6.46.31-4.81.25s-1.46-7.09-1-9.45C768.18,583.8,772.74,576.65,772.74,576.65Z"/><path class="cls-21" d="M785.92,569.13s3.71,6.35,5.68,9.46,4,15.65,4,15.65l-8.65.42-6.45.33s-2-9.49-1.35-12.66C779.81,578.71,785.92,569.13,785.92,569.13Z"/><path class="cls-21" d="M799.54,577.81s2.77,4.74,4.24,7.07,3,11.68,3,11.68l-6.45.31-4.81.25s-1.46-7.09-1-9.45C795,585,799.54,577.81,799.54,577.81Z"/><path class="cls-21" d="M810.25,577s2.77,4.74,4.24,7.07,3,11.68,3,11.68l-6.46.31-4.81.24s-1.46-7.08-1-9.44C805.69,584.15,810.25,577,810.25,577Z"/><path class="cls-21" d="M820.8,579.39s2.77,4.74,4.24,7.07,3,11.68,3,11.68l-6.46.31-4.81.25s-1.46-7.09-1-9.45C816.24,586.54,820.8,579.39,820.8,579.39Z"/><path class="cls-21" d="M832.45,575.32s2.77,4.74,4.24,7.07,3,11.68,3,11.68l-6.46.31-4.81.24s-1.46-7.08-1-9.44C827.89,582.47,832.45,575.32,832.45,575.32Z"/><path class="cls-21" d="M375.5,586.79s3.71,6.35,5.68,9.47,4,15.65,4,15.65l-8.65.42-6.45.32s-1.95-9.49-1.36-12.65C369.39,596.37,375.5,586.79,375.5,586.79Z"/><path class="cls-21" d="M389.12,595.48s2.77,4.74,4.24,7.07,3,11.68,3,11.68l-6.46.31-4.81.24s-1.46-7.08-1-9.44C384.56,602.63,389.12,595.48,389.12,595.48Z"/><path class="cls-21" d="M399.83,594.67s2.77,4.74,4.24,7.07,3,11.68,3,11.68l-6.46.31-4.81.24s-1.46-7.08-1-9.45C395.27,601.82,399.83,594.67,399.83,594.67Z"/><path class="cls-21" d="M410.37,597.06s2.78,4.74,4.25,7.07,3,11.68,3,11.68l-6.45.31-4.81.24s-1.46-7.08-1-9.44C405.81,604.21,410.37,597.06,410.37,597.06Z"/><path class="cls-21" d="M422,593s2.77,4.74,4.24,7.06,3,11.68,3,11.68l-6.46.32-4.81.24s-1.46-7.09-1-9.45C417.47,600.14,422,593,422,593Z"/><path class="cls-21" d="M435.21,585.46s3.71,6.35,5.68,9.47,4,15.65,4,15.65l-8.65.42-6.45.32s-1.95-9.49-1.36-12.66C429.1,595,435.21,585.46,435.21,585.46Z"/><path class="cls-21" d="M448.83,594.15s2.77,4.73,4.24,7.06,3,11.68,3,11.68l-6.45.32-4.82.24s-1.45-7.09-1-9.45C444.27,601.3,448.83,594.15,448.83,594.15Z"/><path class="cls-21" d="M459.54,593.34s2.77,4.73,4.24,7.06,3,11.68,3,11.68l-6.46.32-4.81.24s-1.46-7.09-1-9.45C455,600.49,459.54,593.34,459.54,593.34Z"/><path class="cls-21" d="M470.09,595.73s2.77,4.73,4.24,7.06,3,11.68,3,11.68l-6.46.32L466,615s-1.46-7.09-1-9.45C465.52,602.88,470.09,595.73,470.09,595.73Z"/><path class="cls-21" d="M481.74,591.65s2.77,4.74,4.24,7.07,3,11.68,3,11.68l-6.46.31-4.81.25s-1.46-7.09-1-9.45C477.18,598.8,481.74,591.65,481.74,591.65Z"/><path class="cls-21" d="M494.92,584.13s3.71,6.35,5.68,9.46,4,15.65,4,15.65l-8.65.42-6.45.33s-2-9.49-1.35-12.66C488.81,593.71,494.92,584.13,494.92,584.13Z"/><path class="cls-21" d="M508.54,592.81s2.77,4.74,4.24,7.07,3,11.68,3,11.68l-6.45.31-4.81.25s-1.46-7.09-1-9.45C504,600,508.54,592.81,508.54,592.81Z"/><path class="cls-21" d="M519.25,592s2.77,4.74,4.24,7.07,3,11.68,3,11.68l-6.46.31-4.81.24s-1.46-7.08-1-9.44C514.69,599.15,519.25,592,519.25,592Z"/><path class="cls-21" d="M529.8,594.39s2.77,4.74,4.24,7.07,3,11.68,3,11.68l-6.46.31-4.81.25s-1.46-7.09-1-9.45C525.24,601.54,529.8,594.39,529.8,594.39Z"/><path class="cls-21" d="M541.45,590.32s2.77,4.74,4.24,7.07,3,11.68,3,11.68l-6.46.31-4.81.24s-1.46-7.08-1-9.44C536.89,597.47,541.45,590.32,541.45,590.32Z"/></g></svg>
