<svg id="Layer_1" data-name="Layer 1" xmlns="http://www.w3.org/2000/svg" width="300" height="100" viewBox="0 0 300 100"><defs><style>.cls-1{fill:none;}.cls-2{fill:#b2569e;}.cls-3{fill:#ff94e7;}.cls-4{fill:#fff;}.cls-5{fill:#d2b4de;}</style></defs><title>nybaby_sprite copy 2</title><rect class="cls-1" width="100" height="100"/><rect class="cls-2" x="3.87" y="22.3" width="93.49" height="56.94" rx="28.47"/><rect class="cls-3" x="2.64" y="20.76" width="93.49" height="56.94" rx="28.47"/><path class="cls-2" d="M37.38,43.68a4.79,4.79,0,0,1,.11,1.1,5,5,0,0,1-.11,1.1h-1.1a4.79,4.79,0,0,1,.11,1.1,5,5,0,0,1-.11,1.1h-5.5a4.79,4.79,0,0,1,.11,1.1,5,5,0,0,1-.11,1.1,4.79,4.79,0,0,1,.11,1.1,5,5,0,0,1-.11,1.1,4.79,4.79,0,0,1,.11,1.1,5,5,0,0,1-.11,1.1H28.57a5,5,0,0,1-.11-1.1,4.79,4.79,0,0,1,.11-1.1,5,5,0,0,1-.11-1.1,4.79,4.79,0,0,1,.11-1.1,5,5,0,0,1-.11-1.1,4.79,4.79,0,0,1,.11-1.1,5,5,0,0,1-.11-1.1,4.79,4.79,0,0,1,.11-1.1,5,5,0,0,1-.11-1.1,4.79,4.79,0,0,1,.11-1.1,5.11,5.11,0,0,1-.11-1.1,4.79,4.79,0,0,1,.11-1.1,5.14,5.14,0,0,1-.11-1.11,4.85,4.85,0,0,1,.11-1.1h7.71a4.85,4.85,0,0,1,.11,1.1,5.14,5.14,0,0,1-.11,1.11h1.1a4.79,4.79,0,0,1,.11,1.1A5.11,5.11,0,0,1,37.38,43.68Zm-2.31,1.1a4.29,4.29,0,0,1,.11-1.1,4.55,4.55,0,0,1-.11-1.1,4.29,4.29,0,0,1,.11-1.1h-4.4a4.79,4.79,0,0,1,.11,1.1,5.11,5.11,0,0,1-.11,1.1,4.79,4.79,0,0,1,.11,1.1,5,5,0,0,1-.11,1.1h4.4A4.49,4.49,0,0,1,35.07,44.78Z"/><path class="cls-2" d="M47.39,53.58a4.49,4.49,0,0,1-.11,1.1h-6.6a5,5,0,0,1-.11-1.1,4.79,4.79,0,0,1,.11-1.1h2.2a5,5,0,0,1-.11-1.1,4.79,4.79,0,0,1,.11-1.1,5,5,0,0,1-.11-1.1,4.79,4.79,0,0,1,.11-1.1,5,5,0,0,1-.11-1.1,4.79,4.79,0,0,1,.11-1.1,5,5,0,0,1-.11-1.1,4.79,4.79,0,0,1,.11-1.1,5.11,5.11,0,0,1-.11-1.1,4.79,4.79,0,0,1,.11-1.1H41.23a5.14,5.14,0,0,1-.11-1.11,4.85,4.85,0,0,1,.11-1.1h3.85a4.85,4.85,0,0,1,.11,1.1,5.14,5.14,0,0,1-.11,1.11,4.79,4.79,0,0,1,.11,1.1,5.11,5.11,0,0,1-.11,1.1,4.79,4.79,0,0,1,.11,1.1,5,5,0,0,1-.11,1.1,4.79,4.79,0,0,1,.11,1.1,5,5,0,0,1-.11,1.1,4.79,4.79,0,0,1,.11,1.1,5,5,0,0,1-.11,1.1,4.79,4.79,0,0,1,.11,1.1,5,5,0,0,1-.11,1.1h2.2A4.29,4.29,0,0,1,47.39,53.58Z"/><path class="cls-2" d="M59.5,53.58a5,5,0,0,1-.11,1.1h-2.2a4.49,4.49,0,0,1-.11-1.1,4.29,4.29,0,0,1,.11-1.1h-1.1a4.49,4.49,0,0,1-.11-1.1,4.29,4.29,0,0,1,.11-1.1H52.78a4.29,4.29,0,0,1,.11,1.1,4.49,4.49,0,0,1-.11,1.1h3.31a4.79,4.79,0,0,1,.11,1.1,5,5,0,0,1-.11,1.1H51.68a5,5,0,0,1-.11-1.1,4.79,4.79,0,0,1,.11-1.1h-1.1a5,5,0,0,1-.11-1.1,4.79,4.79,0,0,1,.11-1.1h1.1a5,5,0,0,1-.11-1.1,4.79,4.79,0,0,1,.11-1.1h4.41A4.49,4.49,0,0,1,56,47a4.29,4.29,0,0,1,.11-1.1H52.23a5,5,0,0,1-.11-1.1,4.79,4.79,0,0,1,.11-1.1h5a4.79,4.79,0,0,1,.11,1.1,5,5,0,0,1-.11,1.1h1.1A4.79,4.79,0,0,1,58.4,47a5,5,0,0,1-.11,1.1,4.79,4.79,0,0,1,.11,1.1,5,5,0,0,1-.11,1.1,4.79,4.79,0,0,1,.11,1.1,5,5,0,0,1-.11,1.1h1.1A4.79,4.79,0,0,1,59.5,53.58Z"/><path class="cls-2" d="M70.39,45.88h-.82a4.79,4.79,0,0,1,.11,1.1,5,5,0,0,1-.11,1.1h-.83a4.79,4.79,0,0,1,.11,1.1,5,5,0,0,1-.11,1.1h-.55a4.79,4.79,0,0,1,.11,1.1,5,5,0,0,1-.11,1.1h-.82a4.79,4.79,0,0,1,.11,1.1,5,5,0,0,1-.11,1.1h-.55a4.79,4.79,0,0,1,.11,1.1,5,5,0,0,1-.11,1.1h-1.1a4.85,4.85,0,0,1,.11,1.1,5,5,0,0,1-.11,1.1H62.41A5,5,0,0,1,62.3,58a4.85,4.85,0,0,1,.11-1.1h2.2a5,5,0,0,1-.11-1.1,4.79,4.79,0,0,1,.11-1.1,5,5,0,0,1-.11-1.1,4.79,4.79,0,0,1,.11-1.1h-1.1a5,5,0,0,1-.11-1.1,4.79,4.79,0,0,1,.11-1.1H63a5,5,0,0,1-.11-1.1,4.79,4.79,0,0,1,.11-1.1h-.82A5,5,0,0,1,62,47a4.79,4.79,0,0,1,.11-1.1h-.83a5,5,0,0,1-.11-1.1,4.79,4.79,0,0,1,.11-1.1h2.2a4.29,4.29,0,0,1,.11,1.1,4.49,4.49,0,0,1-.11,1.1h.83a4.79,4.79,0,0,1,.11,1.1,5,5,0,0,1-.11,1.1h.82a4.29,4.29,0,0,1,.11,1.1,4.49,4.49,0,0,1-.11,1.1,4.29,4.29,0,0,1,.11,1.1,4.49,4.49,0,0,1-.11,1.1H66a5,5,0,0,1-.11-1.1,4.79,4.79,0,0,1,.11-1.1h.55a5,5,0,0,1-.11-1.1,4.79,4.79,0,0,1,.11-1.1h.83a4.49,4.49,0,0,1-.11-1.1,4.29,4.29,0,0,1,.11-1.1h.82a5,5,0,0,1-.11-1.1,4.79,4.79,0,0,1,.11-1.1h2.2a4.29,4.29,0,0,1,.11,1.1A4.49,4.49,0,0,1,70.39,45.88Z"/><path class="cls-2" d="M12.17,37.67a.74.74,0,0,1-.74-.73,9.33,9.33,0,0,1,9.32-9.32.74.74,0,1,1,0,1.47,7.86,7.86,0,0,0-7.85,7.85A.73.73,0,0,1,12.17,37.67Z"/><path class="cls-4" d="M36.35,42.8a4.79,4.79,0,0,1,.11,1.1,5,5,0,0,1-.11,1.1h-1.1a4.79,4.79,0,0,1,.11,1.1,5,5,0,0,1-.11,1.1h-5.5a4.79,4.79,0,0,1,.11,1.1,5,5,0,0,1-.11,1.1,4.79,4.79,0,0,1,.11,1.1,5,5,0,0,1-.11,1.1,4.79,4.79,0,0,1,.11,1.1,5,5,0,0,1-.11,1.1h-2.2a4.49,4.49,0,0,1-.11-1.1,4.29,4.29,0,0,1,.11-1.1,4.49,4.49,0,0,1-.11-1.1,4.29,4.29,0,0,1,.11-1.1,4.49,4.49,0,0,1-.11-1.1,4.29,4.29,0,0,1,.11-1.1,4.49,4.49,0,0,1-.11-1.1,4.29,4.29,0,0,1,.11-1.1,4.49,4.49,0,0,1-.11-1.1,4.29,4.29,0,0,1,.11-1.1,4.55,4.55,0,0,1-.11-1.1,4.42,4.42,0,0,1,.11-1.11,4.44,4.44,0,0,1-.11-1.1,4.34,4.34,0,0,1,.11-1.1h7.7a4.85,4.85,0,0,1,.11,1.1,5,5,0,0,1-.11,1.1h1.1a5,5,0,0,1,.11,1.11A5.11,5.11,0,0,1,36.35,42.8ZM34,43.9a4.79,4.79,0,0,1,.11-1.1A5.11,5.11,0,0,1,34,41.7a5,5,0,0,1,.11-1.11h-4.4a5,5,0,0,1,.11,1.11,5.11,5.11,0,0,1-.11,1.1,4.79,4.79,0,0,1,.11,1.1,5,5,0,0,1-.11,1.1h4.4A5,5,0,0,1,34,43.9Z"/><path class="cls-4" d="M46.37,52.7a5,5,0,0,1-.11,1.1H39.65a5,5,0,0,1-.11-1.1,4.79,4.79,0,0,1,.11-1.1h2.2a5,5,0,0,1-.11-1.1,4.79,4.79,0,0,1,.11-1.1,5,5,0,0,1-.11-1.1,4.79,4.79,0,0,1,.11-1.1,5,5,0,0,1-.11-1.1,4.79,4.79,0,0,1,.11-1.1,5,5,0,0,1-.11-1.1,4.79,4.79,0,0,1,.11-1.1,5.11,5.11,0,0,1-.11-1.1,5,5,0,0,1,.11-1.11H40.2a5,5,0,0,1-.11-1.1,4.85,4.85,0,0,1,.11-1.1h3.85a4.34,4.34,0,0,1,.11,1.1,4.44,4.44,0,0,1-.11,1.1,4.42,4.42,0,0,1,.11,1.11,4.55,4.55,0,0,1-.11,1.1,4.29,4.29,0,0,1,.11,1.1,4.49,4.49,0,0,1-.11,1.1,4.29,4.29,0,0,1,.11,1.1,4.49,4.49,0,0,1-.11,1.1,4.29,4.29,0,0,1,.11,1.1,4.49,4.49,0,0,1-.11,1.1,4.29,4.29,0,0,1,.11,1.1,4.49,4.49,0,0,1-.11,1.1h2.21A4.79,4.79,0,0,1,46.37,52.7Z"/><path class="cls-4" d="M58.47,52.7a5,5,0,0,1-.11,1.1h-2.2a5,5,0,0,1-.11-1.1,4.79,4.79,0,0,1,.11-1.1h-1.1A5,5,0,0,1,55,50.5a4.79,4.79,0,0,1,.11-1.1h-3.3a4.79,4.79,0,0,1,.11,1.1,5,5,0,0,1-.11,1.1h3.3a4.79,4.79,0,0,1,.11,1.1,5,5,0,0,1-.11,1.1h-4.4a4.49,4.49,0,0,1-.11-1.1,4.29,4.29,0,0,1,.11-1.1h-1.1a4.49,4.49,0,0,1-.11-1.1,4.29,4.29,0,0,1,.11-1.1h1.1a4.49,4.49,0,0,1-.11-1.1,4.29,4.29,0,0,1,.11-1.1h4.4A5,5,0,0,1,55,46.1a4.79,4.79,0,0,1,.11-1.1H51.21a4.49,4.49,0,0,1-.11-1.1,4.29,4.29,0,0,1,.11-1.1h4.95a4.79,4.79,0,0,1,.11,1.1,5,5,0,0,1-.11,1.1h1.1a4.79,4.79,0,0,1,.11,1.1,5,5,0,0,1-.11,1.1,4.79,4.79,0,0,1,.11,1.1,5,5,0,0,1-.11,1.1,4.79,4.79,0,0,1,.11,1.1,5,5,0,0,1-.11,1.1h1.1A4.79,4.79,0,0,1,58.47,52.7Z"/><path class="cls-4" d="M69.36,45h-.82a4.79,4.79,0,0,1,.11,1.1,5,5,0,0,1-.11,1.1h-.83a4.29,4.29,0,0,1,.11,1.1,4.49,4.49,0,0,1-.11,1.1h-.55a4.29,4.29,0,0,1,.11,1.1,4.49,4.49,0,0,1-.11,1.1h-.82a4.79,4.79,0,0,1,.11,1.1,5,5,0,0,1-.11,1.1h-.55a4.79,4.79,0,0,1,.11,1.1,5,5,0,0,1-.11,1.1h-1.1a4.79,4.79,0,0,1,.11,1.1,5,5,0,0,1-.11,1.1h-3.3a4.49,4.49,0,0,1-.11-1.1,4.29,4.29,0,0,1,.11-1.1h2.2a4.49,4.49,0,0,1-.11-1.1,4.29,4.29,0,0,1,.11-1.1,4.49,4.49,0,0,1-.11-1.1,4.29,4.29,0,0,1,.11-1.1h-1.1a4.49,4.49,0,0,1-.11-1.1,4.29,4.29,0,0,1,.11-1.1h-.55a4.49,4.49,0,0,1-.11-1.1,4.29,4.29,0,0,1,.11-1.1h-.83A5,5,0,0,1,61,46.1a4.79,4.79,0,0,1,.11-1.1h-.82a4.49,4.49,0,0,1-.11-1.1,4.29,4.29,0,0,1,.11-1.1h2.2a4.79,4.79,0,0,1,.11,1.1,5,5,0,0,1-.11,1.1h.82a4.29,4.29,0,0,1,.11,1.1,4.49,4.49,0,0,1-.11,1.1h.83a4.79,4.79,0,0,1,.11,1.1,5,5,0,0,1-.11,1.1,4.79,4.79,0,0,1,.11,1.1,5,5,0,0,1-.11,1.1H65a5,5,0,0,1-.11-1.1A4.79,4.79,0,0,1,65,49.4h.55a5,5,0,0,1-.11-1.1,4.79,4.79,0,0,1,.11-1.1h.83a4.49,4.49,0,0,1-.11-1.1,4.29,4.29,0,0,1,.11-1.1h.82a5,5,0,0,1-.11-1.1,4.79,4.79,0,0,1,.11-1.1h2.2a4.29,4.29,0,0,1,.11,1.1A4.49,4.49,0,0,1,69.36,45Z"/><rect class="cls-1" x="100" width="100" height="100"/><rect class="cls-2" x="103.87" y="22.3" width="93.49" height="56.94" rx="28.47"/><rect class="cls-5" x="102.64" y="20.76" width="93.49" height="56.94" rx="28.47"/><path class="cls-2" d="M137.38,43.68a4.79,4.79,0,0,1,.11,1.1,5,5,0,0,1-.11,1.1h-1.1a4.79,4.79,0,0,1,.11,1.1,5,5,0,0,1-.11,1.1h-5.5a4.79,4.79,0,0,1,.11,1.1,5,5,0,0,1-.11,1.1,4.79,4.79,0,0,1,.11,1.1,5,5,0,0,1-.11,1.1,4.79,4.79,0,0,1,.11,1.1,5,5,0,0,1-.11,1.1h-2.21a5,5,0,0,1-.11-1.1,4.79,4.79,0,0,1,.11-1.1,5,5,0,0,1-.11-1.1,4.79,4.79,0,0,1,.11-1.1,5,5,0,0,1-.11-1.1,4.79,4.79,0,0,1,.11-1.1,5,5,0,0,1-.11-1.1,4.79,4.79,0,0,1,.11-1.1,5,5,0,0,1-.11-1.1,4.79,4.79,0,0,1,.11-1.1,5.11,5.11,0,0,1-.11-1.1,4.79,4.79,0,0,1,.11-1.1,5.14,5.14,0,0,1-.11-1.11,4.85,4.85,0,0,1,.11-1.1h7.71a4.85,4.85,0,0,1,.11,1.1,5.14,5.14,0,0,1-.11,1.11h1.1a4.79,4.79,0,0,1,.11,1.1A5.11,5.11,0,0,1,137.38,43.68Zm-2.31,1.1a4.29,4.29,0,0,1,.11-1.1,4.55,4.55,0,0,1-.11-1.1,4.29,4.29,0,0,1,.11-1.1h-4.4a4.79,4.79,0,0,1,.11,1.1,5.11,5.11,0,0,1-.11,1.1,4.79,4.79,0,0,1,.11,1.1,5,5,0,0,1-.11,1.1h4.4A4.49,4.49,0,0,1,135.07,44.78Z"/><path class="cls-2" d="M147.39,53.58a4.49,4.49,0,0,1-.11,1.1h-6.6a5,5,0,0,1-.11-1.1,4.79,4.79,0,0,1,.11-1.1h2.2a5,5,0,0,1-.11-1.1,4.79,4.79,0,0,1,.11-1.1,5,5,0,0,1-.11-1.1,4.79,4.79,0,0,1,.11-1.1,5,5,0,0,1-.11-1.1,4.79,4.79,0,0,1,.11-1.1,5,5,0,0,1-.11-1.1,4.79,4.79,0,0,1,.11-1.1,5.11,5.11,0,0,1-.11-1.1,4.79,4.79,0,0,1,.11-1.1h-1.65a5.14,5.14,0,0,1-.11-1.11,4.85,4.85,0,0,1,.11-1.1h3.85a4.85,4.85,0,0,1,.11,1.1,5.14,5.14,0,0,1-.11,1.11,4.79,4.79,0,0,1,.11,1.1,5.11,5.11,0,0,1-.11,1.1,4.79,4.79,0,0,1,.11,1.1,5,5,0,0,1-.11,1.1,4.79,4.79,0,0,1,.11,1.1,5,5,0,0,1-.11,1.1,4.79,4.79,0,0,1,.11,1.1,5,5,0,0,1-.11,1.1,4.79,4.79,0,0,1,.11,1.1,5,5,0,0,1-.11,1.1h2.2A4.29,4.29,0,0,1,147.39,53.58Z"/><path class="cls-2" d="M159.5,53.58a5,5,0,0,1-.11,1.1h-2.2a4.49,4.49,0,0,1-.11-1.1,4.29,4.29,0,0,1,.11-1.1h-1.1a4.49,4.49,0,0,1-.11-1.1,4.29,4.29,0,0,1,.11-1.1h-3.31a4.29,4.29,0,0,1,.11,1.1,4.49,4.49,0,0,1-.11,1.1h3.31a4.79,4.79,0,0,1,.11,1.1,5,5,0,0,1-.11,1.1h-4.41a5,5,0,0,1-.11-1.1,4.79,4.79,0,0,1,.11-1.1h-1.1a5,5,0,0,1-.11-1.1,4.79,4.79,0,0,1,.11-1.1h1.1a5,5,0,0,1-.11-1.1,4.79,4.79,0,0,1,.11-1.1h4.41A4.49,4.49,0,0,1,156,47a4.29,4.29,0,0,1,.11-1.1h-3.86a5,5,0,0,1-.11-1.1,4.79,4.79,0,0,1,.11-1.1h5a4.79,4.79,0,0,1,.11,1.1,5,5,0,0,1-.11,1.1h1.1a4.79,4.79,0,0,1,.11,1.1,5,5,0,0,1-.11,1.1,4.79,4.79,0,0,1,.11,1.1,5,5,0,0,1-.11,1.1,4.79,4.79,0,0,1,.11,1.1,5,5,0,0,1-.11,1.1h1.1A4.79,4.79,0,0,1,159.5,53.58Z"/><path class="cls-2" d="M170.39,45.88h-.82a4.79,4.79,0,0,1,.11,1.1,5,5,0,0,1-.11,1.1h-.83a4.79,4.79,0,0,1,.11,1.1,5,5,0,0,1-.11,1.1h-.55a4.79,4.79,0,0,1,.11,1.1,5,5,0,0,1-.11,1.1h-.82a4.79,4.79,0,0,1,.11,1.1,5,5,0,0,1-.11,1.1h-.55a4.79,4.79,0,0,1,.11,1.1,5,5,0,0,1-.11,1.1h-1.1a4.85,4.85,0,0,1,.11,1.1,5,5,0,0,1-.11,1.1h-3.31a5,5,0,0,1-.11-1.1,4.85,4.85,0,0,1,.11-1.1h2.2a5,5,0,0,1-.11-1.1,4.79,4.79,0,0,1,.11-1.1,5,5,0,0,1-.11-1.1,4.79,4.79,0,0,1,.11-1.1h-1.1a5,5,0,0,1-.11-1.1,4.79,4.79,0,0,1,.11-1.1H163a5,5,0,0,1-.11-1.1,4.79,4.79,0,0,1,.11-1.1h-.82A5,5,0,0,1,162,47a4.79,4.79,0,0,1,.11-1.1h-.83a5,5,0,0,1-.11-1.1,4.79,4.79,0,0,1,.11-1.1h2.2a4.29,4.29,0,0,1,.11,1.1,4.49,4.49,0,0,1-.11,1.1h.83a4.79,4.79,0,0,1,.11,1.1,5,5,0,0,1-.11,1.1h.82a4.29,4.29,0,0,1,.11,1.1,4.49,4.49,0,0,1-.11,1.1,4.29,4.29,0,0,1,.11,1.1,4.49,4.49,0,0,1-.11,1.1H166a5,5,0,0,1-.11-1.1,4.79,4.79,0,0,1,.11-1.1h.55a5,5,0,0,1-.11-1.1,4.79,4.79,0,0,1,.11-1.1h.83a4.49,4.49,0,0,1-.11-1.1,4.29,4.29,0,0,1,.11-1.1h.82a5,5,0,0,1-.11-1.1,4.79,4.79,0,0,1,.11-1.1h2.2a4.29,4.29,0,0,1,.11,1.1A4.49,4.49,0,0,1,170.39,45.88Z"/><path class="cls-2" d="M112.17,37.67a.74.74,0,0,1-.74-.73,9.33,9.33,0,0,1,9.32-9.32.74.74,0,1,1,0,1.47,7.86,7.86,0,0,0-7.85,7.85A.73.73,0,0,1,112.17,37.67Z"/><path class="cls-4" d="M136.35,42.8a4.79,4.79,0,0,1,.11,1.1,5,5,0,0,1-.11,1.1h-1.1a4.79,4.79,0,0,1,.11,1.1,5,5,0,0,1-.11,1.1h-5.5a4.79,4.79,0,0,1,.11,1.1,5,5,0,0,1-.11,1.1,4.79,4.79,0,0,1,.11,1.1,5,5,0,0,1-.11,1.1,4.79,4.79,0,0,1,.11,1.1,5,5,0,0,1-.11,1.1h-2.2a4.49,4.49,0,0,1-.11-1.1,4.29,4.29,0,0,1,.11-1.1,4.49,4.49,0,0,1-.11-1.1,4.29,4.29,0,0,1,.11-1.1,4.49,4.49,0,0,1-.11-1.1,4.29,4.29,0,0,1,.11-1.1,4.49,4.49,0,0,1-.11-1.1,4.29,4.29,0,0,1,.11-1.1,4.49,4.49,0,0,1-.11-1.1,4.29,4.29,0,0,1,.11-1.1,4.55,4.55,0,0,1-.11-1.1,4.42,4.42,0,0,1,.11-1.11,4.44,4.44,0,0,1-.11-1.1,4.34,4.34,0,0,1,.11-1.1h7.7a4.85,4.85,0,0,1,.11,1.1,5,5,0,0,1-.11,1.1h1.1a5,5,0,0,1,.11,1.11A5.11,5.11,0,0,1,136.35,42.8ZM134,43.9a4.79,4.79,0,0,1,.11-1.1,5.11,5.11,0,0,1-.11-1.1,5,5,0,0,1,.11-1.11h-4.4a5,5,0,0,1,.11,1.11,5.11,5.11,0,0,1-.11,1.1,4.79,4.79,0,0,1,.11,1.1,5,5,0,0,1-.11,1.1h4.4A5,5,0,0,1,134,43.9Z"/><path class="cls-4" d="M146.37,52.7a5,5,0,0,1-.11,1.1h-6.61a5,5,0,0,1-.11-1.1,4.79,4.79,0,0,1,.11-1.1h2.2a5,5,0,0,1-.11-1.1,4.79,4.79,0,0,1,.11-1.1,5,5,0,0,1-.11-1.1,4.79,4.79,0,0,1,.11-1.1,5,5,0,0,1-.11-1.1,4.79,4.79,0,0,1,.11-1.1,5,5,0,0,1-.11-1.1,4.79,4.79,0,0,1,.11-1.1,5.11,5.11,0,0,1-.11-1.1,5,5,0,0,1,.11-1.11H140.2a5,5,0,0,1-.11-1.1,4.85,4.85,0,0,1,.11-1.1h3.85a4.34,4.34,0,0,1,.11,1.1,4.44,4.44,0,0,1-.11,1.1,4.42,4.42,0,0,1,.11,1.11,4.55,4.55,0,0,1-.11,1.1,4.29,4.29,0,0,1,.11,1.1,4.49,4.49,0,0,1-.11,1.1,4.29,4.29,0,0,1,.11,1.1,4.49,4.49,0,0,1-.11,1.1,4.29,4.29,0,0,1,.11,1.1,4.49,4.49,0,0,1-.11,1.1,4.29,4.29,0,0,1,.11,1.1,4.49,4.49,0,0,1-.11,1.1h2.21A4.79,4.79,0,0,1,146.37,52.7Z"/><path class="cls-4" d="M158.47,52.7a5,5,0,0,1-.11,1.1h-2.2a5,5,0,0,1-.11-1.1,4.79,4.79,0,0,1,.11-1.1h-1.1a5,5,0,0,1-.11-1.1,4.79,4.79,0,0,1,.11-1.1h-3.3a4.79,4.79,0,0,1,.11,1.1,5,5,0,0,1-.11,1.1h3.3a4.79,4.79,0,0,1,.11,1.1,5,5,0,0,1-.11,1.1h-4.4a4.49,4.49,0,0,1-.11-1.1,4.29,4.29,0,0,1,.11-1.1h-1.1a4.49,4.49,0,0,1-.11-1.1,4.29,4.29,0,0,1,.11-1.1h1.1a4.49,4.49,0,0,1-.11-1.1,4.29,4.29,0,0,1,.11-1.1h4.4a5,5,0,0,1-.11-1.1,4.79,4.79,0,0,1,.11-1.1h-3.85a4.49,4.49,0,0,1-.11-1.1,4.29,4.29,0,0,1,.11-1.1h4.95a4.79,4.79,0,0,1,.11,1.1,5,5,0,0,1-.11,1.1h1.1a4.79,4.79,0,0,1,.11,1.1,5,5,0,0,1-.11,1.1,4.79,4.79,0,0,1,.11,1.1,5,5,0,0,1-.11,1.1,4.79,4.79,0,0,1,.11,1.1,5,5,0,0,1-.11,1.1h1.1A4.79,4.79,0,0,1,158.47,52.7Z"/><path class="cls-4" d="M169.36,45h-.82a4.79,4.79,0,0,1,.11,1.1,5,5,0,0,1-.11,1.1h-.83a4.29,4.29,0,0,1,.11,1.1,4.49,4.49,0,0,1-.11,1.1h-.55a4.29,4.29,0,0,1,.11,1.1,4.49,4.49,0,0,1-.11,1.1h-.82a4.79,4.79,0,0,1,.11,1.1,5,5,0,0,1-.11,1.1h-.55a4.79,4.79,0,0,1,.11,1.1,5,5,0,0,1-.11,1.1h-1.1a4.79,4.79,0,0,1,.11,1.1,5,5,0,0,1-.11,1.1h-3.3a4.49,4.49,0,0,1-.11-1.1,4.29,4.29,0,0,1,.11-1.1h2.2a4.49,4.49,0,0,1-.11-1.1,4.29,4.29,0,0,1,.11-1.1,4.49,4.49,0,0,1-.11-1.1,4.29,4.29,0,0,1,.11-1.1h-1.1a4.49,4.49,0,0,1-.11-1.1,4.29,4.29,0,0,1,.11-1.1h-.55a4.49,4.49,0,0,1-.11-1.1,4.29,4.29,0,0,1,.11-1.1h-.83a5,5,0,0,1-.11-1.1,4.79,4.79,0,0,1,.11-1.1h-.82a4.49,4.49,0,0,1-.11-1.1,4.29,4.29,0,0,1,.11-1.1h2.2a4.79,4.79,0,0,1,.11,1.1,5,5,0,0,1-.11,1.1h.82a4.29,4.29,0,0,1,.11,1.1,4.49,4.49,0,0,1-.11,1.1h.83a4.79,4.79,0,0,1,.11,1.1,5,5,0,0,1-.11,1.1,4.79,4.79,0,0,1,.11,1.1,5,5,0,0,1-.11,1.1H165a5,5,0,0,1-.11-1.1,4.79,4.79,0,0,1,.11-1.1h.55a5,5,0,0,1-.11-1.1,4.79,4.79,0,0,1,.11-1.1h.83a4.49,4.49,0,0,1-.11-1.1,4.29,4.29,0,0,1,.11-1.1h.82a5,5,0,0,1-.11-1.1,4.79,4.79,0,0,1,.11-1.1h2.2a4.29,4.29,0,0,1,.11,1.1A4.49,4.49,0,0,1,169.36,45Z"/><rect class="cls-1" x="200" width="100" height="100"/><rect class="cls-2" x="203.87" y="22.3" width="93.49" height="56.94" rx="28.47"/><rect class="cls-3" x="202.64" y="20.76" width="93.49" height="56.94" rx="28.47"/><path class="cls-4" d="M237.38,43.68a4.79,4.79,0,0,1,.11,1.1,5,5,0,0,1-.11,1.1h-1.1a4.79,4.79,0,0,1,.11,1.1,5,5,0,0,1-.11,1.1h-5.5a4.79,4.79,0,0,1,.11,1.1,5,5,0,0,1-.11,1.1,4.79,4.79,0,0,1,.11,1.1,5,5,0,0,1-.11,1.1,4.79,4.79,0,0,1,.11,1.1,5,5,0,0,1-.11,1.1h-2.21a5,5,0,0,1-.11-1.1,4.79,4.79,0,0,1,.11-1.1,5,5,0,0,1-.11-1.1,4.79,4.79,0,0,1,.11-1.1,5,5,0,0,1-.11-1.1,4.79,4.79,0,0,1,.11-1.1,5,5,0,0,1-.11-1.1,4.79,4.79,0,0,1,.11-1.1,5,5,0,0,1-.11-1.1,4.79,4.79,0,0,1,.11-1.1,5.11,5.11,0,0,1-.11-1.1,4.79,4.79,0,0,1,.11-1.1,5.14,5.14,0,0,1-.11-1.11,4.85,4.85,0,0,1,.11-1.1h7.71a4.85,4.85,0,0,1,.11,1.1,5.14,5.14,0,0,1-.11,1.11h1.1a4.79,4.79,0,0,1,.11,1.1A5.11,5.11,0,0,1,237.38,43.68Zm-2.31,1.1a4.29,4.29,0,0,1,.11-1.1,4.55,4.55,0,0,1-.11-1.1,4.29,4.29,0,0,1,.11-1.1h-4.4a4.79,4.79,0,0,1,.11,1.1,5.11,5.11,0,0,1-.11,1.1,4.79,4.79,0,0,1,.11,1.1,5,5,0,0,1-.11,1.1h4.4A4.49,4.49,0,0,1,235.07,44.78Z"/><path class="cls-4" d="M247.39,53.58a4.49,4.49,0,0,1-.11,1.1h-6.6a5,5,0,0,1-.11-1.1,4.79,4.79,0,0,1,.11-1.1h2.2a5,5,0,0,1-.11-1.1,4.79,4.79,0,0,1,.11-1.1,5,5,0,0,1-.11-1.1,4.79,4.79,0,0,1,.11-1.1,5,5,0,0,1-.11-1.1,4.79,4.79,0,0,1,.11-1.1,5,5,0,0,1-.11-1.1,4.79,4.79,0,0,1,.11-1.1,5.11,5.11,0,0,1-.11-1.1,4.79,4.79,0,0,1,.11-1.1h-1.65a5.14,5.14,0,0,1-.11-1.11,4.85,4.85,0,0,1,.11-1.1h3.85a4.85,4.85,0,0,1,.11,1.1,5.14,5.14,0,0,1-.11,1.11,4.79,4.79,0,0,1,.11,1.1,5.11,5.11,0,0,1-.11,1.1,4.79,4.79,0,0,1,.11,1.1,5,5,0,0,1-.11,1.1,4.79,4.79,0,0,1,.11,1.1,5,5,0,0,1-.11,1.1,4.79,4.79,0,0,1,.11,1.1,5,5,0,0,1-.11,1.1,4.79,4.79,0,0,1,.11,1.1,5,5,0,0,1-.11,1.1h2.2A4.29,4.29,0,0,1,247.39,53.58Z"/><path class="cls-4" d="M259.5,53.58a5,5,0,0,1-.11,1.1h-2.2a4.49,4.49,0,0,1-.11-1.1,4.29,4.29,0,0,1,.11-1.1h-1.1a4.49,4.49,0,0,1-.11-1.1,4.29,4.29,0,0,1,.11-1.1h-3.31a4.29,4.29,0,0,1,.11,1.1,4.49,4.49,0,0,1-.11,1.1h3.31a4.79,4.79,0,0,1,.11,1.1,5,5,0,0,1-.11,1.1h-4.41a5,5,0,0,1-.11-1.1,4.79,4.79,0,0,1,.11-1.1h-1.1a5,5,0,0,1-.11-1.1,4.79,4.79,0,0,1,.11-1.1h1.1a5,5,0,0,1-.11-1.1,4.79,4.79,0,0,1,.11-1.1h4.41A4.49,4.49,0,0,1,256,47a4.29,4.29,0,0,1,.11-1.1h-3.86a5,5,0,0,1-.11-1.1,4.79,4.79,0,0,1,.11-1.1h5a4.79,4.79,0,0,1,.11,1.1,5,5,0,0,1-.11,1.1h1.1a4.79,4.79,0,0,1,.11,1.1,5,5,0,0,1-.11,1.1,4.79,4.79,0,0,1,.11,1.1,5,5,0,0,1-.11,1.1,4.79,4.79,0,0,1,.11,1.1,5,5,0,0,1-.11,1.1h1.1A4.79,4.79,0,0,1,259.5,53.58Z"/><path class="cls-4" d="M270.39,45.88h-.82a4.79,4.79,0,0,1,.11,1.1,5,5,0,0,1-.11,1.1h-.83a4.79,4.79,0,0,1,.11,1.1,5,5,0,0,1-.11,1.1h-.55a4.79,4.79,0,0,1,.11,1.1,5,5,0,0,1-.11,1.1h-.82a4.79,4.79,0,0,1,.11,1.1,5,5,0,0,1-.11,1.1h-.55a4.79,4.79,0,0,1,.11,1.1,5,5,0,0,1-.11,1.1h-1.1a4.85,4.85,0,0,1,.11,1.1,5,5,0,0,1-.11,1.1h-3.31a5,5,0,0,1-.11-1.1,4.85,4.85,0,0,1,.11-1.1h2.2a5,5,0,0,1-.11-1.1,4.79,4.79,0,0,1,.11-1.1,5,5,0,0,1-.11-1.1,4.79,4.79,0,0,1,.11-1.1h-1.1a5,5,0,0,1-.11-1.1,4.79,4.79,0,0,1,.11-1.1H263a5,5,0,0,1-.11-1.1,4.79,4.79,0,0,1,.11-1.1h-.82A5,5,0,0,1,262,47a4.79,4.79,0,0,1,.11-1.1h-.83a5,5,0,0,1-.11-1.1,4.79,4.79,0,0,1,.11-1.1h2.2a4.29,4.29,0,0,1,.11,1.1,4.49,4.49,0,0,1-.11,1.1h.83a4.79,4.79,0,0,1,.11,1.1,5,5,0,0,1-.11,1.1h.82a4.29,4.29,0,0,1,.11,1.1,4.49,4.49,0,0,1-.11,1.1,4.29,4.29,0,0,1,.11,1.1,4.49,4.49,0,0,1-.11,1.1H266a5,5,0,0,1-.11-1.1,4.79,4.79,0,0,1,.11-1.1h.55a5,5,0,0,1-.11-1.1,4.79,4.79,0,0,1,.11-1.1h.83a4.49,4.49,0,0,1-.11-1.1,4.29,4.29,0,0,1,.11-1.1h.82a5,5,0,0,1-.11-1.1,4.79,4.79,0,0,1,.11-1.1h2.2a4.29,4.29,0,0,1,.11,1.1A4.49,4.49,0,0,1,270.39,45.88Z"/><path class="cls-2" d="M212.17,37.67a.74.74,0,0,1-.74-.73,9.33,9.33,0,0,1,9.32-9.32.74.74,0,1,1,0,1.47,7.86,7.86,0,0,0-7.85,7.85A.73.73,0,0,1,212.17,37.67Z"/><path class="cls-2" d="M236.35,42.8a4.79,4.79,0,0,1,.11,1.1,5,5,0,0,1-.11,1.1h-1.1a4.79,4.79,0,0,1,.11,1.1,5,5,0,0,1-.11,1.1h-5.5a4.79,4.79,0,0,1,.11,1.1,5,5,0,0,1-.11,1.1,4.79,4.79,0,0,1,.11,1.1,5,5,0,0,1-.11,1.1,4.79,4.79,0,0,1,.11,1.1,5,5,0,0,1-.11,1.1h-2.2a4.49,4.49,0,0,1-.11-1.1,4.29,4.29,0,0,1,.11-1.1,4.49,4.49,0,0,1-.11-1.1,4.29,4.29,0,0,1,.11-1.1,4.49,4.49,0,0,1-.11-1.1,4.29,4.29,0,0,1,.11-1.1,4.49,4.49,0,0,1-.11-1.1,4.29,4.29,0,0,1,.11-1.1,4.49,4.49,0,0,1-.11-1.1,4.29,4.29,0,0,1,.11-1.1,4.55,4.55,0,0,1-.11-1.1,4.42,4.42,0,0,1,.11-1.11,4.44,4.44,0,0,1-.11-1.1,4.34,4.34,0,0,1,.11-1.1h7.7a4.85,4.85,0,0,1,.11,1.1,5,5,0,0,1-.11,1.1h1.1a5,5,0,0,1,.11,1.11A5.11,5.11,0,0,1,236.35,42.8ZM234,43.9a4.79,4.79,0,0,1,.11-1.1,5.11,5.11,0,0,1-.11-1.1,5,5,0,0,1,.11-1.11h-4.4a5,5,0,0,1,.11,1.11,5.11,5.11,0,0,1-.11,1.1,4.79,4.79,0,0,1,.11,1.1,5,5,0,0,1-.11,1.1h4.4A5,5,0,0,1,234,43.9Z"/><path class="cls-2" d="M246.37,52.7a5,5,0,0,1-.11,1.1h-6.61a5,5,0,0,1-.11-1.1,4.79,4.79,0,0,1,.11-1.1h2.2a5,5,0,0,1-.11-1.1,4.79,4.79,0,0,1,.11-1.1,5,5,0,0,1-.11-1.1,4.79,4.79,0,0,1,.11-1.1,5,5,0,0,1-.11-1.1,4.79,4.79,0,0,1,.11-1.1,5,5,0,0,1-.11-1.1,4.79,4.79,0,0,1,.11-1.1,5.11,5.11,0,0,1-.11-1.1,5,5,0,0,1,.11-1.11H240.2a5,5,0,0,1-.11-1.1,4.85,4.85,0,0,1,.11-1.1h3.85a4.34,4.34,0,0,1,.11,1.1,4.44,4.44,0,0,1-.11,1.1,4.42,4.42,0,0,1,.11,1.11,4.55,4.55,0,0,1-.11,1.1,4.29,4.29,0,0,1,.11,1.1,4.49,4.49,0,0,1-.11,1.1,4.29,4.29,0,0,1,.11,1.1,4.49,4.49,0,0,1-.11,1.1,4.29,4.29,0,0,1,.11,1.1,4.49,4.49,0,0,1-.11,1.1,4.29,4.29,0,0,1,.11,1.1,4.49,4.49,0,0,1-.11,1.1h2.21A4.79,4.79,0,0,1,246.37,52.7Z"/><path class="cls-2" d="M258.47,52.7a5,5,0,0,1-.11,1.1h-2.2a5,5,0,0,1-.11-1.1,4.79,4.79,0,0,1,.11-1.1h-1.1a5,5,0,0,1-.11-1.1,4.79,4.79,0,0,1,.11-1.1h-3.3a4.79,4.79,0,0,1,.11,1.1,5,5,0,0,1-.11,1.1h3.3a4.79,4.79,0,0,1,.11,1.1,5,5,0,0,1-.11,1.1h-4.4a4.49,4.49,0,0,1-.11-1.1,4.29,4.29,0,0,1,.11-1.1h-1.1a4.49,4.49,0,0,1-.11-1.1,4.29,4.29,0,0,1,.11-1.1h1.1a4.49,4.49,0,0,1-.11-1.1,4.29,4.29,0,0,1,.11-1.1h4.4a5,5,0,0,1-.11-1.1,4.79,4.79,0,0,1,.11-1.1h-3.85a4.49,4.49,0,0,1-.11-1.1,4.29,4.29,0,0,1,.11-1.1h5a4.79,4.79,0,0,1,.11,1.1,5,5,0,0,1-.11,1.1h1.1a4.79,4.79,0,0,1,.11,1.1,5,5,0,0,1-.11,1.1,4.79,4.79,0,0,1,.11,1.1,5,5,0,0,1-.11,1.1,4.79,4.79,0,0,1,.11,1.1,5,5,0,0,1-.11,1.1h1.1A4.79,4.79,0,0,1,258.47,52.7Z"/><path class="cls-2" d="M269.36,45h-.82a4.79,4.79,0,0,1,.11,1.1,5,5,0,0,1-.11,1.1h-.83a4.29,4.29,0,0,1,.11,1.1,4.49,4.49,0,0,1-.11,1.1h-.55a4.29,4.29,0,0,1,.11,1.1,4.49,4.49,0,0,1-.11,1.1h-.82a4.79,4.79,0,0,1,.11,1.1,5,5,0,0,1-.11,1.1h-.55a4.79,4.79,0,0,1,.11,1.1,5,5,0,0,1-.11,1.1h-1.1a4.79,4.79,0,0,1,.11,1.1,5,5,0,0,1-.11,1.1h-3.3a4.49,4.49,0,0,1-.11-1.1,4.29,4.29,0,0,1,.11-1.1h2.2a4.49,4.49,0,0,1-.11-1.1,4.29,4.29,0,0,1,.11-1.1,4.49,4.49,0,0,1-.11-1.1,4.29,4.29,0,0,1,.11-1.1h-1.1a4.49,4.49,0,0,1-.11-1.1,4.29,4.29,0,0,1,.11-1.1h-.55a4.49,4.49,0,0,1-.11-1.1,4.29,4.29,0,0,1,.11-1.1h-.83a5,5,0,0,1-.11-1.1,4.79,4.79,0,0,1,.11-1.1h-.82a4.49,4.49,0,0,1-.11-1.1,4.29,4.29,0,0,1,.11-1.1h2.2a4.79,4.79,0,0,1,.11,1.1,5,5,0,0,1-.11,1.1h.82a4.29,4.29,0,0,1,.11,1.1,4.49,4.49,0,0,1-.11,1.1h.83a4.79,4.79,0,0,1,.11,1.1,5,5,0,0,1-.11,1.1,4.79,4.79,0,0,1,.11,1.1,5,5,0,0,1-.11,1.1H265a5,5,0,0,1-.11-1.1,4.79,4.79,0,0,1,.11-1.1h.55a5,5,0,0,1-.11-1.1,4.79,4.79,0,0,1,.11-1.1h.83a4.49,4.49,0,0,1-.11-1.1,4.29,4.29,0,0,1,.11-1.1h.82a5,5,0,0,1-.11-1.1,4.79,4.79,0,0,1,.11-1.1h2.2a4.29,4.29,0,0,1,.11,1.1A4.49,4.49,0,0,1,269.36,45Z"/></svg>
