<svg xmlns="http://www.w3.org/2000/svg" width="130" height="70" viewBox="0 0 130 70"><defs><style>.cls-1{fill:#b2569e;}.cls-2{fill:#ff94e7;}.cls-3{fill:#fff;}</style></defs><title>nypoint</title><g id="UI_elementer" data-name="UI elementer"><rect class="cls-1" x="5.75" y="5" width="119.25" height="59.62" rx="27.57"/><rect class="cls-2" x="4" y="3" width="119.25" height="59.62" rx="27.57"/><path class="cls-3" d="M58.14,37.69H56.86A5.15,5.15,0,0,1,57,39a5.37,5.37,0,0,1-.13,1.28H55.58a5.15,5.15,0,0,1,.13,1.28,5.37,5.37,0,0,1-.13,1.28H50.46a5.15,5.15,0,0,1,.13,1.28,5.37,5.37,0,0,1-.13,1.28,5.15,5.15,0,0,1,.13,1.28,5.37,5.37,0,0,1-.13,1.28H47.9a6,6,0,0,1-.12-1.28,5.73,5.73,0,0,1,.12-1.28,6,6,0,0,1-.12-1.28,5.73,5.73,0,0,1,.12-1.28,6,6,0,0,1-.12-1.28,5.73,5.73,0,0,1,.12-1.28A6,6,0,0,1,47.78,39a5.73,5.73,0,0,1,.12-1.28,6,6,0,0,1-.12-1.28,5.73,5.73,0,0,1,.12-1.28,6,6,0,0,1-.12-1.28,5.73,5.73,0,0,1,.12-1.28,6,6,0,0,1-.12-1.28A5.73,5.73,0,0,1,47.9,30h2.56a5.15,5.15,0,0,1,.13,1.28,5.37,5.37,0,0,1-.13,1.28h1.28a5.15,5.15,0,0,1,.13,1.28,5.37,5.37,0,0,1-.13,1.28H50.46a5.15,5.15,0,0,1,.13,1.28,5.37,5.37,0,0,1-.13,1.28A5.15,5.15,0,0,1,50.59,39a5.37,5.37,0,0,1-.13,1.28H54.3A5.94,5.94,0,0,1,54.17,39a5.67,5.67,0,0,1,.13-1.28h1.28a6,6,0,0,1-.12-1.28,5.73,5.73,0,0,1,.12-1.28H54.3a5.94,5.94,0,0,1-.13-1.28,5.67,5.67,0,0,1,.13-1.28H51.74a6,6,0,0,1-.12-1.28A5.73,5.73,0,0,1,51.74,30h3.84a5.15,5.15,0,0,1,.13,1.28,5.37,5.37,0,0,1-.13,1.28h1.28A5.15,5.15,0,0,1,57,33.85a5.37,5.37,0,0,1-.13,1.28h1.28a5.15,5.15,0,0,1,.13,1.28A5.37,5.37,0,0,1,58.14,37.69Z"/><path class="cls-3" d="M70.94,37.69H70A5.15,5.15,0,0,1,70.11,39,5.37,5.37,0,0,1,70,40.25h-1.6a5.15,5.15,0,0,1,.13,1.28,5.37,5.37,0,0,1-.13,1.28H63.26a5.94,5.94,0,0,1-.13-1.28,5.67,5.67,0,0,1,.13-1.28h-1.6A6,6,0,0,1,61.54,39a5.73,5.73,0,0,1,.12-1.28h-1a6,6,0,0,1-.12-1.28,5.73,5.73,0,0,1,.12-1.28h1a6,6,0,0,1-.12-1.28,5.73,5.73,0,0,1,.12-1.28h1.6a5.94,5.94,0,0,1-.13-1.28A5.67,5.67,0,0,1,63.26,30h5.12a5.15,5.15,0,0,1,.13,1.28,5.37,5.37,0,0,1-.13,1.28H70a5.15,5.15,0,0,1,.13,1.28A5.37,5.37,0,0,1,70,35.13h1a5.15,5.15,0,0,1,.13,1.28A5.37,5.37,0,0,1,70.94,37.69Zm-2.56,0a5.94,5.94,0,0,1-.13-1.28,5.67,5.67,0,0,1,.13-1.28h-1a5.94,5.94,0,0,1-.13-1.28,5.67,5.67,0,0,1,.13-1.28h-3.2a5.15,5.15,0,0,1,.13,1.28,5.37,5.37,0,0,1-.13,1.28h-1a5.15,5.15,0,0,1,.13,1.28,5.37,5.37,0,0,1-.13,1.28h1A5.15,5.15,0,0,1,64.35,39a5.37,5.37,0,0,1-.13,1.28h3.2A5.94,5.94,0,0,1,67.29,39a5.67,5.67,0,0,1,.13-1.28Z"/><path class="cls-3" d="M82.59,41.53a5.37,5.37,0,0,1-.13,1.28H74.78a5.94,5.94,0,0,1-.13-1.28,5.67,5.67,0,0,1,.13-1.28h2.56A5.94,5.94,0,0,1,77.21,39a5.67,5.67,0,0,1,.13-1.28,5.94,5.94,0,0,1-.13-1.28,5.67,5.67,0,0,1,.13-1.28,5.94,5.94,0,0,1-.13-1.28,5.67,5.67,0,0,1,.13-1.28H75.42a5.94,5.94,0,0,1-.13-1.28A5.67,5.67,0,0,1,75.42,30H79.9A5.15,5.15,0,0,1,80,31.29a5.37,5.37,0,0,1-.13,1.28A5.15,5.15,0,0,1,80,33.85a5.37,5.37,0,0,1-.13,1.28A5.15,5.15,0,0,1,80,36.41a5.37,5.37,0,0,1-.13,1.28A5.15,5.15,0,0,1,80,39a5.37,5.37,0,0,1-.13,1.28h2.56A5.15,5.15,0,0,1,82.59,41.53ZM77.34,27.45a5.94,5.94,0,0,1-.13-1.28,5.67,5.67,0,0,1,.13-1.28H79.9A5.15,5.15,0,0,1,80,26.17a5.37,5.37,0,0,1-.13,1.28Z"/><path class="cls-3" d="M88.54,32.57h1.28A5.15,5.15,0,0,1,90,33.85a5.37,5.37,0,0,1-.13,1.28h-1A5.15,5.15,0,0,1,89,36.41a5.37,5.37,0,0,1-.13,1.28A5.15,5.15,0,0,1,89,39a5.37,5.37,0,0,1-.13,1.28A5.15,5.15,0,0,1,89,41.53a5.37,5.37,0,0,1-.13,1.28H86.3a5.94,5.94,0,0,1-.13-1.28,5.67,5.67,0,0,1,.13-1.28A5.94,5.94,0,0,1,86.17,39a5.67,5.67,0,0,1,.13-1.28,5.94,5.94,0,0,1-.13-1.28,5.67,5.67,0,0,1,.13-1.28,5.94,5.94,0,0,1-.13-1.28,5.67,5.67,0,0,1,.13-1.28,5.94,5.94,0,0,1-.13-1.28A5.67,5.67,0,0,1,86.3,30h2.24a5.15,5.15,0,0,1,.13,1.28A5.37,5.37,0,0,1,88.54,32.57Zm8.13,3.84a5.37,5.37,0,0,1-.13,1.28A5.15,5.15,0,0,1,96.67,39a5.37,5.37,0,0,1-.13,1.28,5.15,5.15,0,0,1,.13,1.28,5.37,5.37,0,0,1-.13,1.28H94a5.94,5.94,0,0,1-.13-1.28A5.67,5.67,0,0,1,94,40.25,5.94,5.94,0,0,1,93.85,39,5.67,5.67,0,0,1,94,37.69a5.94,5.94,0,0,1-.13-1.28A5.67,5.67,0,0,1,94,35.13a5.94,5.94,0,0,1-.13-1.28A5.67,5.67,0,0,1,94,32.57H89.82a5.94,5.94,0,0,1-.13-1.28A5.67,5.67,0,0,1,89.82,30h5.12a5.15,5.15,0,0,1,.13,1.28,5.37,5.37,0,0,1-.13,1.28h1.6a5.15,5.15,0,0,1,.13,1.28,5.37,5.37,0,0,1-.13,1.28A5.15,5.15,0,0,1,96.67,36.41Z"/><path class="cls-3" d="M108.06,40.25a5.15,5.15,0,0,1,.13,1.28,5.37,5.37,0,0,1-.13,1.28h-5.12a5.94,5.94,0,0,1-.13-1.28,5.67,5.67,0,0,1,.13-1.28h-1.28a5.94,5.94,0,0,1-.13-1.28,5.67,5.67,0,0,1,.13-1.28,5.94,5.94,0,0,1-.13-1.28,5.67,5.67,0,0,1,.13-1.28,5.94,5.94,0,0,1-.13-1.28,5.67,5.67,0,0,1,.13-1.28H99.1A5.94,5.94,0,0,1,99,31.29,5.67,5.67,0,0,1,99.1,30h2.56a5.94,5.94,0,0,1-.13-1.28,5.67,5.67,0,0,1,.13-1.28,5.94,5.94,0,0,1-.13-1.28,5.67,5.67,0,0,1,.13-1.28h2.56a5.15,5.15,0,0,1,.13,1.28,5.37,5.37,0,0,1-.13,1.28,5.15,5.15,0,0,1,.13,1.28,5.37,5.37,0,0,1-.13,1.28h3.84a5.15,5.15,0,0,1,.13,1.28,5.37,5.37,0,0,1-.13,1.28h-3.84a5.15,5.15,0,0,1,.13,1.28,5.37,5.37,0,0,1-.13,1.28,5.15,5.15,0,0,1,.13,1.28,5.37,5.37,0,0,1-.13,1.28,5.15,5.15,0,0,1,.13,1.28,5.37,5.37,0,0,1-.13,1.28Z"/></g></svg>
