<svg xmlns="http://www.w3.org/2000/svg" width="170" height="70" viewBox="0 0 170 70"><defs><style>.cls-1{fill:#b2569e;}.cls-2{fill:#ff94e7;}.cls-3{fill:#fff;}</style></defs><title>Tid</title><g id="UI_elementer" data-name="UI elementer"><rect class="cls-1" x="7.87" y="4.45" width="159.13" height="61.52" rx="28.47"/><rect class="cls-2" x="5.69" y="3" width="159.13" height="61.52" rx="28.47"/><path class="cls-3" d="M65.87,38.31H64.76a4.42,4.42,0,0,1,.11,1.11,4.53,4.53,0,0,1-.11,1.11h-6.1a5.08,5.08,0,0,1-.11-1.11,5,5,0,0,1,.11-1.11h5a5,5,0,0,1-.11-1.1,4.82,4.82,0,0,1,.11-1.11H59.22A5.21,5.21,0,0,1,59.11,35a4.88,4.88,0,0,1,.11-1.11H58.11A5.08,5.08,0,0,1,58,32.77a5,5,0,0,1,.11-1.11h1.11a5.08,5.08,0,0,1-.11-1.11,5,5,0,0,1,.11-1.11h6.1a5,5,0,0,1,.11,1.11,5.08,5.08,0,0,1-.11,1.11h-5a5,5,0,0,1,.11,1.11,5.08,5.08,0,0,1-.11,1.11h4.43A4.37,4.37,0,0,1,64.87,35a4.63,4.63,0,0,1-.11,1.11h1.11A4.32,4.32,0,0,1,66,37.21,4.49,4.49,0,0,1,65.87,38.31Z"/><path class="cls-3" d="M87.49,38.31a4.42,4.42,0,0,1,.11,1.11,4.53,4.53,0,0,1-.11,1.11H83.06A4.53,4.53,0,0,1,83,39.42a4.42,4.42,0,0,1,.11-1.11H82a4.49,4.49,0,0,1-.11-1.1A4.32,4.32,0,0,1,82,36.1,4.63,4.63,0,0,1,81.84,35,4.37,4.37,0,0,1,82,33.88a4.53,4.53,0,0,1-.11-1.11A4.42,4.42,0,0,1,82,31.66H79.73a5.08,5.08,0,0,1-.11-1.11,5,5,0,0,1,.11-1.11H82a4.49,4.49,0,0,1-.11-1.1A4.32,4.32,0,0,1,82,27.23a4.63,4.63,0,0,1-.11-1.11A4.37,4.37,0,0,1,82,25h2.22a4.88,4.88,0,0,1,.11,1.11,5.21,5.21,0,0,1-.11,1.11,4.82,4.82,0,0,1,.11,1.11,5,5,0,0,1-.11,1.1h3.32a4.42,4.42,0,0,1,.11,1.11,4.53,4.53,0,0,1-.11,1.11H84.17a5,5,0,0,1,.11,1.11,5.08,5.08,0,0,1-.11,1.11A4.88,4.88,0,0,1,84.28,35a5.21,5.21,0,0,1-.11,1.11,4.82,4.82,0,0,1,.11,1.11,5,5,0,0,1-.11,1.1Z"/><path class="cls-3" d="M98.69,39.42a5.08,5.08,0,0,1-.11,1.11H91.93a4.53,4.53,0,0,1-.11-1.11,4.42,4.42,0,0,1,.11-1.11h2.21a5,5,0,0,1-.11-1.1,4.82,4.82,0,0,1,.11-1.11A5.21,5.21,0,0,1,94,35a4.88,4.88,0,0,1,.11-1.11A5.08,5.08,0,0,1,94,32.77a5,5,0,0,1,.11-1.11H92.48a5.08,5.08,0,0,1-.11-1.11,5,5,0,0,1,.11-1.11h3.88a5,5,0,0,1,.11,1.11,5.08,5.08,0,0,1-.11,1.11,5,5,0,0,1,.11,1.11,5.08,5.08,0,0,1-.11,1.11A4.88,4.88,0,0,1,96.47,35a5.21,5.21,0,0,1-.11,1.11,4.82,4.82,0,0,1,.11,1.11,5,5,0,0,1-.11,1.1h2.22A5,5,0,0,1,98.69,39.42ZM94.14,27.23A5.21,5.21,0,0,1,94,26.12,4.88,4.88,0,0,1,94.14,25h2.22a4.88,4.88,0,0,1,.11,1.11,5.21,5.21,0,0,1-.11,1.11Z"/><path class="cls-3" d="M109.78,39.42a4.49,4.49,0,0,1-.12,1.11H103a5.08,5.08,0,0,1-.11-1.11,5,5,0,0,1,.11-1.11h2.22a5,5,0,0,1-.11-1.1,4.82,4.82,0,0,1,.11-1.11,5.21,5.21,0,0,1-.11-1.11,4.88,4.88,0,0,1,.11-1.11,5.08,5.08,0,0,1-.11-1.11,5,5,0,0,1,.11-1.11,5.08,5.08,0,0,1-.11-1.11,5,5,0,0,1,.11-1.11,5,5,0,0,1-.11-1.1,4.82,4.82,0,0,1,.11-1.11h-1.66a4.63,4.63,0,0,1-.11-1.11,4.37,4.37,0,0,1,.11-1.11h3.88a4.88,4.88,0,0,1,.11,1.11,5.21,5.21,0,0,1-.11,1.11,4.82,4.82,0,0,1,.11,1.11,5,5,0,0,1-.11,1.1,5,5,0,0,1,.11,1.11,5.08,5.08,0,0,1-.11,1.11,5,5,0,0,1,.11,1.11,5.08,5.08,0,0,1-.11,1.11,4.88,4.88,0,0,1,.11,1.11,5.21,5.21,0,0,1-.11,1.11,4.82,4.82,0,0,1,.11,1.11,5,5,0,0,1-.11,1.1h2.21A4.38,4.38,0,0,1,109.78,39.42Z"/><path class="cls-3" d="M115.32,37.21a5,5,0,0,1-.11,1.1H114.1a5,5,0,0,1,.11,1.11,5.08,5.08,0,0,1-.11,1.11H113a5.08,5.08,0,0,1-.11-1.11,5,5,0,0,1,.11-1.11,5,5,0,0,1-.11-1.1A4.82,4.82,0,0,1,113,36.1a5.21,5.21,0,0,1-.11-1.11,4.88,4.88,0,0,1,.11-1.11,5.08,5.08,0,0,1-.11-1.11,5,5,0,0,1,.11-1.11,5.08,5.08,0,0,1-.11-1.11,5,5,0,0,1,.11-1.11,5,5,0,0,1-.11-1.1,4.82,4.82,0,0,1,.11-1.11,5.21,5.21,0,0,1-.11-1.11A4.88,4.88,0,0,1,113,25h2.22a4.88,4.88,0,0,1,.11,1.11,5.21,5.21,0,0,1-.11,1.11,4.82,4.82,0,0,1,.11,1.11,5,5,0,0,1-.11,1.1,5,5,0,0,1,.11,1.11,5.08,5.08,0,0,1-.11,1.11h1.11a5,5,0,0,1,.11,1.11,5.08,5.08,0,0,1-.11,1.11h-1.11a4.88,4.88,0,0,1,.11,1.11,5.21,5.21,0,0,1-.11,1.11A4.82,4.82,0,0,1,115.32,37.21Zm-.11,1.1h3.32a4.42,4.42,0,0,1,.11,1.11,4.53,4.53,0,0,1-.11,1.11h-3.32a4.53,4.53,0,0,1-.11-1.11A4.42,4.42,0,0,1,115.21,38.31Zm6.65-2.21h-1.11a4.32,4.32,0,0,1,.11,1.11,4.49,4.49,0,0,1-.11,1.1h-2.22a5,5,0,0,1-.11-1.1,4.82,4.82,0,0,1,.11-1.11h1.11a5.21,5.21,0,0,1-.11-1.11,4.88,4.88,0,0,1,.11-1.11h-1.11a5.08,5.08,0,0,1-.11-1.11,5,5,0,0,1,.11-1.11h-2.21a4.53,4.53,0,0,1-.11-1.11,4.42,4.42,0,0,1,.11-1.11h3.32a4.42,4.42,0,0,1,.11,1.11,4.53,4.53,0,0,1-.11,1.11h1.11a4.42,4.42,0,0,1,.11,1.11,4.53,4.53,0,0,1-.11,1.11h1.11A4.88,4.88,0,0,1,122,35,5.21,5.21,0,0,1,121.86,36.1Z"/><path class="cls-3" d="M133.06,39.42a5.08,5.08,0,0,1-.11,1.11h-2.22a5.08,5.08,0,0,1-.11-1.11,5,5,0,0,1,.11-1.11h-1.11a5,5,0,0,1-.11-1.1,4.82,4.82,0,0,1,.11-1.11H126.3a4.82,4.82,0,0,1,.11,1.11,5,5,0,0,1-.11,1.1h3.32a4.42,4.42,0,0,1,.11,1.11,4.53,4.53,0,0,1-.11,1.11h-4.43a4.53,4.53,0,0,1-.11-1.11,4.42,4.42,0,0,1,.11-1.11h-1.11a4.49,4.49,0,0,1-.11-1.1,4.32,4.32,0,0,1,.11-1.11h1.11a4.63,4.63,0,0,1-.11-1.11,4.37,4.37,0,0,1,.11-1.11h4.43a5.08,5.08,0,0,1-.11-1.11,5,5,0,0,1,.11-1.11h-3.88a5.08,5.08,0,0,1-.11-1.11,5,5,0,0,1,.11-1.11h5a5,5,0,0,1,.11,1.11,5.08,5.08,0,0,1-.11,1.11h1.11a5,5,0,0,1,.11,1.11,5.08,5.08,0,0,1-.11,1.11A4.88,4.88,0,0,1,132,35a5.21,5.21,0,0,1-.11,1.11,4.82,4.82,0,0,1,.11,1.11,5,5,0,0,1-.11,1.1H133A5,5,0,0,1,133.06,39.42Z"/><path class="cls-3" d="M144.15,32.77a4.49,4.49,0,0,1-.12,1.11,4.32,4.32,0,0,1,.12,1.11A4.6,4.6,0,0,1,144,36.1a4.27,4.27,0,0,1,.12,1.11,4.46,4.46,0,0,1-.12,1.1,4.38,4.38,0,0,1,.12,1.11,4.49,4.49,0,0,1-.12,1.11h-1.1a5,5,0,0,1,.11,1.11,5.08,5.08,0,0,1-.11,1.11h-1.11a4.82,4.82,0,0,1,.11,1.11,5.21,5.21,0,0,1-.11,1.11h-4.44a5.21,5.21,0,0,1-.11-1.11,4.82,4.82,0,0,1,.11-1.11h3.33a5.08,5.08,0,0,1-.11-1.11,5,5,0,0,1,.11-1.11h1.11a4.53,4.53,0,0,1-.11-1.11,4.42,4.42,0,0,1,.11-1.11h-1.11a5,5,0,0,1-.11-1.1,4.82,4.82,0,0,1,.11-1.11h1.11a4.63,4.63,0,0,1-.11-1.11,4.37,4.37,0,0,1,.11-1.11,4.53,4.53,0,0,1-.11-1.11,4.42,4.42,0,0,1,.11-1.11h-3.61a4.42,4.42,0,0,1,.11,1.11,4.53,4.53,0,0,1-.11,1.11h-.83a4.37,4.37,0,0,1,.11,1.11,4.63,4.63,0,0,1-.11,1.11h.83a4.32,4.32,0,0,1,.11,1.11,4.49,4.49,0,0,1-.11,1.1h2.5a5,5,0,0,1,.11,1.11,5.08,5.08,0,0,1-.11,1.11h-3.33a5.08,5.08,0,0,1-.11-1.11,5,5,0,0,1,.11-1.11H136a4.49,4.49,0,0,1-.11-1.1A4.32,4.32,0,0,1,136,36.1h-.83a4.6,4.6,0,0,1-.12-1.11,4.32,4.32,0,0,1,.12-1.11H136a4.53,4.53,0,0,1-.11-1.11,4.42,4.42,0,0,1,.11-1.11h1.38a5.08,5.08,0,0,1-.11-1.11,5,5,0,0,1,.11-1.11H144a4.38,4.38,0,0,1,.12,1.11,4.49,4.49,0,0,1-.12,1.11A4.38,4.38,0,0,1,144.15,32.77Z"/><path class="cls-3" d="M155.12,33.88a4.37,4.37,0,0,1,.11,1.11,4.63,4.63,0,0,1-.11,1.11H149.3a4.82,4.82,0,0,1,.11,1.11,5,5,0,0,1-.11,1.1H154a4.42,4.42,0,0,1,.11,1.11,4.53,4.53,0,0,1-.11,1.11h-5.54a5.08,5.08,0,0,1-.11-1.11,5,5,0,0,1,.11-1.11h-1.39a5,5,0,0,1-.11-1.1,4.82,4.82,0,0,1,.11-1.11h-.83a5.21,5.21,0,0,1-.11-1.11,4.88,4.88,0,0,1,.11-1.11h.83a5.08,5.08,0,0,1-.11-1.11,5,5,0,0,1,.11-1.11h1.39a5.08,5.08,0,0,1-.11-1.11,5,5,0,0,1,.11-1.11H154a4.42,4.42,0,0,1,.11,1.11,4.53,4.53,0,0,1-.11,1.11h1.11a4.42,4.42,0,0,1,.11,1.11A4.53,4.53,0,0,1,155.12,33.88Zm-2.33-1.11a5,5,0,0,1,.11-1.11h-3.6a5,5,0,0,1,.11,1.11,5.08,5.08,0,0,1-.11,1.11h3.6A5.08,5.08,0,0,1,152.79,32.77Z"/></g></svg>
