<svg xmlns="http://www.w3.org/2000/svg" width="310" height="190" viewBox="0 0 310 190"><defs><style>.cls-1{fill:#b2569e;}.cls-2{fill:#ff94e7;}.cls-3{fill:#fff;}</style></defs><title>Playknap</title><g id="Titelskærm_baggrund"><rect class="cls-1" x="5.28" y="5.3" width="302.72" height="184.39" rx="33"/><rect class="cls-2" x="1.28" y="0.3" width="302.72" height="184.39" rx="33"/><path class="cls-1" d="M113.77,74.52a15.47,15.47,0,0,1,.35,3.57,16.18,16.18,0,0,1-.35,3.56H110.2a14.84,14.84,0,0,1,.36,3.56,15.59,15.59,0,0,1-.36,3.57H92.39a15.43,15.43,0,0,1,.35,3.56,16.06,16.06,0,0,1-.35,3.56,15.53,15.53,0,0,1,.35,3.57,16.18,16.18,0,0,1-.35,3.56,15.43,15.43,0,0,1,.35,3.56,16.21,16.21,0,0,1-.35,3.57H85.26a15.59,15.59,0,0,1-.36-3.57,14.84,14.84,0,0,1,.36-3.56,15.56,15.56,0,0,1-.36-3.56,14.93,14.93,0,0,1,.36-3.57,15.43,15.43,0,0,1-.36-3.56,14.84,14.84,0,0,1,.36-3.56,15.59,15.59,0,0,1-.36-3.57,14.84,14.84,0,0,1,.36-3.56,15.56,15.56,0,0,1-.36-3.56,14.88,14.88,0,0,1,.36-3.57A15.49,15.49,0,0,1,84.9,71a14.79,14.79,0,0,1,.36-3.56,15.59,15.59,0,0,1-.36-3.57,14.84,14.84,0,0,1,.36-3.56H110.2a14.84,14.84,0,0,1,.36,3.56,15.59,15.59,0,0,1-.36,3.57h3.57a15.37,15.37,0,0,1,.35,3.56A16.12,16.12,0,0,1,113.77,74.52Zm-7.49,3.57a14.88,14.88,0,0,1,.36-3.57,15.49,15.49,0,0,1-.36-3.56,14.79,14.79,0,0,1,.36-3.56H92.39A15.37,15.37,0,0,1,92.74,71a16.12,16.12,0,0,1-.35,3.56,15.47,15.47,0,0,1,.35,3.57,16.18,16.18,0,0,1-.35,3.56h14.25A15.56,15.56,0,0,1,106.28,78.09Z"/><path class="cls-1" d="M146.19,106.59a16.21,16.21,0,0,1-.35,3.57H124.46a15.59,15.59,0,0,1-.36-3.57,14.84,14.84,0,0,1,.36-3.56h7.12a16.18,16.18,0,0,1-.35-3.56,15.53,15.53,0,0,1,.35-3.57,16.06,16.06,0,0,1-.35-3.56,15.43,15.43,0,0,1,.35-3.56,16.21,16.21,0,0,1-.35-3.57,15.43,15.43,0,0,1,.35-3.56,16.18,16.18,0,0,1-.35-3.56,15.47,15.47,0,0,1,.35-3.57,16.12,16.12,0,0,1-.35-3.56,15.37,15.37,0,0,1,.35-3.56h-5.34a15.59,15.59,0,0,1-.36-3.57,14.84,14.84,0,0,1,.36-3.56h12.47a14.84,14.84,0,0,1,.36,3.56,15.59,15.59,0,0,1-.36,3.57,14.79,14.79,0,0,1,.36,3.56,15.49,15.49,0,0,1-.36,3.56,14.88,14.88,0,0,1,.36,3.57,15.56,15.56,0,0,1-.36,3.56,14.84,14.84,0,0,1,.36,3.56,15.59,15.59,0,0,1-.36,3.57,14.84,14.84,0,0,1,.36,3.56,15.43,15.43,0,0,1-.36,3.56,14.93,14.93,0,0,1,.36,3.57,15.56,15.56,0,0,1-.36,3.56h7.13A15.43,15.43,0,0,1,146.19,106.59Z"/><path class="cls-1" d="M185.39,106.59a16.21,16.21,0,0,1-.35,3.57h-7.13a15.59,15.59,0,0,1-.36-3.57,14.84,14.84,0,0,1,.36-3.56h-3.56a15.56,15.56,0,0,1-.36-3.56,14.93,14.93,0,0,1,.36-3.57h-10.7a14.93,14.93,0,0,1,.36,3.57,15.56,15.56,0,0,1-.36,3.56h10.7a15.43,15.43,0,0,1,.35,3.56,16.21,16.21,0,0,1-.35,3.57H160.09a15.59,15.59,0,0,1-.36-3.57,14.84,14.84,0,0,1,.36-3.56h-3.56a15.56,15.56,0,0,1-.36-3.56,14.93,14.93,0,0,1,.36-3.57h3.56a15.43,15.43,0,0,1-.36-3.56,14.84,14.84,0,0,1,.36-3.56h14.26a15.59,15.59,0,0,1-.36-3.57,14.84,14.84,0,0,1,.36-3.56H161.87a16.18,16.18,0,0,1-.35-3.56,15.47,15.47,0,0,1,.35-3.57h16a14.93,14.93,0,0,1,.35,3.57,15.6,15.6,0,0,1-.35,3.56h3.56a14.84,14.84,0,0,1,.36,3.56,15.59,15.59,0,0,1-.36,3.57,14.84,14.84,0,0,1,.36,3.56,15.43,15.43,0,0,1-.36,3.56,14.93,14.93,0,0,1,.36,3.57,15.56,15.56,0,0,1-.36,3.56H185A15.43,15.43,0,0,1,185.39,106.59Z"/><path class="cls-1" d="M220.67,81.65H218a15.43,15.43,0,0,1,.35,3.56,16.21,16.21,0,0,1-.35,3.57h-2.68a14.84,14.84,0,0,1,.36,3.56,15.43,15.43,0,0,1-.36,3.56h-1.78a14.93,14.93,0,0,1,.36,3.57,15.56,15.56,0,0,1-.36,3.56h-2.67a14.84,14.84,0,0,1,.36,3.56,15.59,15.59,0,0,1-.36,3.57h-1.78a15.43,15.43,0,0,1,.35,3.56,16.28,16.28,0,0,1-.35,3.57h-3.57a14.73,14.73,0,0,1,.36,3.56,15.56,15.56,0,0,1-.36,3.56H194.83a16.18,16.18,0,0,1-.35-3.56,15.31,15.31,0,0,1,.35-3.56H202a15.65,15.65,0,0,1-.36-3.57,14.84,14.84,0,0,1,.36-3.56,15.59,15.59,0,0,1-.36-3.57A14.84,14.84,0,0,1,202,103H198.4a15.56,15.56,0,0,1-.36-3.56,14.93,14.93,0,0,1,.36-3.57h-1.78a15.43,15.43,0,0,1-.36-3.56,14.84,14.84,0,0,1,.36-3.56h-2.68a16.21,16.21,0,0,1-.35-3.57,15.43,15.43,0,0,1,.35-3.56h-2.67a15.56,15.56,0,0,1-.36-3.56,14.88,14.88,0,0,1,.36-3.57h7.13a15.47,15.47,0,0,1,.35,3.57,16.18,16.18,0,0,1-.35,3.56h2.67a14.84,14.84,0,0,1,.36,3.56,15.59,15.59,0,0,1-.36,3.57h2.67a14.84,14.84,0,0,1,.36,3.56,15.43,15.43,0,0,1-.36,3.56,14.93,14.93,0,0,1,.36,3.57,15.56,15.56,0,0,1-.36,3.56h2.68a15.56,15.56,0,0,1-.36-3.56,14.93,14.93,0,0,1,.36-3.57h1.78a15.43,15.43,0,0,1-.36-3.56,14.84,14.84,0,0,1,.36-3.56h2.67a15.59,15.59,0,0,1-.36-3.57,14.84,14.84,0,0,1,.36-3.56h2.67a15.6,15.6,0,0,1-.35-3.56,14.93,14.93,0,0,1,.35-3.57h7.13a14.88,14.88,0,0,1,.36,3.57A15.56,15.56,0,0,1,220.67,81.65Z"/><path class="cls-1" d="M12.7,38.89a2.38,2.38,0,0,1-2.37-2.38A30.21,30.21,0,0,1,40.5,6.33a2.38,2.38,0,1,1,0,4.76A25.44,25.44,0,0,0,15.08,36.51,2.38,2.38,0,0,1,12.7,38.89Z"/><path class="cls-3" d="M110.44,71.67a14.88,14.88,0,0,1,.36,3.57,15.56,15.56,0,0,1-.36,3.56h-3.56a15.43,15.43,0,0,1,.35,3.56,16.21,16.21,0,0,1-.35,3.57H89.06a14.79,14.79,0,0,1,.36,3.56,15.49,15.49,0,0,1-.36,3.56,14.88,14.88,0,0,1,.36,3.57,15.56,15.56,0,0,1-.36,3.56,14.84,14.84,0,0,1,.36,3.56,15.59,15.59,0,0,1-.36,3.57H81.93a15.63,15.63,0,0,1-.35-3.57,14.9,14.9,0,0,1,.35-3.56,15.6,15.6,0,0,1-.35-3.56,14.93,14.93,0,0,1,.35-3.57,15.54,15.54,0,0,1-.35-3.56,14.84,14.84,0,0,1,.35-3.56,15.63,15.63,0,0,1-.35-3.57,14.9,14.9,0,0,1,.35-3.56,15.6,15.6,0,0,1-.35-3.56,14.93,14.93,0,0,1,.35-3.57,15.54,15.54,0,0,1-.35-3.56,14.84,14.84,0,0,1,.35-3.56A15.63,15.63,0,0,1,81.58,61a14.9,14.9,0,0,1,.35-3.56h24.95a15.43,15.43,0,0,1,.35,3.56,16.21,16.21,0,0,1-.35,3.57h3.56a14.79,14.79,0,0,1,.36,3.56A15.49,15.49,0,0,1,110.44,71.67ZM103,75.24a15.47,15.47,0,0,1,.35-3.57,16.12,16.12,0,0,1-.35-3.56,15.37,15.37,0,0,1,.35-3.56H89.06a14.79,14.79,0,0,1,.36,3.56,15.49,15.49,0,0,1-.36,3.56,14.88,14.88,0,0,1,.36,3.57,15.56,15.56,0,0,1-.36,3.56h14.25A16.18,16.18,0,0,1,103,75.24Z"/><path class="cls-3" d="M142.87,103.74a15.59,15.59,0,0,1-.36,3.57H121.13a15.59,15.59,0,0,1-.36-3.57,14.84,14.84,0,0,1,.36-3.56h7.13a15.56,15.56,0,0,1-.36-3.56,14.88,14.88,0,0,1,.36-3.57,15.49,15.49,0,0,1-.36-3.56,14.79,14.79,0,0,1,.36-3.56,15.59,15.59,0,0,1-.36-3.57,14.84,14.84,0,0,1,.36-3.56,15.56,15.56,0,0,1-.36-3.56,14.88,14.88,0,0,1,.36-3.57,15.49,15.49,0,0,1-.36-3.56,14.79,14.79,0,0,1,.36-3.56h-5.35a15.63,15.63,0,0,1-.35-3.57,14.9,14.9,0,0,1,.35-3.56h12.47a14.84,14.84,0,0,1,.36,3.56,15.59,15.59,0,0,1-.36,3.57,14.79,14.79,0,0,1,.36,3.56,15.49,15.49,0,0,1-.36,3.56,14.88,14.88,0,0,1,.36,3.57,15.56,15.56,0,0,1-.36,3.56,14.84,14.84,0,0,1,.36,3.56,15.59,15.59,0,0,1-.36,3.57,14.79,14.79,0,0,1,.36,3.56,15.49,15.49,0,0,1-.36,3.56,14.88,14.88,0,0,1,.36,3.57,15.56,15.56,0,0,1-.36,3.56h7.13A14.84,14.84,0,0,1,142.87,103.74Z"/><path class="cls-3" d="M182.07,103.74a15.59,15.59,0,0,1-.36,3.57h-7.13a15.63,15.63,0,0,1-.35-3.57,14.9,14.9,0,0,1,.35-3.56H171a15.56,15.56,0,0,1-.36-3.56,14.88,14.88,0,0,1,.36-3.57H160.33a15.47,15.47,0,0,1,.35,3.57,16.18,16.18,0,0,1-.35,3.56H171a14.9,14.9,0,0,1,.35,3.56,15.63,15.63,0,0,1-.35,3.57H156.76a16.21,16.21,0,0,1-.35-3.57,15.43,15.43,0,0,1,.35-3.56H153.2a15.56,15.56,0,0,1-.36-3.56,14.88,14.88,0,0,1,.36-3.57h3.56a16.12,16.12,0,0,1-.35-3.56,15.37,15.37,0,0,1,.35-3.56H171a15.59,15.59,0,0,1-.36-3.57A14.84,14.84,0,0,1,171,78.8H158.55a15.56,15.56,0,0,1-.36-3.56,14.88,14.88,0,0,1,.36-3.57h16a14.88,14.88,0,0,1,.36,3.57,15.56,15.56,0,0,1-.36,3.56h3.57a15.43,15.43,0,0,1,.35,3.56,16.21,16.21,0,0,1-.35,3.57,15.37,15.37,0,0,1,.35,3.56,16.12,16.12,0,0,1-.35,3.56,15.47,15.47,0,0,1,.35,3.57,16.18,16.18,0,0,1-.35,3.56h3.56A14.84,14.84,0,0,1,182.07,103.74Z"/><path class="cls-3" d="M217.34,78.8h-2.67a14.84,14.84,0,0,1,.36,3.56,15.59,15.59,0,0,1-.36,3.57H212a15.37,15.37,0,0,1,.35,3.56,16.12,16.12,0,0,1-.35,3.56h-1.78a15.47,15.47,0,0,1,.35,3.57,16.18,16.18,0,0,1-.35,3.56h-2.68a14.84,14.84,0,0,1,.36,3.56,15.59,15.59,0,0,1-.36,3.57h-1.78a14.79,14.79,0,0,1,.36,3.56,15.49,15.49,0,0,1-.36,3.56H202.2a15.47,15.47,0,0,1,.35,3.57,16.18,16.18,0,0,1-.35,3.56H191.51a15.56,15.56,0,0,1-.36-3.56,14.88,14.88,0,0,1,.36-3.57h7.12a16.12,16.12,0,0,1-.35-3.56,15.37,15.37,0,0,1,.35-3.56,16.21,16.21,0,0,1-.35-3.57,15.43,15.43,0,0,1,.35-3.56h-3.56a15.56,15.56,0,0,1-.36-3.56,14.88,14.88,0,0,1,.36-3.57h-1.78a15.49,15.49,0,0,1-.36-3.56,14.79,14.79,0,0,1,.36-3.56h-2.67a15.59,15.59,0,0,1-.36-3.57,14.84,14.84,0,0,1,.36-3.56h-2.68a16.18,16.18,0,0,1-.35-3.56,15.47,15.47,0,0,1,.35-3.57h7.13a14.88,14.88,0,0,1,.36,3.57,15.56,15.56,0,0,1-.36,3.56h2.67a14.84,14.84,0,0,1,.36,3.56,15.59,15.59,0,0,1-.36,3.57h2.68a15.37,15.37,0,0,1,.35,3.56,16.12,16.12,0,0,1-.35,3.56,15.47,15.47,0,0,1,.35,3.57,16.18,16.18,0,0,1-.35,3.56h2.67a15.56,15.56,0,0,1-.36-3.56,14.88,14.88,0,0,1,.36-3.57h1.78a15.49,15.49,0,0,1-.36-3.56,14.79,14.79,0,0,1,.36-3.56h2.67a16.21,16.21,0,0,1-.35-3.57,15.43,15.43,0,0,1,.35-3.56h2.68a15.56,15.56,0,0,1-.36-3.56,14.88,14.88,0,0,1,.36-3.57h7.12a14.88,14.88,0,0,1,.36,3.57A15.56,15.56,0,0,1,217.34,78.8Z"/></g></svg>
