<svg xmlns="http://www.w3.org/2000/svg" width="130" height="70" viewBox="0 0 130 70"><defs><style>.cls-1{fill:#b2569e;}.cls-2{fill:#ff94e7;}.cls-3{fill:#fff;}</style></defs><title>Point</title><g id="UI_elementer" data-name="UI elementer"><rect class="cls-1" x="6.25" y="6" width="119.25" height="59.62" rx="27.57"/><rect class="cls-2" x="4.5" y="4" width="119.25" height="59.62" rx="27.57"/><path class="cls-3" d="M28.73,41.34a6.32,6.32,0,0,1-.13,1.39H20.27a6.27,6.27,0,0,1-.14-1.39A6,6,0,0,1,20.27,40h2.78a5.64,5.64,0,0,1-.14-1.38,5.46,5.46,0,0,1,.14-1.39,5.72,5.72,0,0,1-.14-1.39,5.51,5.51,0,0,1,.14-1.39A5.64,5.64,0,0,1,22.91,33a5.46,5.46,0,0,1,.14-1.39,5.72,5.72,0,0,1-.14-1.39,5.51,5.51,0,0,1,.14-1.39H21a6.22,6.22,0,0,1-.13-1.38A6,6,0,0,1,21,26.08h2.09a5.72,5.72,0,0,1-.14-1.39,5.51,5.51,0,0,1,.14-1.39h2.77A6,6,0,0,1,26,24.69a6.27,6.27,0,0,1-.14,1.39A6,6,0,0,1,26,27.47a6.18,6.18,0,0,1-.14,1.38A6,6,0,0,1,26,30.24a6.27,6.27,0,0,1-.14,1.39A6,6,0,0,1,26,33a6.18,6.18,0,0,1-.14,1.38A6,6,0,0,1,26,35.79a6.27,6.27,0,0,1-.14,1.39A6,6,0,0,1,26,38.57,6.18,6.18,0,0,1,25.82,40H28.6A6.08,6.08,0,0,1,28.73,41.34Z"/><path class="cls-3" d="M57.73,37.18H56.34a5.46,5.46,0,0,1,.14,1.39A5.64,5.64,0,0,1,56.34,40H55a6,6,0,0,1,.14,1.39A6.27,6.27,0,0,1,55,42.73H49.41a6,6,0,0,1,.14,1.39,6.18,6.18,0,0,1-.14,1.38,6,6,0,0,1,.14,1.39,6.34,6.34,0,0,1-.14,1.39H46.63a6.34,6.34,0,0,1-.14-1.39,6,6,0,0,1,.14-1.39,6.18,6.18,0,0,1-.14-1.38,6,6,0,0,1,.14-1.39,6.27,6.27,0,0,1-.14-1.39A6,6,0,0,1,46.63,40a6.18,6.18,0,0,1-.14-1.38,6,6,0,0,1,.14-1.39,6.27,6.27,0,0,1-.14-1.39,6,6,0,0,1,.14-1.39A6.18,6.18,0,0,1,46.49,33a6,6,0,0,1,.14-1.39,6.27,6.27,0,0,1-.14-1.39,6,6,0,0,1,.14-1.39h2.78a6,6,0,0,1,.14,1.39,6.27,6.27,0,0,1-.14,1.39h1.38A5.46,5.46,0,0,1,50.93,33a5.64,5.64,0,0,1-.14,1.38H49.41a6,6,0,0,1,.14,1.39,6.27,6.27,0,0,1-.14,1.39,6,6,0,0,1,.14,1.39A6.18,6.18,0,0,1,49.41,40h4.16a6.18,6.18,0,0,1-.14-1.38,6,6,0,0,1,.14-1.39H55a5.72,5.72,0,0,1-.14-1.39A5.51,5.51,0,0,1,55,34.4H53.57A6.18,6.18,0,0,1,53.43,33a6,6,0,0,1,.14-1.39H50.79a6.32,6.32,0,0,1-.13-1.39,6.08,6.08,0,0,1,.13-1.39H55a6,6,0,0,1,.14,1.39A6.27,6.27,0,0,1,55,31.63h1.38A5.46,5.46,0,0,1,56.48,33a5.64,5.64,0,0,1-.14,1.38h1.39a6,6,0,0,1,.14,1.39A6.27,6.27,0,0,1,57.73,37.18Z"/><path class="cls-3" d="M71.61,37.18h-1a6,6,0,0,1,.14,1.39A6.18,6.18,0,0,1,70.57,40H68.83A6,6,0,0,1,69,41.34a6.27,6.27,0,0,1-.14,1.39H63.28a6.27,6.27,0,0,1-.14-1.39A6,6,0,0,1,63.28,40H61.55a5.64,5.64,0,0,1-.14-1.38,5.46,5.46,0,0,1,.14-1.39h-1a5.72,5.72,0,0,1-.14-1.39,5.51,5.51,0,0,1,.14-1.39h1A5.64,5.64,0,0,1,61.41,33a5.46,5.46,0,0,1,.14-1.39h1.73a6.27,6.27,0,0,1-.14-1.39,6,6,0,0,1,.14-1.39h5.55A6,6,0,0,1,69,30.24a6.27,6.27,0,0,1-.14,1.39h1.74A6,6,0,0,1,70.71,33a6.18,6.18,0,0,1-.14,1.38h1a6,6,0,0,1,.14,1.39A6.27,6.27,0,0,1,71.61,37.18Zm-2.78,0a6.27,6.27,0,0,1-.14-1.39,6,6,0,0,1,.14-1.39h-1A6.18,6.18,0,0,1,67.65,33a6,6,0,0,1,.14-1.39H64.32A6,6,0,0,1,64.46,33a6.18,6.18,0,0,1-.14,1.38h-1a6,6,0,0,1,.14,1.39,6.27,6.27,0,0,1-.14,1.39h1a6,6,0,0,1,.14,1.39A6.18,6.18,0,0,1,64.32,40h3.47a6.18,6.18,0,0,1-.14-1.38,6,6,0,0,1,.14-1.39Z"/><path class="cls-3" d="M84.23,41.34a5.72,5.72,0,0,1-.14,1.39H75.77a6.27,6.27,0,0,1-.14-1.39A6,6,0,0,1,75.77,40h2.77a6.18,6.18,0,0,1-.14-1.38,6,6,0,0,1,.14-1.39,6.27,6.27,0,0,1-.14-1.39,6,6,0,0,1,.14-1.39A6.18,6.18,0,0,1,78.4,33a6,6,0,0,1,.14-1.39H76.46a6.27,6.27,0,0,1-.14-1.39,6,6,0,0,1,.14-1.39h4.86a6,6,0,0,1,.14,1.39,6.27,6.27,0,0,1-.14,1.39A6,6,0,0,1,81.46,33a6.18,6.18,0,0,1-.14,1.38,6,6,0,0,1,.14,1.39,6.27,6.27,0,0,1-.14,1.39,6,6,0,0,1,.14,1.39A6.18,6.18,0,0,1,81.32,40h2.77A5.51,5.51,0,0,1,84.23,41.34ZM78.54,26.08a6.27,6.27,0,0,1-.14-1.39,6,6,0,0,1,.14-1.39h2.78a6,6,0,0,1,.14,1.39,6.27,6.27,0,0,1-.14,1.39Z"/><path class="cls-3" d="M90.68,31.63h1.39A6,6,0,0,1,92.21,33a6.18,6.18,0,0,1-.14,1.38H91a6,6,0,0,1,.14,1.39A6.27,6.27,0,0,1,91,37.18a6,6,0,0,1,.14,1.39A6.18,6.18,0,0,1,91,40a6,6,0,0,1,.14,1.39A6.27,6.27,0,0,1,91,42.73H88.26a5.72,5.72,0,0,1-.14-1.39A5.51,5.51,0,0,1,88.26,40a5.64,5.64,0,0,1-.14-1.38,5.46,5.46,0,0,1,.14-1.39,5.72,5.72,0,0,1-.14-1.39,5.51,5.51,0,0,1,.14-1.39A5.64,5.64,0,0,1,88.12,33a5.46,5.46,0,0,1,.14-1.39,5.72,5.72,0,0,1-.14-1.39,5.51,5.51,0,0,1,.14-1.39h2.42a5.51,5.51,0,0,1,.14,1.39A5.72,5.72,0,0,1,90.68,31.63Zm8.81,4.16a6.32,6.32,0,0,1-.13,1.39,6,6,0,0,1,.13,1.39A6.22,6.22,0,0,1,99.36,40a6.08,6.08,0,0,1,.13,1.39,6.32,6.32,0,0,1-.13,1.39H96.58a6.27,6.27,0,0,1-.14-1.39A6,6,0,0,1,96.58,40a6.18,6.18,0,0,1-.14-1.38,6,6,0,0,1,.14-1.39,6.27,6.27,0,0,1-.14-1.39,6,6,0,0,1,.14-1.39A6.18,6.18,0,0,1,96.44,33a6,6,0,0,1,.14-1.39H92.07a6.27,6.27,0,0,1-.14-1.39,6,6,0,0,1,.14-1.39h5.55a6,6,0,0,1,.14,1.39,6.27,6.27,0,0,1-.14,1.39h1.74A6,6,0,0,1,99.49,33a6.22,6.22,0,0,1-.13,1.38A6.08,6.08,0,0,1,99.49,35.79Z"/><path class="cls-3" d="M111.84,40a6,6,0,0,1,.14,1.39,6.27,6.27,0,0,1-.14,1.39h-5.55a6.27,6.27,0,0,1-.14-1.39,6,6,0,0,1,.14-1.39H104.9a6.22,6.22,0,0,1-.13-1.38,6,6,0,0,1,.13-1.39,6.32,6.32,0,0,1-.13-1.39,6.08,6.08,0,0,1,.13-1.39,6.22,6.22,0,0,1-.13-1.38,6,6,0,0,1,.13-1.39h-2.77a6.27,6.27,0,0,1-.14-1.39,6,6,0,0,1,.14-1.39h2.77a6.22,6.22,0,0,1-.13-1.38,6,6,0,0,1,.13-1.39,6.32,6.32,0,0,1-.13-1.39,6.08,6.08,0,0,1,.13-1.39h2.78a6,6,0,0,1,.14,1.39,6.27,6.27,0,0,1-.14,1.39,6,6,0,0,1,.14,1.39,6.18,6.18,0,0,1-.14,1.38h4.16a6,6,0,0,1,.14,1.39,6.27,6.27,0,0,1-.14,1.39h-4.16a6,6,0,0,1,.14,1.39,6.18,6.18,0,0,1-.14,1.38,6,6,0,0,1,.14,1.39,6.27,6.27,0,0,1-.14,1.39,6,6,0,0,1,.14,1.39,6.18,6.18,0,0,1-.14,1.38Z"/></g></svg>
