<svg xmlns="http://www.w3.org/2000/svg" width="350" height="120" viewBox="0 0 350 120"><defs><style>.cls-1{fill:#b2569e;}.cls-2{fill:#ff94e7;}.cls-3{fill:#fff;}</style></defs><title>Prøv igen</title><g id="Game_Over" data-name="Game Over"><rect class="cls-1" x="9.49" y="13.94" width="332.9" height="97.87" rx="25"/><rect class="cls-2" x="7.51" y="8.06" width="332.9" height="97.87" rx="25"/><path class="cls-1" d="M33.2,47.9a2,2,0,0,1-2-2A25.39,25.39,0,0,1,56.7,20.72a2,2,0,1,1,0,4A21.38,21.38,0,0,0,35.21,45.92,2,2,0,0,1,33.2,47.9Z"/><path class="cls-3" d="M118.41,51.33a7.61,7.61,0,0,1,.19,1.88,8.07,8.07,0,0,1-.19,1.88h-1.9A7.61,7.61,0,0,1,116.7,57a7.92,7.92,0,0,1-.19,1.87H107a8.25,8.25,0,0,1,.19,1.88A8.58,8.58,0,0,1,107,62.6a8.19,8.19,0,0,1,.19,1.88,8.58,8.58,0,0,1-.19,1.88,8.19,8.19,0,0,1,.19,1.88,8.58,8.58,0,0,1-.19,1.88h-3.81a8.58,8.58,0,0,1-.19-1.88,8.19,8.19,0,0,1,.19-1.88,8.58,8.58,0,0,1-.19-1.88,8.19,8.19,0,0,1,.19-1.88,8.58,8.58,0,0,1-.19-1.88,8.25,8.25,0,0,1,.19-1.88A8.48,8.48,0,0,1,103,57a8.13,8.13,0,0,1,.19-1.88,8.64,8.64,0,0,1-.19-1.88,8.13,8.13,0,0,1,.19-1.88,8.58,8.58,0,0,1-.19-1.88,8.19,8.19,0,0,1,.19-1.88,8.58,8.58,0,0,1-.19-1.88,8.19,8.19,0,0,1,.19-1.88h13.32a7.67,7.67,0,0,1,.19,1.88,8,8,0,0,1-.19,1.88h1.9a7.67,7.67,0,0,1,.19,1.88A8,8,0,0,1,118.41,51.33Zm-4,1.88a7.61,7.61,0,0,1,.19-1.88,8,8,0,0,1-.19-1.88,7.67,7.67,0,0,1,.19-1.88H107a8.19,8.19,0,0,1,.19,1.88,8.58,8.58,0,0,1-.19,1.88,8.13,8.13,0,0,1,.19,1.88,8.64,8.64,0,0,1-.19,1.88h7.61A8.07,8.07,0,0,1,114.42,53.21Z"/><path class="cls-3" d="M137.63,57a8.48,8.48,0,0,1-.19,1.87h-3.81a7.92,7.92,0,0,1-.19-1.87,7.61,7.61,0,0,1,.19-1.88H130.3a7.61,7.61,0,0,1,.19,1.88,7.92,7.92,0,0,1-.19,1.87h-1.43a7.72,7.72,0,0,1,.19,1.88,8,8,0,0,1-.19,1.88,7.67,7.67,0,0,1,.19,1.88,8,8,0,0,1-.19,1.88h2.86a8.19,8.19,0,0,1,.19,1.88,8.58,8.58,0,0,1-.19,1.88h-9.51a8,8,0,0,1-.19-1.88,7.67,7.67,0,0,1,.19-1.88h2.85a8,8,0,0,1-.19-1.88,7.67,7.67,0,0,1,.19-1.88,8,8,0,0,1-.19-1.88,7.72,7.72,0,0,1,.19-1.88,7.92,7.92,0,0,1-.19-1.87,7.61,7.61,0,0,1,.19-1.88h-2.85a8.07,8.07,0,0,1-.19-1.88,7.61,7.61,0,0,1,.19-1.88H127a7.61,7.61,0,0,1,.19,1.88,8.07,8.07,0,0,1-.19,1.88h1.9a8.64,8.64,0,0,1-.19-1.88,8.13,8.13,0,0,1,.19-1.88H136a8.13,8.13,0,0,1,.19,1.88,8.64,8.64,0,0,1-.19,1.88h1.43A8.13,8.13,0,0,1,137.63,57Z"/><path class="cls-3" d="M156.46,62.6H155a7.67,7.67,0,0,1,.19,1.88,8,8,0,0,1-.19,1.88h-2.38a7.67,7.67,0,0,1,.19,1.88,8,8,0,0,1-.19,1.88H146a7.67,7.67,0,0,1,.19,1.88,8.07,8.07,0,0,1-.19,1.88h-3.8A8.07,8.07,0,0,1,142,72a7.67,7.67,0,0,1,.19-1.88h1.9a8.58,8.58,0,0,1-.19-1.88,8.19,8.19,0,0,1,.19-1.88h-1.42a8,8,0,0,1-.19-1.88,7.67,7.67,0,0,1,.19-1.88h-1.43a8,8,0,0,1-.19-1.88,7.72,7.72,0,0,1,.19-1.88h1.43a7.92,7.92,0,0,1-.19-1.87,7.61,7.61,0,0,1,.19-1.88H145a8.64,8.64,0,0,1-.19-1.88,8.13,8.13,0,0,1,.19-1.88h6.66a8,8,0,0,1-.19-1.88,7.67,7.67,0,0,1,.19-1.88h3.81a8.19,8.19,0,0,1,.19,1.88,8.58,8.58,0,0,1-.19,1.88H153.6a7.61,7.61,0,0,1,.19,1.88,8.07,8.07,0,0,1-.19,1.88H155a7.61,7.61,0,0,1,.19,1.88,7.92,7.92,0,0,1-.19,1.87h1.43a8.25,8.25,0,0,1,.19,1.88A8.58,8.58,0,0,1,156.46,62.6Zm-3.81,0a8.58,8.58,0,0,1-.19-1.88,8.25,8.25,0,0,1,.19-1.88h-2.37a7.88,7.88,0,0,1-.2-1.87,7.56,7.56,0,0,1,.2-1.88h-3.81a7.61,7.61,0,0,1,.19,1.88,7.92,7.92,0,0,1-.19,1.87H145a7.72,7.72,0,0,1,.19,1.88A8,8,0,0,1,145,62.6h2.38a7.67,7.67,0,0,1,.19,1.88,8,8,0,0,1-.19,1.88h3.81a8,8,0,0,1-.19-1.88,7.67,7.67,0,0,1,.19-1.88Zm-2.37,0h-2.86a8,8,0,0,1-.19-1.88,7.72,7.72,0,0,1,.19-1.88h2.86a8.25,8.25,0,0,1,.19,1.88A8.58,8.58,0,0,1,150.28,62.6Z"/><path class="cls-3" d="M175.48,55.09h-1.43a7.61,7.61,0,0,1,.19,1.88,7.92,7.92,0,0,1-.19,1.87h-1.42a8.25,8.25,0,0,1,.19,1.88,8.58,8.58,0,0,1-.19,1.88h-.95a8.19,8.19,0,0,1,.19,1.88,8.58,8.58,0,0,1-.19,1.88h-1.91a7.67,7.67,0,0,1,.19,1.88,8,8,0,0,1-.19,1.88H166a8,8,0,0,1-.19-1.88,7.67,7.67,0,0,1,.19-1.88h-1.9a8,8,0,0,1-.19-1.88,7.67,7.67,0,0,1,.19-1.88h-.95a8,8,0,0,1-.19-1.88,7.72,7.72,0,0,1,.19-1.88h-1.43A7.92,7.92,0,0,1,161.5,57a7.61,7.61,0,0,1,.19-1.88h-1.43a8.07,8.07,0,0,1-.19-1.88,7.61,7.61,0,0,1,.19-1.88h3.81a8.13,8.13,0,0,1,.19,1.88,8.64,8.64,0,0,1-.19,1.88h1.42a7.61,7.61,0,0,1,.19,1.88,7.92,7.92,0,0,1-.19,1.87h1.43a7.72,7.72,0,0,1,.19,1.88,8,8,0,0,1-.19,1.88h1.9a8.58,8.58,0,0,1-.19-1.88,8.25,8.25,0,0,1,.19-1.88h1.43a7.92,7.92,0,0,1-.19-1.87,7.61,7.61,0,0,1,.19-1.88h1.43a8,8,0,0,1-.2-1.88,7.56,7.56,0,0,1,.2-1.88h3.8a7.61,7.61,0,0,1,.19,1.88A8.07,8.07,0,0,1,175.48,55.09Z"/><path class="cls-3" d="M211.81,68.24a8,8,0,0,1-.19,1.88H200.21a8,8,0,0,1-.19-1.88,7.67,7.67,0,0,1,.19-1.88H204a8.58,8.58,0,0,1-.19-1.88A8.19,8.19,0,0,1,204,62.6a8.58,8.58,0,0,1-.19-1.88,8.25,8.25,0,0,1,.19-1.88,8.48,8.48,0,0,1-.19-1.87,8.13,8.13,0,0,1,.19-1.88h-2.85a8.07,8.07,0,0,1-.19-1.88,7.61,7.61,0,0,1,.19-1.88h6.66a7.61,7.61,0,0,1,.19,1.88,8.07,8.07,0,0,1-.19,1.88A7.61,7.61,0,0,1,208,57a7.92,7.92,0,0,1-.19,1.87,7.72,7.72,0,0,1,.19,1.88,8,8,0,0,1-.19,1.88,7.67,7.67,0,0,1,.19,1.88,8,8,0,0,1-.19,1.88h3.8A7.67,7.67,0,0,1,211.81,68.24ZM204,47.57a8.58,8.58,0,0,1-.19-1.88,8.19,8.19,0,0,1,.19-1.88h3.81a7.67,7.67,0,0,1,.19,1.88,8,8,0,0,1-.19,1.88Z"/><path class="cls-3" d="M232.74,57a7.92,7.92,0,0,1-.19,1.87,7.72,7.72,0,0,1,.19,1.88,8,8,0,0,1-.19,1.88,7.67,7.67,0,0,1,.19,1.88,8,8,0,0,1-.19,1.88,7.67,7.67,0,0,1,.19,1.88,8,8,0,0,1-.19,1.88h-1.9a8.19,8.19,0,0,1,.19,1.88,8.64,8.64,0,0,1-.19,1.88h-1.91a7.61,7.61,0,0,1,.19,1.88,8.07,8.07,0,0,1-.19,1.88h-7.6a8,8,0,0,1-.2-1.88,7.56,7.56,0,0,1,.2-1.88h5.7a8.64,8.64,0,0,1-.19-1.88,8.19,8.19,0,0,1,.19-1.88h1.9a8.58,8.58,0,0,1-.19-1.88,8.19,8.19,0,0,1,.19-1.88h-1.9a8.58,8.58,0,0,1-.19-1.88,8.19,8.19,0,0,1,.19-1.88h1.9a8.58,8.58,0,0,1-.19-1.88,8.25,8.25,0,0,1,.19-1.88,8.48,8.48,0,0,1-.19-1.87,8.13,8.13,0,0,1,.19-1.88h-6.18a7.61,7.61,0,0,1,.19,1.88,7.92,7.92,0,0,1-.19,1.87h-1.42a8.25,8.25,0,0,1,.19,1.88,8.58,8.58,0,0,1-.19,1.88h1.42a7.67,7.67,0,0,1,.19,1.88,8,8,0,0,1-.19,1.88h4.28a7.67,7.67,0,0,1,.19,1.88,8,8,0,0,1-.19,1.88h-5.7a8,8,0,0,1-.2-1.88,7.61,7.61,0,0,1,.2-1.88h-2.38a8,8,0,0,1-.19-1.88,7.67,7.67,0,0,1,.19-1.88h-1.43a8,8,0,0,1-.19-1.88,7.72,7.72,0,0,1,.19-1.88h1.43a7.92,7.92,0,0,1-.19-1.87,7.61,7.61,0,0,1,.19-1.88h2.38a8,8,0,0,1-.2-1.88,7.56,7.56,0,0,1,.2-1.88h11.41a7.61,7.61,0,0,1,.19,1.88,8.07,8.07,0,0,1-.19,1.88A7.61,7.61,0,0,1,232.74,57Z"/><path class="cls-3" d="M251.57,58.84a7.72,7.72,0,0,1,.19,1.88,8,8,0,0,1-.19,1.88h-10a7.67,7.67,0,0,1,.19,1.88,8,8,0,0,1-.19,1.88h8.09a7.67,7.67,0,0,1,.19,1.88,8,8,0,0,1-.19,1.88h-9.51a8,8,0,0,1-.19-1.88,7.67,7.67,0,0,1,.19-1.88h-2.38a8,8,0,0,1-.19-1.88,7.67,7.67,0,0,1,.19-1.88h-1.43a8.58,8.58,0,0,1-.19-1.88,8.25,8.25,0,0,1,.19-1.88h1.43a7.92,7.92,0,0,1-.19-1.87,7.61,7.61,0,0,1,.19-1.88h2.38a8.07,8.07,0,0,1-.19-1.88,7.61,7.61,0,0,1,.19-1.88h9.51a7.61,7.61,0,0,1,.19,1.88,8.07,8.07,0,0,1-.19,1.88h1.9a7.61,7.61,0,0,1,.19,1.88A7.92,7.92,0,0,1,251.57,58.84Zm-4-1.87a7.61,7.61,0,0,1,.19-1.88h-6.19a7.61,7.61,0,0,1,.19,1.88,7.92,7.92,0,0,1-.19,1.87h6.19A7.92,7.92,0,0,1,247.58,57Z"/><path class="cls-3" d="M258.7,55.09h1.91A8.13,8.13,0,0,1,260.8,57a8.48,8.48,0,0,1-.19,1.87h-1.43a7.72,7.72,0,0,1,.19,1.88,8,8,0,0,1-.19,1.88,7.67,7.67,0,0,1,.19,1.88,8,8,0,0,1-.19,1.88,7.67,7.67,0,0,1,.19,1.88,8,8,0,0,1-.19,1.88h-3.8a8,8,0,0,1-.19-1.88,7.67,7.67,0,0,1,.19-1.88,8,8,0,0,1-.19-1.88,7.67,7.67,0,0,1,.19-1.88,8,8,0,0,1-.19-1.88,7.72,7.72,0,0,1,.19-1.88,7.92,7.92,0,0,1-.19-1.87,7.61,7.61,0,0,1,.19-1.88,8.07,8.07,0,0,1-.19-1.88,7.61,7.61,0,0,1,.19-1.88h3.32a7.61,7.61,0,0,1,.19,1.88A8.07,8.07,0,0,1,258.7,55.09Zm12.08,5.63a8,8,0,0,1-.19,1.88,7.67,7.67,0,0,1,.19,1.88,8,8,0,0,1-.19,1.88,7.67,7.67,0,0,1,.19,1.88,8,8,0,0,1-.19,1.88h-3.8a8,8,0,0,1-.19-1.88,7.67,7.67,0,0,1,.19-1.88,8,8,0,0,1-.19-1.88,7.67,7.67,0,0,1,.19-1.88,8,8,0,0,1-.19-1.88,7.72,7.72,0,0,1,.19-1.88A7.92,7.92,0,0,1,266.6,57a7.61,7.61,0,0,1,.19-1.88h-6.18a8.07,8.07,0,0,1-.19-1.88,7.61,7.61,0,0,1,.19-1.88h7.61a8.13,8.13,0,0,1,.19,1.88,8.64,8.64,0,0,1-.19,1.88h2.37a7.61,7.61,0,0,1,.19,1.88,7.92,7.92,0,0,1-.19,1.87A7.72,7.72,0,0,1,270.78,60.72Z"/></g></svg>
