<svg xmlns="http://www.w3.org/2000/svg" width="1030" height="680" viewBox="0 0 1030 680"><defs><style>.cls-1{fill:#b2569e;}.cls-2{fill:#ff94e7;}.cls-3{fill:#fff;}.cls-4{fill:#c2a9bc;}.cls-5{fill:#2d1628;}</style></defs><title>Settings</title><g id="Titelskærm_baggrund"><rect class="cls-1" x="10.03" y="20.9" width="999.7" height="641.1" rx="33"/><rect class="cls-2" x="14" y="11" width="999.7" height="641.1" rx="33"/><path class="cls-3" d="M192.58,296.28a16.82,16.82,0,0,1-.39,3.86h-27a16.82,16.82,0,0,1-.39-3.86,16.11,16.11,0,0,1,.39-3.86,16.82,16.82,0,0,1-.39-3.86,16.14,16.14,0,0,1,.39-3.87,16.82,16.82,0,0,1-.39-3.86,16.11,16.11,0,0,1,.39-3.86,16.82,16.82,0,0,1-.39-3.86,16.2,16.2,0,0,1,.39-3.87,16.82,16.82,0,0,1-.39-3.86,16.11,16.11,0,0,1,.39-3.86,16.82,16.82,0,0,1-.39-3.86,16.14,16.14,0,0,1,.39-3.87,16.82,16.82,0,0,1-.39-3.86,16.11,16.11,0,0,1,.39-3.86h7.72a16.11,16.11,0,0,1,.39,3.86,16.82,16.82,0,0,1-.39,3.86,16.14,16.14,0,0,1,.39,3.87,16.82,16.82,0,0,1-.39,3.86,16.11,16.11,0,0,1,.39,3.86,16.82,16.82,0,0,1-.39,3.86,16.2,16.2,0,0,1,.39,3.87,16.82,16.82,0,0,1-.39,3.86,16.11,16.11,0,0,1,.39,3.86,16.82,16.82,0,0,1-.39,3.86,16.14,16.14,0,0,1,.39,3.87,16.82,16.82,0,0,1-.39,3.86h19.31A16.11,16.11,0,0,1,192.58,296.28Z"/><path class="cls-3" d="M230.82,269.24h-2.9a16.2,16.2,0,0,1,.39,3.87,16.82,16.82,0,0,1-.39,3.86H225a16.7,16.7,0,0,1,.38,3.86,17.44,17.44,0,0,1-.38,3.86h-1.94a16.14,16.14,0,0,1,.39,3.87,16.82,16.82,0,0,1-.39,3.86H220.2a16.7,16.7,0,0,1,.38,3.86,17.44,17.44,0,0,1-.38,3.86h-1.93a16.73,16.73,0,0,1,.38,3.87,17.5,17.5,0,0,1-.38,3.86H214.4a16.11,16.11,0,0,1,.39,3.86,16.82,16.82,0,0,1-.39,3.86H202.82a16.82,16.82,0,0,1-.39-3.86,16.11,16.11,0,0,1,.39-3.86h7.72a16.88,16.88,0,0,1-.39-3.86,16.14,16.14,0,0,1,.39-3.87,16.82,16.82,0,0,1-.39-3.86,16.11,16.11,0,0,1,.39-3.86h-3.86a16.82,16.82,0,0,1-.39-3.86,16.14,16.14,0,0,1,.39-3.87h-1.93a16.82,16.82,0,0,1-.39-3.86,16.11,16.11,0,0,1,.39-3.86h-2.9a16.82,16.82,0,0,1-.39-3.86,16.2,16.2,0,0,1,.39-3.87H199a17.44,17.44,0,0,1-.38-3.86,16.7,16.7,0,0,1,.38-3.86h7.73a16.16,16.16,0,0,1,.38,3.86,16.86,16.86,0,0,1-.38,3.86h2.9a16.79,16.79,0,0,1,.38,3.87,17.44,17.44,0,0,1-.38,3.86h2.89a16.11,16.11,0,0,1,.39,3.86,16.82,16.82,0,0,1-.39,3.86,16.14,16.14,0,0,1,.39,3.87,16.82,16.82,0,0,1-.39,3.86h2.9a16.82,16.82,0,0,1-.39-3.86,16.14,16.14,0,0,1,.39-3.87h1.93a16.82,16.82,0,0,1-.39-3.86,16.11,16.11,0,0,1,.39-3.86h2.9a16.82,16.82,0,0,1-.39-3.86,16.2,16.2,0,0,1,.39-3.87h2.89a17.44,17.44,0,0,1-.38-3.86,16.7,16.7,0,0,1,.38-3.86h7.73a16.11,16.11,0,0,1,.39,3.86A16.82,16.82,0,0,1,230.82,269.24Z"/><path class="cls-3" d="M256.89,269.24h-9.66a16.2,16.2,0,0,1,.39,3.87,16.82,16.82,0,0,1-.39,3.86h-2.89a16.7,16.7,0,0,1,.38,3.86,17.44,17.44,0,0,1-.38,3.86h2.89a16.14,16.14,0,0,1,.39,3.87,16.82,16.82,0,0,1-.39,3.86h9.66a16.11,16.11,0,0,1,.39,3.86,16.82,16.82,0,0,1-.39,3.86H246.27a16.82,16.82,0,0,1-.39-3.86,16.11,16.11,0,0,1,.39-3.86h-4.83a16.82,16.82,0,0,1-.39-3.86,16.14,16.14,0,0,1,.39-3.87h-2.9a17.44,17.44,0,0,1-.38-3.86,16.7,16.7,0,0,1,.38-3.86h2.9a16.82,16.82,0,0,1-.39-3.86,16.2,16.2,0,0,1,.39-3.87h4.83a16.82,16.82,0,0,1-.39-3.86,16.11,16.11,0,0,1,.39-3.86h10.62a16.11,16.11,0,0,1,.39,3.86A16.82,16.82,0,0,1,256.89,269.24Zm12.94-11.58a16.82,16.82,0,0,1-.39,3.86,16.11,16.11,0,0,1,.39,3.86,16.82,16.82,0,0,1-.39,3.86,16.2,16.2,0,0,1,.39,3.87,16.82,16.82,0,0,1-.39,3.86,16.11,16.11,0,0,1,.39,3.86,16.82,16.82,0,0,1-.39,3.86,16.14,16.14,0,0,1,.39,3.87,16.82,16.82,0,0,1-.39,3.86,16.11,16.11,0,0,1,.39,3.86,16.82,16.82,0,0,1-.39,3.86h-7.72a16.82,16.82,0,0,1-.39-3.86,16.11,16.11,0,0,1,.39-3.86h-2.9a16.86,16.86,0,0,1-.38-3.86,16.19,16.19,0,0,1,.38-3.87h2.9a16.82,16.82,0,0,1-.39-3.86,16.11,16.11,0,0,1,.39-3.86h-2.9a16.86,16.86,0,0,1-.38-3.86,16.25,16.25,0,0,1,.38-3.87h2.9a16.82,16.82,0,0,1-.39-3.86,16.11,16.11,0,0,1,.39-3.86,16.82,16.82,0,0,1-.39-3.86,16.14,16.14,0,0,1,.39-3.87,16.82,16.82,0,0,1-.39-3.86,16.11,16.11,0,0,1,.39-3.86h7.72a16.11,16.11,0,0,1,.39,3.86,16.82,16.82,0,0,1-.39,3.86A16.14,16.14,0,0,1,269.83,257.66Z"/><path class="cls-3" d="M308.07,277a16.11,16.11,0,0,1,.39,3.86,16.82,16.82,0,0,1-.39,3.86H287.79a16.14,16.14,0,0,1,.39,3.87,16.82,16.82,0,0,1-.39,3.86h16.42a16.7,16.7,0,0,1,.38,3.86,17.44,17.44,0,0,1-.38,3.86H284.89a17.44,17.44,0,0,1-.38-3.86,16.7,16.7,0,0,1,.38-3.86h-4.82a16.82,16.82,0,0,1-.39-3.86,16.14,16.14,0,0,1,.39-3.87h-2.9a16.82,16.82,0,0,1-.39-3.86,16.11,16.11,0,0,1,.39-3.86h2.9a16.82,16.82,0,0,1-.39-3.86,16.2,16.2,0,0,1,.39-3.87h4.82a17.44,17.44,0,0,1-.38-3.86,16.7,16.7,0,0,1,.38-3.86h19.32a16.7,16.7,0,0,1,.38,3.86,17.44,17.44,0,0,1-.38,3.86h3.86a16.2,16.2,0,0,1,.39,3.87A16.82,16.82,0,0,1,308.07,277ZM300,273.11a16.79,16.79,0,0,1,.38-3.87H287.79a16.2,16.2,0,0,1,.39,3.87,16.82,16.82,0,0,1-.39,3.86h12.55A17.44,17.44,0,0,1,300,273.11Z"/><path class="cls-3" d="M346.69,269.24h-4.82a16.79,16.79,0,0,1,.38,3.87,17.44,17.44,0,0,1-.38,3.86,16.7,16.7,0,0,1,.38,3.86,17.44,17.44,0,0,1-.38,3.86,16.73,16.73,0,0,1,.38,3.87,17.44,17.44,0,0,1-.38,3.86,16.7,16.7,0,0,1,.38,3.86,17.44,17.44,0,0,1-.38,3.86h-7.73a16.82,16.82,0,0,1-.39-3.86,16.11,16.11,0,0,1,.39-3.86,16.82,16.82,0,0,1-.39-3.86,16.14,16.14,0,0,1,.39-3.87,16.82,16.82,0,0,1-.39-3.86,16.11,16.11,0,0,1,.39-3.86,16.82,16.82,0,0,1-.39-3.86,16.2,16.2,0,0,1,.39-3.87h-6.76a16.2,16.2,0,0,1,.39,3.87,16.82,16.82,0,0,1-.39,3.86,16.11,16.11,0,0,1,.39,3.86,16.82,16.82,0,0,1-.39,3.86,16.14,16.14,0,0,1,.39,3.87,16.82,16.82,0,0,1-.39,3.86,16.11,16.11,0,0,1,.39,3.86,16.82,16.82,0,0,1-.39,3.86h-7.72a16.82,16.82,0,0,1-.39-3.86,16.11,16.11,0,0,1,.39-3.86,16.82,16.82,0,0,1-.39-3.86,16.14,16.14,0,0,1,.39-3.87,16.82,16.82,0,0,1-.39-3.86,16.11,16.11,0,0,1,.39-3.86,16.82,16.82,0,0,1-.39-3.86,16.2,16.2,0,0,1,.39-3.87h-3.87a17.44,17.44,0,0,1-.38-3.86,16.7,16.7,0,0,1,.38-3.86h3.87a16.82,16.82,0,0,1-.39-3.86,16.14,16.14,0,0,1,.39-3.87h3.86a16.82,16.82,0,0,1-.39-3.86,16.11,16.11,0,0,1,.39-3.86h7.72a16.11,16.11,0,0,1,.39,3.86,16.82,16.82,0,0,1-.39,3.86h-3.86a16.14,16.14,0,0,1,.39,3.87,16.82,16.82,0,0,1-.39,3.86h6.76a16.82,16.82,0,0,1-.39-3.86,16.14,16.14,0,0,1,.39-3.87H338a17.44,17.44,0,0,1-.38-3.86,16.7,16.7,0,0,1,.38-3.86h7.73a16.7,16.7,0,0,1,.38,3.86,17.44,17.44,0,0,1-.38,3.86h-3.86a16.73,16.73,0,0,1,.38,3.87,17.44,17.44,0,0,1-.38,3.86h4.82a16.11,16.11,0,0,1,.39,3.86A16.82,16.82,0,0,1,346.69,269.24Z"/><path class="cls-3" d="M385.32,277a16.16,16.16,0,0,1,.38,3.86,16.86,16.86,0,0,1-.38,3.86H365a16.14,16.14,0,0,1,.39,3.87,16.82,16.82,0,0,1-.39,3.86h16.42a16.7,16.7,0,0,1,.38,3.86,17.44,17.44,0,0,1-.38,3.86H362.14a17.44,17.44,0,0,1-.38-3.86,16.7,16.7,0,0,1,.38-3.86h-4.83a17.44,17.44,0,0,1-.38-3.86,16.73,16.73,0,0,1,.38-3.87h-2.89a16.82,16.82,0,0,1-.39-3.86,16.11,16.11,0,0,1,.39-3.86h2.89a17.44,17.44,0,0,1-.38-3.86,16.79,16.79,0,0,1,.38-3.87h4.83a17.44,17.44,0,0,1-.38-3.86,16.7,16.7,0,0,1,.38-3.86h19.32a16.7,16.7,0,0,1,.38,3.86,17.44,17.44,0,0,1-.38,3.86h3.86a16.25,16.25,0,0,1,.38,3.87A16.86,16.86,0,0,1,385.32,277Zm-8.11-3.86a16.79,16.79,0,0,1,.38-3.87H365a16.2,16.2,0,0,1,.39,3.87A16.82,16.82,0,0,1,365,277h12.55A17.44,17.44,0,0,1,377.21,273.11Z"/><path class="cls-3" d="M424.33,296.28a16.82,16.82,0,0,1-.39,3.86H410.42a17.44,17.44,0,0,1-.38-3.86,16.7,16.7,0,0,1,.38-3.86h-3.86a16.86,16.86,0,0,1-.38-3.86,16.19,16.19,0,0,1,.38-3.87h-5.79a16.73,16.73,0,0,1,.38,3.87,17.44,17.44,0,0,1-.38,3.86,16.7,16.7,0,0,1,.38,3.86,17.44,17.44,0,0,1-.38,3.86H393a17.44,17.44,0,0,1-.38-3.86,16.7,16.7,0,0,1,.38-3.86,17.44,17.44,0,0,1-.38-3.86,16.73,16.73,0,0,1,.38-3.87,17.44,17.44,0,0,1-.38-3.86A16.7,16.7,0,0,1,393,277a17.44,17.44,0,0,1-.38-3.86,16.79,16.79,0,0,1,.38-3.87,17.44,17.44,0,0,1-.38-3.86,16.7,16.7,0,0,1,.38-3.86,17.44,17.44,0,0,1-.38-3.86,16.73,16.73,0,0,1,.38-3.87,17.44,17.44,0,0,1-.38-3.86,16.7,16.7,0,0,1,.38-3.86h7.73a16.7,16.7,0,0,1,.38,3.86,17.44,17.44,0,0,1-.38,3.86,16.73,16.73,0,0,1,.38,3.87,17.44,17.44,0,0,1-.38,3.86,16.7,16.7,0,0,1,.38,3.86,17.44,17.44,0,0,1-.38,3.86,16.79,16.79,0,0,1,.38,3.87,17.44,17.44,0,0,1-.38,3.86h5.79a16.86,16.86,0,0,1-.38-3.86,16.25,16.25,0,0,1,.38-3.87h3.86a17.44,17.44,0,0,1-.38-3.86,16.7,16.7,0,0,1,.38-3.86H422a16.11,16.11,0,0,1,.39,3.86,16.82,16.82,0,0,1-.39,3.86h-7.72a16.79,16.79,0,0,1,.38,3.87,17.44,17.44,0,0,1-.38,3.86h-3.87a16.11,16.11,0,0,1,.39,3.86,16.82,16.82,0,0,1-.39,3.86h3.87a16.73,16.73,0,0,1,.38,3.87,17.44,17.44,0,0,1-.38,3.86h9.65A16.11,16.11,0,0,1,424.33,296.28Z"/><path class="cls-3" d="M458.71,292.42a16.7,16.7,0,0,1,.38,3.86,17.44,17.44,0,0,1-.38,3.86H443.26a16.82,16.82,0,0,1-.39-3.86,16.11,16.11,0,0,1,.39-3.86h-3.87a16.86,16.86,0,0,1-.38-3.86,16.19,16.19,0,0,1,.38-3.87,16.86,16.86,0,0,1-.38-3.86,16.16,16.16,0,0,1,.38-3.86,16.86,16.86,0,0,1-.38-3.86,16.25,16.25,0,0,1,.38-3.87h-7.72a16.82,16.82,0,0,1-.39-3.86,16.11,16.11,0,0,1,.39-3.86h7.72a16.86,16.86,0,0,1-.38-3.86,16.19,16.19,0,0,1,.38-3.87,16.86,16.86,0,0,1-.38-3.86,16.16,16.16,0,0,1,.38-3.86h7.73a16.7,16.7,0,0,1,.38,3.86,17.44,17.44,0,0,1-.38,3.86,16.73,16.73,0,0,1,.38,3.87,17.44,17.44,0,0,1-.38,3.86h11.59a16.7,16.7,0,0,1,.38,3.86,17.44,17.44,0,0,1-.38,3.86H447.12a16.79,16.79,0,0,1,.38,3.87,17.44,17.44,0,0,1-.38,3.86,16.7,16.7,0,0,1,.38,3.86,17.44,17.44,0,0,1-.38,3.86,16.73,16.73,0,0,1,.38,3.87,17.44,17.44,0,0,1-.38,3.86Z"/><path class="cls-3" d="M501.19,277a16.11,16.11,0,0,1,.39,3.86,16.82,16.82,0,0,1-.39,3.86H480.91a16.14,16.14,0,0,1,.39,3.87,16.82,16.82,0,0,1-.39,3.86h16.42a16.11,16.11,0,0,1,.39,3.86,16.82,16.82,0,0,1-.39,3.86H478a16.82,16.82,0,0,1-.39-3.86,16.11,16.11,0,0,1,.39-3.86h-4.83a16.82,16.82,0,0,1-.39-3.86,16.14,16.14,0,0,1,.39-3.87h-2.9a16.86,16.86,0,0,1-.38-3.86,16.16,16.16,0,0,1,.38-3.86h2.9a16.82,16.82,0,0,1-.39-3.86,16.2,16.2,0,0,1,.39-3.87H478a16.82,16.82,0,0,1-.39-3.86,16.11,16.11,0,0,1,.39-3.86h19.31a16.11,16.11,0,0,1,.39,3.86,16.82,16.82,0,0,1-.39,3.86h3.86a16.2,16.2,0,0,1,.39,3.87A16.82,16.82,0,0,1,501.19,277Zm-8.11-3.86a16.2,16.2,0,0,1,.39-3.87H480.91a16.2,16.2,0,0,1,.39,3.87,16.82,16.82,0,0,1-.39,3.86h12.56A16.82,16.82,0,0,1,493.08,273.11Z"/><path class="cls-3" d="M540.2,273.11a17.44,17.44,0,0,1-.38,3.86h-7.73a16.86,16.86,0,0,1-.38-3.86,16.25,16.25,0,0,1,.38-3.87h-6.76a16.2,16.2,0,0,1,.39,3.87,16.82,16.82,0,0,1-.39,3.86h-2.89a16.7,16.7,0,0,1,.38,3.86,17.44,17.44,0,0,1-.38,3.86,16.73,16.73,0,0,1,.38,3.87,17.44,17.44,0,0,1-.38,3.86h5.79a16.11,16.11,0,0,1,.39,3.86,16.82,16.82,0,0,1-.39,3.86H508.92a16.82,16.82,0,0,1-.39-3.86,16.11,16.11,0,0,1,.39-3.86h5.79a16.82,16.82,0,0,1-.39-3.86,16.14,16.14,0,0,1,.39-3.87,16.82,16.82,0,0,1-.39-3.86,16.11,16.11,0,0,1,.39-3.86,16.82,16.82,0,0,1-.39-3.86,16.2,16.2,0,0,1,.39-3.87h-5.79a16.82,16.82,0,0,1-.39-3.86,16.11,16.11,0,0,1,.39-3.86h9.65a16.11,16.11,0,0,1,.39,3.86,16.82,16.82,0,0,1-.39,3.86h3.87a16.82,16.82,0,0,1-.39-3.86,16.11,16.11,0,0,1,.39-3.86h14.48a16.11,16.11,0,0,1,.39,3.86,16.82,16.82,0,0,1-.39,3.86h2.9A16.79,16.79,0,0,1,540.2,273.11Z"/><path class="cls-3" d="M192.69,401.55a17.47,17.47,0,0,1-.38,3.87,16.88,16.88,0,0,1,.38,3.88,17.63,17.63,0,0,1-.38,3.88,16.73,16.73,0,0,1,.38,3.87,17.63,17.63,0,0,1-.38,3.88,16.73,16.73,0,0,1,.38,3.87,17.63,17.63,0,0,1-.38,3.88,16.73,16.73,0,0,1,.38,3.87,17.63,17.63,0,0,1-.38,3.88,16.73,16.73,0,0,1,.38,3.87,17.63,17.63,0,0,1-.38,3.88h-7.75a17,17,0,0,1-.39-3.88,16.14,16.14,0,0,1,.39-3.87,17,17,0,0,1-.39-3.88,16.14,16.14,0,0,1,.39-3.87,17,17,0,0,1-.39-3.88,16.14,16.14,0,0,1,.39-3.87,17,17,0,0,1-.39-3.88,16.14,16.14,0,0,1,.39-3.87,17,17,0,0,1-.39-3.88,16.29,16.29,0,0,1,.39-3.88h-2.91a16.29,16.29,0,0,1,.39,3.88,17,17,0,0,1-.39,3.88,16.14,16.14,0,0,1,.39,3.87,17,17,0,0,1-.39,3.88h-1.94a16.14,16.14,0,0,1,.39,3.87,17,17,0,0,1-.39,3.88,16.14,16.14,0,0,1,.39,3.87,17,17,0,0,1-.39,3.88H173.9a17,17,0,0,1-.39-3.88,16.14,16.14,0,0,1,.39-3.87,17,17,0,0,1-.39-3.88,16.14,16.14,0,0,1,.39-3.87H172a17,17,0,0,1-.39-3.88,16.14,16.14,0,0,1,.39-3.87,17,17,0,0,1-.39-3.88,16.29,16.29,0,0,1,.39-3.88h-2.9a16.88,16.88,0,0,1,.38,3.88,17.63,17.63,0,0,1-.38,3.88,16.73,16.73,0,0,1,.38,3.87,17.63,17.63,0,0,1-.38,3.88,16.73,16.73,0,0,1,.38,3.87,17.63,17.63,0,0,1-.38,3.88,16.73,16.73,0,0,1,.38,3.87,17.63,17.63,0,0,1-.38,3.88,16.73,16.73,0,0,1,.38,3.87,17.63,17.63,0,0,1-.38,3.88H161.3a17.63,17.63,0,0,1-.38-3.88,16.73,16.73,0,0,1,.38-3.87,17.63,17.63,0,0,1-.38-3.88,16.73,16.73,0,0,1,.38-3.87,17.63,17.63,0,0,1-.38-3.88,16.73,16.73,0,0,1,.38-3.87,17.63,17.63,0,0,1-.38-3.88,16.73,16.73,0,0,1,.38-3.87,17.63,17.63,0,0,1-.38-3.88,16.88,16.88,0,0,1,.38-3.88,17.47,17.47,0,0,1-.38-3.87,16.88,16.88,0,0,1,.38-3.88,17.47,17.47,0,0,1-.38-3.87,16.88,16.88,0,0,1,.38-3.88H171a16.29,16.29,0,0,1,.39,3.88,16.85,16.85,0,0,1-.39,3.87h2.91a16.29,16.29,0,0,1,.39,3.88,16.85,16.85,0,0,1-.39,3.87h1.45a16.29,16.29,0,0,1,.39,3.88,17,17,0,0,1-.39,3.88h2.91a17,17,0,0,1-.39-3.88,16.29,16.29,0,0,1,.39-3.88h1.45a16.85,16.85,0,0,1-.39-3.87,16.29,16.29,0,0,1,.39-3.88h2.91a16.85,16.85,0,0,1-.39-3.87,16.29,16.29,0,0,1,.39-3.88h9.69a16.88,16.88,0,0,1,.38,3.88,17.47,17.47,0,0,1-.38,3.87A16.88,16.88,0,0,1,192.69,401.55Z"/><path class="cls-3" d="M210.71,436.43h9.69a16.14,16.14,0,0,1,.39,3.87,17,17,0,0,1-.39,3.88H204.9a17,17,0,0,1-.39-3.88,16.14,16.14,0,0,1,.39-3.87h-4.84a17,17,0,0,1-.39-3.88,16.14,16.14,0,0,1,.39-3.87,17,17,0,0,1-.39-3.88,16.14,16.14,0,0,1,.39-3.87,17,17,0,0,1-.39-3.88,16.14,16.14,0,0,1,.39-3.87,17,17,0,0,1-.39-3.88,16.29,16.29,0,0,1,.39-3.88h7.75a16.88,16.88,0,0,1,.38,3.88,17.63,17.63,0,0,1-.38,3.88,16.73,16.73,0,0,1,.38,3.87,17.63,17.63,0,0,1-.38,3.88,16.73,16.73,0,0,1,.38,3.87,17.63,17.63,0,0,1-.38,3.88h2.9a16.14,16.14,0,0,1,.39,3.87A17,17,0,0,1,210.71,436.43Zm20.74-19.38a17,17,0,0,1-.39,3.88,16.14,16.14,0,0,1,.39,3.87,17,17,0,0,1-.39,3.88,16.14,16.14,0,0,1,.39,3.87,17,17,0,0,1-.39,3.88,16.14,16.14,0,0,1,.39,3.87,17,17,0,0,1-.39,3.88h-7.75a17,17,0,0,1-.39-3.88,16.14,16.14,0,0,1,.39-3.87H220.4a17,17,0,0,1-.39-3.88,16.14,16.14,0,0,1,.39-3.87h2.91a17,17,0,0,1-.39-3.88,16.14,16.14,0,0,1,.39-3.87,17,17,0,0,1-.39-3.88,16.14,16.14,0,0,1,.39-3.87,17,17,0,0,1-.39-3.88,16.29,16.29,0,0,1,.39-3.88h7.75a16.29,16.29,0,0,1,.39,3.88,17,17,0,0,1-.39,3.88A16.14,16.14,0,0,1,231.45,417.05Z"/><path class="cls-3" d="M267.87,436.43H264a16.67,16.67,0,0,1,.39,3.87,17.58,17.58,0,0,1-.39,3.88H242.68a17,17,0,0,1-.38-3.88,16.19,16.19,0,0,1,.38-3.87h17.44a17,17,0,0,1-.39-3.88,16.14,16.14,0,0,1,.39-3.87h-15.5a17,17,0,0,1-.39-3.88,16.14,16.14,0,0,1,.39-3.87h-3.87a17,17,0,0,1-.39-3.88,16.14,16.14,0,0,1,.39-3.87h3.87a17,17,0,0,1-.39-3.88,16.29,16.29,0,0,1,.39-3.88h21.32a16.88,16.88,0,0,1,.38,3.88,17.63,17.63,0,0,1-.38,3.88H248.5a16.73,16.73,0,0,1,.38,3.87,17.63,17.63,0,0,1-.38,3.88H264a16.67,16.67,0,0,1,.39,3.87,17.58,17.58,0,0,1-.39,3.88h3.87a16.14,16.14,0,0,1,.39,3.87A17,17,0,0,1,267.87,436.43Z"/><path class="cls-3" d="M305.07,440.3a17.63,17.63,0,0,1-.38,3.88H281.44a17,17,0,0,1-.39-3.88,16.14,16.14,0,0,1,.39-3.87h7.75a17,17,0,0,1-.39-3.88,16.14,16.14,0,0,1,.39-3.87,17,17,0,0,1-.39-3.88,16.14,16.14,0,0,1,.39-3.87,17,17,0,0,1-.39-3.88,16.14,16.14,0,0,1,.39-3.87h-5.82a17,17,0,0,1-.38-3.88,16.34,16.34,0,0,1,.38-3.88h13.57a16.88,16.88,0,0,1,.38,3.88,17.63,17.63,0,0,1-.38,3.88,16.73,16.73,0,0,1,.38,3.87,17.63,17.63,0,0,1-.38,3.88,16.73,16.73,0,0,1,.38,3.87,17.63,17.63,0,0,1-.38,3.88,16.73,16.73,0,0,1,.38,3.87,17.63,17.63,0,0,1-.38,3.88h7.75A16.73,16.73,0,0,1,305.07,440.3Zm-15.88-42.63a16.85,16.85,0,0,1-.39-3.87,16.29,16.29,0,0,1,.39-3.88h7.75a16.88,16.88,0,0,1,.38,3.88,17.47,17.47,0,0,1-.38,3.87Z"/><path class="cls-3" d="M347.7,440.3a17,17,0,0,1-.39,3.88H333.75a17,17,0,0,1-.39-3.88,16.14,16.14,0,0,1,.39-3.87h-3.87a17,17,0,0,1-.39-3.88,16.14,16.14,0,0,1,.39-3.87h-5.82a16.14,16.14,0,0,1,.39,3.87,17,17,0,0,1-.39,3.88,16.14,16.14,0,0,1,.39,3.87,17,17,0,0,1-.39,3.88h-7.75a17,17,0,0,1-.38-3.88,16.19,16.19,0,0,1,.38-3.87,17,17,0,0,1-.38-3.88,16.19,16.19,0,0,1,.38-3.87,17,17,0,0,1-.38-3.88,16.19,16.19,0,0,1,.38-3.87,17,17,0,0,1-.38-3.88,16.19,16.19,0,0,1,.38-3.87,17,17,0,0,1-.38-3.88,16.34,16.34,0,0,1,.38-3.88,16.89,16.89,0,0,1-.38-3.87,16.34,16.34,0,0,1,.38-3.88,16.89,16.89,0,0,1-.38-3.87,16.34,16.34,0,0,1,.38-3.88h7.75a16.29,16.29,0,0,1,.39,3.88,16.85,16.85,0,0,1-.39,3.87,16.29,16.29,0,0,1,.39,3.88,16.85,16.85,0,0,1-.39,3.87,16.29,16.29,0,0,1,.39,3.88,17,17,0,0,1-.39,3.88,16.14,16.14,0,0,1,.39,3.87,17,17,0,0,1-.39,3.88h5.82a17,17,0,0,1-.39-3.88,16.14,16.14,0,0,1,.39-3.87h3.87a17,17,0,0,1-.39-3.88,16.29,16.29,0,0,1,.39-3.88h11.63a16.88,16.88,0,0,1,.38,3.88,17.63,17.63,0,0,1-.38,3.88h-7.75a16.73,16.73,0,0,1,.38,3.87,17.63,17.63,0,0,1-.38,3.88h-3.88a16.14,16.14,0,0,1,.39,3.87,17,17,0,0,1-.39,3.88h3.88a16.73,16.73,0,0,1,.38,3.87,17.63,17.63,0,0,1-.38,3.88h9.68A16.14,16.14,0,0,1,347.7,440.3Z"/><rect class="cls-4" x="613.26" y="246.87" width="144.1" height="64.94" rx="11"/><circle class="cls-5" cx="645.72" cy="279.34" r="30.15"/><rect class="cls-3" x="613.26" y="376.74" width="144.1" height="64.94" rx="11"/><circle class="cls-1" cx="724.57" cy="409.21" r="30.15"/></g></svg>
