<svg xmlns="http://www.w3.org/2000/svg" width="130" height="140" viewBox="0 0 130 140"><defs><style>.cls-1{fill:#b2569e;}.cls-2{fill:#ff94e7;}.cls-3{fill:#fff;}</style></defs><title>Settingsknap</title><g id="Titelskærm_baggrund"><rect class="cls-1" x="4" y="10" width="125" height="125" rx="33"/><path class="cls-1" d="M68.63,107.44a32.15,32.15,0,1,1,32.15-32.15A32.18,32.18,0,0,1,68.63,107.44Zm0-53.8A21.65,21.65,0,1,0,90.29,75.29,21.67,21.67,0,0,0,68.63,53.64Z"/><polygon class="cls-1" points="96.18 62.92 87.12 51.27 101.22 43.21 107.26 50.98 96.18 62.92"/><polygon class="cls-1" points="87.1 49.57 73.39 44.08 81.5 30.01 90.64 33.67 87.1 49.57"/><polygon class="cls-1" points="70.9 45.13 56.19 46.34 57.17 30.13 66.98 29.32 70.9 45.13"/><polygon class="cls-1" points="54.97 47.98 43.38 57.14 35.22 43.1 42.94 37 54.97 47.98"/><polygon class="cls-1" points="42.2 59.3 36.91 73.08 22.73 65.18 26.25 55.99 42.2 59.3"/><polygon class="cls-1" points="37.65 75.04 40.84 89.46 24.64 90.68 22.52 81.07 37.65 75.04"/><polygon class="cls-1" points="99.83 77.33 96.3 62.99 112.46 61.38 114.81 70.93 99.83 77.33"/><polygon class="cls-1" points="95.37 92.31 99.68 78.19 114.39 85.07 111.51 94.49 95.37 92.31"/><polygon class="cls-1" points="83.48 102.78 93.69 92.12 103.71 104.9 96.9 112.01 83.48 102.78"/><polygon class="cls-1" points="68.7 106.79 82.91 102.79 85.06 118.89 75.58 121.55 68.7 106.79"/><polygon class="cls-1" points="52.85 102.72 67 106.92 60.23 121.68 50.8 118.88 52.85 102.72"/><polygon class="cls-1" points="51.82 101.44 41.74 90.66 31.57 103.32 38.29 110.51 51.82 101.44"/><path class="cls-1" d="M66.34,104.82A32.16,32.16,0,1,1,98.49,72.66,32.2,32.2,0,0,1,66.34,104.82Zm0-53.81A21.66,21.66,0,1,0,88,72.66,21.68,21.68,0,0,0,66.34,51Z"/><polygon class="cls-1" points="93.89 60.3 84.82 48.64 98.92 40.59 104.97 48.35 93.89 60.3"/><polygon class="cls-1" points="84.8 46.95 71.09 41.46 79.2 27.39 88.34 31.04 84.8 46.95"/><polygon class="cls-1" points="68.61 42.51 53.89 43.71 54.87 27.5 64.68 26.7 68.61 42.51"/><polygon class="cls-1" points="52.67 45.36 41.08 54.51 32.92 40.47 40.64 34.37 52.67 45.36"/><polygon class="cls-1" points="39.9 56.67 34.62 70.46 20.43 62.56 23.95 53.37 39.9 56.67"/><polygon class="cls-1" points="35.36 72.42 38.54 86.83 22.34 88.06 20.22 78.44 35.36 72.42"/><polygon class="cls-1" points="97.53 74.7 94 60.37 110.16 58.75 112.52 68.31 97.53 74.7"/><polygon class="cls-1" points="93.08 89.68 97.38 75.56 112.09 82.45 109.22 91.86 93.08 89.68"/><polygon class="cls-1" points="81.18 100.16 91.39 89.5 101.41 102.28 94.6 109.38 81.18 100.16"/><polygon class="cls-1" points="66.4 104.16 80.62 100.17 82.76 116.26 73.28 118.93 66.4 104.16"/><polygon class="cls-1" points="50.55 100.1 64.71 104.29 57.94 119.05 48.5 116.26 50.55 100.1"/><polygon class="cls-1" points="49.53 98.82 39.44 88.04 29.27 100.7 35.99 107.88 49.53 98.82"/><path class="cls-1" d="M12.1,34.93a1.37,1.37,0,0,1-1.37-1.37A17.5,17.5,0,0,1,28.21,16.07a1.38,1.38,0,1,1,0,2.75A14.75,14.75,0,0,0,13.48,33.56,1.37,1.37,0,0,1,12.1,34.93Z"/><rect class="cls-2" x="1" y="6" width="125" height="125" rx="33"/><path class="cls-1" d="M65.63,103.44A32.15,32.15,0,1,1,97.78,71.29,32.18,32.18,0,0,1,65.63,103.44Zm0-53.8A21.65,21.65,0,1,0,87.29,71.29,21.67,21.67,0,0,0,65.63,49.64Z"/><polygon class="cls-1" points="93.18 58.92 84.12 47.27 98.22 39.21 104.26 46.98 93.18 58.92"/><polygon class="cls-1" points="84.1 45.57 70.39 40.08 78.5 26.01 87.64 29.67 84.1 45.57"/><polygon class="cls-1" points="67.9 41.13 53.19 42.34 54.17 26.13 63.98 25.32 67.9 41.13"/><polygon class="cls-1" points="51.97 43.98 40.38 53.14 32.22 39.1 39.94 33 51.97 43.98"/><polygon class="cls-1" points="39.2 55.3 33.91 69.08 19.73 61.18 23.25 51.99 39.2 55.3"/><polygon class="cls-1" points="34.65 71.04 37.84 85.46 21.64 86.68 19.52 77.07 34.65 71.04"/><polygon class="cls-1" points="96.83 73.33 93.3 58.99 109.46 57.38 111.81 66.93 96.83 73.33"/><polygon class="cls-1" points="92.37 88.31 96.68 74.19 111.39 81.07 108.51 90.49 92.37 88.31"/><polygon class="cls-1" points="80.48 98.78 90.69 88.12 100.71 100.9 93.9 108.01 80.48 98.78"/><polygon class="cls-1" points="65.7 102.79 79.91 98.79 82.06 114.89 72.58 117.55 65.7 102.79"/><polygon class="cls-1" points="49.85 98.72 64 102.92 57.23 117.68 47.8 114.88 49.85 98.72"/><polygon class="cls-1" points="48.82 97.44 38.74 86.66 28.57 99.32 35.29 106.51 48.82 97.44"/><path class="cls-3" d="M63.34,100.82A32.16,32.16,0,1,1,95.49,68.66,32.2,32.2,0,0,1,63.34,100.82Zm0-53.81A21.66,21.66,0,1,0,85,68.66,21.68,21.68,0,0,0,63.34,47Z"/><polygon class="cls-3" points="90.89 56.3 81.82 44.64 95.92 36.59 101.97 44.35 90.89 56.3"/><polygon class="cls-3" points="81.8 42.95 68.09 37.46 76.2 23.39 85.34 27.04 81.8 42.95"/><polygon class="cls-3" points="65.61 38.51 50.89 39.71 51.87 23.5 61.68 22.7 65.61 38.51"/><polygon class="cls-3" points="49.67 41.36 38.08 50.51 29.92 36.47 37.64 30.37 49.67 41.36"/><polygon class="cls-3" points="36.9 52.67 31.62 66.46 17.43 58.56 20.95 49.37 36.9 52.67"/><polygon class="cls-3" points="32.36 68.42 35.54 82.83 19.34 84.06 17.22 74.44 32.36 68.42"/><polygon class="cls-3" points="94.53 70.7 91 56.37 107.16 54.75 109.52 64.31 94.53 70.7"/><polygon class="cls-3" points="90.08 85.68 94.38 71.56 109.09 78.45 106.22 87.86 90.08 85.68"/><polygon class="cls-3" points="78.18 96.16 88.39 85.5 98.41 98.28 91.6 105.38 78.18 96.16"/><polygon class="cls-3" points="63.4 100.16 77.62 96.17 79.76 112.26 70.28 114.93 63.4 100.16"/><polygon class="cls-3" points="47.55 96.1 61.71 100.29 54.94 115.05 45.5 112.26 47.55 96.1"/><polygon class="cls-3" points="46.53 94.82 36.44 84.04 26.27 96.7 32.99 103.88 46.53 94.82"/><path class="cls-1" d="M9.1,30.93a1.37,1.37,0,0,1-1.37-1.37A17.5,17.5,0,0,1,25.21,12.07a1.38,1.38,0,1,1,0,2.75A14.75,14.75,0,0,0,10.48,29.56,1.37,1.37,0,0,1,9.1,30.93Z"/></g></svg>
