<svg xmlns="http://www.w3.org/2000/svg" width="1920" height="1080" viewBox="0 0 1920 1080"><defs><style>.cls-1{fill:#393344;}.cls-2{fill:#d2b4de;}.cls-3{fill:#62463c;}.cls-4{fill:#0e2c36;}.cls-5{fill:#17343d;}.cls-6{fill:#fff;}.cls-7{fill:#f3eae3;}.cls-8{fill:#cfcfcf;}.cls-9{fill:#d4e6f1;}.cls-10{fill:#3a7d78;}.cls-11{fill:#9fbf6f;}.cls-12{fill:#f15a24;}.cls-13{fill:#f7dc6f;}.cls-14{fill:#f7931e;}.cls-15{fill:#97e6ff;}.cls-15,.cls-18{opacity:0.4;}.cls-16,.cls-17,.cls-18{fill:#c7effa;}.cls-16{opacity:0.3;}.cls-17{opacity:0.2;}.cls-19{fill:#412f28;}.cls-20{fill:#825d50;}.cls-21{fill:#9b7d73;}.cls-22{fill:#210200;}.cls-23{fill:#1b0200;}.cls-24{fill:#c2a09d;}</style></defs><title>Titelskærm_baggrund</title><g id="Titelskærm_baggrund"><rect class="cls-1" x="179.82" y="482.39" width="83.39" height="1.51" transform="translate(719.79 668.14) rotate(135)"/><rect class="cls-2" x="-1" y="1" width="1920" height="1080"/><rect class="cls-3" x="48.19" y="795" width="1821" height="48"/><rect class="cls-4" x="117.69" y="843" width="1682" height="52"/><rect class="cls-5" x="140" y="895" width="87" height="186"/><rect class="cls-5" x="1693" y="895" width="87" height="186"/><rect class="cls-1" x="711.19" y="784" width="495" height="11" transform="translate(1917.37 1579) rotate(180)"/><path class="cls-6" d="M870,770h178a9,9,0,0,1,9,9v4a0,0,0,0,1,0,0H861a0,0,0,0,1,0,0v-4A9,9,0,0,1,870,770Z"/><rect class="cls-7" x="918" y="721.16" width="82" height="48.69"/><path class="cls-6" d="M659,658h600a0,0,0,0,1,0,0v48a15,15,0,0,1-15,15H674a15,15,0,0,1-15-15V658A0,0,0,0,1,659,658Z"/><path class="cls-1" d="M674,339h570a15,15,0,0,1,15,15V658a0,0,0,0,1,0,0H659a0,0,0,0,1,0,0V354A15,15,0,0,1,674,339Z"/><rect class="cls-8" x="689" y="367" width="539" height="263"/><circle class="cls-1" cx="959" cy="689" r="13"/><circle class="cls-1" cx="161" cy="123" r="6"/><rect class="cls-1" x="96.82" y="163.39" width="83.39" height="1.51" transform="translate(347.54 114.76) rotate(116.87)"/><rect class="cls-1" x="140.82" y="163.39" width="83.39" height="1.51" transform="translate(246.47 -72.85) rotate(63.13)"/><circle class="cls-1" cx="401" cy="262" r="6"/><rect class="cls-1" x="336.82" y="302.39" width="83.39" height="1.51" transform="translate(820 102.47) rotate(116.87)"/><rect class="cls-1" x="380.82" y="302.39" width="83.39" height="1.51" transform="translate(502.01 -210.76) rotate(63.13)"/><circle class="cls-1" cx="254" cy="451" r="6"/><rect class="cls-1" x="244.82" y="482.39" width="83.39" height="1.51" transform="translate(425.55 -61.09) rotate(45)"/><rect class="cls-1" x="48" y="201" width="223" height="223"/><rect class="cls-1" x="142" y="511" width="223" height="223"/><rect class="cls-6" x="64" y="216" width="192" height="192"/><rect class="cls-9" x="158" y="527" width="192" height="192"/><rect class="cls-1" x="331" y="316" width="139" height="139"/><rect class="cls-10" x="342.14" y="328" width="117.72" height="115"/><path class="cls-11" d="M318.56,603.8c-10.1-2-27.39-15.92-28.76-39C288.27,539,269.41,541,248.37,553.13c-.84.48-1.66,1-2.47,1.57-11.51,3.17-29.56-14.92-36.73-4.31-13.54,20-25.17,12.74-25.17,31,0,15.3,17.59,26.61,41,29.86C234,621,242.75,638,237.58,651.05c-5.35,13.54,17.63,48.68,32,47.94,13.32-.68,27.56-31.16,27.56-45.71,0-18.13,10.83-34.67,20-42.09C323.41,608,325.05,605.12,318.56,603.8Z"/><path class="cls-11" d="M312.6,642.72c-1.24,7,4.42,15.32,3.5,20.94-.54,3.27,8-4.42,9.24-11.41s.51-18.61-2.07-16.25S313.84,635.74,312.6,642.72Z"/><rect class="cls-12" x="1627" y="778" width="123" height="19" rx="9.5"/><rect class="cls-1" x="1711" y="540" width="11" height="190" transform="translate(155.44 -320.34) rotate(11.16)"/><circle class="cls-13" cx="1589.5" cy="348.5" r="17.5"/><path class="cls-14" d="M1636,778.5a53,53,0,0,1,106,0"/><path class="cls-14" d="M1548,287.23a73.68,73.68,0,0,1,90.16,116.56"/><rect class="cls-1" x="1692" y="319" width="11" height="190" transform="translate(-40.42 594.35) rotate(-19.63)"/><circle class="cls-14" cx="1736" cy="525" r="24"/><circle class="cls-6" cx="1736.5" cy="525.5" r="17.5"/><circle class="cls-14" cx="1660" cy="309" r="24"/><circle class="cls-6" cx="1660.5" cy="309.5" r="17.5"/><path class="cls-1" d="M475.66,185.73a42.52,42.52,0,0,1-.64,8,50.19,50.19,0,0,1,0,16l-6.47-.86a41.16,41.16,0,0,1,.64,7.92,39.63,39.63,0,0,1-.64,7.71q-19.41-3.66-38.77-7.62a32.56,32.56,0,0,1-.65-6.84,28.19,28.19,0,0,1,.65-6.62l-6.45-.94a30.41,30.41,0,0,1-.65-6.62,26.91,26.91,0,0,1,.65-6.46l12.91,1.13a32.65,32.65,0,0,1,.64,7,32.07,32.07,0,0,1-.64,6.84q12.9,1.86,25.84,3.63a40.88,40.88,0,0,1-.65-7.71,36.86,36.86,0,0,1,.65-7.57,40.39,40.39,0,0,1-.65-7.68,37.49,37.49,0,0,1,.65-7.61q-16.17-.43-32.3-.91a31,31,0,0,1-.65-6.73,29.63,29.63,0,0,1,.65-6.73l-6.45.19a33.23,33.23,0,0,1,0-13.08,28.21,28.21,0,0,1-.65-6.46,28.87,28.87,0,0,1,.65-6.61l6.45-1a29.46,29.46,0,0,1-.65-6.62,31.12,31.12,0,0,1,.65-6.84q19.37-4,38.77-7.62a37.89,37.89,0,0,1,.64,7.71,43,43,0,0,1-.64,7.92l6.47-.86a40.1,40.1,0,0,1,.64,7.92,44.39,44.39,0,0,1-.64,8.06q-6.48.51-12.94,1a45.28,45.28,0,0,1,0-15.29q-12.93,1.77-25.84,3.63a30.59,30.59,0,0,1,.64,6.84,34.2,34.2,0,0,1-.64,7,31.17,31.17,0,0,1,.64,6.88,33.65,33.65,0,0,1-.64,6.95q16.14-.47,32.31-.9a39.63,39.63,0,0,1,.64,7.82,41.35,41.35,0,0,1-.64,7.82l6.47.17A41.82,41.82,0,0,1,475.66,185.73Z"/><path class="cls-1" d="M539.83,217.71a61,61,0,0,1,.65,9.69,60.3,60.3,0,0,1-.65,9.51q-6.5-1-13-2.13a60.3,60.3,0,0,1-.65-9.39,54.16,54.16,0,0,1,.65-9.2,59.71,59.71,0,0,1-.65-9.36,54.71,54.71,0,0,1,.65-9.23q-13-.93-25.93-1.9a58.91,58.91,0,0,1,0,17.32,50.12,50.12,0,0,1,.64,8.76,48.86,48.86,0,0,1-.64,8.56q-6.48-1.14-13-2.31a49,49,0,0,1-.65-8.43,43.26,43.26,0,0,1,.65-8.23,48.36,48.36,0,0,1-.65-8.4,43.94,43.94,0,0,1,.65-8.27l4.86.38a49.13,49.13,0,0,1-.65-8.49,45.69,45.69,0,0,1,.65-8.42,48.6,48.6,0,0,1-.65-8.46,46.39,46.39,0,0,1,.65-8.46l3.24-.08a48,48,0,0,1-.65-8.5,47.06,47.06,0,0,1,.65-8.58l4.86-.37a48.64,48.64,0,0,1-.65-8.59,48.85,48.85,0,0,1,.65-8.73l3.24-.41a49,49,0,0,1-.65-8.64,50.26,50.26,0,0,1,.65-8.84q9.72-1.7,19.45-3.33a53.11,53.11,0,0,1,.64,9.12,59.27,59.27,0,0,1-.64,9.32l3.24-.39a54.46,54.46,0,0,1,.65,9.23,59.35,59.35,0,0,1-.65,9.36l4.87-.34a56.54,56.54,0,0,1,.64,9.38,60.45,60.45,0,0,1-.64,9.44l3.24-.08a57.93,57.93,0,0,1,.65,9.49,60.66,60.66,0,0,1-.65,9.49,58.37,58.37,0,0,1,.65,9.51,60.07,60.07,0,0,1-.65,9.46l4.87.34a71.21,71.21,0,0,1,0,19.2Zm-18.49-48a54.6,54.6,0,0,1,.64-9.18l-3.24.08a55.6,55.6,0,0,1-.65-9.07,54.3,54.3,0,0,1,.65-9.14l-9.72.72a50.12,50.12,0,0,1,.64,8.83,53.68,53.68,0,0,1-.64,8.9l-3.24.08a49.74,49.74,0,0,1,.64,8.78,52,52,0,0,1-.64,8.78l16.2.4A57.14,57.14,0,0,1,521.34,169.71Z"/><path class="cls-1" d="M604.83,114.81q-9.76,1-19.52,2A71,71,0,0,1,586,127.3a76.49,76.49,0,0,1-.65,10.64A71.46,71.46,0,0,1,586,148.5a76.08,76.08,0,0,1-.65,10.62,72.09,72.09,0,0,1,.65,10.59,75.43,75.43,0,0,1-.65,10.59,72.53,72.53,0,0,1,.65,10.62,74.87,74.87,0,0,1-.65,10.56,73.12,73.12,0,0,1,.65,10.64,74.37,74.37,0,0,1-.65,10.54,86.59,86.59,0,0,1,0,21.18l-13-1.9a72.3,72.3,0,0,1-.65-10.4,65.75,65.75,0,0,1,.65-10.24,71.67,71.67,0,0,1-.65-10.37,66.43,66.43,0,0,1,.65-10.27,71,71,0,0,1-.65-10.34,66.8,66.8,0,0,1,.65-10.29,70.55,70.55,0,0,1-.65-10.32,67.41,67.41,0,0,1,.65-10.32,69.93,69.93,0,0,1-.65-10.29,67.87,67.87,0,0,1,.65-10.34,69.45,69.45,0,0,1-.65-10.27,68.48,68.48,0,0,1,.65-10.37q-9.75,1-19.5,2.12a64.29,64.29,0,0,1-.65-9.8,65,65,0,0,1,.65-10q26-4,52-7.59a75.67,75.67,0,0,1,.65,10.9A82.68,82.68,0,0,1,604.83,114.81Z"/><path class="cls-1" d="M670.65,194A98.29,98.29,0,0,1,670,206.1a95.49,95.49,0,0,1,.65,12.17,97.83,97.83,0,0,1-.65,12.09l-6.53-.52a92.18,92.18,0,0,1,.66,12.08,93.71,93.71,0,0,1-.66,12q-19.56-2.23-39.11-4.74a88.55,88.55,0,0,1-.65-11.42,81.34,81.34,0,0,1,.65-11.28l-6.51-.6a86.26,86.26,0,0,1-.65-11.28,80.28,80.28,0,0,1,.65-11.18q6.51.38,13,.72a85.41,85.41,0,0,1,.65,11.51,87.13,87.13,0,0,1-.65,11.42q13,1.19,26.07,2.26a96.74,96.74,0,0,1-.65-12,90.51,90.51,0,0,1,.65-11.88,96.16,96.16,0,0,1-.65-11.94,90.78,90.78,0,0,1,.65-11.89q-16.31-.27-32.59-.57a86.86,86.86,0,0,1-.65-11.35,83.06,83.06,0,0,1,.65-11.35l-6.51.12a84.43,84.43,0,0,1-.65-11.2,81.68,81.68,0,0,1,.65-11.25,84,84,0,0,1-.65-11.18,82.36,82.36,0,0,1,.65-11.28l6.51-.6a85.29,85.29,0,0,1-.65-11.28,84.69,84.69,0,0,1,.65-11.42q19.54-2.51,39.11-4.73a89.16,89.16,0,0,1,.66,12,96.57,96.57,0,0,1-.66,12.08l6.53-.52a93.37,93.37,0,0,1,.65,12.09,99.8,99.8,0,0,1-.65,12.17L657,134a94.8,94.8,0,0,1-.65-11.88,92.49,92.49,0,0,1,.65-12q-13,1.08-26.07,2.26a83.25,83.25,0,0,1,.65,11.42,89.48,89.48,0,0,1-.65,11.51,83.87,83.87,0,0,1,.65,11.44,88.82,88.82,0,0,1-.65,11.49q16.29-.28,32.59-.55a90.77,90.77,0,0,1,.66,12,95.16,95.16,0,0,1-.66,12l6.53.1A94.82,94.82,0,0,1,670.65,194Z"/><path class="cls-1" d="M768,183.14a115.81,115.81,0,0,1,.65,13.44A120.71,120.71,0,0,1,768,210a116.36,116.36,0,0,1,.65,13.45,120.27,120.27,0,0,1-.65,13.4q13.08.69,26.17,1.3a121,121,0,0,1,.65,13.72,124.85,124.85,0,0,1-.65,13.65q-19.63-1.26-39.25-2.82a117.38,117.38,0,0,1-.65-13.32,110.09,110.09,0,0,1,.65-13.24,117.26,117.26,0,0,1-.65-13.32,110.38,110.38,0,0,1,.65-13.25,116.88,116.88,0,0,1-.65-13.3,110.86,110.86,0,0,1,.65-13.27,116.26,116.26,0,0,1-.65-13.28,111.16,111.16,0,0,1,.65-13.28,116.08,116.08,0,0,1-.65-13.27,111.64,111.64,0,0,1,.65-13.3,115.58,115.58,0,0,1-.65-13.25,112.12,112.12,0,0,1,.65-13.32,115,115,0,0,1-.65-13.23,112.3,112.3,0,0,1,.65-13.33q19.62-1.56,39.25-2.82a119.3,119.3,0,0,1,.65,13.65,126.62,126.62,0,0,1-.65,13.72q-13.1.6-26.17,1.3a114.82,114.82,0,0,1,.65,13.4,121.74,121.74,0,0,1-.65,13.45,115.25,115.25,0,0,1,.65,13.41,121.29,121.29,0,0,1-.65,13.44l26.17-.26a120.18,120.18,0,0,1,.65,13.69,126,126,0,0,1-.65,13.69Z"/><path class="cls-1" d="M866.84,255a132.17,132.17,0,0,1-.66,14.19q-22.92-.85-45.84-2.11a128.26,128.26,0,0,1-.65-13.94,120.82,120.82,0,0,1,.65-13.87,128.19,128.19,0,0,1-.65-13.93,121.32,121.32,0,0,1,.65-13.89,127.74,127.74,0,0,1-.65-13.92,121.44,121.44,0,0,1,.65-13.89,127.55,127.55,0,0,1-.65-13.91,121.94,121.94,0,0,1,.65-13.91,127,127,0,0,1-.65-13.89,122.13,122.13,0,0,1,.65-13.92,127,127,0,0,1-.65-13.89,122.45,122.45,0,0,1,.65-13.93,126.51,126.51,0,0,1-.65-13.87,122.64,122.64,0,0,1,.65-13.94q6.55-.36,13.1-.68a124.91,124.91,0,0,1,.65,14,132.52,132.52,0,0,1-.65,14,125.16,125.16,0,0,1,.65,14,132.39,132.39,0,0,1-.65,14,125.36,125.36,0,0,1,.65,14,132.05,132.05,0,0,1-.65,14,125.68,125.68,0,0,1,.65,14,131.65,131.65,0,0,1-.65,14,126.2,126.2,0,0,1,.65,14,131.32,131.32,0,0,1-.65,14,126.4,126.4,0,0,1,.65,14,131.12,131.12,0,0,1-.65,14q16.37.59,32.74,1A127.19,127.19,0,0,1,866.84,255Z"/><path class="cls-1" d="M932.36,256.37a140.08,140.08,0,0,1-.65,14.44q-23-.3-45.87-1a135.17,135.17,0,0,1-.66-14.32,128.11,128.11,0,0,1,.66-14.29,134.83,134.83,0,0,1-.66-14.31,128.11,128.11,0,0,1,.66-14.29,134.83,134.83,0,0,1-.66-14.31,128.43,128.43,0,0,1,.66-14.3,134.37,134.37,0,0,1-.66-14.3,128.43,128.43,0,0,1,.66-14.3,134.37,134.37,0,0,1-.66-14.3,128.63,128.63,0,0,1,.66-14.31,134,134,0,0,1-.66-14.29,128.63,128.63,0,0,1,.66-14.31,134,134,0,0,1-.66-14.29,129,129,0,0,1,.66-14.32q6.54-.2,13.1-.36a129,129,0,0,1,.66,14.34,135.78,135.78,0,0,1-.66,14.37,129,129,0,0,1,.66,14.35,135.71,135.71,0,0,1-.66,14.36A129.16,129.16,0,0,1,899.6,141a135.71,135.71,0,0,1-.66,14.36,129.16,129.16,0,0,1,.66,14.35,135.24,135.24,0,0,1-.66,14.35,129.61,129.61,0,0,1,.66,14.36,135.24,135.24,0,0,1-.66,14.35,129.68,129.68,0,0,1,.66,14.37,135.17,135.17,0,0,1-.66,14.34q16.38.3,32.77.44A134.12,134.12,0,0,1,932.36,256.37Z"/><path class="cls-1" d="M964.48,184.18a134.59,134.59,0,0,1,.65,14.48,140.71,140.71,0,0,1-.65,14.47,134.46,134.46,0,0,1,.65,14.48,140.71,140.71,0,0,1-.65,14.47q13.11,0,26.21-.08a131.13,131.13,0,0,1,.66,14.45,137.66,137.66,0,0,1-.66,14.47q-19.65.18-39.32.07a137.66,137.66,0,0,1-.66-14.47,131.4,131.4,0,0,1,.66-14.47,137.66,137.66,0,0,1-.66-14.47,131.2,131.2,0,0,1,.66-14.46,137.66,137.66,0,0,1-.66-14.47,131.4,131.4,0,0,1,.66-14.47,137.66,137.66,0,0,1-.66-14.47,131.4,131.4,0,0,1,.66-14.47,137.53,137.53,0,0,1-.66-14.47,131.65,131.65,0,0,1,.66-14.47,137.33,137.33,0,0,1-.66-14.46,131.4,131.4,0,0,1,.66-14.47,137.66,137.66,0,0,1-.66-14.47,131.52,131.52,0,0,1,.66-14.47q19.67-.11,39.32.07A131.52,131.52,0,0,1,991.35,83a137.26,137.26,0,0,1-.66,14.45q-13.11-.09-26.21-.08a134.26,134.26,0,0,1,.65,14.47,140.77,140.77,0,0,1-.65,14.48,134.26,134.26,0,0,1,.65,14.47,140.91,140.91,0,0,1-.65,14.48h26.21a131.33,131.33,0,0,1,.66,14.46,137.46,137.46,0,0,1-.66,14.46Q977.58,184.19,964.48,184.18Z"/><path class="cls-1" d="M1062.77,240.84a126.36,126.36,0,0,1,.66,14.2,133.76,133.76,0,0,1-.66,14.25l-13.1.44a134,134,0,0,1-.65-14.27,128.94,128.94,0,0,1,.65-14.31l-4.91.11a134.37,134.37,0,0,1-.66-14.3,128.7,128.7,0,0,1,.66-14.32l-4.92.06a137.81,137.81,0,0,1-.65-14.33,129.21,129.21,0,0,1,.65-14.33l-16.38.06a129.75,129.75,0,0,1,.66,14.38,136.18,136.18,0,0,1-.66,14.39,129.62,129.62,0,0,1,.66,14.38,136.18,136.18,0,0,1-.66,14.39,129.75,129.75,0,0,1,.66,14.38,136.65,136.65,0,0,1-.66,14.4l-13.11.24a139.32,139.32,0,0,1-.65-14.41,133.58,133.58,0,0,1,.65-14.43,139.53,139.53,0,0,1-.65-14.42,133.51,133.51,0,0,1,.65-14.42,139.67,139.67,0,0,1-.65-14.42,133.58,133.58,0,0,1,.65-14.43,139.67,139.67,0,0,1-.65-14.42,133.38,133.38,0,0,1,.65-14.42,139.88,139.88,0,0,1-.65-14.43,133.38,133.38,0,0,1,.65-14.42,139.67,139.67,0,0,1-.65-14.42,133.25,133.25,0,0,1,.65-14.42,140,140,0,0,1-.65-14.43,133.05,133.05,0,0,1,.65-14.41q23,.38,45.87,1.15a128.1,128.1,0,0,1,.66,14.27,133.17,133.17,0,0,1-.66,14.24l6.55.16a127.51,127.51,0,0,1,.66,14.24,132.57,132.57,0,0,1-.66,14.21l-3.27,0a130.49,130.49,0,0,1,.65,14.25,136.24,136.24,0,0,1-.65,14.24l-9.83-.05a128.36,128.36,0,0,1,.66,14.29,134.3,134.3,0,0,1-.66,14.29l3.28,0a130.63,130.63,0,0,1,.65,14.27,137.2,137.2,0,0,1-.65,14.28l4.91-.07a127.26,127.26,0,0,1,.66,14.24,134,134,0,0,1-.66,14.26Zm-17-99.74a131.1,131.1,0,0,1,.65-14.3,137.54,137.54,0,0,1-.65-14.31,130.9,130.9,0,0,1,.65-14.29q-11.46-.26-22.93-.42a130.07,130.07,0,0,1,.66,14.39,135.84,135.84,0,0,1-.66,14.38,130.07,130.07,0,0,1,.66,14.39,135.84,135.84,0,0,1-.66,14.38l22.93.09A137.54,137.54,0,0,1,1045.74,141.1Z"/><path class="cls-1" d="M1194.32,195.88a113.39,113.39,0,0,1-.66,13.11,106.75,106.75,0,0,1,.66,13,113.88,113.88,0,0,1-.66,13.13l-6.53.39a110.24,110.24,0,0,1,.65,13.12,118.1,118.1,0,0,1-.65,13.22q-19.62,1.62-39.24,3a120.44,120.44,0,0,1-.66-13.56,117,117,0,0,1,.66-13.63l-6.55.31a124.46,124.46,0,0,1-.65-13.63,120,120,0,0,1,.65-13.67c4.37-.13,8.73-.25,13.09-.39a117,117,0,0,1,.65,13.51,123.81,123.81,0,0,1-.65,13.55q13.08-.66,26.16-1.41a114.78,114.78,0,0,1-.65-13.22,111.09,111.09,0,0,1,.65-13.27,115.21,115.21,0,0,1-.65-13.23,110.79,110.79,0,0,1,.65-13.26q-16.35.18-32.7.34a121.26,121.26,0,0,1-.66-13.59,115.88,115.88,0,0,1,.66-13.59l-6.55-.06a125.63,125.63,0,0,1-.65-13.67,119.11,119.11,0,0,1,.65-13.64,126,126,0,0,1-.65-13.68,118.79,118.79,0,0,1,.65-13.63l6.55.31a122.53,122.53,0,0,1-.66-13.63,115.08,115.08,0,0,1,.66-13.56q19.62,1.34,39.24,3a112.67,112.67,0,0,1,.65,13.22,115.33,115.33,0,0,1-.65,13.12l6.53.39a108.64,108.64,0,0,1,.66,13.13,112.11,112.11,0,0,1-.66,13.06l-13.07-.47a116.2,116.2,0,0,1-.65-13.27,109.61,109.61,0,0,1,.65-13.22q-13.08-.75-26.16-1.41a118.32,118.32,0,0,1,.65,13.56,122.45,122.45,0,0,1-.65,13.5,117.82,117.82,0,0,1,.65,13.54,122.64,122.64,0,0,1-.65,13.51q16.35.16,32.7.36a111.51,111.51,0,0,1,.65,13.17,116.65,116.65,0,0,1-.65,13.17l6.53-.08A107.4,107.4,0,0,1,1194.32,195.88Z"/><path class="cls-1" d="M1259,230.62a93.88,93.88,0,0,1,.65,12.12A101.5,101.5,0,0,1,1259,255q-6.53.72-13,1.4a99.5,99.5,0,0,1-.65-12.32,97.92,97.92,0,0,1,.65-12.44,100.07,100.07,0,0,1-.65-12.34,97.36,97.36,0,0,1,.65-12.42q-13.05.58-26.12,1.12a103.54,103.54,0,0,1,.65,12.71,110.74,110.74,0,0,1-.65,12.8,103.13,103.13,0,0,1,.65,12.7,111.05,111.05,0,0,1-.65,12.81l-13.07,1.21a111.11,111.11,0,0,1-.65-12.88,108.51,108.51,0,0,1,.65-13,111.3,111.3,0,0,1-.65-12.89,108.21,108.21,0,0,1,.65-13l4.9-.19a110.62,110.62,0,0,1-.65-12.84,106.76,106.76,0,0,1,.65-12.89,111,111,0,0,1-.65-12.86,106,106,0,0,1,.65-12.86l3.27,0a108.79,108.79,0,0,1-.65-12.84,104.91,104.91,0,0,1,.65-12.8l4.9.2a108.19,108.19,0,0,1-.65-12.8,101.36,101.36,0,0,1,.65-12.71l3.27.22a107.63,107.63,0,0,1-.66-12.76,100.14,100.14,0,0,1,.66-12.66q9.79.95,19.59,2a100.8,100.8,0,0,1,.65,12.49,102.62,102.62,0,0,1-.65,12.37l3.26.24a99.58,99.58,0,0,1,.65,12.42,102.08,102.08,0,0,1-.65,12.34l4.89.23a95.76,95.76,0,0,1,.66,12.32,99.37,99.37,0,0,1-.66,12.29l3.27,0a96.7,96.7,0,0,1,.65,12.26,101.26,101.26,0,0,1-.65,12.26,96.14,96.14,0,0,1,.65,12.24,101.67,101.67,0,0,1-.65,12.27l4.89-.23a94.54,94.54,0,0,1,.65,12.14A101.2,101.2,0,0,1,1259,230.62Zm-18.6-60.91a99.31,99.31,0,0,1,.65-12.45l-3.26,0a103.44,103.44,0,0,1-.65-12.52,98,98,0,0,1,.65-12.49l-9.8-.42a101,101,0,0,1,.66,12.66,105,105,0,0,1-.66,12.63l-3.26,0a103.53,103.53,0,0,1,.65,12.69,108.48,108.48,0,0,1-.65,12.69l16.32-.24A104.16,104.16,0,0,1,1240.37,169.71Z"/><path class="cls-1" d="M1318.29,169.71a82.35,82.35,0,0,1-.66,11.17l-26.05.47a86.77,86.77,0,0,1,.65,11.62,91.87,91.87,0,0,1-.65,11.66,86.13,86.13,0,0,1,.65,11.6,92.32,92.32,0,0,1-.65,11.68,85.65,85.65,0,0,1,.65,11.57,93,93,0,0,1-.65,11.71q-6.52.8-13,1.57a91.28,91.28,0,0,1-.65-11.8,90.13,90.13,0,0,1,.65-11.93,91.82,91.82,0,0,1-.65-11.82,89.7,89.7,0,0,1,.65-11.91,92.26,92.26,0,0,1-.65-11.84,89.27,89.27,0,0,1,.65-11.89,92.6,92.6,0,0,1-.65-11.86,88.47,88.47,0,0,1,.65-11.86,93.32,93.32,0,0,1-.65-11.89,88,88,0,0,1,.65-11.84,93.76,93.76,0,0,1-.65-11.91,87.62,87.62,0,0,1,.65-11.82,94.2,94.2,0,0,1-.65-11.93,86.93,86.93,0,0,1,.65-11.79q19.56,2.3,39.09,4.88a80.08,80.08,0,0,1,.66,11.24,80.69,80.69,0,0,1-.66,11.09q-13-1.23-26.05-2.37a88.17,88.17,0,0,1,.65,11.68,90.2,90.2,0,0,1-.65,11.6,87.74,87.74,0,0,1,.65,11.66,90.87,90.87,0,0,1-.65,11.62l26.05.47A78.71,78.71,0,0,1,1318.29,169.71Z"/><path class="cls-1" d="M1389.16,218.08a58.7,58.7,0,0,1,.65,9.58,65.18,65.18,0,0,1-.65,9.77l-13,2a63.78,63.78,0,0,1-.65-9.88,65.59,65.59,0,0,1,.65-10.05,76.71,76.71,0,0,1,0-19.93q-13,.85-26,1.67a70.23,70.23,0,0,1,.65,10.47,75.83,75.83,0,0,1-.65,10.57,69.79,69.79,0,0,1,.65,10.44,76.75,76.75,0,0,1-.65,10.61l-13,1.85a89.88,89.88,0,0,1,0-21.58,77.05,77.05,0,0,1-.65-10.73,75.84,75.84,0,0,1,.65-10.84l4.88-.29a76.34,76.34,0,0,1-.65-10.67,73.88,73.88,0,0,1,.65-10.71,76.85,76.85,0,0,1-.65-10.69A73.38,73.38,0,0,1,1342,159l3.25.07a76.54,76.54,0,0,1-.65-10.65,72,72,0,0,1,.65-10.6l4.88.3a75.53,75.53,0,0,1-.65-10.57,70,70,0,0,1,.65-10.47l3.25.34a75.38,75.38,0,0,1-.65-10.54,68.41,68.41,0,0,1,.65-10.37q9.76,1.43,19.5,2.92a66.68,66.68,0,0,1,.65,10.12,66.22,66.22,0,0,1-.65,10l3.25.36a65.26,65.26,0,0,1,.65,10,65.94,65.94,0,0,1-.65,9.91l4.87.33a63.31,63.31,0,0,1,.65,9.88,65.09,65.09,0,0,1-.65,9.83l3.25.08a61.75,61.75,0,0,1,.65,9.78,64.66,64.66,0,0,1-.65,9.78,61.39,61.39,0,0,1,.65,9.76,65.28,65.28,0,0,1-.65,9.81l4.87-.33a59.32,59.32,0,0,1,.65,9.62A64.53,64.53,0,0,1,1389.16,218.08Zm-18.51-48.37a64,64,0,0,1,.65-10.07l-3.25-.07a68.54,68.54,0,0,1-.65-10.18,64.29,64.29,0,0,1,.65-10.11l-9.75-.63A69.77,69.77,0,0,1,1359,149a71.83,71.83,0,0,1-.65,10.33l-3.25-.07a70.07,70.07,0,0,1,.65,10.42,73.37,73.37,0,0,1-.65,10.42l16.25-.35A66.88,66.88,0,0,1,1370.65,169.71Z"/><path class="cls-1" d="M1454,210.09a40.74,40.74,0,0,1,.65,8,46.12,46.12,0,0,1-.65,8.18q-6.48,1.2-13,2.36a46,46,0,0,1-.65-8.31,47.33,47.33,0,0,1,.65-8.52l-4.86.62a47.14,47.14,0,0,1-.64-8.47,48.17,48.17,0,0,1,.64-8.6l-4.85.37a49,49,0,0,1-.65-8.63,48,48,0,0,1,.65-8.7l-16.21.4a52.65,52.65,0,0,1,.65,9,56.34,56.34,0,0,1-.65,9.1,52,52,0,0,1,.65,9,56.78,56.78,0,0,1-.65,9.12,51.49,51.49,0,0,1,.65,9,57.49,57.49,0,0,1-.65,9.16q-6.48,1.09-13,2.17a56.28,56.28,0,0,1-.65-9.28,58.35,58.35,0,0,1,.65-9.47,56.84,56.84,0,0,1-.65-9.31,57.65,57.65,0,0,1,.65-9.43,67.93,67.93,0,0,1,0-18.75,58,58,0,0,1-.65-9.37,56.52,56.52,0,0,1,.65-9.37,58.66,58.66,0,0,1-.65-9.41,56,56,0,0,1,.65-9.34,59.1,59.1,0,0,1-.65-9.43,55.32,55.32,0,0,1,.65-9.31,59.9,59.9,0,0,1-.65-9.47,54.85,54.85,0,0,1,.65-9.28q22.71,3.75,45.37,7.88a46,46,0,0,1,.64,8.35,44.6,44.6,0,0,1-.64,8.15l6.47.85a50.48,50.48,0,0,1,0,16.15l-3.24-.26a43.88,43.88,0,0,1,.65,8.2,44.75,44.75,0,0,1-.65,8.13l-9.71-.25a45.8,45.8,0,0,1,.65,8.41,48,48,0,0,1-.65,8.41l3.24-.08a44.44,44.44,0,0,1,.65,8.3,47.63,47.63,0,0,1-.65,8.36l4.86-.38a43.61,43.61,0,0,1,.64,8.14,47.92,47.92,0,0,1-.64,8.27Zm-16.83-57.41a46,46,0,0,1,.64-8.46,50,50,0,0,1-.64-8.57,45.54,45.54,0,0,1,.64-8.43q-11.32-1.44-22.68-2.82a63.46,63.46,0,0,1,0,18.12,53.78,53.78,0,0,1,.65,9.1,55.08,55.08,0,0,1-.65,9l22.68.56A49.29,49.29,0,0,1,1437.15,152.68Z"/><path class="cls-1" d="M1508.9,202.41a26.44,26.44,0,0,1,.65,6.42,30.83,30.83,0,0,1-.65,6.65q-16.12,3.35-32.29,6.48a36.16,36.16,0,0,1-.64-7.36,37.69,37.69,0,0,1,.64-7.57l9.7-1.36a33.89,33.89,0,0,1-.65-7.12,34.45,34.45,0,0,1,.65-7.26,34.5,34.5,0,0,1-.65-7.16,34,34,0,0,1,.65-7.23,35,35,0,0,1-.65-7.19,33.42,33.42,0,0,1,.65-7.19,35.57,35.57,0,0,1-.65-7.23,33,33,0,0,1,.65-7.16,36.09,36.09,0,0,1-.65-7.26,32.4,32.4,0,0,1,.65-7.12l-9.7-1.36a39.39,39.39,0,0,1-.64-7.57,34.4,34.4,0,0,1,.64-7.35q16.17,3.14,32.29,6.47a29.43,29.43,0,0,1,.65,6.65,27.82,27.82,0,0,1-.65,6.43l-9.68-1.42a31.39,31.39,0,0,1,.65,6.9,30.67,30.67,0,0,1-.65,6.74,30.93,30.93,0,0,1,.65,6.86,31.34,31.34,0,0,1-.65,6.79,30.36,30.36,0,0,1,.65,6.82,31.77,31.77,0,0,1-.65,6.82,30,30,0,0,1,.65,6.79,32.36,32.36,0,0,1-.65,6.86,29.33,29.33,0,0,1,.65,6.75,32.86,32.86,0,0,1-.65,6.89Z"/><polygon class="cls-6" points="402.15 424 359.89 372.92 444.42 372.92 402.15 424"/><polygon class="cls-6" points="444.77 372.76 360.18 372.76 384.26 350.15 420.7 350.15 444.77 372.76"/><polygon class="cls-15" points="402.15 423.84 359.89 372.76 444.42 372.76 402.15 423.84"/><polygon class="cls-15" points="402.15 423.84 383.93 372.76 420.37 372.76 402.15 423.84"/><polygon class="cls-16" points="444.45 372.76 359.86 372.76 383.93 350.15 420.37 350.15 444.45 372.76"/><rect class="cls-17" x="383.93" y="350.31" width="36.44" height="22.45"/><polygon class="cls-16" points="402.17 350.31 420.37 372.76 383.97 372.76 402.17 350.31"/><polygon class="cls-18" points="402.17 372.76 420.37 350.31 383.97 350.31 402.17 372.76"/><polygon class="cls-6" points="385.22 351.3 391.9 350.4 385.22 349.49 389.31 344.13 383.95 348.22 383.04 341.54 382.14 348.22 376.78 344.13 380.87 349.49 374.18 350.4 380.87 351.3 376.78 356.66 382.14 352.57 383.04 359.26 383.95 352.57 389.31 356.66 385.22 351.3"/><polygon class="cls-6" points="391.58 364.96 395.81 364.39 391.58 363.81 394.17 360.42 390.77 363.01 390.2 358.78 389.63 363.01 386.24 360.42 388.82 363.81 384.6 364.39 388.82 364.96 386.24 368.35 389.63 365.76 390.2 369.99 390.77 365.76 394.17 368.35 391.58 364.96"/><polygon class="cls-6" points="366.42 367.8 368.8 367.48 366.42 367.15 367.88 365.24 365.96 366.7 365.64 364.31 365.31 366.7 363.4 365.24 364.86 367.15 362.47 367.48 364.86 367.8 363.4 369.72 365.31 368.25 365.64 370.64 365.96 368.25 367.88 369.72 366.42 367.8"/><path class="cls-19" d="M242.4,340.78c-1.05,2.38-10.41,2.43-10.41-.17,0-17.22-2.58-37.51-16.45-37.73l-.44-3.12C234.71,300.07,251.65,319.82,242.4,340.78Z"/><path class="cls-19" d="M103.21,252.73c0,2.59,2.89,4.68,6.46,4.68s6.46-2.32,6.46-4.9-2.89-4.46-6.46-4.46S103.21,250.15,103.21,252.73Z"/><path class="cls-19" d="M128.47,291.56l-21.92-38a3,3,0,0,1,1.11-4.13l.45-.53c1.44-.83,4.9,0,7.13,1.34l21.7,36.39a3,3,0,0,1-1.11,4.13l-3.23,1.87A3,3,0,0,1,128.47,291.56Z"/><rect class="cls-3" x="194.59" y="330.08" width="14.27" height="51.71"/><path class="cls-3" d="M101.15,262.53h0a3.06,3.06,0,0,1-3.63-2.34L95,248.26c-.36-1.64.5-5.77,2.14-6.13l-.22.05c1.64-.35,3.69,3.15,4,4.79l2.58,11.93A3.06,3.06,0,0,1,101.15,262.53Z"/><rect class="cls-3" x="127.28" y="330.08" width="14.27" height="51.71"/><path class="cls-20" d="M204.07,334.09l-65.71,12c-9.74,0-22.67-14-22.67-25.41l.4-9.36c0-11.4,4.33-18.72,14.07-18.72h73.91c9.74,0,17.72,9.33,17.72,20.73h0C221.79,324.76,213.81,334.09,204.07,334.09Z"/><polygon class="cls-20" points="146.08 314.01 117.01 326.53 91.09 266.35 113.01 256.97 146.08 314.01"/><circle class="cls-20" cx="99.86" cy="267" r="16.27"/><path class="cls-20" d="M78.33,289.1h0c5.26,1.75,10.66-2.35,17.3-6.28l8.31-11.95a11.17,11.17,0,0,0-3.07-15.46h0a11.18,11.18,0,0,0-15.46,3.06L75.27,273.64C71.86,278.73,74.67,284.16,78.33,289.1Z"/><circle class="cls-20" cx="80.69" cy="280.82" r="8.69"/><rect class="cls-20" x="134.41" y="330.08" width="14.27" height="51.71"/><path class="cls-21" d="M105.45,259.66h0c-1.57.47-3.91-3.39-4.83-5.27l-2.28-8.2c.33-2.15.06-5.67,1.64-6.14l-.21.06c1.57-.47,2.74,2.81,3.21,4.38L107.47,256A3,3,0,0,1,105.45,259.66Z"/><rect class="cls-19" x="134.41" y="375.55" width="14.27" height="6.24"/><rect class="cls-22" x="127.28" y="375.55" width="7.13" height="6.24"/><rect class="cls-20" x="201.72" y="326.51" width="14.27" height="55.28"/><rect class="cls-19" x="201.72" y="375.55" width="14.27" height="6.24"/><rect class="cls-22" x="194.59" y="375.55" width="7.13" height="6.24"/><circle class="cls-23" cx="94.96" cy="264.77" r="2.01"/><path class="cls-24" d="M83,262.13c1.33.88.86,3.93-1,6.8s-4.53,4.49-5.85,3.61"/></g></svg>
